<svg xmlns="http://www.w3.org/2000/svg" xmlns:xlink="http://www.w3.org/1999/xlink" width="778.573" height="685.433" viewBox="0 0 778.573 685.433">
  <defs>
    <filter id="Rectángulo_46666" x="0" y="207.323" width="261.005" height="276.784" filterUnits="userSpaceOnUse">
      <feOffset dy="3" input="SourceAlpha"/>
      <feGaussianBlur stdDeviation="3" result="blur"/>
      <feFlood flood-opacity="0.161"/>
      <feComposite operator="in" in2="blur"/>
      <feComposite in="SourceGraphic"/>
    </filter>
    <filter id="Rectángulo_46726" x="257.206" y="207.323" width="261.005" height="276.784" filterUnits="userSpaceOnUse">
      <feOffset dy="3" input="SourceAlpha"/>
      <feGaussianBlur stdDeviation="3" result="blur-2"/>
      <feFlood flood-opacity="0.161"/>
      <feComposite operator="in" in2="blur-2"/>
      <feComposite in="SourceGraphic"/>
    </filter>
    <filter id="Rectángulo_46727" x="517.568" y="207.323" width="261.005" height="276.784" filterUnits="userSpaceOnUse">
      <feOffset dy="3" input="SourceAlpha"/>
      <feGaussianBlur stdDeviation="3" result="blur-3"/>
      <feFlood flood-opacity="0.161"/>
      <feComposite operator="in" in2="blur-3"/>
      <feComposite in="SourceGraphic"/>
    </filter>
  </defs>
  <g id="Grupo_161762" data-name="Grupo 161762" transform="translate(-389.714 -852.081)">
    <g id="Grupo_161722" data-name="Grupo 161722" transform="translate(-30.92 -3364.711)">
      <path id="Trazado_199806" data-name="Trazado 199806" d="M0,350.184H184.728V0H492.9V350.184H685.433L327.414,653.831Z" transform="translate(524.353 4902.226) rotate(-90)" fill="#e8e8e8"/>
      <g transform="matrix(1, 0, 0, 1, 420.63, 4216.79)" filter="url(#Rectángulo_46666)">
        <rect id="Rectángulo_46666-2" data-name="Rectángulo 46666" width="243.005" height="258.784" rx="10" transform="translate(9 213.32)" fill="#1565c0"/>
      </g>
      <g transform="matrix(1, 0, 0, 1, 420.63, 4216.79)" filter="url(#Rectángulo_46726)">
        <rect id="Rectángulo_46726-2" data-name="Rectángulo 46726" width="243.005" height="258.784" rx="10" transform="translate(266.21 213.32)" fill="#5793ce"/>
      </g>
      <g transform="matrix(1, 0, 0, 1, 420.63, 4216.79)" filter="url(#Rectángulo_46727)">
        <rect id="Rectángulo_46727-2" data-name="Rectángulo 46727" width="243.005" height="258.784" rx="10" transform="translate(526.57 213.32)" fill="#43bda7"/>
      </g>
      <path id="Trazado_199893" data-name="Trazado 199893" d="M-68.665-5.92A6.289,6.289,0,0,1-70.782-1.4,7.438,7.438,0,0,1-75.818.244a6.688,6.688,0,0,1-5.377-2.3,9.435,9.435,0,0,1-1.959-6.317V-9.46a10.654,10.654,0,0,1,.9-4.517,6.769,6.769,0,0,1,2.582-3,7.232,7.232,0,0,1,3.9-1.044,7.246,7.246,0,0,1,4.956,1.648,6.759,6.759,0,0,1,2.173,4.626H-72.3a3.712,3.712,0,0,0-.958-2.5,3.548,3.548,0,0,0-2.509-.775A3.112,3.112,0,0,0-78.51-13.7a7.354,7.354,0,0,0-.934,4.071v1.343a7.871,7.871,0,0,0,.873,4.211,3.054,3.054,0,0,0,2.753,1.331,3.615,3.615,0,0,0,2.533-.775,3.5,3.5,0,0,0,.958-2.4Zm1.624-.806a7.833,7.833,0,0,1,.757-3.5,5.54,5.54,0,0,1,2.179-2.38,6.357,6.357,0,0,1,3.3-.842,6.014,6.014,0,0,1,4.364,1.636,6.565,6.565,0,0,1,1.886,4.443l.024.9a6.9,6.9,0,0,1-1.7,4.877A5.9,5.9,0,0,1-60.779.244a5.927,5.927,0,0,1-4.559-1.831,7.025,7.025,0,0,1-1.7-4.98Zm3.528.25A4.937,4.937,0,0,0-62.805-3.6a2.336,2.336,0,0,0,2.026,1,2.341,2.341,0,0,0,2-.984,5.4,5.4,0,0,0,.72-3.148,4.888,4.888,0,0,0-.72-2.861A2.341,2.341,0,0,0-60.8-10.608a2.3,2.3,0,0,0-2,1.009A5.493,5.493,0,0,0-63.513-6.476Zm14.4-6.732.11,1.526a4.611,4.611,0,0,1,3.8-1.77,3.832,3.832,0,0,1,3.125,1.233,5.752,5.752,0,0,1,1.05,3.687V0h-3.528V-8.467a2.3,2.3,0,0,0-.488-1.633,2.183,2.183,0,0,0-1.624-.508A2.426,2.426,0,0,0-48.9-9.336V0h-3.528V-13.208ZM-31.2-3.65a1.137,1.137,0,0,0-.641-1.019A7.28,7.28,0,0,0-33.9-5.334q-4.712-.989-4.712-4a3.629,3.629,0,0,1,1.459-2.936,5.884,5.884,0,0,1,3.815-1.178,6.333,6.333,0,0,1,4.022,1.184,3.732,3.732,0,0,1,1.508,3.076h-3.528a1.707,1.707,0,0,0-.488-1.251,2.066,2.066,0,0,0-1.526-.494,2.111,2.111,0,0,0-1.379.4,1.272,1.272,0,0,0-.488,1.025,1.087,1.087,0,0,0,.555.946,5.714,5.714,0,0,0,1.874.623,15.3,15.3,0,0,1,2.222.592q2.8,1.025,2.8,3.552a3.445,3.445,0,0,1-1.55,2.924,6.688,6.688,0,0,1-4,1.117,6.985,6.985,0,0,1-2.948-.592,4.946,4.946,0,0,1-2.02-1.624A3.772,3.772,0,0,1-39.026-4.2h3.345a1.842,1.842,0,0,0,.7,1.44,2.76,2.76,0,0,0,1.733.5,2.554,2.554,0,0,0,1.532-.385A1.2,1.2,0,0,0-31.2-3.65ZM-17.59-1.343A4.424,4.424,0,0,1-21.2.244,4.172,4.172,0,0,1-24.445-.977a5.211,5.211,0,0,1-1.141-3.577v-8.655h3.528v8.543q0,2.065,1.88,2.065a2.547,2.547,0,0,0,2.466-1.247v-9.361h3.54V0h-3.32ZM-7.788,0h-3.54V-18.75h3.54ZM-.659-16.455v3.247H1.6v2.588H-.659v6.592a1.574,1.574,0,0,0,.281,1.05A1.41,1.41,0,0,0,.7-2.661a5.626,5.626,0,0,0,1.038-.085V-.073A7.263,7.263,0,0,1-.4.244Q-4.114.244-4.187-3.5V-10.62H-6.116v-2.588h1.929v-3.247ZM11.218,0a3.918,3.918,0,0,1-.354-1.184A4.269,4.269,0,0,1,7.532.244,4.69,4.69,0,0,1,4.315-.879,3.612,3.612,0,0,1,3.04-3.711,3.733,3.733,0,0,1,4.6-6.934a7.68,7.68,0,0,1,4.5-1.135h1.624v-.757a2.177,2.177,0,0,0-.47-1.465,1.849,1.849,0,0,0-1.483-.549,2.1,2.1,0,0,0-1.4.427A1.451,1.451,0,0,0,6.86-9.241H3.333a3.544,3.544,0,0,1,.708-2.124,4.68,4.68,0,0,1,2-1.532,7.3,7.3,0,0,1,2.905-.555,5.764,5.764,0,0,1,3.876,1.227,4.292,4.292,0,0,1,1.434,3.448v5.725a6.314,6.314,0,0,0,.525,2.844V0ZM8.3-2.454A3.038,3.038,0,0,0,9.741-2.8a2.285,2.285,0,0,0,.977-.934V-6.006H9.4q-2.649,0-2.82,1.831l-.012.208a1.412,1.412,0,0,0,.464,1.086A1.8,1.8,0,0,0,8.3-2.454ZM24.39-9.9a9.584,9.584,0,0,0-1.27-.1A2.584,2.584,0,0,0,20.5-8.643V0H16.968V-13.208H20.3l.1,1.575a3.269,3.269,0,0,1,2.942-1.819,3.7,3.7,0,0,1,1.1.159ZM39.966,0a3.918,3.918,0,0,1-.354-1.184A4.269,4.269,0,0,1,36.279.244,4.69,4.69,0,0,1,33.063-.879a3.612,3.612,0,0,1-1.276-2.832,3.733,3.733,0,0,1,1.556-3.223,7.68,7.68,0,0,1,4.5-1.135h1.624v-.757A2.177,2.177,0,0,0,39-10.291a1.849,1.849,0,0,0-1.483-.549,2.1,2.1,0,0,0-1.4.427,1.451,1.451,0,0,0-.507,1.172H32.08a3.544,3.544,0,0,1,.708-2.124,4.68,4.68,0,0,1,2-1.532,7.3,7.3,0,0,1,2.905-.555,5.764,5.764,0,0,1,3.876,1.227,4.292,4.292,0,0,1,1.434,3.448v5.725A6.314,6.314,0,0,0,43.53-.208V0ZM37.048-2.454a3.038,3.038,0,0,0,1.44-.348,2.285,2.285,0,0,0,.977-.934V-6.006H38.147q-2.649,0-2.82,1.831l-.012.208a1.412,1.412,0,0,0,.464,1.086A1.8,1.8,0,0,0,37.048-2.454ZM55.664,0h-3.54V-18.75h3.54ZM58.02-6.726a7.833,7.833,0,0,1,.757-3.5,5.54,5.54,0,0,1,2.179-2.38,6.357,6.357,0,0,1,3.3-.842,6.014,6.014,0,0,1,4.364,1.636,6.565,6.565,0,0,1,1.886,4.443l.024.9a6.9,6.9,0,0,1-1.7,4.877A5.9,5.9,0,0,1,64.282.244a5.927,5.927,0,0,1-4.559-1.831,7.025,7.025,0,0,1-1.7-4.98Zm3.528.25A4.937,4.937,0,0,0,62.256-3.6a2.336,2.336,0,0,0,2.026,1,2.341,2.341,0,0,0,2-.984A5.4,5.4,0,0,0,67-6.732a4.888,4.888,0,0,0-.72-2.861,2.341,2.341,0,0,0-2.026-1.015,2.3,2.3,0,0,0-2,1.009A5.493,5.493,0,0,0,61.548-6.476ZM79.858-3.65a1.137,1.137,0,0,0-.641-1.019,7.28,7.28,0,0,0-2.057-.665q-4.712-.989-4.712-4a3.629,3.629,0,0,1,1.459-2.936,5.884,5.884,0,0,1,3.815-1.178,6.333,6.333,0,0,1,4.022,1.184,3.732,3.732,0,0,1,1.508,3.076H79.724a1.707,1.707,0,0,0-.488-1.251,2.066,2.066,0,0,0-1.526-.494,2.111,2.111,0,0,0-1.379.4,1.272,1.272,0,0,0-.488,1.025,1.087,1.087,0,0,0,.555.946,5.714,5.714,0,0,0,1.874.623,15.3,15.3,0,0,1,2.222.592q2.8,1.025,2.8,3.552a3.445,3.445,0,0,1-1.55,2.924,6.688,6.688,0,0,1-4,1.117,6.985,6.985,0,0,1-2.948-.592,4.946,4.946,0,0,1-2.02-1.624A3.772,3.772,0,0,1,72.034-4.2h3.345a1.842,1.842,0,0,0,.7,1.44,2.76,2.76,0,0,0,1.733.5,2.554,2.554,0,0,0,1.532-.385A1.2,1.2,0,0,0,79.858-3.65ZM-100.439,21.3a7.741,7.741,0,0,1,1.447-4.9,4.687,4.687,0,0,1,3.9-1.855,4.111,4.111,0,0,1,3.381,1.489l.146-1.245h3.2V27.561a5.645,5.645,0,0,1-.787,3.015,5.057,5.057,0,0,1-2.216,1.953,7.789,7.789,0,0,1-3.345.671,7.243,7.243,0,0,1-2.832-.58,5.026,5.026,0,0,1-2.087-1.5l1.563-2.148a4.133,4.133,0,0,0,3.2,1.477,3.025,3.025,0,0,0,2.185-.751,2.816,2.816,0,0,0,.781-2.13v-.708a4.081,4.081,0,0,1-3.21,1.379,4.675,4.675,0,0,1-3.851-1.862,7.739,7.739,0,0,1-1.471-4.938Zm3.528.251a4.846,4.846,0,0,0,.72,2.827A2.289,2.289,0,0,0-94.214,25.4a2.448,2.448,0,0,0,2.307-1.214v-5.58a2.442,2.442,0,0,0-2.283-1.214,2.3,2.3,0,0,0-2,1.042A5.462,5.462,0,0,0-96.912,21.549ZM-78.235,18.1A9.584,9.584,0,0,0-79.5,18a2.584,2.584,0,0,0-2.625,1.355V28h-3.528V14.792h3.333l.1,1.575a3.269,3.269,0,0,1,2.942-1.819,3.7,3.7,0,0,1,1.1.159Zm9.607,8.557a4.424,4.424,0,0,1-3.613,1.587,4.172,4.172,0,0,1-3.241-1.221,5.211,5.211,0,0,1-1.141-3.577V14.792H-73.1v8.543q0,2.065,1.88,2.065a2.547,2.547,0,0,0,2.466-1.247V14.792h3.54V28h-3.32Zm17.969-5.139a7.921,7.921,0,0,1-1.385,4.889,4.442,4.442,0,0,1-3.741,1.837,4.115,4.115,0,0,1-3.235-1.392v6.226h-3.528V14.792h3.271l.122,1.294a4.146,4.146,0,0,1,3.345-1.538,4.472,4.472,0,0,1,3.8,1.807,8.136,8.136,0,0,1,1.355,4.98Zm-3.528-.269A5.227,5.227,0,0,0-54.84,18.4a2.125,2.125,0,0,0-1.9-1,2.309,2.309,0,0,0-2.283,1.273V24.09a2.348,2.348,0,0,0,2.307,1.31Q-54.187,25.4-54.187,21.249Zm5.164.025a7.833,7.833,0,0,1,.757-3.5,5.54,5.54,0,0,1,2.179-2.38,6.357,6.357,0,0,1,3.3-.842,6.014,6.014,0,0,1,4.364,1.636,6.565,6.565,0,0,1,1.886,4.443l.024.9a6.9,6.9,0,0,1-1.7,4.877,5.9,5.9,0,0,1-4.553,1.837,5.927,5.927,0,0,1-4.559-1.831,7.025,7.025,0,0,1-1.7-4.98Zm3.528.25a4.937,4.937,0,0,0,.708,2.879,2.336,2.336,0,0,0,2.026,1,2.341,2.341,0,0,0,2-.984,5.4,5.4,0,0,0,.72-3.148,4.888,4.888,0,0,0-.72-2.861,2.341,2.341,0,0,0-2.026-1.015,2.3,2.3,0,0,0-2,1.009A5.493,5.493,0,0,0-45.5,21.524Zm18.311,2.826a1.137,1.137,0,0,0-.641-1.019,7.28,7.28,0,0,0-2.057-.665q-4.712-.989-4.712-4a3.629,3.629,0,0,1,1.459-2.936,5.884,5.884,0,0,1,3.815-1.178A6.333,6.333,0,0,1-25.3,15.732a3.732,3.732,0,0,1,1.508,3.076h-3.528a1.707,1.707,0,0,0-.488-1.251,2.066,2.066,0,0,0-1.526-.494,2.111,2.111,0,0,0-1.379.4,1.272,1.272,0,0,0-.488,1.025,1.087,1.087,0,0,0,.555.946,5.714,5.714,0,0,0,1.874.623,15.3,15.3,0,0,1,2.222.592q2.8,1.025,2.8,3.552a3.445,3.445,0,0,1-1.55,2.924,6.688,6.688,0,0,1-4,1.117,6.985,6.985,0,0,1-2.948-.592,4.946,4.946,0,0,1-2.02-1.624A3.772,3.772,0,0,1-35.01,23.8h3.345a1.842,1.842,0,0,0,.7,1.44,2.76,2.76,0,0,0,1.733.5,2.554,2.554,0,0,0,1.532-.385A1.2,1.2,0,0,0-27.185,24.35ZM-15.808,21.3a7.96,7.96,0,0,1,1.385-4.919,4.5,4.5,0,0,1,3.79-1.831,4.045,4.045,0,0,1,3.186,1.44V9.25h3.54V28H-7.092l-.171-1.4a4.151,4.151,0,0,1-3.394,1.648A4.483,4.483,0,0,1-14.4,26.407,8.216,8.216,0,0,1-15.808,21.3Zm3.528.251a5.243,5.243,0,0,0,.647,2.857,2.106,2.106,0,0,0,1.88.993,2.36,2.36,0,0,0,2.307-1.386V18.778a2.326,2.326,0,0,0-2.283-1.386Q-12.28,17.392-12.28,21.549ZM4.907,28.244a6.484,6.484,0,0,1-4.73-1.782,6.335,6.335,0,0,1-1.825-4.749v-.342a7.979,7.979,0,0,1,.769-3.558A5.644,5.644,0,0,1,1.3,15.4a6.116,6.116,0,0,1,3.217-.848,5.482,5.482,0,0,1,4.266,1.709A6.944,6.944,0,0,1,10.339,21.1v1.44H1.929A3.277,3.277,0,0,0,2.96,24.619a3.118,3.118,0,0,0,2.179.781,3.808,3.808,0,0,0,3.186-1.477l1.733,1.941A5.3,5.3,0,0,1,7.91,27.615,7.049,7.049,0,0,1,4.907,28.244ZM4.5,17.392a2.2,2.2,0,0,0-1.7.711,3.682,3.682,0,0,0-.836,2.035H6.873v-.282a2.626,2.626,0,0,0-.635-1.821A2.274,2.274,0,0,0,4.5,17.392ZM28.516,28h-3.54V14.792h3.54ZM24.768,11.374a1.737,1.737,0,0,1,.531-1.306,2.288,2.288,0,0,1,2.887,0,1.864,1.864,0,0,1-.006,2.625,2.263,2.263,0,0,1-2.869,0A1.732,1.732,0,0,1,24.768,11.374Zm9.9,3.418.11,1.526a4.611,4.611,0,0,1,3.8-1.77A3.832,3.832,0,0,1,41.7,15.781a5.752,5.752,0,0,1,1.05,3.687V28H39.221V19.533a2.3,2.3,0,0,0-.488-1.633,2.183,2.183,0,0,0-1.624-.508,2.426,2.426,0,0,0-2.234,1.272V28H31.348V14.792Zm14.978-3.247v3.247H51.9V17.38H49.646v6.592a1.574,1.574,0,0,0,.281,1.05A1.41,1.41,0,0,0,51,25.339a5.626,5.626,0,0,0,1.038-.085v2.673a7.263,7.263,0,0,1-2.136.317q-3.711,0-3.784-3.748V17.38H44.189V14.792h1.929V11.545Zm10.3,16.7a6.484,6.484,0,0,1-4.73-1.782,6.335,6.335,0,0,1-1.825-4.749v-.342a7.979,7.979,0,0,1,.769-3.558A5.644,5.644,0,0,1,56.342,15.4a6.116,6.116,0,0,1,3.217-.848,5.482,5.482,0,0,1,4.266,1.709A6.944,6.944,0,0,1,65.381,21.1v1.44H56.97A3.277,3.277,0,0,0,58,24.619a3.118,3.118,0,0,0,2.179.781,3.808,3.808,0,0,0,3.186-1.477L65.1,25.864a5.3,5.3,0,0,1-2.148,1.752A7.049,7.049,0,0,1,59.949,28.244Zm-.4-10.852a2.2,2.2,0,0,0-1.7.711,3.682,3.682,0,0,0-.836,2.035h4.907v-.282a2.626,2.626,0,0,0-.635-1.821A2.274,2.274,0,0,0,59.546,17.392ZM74.8,18.1a9.584,9.584,0,0,0-1.27-.1,2.584,2.584,0,0,0-2.625,1.355V28H67.383V14.792h3.333l.1,1.575a3.269,3.269,0,0,1,2.942-1.819,3.7,3.7,0,0,1,1.1.159Zm7.544,10.144a6.484,6.484,0,0,1-4.73-1.782,6.335,6.335,0,0,1-1.825-4.749v-.342a7.979,7.979,0,0,1,.769-3.558A5.644,5.644,0,0,1,78.741,15.4a6.116,6.116,0,0,1,3.217-.848,5.482,5.482,0,0,1,4.266,1.709A6.944,6.944,0,0,1,87.781,21.1v1.44H79.37A3.277,3.277,0,0,0,80.4,24.619a3.118,3.118,0,0,0,2.179.781,3.808,3.808,0,0,0,3.186-1.477L87.5,25.864a5.3,5.3,0,0,1-2.148,1.752A7.049,7.049,0,0,1,82.349,28.244Zm-.4-10.852a2.2,2.2,0,0,0-1.7.711,3.682,3.682,0,0,0-.836,2.035h4.907v-.282a2.626,2.626,0,0,0-.635-1.821A2.274,2.274,0,0,0,81.946,17.392Zm.317-8.142h3.845l-3.381,3.784H79.858Zm14.673,15.1a1.137,1.137,0,0,0-.641-1.019,7.28,7.28,0,0,0-2.057-.665q-4.712-.989-4.712-4a3.629,3.629,0,0,1,1.459-2.936A5.884,5.884,0,0,1,94.8,14.548a6.333,6.333,0,0,1,4.022,1.184,3.732,3.732,0,0,1,1.508,3.076H96.8a1.707,1.707,0,0,0-.488-1.251,2.066,2.066,0,0,0-1.526-.494,2.111,2.111,0,0,0-1.379.4,1.272,1.272,0,0,0-.488,1.025,1.087,1.087,0,0,0,.555.946,5.714,5.714,0,0,0,1.874.623,15.3,15.3,0,0,1,2.222.592q2.8,1.025,2.8,3.552a3.445,3.445,0,0,1-1.55,2.924,6.688,6.688,0,0,1-4,1.117,6.985,6.985,0,0,1-2.948-.592,4.946,4.946,0,0,1-2.02-1.624,3.772,3.772,0,0,1-.732-2.228h3.345a1.842,1.842,0,0,0,.7,1.44,2.76,2.76,0,0,0,1.733.5,2.554,2.554,0,0,0,1.532-.385A1.2,1.2,0,0,0,96.936,24.35ZM-83.386,56h-3.54V37.25h3.54Zm10.559,0a3.918,3.918,0,0,1-.354-1.184,4.269,4.269,0,0,1-3.333,1.428,4.69,4.69,0,0,1-3.217-1.123,3.612,3.612,0,0,1-1.276-2.832,3.733,3.733,0,0,1,1.556-3.223,7.68,7.68,0,0,1,4.5-1.135h1.624v-.757a2.177,2.177,0,0,0-.47-1.465,1.849,1.849,0,0,0-1.483-.549,2.1,2.1,0,0,0-1.4.427,1.451,1.451,0,0,0-.507,1.172h-3.528A3.544,3.544,0,0,1-80,44.635,4.68,4.68,0,0,1-78,43.1a7.3,7.3,0,0,1,2.905-.555,5.764,5.764,0,0,1,3.876,1.227,4.292,4.292,0,0,1,1.434,3.448v5.725a6.314,6.314,0,0,0,.525,2.844V56Zm-2.917-2.454A3.038,3.038,0,0,0-74.3,53.2a2.285,2.285,0,0,0,.977-.934V49.994h-1.318q-2.649,0-2.82,1.831l-.012.208a1.412,1.412,0,0,0,.464,1.086A1.8,1.8,0,0,0-75.745,53.546ZM-59.888,56V45.38h-1.965V42.792h1.965V41.669a4.56,4.56,0,0,1,1.276-3.448,4.94,4.94,0,0,1,3.571-1.227,8.315,8.315,0,0,1,1.794.242l-.037,2.712a4.5,4.5,0,0,0-1.074-.11q-1.99,0-1.99,1.883v1.071h2.625V45.38h-2.625V56Zm15.417-9.9a9.584,9.584,0,0,0-1.27-.1,2.584,2.584,0,0,0-2.625,1.355V56h-3.528V42.792h3.333l.1,1.575a3.269,3.269,0,0,1,2.942-1.819,3.7,3.7,0,0,1,1.1.159Zm8.984,9.9a3.918,3.918,0,0,1-.354-1.184,4.269,4.269,0,0,1-3.333,1.428,4.69,4.69,0,0,1-3.217-1.123,3.612,3.612,0,0,1-1.276-2.832,3.733,3.733,0,0,1,1.556-3.223,7.68,7.68,0,0,1,4.5-1.135h1.624v-.757a2.177,2.177,0,0,0-.47-1.465,1.849,1.849,0,0,0-1.483-.549,2.1,2.1,0,0,0-1.4.427,1.451,1.451,0,0,0-.507,1.172h-3.528a3.544,3.544,0,0,1,.708-2.124,4.68,4.68,0,0,1,2-1.532,7.3,7.3,0,0,1,2.905-.555,5.764,5.764,0,0,1,3.876,1.227,4.292,4.292,0,0,1,1.434,3.448v5.725a6.314,6.314,0,0,0,.525,2.844V56ZM-38.4,53.546a3.038,3.038,0,0,0,1.44-.348,2.285,2.285,0,0,0,.977-.934V49.994H-37.3q-2.649,0-2.82,1.831l-.012.208a1.412,1.412,0,0,0,.464,1.086A1.8,1.8,0,0,0-38.4,53.546Zm11.914-10.754.11,1.526a4.611,4.611,0,0,1,3.8-1.77,3.832,3.832,0,0,1,3.125,1.233,5.752,5.752,0,0,1,1.05,3.687V56h-3.528V47.533a2.3,2.3,0,0,0-.488-1.633,2.183,2.183,0,0,0-1.624-.508,2.426,2.426,0,0,0-2.234,1.272V56H-29.81V42.792Zm14.49,0V56.72a4.725,4.725,0,0,1-1.16,3.4A4.408,4.408,0,0,1-16.5,61.334a7.173,7.173,0,0,1-1.746-.208v-2.8a6.622,6.622,0,0,0,1.111.11q1.6,0,1.6-1.7V42.792Zm-3.821-3.418a1.737,1.737,0,0,1,.531-1.306,2,2,0,0,1,1.447-.513,2,2,0,0,1,1.447.513,1.737,1.737,0,0,1,.531,1.306,1.732,1.732,0,0,1-.543,1.318,2,2,0,0,1-1.434.513,2,2,0,0,1-1.434-.513A1.732,1.732,0,0,1-15.82,39.374ZM-1.587,56a3.918,3.918,0,0,1-.354-1.184,4.269,4.269,0,0,1-3.333,1.428A4.69,4.69,0,0,1-8.49,55.121a3.612,3.612,0,0,1-1.276-2.832,3.733,3.733,0,0,1,1.556-3.223,7.68,7.68,0,0,1,4.5-1.135h1.624v-.757a2.177,2.177,0,0,0-.47-1.465,1.849,1.849,0,0,0-1.483-.549,2.1,2.1,0,0,0-1.4.427,1.451,1.451,0,0,0-.507,1.172H-9.473a3.544,3.544,0,0,1,.708-2.124,4.68,4.68,0,0,1,2-1.532,7.3,7.3,0,0,1,2.905-.555A5.764,5.764,0,0,1,.018,43.775a4.292,4.292,0,0,1,1.434,3.448v5.725a6.314,6.314,0,0,0,.525,2.844V56ZM-4.5,53.546a3.038,3.038,0,0,0,1.44-.348,2.285,2.285,0,0,0,.977-.934V49.994H-3.406q-2.649,0-2.82,1.831l-.012.208a1.412,1.412,0,0,0,.464,1.086A1.8,1.8,0,0,0-4.5,53.546Zm18.335-9.314a4.4,4.4,0,0,1,3.528-1.685q4.3,0,4.358,4.993V56H18.188V47.619a2.463,2.463,0,0,0-.488-1.682,2.091,2.091,0,0,0-1.624-.544,2.4,2.4,0,0,0-2.246,1.2V56H10.3V37.25h3.528Zm10,5.042a7.833,7.833,0,0,1,.757-3.5,5.54,5.54,0,0,1,2.179-2.38,6.357,6.357,0,0,1,3.3-.842,6.014,6.014,0,0,1,4.364,1.636,6.565,6.565,0,0,1,1.886,4.443l.024.9a6.9,6.9,0,0,1-1.7,4.877,5.9,5.9,0,0,1-4.553,1.837,5.927,5.927,0,0,1-4.559-1.831,7.025,7.025,0,0,1-1.7-4.98Zm3.528.25a4.937,4.937,0,0,0,.708,2.879,2.543,2.543,0,0,0,4.028.012,5.4,5.4,0,0,0,.72-3.148,4.888,4.888,0,0,0-.72-2.861,2.341,2.341,0,0,0-2.026-1.015,2.3,2.3,0,0,0-2,1.009A5.493,5.493,0,0,0,27.356,49.524ZM45.935,46.1a9.584,9.584,0,0,0-1.27-.1,2.584,2.584,0,0,0-2.625,1.355V56H38.513V42.792h3.333l.1,1.575a3.269,3.269,0,0,1,2.942-1.819,3.7,3.7,0,0,1,1.1.159ZM54.919,56a3.918,3.918,0,0,1-.354-1.184,4.269,4.269,0,0,1-3.333,1.428,4.69,4.69,0,0,1-3.217-1.123,3.612,3.612,0,0,1-1.276-2.832A3.733,3.733,0,0,1,48.3,49.066a7.68,7.68,0,0,1,4.5-1.135h1.624v-.757a2.177,2.177,0,0,0-.47-1.465,1.849,1.849,0,0,0-1.483-.549,2.1,2.1,0,0,0-1.4.427,1.451,1.451,0,0,0-.507,1.172H47.034a3.544,3.544,0,0,1,.708-2.124,4.68,4.68,0,0,1,2-1.532,7.3,7.3,0,0,1,2.905-.555,5.764,5.764,0,0,1,3.876,1.227,4.292,4.292,0,0,1,1.434,3.448v5.725a6.314,6.314,0,0,0,.525,2.844V56ZM52,53.546a3.038,3.038,0,0,0,1.44-.348,2.285,2.285,0,0,0,.977-.934V49.994H53.1q-2.649,0-2.82,1.831l-.012.208a1.412,1.412,0,0,0,.464,1.086A1.8,1.8,0,0,0,52,53.546ZM68.091,46.1a9.584,9.584,0,0,0-1.27-.1A2.584,2.584,0,0,0,64.2,47.357V56H60.669V42.792H64l.1,1.575a3.269,3.269,0,0,1,2.942-1.819,3.7,3.7,0,0,1,1.1.159Zm5.42,9.9h-3.54V42.792h3.54ZM69.763,39.374a1.737,1.737,0,0,1,.531-1.306,2.288,2.288,0,0,1,2.887,0,1.864,1.864,0,0,1-.006,2.625,2.263,2.263,0,0,1-2.869,0A1.732,1.732,0,0,1,69.763,39.374ZM84.07,56a3.918,3.918,0,0,1-.354-1.184,4.269,4.269,0,0,1-3.333,1.428,4.69,4.69,0,0,1-3.217-1.123,3.612,3.612,0,0,1-1.276-2.832,3.733,3.733,0,0,1,1.556-3.223,7.68,7.68,0,0,1,4.5-1.135h1.624v-.757a2.177,2.177,0,0,0-.47-1.465,1.849,1.849,0,0,0-1.483-.549,2.1,2.1,0,0,0-1.4.427,1.451,1.451,0,0,0-.507,1.172H76.184a3.544,3.544,0,0,1,.708-2.124,4.68,4.68,0,0,1,2-1.532,7.3,7.3,0,0,1,2.905-.555,5.764,5.764,0,0,1,3.876,1.227,4.292,4.292,0,0,1,1.434,3.448v5.725a6.314,6.314,0,0,0,.525,2.844V56Zm-2.917-2.454a3.038,3.038,0,0,0,1.44-.348,2.285,2.285,0,0,0,.977-.934V49.994H82.251q-2.649,0-2.82,1.831l-.012.208a1.412,1.412,0,0,0,.464,1.086A1.8,1.8,0,0,0,81.152,53.546ZM-100.928,77.3a7.96,7.96,0,0,1,1.385-4.919,4.5,4.5,0,0,1,3.79-1.831,4.045,4.045,0,0,1,3.186,1.44V65.25h3.54V84h-3.186l-.171-1.4a4.151,4.151,0,0,1-3.394,1.648,4.483,4.483,0,0,1-3.741-1.837A8.216,8.216,0,0,1-100.928,77.3Zm3.528.251a5.243,5.243,0,0,0,.647,2.857,2.106,2.106,0,0,0,1.88.993,2.36,2.36,0,0,0,2.307-1.386V74.778a2.326,2.326,0,0,0-2.283-1.386Q-97.4,73.392-97.4,77.549Zm17.188,6.695a6.484,6.484,0,0,1-4.73-1.782,6.335,6.335,0,0,1-1.825-4.749v-.342A7.979,7.979,0,0,1-86,73.813,5.644,5.644,0,0,1-83.82,71.4a6.116,6.116,0,0,1,3.217-.848,5.482,5.482,0,0,1,4.266,1.709A6.944,6.944,0,0,1-74.78,77.1v1.44h-8.411a3.277,3.277,0,0,0,1.031,2.075,3.118,3.118,0,0,0,2.179.781,3.808,3.808,0,0,0,3.186-1.477l1.733,1.941a5.3,5.3,0,0,1-2.148,1.752A7.049,7.049,0,0,1-80.212,84.244Zm-.4-10.852a2.2,2.2,0,0,0-1.7.711,3.682,3.682,0,0,0-.836,2.035h4.907v-.282a2.626,2.626,0,0,0-.635-1.821A2.274,2.274,0,0,0-80.615,73.392Zm17.371-2.6.11,1.477a4.642,4.642,0,0,1,3.8-1.721,3.523,3.523,0,0,1,3.5,2.014,4.535,4.535,0,0,1,3.967-2.014,3.94,3.94,0,0,1,3.2,1.251,5.751,5.751,0,0,1,1.05,3.766V84h-3.54V75.558a2.525,2.525,0,0,0-.439-1.646,1.945,1.945,0,0,0-1.55-.52,2.2,2.2,0,0,0-2.2,1.517L-55.334,84h-3.528V75.57a2.494,2.494,0,0,0-.452-1.664,1.964,1.964,0,0,0-1.538-.514,2.285,2.285,0,0,0-2.173,1.248V84h-3.528V70.792ZM-37.256,84a3.918,3.918,0,0,1-.354-1.184,4.269,4.269,0,0,1-3.333,1.428,4.69,4.69,0,0,1-3.217-1.123,3.612,3.612,0,0,1-1.276-2.832,3.732,3.732,0,0,1,1.556-3.223,7.68,7.68,0,0,1,4.5-1.135h1.624v-.757a2.177,2.177,0,0,0-.47-1.465,1.849,1.849,0,0,0-1.483-.549,2.1,2.1,0,0,0-1.4.427,1.451,1.451,0,0,0-.507,1.172h-3.528a3.544,3.544,0,0,1,.708-2.124,4.68,4.68,0,0,1,2-1.532,7.3,7.3,0,0,1,2.905-.555,5.764,5.764,0,0,1,3.876,1.227,4.292,4.292,0,0,1,1.434,3.448v5.725a6.314,6.314,0,0,0,.525,2.844V84Zm-2.917-2.454a3.038,3.038,0,0,0,1.44-.348,2.285,2.285,0,0,0,.977-.934V77.994h-1.318q-2.649,0-2.82,1.831l-.012.208a1.412,1.412,0,0,0,.464,1.086A1.8,1.8,0,0,0-40.173,81.546Zm11.914-10.754.11,1.526a4.611,4.611,0,0,1,3.8-1.77,3.832,3.832,0,0,1,3.125,1.233,5.752,5.752,0,0,1,1.05,3.687V84h-3.528V75.533a2.3,2.3,0,0,0-.488-1.633,2.183,2.183,0,0,0-1.624-.508,2.426,2.426,0,0,0-2.234,1.272V84H-31.58V70.792Zm14.978-3.247v3.247h2.258V73.38h-2.258v6.592A1.574,1.574,0,0,0-13,81.021a1.41,1.41,0,0,0,1.074.317,5.626,5.626,0,0,0,1.038-.085v2.673a7.263,7.263,0,0,1-2.136.317q-3.711,0-3.784-3.748V73.38h-1.929V70.792h1.929V67.545Zm10.3,16.7a6.484,6.484,0,0,1-4.73-1.782,6.335,6.335,0,0,1-1.825-4.749v-.342a7.979,7.979,0,0,1,.769-3.558A5.644,5.644,0,0,1-6.586,71.4a6.116,6.116,0,0,1,3.217-.848A5.482,5.482,0,0,1,.9,72.257,6.944,6.944,0,0,1,2.454,77.1v1.44H-5.957a3.277,3.277,0,0,0,1.031,2.075,3.118,3.118,0,0,0,2.179.781A3.808,3.808,0,0,0,.439,79.923l1.733,1.941A5.3,5.3,0,0,1,.024,83.615,7.049,7.049,0,0,1-2.979,84.244Zm-.4-10.852a2.2,2.2,0,0,0-1.7.711,3.682,3.682,0,0,0-.836,2.035h4.907v-.282a2.626,2.626,0,0,0-.635-1.821A2.274,2.274,0,0,0-3.381,73.392ZM7.7,70.792l.11,1.526a4.611,4.611,0,0,1,3.8-1.77,3.832,3.832,0,0,1,3.125,1.233,5.752,5.752,0,0,1,1.05,3.687V84H12.256V75.533a2.3,2.3,0,0,0-.488-1.633,2.183,2.183,0,0,0-1.624-.508A2.426,2.426,0,0,0,7.91,74.664V84H4.382V70.792ZM22.18,84H18.64V70.792h3.54ZM18.433,67.374a1.737,1.737,0,0,1,.531-1.306,2,2,0,0,1,1.447-.513,2,2,0,0,1,1.44.513,1.864,1.864,0,0,1-.006,2.625,2.263,2.263,0,0,1-2.869,0A1.732,1.732,0,0,1,18.433,67.374Zm9.961,3.418.11,1.477a4.642,4.642,0,0,1,3.8-1.721,3.523,3.523,0,0,1,3.5,2.014,4.535,4.535,0,0,1,3.967-2.014,3.94,3.94,0,0,1,3.2,1.251,5.751,5.751,0,0,1,1.05,3.766V84h-3.54V75.558a2.525,2.525,0,0,0-.439-1.646,1.945,1.945,0,0,0-1.55-.52,2.2,2.2,0,0,0-2.2,1.517L36.3,84H32.776V75.57a2.494,2.494,0,0,0-.452-1.664,1.964,1.964,0,0,0-1.538-.514,2.285,2.285,0,0,0-2.173,1.248V84H25.085V70.792ZM50.452,84h-3.54V70.792h3.54ZM46.7,67.374a1.737,1.737,0,0,1,.531-1.306,2.288,2.288,0,0,1,2.887,0,1.864,1.864,0,0,1-.006,2.625,2.263,2.263,0,0,1-2.869,0A1.732,1.732,0,0,1,46.7,67.374Zm12.732,16.87a6.484,6.484,0,0,1-4.73-1.782,6.335,6.335,0,0,1-1.825-4.749v-.342a7.979,7.979,0,0,1,.769-3.558A5.644,5.644,0,0,1,55.829,71.4a6.116,6.116,0,0,1,3.217-.848,5.482,5.482,0,0,1,4.266,1.709A6.944,6.944,0,0,1,64.868,77.1v1.44H56.458a3.277,3.277,0,0,0,1.031,2.075,3.118,3.118,0,0,0,2.179.781,3.808,3.808,0,0,0,3.186-1.477l1.733,1.941a5.3,5.3,0,0,1-2.148,1.752A7.049,7.049,0,0,1,59.436,84.244Zm-.4-10.852a2.2,2.2,0,0,0-1.7.711,3.683,3.683,0,0,0-.836,2.035H61.4v-.282a2.626,2.626,0,0,0-.635-1.821A2.274,2.274,0,0,0,59.033,73.392Zm11.084-2.6.11,1.526a4.611,4.611,0,0,1,3.8-1.77,3.832,3.832,0,0,1,3.125,1.233,5.752,5.752,0,0,1,1.05,3.687V84H74.67V75.533a2.3,2.3,0,0,0-.488-1.633,2.183,2.183,0,0,0-1.624-.508,2.426,2.426,0,0,0-2.234,1.272V84H66.8V70.792ZM85.1,67.545v3.247h2.258V73.38H85.1v6.592a1.574,1.574,0,0,0,.281,1.05,1.41,1.41,0,0,0,1.074.317,5.626,5.626,0,0,0,1.038-.085v2.673a7.263,7.263,0,0,1-2.136.317q-3.711,0-3.784-3.748V73.38H79.639V70.792h1.929V67.545ZM88.4,77.274a7.833,7.833,0,0,1,.757-3.5,5.54,5.54,0,0,1,2.179-2.38,6.357,6.357,0,0,1,3.3-.842,6.014,6.014,0,0,1,4.364,1.636,6.565,6.565,0,0,1,1.886,4.443l.024.9a6.9,6.9,0,0,1-1.7,4.877,6.576,6.576,0,0,1-9.113.006,7.025,7.025,0,0,1-1.7-4.98Zm3.528.25a4.937,4.937,0,0,0,.708,2.879,2.543,2.543,0,0,0,4.028.012,5.4,5.4,0,0,0,.72-3.148,4.888,4.888,0,0,0-.72-2.861,2.341,2.341,0,0,0-2.026-1.015,2.3,2.3,0,0,0-2,1.009A5.493,5.493,0,0,0,91.931,77.524Z" transform="translate(552.413 4529.71)" fill="#fff"/>
      <path id="Trazado_199892" data-name="Trazado 199892" d="M-58.148,0H-61.81V-17.773h3.662Zm6.409-13.208.11,1.526a4.611,4.611,0,0,1,3.8-1.77,3.832,3.832,0,0,1,3.125,1.233,5.752,5.752,0,0,1,1.05,3.687V0h-3.528V-8.467a2.3,2.3,0,0,0-.488-1.633,2.183,2.183,0,0,0-1.624-.508,2.426,2.426,0,0,0-2.234,1.272V0H-55.06V-13.208ZM-40.021,0V-10.62h-1.965v-2.588h1.965v-1.123a4.56,4.56,0,0,1,1.276-3.448,4.94,4.94,0,0,1,3.571-1.227,8.315,8.315,0,0,1,1.794.242l-.037,2.712a4.5,4.5,0,0,0-1.074-.11q-1.99,0-1.99,1.883v1.071h2.625v2.588h-2.625V0Zm7.446-6.726a7.833,7.833,0,0,1,.757-3.5,5.54,5.54,0,0,1,2.179-2.38,6.357,6.357,0,0,1,3.3-.842,6.014,6.014,0,0,1,4.364,1.636,6.565,6.565,0,0,1,1.886,4.443l.024.9a6.9,6.9,0,0,1-1.7,4.877A5.9,5.9,0,0,1-26.312.244a5.927,5.927,0,0,1-4.559-1.831,7.025,7.025,0,0,1-1.7-4.98Zm3.528.25A4.937,4.937,0,0,0-28.339-3.6a2.336,2.336,0,0,0,2.026,1,2.341,2.341,0,0,0,2-.984,5.4,5.4,0,0,0,.72-3.148,4.888,4.888,0,0,0-.72-2.861,2.341,2.341,0,0,0-2.026-1.015,2.3,2.3,0,0,0-2,1.009A5.493,5.493,0,0,0-29.047-6.476ZM-10.468-9.9a9.584,9.584,0,0,0-1.27-.1,2.584,2.584,0,0,0-2.625,1.355V0h-3.528V-13.208h3.333l.1,1.575a3.269,3.269,0,0,1,2.942-1.819,3.7,3.7,0,0,1,1.1.159Zm5-3.308.11,1.477a4.642,4.642,0,0,1,3.8-1.721,3.523,3.523,0,0,1,3.5,2.014,4.535,4.535,0,0,1,3.967-2.014,3.94,3.94,0,0,1,3.2,1.251,5.751,5.751,0,0,1,1.05,3.766V0H6.622V-8.442a2.525,2.525,0,0,0-.439-1.646,1.945,1.945,0,0,0-1.55-.52,2.2,2.2,0,0,0-2.2,1.517L2.448,0H-1.08V-8.43a2.494,2.494,0,0,0-.452-1.664,1.964,1.964,0,0,0-1.538-.514A2.285,2.285,0,0,0-5.243-9.36V0H-8.771V-13.208ZM20.526,0a3.918,3.918,0,0,1-.354-1.184A4.269,4.269,0,0,1,16.84.244,4.69,4.69,0,0,1,13.623-.879a3.612,3.612,0,0,1-1.276-2.832A3.733,3.733,0,0,1,13.9-6.934a7.68,7.68,0,0,1,4.5-1.135h1.624v-.757a2.177,2.177,0,0,0-.47-1.465,1.849,1.849,0,0,0-1.483-.549,2.1,2.1,0,0,0-1.4.427,1.451,1.451,0,0,0-.507,1.172H12.64a3.544,3.544,0,0,1,.708-2.124,4.68,4.68,0,0,1,2-1.532,7.3,7.3,0,0,1,2.905-.555,5.764,5.764,0,0,1,3.876,1.227,4.292,4.292,0,0,1,1.434,3.448v5.725a6.314,6.314,0,0,0,.525,2.844V0ZM17.609-2.454a3.038,3.038,0,0,0,1.44-.348,2.285,2.285,0,0,0,.977-.934V-6.006H18.707q-2.649,0-2.82,1.831l-.012.208a1.412,1.412,0,0,0,.464,1.086A1.8,1.8,0,0,0,17.609-2.454Zm13.684-11ZM53.009,0a3.918,3.918,0,0,1-.354-1.184A4.269,4.269,0,0,1,49.323.244,4.69,4.69,0,0,1,46.106-.879,3.612,3.612,0,0,1,44.83-3.711a3.733,3.733,0,0,1,1.556-3.223,7.68,7.68,0,0,1,4.5-1.135h1.624v-.757a2.177,2.177,0,0,0-.47-1.465,1.849,1.849,0,0,0-1.483-.549,2.1,2.1,0,0,0-1.4.427,1.451,1.451,0,0,0-.507,1.172H45.123a3.544,3.544,0,0,1,.708-2.124,4.68,4.68,0,0,1,2-1.532,7.3,7.3,0,0,1,2.905-.555,5.764,5.764,0,0,1,3.876,1.227,4.292,4.292,0,0,1,1.434,3.448v5.725a6.314,6.314,0,0,0,.525,2.844V0ZM50.092-2.454a3.038,3.038,0,0,0,1.44-.348,2.285,2.285,0,0,0,.977-.934V-6.006H51.19q-2.649,0-2.82,1.831l-.012.208a1.412,1.412,0,0,0,.464,1.086A1.8,1.8,0,0,0,50.092-2.454Zm-99.194,14v3.247h2.258V17.38H-49.1v6.592a1.574,1.574,0,0,0,.281,1.05,1.41,1.41,0,0,0,1.074.317,5.626,5.626,0,0,0,1.038-.085v2.673a7.263,7.263,0,0,1-2.136.317q-3.711,0-3.784-3.748V17.38h-1.929V14.792h1.929V11.545Zm3.308,9.729a7.833,7.833,0,0,1,.757-3.5,5.54,5.54,0,0,1,2.179-2.38,6.357,6.357,0,0,1,3.3-.842,6.014,6.014,0,0,1,4.364,1.636,6.565,6.565,0,0,1,1.886,4.443l.024.9a6.9,6.9,0,0,1-1.7,4.877,5.9,5.9,0,0,1-4.553,1.837,5.927,5.927,0,0,1-4.559-1.831,7.025,7.025,0,0,1-1.7-4.98Zm3.528.25a4.937,4.937,0,0,0,.708,2.879,2.336,2.336,0,0,0,2.026,1,2.341,2.341,0,0,0,2-.984,5.4,5.4,0,0,0,.72-3.148,4.888,4.888,0,0,0-.72-2.861,2.341,2.341,0,0,0-2.026-1.015,2.3,2.3,0,0,0-2,1.009A5.493,5.493,0,0,0-42.267,21.524Zm10.608-.226a7.96,7.96,0,0,1,1.385-4.919,4.5,4.5,0,0,1,3.79-1.831,4.045,4.045,0,0,1,3.186,1.44V9.25h3.54V28h-3.186l-.171-1.4a4.151,4.151,0,0,1-3.394,1.648,4.483,4.483,0,0,1-3.741-1.837A8.216,8.216,0,0,1-31.659,21.3Zm3.528.251a5.243,5.243,0,0,0,.647,2.857,2.106,2.106,0,0,0,1.88.993A2.36,2.36,0,0,0-23.3,24.014V18.778a2.326,2.326,0,0,0-2.283-1.386Q-28.131,17.392-28.131,21.549Zm10.559-.275a7.833,7.833,0,0,1,.757-3.5,5.54,5.54,0,0,1,2.179-2.38,6.357,6.357,0,0,1,3.3-.842A6.014,6.014,0,0,1-6.97,16.184a6.565,6.565,0,0,1,1.886,4.443l.024.9a6.9,6.9,0,0,1-1.7,4.877,5.9,5.9,0,0,1-4.553,1.837,5.927,5.927,0,0,1-4.559-1.831,7.025,7.025,0,0,1-1.7-4.98Zm3.528.25a4.937,4.937,0,0,0,.708,2.879,2.336,2.336,0,0,0,2.026,1,2.341,2.341,0,0,0,2-.984,5.4,5.4,0,0,0,.72-3.148,4.888,4.888,0,0,0-.72-2.861,2.341,2.341,0,0,0-2.026-1.015,2.3,2.3,0,0,0-2,1.009A5.493,5.493,0,0,0-14.044,21.524ZM4.266,24.35a1.137,1.137,0,0,0-.641-1.019,7.28,7.28,0,0,0-2.057-.665q-4.712-.989-4.712-4a3.629,3.629,0,0,1,1.459-2.936A5.884,5.884,0,0,1,2.13,14.548a6.333,6.333,0,0,1,4.022,1.184A3.732,3.732,0,0,1,7.66,18.808H4.132a1.707,1.707,0,0,0-.488-1.251,2.066,2.066,0,0,0-1.526-.494,2.111,2.111,0,0,0-1.379.4A1.272,1.272,0,0,0,.25,18.491a1.087,1.087,0,0,0,.555.946,5.714,5.714,0,0,0,1.874.623,15.3,15.3,0,0,1,2.222.592Q7.7,21.677,7.7,24.2a3.445,3.445,0,0,1-1.55,2.924,6.688,6.688,0,0,1-4,1.117,6.985,6.985,0,0,1-2.948-.592,4.946,4.946,0,0,1-2.02-1.624A3.772,3.772,0,0,1-3.558,23.8H-.214a1.842,1.842,0,0,0,.7,1.44,2.76,2.76,0,0,0,1.733.5,2.554,2.554,0,0,0,1.532-.385A1.2,1.2,0,0,0,4.266,24.35ZM19.916,28h-3.54V9.25h3.54Zm2.356-6.726a7.833,7.833,0,0,1,.757-3.5,5.54,5.54,0,0,1,2.179-2.38,6.357,6.357,0,0,1,3.3-.842,6.014,6.014,0,0,1,4.364,1.636,6.565,6.565,0,0,1,1.886,4.443l.024.9a6.9,6.9,0,0,1-1.7,4.877,5.9,5.9,0,0,1-4.553,1.837,5.927,5.927,0,0,1-4.559-1.831,7.025,7.025,0,0,1-1.7-4.98Zm3.528.25a4.937,4.937,0,0,0,.708,2.879,2.543,2.543,0,0,0,4.028.012,5.4,5.4,0,0,0,.72-3.148,4.888,4.888,0,0,0-.72-2.861,2.341,2.341,0,0,0-2.026-1.015,2.3,2.3,0,0,0-2,1.009A5.493,5.493,0,0,0,25.8,21.524ZM44.11,24.35a1.137,1.137,0,0,0-.641-1.019,7.28,7.28,0,0,0-2.057-.665q-4.712-.989-4.712-4a3.629,3.629,0,0,1,1.459-2.936,5.884,5.884,0,0,1,3.815-1.178A6.333,6.333,0,0,1,46,15.732,3.732,3.732,0,0,1,47.5,18.808H43.976a1.707,1.707,0,0,0-.488-1.251,2.066,2.066,0,0,0-1.526-.494,2.111,2.111,0,0,0-1.379.4,1.272,1.272,0,0,0-.488,1.025,1.087,1.087,0,0,0,.555.946,5.714,5.714,0,0,0,1.874.623,15.3,15.3,0,0,1,2.222.592q2.8,1.025,2.8,3.552a3.445,3.445,0,0,1-1.55,2.924,6.688,6.688,0,0,1-4,1.117,6.985,6.985,0,0,1-2.948-.592,4.946,4.946,0,0,1-2.02-1.624,3.772,3.772,0,0,1-.732-2.228H39.63a1.842,1.842,0,0,0,.7,1.44,2.76,2.76,0,0,0,1.733.5,2.554,2.554,0,0,0,1.532-.385A1.2,1.2,0,0,0,44.11,24.35ZM-58.4,49.3a7.741,7.741,0,0,1,1.447-4.9,4.687,4.687,0,0,1,3.9-1.855,4.111,4.111,0,0,1,3.381,1.489l.146-1.245h3.2V55.561a5.645,5.645,0,0,1-.787,3.015,5.057,5.057,0,0,1-2.216,1.953,7.789,7.789,0,0,1-3.345.671,7.243,7.243,0,0,1-2.832-.58,5.026,5.026,0,0,1-2.087-1.5l1.563-2.148a4.133,4.133,0,0,0,3.2,1.477,3.025,3.025,0,0,0,2.185-.751,2.816,2.816,0,0,0,.781-2.13v-.708a4.081,4.081,0,0,1-3.21,1.379,4.675,4.675,0,0,1-3.851-1.862A7.739,7.739,0,0,1-58.4,49.445Zm3.528.251a4.846,4.846,0,0,0,.72,2.827A2.289,2.289,0,0,0-52.179,53.4a2.448,2.448,0,0,0,2.307-1.214v-5.58a2.442,2.442,0,0,0-2.283-1.214,2.3,2.3,0,0,0-2,1.042A5.463,5.463,0,0,0-54.877,49.549ZM-36.2,46.1a9.584,9.584,0,0,0-1.27-.1,2.584,2.584,0,0,0-2.625,1.355V56h-3.528V42.792h3.333l.1,1.575a3.269,3.269,0,0,1,2.942-1.819,3.7,3.7,0,0,1,1.1.159Zm9.607,8.557a4.424,4.424,0,0,1-3.613,1.587,4.172,4.172,0,0,1-3.241-1.221,5.211,5.211,0,0,1-1.141-3.577V42.792h3.528v8.543q0,2.065,1.88,2.065a2.547,2.547,0,0,0,2.466-1.247V42.792h3.54V56H-26.5Zm17.969-5.139a7.921,7.921,0,0,1-1.385,4.889,4.442,4.442,0,0,1-3.741,1.837,4.115,4.115,0,0,1-3.235-1.392v6.226h-3.528V42.792h3.271l.122,1.294a4.146,4.146,0,0,1,3.345-1.538,4.472,4.472,0,0,1,3.8,1.807,8.136,8.136,0,0,1,1.355,4.98Zm-3.528-.269a5.227,5.227,0,0,0-.653-2.853,2.125,2.125,0,0,0-1.9-1,2.309,2.309,0,0,0-2.283,1.273V52.09a2.348,2.348,0,0,0,2.307,1.31Q-12.152,53.4-12.152,49.249Zm5.164.025a7.833,7.833,0,0,1,.757-3.5,5.54,5.54,0,0,1,2.179-2.38,6.357,6.357,0,0,1,3.3-.842,6.014,6.014,0,0,1,4.364,1.636A6.565,6.565,0,0,1,5.5,48.627l.024.9a6.9,6.9,0,0,1-1.7,4.877A5.9,5.9,0,0,1-.726,56.244a5.927,5.927,0,0,1-4.559-1.831,7.025,7.025,0,0,1-1.7-4.98Zm3.528.25A4.937,4.937,0,0,0-2.753,52.4a2.336,2.336,0,0,0,2.026,1,2.341,2.341,0,0,0,2-.984A5.4,5.4,0,0,0,2,49.268a4.888,4.888,0,0,0-.72-2.861A2.341,2.341,0,0,0-.751,45.392a2.3,2.3,0,0,0-2,1.009A5.493,5.493,0,0,0-3.461,49.524ZM14.85,52.35a1.137,1.137,0,0,0-.641-1.019,7.28,7.28,0,0,0-2.057-.665q-4.712-.989-4.712-4A3.629,3.629,0,0,1,8.9,43.726a5.884,5.884,0,0,1,3.815-1.178,6.333,6.333,0,0,1,4.022,1.184,3.732,3.732,0,0,1,1.508,3.076H14.716a1.707,1.707,0,0,0-.488-1.251,2.066,2.066,0,0,0-1.526-.494,2.111,2.111,0,0,0-1.379.4,1.272,1.272,0,0,0-.488,1.025,1.087,1.087,0,0,0,.555.946,5.714,5.714,0,0,0,1.874.623,15.3,15.3,0,0,1,2.222.592q2.8,1.025,2.8,3.552a3.445,3.445,0,0,1-1.55,2.924,6.688,6.688,0,0,1-4,1.117,6.985,6.985,0,0,1-2.948-.592,4.946,4.946,0,0,1-2.02-1.624A3.772,3.772,0,0,1,7.025,51.8H10.37a1.842,1.842,0,0,0,.7,1.44,2.76,2.76,0,0,0,1.733.5,2.554,2.554,0,0,0,1.532-.385A1.2,1.2,0,0,0,14.85,52.35ZM26.227,49.3a7.96,7.96,0,0,1,1.385-4.919,4.5,4.5,0,0,1,3.79-1.831,4.045,4.045,0,0,1,3.186,1.44V37.25h3.54V56H34.943l-.171-1.4a4.151,4.151,0,0,1-3.394,1.648,4.483,4.483,0,0,1-3.741-1.837A8.216,8.216,0,0,1,26.227,49.3Zm3.528.251a5.243,5.243,0,0,0,.647,2.857,2.106,2.106,0,0,0,1.88.993,2.36,2.36,0,0,0,2.307-1.386V46.778a2.326,2.326,0,0,0-2.283-1.386Q29.755,45.392,29.755,49.549Zm17.188,6.695a6.484,6.484,0,0,1-4.73-1.782,6.335,6.335,0,0,1-1.825-4.749v-.342a7.979,7.979,0,0,1,.769-3.558A5.644,5.644,0,0,1,43.335,43.4a6.116,6.116,0,0,1,3.217-.848,5.482,5.482,0,0,1,4.266,1.709A6.944,6.944,0,0,1,52.374,49.1v1.44H43.964A3.277,3.277,0,0,0,45,52.619a3.118,3.118,0,0,0,2.179.781,3.808,3.808,0,0,0,3.186-1.477l1.733,1.941a5.3,5.3,0,0,1-2.148,1.752A7.049,7.049,0,0,1,46.942,56.244Zm-.4-10.852a2.2,2.2,0,0,0-1.7.711A3.682,3.682,0,0,0,44,48.139h4.907v-.282a2.626,2.626,0,0,0-.635-1.821A2.274,2.274,0,0,0,46.539,45.392ZM-57.544,84h-3.54V70.792h3.54Zm-3.748-16.626a1.737,1.737,0,0,1,.531-1.306,2,2,0,0,1,1.447-.513,2,2,0,0,1,1.44.513,1.727,1.727,0,0,1,.537,1.306,1.732,1.732,0,0,1-.543,1.318,2,2,0,0,1-1.434.513,2,2,0,0,1-1.434-.513A1.732,1.732,0,0,1-61.292,67.374Zm9.9,3.418.11,1.526a4.611,4.611,0,0,1,3.8-1.77,3.832,3.832,0,0,1,3.125,1.233,5.752,5.752,0,0,1,1.05,3.687V84h-3.528V75.533a2.3,2.3,0,0,0-.488-1.633,2.183,2.183,0,0,0-1.624-.508,2.426,2.426,0,0,0-2.234,1.272V84h-3.528V70.792Zm14.978-3.247v3.247h2.258V73.38h-2.258v6.592a1.574,1.574,0,0,0,.281,1.05,1.41,1.41,0,0,0,1.074.317,5.626,5.626,0,0,0,1.038-.085v2.673a7.263,7.263,0,0,1-2.136.317q-3.711,0-3.784-3.748V73.38H-41.87V70.792h1.929V67.545Zm10.3,16.7a6.484,6.484,0,0,1-4.73-1.782,6.335,6.335,0,0,1-1.825-4.749v-.342a7.979,7.979,0,0,1,.769-3.558A5.644,5.644,0,0,1-29.718,71.4a6.116,6.116,0,0,1,3.217-.848,5.482,5.482,0,0,1,4.266,1.709A6.944,6.944,0,0,1-20.679,77.1v1.44h-8.411a3.277,3.277,0,0,0,1.031,2.075,3.118,3.118,0,0,0,2.179.781,3.808,3.808,0,0,0,3.186-1.477l1.733,1.941a5.3,5.3,0,0,1-2.148,1.752A7.049,7.049,0,0,1-26.111,84.244Zm-.4-10.852a2.2,2.2,0,0,0-1.7.711,3.682,3.682,0,0,0-.836,2.035h4.907v-.282a2.626,2.626,0,0,0-.635-1.821A2.274,2.274,0,0,0-26.514,73.392Zm15.259.708a9.584,9.584,0,0,0-1.27-.1,2.584,2.584,0,0,0-2.625,1.355V84h-3.528V70.792h3.333l.1,1.575A3.269,3.269,0,0,1-12.3,70.548a3.7,3.7,0,0,1,1.1.159Zm7.544,10.144a6.484,6.484,0,0,1-4.73-1.782,6.335,6.335,0,0,1-1.825-4.749v-.342A7.979,7.979,0,0,1-9.5,73.813,5.644,5.644,0,0,1-7.318,71.4,6.116,6.116,0,0,1-4.1,70.548,5.482,5.482,0,0,1,.165,72.257,6.944,6.944,0,0,1,1.721,77.1v1.44H-6.689a3.277,3.277,0,0,0,1.031,2.075,3.118,3.118,0,0,0,2.179.781A3.808,3.808,0,0,0-.293,79.923L1.44,81.864A5.3,5.3,0,0,1-.708,83.615,7.049,7.049,0,0,1-3.711,84.244Zm-.4-10.852a2.2,2.2,0,0,0-1.7.711,3.682,3.682,0,0,0-.836,2.035h4.907v-.282a2.626,2.626,0,0,0-.635-1.821A2.274,2.274,0,0,0-4.114,73.392ZM-3.8,65.25H.049l-3.381,3.784H-6.2Zm14.673,15.1a1.137,1.137,0,0,0-.641-1.019,7.28,7.28,0,0,0-2.057-.665q-4.712-.989-4.712-4a3.629,3.629,0,0,1,1.459-2.936A5.884,5.884,0,0,1,8.74,70.548a6.333,6.333,0,0,1,4.022,1.184,3.732,3.732,0,0,1,1.508,3.076H10.742a1.707,1.707,0,0,0-.488-1.251,2.066,2.066,0,0,0-1.526-.494,2.111,2.111,0,0,0-1.379.4,1.272,1.272,0,0,0-.488,1.025,1.087,1.087,0,0,0,.555.946,5.714,5.714,0,0,0,1.874.623,15.3,15.3,0,0,1,2.222.592q2.8,1.025,2.8,3.552a3.445,3.445,0,0,1-1.55,2.924,6.688,6.688,0,0,1-4,1.117A6.985,6.985,0,0,1,5.8,83.652a4.946,4.946,0,0,1-2.02-1.624A3.772,3.772,0,0,1,3.052,79.8H6.4a1.842,1.842,0,0,0,.7,1.44,2.76,2.76,0,0,0,1.733.5,2.554,2.554,0,0,0,1.532-.385A1.2,1.2,0,0,0,10.876,80.35ZM28.3,81.4a2.314,2.314,0,0,0,1.587-.537,1.882,1.882,0,0,0,.635-1.428h3.308a4.525,4.525,0,0,1-.732,2.46,4.833,4.833,0,0,1-1.971,1.733,6.17,6.17,0,0,1-2.765.616,5.734,5.734,0,0,1-4.468-1.8,7.125,7.125,0,0,1-1.636-4.974v-.232a7.044,7.044,0,0,1,1.624-4.871,5.667,5.667,0,0,1,4.456-1.819,5.555,5.555,0,0,1,3.973,1.41,4.992,4.992,0,0,1,1.52,3.754H30.518a2.424,2.424,0,0,0-.635-1.675,2.359,2.359,0,0,0-3.473.254,5.208,5.208,0,0,0-.629,2.916v.367a5.274,5.274,0,0,0,.623,2.934A2.151,2.151,0,0,0,28.3,81.4Zm6.995-4.126a7.833,7.833,0,0,1,.757-3.5,5.54,5.54,0,0,1,2.179-2.38,6.357,6.357,0,0,1,3.3-.842,6.014,6.014,0,0,1,4.364,1.636,6.565,6.565,0,0,1,1.886,4.443l.024.9a6.9,6.9,0,0,1-1.7,4.877,5.9,5.9,0,0,1-4.553,1.837,5.927,5.927,0,0,1-4.559-1.831,7.025,7.025,0,0,1-1.7-4.98Zm3.528.25a4.937,4.937,0,0,0,.708,2.879,2.543,2.543,0,0,0,4.028.012,5.4,5.4,0,0,0,.72-3.148,4.888,4.888,0,0,0-.72-2.861,2.341,2.341,0,0,0-2.026-1.015,2.3,2.3,0,0,0-2,1.009A5.493,5.493,0,0,0,38.818,77.524Zm14.4-6.732.11,1.526a4.611,4.611,0,0,1,3.8-1.77,3.832,3.832,0,0,1,3.125,1.233,5.752,5.752,0,0,1,1.05,3.687V84H57.776V75.533a2.3,2.3,0,0,0-.488-1.633,2.183,2.183,0,0,0-1.624-.508,2.426,2.426,0,0,0-2.234,1.272V84H49.9V70.792ZM-49.591,112a3.918,3.918,0,0,1-.354-1.184,4.269,4.269,0,0,1-3.333,1.428,4.69,4.69,0,0,1-3.217-1.123,3.612,3.612,0,0,1-1.276-2.832,3.732,3.732,0,0,1,1.556-3.223,7.68,7.68,0,0,1,4.5-1.135h1.624v-.757a2.177,2.177,0,0,0-.47-1.465,1.849,1.849,0,0,0-1.483-.549,2.1,2.1,0,0,0-1.4.427,1.451,1.451,0,0,0-.507,1.172h-3.528a3.544,3.544,0,0,1,.708-2.124,4.68,4.68,0,0,1,2-1.532,7.3,7.3,0,0,1,2.905-.555,5.764,5.764,0,0,1,3.876,1.227,4.292,4.292,0,0,1,1.434,3.448v5.725a6.314,6.314,0,0,0,.525,2.844V112Zm-2.917-2.454a3.038,3.038,0,0,0,1.44-.348,2.285,2.285,0,0,0,.977-.934v-2.271H-51.41q-2.649,0-2.82,1.831l-.012.208a1.412,1.412,0,0,0,.464,1.086A1.8,1.8,0,0,0-52.509,109.546Zm11.914-10.754.11,1.526a4.611,4.611,0,0,1,3.8-1.77,3.832,3.832,0,0,1,3.125,1.233,5.752,5.752,0,0,1,1.05,3.687V112h-3.528v-8.467a2.3,2.3,0,0,0-.488-1.633,2.183,2.183,0,0,0-1.624-.508,2.426,2.426,0,0,0-2.234,1.272V112h-3.528V98.792Zm14.978-3.247v3.247h2.258v2.588h-2.258v6.592a1.574,1.574,0,0,0,.281,1.05,1.41,1.41,0,0,0,1.074.317,5.626,5.626,0,0,0,1.038-.085v2.673a7.263,7.263,0,0,1-2.136.317q-3.711,0-3.784-3.748V101.38h-1.929V98.792h1.929V95.545Zm10.3,16.7a6.484,6.484,0,0,1-4.73-1.782,6.335,6.335,0,0,1-1.825-4.749v-.342a7.979,7.979,0,0,1,.769-3.558A5.644,5.644,0,0,1-18.921,99.4a6.116,6.116,0,0,1,3.217-.848,5.482,5.482,0,0,1,4.266,1.709A6.944,6.944,0,0,1-9.882,105.1v1.44h-8.411a3.277,3.277,0,0,0,1.031,2.075,3.118,3.118,0,0,0,2.179.781,3.808,3.808,0,0,0,3.186-1.477l1.733,1.941a5.3,5.3,0,0,1-2.148,1.752A7.049,7.049,0,0,1-15.314,112.244Zm-.4-10.852a2.2,2.2,0,0,0-1.7.711,3.682,3.682,0,0,0-.836,2.035h4.907v-.282a2.626,2.626,0,0,0-.635-1.821A2.274,2.274,0,0,0-15.717,101.392ZM-4.156,112H-7.7V93.25h3.54ZM6.4,112a3.918,3.918,0,0,1-.354-1.184,4.269,4.269,0,0,1-3.333,1.428A4.69,4.69,0,0,1-.5,111.121a3.612,3.612,0,0,1-1.276-2.832A3.732,3.732,0,0,1-.22,105.066a7.68,7.68,0,0,1,4.5-1.135H5.9v-.757a2.177,2.177,0,0,0-.47-1.465,1.849,1.849,0,0,0-1.483-.549,2.1,2.1,0,0,0-1.4.427,1.451,1.451,0,0,0-.507,1.172H-1.483a3.544,3.544,0,0,1,.708-2.124,4.68,4.68,0,0,1,2-1.532,7.3,7.3,0,0,1,2.905-.555,5.764,5.764,0,0,1,3.876,1.227,4.292,4.292,0,0,1,1.434,3.448v5.725a6.314,6.314,0,0,0,.525,2.844V112Zm-2.917-2.454a3.038,3.038,0,0,0,1.44-.348,2.285,2.285,0,0,0,.977-.934v-2.271H4.584q-2.649,0-2.82,1.831l-.012.208a1.412,1.412,0,0,0,.464,1.086A1.8,1.8,0,0,0,3.485,109.546Zm14.16-.146a2.314,2.314,0,0,0,1.587-.537,1.882,1.882,0,0,0,.635-1.428h3.308a4.525,4.525,0,0,1-.732,2.46,4.833,4.833,0,0,1-1.971,1.733,6.17,6.17,0,0,1-2.765.616,5.734,5.734,0,0,1-4.468-1.8,7.125,7.125,0,0,1-1.636-4.974v-.232a7.044,7.044,0,0,1,1.624-4.871,5.667,5.667,0,0,1,4.456-1.819,5.555,5.555,0,0,1,3.973,1.41,4.992,4.992,0,0,1,1.52,3.754H19.867a2.424,2.424,0,0,0-.635-1.675,2.116,2.116,0,0,0-1.611-.644,2.125,2.125,0,0,0-1.862.9,5.208,5.208,0,0,0-.629,2.916v.367a5.274,5.274,0,0,0,.623,2.934A2.151,2.151,0,0,0,17.645,109.4ZM28.912,112h-3.54V98.792h3.54ZM25.165,95.374a1.737,1.737,0,0,1,.531-1.306,2.288,2.288,0,0,1,2.887,0,1.864,1.864,0,0,1-.006,2.625,2.263,2.263,0,0,1-2.869,0A1.732,1.732,0,0,1,25.165,95.374Zm6.1,9.9a7.833,7.833,0,0,1,.757-3.5A5.54,5.54,0,0,1,34.2,99.39a6.357,6.357,0,0,1,3.3-.842,6.014,6.014,0,0,1,4.364,1.636,6.565,6.565,0,0,1,1.886,4.443l.024.9a6.9,6.9,0,0,1-1.7,4.877,5.9,5.9,0,0,1-4.553,1.837,5.927,5.927,0,0,1-4.559-1.831,7.025,7.025,0,0,1-1.7-4.98Zm3.528.25A4.937,4.937,0,0,0,35.5,108.4a2.543,2.543,0,0,0,4.028.012,5.4,5.4,0,0,0,.72-3.148,4.888,4.888,0,0,0-.72-2.861,2.341,2.341,0,0,0-2.026-1.015,2.3,2.3,0,0,0-2,1.009A5.493,5.493,0,0,0,34.8,105.524ZM38.2,93.25h3.845l-3.381,3.784H35.8Zm11,5.542.11,1.526a4.611,4.611,0,0,1,3.8-1.77,3.832,3.832,0,0,1,3.125,1.233,5.752,5.752,0,0,1,1.05,3.687V112H53.754v-8.467a2.3,2.3,0,0,0-.488-1.633,2.183,2.183,0,0,0-1.624-.508,2.426,2.426,0,0,0-2.234,1.272V112H45.88V98.792Z" transform="translate(812.646 4515.71)" fill="#12263f"/>
      <path id="Trazado_199891" data-name="Trazado 199891" d="M-43.439,0H-47.1V-17.773h3.662Zm6.47-13.208.11,1.477a4.642,4.642,0,0,1,3.8-1.721,3.523,3.523,0,0,1,3.5,2.014,4.535,4.535,0,0,1,3.967-2.014,3.94,3.94,0,0,1,3.2,1.251,5.751,5.751,0,0,1,1.05,3.766V0h-3.54V-8.442a2.525,2.525,0,0,0-.439-1.646,1.945,1.945,0,0,0-1.55-.52,2.2,2.2,0,0,0-2.2,1.517L-29.059,0h-3.528V-8.43a2.494,2.494,0,0,0-.452-1.664,1.964,1.964,0,0,0-1.538-.514A2.285,2.285,0,0,0-36.749-9.36V0h-3.528V-13.208ZM-6.744-6.482A7.921,7.921,0,0,1-8.13-1.593,4.442,4.442,0,0,1-11.871.244a4.115,4.115,0,0,1-3.235-1.392V5.078h-3.528V-13.208h3.271l.122,1.294A4.146,4.146,0,0,1-11.9-13.452a4.472,4.472,0,0,1,3.8,1.807,8.136,8.136,0,0,1,1.355,4.98Zm-3.528-.269A5.227,5.227,0,0,0-10.925-9.6a2.125,2.125,0,0,0-1.9-1,2.309,2.309,0,0,0-2.283,1.273V-3.91A2.348,2.348,0,0,0-12.8-2.6Q-10.272-2.6-10.272-6.751Zm5.164.025a7.833,7.833,0,0,1,.757-3.5,5.54,5.54,0,0,1,2.179-2.38,6.357,6.357,0,0,1,3.3-.842,6.014,6.014,0,0,1,4.364,1.636A6.565,6.565,0,0,1,7.379-7.373l.024.9a6.9,6.9,0,0,1-1.7,4.877A5.9,5.9,0,0,1,1.154.244,5.927,5.927,0,0,1-3.406-1.587a7.025,7.025,0,0,1-1.7-4.98Zm3.528.25A4.937,4.937,0,0,0-.873-3.6a2.336,2.336,0,0,0,2.026,1,2.341,2.341,0,0,0,2-.984,5.4,5.4,0,0,0,.72-3.148,4.888,4.888,0,0,0-.72-2.861,2.341,2.341,0,0,0-2.026-1.015,2.3,2.3,0,0,0-2,1.009A5.493,5.493,0,0,0-1.581-6.476ZM17-9.9a9.584,9.584,0,0,0-1.27-.1A2.584,2.584,0,0,0,13.1-8.643V0H9.576V-13.208h3.333l.1,1.575a3.269,3.269,0,0,1,2.942-1.819,3.7,3.7,0,0,1,1.1.159Zm6.531-6.555v3.247h2.258v2.588H23.529v6.592a1.574,1.574,0,0,0,.281,1.05,1.41,1.41,0,0,0,1.074.317,5.626,5.626,0,0,0,1.038-.085V-.073a7.263,7.263,0,0,1-2.136.317Q20.074.244,20-3.5V-10.62H18.073v-2.588H20v-3.247ZM35.406,0a3.918,3.918,0,0,1-.354-1.184A4.269,4.269,0,0,1,31.72.244,4.69,4.69,0,0,1,28.5-.879a3.612,3.612,0,0,1-1.276-2.832,3.733,3.733,0,0,1,1.556-3.223,7.68,7.68,0,0,1,4.5-1.135h1.624v-.757a2.177,2.177,0,0,0-.47-1.465,1.849,1.849,0,0,0-1.483-.549,2.1,2.1,0,0,0-1.4.427,1.451,1.451,0,0,0-.507,1.172H27.521a3.544,3.544,0,0,1,.708-2.124,4.68,4.68,0,0,1,2-1.532,7.3,7.3,0,0,1,2.905-.555,5.764,5.764,0,0,1,3.876,1.227,4.292,4.292,0,0,1,1.434,3.448v5.725a6.314,6.314,0,0,0,.525,2.844V0ZM32.489-2.454a3.038,3.038,0,0,0,1.44-.348,2.285,2.285,0,0,0,.977-.934V-6.006H33.588q-2.649,0-2.82,1.831l-.012.208a1.412,1.412,0,0,0,.464,1.086A1.8,1.8,0,0,0,32.489-2.454ZM48.578-9.9a9.584,9.584,0,0,0-1.27-.1,2.584,2.584,0,0,0-2.625,1.355V0H41.156V-13.208h3.333l.1,1.575a3.269,3.269,0,0,1,2.942-1.819,3.7,3.7,0,0,1,1.1.159ZM-72.583,28h-3.54V14.792h3.54Zm-3.748-16.626a1.737,1.737,0,0,1,.531-1.306,2,2,0,0,1,1.447-.513,2,2,0,0,1,1.44.513,1.727,1.727,0,0,1,.537,1.306,1.732,1.732,0,0,1-.543,1.318,2,2,0,0,1-1.434.513,2,2,0,0,1-1.434-.513A1.732,1.732,0,0,1-76.331,11.374Zm9.9,3.418.11,1.526a4.611,4.611,0,0,1,3.8-1.77A3.832,3.832,0,0,1-59.4,15.781a5.752,5.752,0,0,1,1.05,3.687V28h-3.528V19.533a2.3,2.3,0,0,0-.488-1.633,2.183,2.183,0,0,0-1.624-.508,2.426,2.426,0,0,0-2.234,1.272V28h-3.528V14.792ZM-54.712,28V17.38h-1.965V14.792h1.965V13.669a4.56,4.56,0,0,1,1.276-3.448,4.94,4.94,0,0,1,3.571-1.227,8.315,8.315,0,0,1,1.794.242l-.037,2.712a4.5,4.5,0,0,0-1.074-.11q-1.99,0-1.99,1.883v1.071h2.625V17.38h-2.625V28Zm7.446-6.726a7.833,7.833,0,0,1,.757-3.5,5.54,5.54,0,0,1,2.179-2.38,6.357,6.357,0,0,1,3.3-.842,6.014,6.014,0,0,1,4.364,1.636,6.565,6.565,0,0,1,1.886,4.443l.024.9a6.9,6.9,0,0,1-1.7,4.877A5.9,5.9,0,0,1-41,28.244a5.927,5.927,0,0,1-4.559-1.831,7.025,7.025,0,0,1-1.7-4.98Zm3.528.25A4.937,4.937,0,0,0-43.03,24.4,2.336,2.336,0,0,0-41,25.4a2.341,2.341,0,0,0,2-.984,5.4,5.4,0,0,0,.72-3.148A4.888,4.888,0,0,0-39,18.407a2.341,2.341,0,0,0-2.026-1.015,2.3,2.3,0,0,0-2,1.009A5.493,5.493,0,0,0-43.738,21.524ZM-25.159,18.1a9.584,9.584,0,0,0-1.27-.1,2.584,2.584,0,0,0-2.625,1.355V28h-3.528V14.792h3.333l.1,1.575a3.269,3.269,0,0,1,2.942-1.819,3.7,3.7,0,0,1,1.1.159Zm5-3.308.11,1.477a4.642,4.642,0,0,1,3.8-1.721,3.523,3.523,0,0,1,3.5,2.014,4.535,4.535,0,0,1,3.967-2.014,3.94,3.94,0,0,1,3.2,1.251,5.751,5.751,0,0,1,1.05,3.766V28h-3.54V19.558a2.525,2.525,0,0,0-.439-1.646,1.945,1.945,0,0,0-1.55-.52,2.2,2.2,0,0,0-2.2,1.517L-12.244,28h-3.528V19.57a2.494,2.494,0,0,0-.452-1.664,1.964,1.964,0,0,0-1.538-.514,2.285,2.285,0,0,0-2.173,1.248V28h-3.528V14.792ZM5.835,28a3.918,3.918,0,0,1-.354-1.184,4.269,4.269,0,0,1-3.333,1.428,4.69,4.69,0,0,1-3.217-1.123,3.612,3.612,0,0,1-1.276-2.832A3.733,3.733,0,0,1-.787,21.066a7.68,7.68,0,0,1,4.5-1.135H5.334v-.757a2.177,2.177,0,0,0-.47-1.465,1.849,1.849,0,0,0-1.483-.549,2.1,2.1,0,0,0-1.4.427,1.451,1.451,0,0,0-.507,1.172H-2.051a3.544,3.544,0,0,1,.708-2.124,4.68,4.68,0,0,1,2-1.532,7.3,7.3,0,0,1,2.905-.555A5.764,5.764,0,0,1,7.44,15.775a4.292,4.292,0,0,1,1.434,3.448v5.725A6.314,6.314,0,0,0,9.4,27.792V28ZM2.917,25.546a3.038,3.038,0,0,0,1.44-.348,2.285,2.285,0,0,0,.977-.934V21.994H4.016q-2.649,0-2.82,1.831l-.012.208a1.412,1.412,0,0,0,.464,1.086A1.8,1.8,0,0,0,2.917,25.546Zm14.16-.146a2.314,2.314,0,0,0,1.587-.537,1.882,1.882,0,0,0,.635-1.428h3.308a4.525,4.525,0,0,1-.732,2.46A4.833,4.833,0,0,1,19.9,27.628a6.17,6.17,0,0,1-2.765.616,5.734,5.734,0,0,1-4.468-1.8,7.125,7.125,0,0,1-1.636-4.974v-.232a7.044,7.044,0,0,1,1.624-4.871,5.667,5.667,0,0,1,4.456-1.819,5.555,5.555,0,0,1,3.973,1.41,4.992,4.992,0,0,1,1.52,3.754H19.3a2.424,2.424,0,0,0-.635-1.675,2.116,2.116,0,0,0-1.611-.644,2.125,2.125,0,0,0-1.862.9,5.208,5.208,0,0,0-.629,2.916v.367a5.274,5.274,0,0,0,.623,2.934A2.151,2.151,0,0,0,17.078,25.4ZM28.345,28H24.8V14.792h3.54ZM24.6,11.374a1.737,1.737,0,0,1,.531-1.306,2.288,2.288,0,0,1,2.887,0,1.864,1.864,0,0,1-.006,2.625,2.263,2.263,0,0,1-2.869,0A1.732,1.732,0,0,1,24.6,11.374Zm6.1,9.9a7.833,7.833,0,0,1,.757-3.5,5.54,5.54,0,0,1,2.179-2.38,6.357,6.357,0,0,1,3.3-.842A6.014,6.014,0,0,1,41.3,16.184a6.565,6.565,0,0,1,1.886,4.443l.024.9a6.9,6.9,0,0,1-1.7,4.877,5.9,5.9,0,0,1-4.553,1.837A5.927,5.927,0,0,1,32.4,26.413a7.025,7.025,0,0,1-1.7-4.98Zm3.528.25a4.937,4.937,0,0,0,.708,2.879,2.543,2.543,0,0,0,4.028.012,5.4,5.4,0,0,0,.72-3.148,4.888,4.888,0,0,0-.72-2.861,2.341,2.341,0,0,0-2.026-1.015,2.3,2.3,0,0,0-2,1.009A5.493,5.493,0,0,0,34.229,21.524ZM37.634,9.25h3.845L38.1,13.034H35.229Zm11,5.542.11,1.526a4.611,4.611,0,0,1,3.8-1.77,3.832,3.832,0,0,1,3.125,1.233,5.752,5.752,0,0,1,1.05,3.687V28H53.186V19.533A2.3,2.3,0,0,0,52.7,17.9a2.183,2.183,0,0,0-1.624-.508,2.426,2.426,0,0,0-2.234,1.272V28H45.313V14.792ZM73.267,28a3.918,3.918,0,0,1-.354-1.184,4.269,4.269,0,0,1-3.333,1.428,4.69,4.69,0,0,1-3.217-1.123,3.612,3.612,0,0,1-1.276-2.832,3.733,3.733,0,0,1,1.556-3.223,7.68,7.68,0,0,1,4.5-1.135h1.624v-.757a2.177,2.177,0,0,0-.47-1.465,1.849,1.849,0,0,0-1.483-.549,2.1,2.1,0,0,0-1.4.427,1.451,1.451,0,0,0-.507,1.172H65.381a3.544,3.544,0,0,1,.708-2.124,4.68,4.68,0,0,1,2-1.532A7.3,7.3,0,0,1,71,14.548a5.764,5.764,0,0,1,3.876,1.227,4.292,4.292,0,0,1,1.434,3.448v5.725a6.314,6.314,0,0,0,.525,2.844V28Zm-2.917-2.454a3.038,3.038,0,0,0,1.44-.348,2.285,2.285,0,0,0,.977-.934V21.994H71.448q-2.649,0-2.82,1.831l-.012.208a1.412,1.412,0,0,0,.464,1.086A1.8,1.8,0,0,0,70.349,25.546ZM-44.25,56h-3.54V37.25h3.54Zm2.356-6.726a7.833,7.833,0,0,1,.757-3.5,5.54,5.54,0,0,1,2.179-2.38,6.357,6.357,0,0,1,3.3-.842,6.014,6.014,0,0,1,4.364,1.636,6.565,6.565,0,0,1,1.886,4.443l.024.9a6.9,6.9,0,0,1-1.7,4.877,5.9,5.9,0,0,1-4.553,1.837,5.927,5.927,0,0,1-4.559-1.831,7.025,7.025,0,0,1-1.7-4.98Zm3.528.25a4.937,4.937,0,0,0,.708,2.879,2.336,2.336,0,0,0,2.026,1,2.341,2.341,0,0,0,2-.984,5.4,5.4,0,0,0,.72-3.148,4.888,4.888,0,0,0-.72-2.861,2.341,2.341,0,0,0-2.026-1.015,2.3,2.3,0,0,0-2,1.009A5.493,5.493,0,0,0-38.367,49.524Zm18.311,2.826a1.137,1.137,0,0,0-.641-1.019,7.28,7.28,0,0,0-2.057-.665q-4.712-.989-4.712-4a3.629,3.629,0,0,1,1.459-2.936,5.884,5.884,0,0,1,3.815-1.178,6.333,6.333,0,0,1,4.022,1.184,3.732,3.732,0,0,1,1.508,3.076H-20.19a1.707,1.707,0,0,0-.488-1.251,2.066,2.066,0,0,0-1.526-.494,2.111,2.111,0,0,0-1.379.4,1.272,1.272,0,0,0-.488,1.025,1.087,1.087,0,0,0,.555.946,5.714,5.714,0,0,0,1.874.623,15.3,15.3,0,0,1,2.222.592q2.8,1.025,2.8,3.552a3.445,3.445,0,0,1-1.55,2.924,6.688,6.688,0,0,1-4,1.117,6.985,6.985,0,0,1-2.948-.592,4.946,4.946,0,0,1-2.02-1.624,3.772,3.772,0,0,1-.732-2.228h3.345a1.842,1.842,0,0,0,.7,1.44,2.76,2.76,0,0,0,1.733.5,2.554,2.554,0,0,0,1.532-.385A1.2,1.2,0,0,0-20.056,52.35ZM1.318,51.337a1.879,1.879,0,0,0-.732-1.593,9.607,9.607,0,0,0-2.637-1.172,18.691,18.691,0,0,1-3.015-1.215q-3.027-1.636-3.027-4.407a4.292,4.292,0,0,1,.812-2.57A5.3,5.3,0,0,1-4.95,38.617a8.776,8.776,0,0,1,3.412-.635,7.988,7.988,0,0,1,3.394.69,5.4,5.4,0,0,1,2.313,1.947,5.1,5.1,0,0,1,.824,2.856H1.331a2.4,2.4,0,0,0-.769-1.9A3.161,3.161,0,0,0-1.6,40.9a3.377,3.377,0,0,0-2.087.568,1.79,1.79,0,0,0-.745,1.5,1.715,1.715,0,0,0,.873,1.453,9.861,9.861,0,0,0,2.57,1.1,11.1,11.1,0,0,1,4.553,2.332,4.643,4.643,0,0,1,1.428,3.467,4.277,4.277,0,0,1-1.746,3.619,7.642,7.642,0,0,1-4.7,1.312,9.075,9.075,0,0,1-3.735-.751,5.911,5.911,0,0,1-2.57-2.057,5.268,5.268,0,0,1-.885-3.027h3.674q0,2.942,3.516,2.942A3.42,3.42,0,0,0,.586,52.82,1.728,1.728,0,0,0,1.318,51.337Zm9.814,1.721h7.776V56H7.471V38.227h3.662Zm20.142-.72H24.854L23.633,56H19.739l6.616-17.773h3.394L36.4,56H32.507Zm-5.432-2.966h4.443l-2.234-6.653ZM44.983,52.35a1.137,1.137,0,0,0-.641-1.019,7.28,7.28,0,0,0-2.057-.665q-4.712-.989-4.712-4a3.629,3.629,0,0,1,1.459-2.936,5.884,5.884,0,0,1,3.815-1.178,6.333,6.333,0,0,1,4.022,1.184,3.732,3.732,0,0,1,1.508,3.076H44.849a1.707,1.707,0,0,0-.488-1.251,2.066,2.066,0,0,0-1.526-.494,2.111,2.111,0,0,0-1.379.4,1.272,1.272,0,0,0-.488,1.025,1.087,1.087,0,0,0,.555.946,5.714,5.714,0,0,0,1.874.623,15.3,15.3,0,0,1,2.222.592q2.8,1.025,2.8,3.552a3.445,3.445,0,0,1-1.55,2.924,6.688,6.688,0,0,1-4,1.117,6.985,6.985,0,0,1-2.948-.592,4.946,4.946,0,0,1-2.02-1.624,3.772,3.772,0,0,1-.732-2.228H40.5a1.842,1.842,0,0,0,.7,1.44,2.76,2.76,0,0,0,1.733.5,2.554,2.554,0,0,0,1.532-.385A1.2,1.2,0,0,0,44.983,52.35Z" transform="translate(1072.806 4543.71)" fill="#12263f"/>
    </g>
    <path id="Trazado_199960" data-name="Trazado 199960" d="M-11.737-10a2.584,2.584,0,0,0-2.625,1.355V0h-3.528V-13.208h3.333l.1,1.575a3.269,3.269,0,0,1,2.942-1.819,3.7,3.7,0,0,1,1.1.159S-11.371-10-11.737-10Z" transform="translate(825.726 1151)" fill="#12263f"/>
  </g>
</svg>
