<svg xmlns="http://www.w3.org/2000/svg" xmlns:xlink="http://www.w3.org/1999/xlink" width="303.852" height="113.522" viewBox="0 0 303.852 113.522">
  <defs>
    <linearGradient id="linear-gradient" x1="0.5" x2="0.5" y2="1" gradientUnits="objectBoundingBox">
      <stop offset="0" stop-color="#fff"/>
      <stop offset="1" stop-color="#f8f8f8"/>
    </linearGradient>
    <filter id="Rectángulo_33309" x="28.106" y="0" width="275.746" height="113.522" filterUnits="userSpaceOnUse">
      <feOffset dy="3" input="SourceAlpha"/>
      <feGaussianBlur stdDeviation="3" result="blur"/>
      <feFlood flood-opacity="0.161"/>
      <feComposite operator="in" in2="blur"/>
      <feComposite in="SourceGraphic"/>
    </filter>
    <radialGradient id="radial-gradient" cx="0.076" cy="0.019" r="1.465" gradientTransform="translate(0.001)" gradientUnits="objectBoundingBox">
      <stop offset="0" stop-color="#f6f6f7"/>
      <stop offset="0.477" stop-color="#f9f9fa"/>
      <stop offset="0.715" stop-color="#fff"/>
    </radialGradient>
  </defs>
  <g id="Grupo_161751" data-name="Grupo 161751" transform="translate(-222.464 -2253.703)">
    <g id="Grupo_127495" data-name="Grupo 127495" transform="translate(259.571 2259.703)">
      <g transform="matrix(1, 0, 0, 1, -37.11, -6)" filter="url(#Rectángulo_33309)">
        <rect id="Rectángulo_33309-2" data-name="Rectángulo 33309" width="257.746" height="95.522" rx="10" transform="translate(37.11 6)" fill="url(#linear-gradient)"/>
      </g>
    </g>
    <path id="Trazado_199870" data-name="Trazado 199870" d="M2.468,9.1V13H1.155V3.047H4.826a3.688,3.688,0,0,1,2.56.834,2.827,2.827,0,0,1,.926,2.208,2.79,2.79,0,0,1-.906,2.232A3.853,3.853,0,0,1,4.813,9.1Zm0-1.073H4.826a2.358,2.358,0,0,0,1.613-.5A1.815,1.815,0,0,0,7,6.1a1.876,1.876,0,0,0-.561-1.424A2.209,2.209,0,0,0,4.9,4.12H2.468Zm6.9,1.2a4.369,4.369,0,0,1,.427-1.955,3.187,3.187,0,0,1,1.189-1.34,3.238,3.238,0,0,1,1.74-.472,3.119,3.119,0,0,1,2.444,1.046A4.024,4.024,0,0,1,16.1,9.295v.089a4.407,4.407,0,0,1-.414,1.938A3.14,3.14,0,0,1,14.5,12.658a3.275,3.275,0,0,1-1.767.479A3.111,3.111,0,0,1,10.3,12.091a4,4,0,0,1-.933-2.769Zm1.271.15a3.164,3.164,0,0,0,.571,1.976,1.934,1.934,0,0,0,3.059-.01,3.46,3.46,0,0,0,.567-2.116,3.159,3.159,0,0,0-.578-1.972,1.836,1.836,0,0,0-1.535-.755,1.816,1.816,0,0,0-1.511.745A3.435,3.435,0,0,0,10.637,9.384ZM18.881,5.6l.041.93a2.7,2.7,0,0,1,2.215-1.066q2.345,0,2.365,2.646V13H22.237V8.105a1.7,1.7,0,0,0-.366-1.183,1.466,1.466,0,0,0-1.118-.383,1.825,1.825,0,0,0-1.08.328,2.228,2.228,0,0,0-.725.861V13H17.685V5.6Zm9.6,7.533a3.232,3.232,0,0,1-2.447-.988,3.666,3.666,0,0,1-.943-2.642V9.274a4.438,4.438,0,0,1,.42-1.965,3.28,3.28,0,0,1,1.176-1.354,2.956,2.956,0,0,1,1.637-.489,2.77,2.77,0,0,1,2.242.95,4.114,4.114,0,0,1,.8,2.721v.526H26.353a2.629,2.629,0,0,0,.639,1.767,2.009,2.009,0,0,0,1.555.673,2.2,2.2,0,0,0,1.135-.273,2.851,2.851,0,0,0,.813-.725l.772.6A3.106,3.106,0,0,1,28.479,13.137Zm-.157-6.631a1.687,1.687,0,0,0-1.285.557,2.708,2.708,0,0,0-.643,1.562H30.1v-.1a2.409,2.409,0,0,0-.52-1.494A1.588,1.588,0,0,0,28.321,6.506Zm8.08.232a3.79,3.79,0,0,0-.622-.048,1.667,1.667,0,0,0-1.688,1.06V13H32.826V5.6h1.23l.021.854a1.969,1.969,0,0,1,1.764-.991,1.292,1.292,0,0,1,.561.1ZM45.6,13a2.657,2.657,0,0,1-.178-.779,2.822,2.822,0,0,1-2.105.916,2.611,2.611,0,0,1-1.794-.619,2,2,0,0,1-.7-1.569A2.091,2.091,0,0,1,41.7,9.155a4.142,4.142,0,0,1,2.471-.639H45.4V7.935A1.42,1.42,0,0,0,45,6.878a1.593,1.593,0,0,0-1.169-.393,1.844,1.844,0,0,0-1.135.342,1.007,1.007,0,0,0-.458.827H40.968a1.745,1.745,0,0,1,.393-1.07,2.683,2.683,0,0,1,1.066-.817,3.588,3.588,0,0,1,1.48-.3,2.924,2.924,0,0,1,2,.639,2.306,2.306,0,0,1,.752,1.76v3.4a4.162,4.162,0,0,0,.26,1.62V13Zm-2.1-.964a2.223,2.223,0,0,0,1.128-.308,1.861,1.861,0,0,0,.772-.8V9.411h-.991q-2.324,0-2.324,1.36a1.151,1.151,0,0,0,.4.93A1.524,1.524,0,0,0,43.5,12.036ZM58.358,9.384a4.429,4.429,0,0,1-.772,2.721,2.476,2.476,0,0,1-2.092,1.032,2.713,2.713,0,0,1-2.119-.854v3.562H52.11V5.6h1.155l.062.82a2.605,2.605,0,0,1,2.146-.957,2.522,2.522,0,0,1,2.109,1,4.477,4.477,0,0,1,.776,2.8ZM57.094,9.24a3.268,3.268,0,0,0-.533-1.976A1.718,1.718,0,0,0,55.1,6.54a1.859,1.859,0,0,0-1.723,1.019v3.534A1.863,1.863,0,0,0,55.111,12.1a1.71,1.71,0,0,0,1.446-.721A3.567,3.567,0,0,0,57.094,9.24Zm6.446-2.5a3.79,3.79,0,0,0-.622-.048,1.667,1.667,0,0,0-1.688,1.06V13H59.965V5.6H61.2l.021.854a1.969,1.969,0,0,1,1.764-.991,1.292,1.292,0,0,1,.561.1Zm5.729,5.53a2.686,2.686,0,0,1-2.167.868,2.3,2.3,0,0,1-1.8-.687,2.974,2.974,0,0,1-.625-2.034V5.6h1.265v4.778q0,1.682,1.367,1.682a1.893,1.893,0,0,0,1.928-1.08V5.6H70.5V13H69.3Zm6.221.868a3.232,3.232,0,0,1-2.447-.988A3.666,3.666,0,0,1,72.1,9.507V9.274a4.438,4.438,0,0,1,.42-1.965,3.28,3.28,0,0,1,1.176-1.354,2.956,2.956,0,0,1,1.637-.489,2.77,2.77,0,0,1,2.242.95,4.114,4.114,0,0,1,.8,2.721v.526H73.363A2.629,2.629,0,0,0,74,11.431a2.009,2.009,0,0,0,1.555.673,2.2,2.2,0,0,0,1.135-.273,2.851,2.851,0,0,0,.813-.725l.772.6A3.106,3.106,0,0,1,75.489,13.137Zm-.157-6.631a1.687,1.687,0,0,0-1.285.557A2.708,2.708,0,0,0,73.4,8.625h3.705v-.1a2.409,2.409,0,0,0-.52-1.494A1.588,1.588,0,0,0,75.332,6.506ZM86.1,9.384a4.4,4.4,0,0,1-.779,2.724,2.49,2.49,0,0,1-2.092,1.029,2.578,2.578,0,0,1-2.167-.991L81,13H79.837V2.5H81.1V6.417a2.564,2.564,0,0,1,2.112-.95A2.505,2.505,0,0,1,85.33,6.485,4.53,4.53,0,0,1,86.1,9.274ZM84.834,9.24a3.417,3.417,0,0,0-.5-2,1.652,1.652,0,0,0-1.436-.7A1.857,1.857,0,0,0,81.1,7.7v3.2a1.909,1.909,0,0,0,1.812,1.162,1.643,1.643,0,0,0,1.415-.7A3.634,3.634,0,0,0,84.834,9.24ZM92.258,13a2.657,2.657,0,0,1-.178-.779,2.822,2.822,0,0,1-2.105.916,2.611,2.611,0,0,1-1.794-.619,2,2,0,0,1-.7-1.569,2.091,2.091,0,0,1,.878-1.794,4.141,4.141,0,0,1,2.471-.639h1.23V7.935a1.42,1.42,0,0,0-.4-1.056,1.593,1.593,0,0,0-1.169-.393,1.844,1.844,0,0,0-1.135.342,1.007,1.007,0,0,0-.458.827H87.63a1.745,1.745,0,0,1,.393-1.07,2.683,2.683,0,0,1,1.066-.817,3.588,3.588,0,0,1,1.48-.3,2.924,2.924,0,0,1,2,.639,2.306,2.306,0,0,1,.752,1.76v3.4a4.162,4.162,0,0,0,.26,1.62V13Zm-2.1-.964a2.223,2.223,0,0,0,1.128-.308,1.861,1.861,0,0,0,.772-.8V9.411h-.991q-2.324,0-2.324,1.36a1.151,1.151,0,0,0,.4.93A1.524,1.524,0,0,0,90.159,12.036Zm8.306-2.8A4.333,4.333,0,0,1,99.271,6.5a2.745,2.745,0,0,1,4.17-.147V2.5h1.265V13h-1.162l-.062-.793a2.575,2.575,0,0,1-2.112.93,2.526,2.526,0,0,1-2.1-1.053,4.382,4.382,0,0,1-.81-2.748Zm1.265.144a3.281,3.281,0,0,0,.52,1.969,1.68,1.68,0,0,0,1.436.711,1.845,1.845,0,0,0,1.757-1.08v-3.4A1.859,1.859,0,0,0,101.7,6.54a1.687,1.687,0,0,0-1.449.718A3.612,3.612,0,0,0,99.729,9.384ZM108.042,13h-1.265V5.6h1.265Zm-1.367-9.358a.755.755,0,0,1,.188-.52.706.706,0,0,1,.557-.212.717.717,0,0,1,.561.212.747.747,0,0,1,.191.52.722.722,0,0,1-.191.513.73.73,0,0,1-.561.205.718.718,0,0,1-.557-.205A.73.73,0,0,1,106.675,3.642Zm6.357,8.463a1.822,1.822,0,0,0,1.183-.41,1.443,1.443,0,0,0,.561-1.025h1.2a2.293,2.293,0,0,1-.437,1.21,2.882,2.882,0,0,1-1.077.916,3.107,3.107,0,0,1-1.425.342,3.047,3.047,0,0,1-2.4-1.008,4.016,4.016,0,0,1-.892-2.758V9.158a4.453,4.453,0,0,1,.4-1.921,3.02,3.02,0,0,1,1.138-1.306,3.233,3.233,0,0,1,1.753-.465,2.966,2.966,0,0,1,2.068.745,2.663,2.663,0,0,1,.878,1.935h-1.2a1.743,1.743,0,0,0-.543-1.179,1.691,1.691,0,0,0-1.207-.461,1.77,1.77,0,0,0-1.494.694A3.259,3.259,0,0,0,111,9.206v.239a3.194,3.194,0,0,0,.526,1.969A1.779,1.779,0,0,0,113.032,12.1ZM118.658,6.5a2.689,2.689,0,0,1,2.188-1.032q2.345,0,2.365,2.646V13h-1.265V8.105a1.7,1.7,0,0,0-.366-1.183,1.466,1.466,0,0,0-1.118-.383,1.825,1.825,0,0,0-1.08.328,2.228,2.228,0,0,0-.725.861V13h-1.265V2.5h1.265Zm6.111,2.734a4.369,4.369,0,0,1,.427-1.955,3.187,3.187,0,0,1,1.189-1.34,3.238,3.238,0,0,1,1.74-.472,3.119,3.119,0,0,1,2.444,1.046,4.024,4.024,0,0,1,.933,2.782v.089a4.407,4.407,0,0,1-.414,1.938,3.14,3.14,0,0,1-1.183,1.336,3.275,3.275,0,0,1-1.767.479,3.111,3.111,0,0,1-2.437-1.046,4,4,0,0,1-.933-2.769Zm1.271.15a3.164,3.164,0,0,0,.571,1.976,1.934,1.934,0,0,0,3.059-.01,3.46,3.46,0,0,0,.567-2.116,3.159,3.159,0,0,0-.578-1.972,1.836,1.836,0,0,0-1.535-.755,1.816,1.816,0,0,0-1.511.745A3.435,3.435,0,0,0,126.041,9.384ZM137.4,11.038a.931.931,0,0,0-.386-.8,3.718,3.718,0,0,0-1.347-.489,6.367,6.367,0,0,1-1.524-.492,2.169,2.169,0,0,1-.834-.684,1.635,1.635,0,0,1-.27-.943A1.919,1.919,0,0,1,133.8,6.1a3,3,0,0,1,1.965-.629,3.091,3.091,0,0,1,2.041.649,2.063,2.063,0,0,1,.783,1.661H137.32a1.142,1.142,0,0,0-.441-.9,1.652,1.652,0,0,0-1.111-.376,1.729,1.729,0,0,0-1.08.3.947.947,0,0,0-.39.786.767.767,0,0,0,.362.69,4.458,4.458,0,0,0,1.309.444,6.821,6.821,0,0,1,1.535.506,2.239,2.239,0,0,1,.872.708,1.74,1.74,0,0,1,.284,1.008,1.893,1.893,0,0,1-.793,1.589,3.326,3.326,0,0,1-2.058.6,3.725,3.725,0,0,1-1.572-.314,2.557,2.557,0,0,1-1.07-.878,2.117,2.117,0,0,1-.386-1.22h1.265a1.309,1.309,0,0,0,.509,1.008,1.976,1.976,0,0,0,1.254.373,2.039,2.039,0,0,0,1.152-.291A.893.893,0,0,0,137.4,11.038ZM7.205,27.384A4.429,4.429,0,0,1,6.433,30.1a2.476,2.476,0,0,1-2.092,1.032,2.713,2.713,0,0,1-2.119-.854v3.562H.957V23.6H2.112l.062.82a2.605,2.605,0,0,1,2.146-.957,2.522,2.522,0,0,1,2.109,1,4.477,4.477,0,0,1,.776,2.8ZM5.94,27.24a3.268,3.268,0,0,0-.533-1.976,1.718,1.718,0,0,0-1.463-.725,1.859,1.859,0,0,0-1.723,1.019v3.534A1.863,1.863,0,0,0,3.958,30.1,1.71,1.71,0,0,0,5.4,29.383,3.567,3.567,0,0,0,5.94,27.24ZM10.186,31H8.921V20.5h1.265Zm6.59,0a2.657,2.657,0,0,1-.178-.779,2.822,2.822,0,0,1-2.105.916,2.611,2.611,0,0,1-1.794-.619,2,2,0,0,1-.7-1.569,2.091,2.091,0,0,1,.878-1.794,4.142,4.142,0,0,1,2.471-.639h1.23v-.581a1.42,1.42,0,0,0-.4-1.056,1.593,1.593,0,0,0-1.169-.393,1.844,1.844,0,0,0-1.135.342,1.007,1.007,0,0,0-.458.827H12.147a1.745,1.745,0,0,1,.393-1.07,2.683,2.683,0,0,1,1.066-.817,3.588,3.588,0,0,1,1.48-.3,2.924,2.924,0,0,1,2,.639,2.306,2.306,0,0,1,.752,1.76v3.4a4.162,4.162,0,0,0,.26,1.62V31Zm-2.1-.964a2.223,2.223,0,0,0,1.128-.308,1.861,1.861,0,0,0,.772-.8V27.411h-.991q-2.324,0-2.324,1.36a1.151,1.151,0,0,0,.4.93A1.524,1.524,0,0,0,14.677,30.036ZM21.021,23.6l.041.93a2.7,2.7,0,0,1,2.215-1.066q2.345,0,2.365,2.646V31H24.377V26.105a1.7,1.7,0,0,0-.366-1.183,1.466,1.466,0,0,0-1.118-.383,1.825,1.825,0,0,0-1.08.328,2.228,2.228,0,0,0-.725.861V31H19.824V23.6Zm9.6,7.533a3.232,3.232,0,0,1-2.447-.988,3.666,3.666,0,0,1-.943-2.642v-.232a4.438,4.438,0,0,1,.42-1.965,3.28,3.28,0,0,1,1.176-1.354,2.956,2.956,0,0,1,1.637-.489,2.77,2.77,0,0,1,2.242.95,4.114,4.114,0,0,1,.8,2.721v.526H28.492a2.629,2.629,0,0,0,.639,1.767,2.009,2.009,0,0,0,1.555.673,2.2,2.2,0,0,0,1.135-.273,2.851,2.851,0,0,0,.813-.725l.772.6A3.106,3.106,0,0,1,30.618,31.137Zm-.157-6.631a1.687,1.687,0,0,0-1.285.557,2.708,2.708,0,0,0-.643,1.562h3.705v-.1a2.409,2.409,0,0,0-.52-1.494A1.588,1.588,0,0,0,30.461,24.506Zm8.812,4.532a.931.931,0,0,0-.386-.8,3.718,3.718,0,0,0-1.347-.489,6.367,6.367,0,0,1-1.524-.492,2.169,2.169,0,0,1-.834-.684,1.635,1.635,0,0,1-.27-.943A1.919,1.919,0,0,1,35.68,24.1a3,3,0,0,1,1.965-.629,3.091,3.091,0,0,1,2.041.649,2.063,2.063,0,0,1,.783,1.661H39.2a1.142,1.142,0,0,0-.441-.9,1.652,1.652,0,0,0-1.111-.376,1.729,1.729,0,0,0-1.08.3.947.947,0,0,0-.39.786.767.767,0,0,0,.362.69,4.458,4.458,0,0,0,1.309.444,6.821,6.821,0,0,1,1.535.506,2.239,2.239,0,0,1,.872.708,1.74,1.74,0,0,1,.284,1.008,1.893,1.893,0,0,1-.793,1.589,3.326,3.326,0,0,1-2.058.6,3.725,3.725,0,0,1-1.572-.314,2.557,2.557,0,0,1-1.07-.878,2.117,2.117,0,0,1-.386-1.22h1.265a1.309,1.309,0,0,0,.509,1.008,1.976,1.976,0,0,0,1.254.373,2.039,2.039,0,0,0,1.152-.291A.893.893,0,0,0,39.272,29.038Zm2.939,1.3a.792.792,0,0,1,.195-.547.742.742,0,0,1,.584-.219.765.765,0,0,1,.591.219.776.776,0,0,1,.2.547.734.734,0,0,1-.2.526.778.778,0,0,1-.591.212.7.7,0,0,1-.779-.738Z" transform="translate(309.077 2289.215)" fill="#12263f"/>
    <rect id="Rectángulo_34987" data-name="Rectángulo 34987" width="6" height="69" transform="translate(511.43 2273.531)" fill="#2ec49f"/>
    <g id="Grupo_161745" data-name="Grupo 161745" transform="translate(222.464 2267.934)">
      <g id="Grupo_42274" data-name="Grupo 42274" transform="translate(0 0)">
        <g id="Grupo_18423" data-name="Grupo 18423" transform="translate(0 0)">
          <g id="Grupo_18421" data-name="Grupo 18421">
            <g id="Grupo_18420" data-name="Grupo 18420">
              <g id="Grupo_18419" data-name="Grupo 18419">
                <path id="Trazado_40936" data-name="Trazado 40936" d="M273.684,2185.25a39.53,39.53,0,1,1-39.53-39.529A39.53,39.53,0,0,1,273.684,2185.25Z" transform="translate(-194.623 -2145.721)" fill="#fff"/>
              </g>
            </g>
          </g>
          <path id="Trazado_40937" data-name="Trazado 40937" d="M273.528,2185.083A39.529,39.529,0,1,0,234,2224.613,39.372,39.372,0,0,0,273.528,2185.083Z" transform="translate(-194.467 -2145.553)" fill="url(#radial-gradient)"/>
          <path id="Trazado_40938" data-name="Trazado 40938" d="M262.865,2183.788a30.173,30.173,0,1,0-30.173,30.174A30.062,30.062,0,0,0,262.865,2183.788Z" transform="translate(-193.041 -2144.127)" fill="none" stroke="#12263f" stroke-miterlimit="10" stroke-width="2"/>
          <g id="Grupo_18422" data-name="Grupo 18422" transform="translate(7.003 22.193)">
            <path id="Trazado_40939" data-name="Trazado 40939" d="M268.606,2164.488a39.535,39.535,0,0,1-68.061,39.366,39.409,39.409,0,0,0,68.061-39.366Z" transform="translate(-200.545 -2164.488)" fill="#eceef0"/>
          </g>
        </g>
      </g>
      <g id="xBBRod.tif" transform="translate(-1001.116 2569.762)">
        <g id="Grupo_161620" data-name="Grupo 161620" transform="translate(1024.245 -2546.801)">
          <path id="Trazado_199771" data-name="Trazado 199771" d="M1083.307-2546.8a.885.885,0,0,1,.409.847c-.014.655,0,1.311,0,1.966s-.188.838-.857.848c-.1,0-.209.011-.366.02v.5q0,12.638,0,25.276c0,.131.006.263,0,.393a.643.643,0,0,1-.682.669c-.071,0-.143,0-.214,0h-13.742v-1.231h13.366v-25.6H1052.59v15.221h-1.228v-15.253c-.234,0-.421.009-.608,0a.585.585,0,0,1-.615-.6c-.012-.81-.028-1.622.012-2.43.01-.212.219-.414.337-.621Zm-.86,1.241H1051.39v1.173h31.057Z" transform="translate(-1048.272 2546.801)" fill="#12263f"/>
          <path id="Trazado_199772" data-name="Trazado 199772" d="M1024.245-2285.37c.037-.173.07-.347.112-.519a3.03,3.03,0,0,1,2.725-2.351c.07-.007.14-.022.2-.033.27-.964.6-1.212,1.611-1.213.1,0,.191-.006.286,0a26.364,26.364,0,0,0,7.141-.771c1.807-.358,3.62-.69,5.431-1.03.526-.1.844.171.845.728q.006,5.361,0,10.722a1.052,1.052,0,0,1,0,.107.633.633,0,0,1-.818.6q-3.064-.577-6.128-1.153c-.115-.022-.233-.026-.39-.042,0,.363,0,.694,0,1.025,0,.62-.184.8-.814.8-.523,0-1.045,0-1.608,0-.006.147-.017.272-.017.4,0,.977,0,1.954,0,2.931a2.119,2.119,0,0,1-2.1,2.163,2.13,2.13,0,0,1-2.18-2.162c-.01-1.823,0-3.645,0-5.468v-.273a1.31,1.31,0,0,1-1.234-1.233,3.118,3.118,0,0,1-2.01-.792,2.948,2.948,0,0,1-.985-1.849c-.014-.1-.045-.2-.069-.306Zm17.08,4.907v-9.48l-8.479,1.589a1.34,1.34,0,0,0-.021.145c0,1.965,0,3.931-.006,5.9,0,.215.078.277.28.314,1.589.29,3.176.594,4.763.892C1039.007-2280.893,1040.151-2280.681,1041.325-2280.463Zm-12.749-7.755v6.047h3.011v-6.047Zm1.229,7.295v3.611h1.77v-3.611Zm-2.5-2.467V-2287a1.774,1.774,0,0,0-1.781,1.656A1.8,1.8,0,0,0,1027.3-2283.39Zm2.5,7.364c0,.361-.023.681.005,1a.886.886,0,0,0,.85.806.875.875,0,0,0,.9-.7,9.147,9.147,0,0,0,.063-1.1Zm4.231-3.713v-.835l-1.178-.226v1.081c.359,0,.69,0,1.02,0A1.477,1.477,0,0,0,1034.03-2279.739Z" transform="translate(-1024.245 2309.61)" fill="#12263f"/>
          <path id="Trazado_199773" data-name="Trazado 199773" d="M1196.9-2464.322l.764.573-.893.9c-.634-.62-1.272-1.226-1.885-1.855a.514.514,0,0,1,0-.749c.614-.629,1.252-1.236,1.892-1.863l.819.881-.707.6.056.133h.6a1.893,1.893,0,0,1,2.1,2.1q0,3.628,0,7.256v.4h-1.25v-.424q0-3.628,0-7.256c0-.664-.162-.828-.814-.831h-.6Z" transform="translate(-1182.515 2473.009)" fill="#12263f"/>
          <path id="Trazado_199774" data-name="Trazado 199774" d="M1296.584-2400.856h-.943v-1.213h1.085c.441,0,.881,0,1.322,0a.55.55,0,0,1,.608.531c.03.829.01,1.66.01,2.511h-1.231v-.912l-4.987,4.99-.9-.873Z" transform="translate(-1272.396 2412.439)" fill="#12263f"/>
          <path id="Trazado_199775" data-name="Trazado 199775" d="M1112.425-2470.1a2.412,2.412,0,0,1,2.449,2.432,2.413,2.413,0,0,1-2.4,2.441,2.414,2.414,0,0,1-2.467-2.414A2.413,2.413,0,0,1,1112.425-2470.1Zm1.23,2.447a1.227,1.227,0,0,0-1.188-1.224,1.226,1.226,0,0,0-1.245,1.2,1.241,1.241,0,0,0,1.224,1.231A1.24,1.24,0,0,0,1113.656-2467.651Z" transform="translate(-1103.859 2475.593)" fill="#12263f"/>
          <path id="Trazado_199776" data-name="Trazado 199776" d="M1393.228-2470.105a2.444,2.444,0,0,1,2.466,2.43,2.445,2.445,0,0,1-2.417,2.443,2.452,2.452,0,0,1-2.487-2.412A2.453,2.453,0,0,1,1393.228-2470.105Zm-1.186,2.438a1.207,1.207,0,0,0,1.184,1.22,1.22,1.22,0,0,0,1.225-1.22,1.21,1.21,0,0,0-1.19-1.214A1.2,1.2,0,0,0,1392.042-2467.668Z" transform="translate(-1364.53 2475.6)" fill="#12263f"/>
          <path id="Trazado_199777" data-name="Trazado 199777" d="M1324.915-2214.222v1.166h-10.358v-1.166Z" transform="translate(-1293.758 2238.049)" fill="#12263f"/>
          <path id="Trazado_199778" data-name="Trazado 199778" d="M1322.462-2178.989h-7.9v-1.172h7.9Z" transform="translate(-1293.761 2206.428)" fill="#12263f"/>
          <path id="Trazado_199779" data-name="Trazado 199779" d="M1372.5-2248.4v1.19h-6.673v-1.19Z" transform="translate(-1341.351 2269.782)" fill="#12263f"/>
          <path id="Trazado_199780" data-name="Trazado 199780" d="M1132.236-2355.059l-.924.975-.74-.9-.758.848-.9-.9.888-.75-.915-.733.948-.885.7.824.752-.892.942.914-.849.735Z" transform="translate(-1121.393 2371.03)" fill="#12263f"/>
          <path id="Trazado_199781" data-name="Trazado 199781" d="M1302.759-2465.616l-.936.936-.719-.893-.758.938-.88-.976.807-.715-.882-.759.942-.9.685.841.8-.875.881.927-.821.721Z" transform="translate(-1279.677 2473.659)" fill="#12263f"/>
          <path id="Trazado_199782" data-name="Trazado 199782" d="M1396.239-2322.227l-.832.7.847.714-.888.914-.761-.829-.761.835-.888-.925.828-.7-.881-.741.932-.929.733.836.692-.876Z" transform="translate(-1366.49 2339.242)" fill="#12263f"/>
          <path id="Trazado_199783" data-name="Trazado 199783" d="M1331.631-2248.487h1.19v1.2h-1.19Z" transform="translate(-1309.609 2269.859)" fill="#12263f"/>
        </g>
      </g>
    </g>
  </g>
</svg>
