<svg xmlns="http://www.w3.org/2000/svg" xmlns:xlink="http://www.w3.org/1999/xlink" width="303.852" height="113.522" viewBox="0 0 303.852 113.522">
  <defs>
    <linearGradient id="linear-gradient" x1="0.5" x2="0.5" y2="1" gradientUnits="objectBoundingBox">
      <stop offset="0" stop-color="#fff"/>
      <stop offset="1" stop-color="#f8f8f8"/>
    </linearGradient>
    <filter id="Rectángulo_33309" x="28.106" y="0" width="275.746" height="113.522" filterUnits="userSpaceOnUse">
      <feOffset dy="3" input="SourceAlpha"/>
      <feGaussianBlur stdDeviation="3" result="blur"/>
      <feFlood flood-opacity="0.161"/>
      <feComposite operator="in" in2="blur"/>
      <feComposite in="SourceGraphic"/>
    </filter>
    <radialGradient id="radial-gradient" cx="0.076" cy="0.019" r="1.465" gradientTransform="translate(0.001)" gradientUnits="objectBoundingBox">
      <stop offset="0" stop-color="#f6f6f7"/>
      <stop offset="0.477" stop-color="#f9f9fa"/>
      <stop offset="0.715" stop-color="#fff"/>
    </radialGradient>
  </defs>
  <g id="Grupo_161748" data-name="Grupo 161748" transform="translate(-222.464 -2253.703)">
    <g id="Grupo_127495" data-name="Grupo 127495" transform="translate(259.571 2259.703)">
      <g transform="matrix(1, 0, 0, 1, -37.11, -6)" filter="url(#Rectángulo_33309)">
        <rect id="Rectángulo_33309-2" data-name="Rectángulo 33309" width="257.746" height="95.522" rx="10" transform="translate(37.11 6)" fill="url(#linear-gradient)"/>
      </g>
    </g>
    <path id="Trazado_199873" data-name="Trazado 199873" d="M6.781,8.4H2.468v3.527H7.479V13H1.155V3.047H7.41V4.12H2.468V7.326H6.781Zm6.439,2.639a.931.931,0,0,0-.386-.8,3.718,3.718,0,0,0-1.347-.489,6.367,6.367,0,0,1-1.524-.492,2.169,2.169,0,0,1-.834-.684,1.635,1.635,0,0,1-.27-.943A1.919,1.919,0,0,1,9.628,6.1a3,3,0,0,1,1.965-.629,3.091,3.091,0,0,1,2.041.649,2.063,2.063,0,0,1,.783,1.661H13.146a1.142,1.142,0,0,0-.441-.9,1.652,1.652,0,0,0-1.111-.376,1.729,1.729,0,0,0-1.08.3.947.947,0,0,0-.39.786.767.767,0,0,0,.362.69,4.458,4.458,0,0,0,1.309.444,6.821,6.821,0,0,1,1.535.506,2.239,2.239,0,0,1,.872.708,1.74,1.74,0,0,1,.284,1.008,1.893,1.893,0,0,1-.793,1.589,3.326,3.326,0,0,1-2.058.6,3.725,3.725,0,0,1-1.572-.314,2.557,2.557,0,0,1-1.07-.878,2.117,2.117,0,0,1-.386-1.22H9.871a1.309,1.309,0,0,0,.509,1.008,1.976,1.976,0,0,0,1.254.373,2.039,2.039,0,0,0,1.152-.291A.893.893,0,0,0,13.221,11.038Zm4.628-7.226V5.6h1.381v.978H17.849v4.593a1.027,1.027,0,0,0,.185.667.777.777,0,0,0,.629.222,3.062,3.062,0,0,0,.6-.082V13a3.688,3.688,0,0,1-.971.136,1.575,1.575,0,0,1-1.278-.513,2.2,2.2,0,0,1-.431-1.456V6.581H15.237V5.6h1.347V3.813ZM25.272,13a2.657,2.657,0,0,1-.178-.779,2.822,2.822,0,0,1-2.105.916,2.611,2.611,0,0,1-1.794-.619,2,2,0,0,1-.7-1.569,2.091,2.091,0,0,1,.878-1.794,4.142,4.142,0,0,1,2.471-.639h1.23V7.935a1.42,1.42,0,0,0-.4-1.056,1.593,1.593,0,0,0-1.169-.393,1.844,1.844,0,0,0-1.135.342,1.007,1.007,0,0,0-.458.827H20.645a1.745,1.745,0,0,1,.393-1.07A2.683,2.683,0,0,1,22.1,5.768a3.588,3.588,0,0,1,1.48-.3,2.924,2.924,0,0,1,2,.639,2.306,2.306,0,0,1,.752,1.76v3.4a4.162,4.162,0,0,0,.26,1.62V13Zm-2.1-.964a2.223,2.223,0,0,0,1.128-.308,1.861,1.861,0,0,0,.772-.8V9.411h-.991q-2.324,0-2.324,1.36a1.151,1.151,0,0,0,.4.93A1.524,1.524,0,0,0,23.174,12.036ZM34.583,9.384a4.4,4.4,0,0,1-.779,2.724,2.49,2.49,0,0,1-2.092,1.029,2.578,2.578,0,0,1-2.167-.991L29.483,13H28.321V2.5h1.265V6.417a2.564,2.564,0,0,1,2.112-.95,2.505,2.505,0,0,1,2.116,1.019,4.53,4.53,0,0,1,.769,2.789ZM33.318,9.24a3.417,3.417,0,0,0-.5-2,1.652,1.652,0,0,0-1.436-.7,1.857,1.857,0,0,0-1.8,1.162v3.2A1.909,1.909,0,0,0,31.4,12.063a1.643,1.643,0,0,0,1.415-.7A3.634,3.634,0,0,0,33.318,9.24ZM37.55,13H36.285V2.5H37.55Zm5.093.137a3.232,3.232,0,0,1-2.447-.988,3.666,3.666,0,0,1-.943-2.642V9.274a4.438,4.438,0,0,1,.42-1.965,3.28,3.28,0,0,1,1.176-1.354,2.956,2.956,0,0,1,1.637-.489,2.77,2.77,0,0,1,2.242.95,4.114,4.114,0,0,1,.8,2.721v.526H40.517a2.629,2.629,0,0,0,.639,1.767,2.009,2.009,0,0,0,1.555.673,2.2,2.2,0,0,0,1.135-.273,2.851,2.851,0,0,0,.813-.725l.772.6A3.106,3.106,0,0,1,42.643,13.137Zm-.157-6.631a1.687,1.687,0,0,0-1.285.557,2.708,2.708,0,0,0-.643,1.562h3.705v-.1a2.409,2.409,0,0,0-.52-1.494A1.588,1.588,0,0,0,42.485,6.506Zm7.472,5.6a1.822,1.822,0,0,0,1.183-.41,1.443,1.443,0,0,0,.561-1.025h1.2a2.293,2.293,0,0,1-.437,1.21,2.881,2.881,0,0,1-1.077.916,3.107,3.107,0,0,1-1.425.342,3.047,3.047,0,0,1-2.4-1.008,4.016,4.016,0,0,1-.892-2.758V9.158a4.453,4.453,0,0,1,.4-1.921A3.02,3.02,0,0,1,48.2,5.932a3.233,3.233,0,0,1,1.753-.465,2.966,2.966,0,0,1,2.068.745A2.663,2.663,0,0,1,52.9,8.146H51.7a1.743,1.743,0,0,0-.543-1.179,1.691,1.691,0,0,0-1.207-.461,1.77,1.77,0,0,0-1.494.694,3.259,3.259,0,0,0-.53,2.006v.239a3.194,3.194,0,0,0,.526,1.969A1.779,1.779,0,0,0,49.957,12.1Zm7.431,1.032a3.232,3.232,0,0,1-2.447-.988A3.666,3.666,0,0,1,54,9.507V9.274a4.438,4.438,0,0,1,.42-1.965,3.28,3.28,0,0,1,1.176-1.354,2.956,2.956,0,0,1,1.637-.489,2.77,2.77,0,0,1,2.242.95,4.114,4.114,0,0,1,.8,2.721v.526H55.262a2.629,2.629,0,0,0,.639,1.767,2.009,2.009,0,0,0,1.555.673,2.2,2.2,0,0,0,1.135-.273,2.851,2.851,0,0,0,.813-.725l.772.6A3.106,3.106,0,0,1,57.388,13.137ZM57.23,6.506a1.687,1.687,0,0,0-1.285.557A2.708,2.708,0,0,0,55.3,8.625h3.705v-.1a2.409,2.409,0,0,0-.52-1.494A1.588,1.588,0,0,0,57.23,6.506Zm8.08.232a3.79,3.79,0,0,0-.622-.048A1.667,1.667,0,0,0,63,7.75V13H61.735V5.6h1.23l.021.854a1.969,1.969,0,0,1,1.764-.991,1.292,1.292,0,0,1,.561.1Zm6,6.262H70.048V2.5h1.265Zm6.59,0a2.657,2.657,0,0,1-.178-.779,2.822,2.822,0,0,1-2.105.916,2.611,2.611,0,0,1-1.794-.619,2,2,0,0,1-.7-1.569A2.091,2.091,0,0,1,74,9.155a4.141,4.141,0,0,1,2.471-.639H77.7V7.935a1.42,1.42,0,0,0-.4-1.056,1.593,1.593,0,0,0-1.169-.393A1.844,1.844,0,0,0,75,6.827a1.007,1.007,0,0,0-.458.827H73.274a1.745,1.745,0,0,1,.393-1.07,2.683,2.683,0,0,1,1.066-.817,3.588,3.588,0,0,1,1.48-.3,2.924,2.924,0,0,1,2,.639,2.306,2.306,0,0,1,.752,1.76v3.4a4.162,4.162,0,0,0,.26,1.62V13Zm-2.1-.964a2.223,2.223,0,0,0,1.128-.308,1.861,1.861,0,0,0,.772-.8V9.411h-.991q-2.324,0-2.324,1.36a1.151,1.151,0,0,0,.4.93A1.524,1.524,0,0,0,75.8,12.036Zm9.454-1a.931.931,0,0,0-.386-.8,3.718,3.718,0,0,0-1.347-.489A6.367,6.367,0,0,1,82,9.261a2.169,2.169,0,0,1-.834-.684,1.635,1.635,0,0,1-.27-.943A1.919,1.919,0,0,1,81.666,6.1a3,3,0,0,1,1.965-.629,3.091,3.091,0,0,1,2.041.649,2.063,2.063,0,0,1,.783,1.661H85.183a1.142,1.142,0,0,0-.441-.9,1.652,1.652,0,0,0-1.111-.376,1.729,1.729,0,0,0-1.08.3.947.947,0,0,0-.39.786.767.767,0,0,0,.362.69,4.458,4.458,0,0,0,1.309.444,6.821,6.821,0,0,1,1.535.506,2.239,2.239,0,0,1,.872.708,1.74,1.74,0,0,1,.284,1.008,1.893,1.893,0,0,1-.793,1.589,3.326,3.326,0,0,1-2.058.6,3.725,3.725,0,0,1-1.572-.314,2.557,2.557,0,0,1-1.07-.878,2.117,2.117,0,0,1-.386-1.22h1.265a1.309,1.309,0,0,0,.509,1.008,1.976,1.976,0,0,0,1.254.373,2.039,2.039,0,0,0,1.152-.291A.893.893,0,0,0,85.258,11.038Zm9.447,2.1a3.232,3.232,0,0,1-2.447-.988,3.666,3.666,0,0,1-.943-2.642V9.274a4.438,4.438,0,0,1,.42-1.965,3.28,3.28,0,0,1,1.176-1.354,2.956,2.956,0,0,1,1.637-.489,2.77,2.77,0,0,1,2.242.95,4.114,4.114,0,0,1,.8,2.721v.526H92.579a2.629,2.629,0,0,0,.639,1.767,2.009,2.009,0,0,0,1.555.673,2.2,2.2,0,0,0,1.135-.273,2.851,2.851,0,0,0,.813-.725l.772.6A3.106,3.106,0,0,1,94.705,13.137Zm-.157-6.631a1.687,1.687,0,0,0-1.285.557,2.708,2.708,0,0,0-.643,1.562h3.705v-.1a2.409,2.409,0,0,0-.52-1.494A1.588,1.588,0,0,0,94.548,6.506Zm8.812,4.532a.931.931,0,0,0-.386-.8,3.718,3.718,0,0,0-1.347-.489,6.367,6.367,0,0,1-1.524-.492,2.169,2.169,0,0,1-.834-.684A1.635,1.635,0,0,1,99,7.634,1.919,1.919,0,0,1,99.767,6.1a3,3,0,0,1,1.965-.629,3.091,3.091,0,0,1,2.041.649,2.063,2.063,0,0,1,.783,1.661h-1.271a1.142,1.142,0,0,0-.441-.9,1.652,1.652,0,0,0-1.111-.376,1.729,1.729,0,0,0-1.08.3.947.947,0,0,0-.39.786.767.767,0,0,0,.362.69,4.458,4.458,0,0,0,1.309.444,6.821,6.821,0,0,1,1.535.506,2.239,2.239,0,0,1,.872.708,1.74,1.74,0,0,1,.284,1.008,1.893,1.893,0,0,1-.793,1.589,3.326,3.326,0,0,1-2.058.6,3.725,3.725,0,0,1-1.572-.314,2.557,2.557,0,0,1-1.07-.878,2.117,2.117,0,0,1-.386-1.22h1.265a1.309,1.309,0,0,0,.509,1.008,1.976,1.976,0,0,0,1.254.373,2.039,2.039,0,0,0,1.152-.291A.893.893,0,0,0,103.359,11.038Zm4.628-7.226V5.6h1.381v.978h-1.381v4.593a1.027,1.027,0,0,0,.185.667.777.777,0,0,0,.629.222,3.062,3.062,0,0,0,.6-.082V13a3.688,3.688,0,0,1-.971.136,1.575,1.575,0,0,1-1.278-.513,2.2,2.2,0,0,1-.431-1.456V6.581h-1.347V5.6h1.347V3.813Zm6.433,2.926a3.79,3.79,0,0,0-.622-.048,1.667,1.667,0,0,0-1.688,1.06V13h-1.265V5.6h1.23l.021.854a1.969,1.969,0,0,1,1.764-.991,1.292,1.292,0,0,1,.561.1ZM119.875,13a2.657,2.657,0,0,1-.178-.779,2.822,2.822,0,0,1-2.105.916,2.611,2.611,0,0,1-1.794-.619,2,2,0,0,1-.7-1.569,2.091,2.091,0,0,1,.878-1.794,4.141,4.141,0,0,1,2.471-.639h1.23V7.935a1.42,1.42,0,0,0-.4-1.056,1.593,1.593,0,0,0-1.169-.393,1.844,1.844,0,0,0-1.135.342,1.007,1.007,0,0,0-.458.827h-1.271a1.745,1.745,0,0,1,.393-1.07,2.683,2.683,0,0,1,1.066-.817,3.588,3.588,0,0,1,1.48-.3,2.924,2.924,0,0,1,2,.639,2.306,2.306,0,0,1,.752,1.76v3.4a4.162,4.162,0,0,0,.26,1.62V13Zm-2.1-.964a2.223,2.223,0,0,0,1.128-.308,1.861,1.861,0,0,0,.772-.8V9.411h-.991q-2.324,0-2.324,1.36a1.151,1.151,0,0,0,.4.93A1.524,1.524,0,0,0,117.776,12.036Zm6.863-8.224V5.6h1.381v.978H124.64v4.593a1.027,1.027,0,0,0,.185.667.777.777,0,0,0,.629.222,3.062,3.062,0,0,0,.6-.082V13a3.688,3.688,0,0,1-.971.136,1.575,1.575,0,0,1-1.278-.513,2.2,2.2,0,0,1-.431-1.456V6.581h-1.347V5.6h1.347V3.813Zm5.927,9.324a3.232,3.232,0,0,1-2.447-.988,3.666,3.666,0,0,1-.943-2.642V9.274a4.438,4.438,0,0,1,.42-1.965,3.279,3.279,0,0,1,1.176-1.354,2.956,2.956,0,0,1,1.637-.489,2.77,2.77,0,0,1,2.242.95,4.114,4.114,0,0,1,.8,2.721v.526H128.44a2.629,2.629,0,0,0,.639,1.767,2.009,2.009,0,0,0,1.555.673,2.2,2.2,0,0,0,1.135-.273,2.851,2.851,0,0,0,.813-.725l.772.6A3.106,3.106,0,0,1,130.566,13.137Zm-.157-6.631a1.687,1.687,0,0,0-1.285.557,2.708,2.708,0,0,0-.643,1.562h3.705v-.1a2.409,2.409,0,0,0-.52-1.494A1.588,1.588,0,0,0,130.409,6.506Zm4.2,2.734a4.347,4.347,0,0,1,.8-2.751,2.757,2.757,0,0,1,4.231-.065l.062-.82h1.155v7.219a3.009,3.009,0,0,1-.851,2.263,3.141,3.141,0,0,1-2.287.827,3.8,3.8,0,0,1-1.565-.342,2.7,2.7,0,0,1-1.169-.937l.656-.759a2.473,2.473,0,0,0,1.989,1,1.938,1.938,0,0,0,1.439-.52,1.986,1.986,0,0,0,.516-1.463v-.636a2.6,2.6,0,0,1-2.071.875,2.526,2.526,0,0,1-2.1-1.046A4.571,4.571,0,0,1,134.613,9.24Zm1.271.144a3.316,3.316,0,0,0,.513,1.965,1.666,1.666,0,0,0,1.436.714,1.852,1.852,0,0,0,1.757-1.087V7.6a1.874,1.874,0,0,0-1.743-1.06,1.681,1.681,0,0,0-1.442.718A3.612,3.612,0,0,0,135.885,9.384ZM144.143,13h-1.265V5.6h1.265Zm-1.367-9.358a.755.755,0,0,1,.188-.52.706.706,0,0,1,.557-.212.717.717,0,0,1,.561.212.747.747,0,0,1,.191.52.722.722,0,0,1-.191.513.73.73,0,0,1-.561.205.718.718,0,0,1-.557-.205A.73.73,0,0,1,142.775,3.642ZM150.732,13a2.657,2.657,0,0,1-.178-.779,2.822,2.822,0,0,1-2.105.916,2.611,2.611,0,0,1-1.794-.619,2,2,0,0,1-.7-1.569,2.091,2.091,0,0,1,.878-1.794,4.142,4.142,0,0,1,2.471-.639h1.23V7.935a1.42,1.42,0,0,0-.4-1.056,1.593,1.593,0,0,0-1.169-.393,1.844,1.844,0,0,0-1.135.342,1.007,1.007,0,0,0-.458.827H146.1a1.745,1.745,0,0,1,.393-1.07,2.683,2.683,0,0,1,1.066-.817,3.588,3.588,0,0,1,1.48-.3,2.924,2.924,0,0,1,2,.639,2.306,2.306,0,0,1,.752,1.76v3.4a4.162,4.162,0,0,0,.26,1.62V13Zm-2.1-.964a2.223,2.223,0,0,0,1.128-.308,1.861,1.861,0,0,0,.772-.8V9.411h-.991q-2.324,0-2.324,1.36a1.151,1.151,0,0,0,.4.93A1.524,1.524,0,0,0,148.634,12.036Zm9.454-1a.931.931,0,0,0-.386-.8,3.718,3.718,0,0,0-1.347-.489,6.367,6.367,0,0,1-1.524-.492A2.169,2.169,0,0,1,154,8.577a1.635,1.635,0,0,1-.27-.943A1.919,1.919,0,0,1,154.5,6.1a3,3,0,0,1,1.965-.629,3.091,3.091,0,0,1,2.041.649,2.063,2.063,0,0,1,.783,1.661h-1.271a1.142,1.142,0,0,0-.441-.9,1.652,1.652,0,0,0-1.111-.376,1.729,1.729,0,0,0-1.08.3.947.947,0,0,0-.39.786.767.767,0,0,0,.362.69,4.458,4.458,0,0,0,1.309.444,6.821,6.821,0,0,1,1.535.506,2.239,2.239,0,0,1,.872.708,1.74,1.74,0,0,1,.284,1.008,1.893,1.893,0,0,1-.793,1.589,3.326,3.326,0,0,1-2.058.6,3.725,3.725,0,0,1-1.572-.314,2.557,2.557,0,0,1-1.07-.878,2.117,2.117,0,0,1-.386-1.22h1.265a1.309,1.309,0,0,0,.509,1.008,1.976,1.976,0,0,0,1.254.373,2.039,2.039,0,0,0,1.152-.291A.893.893,0,0,0,158.088,11.038Zm6.07-1.8a4.333,4.333,0,0,1,.807-2.738,2.745,2.745,0,0,1,4.17-.147V2.5H170.4V13h-1.162l-.062-.793a2.575,2.575,0,0,1-2.112.93,2.526,2.526,0,0,1-2.1-1.053,4.382,4.382,0,0,1-.81-2.748Zm1.265.144a3.281,3.281,0,0,0,.52,1.969,1.68,1.68,0,0,0,1.436.711,1.845,1.845,0,0,0,1.757-1.08v-3.4a1.859,1.859,0,0,0-1.743-1.046,1.687,1.687,0,0,0-1.449.718A3.612,3.612,0,0,0,165.423,9.384Zm10.008,3.753a3.232,3.232,0,0,1-2.447-.988,3.666,3.666,0,0,1-.943-2.642V9.274a4.438,4.438,0,0,1,.42-1.965,3.279,3.279,0,0,1,1.176-1.354,2.956,2.956,0,0,1,1.637-.489,2.77,2.77,0,0,1,2.242.95,4.114,4.114,0,0,1,.8,2.721v.526H173.3a2.629,2.629,0,0,0,.639,1.767,2.009,2.009,0,0,0,1.555.673,2.2,2.2,0,0,0,1.135-.273,2.851,2.851,0,0,0,.813-.725l.772.6A3.106,3.106,0,0,1,175.431,13.137Zm-.157-6.631a1.687,1.687,0,0,0-1.285.557,2.708,2.708,0,0,0-.643,1.562h3.705v-.1a2.409,2.409,0,0,0-.52-1.494A1.588,1.588,0,0,0,175.273,6.506ZM3.924,30.1a1.822,1.822,0,0,0,1.183-.41,1.443,1.443,0,0,0,.561-1.025h1.2a2.293,2.293,0,0,1-.437,1.21,2.881,2.881,0,0,1-1.077.916,3.107,3.107,0,0,1-1.425.342,3.047,3.047,0,0,1-2.4-1.008A4.016,4.016,0,0,1,.629,27.37v-.212a4.453,4.453,0,0,1,.4-1.921,3.02,3.02,0,0,1,1.138-1.306,3.233,3.233,0,0,1,1.753-.465,2.966,2.966,0,0,1,2.068.745,2.663,2.663,0,0,1,.878,1.935h-1.2a1.743,1.743,0,0,0-.543-1.179,1.691,1.691,0,0,0-1.207-.461,1.77,1.77,0,0,0-1.494.694,3.259,3.259,0,0,0-.53,2.006v.239a3.194,3.194,0,0,0,.526,1.969A1.779,1.779,0,0,0,3.924,30.1ZM7.95,27.233a4.369,4.369,0,0,1,.427-1.955,3.187,3.187,0,0,1,1.189-1.34,3.238,3.238,0,0,1,1.74-.472,3.119,3.119,0,0,1,2.444,1.046,4.024,4.024,0,0,1,.933,2.782v.089a4.407,4.407,0,0,1-.414,1.938,3.14,3.14,0,0,1-1.183,1.336,3.275,3.275,0,0,1-1.767.479,3.111,3.111,0,0,1-2.437-1.046,4,4,0,0,1-.933-2.769Zm1.271.15a3.164,3.164,0,0,0,.571,1.976,1.934,1.934,0,0,0,3.059-.01,3.46,3.46,0,0,0,.567-2.116,3.159,3.159,0,0,0-.578-1.972,1.836,1.836,0,0,0-1.535-.755,1.816,1.816,0,0,0-1.511.745A3.434,3.434,0,0,0,9.222,27.384Zm8.244-3.78.041.93a2.7,2.7,0,0,1,2.215-1.066q2.345,0,2.365,2.646V31H20.822V26.105a1.7,1.7,0,0,0-.366-1.183,1.466,1.466,0,0,0-1.118-.383,1.825,1.825,0,0,0-1.08.328,2.228,2.228,0,0,0-.725.861V31H16.27V23.6Zm8.244-1.791V23.6h1.381v.978H25.71v4.593a1.027,1.027,0,0,0,.185.667.777.777,0,0,0,.629.222,3.062,3.062,0,0,0,.6-.082V31a3.688,3.688,0,0,1-.971.136,1.575,1.575,0,0,1-1.278-.513,2.2,2.2,0,0,1-.431-1.456V24.581H23.1V23.6h1.347V21.813ZM29.941,31H28.677V23.6h1.265Zm-1.367-9.358a.755.755,0,0,1,.188-.52.706.706,0,0,1,.557-.212.717.717,0,0,1,.561.212.747.747,0,0,1,.191.52.722.722,0,0,1-.191.513.73.73,0,0,1-.561.205.718.718,0,0,1-.557-.205A.73.73,0,0,1,28.574,21.642ZM33.161,23.6l.041.93a2.7,2.7,0,0,1,2.215-1.066q2.345,0,2.365,2.646V31H36.518V26.105a1.7,1.7,0,0,0-.366-1.183,1.466,1.466,0,0,0-1.118-.383,1.825,1.825,0,0,0-1.08.328,2.228,2.228,0,0,0-.725.861V31H31.965V23.6Zm11.095,6.665a2.686,2.686,0,0,1-2.167.868,2.3,2.3,0,0,1-1.8-.687,2.974,2.974,0,0,1-.625-2.034V23.6h1.265v4.778q0,1.682,1.367,1.682a1.893,1.893,0,0,0,1.928-1.08V23.6h1.265V31h-1.2ZM48.781,31H47.517V23.6h1.265Zm-1.367-9.358a.755.755,0,0,1,.188-.52.706.706,0,0,1,.557-.212.717.717,0,0,1,.561.212.747.747,0,0,1,.191.52.722.722,0,0,1-.191.513.73.73,0,0,1-.561.205.718.718,0,0,1-.557-.205A.73.73,0,0,1,47.414,21.642Zm3.083,5.6A4.333,4.333,0,0,1,51.3,24.5a2.745,2.745,0,0,1,4.17-.147V20.5h1.265V31H55.576l-.062-.793a2.575,2.575,0,0,1-2.112.93,2.526,2.526,0,0,1-2.1-1.053,4.382,4.382,0,0,1-.81-2.748Zm1.265.144a3.281,3.281,0,0,0,.52,1.969,1.68,1.68,0,0,0,1.436.711,1.845,1.845,0,0,0,1.757-1.08v-3.4A1.859,1.859,0,0,0,53.73,24.54a1.687,1.687,0,0,0-1.449.718A3.612,3.612,0,0,0,51.762,27.384ZM63.267,31a2.657,2.657,0,0,1-.178-.779,2.822,2.822,0,0,1-2.105.916,2.611,2.611,0,0,1-1.794-.619,2,2,0,0,1-.7-1.569,2.091,2.091,0,0,1,.878-1.794,4.142,4.142,0,0,1,2.471-.639h1.23v-.581a1.42,1.42,0,0,0-.4-1.056,1.593,1.593,0,0,0-1.169-.393,1.844,1.844,0,0,0-1.135.342,1.007,1.007,0,0,0-.458.827H58.639a1.745,1.745,0,0,1,.393-1.07,2.683,2.683,0,0,1,1.066-.817,3.588,3.588,0,0,1,1.48-.3,2.924,2.924,0,0,1,2,.639,2.306,2.306,0,0,1,.752,1.76v3.4a4.162,4.162,0,0,0,.26,1.62V31Zm-2.1-.964a2.223,2.223,0,0,0,1.128-.308,1.861,1.861,0,0,0,.772-.8V27.411h-.991q-2.324,0-2.324,1.36a1.151,1.151,0,0,0,.4.93A1.524,1.524,0,0,0,61.168,30.036Zm4.84-2.8a4.333,4.333,0,0,1,.807-2.738,2.745,2.745,0,0,1,4.17-.147V20.5h1.265V31H71.087l-.062-.793a2.575,2.575,0,0,1-2.112.93,2.526,2.526,0,0,1-2.1-1.053,4.382,4.382,0,0,1-.81-2.748Zm1.265.144a3.281,3.281,0,0,0,.52,1.969,1.68,1.68,0,0,0,1.436.711,1.845,1.845,0,0,0,1.757-1.08v-3.4a1.859,1.859,0,0,0-1.743-1.046,1.687,1.687,0,0,0-1.449.718A3.612,3.612,0,0,0,67.272,27.384Zm10.1-.144a4.333,4.333,0,0,1,.807-2.738,2.745,2.745,0,0,1,4.17-.147V20.5H83.61V31H82.448l-.062-.793a2.575,2.575,0,0,1-2.112.93,2.526,2.526,0,0,1-2.1-1.053,4.382,4.382,0,0,1-.81-2.748Zm1.265.144a3.281,3.281,0,0,0,.52,1.969,1.68,1.68,0,0,0,1.436.711,1.845,1.845,0,0,0,1.757-1.08v-3.4A1.859,1.859,0,0,0,80.6,24.54a1.687,1.687,0,0,0-1.449.718A3.612,3.612,0,0,0,78.634,27.384Zm10.008,3.753a3.232,3.232,0,0,1-2.447-.988,3.666,3.666,0,0,1-.943-2.642v-.232a4.438,4.438,0,0,1,.42-1.965,3.28,3.28,0,0,1,1.176-1.354,2.956,2.956,0,0,1,1.637-.489,2.77,2.77,0,0,1,2.242.95,4.114,4.114,0,0,1,.8,2.721v.526H86.516a2.629,2.629,0,0,0,.639,1.767,2.009,2.009,0,0,0,1.555.673,2.2,2.2,0,0,0,1.135-.273,2.851,2.851,0,0,0,.813-.725l.772.6A3.106,3.106,0,0,1,88.642,31.137Zm-.157-6.631a1.687,1.687,0,0,0-1.285.557,2.708,2.708,0,0,0-.643,1.562h3.705v-.1a2.409,2.409,0,0,0-.52-1.494A1.588,1.588,0,0,0,88.484,24.506ZM94.363,31H93.1V20.5h1.265Zm9.8-1.962a.931.931,0,0,0-.386-.8,3.718,3.718,0,0,0-1.347-.489,6.367,6.367,0,0,1-1.524-.492,2.169,2.169,0,0,1-.834-.684,1.635,1.635,0,0,1-.27-.943,1.919,1.919,0,0,1,.769-1.538,3,3,0,0,1,1.965-.629,3.091,3.091,0,0,1,2.041.649,2.063,2.063,0,0,1,.783,1.661h-1.271a1.142,1.142,0,0,0-.441-.9,1.652,1.652,0,0,0-1.111-.376,1.729,1.729,0,0,0-1.08.3.947.947,0,0,0-.39.786.767.767,0,0,0,.362.69,4.458,4.458,0,0,0,1.309.444,6.821,6.821,0,0,1,1.535.506,2.239,2.239,0,0,1,.872.708,1.74,1.74,0,0,1,.284,1.008,1.893,1.893,0,0,1-.793,1.589,3.326,3.326,0,0,1-2.058.6A3.725,3.725,0,0,1,101,30.822a2.557,2.557,0,0,1-1.07-.878,2.117,2.117,0,0,1-.386-1.22h1.265a1.309,1.309,0,0,0,.509,1.008,1.976,1.976,0,0,0,1.254.373,2.039,2.039,0,0,0,1.152-.291A.893.893,0,0,0,104.159,29.038Zm5.981,2.1a3.232,3.232,0,0,1-2.447-.988,3.666,3.666,0,0,1-.943-2.642v-.232a4.438,4.438,0,0,1,.42-1.965,3.28,3.28,0,0,1,1.176-1.354,2.956,2.956,0,0,1,1.637-.489,2.77,2.77,0,0,1,2.242.95,4.114,4.114,0,0,1,.8,2.721v.526h-5.011a2.629,2.629,0,0,0,.639,1.767,2.009,2.009,0,0,0,1.555.673,2.2,2.2,0,0,0,1.135-.273,2.851,2.851,0,0,0,.813-.725l.772.6A3.106,3.106,0,0,1,110.141,31.137Zm-.157-6.631a1.687,1.687,0,0,0-1.285.557,2.708,2.708,0,0,0-.643,1.562h3.705v-.1a2.409,2.409,0,0,0-.52-1.494A1.588,1.588,0,0,0,109.983,24.506Zm8.08.232a3.79,3.79,0,0,0-.622-.048,1.667,1.667,0,0,0-1.688,1.06V31h-1.265V23.6h1.23l.021.854a1.969,1.969,0,0,1,1.764-.991,1.292,1.292,0,0,1,.561.1Zm3.726,4.546,1.832-5.681h1.292L122.261,31H121.3l-2.68-7.4h1.292ZM127.5,31h-1.265V23.6H127.5Zm-1.367-9.358a.755.755,0,0,1,.188-.52.706.706,0,0,1,.557-.212.717.717,0,0,1,.561.212.747.747,0,0,1,.191.52.722.722,0,0,1-.191.513.73.73,0,0,1-.561.205.718.718,0,0,1-.557-.205A.73.73,0,0,1,126.137,21.642Zm6.357,8.463a1.822,1.822,0,0,0,1.183-.41,1.443,1.443,0,0,0,.561-1.025h1.2a2.293,2.293,0,0,1-.437,1.21,2.881,2.881,0,0,1-1.077.916,3.107,3.107,0,0,1-1.425.342,3.047,3.047,0,0,1-2.4-1.008,4.016,4.016,0,0,1-.892-2.758v-.212a4.453,4.453,0,0,1,.4-1.921,3.02,3.02,0,0,1,1.138-1.306,3.233,3.233,0,0,1,1.753-.465,2.966,2.966,0,0,1,2.068.745,2.663,2.663,0,0,1,.878,1.935h-1.2a1.743,1.743,0,0,0-.543-1.179,1.691,1.691,0,0,0-1.207-.461,1.77,1.77,0,0,0-1.494.694,3.259,3.259,0,0,0-.53,2.006v.239a3.194,3.194,0,0,0,.526,1.969A1.779,1.779,0,0,0,132.494,30.1Zm5.735.9h-1.265V23.6h1.265Zm-1.367-9.358a.755.755,0,0,1,.188-.52.706.706,0,0,1,.557-.212.717.717,0,0,1,.561.212.747.747,0,0,1,.191.52.722.722,0,0,1-.191.513.73.73,0,0,1-.561.205.718.718,0,0,1-.557-.205A.73.73,0,0,1,136.862,21.642Zm3.056,5.592a4.369,4.369,0,0,1,.427-1.955,3.187,3.187,0,0,1,1.189-1.34,3.238,3.238,0,0,1,1.74-.472,3.119,3.119,0,0,1,2.444,1.046,4.024,4.024,0,0,1,.933,2.782v.089a4.407,4.407,0,0,1-.414,1.938,3.14,3.14,0,0,1-1.183,1.336,3.275,3.275,0,0,1-1.767.479,3.111,3.111,0,0,1-2.437-1.046,4,4,0,0,1-.933-2.769Zm1.271.15a3.164,3.164,0,0,0,.571,1.976,1.934,1.934,0,0,0,3.059-.01,3.46,3.46,0,0,0,.567-2.116,3.159,3.159,0,0,0-.578-1.972,1.836,1.836,0,0,0-1.535-.755,1.816,1.816,0,0,0-1.511.745A3.434,3.434,0,0,0,141.189,27.384ZM158.5,22.12h-3.2V31H154V22.12h-3.192V21.047h7.7ZM161.39,31h-1.312V21.047h1.313Zm2.229-.663a.792.792,0,0,1,.195-.547.742.742,0,0,1,.584-.219.765.765,0,0,1,.591.219.776.776,0,0,1,.2.547.734.734,0,0,1-.2.526.778.778,0,0,1-.591.212.7.7,0,0,1-.779-.738Z" transform="translate(317.077 2290.215)" fill="#12263f"/>
    <rect id="Rectángulo_34987" data-name="Rectángulo 34987" width="6" height="69" transform="translate(511.43 2273.531)" fill="#2ec49f"/>
    <g id="Grupo_161745" data-name="Grupo 161745" transform="translate(222.464 2267.934)">
      <g id="Grupo_42274" data-name="Grupo 42274" transform="translate(0 0)">
        <g id="Grupo_18423" data-name="Grupo 18423" transform="translate(0 0)">
          <g id="Grupo_18421" data-name="Grupo 18421">
            <g id="Grupo_18420" data-name="Grupo 18420">
              <g id="Grupo_18419" data-name="Grupo 18419">
                <path id="Trazado_40936" data-name="Trazado 40936" d="M273.684,2185.25a39.53,39.53,0,1,1-39.53-39.529A39.53,39.53,0,0,1,273.684,2185.25Z" transform="translate(-194.623 -2145.721)" fill="#fff"/>
              </g>
            </g>
          </g>
          <path id="Trazado_40937" data-name="Trazado 40937" d="M273.528,2185.083A39.529,39.529,0,1,0,234,2224.613,39.372,39.372,0,0,0,273.528,2185.083Z" transform="translate(-194.467 -2145.553)" fill="url(#radial-gradient)"/>
          <path id="Trazado_40938" data-name="Trazado 40938" d="M262.865,2183.788a30.173,30.173,0,1,0-30.173,30.174A30.062,30.062,0,0,0,262.865,2183.788Z" transform="translate(-193.041 -2144.127)" fill="none" stroke="#12263f" stroke-miterlimit="10" stroke-width="2"/>
          <g id="Grupo_18422" data-name="Grupo 18422" transform="translate(7.003 22.193)">
            <path id="Trazado_40939" data-name="Trazado 40939" d="M268.606,2164.488a39.535,39.535,0,0,1-68.061,39.366,39.409,39.409,0,0,0,68.061-39.366Z" transform="translate(-200.545 -2164.488)" fill="#eceef0"/>
          </g>
        </g>
      </g>
      <g id="boMHB4.tif" transform="translate(-995.276 1289.503)">
        <g id="Grupo_161617" data-name="Grupo 161617" transform="translate(1016.245 -1270.698)">
          <path id="Trazado_199748" data-name="Trazado 199748" d="M1029-1270.7v1.748c.374.158.727.326,1.1.45a.439.439,0,0,0,.363-.1c.351-.336.679-.7,1.053-1.086.57.575,1.1,1.111,1.63,1.645.439.442.869.894,1.329,1.313a.747.747,0,0,0,.521.182,16.072,16.072,0,0,1,8.422,1.144,16.637,16.637,0,0,1,10.091,12.272,15.9,15.9,0,0,1,.071,6.052.542.542,0,0,0,.079.4,8.2,8.2,0,0,1,2.139,4.677,1.392,1.392,0,0,0,.041.154h1.985v1.357h-1.937c-.224.8-.385,1.572-.652,2.3a7.1,7.1,0,0,1-2.276,3.153,1.03,1.03,0,0,0-.484,1.012,7.492,7.492,0,0,1,.006.877h1.319v1.356h-1.3v2.661h-9.416v-2.632h-1.3v-1.359h1.261v-1.053c-.892.239-1.766.523-2.661.7a16.353,16.353,0,0,1-10-1.039,16.591,16.591,0,0,1-6.129-4.567,16.617,16.617,0,0,1-3.772-8.181,16.174,16.174,0,0,1-.064-4.651.673.673,0,0,0-.244-.631c-.956-.939-1.9-1.888-2.9-2.883.371-.362.719-.717,1.086-1.052a.33.33,0,0,0,.079-.454c-.157-.327-.289-.665-.438-1.014h-1.745v-5.363a4.123,4.123,0,0,1,.728,0c.736.123,1.247-.071,1.382-.879.011-.064.08-.125.076-.184-.01-.139,0-.32-.084-.406-.343-.36-.716-.691-1.065-1.02l3.857-3.871a13.645,13.645,0,0,0,1.026,1.071c.457.388.775-.22,1.19-.241.192-.009.285-.14.278-.361-.015-.5,0-1,.005-1.5Zm0,20.115h-5.37c0-.515.007-1-.006-1.487,0-.1-.052-.262-.127-.3-.338-.167-.692-.3-1.044-.44a.215.215,0,0,0-.185.033,1.108,1.108,0,0,0-.5.8c-.022,1-.1,2-.085,3a13.316,13.316,0,0,0,1.185,5.141,15.2,15.2,0,0,0,7.717,7.931,15.183,15.183,0,0,0,10.4.919c.393-.1.776-.242,1.186-.371-.064-.083-.085-.118-.113-.146a7.862,7.862,0,0,1-2.254-4.7c-.027-.238-.144-.28-.349-.277-.577.009-1.154,0-1.729,0v-1.377h2.008a7.956,7.956,0,0,1,4.593-6.57,7.891,7.891,0,0,1,7.956.564,14.382,14.382,0,0,0-.3-5.772,15.192,15.192,0,0,0-5.543-8.452,15.054,15.054,0,0,0-7.07-3.034,15.633,15.633,0,0,0-4.525-.028.657.657,0,0,0-.564,1.019,3.082,3.082,0,0,1,.209.526c.06.25.2.305.44.3.469-.015.939,0,1.42,0v5.371a5.118,5.118,0,0,1-.752-.006c-.7-.109-1.207.051-1.327.843a.389.389,0,0,1-.069.146.354.354,0,0,0,.088.525c.355.324.685.675.949.94l-3.818,3.829c-.291-.3-.611-.654-.952-.981a.444.444,0,0,0-.365-.124,11.23,11.23,0,0,0-1.107.576c-.036.021-.007.154-.007.236C1029-1251.513,1029-1251.067,1029-1250.583Zm-4.024-1.365h2.661v-1.322l2.986-1.24.828.911,1.927-1.925-.931-.827,1.233-2.979H1035v-2.639h-.614c-.78,0-.757-.009-1.031-.737s-.6-1.434-.936-2.229l.943-.831-1.943-1.956-.811.931c-.987-.38-1.868-.71-2.739-1.064a.465.465,0,0,1-.228-.334c-.029-.371-.011-.746-.011-1.13h-2.66c0,.392.016.769-.009,1.143a.429.429,0,0,1-.2.317c-.884.358-1.776.693-2.8,1.086l-.809-.969-1.955,1.955.968.809c-.393,1.023-.728,1.916-1.085,2.8a.43.43,0,0,1-.317.2c-.374.025-.75.01-1.133.01v2.66c.405,0,.783-.013,1.159.009a.39.39,0,0,1,.287.187c.357.9.7,1.8,1.094,2.847l-.937.815,1.935,1.928.824-.955c.986.375,1.867.7,2.739,1.053a.474.474,0,0,1,.228.343C1024.992-1252.706,1024.973-1252.329,1024.973-1251.948Zm26.141,18.784c0-.543.026-1.056-.008-1.566a.955.955,0,0,1,.477-.958,6.56,6.56,0,0,0,2.729-6.927,6.654,6.654,0,0,0-9.039-4.761,6.616,6.616,0,0,0-4.142,7.013,6.561,6.561,0,0,0,3.028,4.821.541.541,0,0,1,.278.525c-.016.617-.005,1.235-.005,1.85h2.661c.006-.144.016-.263.016-.381,0-1.557-.008-3.115.008-4.672a.435.435,0,0,0-.348-.483,2.648,2.648,0,0,1-1.629-2.947,2.712,2.712,0,0,1,2.633-2.22,2.753,2.753,0,0,1,2.652,2.209,2.671,2.671,0,0,1-1.633,2.953.443.443,0,0,0-.339.5c.012,1.557.005,3.114.007,4.671,0,.118.015.236.025.375Zm-6.667,2.682h6.645v-1.268h-6.645Zm4.653-10.711a1.326,1.326,0,0,0-1.321-1.313,1.323,1.323,0,0,0-1.322,1.35,1.33,1.33,0,0,0,1.319,1.319A1.334,1.334,0,0,0,1049.1-1241.192Z" transform="translate(-1016.245 1270.698)" fill="#12263f"/>
          <path id="Trazado_199749" data-name="Trazado 199749" d="M1110.371-1006.922l-1.2,1.99-1.158-.693,2.336-3.9,4.593,2.3-.605,1.209-2.6-1.294a9.931,9.931,0,0,0,8.912,7.371v1.338a11.23,11.23,0,0,1-6.466-2.519A11.462,11.462,0,0,1,1110.371-1006.922Z" transform="translate(-1100.541 1030.781)" fill="#12263f"/>
          <path id="Trazado_199750" data-name="Trazado 199750" d="M1286.03-1146.019l.432-1.276,2.817.932a9.852,9.852,0,0,0-3.3-5.307,9.929,9.929,0,0,0-5.753-2.325v-1.392a11.591,11.591,0,0,1,10.314,8.3l1.168-1.93,1.16.693c-.737,1.227-1.457,2.433-2.189,3.631a.333.333,0,0,1-.283.131C1288.952-1145.036,1287.509-1145.523,1286.03-1146.019Z" transform="translate(-1258.744 1164.773)" fill="#12263f"/>
          <path id="Trazado_199751" data-name="Trazado 199751" d="M1074.015-1207.567a5.342,5.342,0,0,1,5.373-5.352,5.358,5.358,0,0,1,5.358,5.374,5.373,5.373,0,0,1-5.42,5.359A5.36,5.36,0,0,1,1074.015-1207.567Zm8.065.679v-1.364h1.323l-.685-1.6-.212-.065-.661.868-1.089-1,1.01-.824-1.732-.7v1.329h-1.342v-1.334l-1.613.677-.028.155.878.778-1.014,1.056-.842-1.066-.722,1.764h1.323v1.345h-1.321l.673,1.617.149.045.762-.964,1.025,1.044-.977.892,1.706.7v-1.3h1.359v1.311l1.624-.68.071-.214-.93-.695.981-1.022.829.932a3.382,3.382,0,0,0,.666-1.676Z" transform="translate(-1069.313 1217.622)" fill="#12263f"/>
          <path id="Trazado_199752" data-name="Trazado 199752" d="M1338.007-916.082h1.307v1.319h-1.307Z" transform="translate(-1311.818 944.946)" fill="#12263f"/>
          <path id="Trazado_199753" data-name="Trazado 199753" d="M1435.121-958.644l-.856.866-.932-.925.943-.865Z" transform="translate(-1399.385 984.893)" fill="#12263f"/>
          <path id="Trazado_199754" data-name="Trazado 199754" d="M1395.717-972.455v-1.315h1.3v1.315Z" transform="translate(-1364.83 997.938)" fill="#12263f"/>
          <path id="Trazado_199755" data-name="Trazado 199755" d="M1435.979-876.548l-.886.875-.841-.912.881-.835Z" transform="translate(-1400.229 909.431)" fill="#12263f"/>
          <path id="Trazado_199756" data-name="Trazado 199756" d="M1352.38-958.169l-.914-.9.934-.912.879.924Z" transform="translate(-1324.181 985.275)" fill="#12263f"/>
          <path id="Trazado_199757" data-name="Trazado 199757" d="M1352.457-877.63l.853-.9.881.918-.866.839Z" transform="translate(-1325.091 910.447)" fill="#12263f"/>
          <path id="Trazado_199758" data-name="Trazado 199758" d="M1453.457-916h1.29v1.319h-1.29Z" transform="translate(-1417.87 944.867)" fill="#12263f"/>
        </g>
      </g>
    </g>
  </g>
</svg>
