<svg xmlns="http://www.w3.org/2000/svg" xmlns:xlink="http://www.w3.org/1999/xlink" width="303.852" height="113.522" viewBox="0 0 303.852 113.522">
  <defs>
    <linearGradient id="linear-gradient" x1="0.5" x2="0.5" y2="1" gradientUnits="objectBoundingBox">
      <stop offset="0" stop-color="#fff"/>
      <stop offset="1" stop-color="#f8f8f8"/>
    </linearGradient>
    <filter id="Rectángulo_33309" x="28.106" y="0" width="275.746" height="113.522" filterUnits="userSpaceOnUse">
      <feOffset dy="3" input="SourceAlpha"/>
      <feGaussianBlur stdDeviation="3" result="blur"/>
      <feFlood flood-opacity="0.161"/>
      <feComposite operator="in" in2="blur"/>
      <feComposite in="SourceGraphic"/>
    </filter>
    <radialGradient id="radial-gradient" cx="0.076" cy="0.019" r="1.465" gradientTransform="translate(0.001)" gradientUnits="objectBoundingBox">
      <stop offset="0" stop-color="#f6f6f7"/>
      <stop offset="0.477" stop-color="#f9f9fa"/>
      <stop offset="0.715" stop-color="#fff"/>
    </radialGradient>
  </defs>
  <g id="Grupo_161749" data-name="Grupo 161749" transform="translate(-222.464 -2253.703)">
    <g id="Grupo_127495" data-name="Grupo 127495" transform="translate(259.571 2259.703)">
      <g transform="matrix(1, 0, 0, 1, -37.11, -6)" filter="url(#Rectángulo_33309)">
        <rect id="Rectángulo_33309-2" data-name="Rectángulo 33309" width="257.746" height="95.522" rx="10" transform="translate(37.11 6)" fill="url(#linear-gradient)"/>
      </g>
    </g>
    <path id="Trazado_199875" data-name="Trazado 199875" d="M6.651,10.4H2.481L1.545,13H.191l3.8-9.953H5.141L8.948,13H7.6ZM2.878,9.322H6.262l-1.7-4.655Zm6.9-.082A4.333,4.333,0,0,1,10.589,6.5,2.551,2.551,0,0,1,12.7,5.467a2.565,2.565,0,0,1,2.058.889V2.5h1.265V13H14.861l-.062-.793a2.575,2.575,0,0,1-2.112.93,2.526,2.526,0,0,1-2.1-1.053,4.382,4.382,0,0,1-.81-2.748Zm1.265.144a3.281,3.281,0,0,0,.52,1.969A1.68,1.68,0,0,0,13,12.063a1.845,1.845,0,0,0,1.757-1.08v-3.4A1.859,1.859,0,0,0,13.016,6.54a1.687,1.687,0,0,0-1.449.718A3.612,3.612,0,0,0,11.047,9.384Zm6.6-.15a4.369,4.369,0,0,1,.427-1.955,3.187,3.187,0,0,1,1.189-1.34,3.238,3.238,0,0,1,1.74-.472,3.119,3.119,0,0,1,2.444,1.046,4.024,4.024,0,0,1,.933,2.782v.089a4.407,4.407,0,0,1-.414,1.938,3.14,3.14,0,0,1-1.183,1.336,3.275,3.275,0,0,1-1.767.479,3.111,3.111,0,0,1-2.437-1.046,4,4,0,0,1-.933-2.769Zm1.271.15a3.164,3.164,0,0,0,.571,1.976,1.934,1.934,0,0,0,3.059-.01,3.46,3.46,0,0,0,.567-2.116,3.159,3.159,0,0,0-.578-1.972,1.836,1.836,0,0,0-1.535-.755,1.816,1.816,0,0,0-1.511.745A3.435,3.435,0,0,0,18.922,9.384Zm13.3,0a4.429,4.429,0,0,1-.772,2.721,2.476,2.476,0,0,1-2.092,1.032,2.713,2.713,0,0,1-2.119-.854v3.562H25.97V5.6h1.155l.062.82a2.605,2.605,0,0,1,2.146-.957,2.522,2.522,0,0,1,2.109,1,4.477,4.477,0,0,1,.776,2.8ZM30.953,9.24a3.268,3.268,0,0,0-.533-1.976,1.718,1.718,0,0,0-1.463-.725,1.859,1.859,0,0,0-1.723,1.019v3.534A1.863,1.863,0,0,0,28.971,12.1a1.71,1.71,0,0,0,1.446-.721A3.567,3.567,0,0,0,30.953,9.24ZM35.54,3.813V5.6h1.381v.978H35.54v4.593a1.027,1.027,0,0,0,.185.667.777.777,0,0,0,.629.222,3.062,3.062,0,0,0,.6-.082V13a3.688,3.688,0,0,1-.971.136,1.575,1.575,0,0,1-1.278-.513,2.2,2.2,0,0,1-.431-1.456V6.581H32.929V5.6h1.347V3.813ZM42.964,13a2.657,2.657,0,0,1-.178-.779,2.822,2.822,0,0,1-2.105.916,2.611,2.611,0,0,1-1.794-.619,2,2,0,0,1-.7-1.569,2.091,2.091,0,0,1,.878-1.794,4.142,4.142,0,0,1,2.471-.639h1.23V7.935a1.42,1.42,0,0,0-.4-1.056A1.593,1.593,0,0,0,41.2,6.485a1.844,1.844,0,0,0-1.135.342,1.007,1.007,0,0,0-.458.827H38.336a1.745,1.745,0,0,1,.393-1.07A2.683,2.683,0,0,1,39.8,5.768a3.588,3.588,0,0,1,1.48-.3,2.924,2.924,0,0,1,2,.639,2.306,2.306,0,0,1,.752,1.76v3.4a4.162,4.162,0,0,0,.26,1.62V13Zm-2.1-.964a2.223,2.223,0,0,0,1.128-.308,1.861,1.861,0,0,0,.772-.8V9.411h-.991q-2.324,0-2.324,1.36a1.151,1.151,0,0,0,.4.93A1.524,1.524,0,0,0,40.865,12.036Zm8.723-5.3a3.79,3.79,0,0,0-.622-.048,1.667,1.667,0,0,0-1.688,1.06V13H46.013V5.6h1.23l.021.854a1.969,1.969,0,0,1,1.764-.991,1.292,1.292,0,0,1,.561.1ZM55.405,5.6l.034.82a2.732,2.732,0,0,1,2.194-.957,2.115,2.115,0,0,1,2.112,1.189,2.8,2.8,0,0,1,.96-.861,2.837,2.837,0,0,1,1.4-.328q2.434,0,2.475,2.577V13H63.314V8.119a1.7,1.7,0,0,0-.362-1.186,1.6,1.6,0,0,0-1.217-.393,1.677,1.677,0,0,0-1.169.42,1.706,1.706,0,0,0-.54,1.131V13H58.755V8.153A1.411,1.411,0,0,0,57.176,6.54a1.692,1.692,0,0,0-1.7,1.06V13H54.209V5.6Zm14.15,7.533a3.232,3.232,0,0,1-2.447-.988,3.666,3.666,0,0,1-.943-2.642V9.274a4.438,4.438,0,0,1,.42-1.965,3.28,3.28,0,0,1,1.176-1.354A2.956,2.956,0,0,1,69.4,5.467a2.77,2.77,0,0,1,2.242.95,4.114,4.114,0,0,1,.8,2.721v.526H67.43a2.629,2.629,0,0,0,.639,1.767,2.009,2.009,0,0,0,1.555.673,2.2,2.2,0,0,0,1.135-.273,2.851,2.851,0,0,0,.813-.725l.772.6A3.106,3.106,0,0,1,69.556,13.137ZM69.4,6.506a1.687,1.687,0,0,0-1.285.557,2.708,2.708,0,0,0-.643,1.562h3.705v-.1a2.409,2.409,0,0,0-.52-1.494A1.588,1.588,0,0,0,69.4,6.506ZM73.6,9.24A4.333,4.333,0,0,1,74.4,6.5a2.745,2.745,0,0,1,4.17-.147V2.5h1.265V13H78.675l-.062-.793a2.575,2.575,0,0,1-2.112.93,2.526,2.526,0,0,1-2.1-1.053,4.382,4.382,0,0,1-.81-2.748Zm1.265.144a3.281,3.281,0,0,0,.52,1.969,1.68,1.68,0,0,0,1.436.711,1.845,1.845,0,0,0,1.757-1.08v-3.4A1.859,1.859,0,0,0,76.829,6.54a1.687,1.687,0,0,0-1.449.718A3.612,3.612,0,0,0,74.86,9.384ZM83.173,13H81.908V5.6h1.265ZM81.806,3.642a.755.755,0,0,1,.188-.52.706.706,0,0,1,.557-.212.717.717,0,0,1,.561.212.747.747,0,0,1,.191.52.722.722,0,0,1-.191.513.73.73,0,0,1-.561.205.718.718,0,0,1-.557-.205A.73.73,0,0,1,81.806,3.642Zm3.083,5.6A4.333,4.333,0,0,1,85.7,6.5a2.745,2.745,0,0,1,4.17-.147V2.5H91.13V13H89.968l-.062-.793a2.575,2.575,0,0,1-2.112.93,2.526,2.526,0,0,1-2.1-1.053,4.382,4.382,0,0,1-.81-2.748Zm1.265.144a3.281,3.281,0,0,0,.52,1.969,1.68,1.68,0,0,0,1.436.711,1.845,1.845,0,0,0,1.757-1.08v-3.4A1.859,1.859,0,0,0,88.122,6.54a1.687,1.687,0,0,0-1.449.718A3.612,3.612,0,0,0,86.153,9.384ZM97.658,13a2.657,2.657,0,0,1-.178-.779,2.822,2.822,0,0,1-2.105.916,2.611,2.611,0,0,1-1.794-.619,2,2,0,0,1-.7-1.569,2.091,2.091,0,0,1,.878-1.794,4.141,4.141,0,0,1,2.471-.639h1.23V7.935a1.42,1.42,0,0,0-.4-1.056,1.593,1.593,0,0,0-1.169-.393,1.844,1.844,0,0,0-1.135.342,1.007,1.007,0,0,0-.458.827H93.03a1.745,1.745,0,0,1,.393-1.07,2.683,2.683,0,0,1,1.066-.817,3.588,3.588,0,0,1,1.48-.3,2.924,2.924,0,0,1,2,.639,2.306,2.306,0,0,1,.752,1.76v3.4a4.162,4.162,0,0,0,.26,1.62V13Zm-2.1-.964a2.223,2.223,0,0,0,1.128-.308,1.861,1.861,0,0,0,.772-.8V9.411h-.991q-2.324,0-2.324,1.36a1.151,1.151,0,0,0,.4.93A1.524,1.524,0,0,0,95.56,12.036Zm9.454-1a.931.931,0,0,0-.386-.8,3.718,3.718,0,0,0-1.347-.489,6.367,6.367,0,0,1-1.524-.492,2.169,2.169,0,0,1-.834-.684,1.635,1.635,0,0,1-.27-.943,1.919,1.919,0,0,1,.769-1.538,3,3,0,0,1,1.965-.629,3.091,3.091,0,0,1,2.041.649,2.063,2.063,0,0,1,.783,1.661h-1.271a1.142,1.142,0,0,0-.441-.9,1.652,1.652,0,0,0-1.111-.376,1.729,1.729,0,0,0-1.08.3.947.947,0,0,0-.39.786.767.767,0,0,0,.362.69,4.458,4.458,0,0,0,1.309.444,6.821,6.821,0,0,1,1.535.506,2.239,2.239,0,0,1,.872.708,1.74,1.74,0,0,1,.284,1.008,1.893,1.893,0,0,1-.793,1.589,3.326,3.326,0,0,1-2.058.6,3.725,3.725,0,0,1-1.572-.314,2.557,2.557,0,0,1-1.07-.878,2.117,2.117,0,0,1-.386-1.22h1.265a1.309,1.309,0,0,0,.509,1.008,1.976,1.976,0,0,0,1.254.373,2.039,2.039,0,0,0,1.152-.291A.893.893,0,0,0,105.014,11.038ZM7.205,27.384A4.429,4.429,0,0,1,6.433,30.1a2.476,2.476,0,0,1-2.092,1.032,2.713,2.713,0,0,1-2.119-.854v3.562H.957V23.6H2.112l.062.82a2.605,2.605,0,0,1,2.146-.957,2.522,2.522,0,0,1,2.109,1,4.477,4.477,0,0,1,.776,2.8ZM5.94,27.24a3.268,3.268,0,0,0-.533-1.976,1.718,1.718,0,0,0-1.463-.725,1.859,1.859,0,0,0-1.723,1.019v3.534A1.863,1.863,0,0,0,3.958,30.1,1.71,1.71,0,0,0,5.4,29.383,3.567,3.567,0,0,0,5.94,27.24Zm6.446-2.5a3.79,3.79,0,0,0-.622-.048,1.667,1.667,0,0,0-1.688,1.06V31H8.812V23.6h1.23l.021.854a1.969,1.969,0,0,1,1.764-.991,1.292,1.292,0,0,1,.561.1Zm.69,2.5a4.369,4.369,0,0,1,.427-1.955,3.187,3.187,0,0,1,1.189-1.34,3.238,3.238,0,0,1,1.74-.472,3.119,3.119,0,0,1,2.444,1.046,4.024,4.024,0,0,1,.933,2.782v.089a4.407,4.407,0,0,1-.414,1.938,3.14,3.14,0,0,1-1.183,1.336,3.275,3.275,0,0,1-1.767.479,3.111,3.111,0,0,1-2.437-1.046,4,4,0,0,1-.933-2.769Zm1.271.15a3.164,3.164,0,0,0,.571,1.976,1.934,1.934,0,0,0,3.059-.01,3.46,3.46,0,0,0,.567-2.116,3.159,3.159,0,0,0-.578-1.972,1.836,1.836,0,0,0-1.535-.755,1.816,1.816,0,0,0-1.511.745A3.434,3.434,0,0,0,14.349,27.384ZM25.963,31a2.657,2.657,0,0,1-.178-.779,2.822,2.822,0,0,1-2.105.916,2.611,2.611,0,0,1-1.794-.619,2,2,0,0,1-.7-1.569,2.091,2.091,0,0,1,.878-1.794,4.141,4.141,0,0,1,2.471-.639h1.23v-.581a1.42,1.42,0,0,0-.4-1.056,1.593,1.593,0,0,0-1.169-.393,1.844,1.844,0,0,0-1.135.342,1.007,1.007,0,0,0-.458.827H21.335a1.745,1.745,0,0,1,.393-1.07,2.683,2.683,0,0,1,1.066-.817,3.588,3.588,0,0,1,1.48-.3,2.924,2.924,0,0,1,2,.639,2.306,2.306,0,0,1,.752,1.76v3.4a4.162,4.162,0,0,0,.26,1.62V31Zm-2.1-.964a2.223,2.223,0,0,0,1.128-.308,1.861,1.861,0,0,0,.772-.8V27.411h-.991q-2.324,0-2.324,1.36a1.151,1.151,0,0,0,.4.93A1.524,1.524,0,0,0,23.864,30.036Zm8.114.068a1.822,1.822,0,0,0,1.183-.41,1.443,1.443,0,0,0,.561-1.025h1.2a2.293,2.293,0,0,1-.437,1.21,2.881,2.881,0,0,1-1.077.916,3.107,3.107,0,0,1-1.425.342,3.047,3.047,0,0,1-2.4-1.008,4.016,4.016,0,0,1-.892-2.758v-.212a4.453,4.453,0,0,1,.4-1.921,3.02,3.02,0,0,1,1.138-1.306,3.233,3.233,0,0,1,1.753-.465,2.966,2.966,0,0,1,2.068.745,2.663,2.663,0,0,1,.878,1.935h-1.2a1.743,1.743,0,0,0-.543-1.179,1.691,1.691,0,0,0-1.207-.461,1.77,1.77,0,0,0-1.494.694,3.259,3.259,0,0,0-.53,2.006v.239a3.194,3.194,0,0,0,.526,1.969A1.779,1.779,0,0,0,31.979,30.1Zm6.077-8.292V23.6h1.381v.978H38.056v4.593a1.027,1.027,0,0,0,.185.667.777.777,0,0,0,.629.222,3.062,3.062,0,0,0,.6-.082V31a3.688,3.688,0,0,1-.971.136,1.575,1.575,0,0,1-1.278-.513,2.2,2.2,0,0,1-.431-1.456V24.581H35.444V23.6h1.347V21.813ZM42.287,31H41.022V23.6h1.265ZM40.92,21.642a.755.755,0,0,1,.188-.52.706.706,0,0,1,.557-.212.717.717,0,0,1,.561.212.747.747,0,0,1,.191.52.722.722,0,0,1-.191.513.73.73,0,0,1-.561.205.718.718,0,0,1-.557-.205A.73.73,0,0,1,40.92,21.642Zm5.831,7.643L48.583,23.6h1.292L47.223,31h-.964l-2.68-7.4h1.292ZM55.556,31a2.657,2.657,0,0,1-.178-.779,2.822,2.822,0,0,1-2.105.916,2.611,2.611,0,0,1-1.794-.619,2,2,0,0,1-.7-1.569,2.091,2.091,0,0,1,.878-1.794,4.142,4.142,0,0,1,2.471-.639h1.23v-.581a1.42,1.42,0,0,0-.4-1.056,1.593,1.593,0,0,0-1.169-.393,1.844,1.844,0,0,0-1.135.342,1.007,1.007,0,0,0-.458.827H50.928a1.745,1.745,0,0,1,.393-1.07,2.683,2.683,0,0,1,1.066-.817,3.588,3.588,0,0,1,1.48-.3,2.924,2.924,0,0,1,2,.639,2.306,2.306,0,0,1,.752,1.76v3.4a4.162,4.162,0,0,0,.26,1.62V31Zm-2.1-.964a2.223,2.223,0,0,0,1.128-.308,1.861,1.861,0,0,0,.772-.8V27.411h-.991q-2.324,0-2.324,1.36a1.151,1.151,0,0,0,.4.93A1.524,1.524,0,0,0,53.457,30.036Zm9.454-1a.931.931,0,0,0-.386-.8,3.718,3.718,0,0,0-1.347-.489,6.367,6.367,0,0,1-1.524-.492,2.169,2.169,0,0,1-.834-.684,1.635,1.635,0,0,1-.27-.943,1.919,1.919,0,0,1,.769-1.538,3,3,0,0,1,1.965-.629,3.091,3.091,0,0,1,2.041.649,2.063,2.063,0,0,1,.783,1.661H62.836a1.142,1.142,0,0,0-.441-.9,1.652,1.652,0,0,0-1.111-.376,1.729,1.729,0,0,0-1.08.3.947.947,0,0,0-.39.786.767.767,0,0,0,.362.69,4.458,4.458,0,0,0,1.309.444,6.821,6.821,0,0,1,1.535.506,2.239,2.239,0,0,1,.872.708,1.74,1.74,0,0,1,.284,1.008,1.893,1.893,0,0,1-.793,1.589,3.326,3.326,0,0,1-2.058.6,3.725,3.725,0,0,1-1.572-.314,2.557,2.557,0,0,1-1.07-.878,2.117,2.117,0,0,1-.386-1.22h1.265a1.309,1.309,0,0,0,.509,1.008,1.976,1.976,0,0,0,1.254.373,2.039,2.039,0,0,0,1.152-.291A.893.893,0,0,0,62.911,29.038Zm6.07-1.8a4.333,4.333,0,0,1,.807-2.738,2.745,2.745,0,0,1,4.17-.147V20.5h1.265V31H74.061L74,30.207a2.575,2.575,0,0,1-2.112.93,2.526,2.526,0,0,1-2.1-1.053,4.382,4.382,0,0,1-.81-2.748Zm1.265.144a3.281,3.281,0,0,0,.52,1.969,1.68,1.68,0,0,0,1.436.711,1.845,1.845,0,0,0,1.757-1.08v-3.4a1.859,1.859,0,0,0-1.743-1.046,1.687,1.687,0,0,0-1.449.718A3.612,3.612,0,0,0,70.246,27.384Zm10.008,3.753a3.232,3.232,0,0,1-2.447-.988,3.666,3.666,0,0,1-.943-2.642v-.232a4.438,4.438,0,0,1,.42-1.965,3.28,3.28,0,0,1,1.176-1.354,2.956,2.956,0,0,1,1.637-.489,2.77,2.77,0,0,1,2.242.95,4.114,4.114,0,0,1,.8,2.721v.526H78.128a2.629,2.629,0,0,0,.639,1.767,2.009,2.009,0,0,0,1.555.673,2.2,2.2,0,0,0,1.135-.273,2.851,2.851,0,0,0,.813-.725l.772.6A3.106,3.106,0,0,1,80.254,31.137ZM80.1,24.506a1.687,1.687,0,0,0-1.285.557,2.708,2.708,0,0,0-.643,1.562h3.705v-.1a2.409,2.409,0,0,0-.52-1.494A1.588,1.588,0,0,0,80.1,24.506Zm14.219,2.878a4.429,4.429,0,0,1-.772,2.721,2.476,2.476,0,0,1-2.092,1.032,2.713,2.713,0,0,1-2.119-.854v3.562H88.067V23.6h1.155l.062.82a2.605,2.605,0,0,1,2.146-.957,2.522,2.522,0,0,1,2.109,1,4.477,4.477,0,0,1,.776,2.8Zm-1.265-.144a3.268,3.268,0,0,0-.533-1.976,1.718,1.718,0,0,0-1.463-.725,1.859,1.859,0,0,0-1.723,1.019v3.534A1.863,1.863,0,0,0,91.068,30.1a1.71,1.71,0,0,0,1.446-.721A3.567,3.567,0,0,0,93.051,27.24Zm6.446-2.5a3.79,3.79,0,0,0-.622-.048,1.667,1.667,0,0,0-1.688,1.06V31H95.922V23.6h1.23l.021.854a1.969,1.969,0,0,1,1.764-.991,1.292,1.292,0,0,1,.561.1Zm4.1,6.4a3.232,3.232,0,0,1-2.447-.988,3.666,3.666,0,0,1-.943-2.642v-.232a4.438,4.438,0,0,1,.42-1.965,3.28,3.28,0,0,1,1.176-1.354,2.956,2.956,0,0,1,1.637-.489,2.77,2.77,0,0,1,2.242.95,4.114,4.114,0,0,1,.8,2.721v.526h-5.011a2.629,2.629,0,0,0,.639,1.767,2.009,2.009,0,0,0,1.555.673,2.2,2.2,0,0,0,1.135-.273,2.851,2.851,0,0,0,.813-.725l.772.6A3.106,3.106,0,0,1,103.6,31.137Zm-.157-6.631a1.687,1.687,0,0,0-1.285.557,2.708,2.708,0,0,0-.643,1.562h3.705v-.1a2.409,2.409,0,0,0-.52-1.494A1.588,1.588,0,0,0,103.441,24.506Zm6.856,4.778L112.13,23.6h1.292L110.77,31h-.964l-2.68-7.4h1.292Zm7.321,1.853a3.232,3.232,0,0,1-2.447-.988,3.666,3.666,0,0,1-.943-2.642v-.232a4.438,4.438,0,0,1,.42-1.965,3.28,3.28,0,0,1,1.176-1.354,2.956,2.956,0,0,1,1.637-.489,2.77,2.77,0,0,1,2.242.95,4.114,4.114,0,0,1,.8,2.721v.526h-5.011a2.629,2.629,0,0,0,.639,1.767,2.009,2.009,0,0,0,1.555.673,2.2,2.2,0,0,0,1.135-.273,2.851,2.851,0,0,0,.813-.725l.772.6A3.106,3.106,0,0,1,117.619,31.137Zm-.157-6.631a1.687,1.687,0,0,0-1.285.557,2.708,2.708,0,0,0-.643,1.562h3.705v-.1a2.409,2.409,0,0,0-.52-1.494A1.588,1.588,0,0,0,117.462,24.506Zm5.7-.9.041.93a2.7,2.7,0,0,1,2.215-1.066q2.345,0,2.365,2.646V31H126.52V26.105a1.7,1.7,0,0,0-.366-1.183,1.466,1.466,0,0,0-1.118-.383,1.825,1.825,0,0,0-1.08.328,2.228,2.228,0,0,0-.725.861V31h-1.265V23.6Zm9.5,6.5a1.822,1.822,0,0,0,1.183-.41,1.443,1.443,0,0,0,.561-1.025h1.2a2.293,2.293,0,0,1-.437,1.21,2.881,2.881,0,0,1-1.077.916,3.107,3.107,0,0,1-1.425.342,3.047,3.047,0,0,1-2.4-1.008,4.016,4.016,0,0,1-.892-2.758v-.212a4.453,4.453,0,0,1,.4-1.921,3.02,3.02,0,0,1,1.138-1.306,3.233,3.233,0,0,1,1.753-.465,2.966,2.966,0,0,1,2.068.745,2.663,2.663,0,0,1,.878,1.935h-1.2a1.743,1.743,0,0,0-.543-1.179,1.691,1.691,0,0,0-1.207-.461,1.77,1.77,0,0,0-1.494.694,3.259,3.259,0,0,0-.53,2.006v.239a3.194,3.194,0,0,0,.526,1.969A1.779,1.779,0,0,0,132.658,30.1Zm5.735.9h-1.265V23.6h1.265Zm-1.367-9.358a.755.755,0,0,1,.188-.52.706.706,0,0,1,.557-.212.717.717,0,0,1,.561.212.747.747,0,0,1,.191.52.722.722,0,0,1-.191.513.73.73,0,0,1-.561.205.718.718,0,0,1-.557-.205A.73.73,0,0,1,137.026,21.642Zm3.056,5.592a4.369,4.369,0,0,1,.427-1.955,3.187,3.187,0,0,1,1.189-1.34,3.238,3.238,0,0,1,1.74-.472,3.119,3.119,0,0,1,2.444,1.046,4.024,4.024,0,0,1,.933,2.782v.089a4.407,4.407,0,0,1-.414,1.938,3.14,3.14,0,0,1-1.183,1.336,3.275,3.275,0,0,1-1.767.479,3.111,3.111,0,0,1-2.437-1.046,4,4,0,0,1-.933-2.769Zm1.271.15a3.164,3.164,0,0,0,.571,1.976,1.934,1.934,0,0,0,3.059-.01,3.46,3.46,0,0,0,.567-2.116,3.159,3.159,0,0,0-.578-1.972,1.836,1.836,0,0,0-1.535-.755,1.816,1.816,0,0,0-1.511.745A3.434,3.434,0,0,0,141.354,27.384Zm2.659-6.87h1.531l-1.832,2.01-1.019,0ZM149.6,23.6l.041.93a2.7,2.7,0,0,1,2.215-1.066q2.345,0,2.365,2.646V31h-1.265V26.105a1.7,1.7,0,0,0-.366-1.183,1.466,1.466,0,0,0-1.118-.383,1.825,1.825,0,0,0-1.08.328,2.228,2.228,0,0,0-.725.861V31H148.4V23.6ZM.649,45.24A4.333,4.333,0,0,1,1.456,42.5a2.551,2.551,0,0,1,2.112-1.036,2.565,2.565,0,0,1,2.058.889V38.5H6.891V49H5.729l-.062-.793a2.575,2.575,0,0,1-2.112.93,2.526,2.526,0,0,1-2.1-1.053,4.382,4.382,0,0,1-.81-2.748Zm1.265.144a3.281,3.281,0,0,0,.52,1.969,1.68,1.68,0,0,0,1.436.711,1.845,1.845,0,0,0,1.757-1.08v-3.4A1.859,1.859,0,0,0,3.883,42.54a1.687,1.687,0,0,0-1.449.718A3.612,3.612,0,0,0,1.914,45.384Zm10.008,3.753a3.232,3.232,0,0,1-2.447-.988,3.666,3.666,0,0,1-.943-2.642v-.232a4.438,4.438,0,0,1,.42-1.965,3.28,3.28,0,0,1,1.176-1.354,2.956,2.956,0,0,1,1.637-.489,2.77,2.77,0,0,1,2.242.95,4.114,4.114,0,0,1,.8,2.721v.526H9.8a2.629,2.629,0,0,0,.639,1.767,2.009,2.009,0,0,0,1.555.673,2.2,2.2,0,0,0,1.135-.273,2.851,2.851,0,0,0,.813-.725l.772.6A3.106,3.106,0,0,1,11.922,49.137Zm-.157-6.631a1.687,1.687,0,0,0-1.285.557,2.708,2.708,0,0,0-.643,1.562h3.705v-.1a2.409,2.409,0,0,0-.52-1.494A1.588,1.588,0,0,0,11.765,42.506ZM17.644,49H16.379V38.5h1.265Zm9.064-6.262a3.79,3.79,0,0,0-.622-.048A1.667,1.667,0,0,0,24.4,43.75V49H23.133V41.6h1.23l.021.854a1.969,1.969,0,0,1,1.764-.991,1.292,1.292,0,0,1,.561.1ZM29.244,49H27.979V41.6h1.265Zm-1.367-9.358a.755.755,0,0,1,.188-.52.706.706,0,0,1,.557-.212.717.717,0,0,1,.561.212.747.747,0,0,1,.191.52.722.722,0,0,1-.191.513.73.73,0,0,1-.561.205.718.718,0,0,1-.557-.205A.73.73,0,0,1,27.877,39.642Zm6.46,9.5a3.232,3.232,0,0,1-2.447-.988,3.666,3.666,0,0,1-.943-2.642v-.232a4.438,4.438,0,0,1,.42-1.965,3.28,3.28,0,0,1,1.176-1.354,2.956,2.956,0,0,1,1.637-.489,2.77,2.77,0,0,1,2.242.95,4.114,4.114,0,0,1,.8,2.721v.526H32.211a2.629,2.629,0,0,0,.639,1.767,2.009,2.009,0,0,0,1.555.673,2.2,2.2,0,0,0,1.135-.273,2.851,2.851,0,0,0,.813-.725l.772.6A3.106,3.106,0,0,1,34.337,49.137Zm-.157-6.631a1.687,1.687,0,0,0-1.285.557,2.708,2.708,0,0,0-.643,1.562h3.705v-.1a2.409,2.409,0,0,0-.52-1.494A1.588,1.588,0,0,0,34.18,42.506Zm8.812,4.532a.931.931,0,0,0-.386-.8,3.718,3.718,0,0,0-1.347-.489,6.367,6.367,0,0,1-1.524-.492,2.169,2.169,0,0,1-.834-.684,1.635,1.635,0,0,1-.27-.943A1.919,1.919,0,0,1,39.4,42.1a3,3,0,0,1,1.965-.629,3.091,3.091,0,0,1,2.041.649,2.063,2.063,0,0,1,.783,1.661H42.916a1.142,1.142,0,0,0-.441-.9,1.652,1.652,0,0,0-1.111-.376,1.729,1.729,0,0,0-1.08.3.947.947,0,0,0-.39.786.767.767,0,0,0,.362.69,4.458,4.458,0,0,0,1.309.444,6.821,6.821,0,0,1,1.535.506,2.239,2.239,0,0,1,.872.708,1.74,1.74,0,0,1,.284,1.008,1.893,1.893,0,0,1-.793,1.589,3.326,3.326,0,0,1-2.058.6,3.725,3.725,0,0,1-1.572-.314,2.557,2.557,0,0,1-1.07-.878,2.117,2.117,0,0,1-.386-1.22h1.265a1.309,1.309,0,0,0,.509,1.008,1.976,1.976,0,0,0,1.254.373,2.039,2.039,0,0,0,1.152-.291A.893.893,0,0,0,42.991,47.038Zm2.611-1.8a4.347,4.347,0,0,1,.8-2.751,2.757,2.757,0,0,1,4.231-.065l.062-.82h1.155v7.219A3.009,3.009,0,0,1,51,51.085a3.141,3.141,0,0,1-2.287.827,3.8,3.8,0,0,1-1.565-.342,2.7,2.7,0,0,1-1.169-.937l.656-.759a2.473,2.473,0,0,0,1.989,1,1.938,1.938,0,0,0,1.439-.52,1.986,1.986,0,0,0,.516-1.463v-.636a2.6,2.6,0,0,1-2.071.875,2.526,2.526,0,0,1-2.1-1.046A4.571,4.571,0,0,1,45.6,45.24Zm1.271.144a3.316,3.316,0,0,0,.513,1.965,1.666,1.666,0,0,0,1.436.714,1.852,1.852,0,0,0,1.757-1.087V43.6a1.874,1.874,0,0,0-1.743-1.06,1.681,1.681,0,0,0-1.442.718A3.612,3.612,0,0,0,46.874,45.384Zm6.549-.15a4.369,4.369,0,0,1,.427-1.955,3.187,3.187,0,0,1,1.189-1.34,3.238,3.238,0,0,1,1.74-.472,3.119,3.119,0,0,1,2.444,1.046,4.024,4.024,0,0,1,.933,2.782v.089a4.407,4.407,0,0,1-.414,1.938,3.14,3.14,0,0,1-1.183,1.336,3.275,3.275,0,0,1-1.767.479,3.111,3.111,0,0,1-2.437-1.046,4,4,0,0,1-.933-2.769Zm1.271.15a3.164,3.164,0,0,0,.571,1.976,1.934,1.934,0,0,0,3.059-.01,3.46,3.46,0,0,0,.567-2.116,3.159,3.159,0,0,0-.578-1.972,1.836,1.836,0,0,0-1.535-.755,1.816,1.816,0,0,0-1.511.745A3.435,3.435,0,0,0,54.694,45.384Zm7.075,2.953a.792.792,0,0,1,.195-.547.742.742,0,0,1,.584-.219.765.765,0,0,1,.591.219.776.776,0,0,1,.2.547.734.734,0,0,1-.2.526.778.778,0,0,1-.591.212.7.7,0,0,1-.779-.738Z" transform="translate(317.077 2279.215)" fill="#12263f"/>
    <rect id="Rectángulo_34987" data-name="Rectángulo 34987" width="6" height="69" transform="translate(511.43 2273.531)" fill="#2ec49f"/>
    <g id="Grupo_161745" data-name="Grupo 161745" transform="translate(222.464 2267.934)">
      <g id="Grupo_42274" data-name="Grupo 42274" transform="translate(0 0)">
        <g id="Grupo_18423" data-name="Grupo 18423" transform="translate(0 0)">
          <g id="Grupo_18421" data-name="Grupo 18421">
            <g id="Grupo_18420" data-name="Grupo 18420">
              <g id="Grupo_18419" data-name="Grupo 18419">
                <path id="Trazado_40936" data-name="Trazado 40936" d="M273.684,2185.25a39.53,39.53,0,1,1-39.53-39.529A39.53,39.53,0,0,1,273.684,2185.25Z" transform="translate(-194.623 -2145.721)" fill="#fff"/>
              </g>
            </g>
          </g>
          <path id="Trazado_40937" data-name="Trazado 40937" d="M273.528,2185.083A39.529,39.529,0,1,0,234,2224.613,39.372,39.372,0,0,0,273.528,2185.083Z" transform="translate(-194.467 -2145.553)" fill="url(#radial-gradient)"/>
          <path id="Trazado_40938" data-name="Trazado 40938" d="M262.865,2183.788a30.173,30.173,0,1,0-30.173,30.174A30.062,30.062,0,0,0,262.865,2183.788Z" transform="translate(-193.041 -2144.127)" fill="none" stroke="#12263f" stroke-miterlimit="10" stroke-width="2"/>
          <g id="Grupo_18422" data-name="Grupo 18422" transform="translate(7.003 22.193)">
            <path id="Trazado_40939" data-name="Trazado 40939" d="M268.606,2164.488a39.535,39.535,0,0,1-68.061,39.366,39.409,39.409,0,0,0,68.061-39.366Z" transform="translate(-200.545 -2164.488)" fill="#eceef0"/>
          </g>
        </g>
      </g>
      <g id="fcCcjA.tif" transform="translate(-994.34 1605.193)">
        <g id="Grupo_161618" data-name="Grupo 161618" transform="translate(1016.245 -1584.402)">
          <path id="Trazado_199759" data-name="Trazado 199759" d="M1035.441-1547.168c0-2.7,0-5.4.015-8.105a2.032,2.032,0,0,1,.178-.8c.761-1.685,1.543-3.362,2.317-5.041.06-.13.116-.262.192-.436h-6.872v-1.221c.117-.006.244-.018.371-.018q4.8,0,9.6,0a3.027,3.027,0,0,1,3.223,3.2c.006,1.672,0,3.344,0,5.016,0,.618-.183.8-.8.8-.808,0-1.617,0-2.365,0l4.993,4.992,4.993-4.992h-2.336c-.717,0-.882-.162-.883-.872q0-3.053,0-6.107a5.384,5.384,0,0,0-2.289-4.62,4.964,4.964,0,0,0-2.946-.987c-3.708-.013-7.417-.006-11.125-.008h-.446v-1.223H1042.4a6.7,6.7,0,0,1,3.54.9.358.358,0,0,0,.525-.068,5.455,5.455,0,0,0,1.6-4.033q-.005-3.035,0-6.07c0-.773.147-.921.905-.922h2.239l-4.974-4.977-4.975,4.977h2.134c.157,0,.316,0,.472.006a.562.562,0,0,1,.59.6c0,1.9.037,3.806-.023,5.706a2.928,2.928,0,0,1-3,2.694c-3.332.028-6.665.009-10,.008a1.594,1.594,0,0,1-.17-.021v-1.191h7.751a7.084,7.084,0,0,0-5.456-6.95c-.5.849-1,1.7-1.487,2.564a.355.355,0,0,0,.031.316,1.817,1.817,0,0,1-1.471,2.887.462.462,0,0,0-.331.193c-.791,1.4-1.567,2.809-2.361,4.241a2.982,2.982,0,0,1,.855,2.72,2.957,2.957,0,0,1-1.149,1.834,3.032,3.032,0,0,1-3.945-.3,3.019,3.019,0,0,1,.236-4.424l-2.276-2.962-3.857,8.26c.14.013.24.03.34.03.824,0,1.648,0,2.472,0,.94,0,1.032.094,1.032,1.051q0,3.144,0,6.288v.457h.44q2.672,0,5.344,0c.61,0,.814.2.814.8q0,2.907-.009,5.815h-1.163c-.011-.144-.03-.288-.031-.431q0-2.253,0-4.505v-.452h-5.713c-.695,0-.884-.187-.884-.879q0-3.233,0-6.467v-.469h-.433c-.981,0-1.962-.01-2.943.005a.865.865,0,0,1-.829-.4v-.436c.059-.1.125-.2.175-.307,1.172-2.5,2.335-5.013,3.518-7.513a4.409,4.409,0,0,0,.58-1.988.966.966,0,0,0-.145-.525c-.552-.75-1.139-1.474-1.693-2.223a.864.864,0,0,0-.807-.462,1.4,1.4,0,0,1-1.183-.6,6.193,6.193,0,0,1-.444-.772v-.8c.023-.026.056-.047.067-.077a1.787,1.787,0,0,1,1.865-1.311.711.711,0,0,0,.413-.163q1.762-1.49,3.5-3.006a.576.576,0,0,0,.153-.394,1.811,1.811,0,0,1,1.3-1.77,1.791,1.791,0,0,1,2.046.787c.055.088.109.178.156.255,2.582-.341,5.136-.674,7.689-1.024a.618.618,0,0,0,.4-.277,1.835,1.835,0,0,1,1.964-.994,1.837,1.837,0,0,1,1.452,1.573,1.807,1.807,0,0,1-1.2,1.907.746.746,0,0,0-.34.284c-.457.755-.9,1.521-1.342,2.284a2.413,2.413,0,0,0-.11.246A8.55,8.55,0,0,1,1040.3-1570c.454,0,.891.025,1.325-.005a1.7,1.7,0,0,0,1.6-1.6c.04-1.61.021-3.221.025-4.832a.657.657,0,0,0-.046-.145h-.381q-1.49,0-2.981,0c-.307,0-.594-.05-.725-.368a.7.7,0,0,1,.253-.8q3.168-3.155,6.327-6.319c.439-.438.706-.441,1.141-.007q3.164,3.159,6.326,6.319c.227.227.4.463.264.8s-.437.38-.754.379q-1.49,0-2.981,0c-.13,0-.26.011-.422.018v.424c0,1.793-.011,3.586,0,5.379a6.573,6.573,0,0,1-1.153,3.9c-.266.384-.588.73-.891,1.1.057.063.112.126.169.187a6.332,6.332,0,0,1,1.856,4.4c.024,1.9.012,3.8.015,5.706,0,.143,0,.286,0,.46.162.007.292.018.421.019q1.509,0,3.017,0c.341,0,.635.081.743.447a.687.687,0,0,1-.263.707c-1.168,1.162-2.329,2.331-3.5,3.493q-1.594,1.586-3.2,3.165h-.436c-.1-.085-.207-.165-.3-.257q-3.227-3.223-6.449-6.453a.829.829,0,0,1-.224-.4c-.079-.416.2-.694.7-.7,1.018-.009,2.036,0,3.053,0,.128,0,.256-.014.4-.022,0-1.66.029-3.281-.011-4.9a1.716,1.716,0,0,0-1.768-1.662c-.557-.01-1.115.01-1.672-.009a.4.4,0,0,0-.428.289c-.854,1.868-1.719,3.732-2.575,5.6a1.121,1.121,0,0,0-.109.448q-.007,4.034,0,8.068Zm-8.455-20.338c.685-1.234,1.426-2.564,2.159-3.9.07-.127.174-.359.127-.405-.233-.232-.182-.656-.589-.772q-2.7-.771-5.387-1.582a.28.28,0,0,0-.38.138,6.9,6.9,0,0,0-1,2.2.515.515,0,0,0,.076.385q1.447,1.911,2.921,3.8a.421.421,0,0,0,.291.128C1025.766-1567.5,1026.325-1567.506,1026.986-1567.506Zm7.524-13.46c-.241-.3-.435-.555-.656-.79a.426.426,0,0,0-.318-.113c-1.572.2-3.143.4-4.715.61-.911.12-1.82.265-2.735.354-.389.038-.444.339-.564.574-.043.084.091.29.186.4.263.317.573.6.818.925.4.535.834.931,1.563.649a.1.1,0,0,1,.036,0c1.538,0,3.076.01,4.614,0a.424.424,0,0,0,.317-.145C1033.557-1579.322,1034.04-1580.16,1034.51-1580.966Zm-11.629.949-3.462,2.969c.223.241.378.552.615.639.768.282,1.563.492,2.355.7a.53.53,0,0,0,.433-.117,8.734,8.734,0,0,1,2.864-1.931,2.539,2.539,0,0,0,.227-.125c-.485-.538-.95-1.062-1.428-1.574a.444.444,0,0,0-.3-.134A1.909,1.909,0,0,1,1022.881-1580.017Zm1.186,15.439a1.78,1.78,0,0,0,1.768,1.784,1.8,1.8,0,0,0,1.816-1.787,1.81,1.81,0,0,0-1.782-1.786A1.782,1.782,0,0,0,1024.067-1564.577Zm5.192-9.586c-.768-.85-1.526-1.7-2.3-2.532a.451.451,0,0,0-.4-.078,7.968,7.968,0,0,0-1.257.553c-.458.268-.875.606-1.371.958.172.063.238.092.306.112,1.471.435,2.945.858,4.41,1.31C1028.979-1573.74,1029.152-1573.812,1029.26-1574.164Zm3.014-2.969h-4.053c.715.8,1.35,1.542,2.038,2.234a.709.709,0,0,0,.681,0C1031.415-1575.606,1031.822-1576.358,1032.273-1577.132Zm-12.65,1.89c-.045.211-.178.455-.107.558.438.632.923,1.232,1.4,1.855l.877-1.772Zm11.041,2.847a.58.58,0,0,0,.568-.615.567.567,0,0,0-.587-.554.6.6,0,0,0-.582.572A.62.62,0,0,0,1030.665-1572.395Zm4.807-10.771a.588.588,0,0,0-.6.582.63.63,0,0,0,.579.586.582.582,0,0,0,.59-.6A.562.562,0,0,0,1035.473-1583.166Zm-17.438,7.771a.62.62,0,0,0,.6-.569.586.586,0,0,0-.561-.6.563.563,0,0,0-.607.573A.585.585,0,0,0,1018.035-1575.4Zm6.012-5.417a.567.567,0,0,0,.582-.564.591.591,0,0,0-.556-.6.623.623,0,0,0-.613.6A.585.585,0,0,0,1024.047-1580.812Z" transform="translate(-1016.245 1584.402)" fill="#12263f"/>
        </g>
      </g>
    </g>
  </g>
</svg>
