<svg xmlns="http://www.w3.org/2000/svg" xmlns:xlink="http://www.w3.org/1999/xlink" width="768.125" height="476.081" viewBox="0 0 768.125 476.081">
  <defs>
    <filter id="Rectángulo_46666" x="69" y="154.779" width="136" height="182" filterUnits="userSpaceOnUse">
      <feOffset dy="3" input="SourceAlpha"/>
      <feGaussianBlur stdDeviation="3" result="blur"/>
      <feFlood flood-opacity="0.161"/>
      <feComposite operator="in" in2="blur"/>
      <feComposite in="SourceGraphic"/>
    </filter>
    <filter id="Rectángulo_46667" x="194" y="154.779" width="136" height="182" filterUnits="userSpaceOnUse">
      <feOffset dy="3" input="SourceAlpha"/>
      <feGaussianBlur stdDeviation="3" result="blur-2"/>
      <feFlood flood-opacity="0.161"/>
      <feComposite operator="in" in2="blur-2"/>
      <feComposite in="SourceGraphic"/>
    </filter>
    <filter id="Rectángulo_46668" x="321" y="154.779" width="144.477" height="182" filterUnits="userSpaceOnUse">
      <feOffset dy="3" input="SourceAlpha"/>
      <feGaussianBlur stdDeviation="3" result="blur-3"/>
      <feFlood flood-opacity="0.161"/>
      <feComposite operator="in" in2="blur-3"/>
      <feComposite in="SourceGraphic"/>
    </filter>
    <filter id="Rectángulo_46669" x="457" y="154.779" width="136" height="182" filterUnits="userSpaceOnUse">
      <feOffset dy="3" input="SourceAlpha"/>
      <feGaussianBlur stdDeviation="3" result="blur-4"/>
      <feFlood flood-opacity="0.161"/>
      <feComposite operator="in" in2="blur-4"/>
      <feComposite in="SourceGraphic"/>
    </filter>
    <filter id="Rectángulo_46670" x="583" y="154.779" width="146" height="182" filterUnits="userSpaceOnUse">
      <feOffset dy="3" input="SourceAlpha"/>
      <feGaussianBlur stdDeviation="3" result="blur-5"/>
      <feFlood flood-opacity="0.161"/>
      <feComposite operator="in" in2="blur-5"/>
      <feComposite in="SourceGraphic"/>
    </filter>
  </defs>
  <g id="Grupo_161760" data-name="Grupo 161760" transform="translate(-365.633 -6352.203)">
    <g id="Grupo_161626" data-name="Grupo 161626" transform="translate(0 2162)">
      <path id="Trazado_199806" data-name="Trazado 199806" d="M0,422.609H128.307V0H342.354V422.609H476.081l-248.669,210.9Z" transform="translate(500.245 4666.284) rotate(-90)" fill="#e8e8e8"/>
      <g transform="matrix(1, 0, 0, 1, 365.63, 4190.2)" filter="url(#Rectángulo_46666)">
        <rect id="Rectángulo_46666-2" data-name="Rectángulo 46666" width="118" height="164" rx="10" transform="translate(78 160.78)" fill="#1565c0"/>
      </g>
      <g transform="matrix(1, 0, 0, 1, 365.63, 4190.2)" filter="url(#Rectángulo_46667)">
        <rect id="Rectángulo_46667-2" data-name="Rectángulo 46667" width="118" height="164" rx="10" transform="translate(203 160.78)" fill="#5793ce"/>
      </g>
      <g transform="matrix(1, 0, 0, 1, 365.63, 4190.2)" filter="url(#Rectángulo_46668)">
        <rect id="Rectángulo_46668-2" data-name="Rectángulo 46668" width="126.477" height="164" rx="10" transform="translate(330 160.78)" fill="#43bda7"/>
      </g>
      <g transform="matrix(1, 0, 0, 1, 365.63, 4190.2)" filter="url(#Rectángulo_46669)">
        <rect id="Rectángulo_46669-2" data-name="Rectángulo 46669" width="118" height="164" rx="10" transform="translate(466 160.78)" fill="#44b874"/>
      </g>
      <g transform="matrix(1, 0, 0, 1, 365.63, 4190.2)" filter="url(#Rectángulo_46670)">
        <rect id="Rectángulo_46670-2" data-name="Rectángulo 46670" width="128" height="164" rx="10" transform="translate(592 160.78)" fill="#46b246"/>
      </g>
      <g id="Rectángulo_46672" data-name="Rectángulo 46672" transform="translate(594.633 4622.982)" fill="#fff" stroke="#2ec49f" stroke-width="3">
        <rect width="257" height="39" rx="5" stroke="none"/>
        <rect x="1.5" y="1.5" width="254" height="36" rx="3.5" fill="none"/>
      </g>
      <g id="Rectángulo_46685" data-name="Rectángulo 46685" transform="translate(365.633 4622.982)" fill="#fff" stroke="#2ec49f" stroke-width="3">
        <rect width="87" height="39" rx="5" stroke="none"/>
        <rect x="1.5" y="1.5" width="84" height="36" rx="3.5" fill="none"/>
      </g>
      <path id="Trazado_199880" data-name="Trazado 199880" d="M4.078-11.375,7-3.125l2.906-8.25h3.078V0H10.633V-3.109l.234-5.367L7.8,0H6.188L3.125-8.469l.234,5.359V0H1.016V-11.375ZM14.531-4.3a5.013,5.013,0,0,1,.484-2.242A3.546,3.546,0,0,1,16.41-8.07a4.069,4.069,0,0,1,2.113-.539,3.849,3.849,0,0,1,2.793,1.047,4.2,4.2,0,0,1,1.207,2.844l.016.578A4.418,4.418,0,0,1,21.453-1.02,3.775,3.775,0,0,1,18.539.156a3.793,3.793,0,0,1-2.918-1.172A4.5,4.5,0,0,1,14.531-4.2Zm2.258.16A3.16,3.16,0,0,0,17.242-2.3a1.5,1.5,0,0,0,1.3.638,1.5,1.5,0,0,0,1.281-.63,3.457,3.457,0,0,0,.461-2.015A3.128,3.128,0,0,0,19.82-6.14a1.5,1.5,0,0,0-1.3-.649,1.474,1.474,0,0,0-1.281.646A3.516,3.516,0,0,0,16.789-4.144Zm9.219-4.309.07.977a2.951,2.951,0,0,1,2.43-1.133,2.453,2.453,0,0,1,2,.789,3.682,3.682,0,0,1,.672,2.359V0H28.922V-5.419a1.47,1.47,0,0,0-.312-1.045,1.4,1.4,0,0,0-1.039-.325,1.553,1.553,0,0,0-1.43.814V0H23.883V-8.453ZM35.273,0H33.008V-8.453h2.266Zm-2.4-10.641a1.112,1.112,0,0,1,.34-.836,1.277,1.277,0,0,1,.926-.328,1.28,1.28,0,0,1,.922.328,1.105,1.105,0,0,1,.344.836,1.108,1.108,0,0,1-.348.844,1.283,1.283,0,0,1-.918.328,1.283,1.283,0,0,1-.918-.328A1.108,1.108,0,0,1,32.875-10.641Zm6.961.109v2.078h1.445V-6.8H39.836v4.219a1.007,1.007,0,0,0,.18.672.9.9,0,0,0,.688.2,3.6,3.6,0,0,0,.664-.055V-.047A4.648,4.648,0,0,1,40,.156a2.156,2.156,0,0,1-2.422-2.4V-6.8H36.344V-8.453h1.234v-2.078ZM41.953-4.3a5.013,5.013,0,0,1,.484-2.242A3.546,3.546,0,0,1,43.832-8.07a4.069,4.069,0,0,1,2.113-.539,3.849,3.849,0,0,1,2.793,1.047,4.2,4.2,0,0,1,1.207,2.844l.016.578A4.418,4.418,0,0,1,48.875-1.02,3.775,3.775,0,0,1,45.961.156a3.793,3.793,0,0,1-2.918-1.172A4.5,4.5,0,0,1,41.953-4.2Zm2.258.16A3.16,3.16,0,0,0,44.664-2.3a1.5,1.5,0,0,0,1.3.638,1.5,1.5,0,0,0,1.281-.63A3.457,3.457,0,0,0,47.7-4.309a3.128,3.128,0,0,0-.461-1.831,1.5,1.5,0,0,0-1.3-.649,1.474,1.474,0,0,0-1.281.646A3.516,3.516,0,0,0,44.211-4.144ZM56.1-6.336a6.134,6.134,0,0,0-.812-.062,1.654,1.654,0,0,0-1.68.867V0H51.352V-8.453h2.133l.063,1.008A2.092,2.092,0,0,1,55.43-8.609a2.366,2.366,0,0,1,.7.1ZM59.57,0H57.3V-8.453H59.57Zm-2.4-10.641a1.112,1.112,0,0,1,.34-.836,1.277,1.277,0,0,1,.926-.328,1.28,1.28,0,0,1,.922.328,1.105,1.105,0,0,1,.344.836,1.108,1.108,0,0,1-.348.844,1.283,1.283,0,0,1-.918.328A1.283,1.283,0,0,1,57.52-9.8,1.108,1.108,0,0,1,57.172-10.641Zm6.852,8.82h4.133V0H61.141V-1.375l3.977-5.258H61.258v-1.82h6.773v1.33ZM74.469,0a2.507,2.507,0,0,1-.227-.758,2.732,2.732,0,0,1-2.133.914,3,3,0,0,1-2.059-.719,2.312,2.312,0,0,1-.816-1.812,2.389,2.389,0,0,1,1-2.062,4.915,4.915,0,0,1,2.879-.727h1.039v-.484a1.393,1.393,0,0,0-.3-.937,1.183,1.183,0,0,0-.949-.352A1.345,1.345,0,0,0,72-6.664a.929.929,0,0,0-.324.75H69.422a2.268,2.268,0,0,1,.453-1.359,3,3,0,0,1,1.281-.98,4.669,4.669,0,0,1,1.859-.355,3.689,3.689,0,0,1,2.48.785,2.747,2.747,0,0,1,.918,2.207v3.664a4.041,4.041,0,0,0,.336,1.82V0ZM72.6-1.57a1.945,1.945,0,0,0,.922-.223,1.462,1.462,0,0,0,.625-.6V-3.844H73.3q-1.7,0-1.8,1.172l-.008.133a.9.9,0,0,0,.3.7A1.153,1.153,0,0,0,72.6-1.57Zm9.063-.094a1.481,1.481,0,0,0,1.016-.344,1.2,1.2,0,0,0,.406-.914H85.2a2.9,2.9,0,0,1-.469,1.574A3.093,3.093,0,0,1,83.473-.238,3.949,3.949,0,0,1,81.7.156,3.67,3.67,0,0,1,78.844-1,4.56,4.56,0,0,1,77.8-4.18v-.148a4.508,4.508,0,0,1,1.039-3.117,3.627,3.627,0,0,1,2.852-1.164,3.555,3.555,0,0,1,2.543.9A3.2,3.2,0,0,1,85.2-5.3H83.086a1.551,1.551,0,0,0-.406-1.072,1.354,1.354,0,0,0-1.031-.412,1.36,1.36,0,0,0-1.191.575,3.333,3.333,0,0,0-.4,1.866v.235a3.375,3.375,0,0,0,.4,1.878A1.377,1.377,0,0,0,81.664-1.664ZM88.875,0H86.609V-8.453h2.266Zm-2.4-10.641a1.112,1.112,0,0,1,.34-.836,1.277,1.277,0,0,1,.926-.328,1.28,1.28,0,0,1,.922.328,1.105,1.105,0,0,1,.344.836,1.108,1.108,0,0,1-.348.844,1.283,1.283,0,0,1-.918.328,1.283,1.283,0,0,1-.918-.328A1.108,1.108,0,0,1,86.477-10.641ZM90.383-4.3a5.013,5.013,0,0,1,.484-2.242A3.546,3.546,0,0,1,92.262-8.07a4.069,4.069,0,0,1,2.113-.539,3.849,3.849,0,0,1,2.793,1.047,4.2,4.2,0,0,1,1.207,2.844l.016.578A4.418,4.418,0,0,1,97.3-1.02,3.775,3.775,0,0,1,94.391.156a3.793,3.793,0,0,1-2.918-1.172A4.5,4.5,0,0,1,90.383-4.2Zm2.258.16A3.16,3.16,0,0,0,93.094-2.3a1.5,1.5,0,0,0,1.3.638,1.5,1.5,0,0,0,1.281-.63,3.457,3.457,0,0,0,.461-2.015,3.128,3.128,0,0,0-.461-1.831,1.5,1.5,0,0,0-1.3-.649,1.474,1.474,0,0,0-1.281.646A3.516,3.516,0,0,0,92.641-4.144ZM94.82-12h2.461L95.117-9.578H93.281Zm7.039,3.547.07.977a2.951,2.951,0,0,1,2.43-1.133,2.453,2.453,0,0,1,2,.789,3.682,3.682,0,0,1,.672,2.359V0h-2.258V-5.419a1.47,1.47,0,0,0-.312-1.045,1.4,1.4,0,0,0-1.039-.325,1.553,1.553,0,0,0-1.43.814V0H99.734V-8.453ZM115.883-3.2l1.563-5.258h2.422l-3.4,9.766-.187.445a2.577,2.577,0,0,1-2.5,1.656,3.552,3.552,0,0,1-1-.148V1.555l.344.008a1.857,1.857,0,0,0,.957-.2,1.283,1.283,0,0,0,.5-.648l.266-.7-2.961-8.477h2.43Zm13.438.859a.727.727,0,0,0-.41-.652,4.659,4.659,0,0,0-1.316-.426q-3.016-.633-3.016-2.562a2.323,2.323,0,0,1,.934-1.879,3.766,3.766,0,0,1,2.441-.754,4.053,4.053,0,0,1,2.574.758,2.388,2.388,0,0,1,.965,1.969h-2.258a1.092,1.092,0,0,0-.312-.8A1.322,1.322,0,0,0,127.945-7a1.351,1.351,0,0,0-.883.258.814.814,0,0,0-.312.656.7.7,0,0,0,.355.605,3.657,3.657,0,0,0,1.2.4,9.8,9.8,0,0,1,1.422.379,2.336,2.336,0,0,1,1.789,2.273,2.205,2.205,0,0,1-.992,1.871,4.28,4.28,0,0,1-2.562.715,4.47,4.47,0,0,1-1.887-.379,3.166,3.166,0,0,1-1.293-1.039,2.414,2.414,0,0,1-.469-1.426h2.141a1.179,1.179,0,0,0,.445.922,1.766,1.766,0,0,0,1.109.32,1.635,1.635,0,0,0,.98-.246A.766.766,0,0,0,129.32-2.336ZM136.859.156a4.15,4.15,0,0,1-3.027-1.141,4.054,4.054,0,0,1-1.168-3.039v-.219a5.106,5.106,0,0,1,.492-2.277,3.612,3.612,0,0,1,1.395-1.547,3.914,3.914,0,0,1,2.059-.543,3.508,3.508,0,0,1,2.73,1.094,4.444,4.444,0,0,1,1,3.1v.922h-5.383a2.1,2.1,0,0,0,.66,1.328,2,2,0,0,0,1.395.5,2.437,2.437,0,0,0,2.039-.945l1.109,1.242a3.389,3.389,0,0,1-1.375,1.121A4.511,4.511,0,0,1,136.859.156ZM136.6-6.789a1.411,1.411,0,0,0-1.09.455,2.357,2.357,0,0,0-.535,1.3h3.141v-.181a1.681,1.681,0,0,0-.406-1.165A1.456,1.456,0,0,0,136.6-6.789Zm4.688,2.5a4.954,4.954,0,0,1,.926-3.133,3,3,0,0,1,2.5-1.187,2.631,2.631,0,0,1,2.164.953l.094-.8h2.047V-.281a3.613,3.613,0,0,1-.5,1.93,3.236,3.236,0,0,1-1.418,1.25,4.985,4.985,0,0,1-2.141.43,4.635,4.635,0,0,1-1.812-.371A3.217,3.217,0,0,1,141.8,2l1-1.375a2.645,2.645,0,0,0,2.047.945,1.936,1.936,0,0,0,1.4-.48,1.8,1.8,0,0,0,.5-1.363V-.727A2.612,2.612,0,0,1,144.7.156a2.992,2.992,0,0,1-2.465-1.191,4.953,4.953,0,0,1-.941-3.16Zm2.258.161a3.1,3.1,0,0,0,.461,1.809,1.465,1.465,0,0,0,1.266.655,1.567,1.567,0,0,0,1.477-.777V-6.012a1.563,1.563,0,0,0-1.461-.777,1.474,1.474,0,0,0-1.277.667A3.5,3.5,0,0,0,143.547-4.128ZM155.813-.859A2.831,2.831,0,0,1,153.5.156a2.67,2.67,0,0,1-2.074-.781,3.335,3.335,0,0,1-.73-2.289V-8.453h2.258v5.467q0,1.322,1.2,1.322a1.63,1.63,0,0,0,1.578-.8V-8.453H158V0h-2.125ZM162.086,0H159.82V-8.453h2.266Zm-2.4-10.641a1.112,1.112,0,0,1,.34-.836,1.277,1.277,0,0,1,.926-.328,1.28,1.28,0,0,1,.922.328,1.105,1.105,0,0,1,.344.836,1.109,1.109,0,0,1-.348.844,1.283,1.283,0,0,1-.918.328,1.283,1.283,0,0,1-.918-.328A1.109,1.109,0,0,1,159.688-10.641Zm6.375,2.188.07.945a2.971,2.971,0,0,1,2.43-1.1A2.255,2.255,0,0,1,170.8-7.32a2.9,2.9,0,0,1,2.539-1.289,2.521,2.521,0,0,1,2.047.8,3.681,3.681,0,0,1,.672,2.41V0H173.8V-5.4a1.616,1.616,0,0,0-.281-1.053,1.245,1.245,0,0,0-.992-.333,1.409,1.409,0,0,0-1.406.971L171.125,0h-2.258V-5.4a1.6,1.6,0,0,0-.289-1.065,1.257,1.257,0,0,0-.984-.329,1.463,1.463,0,0,0-1.391.8V0h-2.258V-8.453ZM180.18,0h-2.266V-8.453h2.266Zm-2.4-10.641a1.112,1.112,0,0,1,.34-.836,1.277,1.277,0,0,1,.926-.328,1.28,1.28,0,0,1,.922.328,1.105,1.105,0,0,1,.344.836,1.109,1.109,0,0,1-.348.844,1.283,1.283,0,0,1-.918.328,1.283,1.283,0,0,1-.918-.328A1.109,1.109,0,0,1,177.781-10.641ZM185.93.156A4.15,4.15,0,0,1,182.9-.984a4.054,4.054,0,0,1-1.168-3.039v-.219a5.106,5.106,0,0,1,.492-2.277,3.612,3.612,0,0,1,1.395-1.547,3.914,3.914,0,0,1,2.059-.543,3.508,3.508,0,0,1,2.73,1.094,4.444,4.444,0,0,1,1,3.1v.922h-5.383a2.1,2.1,0,0,0,.66,1.328,2,2,0,0,0,1.395.5,2.437,2.437,0,0,0,2.039-.945l1.109,1.242a3.389,3.389,0,0,1-1.375,1.121A4.511,4.511,0,0,1,185.93.156Zm-.258-6.945a1.411,1.411,0,0,0-1.09.455,2.357,2.357,0,0,0-.535,1.3h3.141v-.181a1.681,1.681,0,0,0-.406-1.165A1.456,1.456,0,0,0,185.672-6.789Zm7.094-1.664.07.977a2.951,2.951,0,0,1,2.43-1.133,2.453,2.453,0,0,1,2,.789,3.682,3.682,0,0,1,.672,2.359V0H195.68V-5.419a1.47,1.47,0,0,0-.312-1.045,1.4,1.4,0,0,0-1.039-.325,1.553,1.553,0,0,0-1.43.814V0h-2.258V-8.453Zm9.586-2.078v2.078H203.8V-6.8h-1.445v4.219a1.007,1.007,0,0,0,.18.672.9.9,0,0,0,.688.2,3.6,3.6,0,0,0,.664-.055V-.047a4.648,4.648,0,0,1-1.367.2,2.156,2.156,0,0,1-2.422-2.4V-6.8h-1.234V-8.453h1.234v-2.078ZM204.469-4.3a5.013,5.013,0,0,1,.484-2.242,3.546,3.546,0,0,1,1.395-1.523,4.069,4.069,0,0,1,2.113-.539,3.849,3.849,0,0,1,2.793,1.047,4.2,4.2,0,0,1,1.207,2.844l.016.578a4.418,4.418,0,0,1-1.086,3.121A3.775,3.775,0,0,1,208.477.156a3.793,3.793,0,0,1-2.918-1.172,4.5,4.5,0,0,1-1.09-3.187Zm2.258.16A3.16,3.16,0,0,0,207.18-2.3a1.5,1.5,0,0,0,1.3.638,1.5,1.5,0,0,0,1.281-.63,3.457,3.457,0,0,0,.461-2.015,3.128,3.128,0,0,0-.461-1.831,1.5,1.5,0,0,0-1.3-.649,1.474,1.474,0,0,0-1.281.646A3.516,3.516,0,0,0,206.727-4.144Z" transform="translate(609.633 4647.982)" fill="#12263f"/>
      <path id="Trazado_199879" data-name="Trazado 199879" d="M9.945-3.789A4.025,4.025,0,0,1,8.59-.9,4.76,4.76,0,0,1,5.367.156,4.28,4.28,0,0,1,1.926-1.316,6.038,6.038,0,0,1,.672-5.359v-.7A6.819,6.819,0,0,1,1.25-8.945,4.332,4.332,0,0,1,2.9-10.863a4.629,4.629,0,0,1,2.5-.668A4.637,4.637,0,0,1,8.57-10.477,4.326,4.326,0,0,1,9.961-7.516H7.617A2.376,2.376,0,0,0,7-9.113a2.271,2.271,0,0,0-1.605-.5,1.991,1.991,0,0,0-1.754.84,4.707,4.707,0,0,0-.6,2.605V-5.3a5.038,5.038,0,0,0,.559,2.7,1.954,1.954,0,0,0,1.762.852,2.314,2.314,0,0,0,1.621-.5A2.241,2.241,0,0,0,7.6-3.789ZM11.484,0V-11.375h3.5a5.315,5.315,0,0,1,2.684.676,4.712,4.712,0,0,1,1.848,1.922,5.928,5.928,0,0,1,.664,2.832v.523a5.945,5.945,0,0,1-.652,2.82,4.672,4.672,0,0,1-1.84,1.914A5.355,5.355,0,0,1,15.008,0Zm2.344-9.477v7.594h1.133a2.545,2.545,0,0,0,2.1-.9,4.06,4.06,0,0,0,.742-2.57v-.6a4.124,4.124,0,0,0-.719-2.629,2.537,2.537,0,0,0-2.1-.895Zm11.117-1.9,2.922,8.25,2.906-8.25h3.078V0H31.5V-3.109l.234-5.367L28.664,0H27.055L23.992-8.469l.234,5.359V0H21.883V-11.375ZM35.9,0V-11.375h3.984a5.232,5.232,0,0,1,3.141.793,2.712,2.712,0,0,1,1.07,2.324,2.57,2.57,0,0,1-.43,1.473,2.482,2.482,0,0,1-1.2.934,2.4,2.4,0,0,1,1.379.883,2.61,2.61,0,0,1,.5,1.625A3,3,0,0,1,43.3-.859,4.713,4.713,0,0,1,40.32,0Zm2.344-4.953v3.07H40.25a1.938,1.938,0,0,0,1.293-.395,1.353,1.353,0,0,0,.465-1.09,1.428,1.428,0,0,0-1.617-1.586Zm0-1.656h1.734q1.773-.031,1.773-1.414A1.307,1.307,0,0,0,41.3-9.137a2.363,2.363,0,0,0-1.418-.34H38.242Z" transform="translate(383.633 4647.982)" fill="#12263f"/>
      <path id="Trazado_199807" data-name="Trazado 199807" d="M771.57,5093.447v-33.99H761.555l18.331-17.268,16.822,17.268H786.661v33.99h10.047L779.886,5108.5l-18.331-15.055Z" transform="translate(-50.771 -490.733)" fill="#2ec49f" stroke="#1565c0" stroke-width="2"/>
      <path id="Trazado_199820" data-name="Trazado 199820" d="M771.57,5093.447v-83.99H761.555l18.331-17.268,16.822,17.268H786.661v83.99h10.047L779.886,5108.5l-18.331-15.055Z" transform="translate(-4528.636 5423.537) rotate(-90)" fill="#2ec49f" stroke="#1565c0" stroke-width="2"/>
      <path id="Trazado_199918" data-name="Trazado 199918" d="M-34.826-4.424H-36.81V0H-39.3V-12.086h4.491a5.076,5.076,0,0,1,3.3.955,3.3,3.3,0,0,1,1.162,2.7,3.718,3.718,0,0,1-.535,2.063A3.651,3.651,0,0,1-32.5-5.055l2.615,4.939V0H-32.56ZM-36.81-6.441H-34.8a2.057,2.057,0,0,0,1.453-.477,1.706,1.706,0,0,0,.515-1.316,1.826,1.826,0,0,0-.486-1.345,2.018,2.018,0,0,0-1.49-.49h-2ZM-24.475.166a4.409,4.409,0,0,1-3.217-1.212,4.308,4.308,0,0,1-1.241-3.229v-.232a5.426,5.426,0,0,1,.523-2.42,3.838,3.838,0,0,1,1.482-1.644,4.159,4.159,0,0,1,2.187-.577,3.727,3.727,0,0,1,2.9,1.162,4.722,4.722,0,0,1,1.058,3.3v.979H-26.5A2.229,2.229,0,0,0-25.8-2.3a2.12,2.12,0,0,0,1.482.531,2.589,2.589,0,0,0,2.167-1l1.179,1.32A3.6,3.6,0,0,1-22.433-.261,4.793,4.793,0,0,1-24.475.166Zm-.274-7.379a1.5,1.5,0,0,0-1.158.484,2.5,2.5,0,0,0-.569,1.384h3.337v-.192a1.786,1.786,0,0,0-.432-1.238A1.547,1.547,0,0,0-24.749-7.213Zm4.956,2.64a5.369,5.369,0,0,1,.942-3.345,3.08,3.08,0,0,1,2.586-1.229,2.758,2.758,0,0,1,2.3,1.1l.158-.938H-11.7V3.453h-2.407V-.772a2.765,2.765,0,0,1-2.175.938,3.057,3.057,0,0,1-2.557-1.245A5.632,5.632,0,0,1-19.793-4.574Zm2.4.17a3.522,3.522,0,0,0,.452,1.962,1.448,1.448,0,0,0,1.274.673,1.613,1.613,0,0,0,1.561-.881V-6.365a1.6,1.6,0,0,0-1.544-.848,1.466,1.466,0,0,0-1.287.673A3.889,3.889,0,0,0-17.394-4.4ZM-4.437-.913A3.008,3.008,0,0,1-6.894.166a2.837,2.837,0,0,1-2.2-.83A3.543,3.543,0,0,1-9.874-3.1V-8.981h2.4v5.809q0,1.4,1.278,1.4A1.732,1.732,0,0,0-4.52-2.616V-8.981h2.407V0H-4.37ZM2.229,0H-.178V-8.981H2.229ZM-.32-11.306a1.181,1.181,0,0,1,.361-.888,1.356,1.356,0,0,1,.984-.349A1.36,1.36,0,0,1,2-12.194a1.175,1.175,0,0,1,.365.888,1.178,1.178,0,0,1-.369.9,1.363,1.363,0,0,1-.975.349,1.363,1.363,0,0,1-.975-.349A1.178,1.178,0,0,1-.32-11.306ZM9.069-2.482a.773.773,0,0,0-.436-.693,4.95,4.95,0,0,0-1.4-.452Q4.03-4.3,4.03-6.35a2.468,2.468,0,0,1,.992-2,4,4,0,0,1,2.594-.8,4.307,4.307,0,0,1,2.735.805A2.538,2.538,0,0,1,11.376-6.25h-2.4A1.161,1.161,0,0,0,8.645-7.1a1.405,1.405,0,0,0-1.038-.336,1.436,1.436,0,0,0-.938.274.865.865,0,0,0-.332.7.739.739,0,0,0,.378.643A3.885,3.885,0,0,0,7.99-5.4,10.407,10.407,0,0,1,9.5-5a2.482,2.482,0,0,1,1.9,2.416A2.343,2.343,0,0,1,10.347-.594a4.548,4.548,0,0,1-2.723.76,4.75,4.75,0,0,1-2-.4,3.363,3.363,0,0,1-1.374-1.1,2.565,2.565,0,0,1-.5-1.515H6.022a1.252,1.252,0,0,0,.473.979,1.877,1.877,0,0,0,1.179.34A1.737,1.737,0,0,0,8.716-1.8.814.814,0,0,0,9.069-2.482ZM15.477,0H13.07V-8.981h2.407ZM12.928-11.306a1.181,1.181,0,0,1,.361-.888,1.356,1.356,0,0,1,.984-.349,1.36,1.36,0,0,1,.979.349,1.175,1.175,0,0,1,.365.888,1.178,1.178,0,0,1-.369.9,1.363,1.363,0,0,1-.975.349,1.363,1.363,0,0,1-.975-.349A1.178,1.178,0,0,1,12.928-11.306Zm7.4.116v2.208H21.86v1.76H20.324v4.482a1.07,1.07,0,0,0,.191.714.959.959,0,0,0,.73.216,3.826,3.826,0,0,0,.706-.058V-.05A4.939,4.939,0,0,1,20.5.166a2.29,2.29,0,0,1-2.573-2.548V-7.222H16.614v-1.76h1.312v-2.208Zm2.25,6.616a5.327,5.327,0,0,1,.515-2.382A3.768,3.768,0,0,1,24.57-8.575a4.323,4.323,0,0,1,2.245-.573,4.09,4.09,0,0,1,2.968,1.112,4.464,4.464,0,0,1,1.282,3.021l.017.614a4.694,4.694,0,0,1-1.154,3.316,4.011,4.011,0,0,1-3.1,1.249,4.031,4.031,0,0,1-3.1-1.245,4.777,4.777,0,0,1-1.158-3.387Zm2.4.17a3.357,3.357,0,0,0,.481,1.958,1.588,1.588,0,0,0,1.378.678,1.592,1.592,0,0,0,1.361-.669,3.674,3.674,0,0,0,.49-2.141,3.324,3.324,0,0,0-.49-1.945,1.592,1.592,0,0,0-1.378-.69,1.566,1.566,0,0,0-1.361.686A3.735,3.735,0,0,0,24.973-4.4ZM37.424-2.482a.773.773,0,0,0-.436-.693,4.95,4.95,0,0,0-1.4-.452q-3.2-.672-3.2-2.723a2.468,2.468,0,0,1,.992-2,4,4,0,0,1,2.594-.8,4.307,4.307,0,0,1,2.735.805A2.538,2.538,0,0,1,39.732-6.25h-2.4A1.161,1.161,0,0,0,37-7.1a1.405,1.405,0,0,0-1.038-.336,1.436,1.436,0,0,0-.938.274.865.865,0,0,0-.332.7.739.739,0,0,0,.378.643,3.885,3.885,0,0,0,1.274.423,10.407,10.407,0,0,1,1.511.4,2.482,2.482,0,0,1,1.9,2.416A2.343,2.343,0,0,1,38.7-.594a4.548,4.548,0,0,1-2.723.76,4.75,4.75,0,0,1-2-.4,3.363,3.363,0,0,1-1.374-1.1,2.565,2.565,0,0,1-.5-1.515h2.274a1.252,1.252,0,0,0,.473.979,1.877,1.877,0,0,0,1.179.34A1.737,1.737,0,0,0,37.071-1.8.814.814,0,0,0,37.424-2.482Z" transform="translate(499.676 4436)" fill="#fff"/>
      <path id="Trazado_199917" data-name="Trazado 199917" d="M-46.152-4.258V0h-2.49V-12.086h4.715a5.455,5.455,0,0,1,2.395.5,3.67,3.67,0,0,1,1.59,1.415,3.946,3.946,0,0,1,.556,2.088,3.47,3.47,0,0,1-1.216,2.8,5.065,5.065,0,0,1-3.366,1.025Zm0-2.017h2.225a2.187,2.187,0,0,0,1.507-.465A1.691,1.691,0,0,0-41.9-8.068,1.994,1.994,0,0,0-42.425-9.5a1.953,1.953,0,0,0-1.444-.564h-2.283ZM-35.3,0H-37.71V-12.75H-35.3Zm7.18,0a2.664,2.664,0,0,1-.241-.805A2.9,2.9,0,0,1-30.63.166,3.189,3.189,0,0,1-32.817-.6a2.456,2.456,0,0,1-.867-1.926,2.538,2.538,0,0,1,1.058-2.191,5.222,5.222,0,0,1,3.059-.772h1.1V-6a1.48,1.48,0,0,0-.32-1,1.257,1.257,0,0,0-1.009-.374,1.429,1.429,0,0,0-.95.291.987.987,0,0,0-.344.8h-2.4A2.41,2.41,0,0,1-33-7.728,3.182,3.182,0,0,1-31.643-8.77a4.961,4.961,0,0,1,1.976-.378,3.92,3.92,0,0,1,2.635.834,2.918,2.918,0,0,1,.975,2.345v3.893A4.294,4.294,0,0,0-25.7-.141V0Zm-1.984-1.668a2.066,2.066,0,0,0,.979-.237,1.554,1.554,0,0,0,.664-.635V-4.084h-.9q-1.8,0-1.917,1.245l-.008.141a.96.96,0,0,0,.315.739A1.225,1.225,0,0,0-30.107-1.668Zm8.1-7.313.075,1.038a3.136,3.136,0,0,1,2.582-1.2,2.606,2.606,0,0,1,2.125.838A3.912,3.912,0,0,1-16.51-5.8V0h-2.4V-5.757a1.562,1.562,0,0,0-.332-1.111,1.484,1.484,0,0,0-1.1-.345,1.65,1.65,0,0,0-1.519.865V0h-2.4V-8.981ZM-12.161,0h-2.407V-8.981h2.407Zm-2.548-11.306a1.181,1.181,0,0,1,.361-.888,1.356,1.356,0,0,1,.984-.349,1.36,1.36,0,0,1,.979.349,1.175,1.175,0,0,1,.365.888,1.178,1.178,0,0,1-.369.9,1.363,1.363,0,0,1-.975.349,1.363,1.363,0,0,1-.975-.349A1.178,1.178,0,0,1-14.709-11.306ZM-9.6,0V-7.222H-10.94v-1.76H-9.6V-9.4a3.368,3.368,0,0,1,1.042-2.611,4.191,4.191,0,0,1,2.893-.917,9.6,9.6,0,0,1,2.723.49L-3.3-10.451a10.623,10.623,0,0,0-1.262-.311,6.2,6.2,0,0,0-.963-.071q-1.677,0-1.677,1.486v.365h1.768v1.76H-7.2V0Zm7.778,0H-4.233V-8.981h2.407ZM3.893-1.768a1.573,1.573,0,0,0,1.079-.365A1.28,1.28,0,0,0,5.4-3.1h2.25a3.077,3.077,0,0,1-.5,1.673A3.286,3.286,0,0,1,5.815-.253a4.2,4.2,0,0,1-1.88.419A3.9,3.9,0,0,1,.9-1.058,4.845,4.845,0,0,1-.216-4.441V-4.6a4.79,4.79,0,0,1,1.1-3.312,3.854,3.854,0,0,1,3.03-1.237,3.778,3.778,0,0,1,2.7.959A3.4,3.4,0,0,1,7.653-5.636H5.4a1.648,1.648,0,0,0-.432-1.139,1.439,1.439,0,0,0-1.1-.438A1.445,1.445,0,0,0,2.611-6.6,3.541,3.541,0,0,0,2.183-4.62v.249a3.586,3.586,0,0,0,.423,2A1.463,1.463,0,0,0,3.893-1.768ZM14.228,0a2.664,2.664,0,0,1-.241-.805,2.9,2.9,0,0,1-2.266.971A3.189,3.189,0,0,1,9.533-.6a2.456,2.456,0,0,1-.867-1.926A2.538,2.538,0,0,1,9.724-4.715a5.222,5.222,0,0,1,3.059-.772h1.1V-6a1.48,1.48,0,0,0-.32-1,1.257,1.257,0,0,0-1.009-.374,1.429,1.429,0,0,0-.95.291.987.987,0,0,0-.344.8h-2.4a2.41,2.41,0,0,1,.481-1.444A3.182,3.182,0,0,1,10.708-8.77a4.961,4.961,0,0,1,1.976-.378,3.92,3.92,0,0,1,2.635.834,2.918,2.918,0,0,1,.975,2.345v3.893a4.294,4.294,0,0,0,.357,1.934V0ZM12.244-1.668a2.066,2.066,0,0,0,.979-.237,1.554,1.554,0,0,0,.664-.635V-4.084h-.9q-1.8,0-1.917,1.245l-.008.141a.96.96,0,0,0,.315.739A1.225,1.225,0,0,0,12.244-1.668Zm9.629-.1a1.573,1.573,0,0,0,1.079-.365,1.28,1.28,0,0,0,.432-.971h2.25a3.077,3.077,0,0,1-.5,1.673A3.286,3.286,0,0,1,23.794-.253a4.2,4.2,0,0,1-1.88.419,3.9,3.9,0,0,1-3.038-1.224,4.845,4.845,0,0,1-1.112-3.383V-4.6a4.79,4.79,0,0,1,1.1-3.312A3.854,3.854,0,0,1,21.9-9.147a3.778,3.778,0,0,1,2.7.959,3.4,3.4,0,0,1,1.033,2.552h-2.25a1.648,1.648,0,0,0-.432-1.139,1.439,1.439,0,0,0-1.1-.438A1.445,1.445,0,0,0,20.59-6.6a3.541,3.541,0,0,0-.427,1.983v.249a3.586,3.586,0,0,0,.423,2A1.463,1.463,0,0,0,21.873-1.768ZM29.534,0H27.127V-8.981h2.407ZM26.986-11.306a1.181,1.181,0,0,1,.361-.888,1.356,1.356,0,0,1,.984-.349,1.36,1.36,0,0,1,.979.349,1.175,1.175,0,0,1,.365.888,1.178,1.178,0,0,1-.369.9,1.363,1.363,0,0,1-.975.349,1.363,1.363,0,0,1-.975-.349A1.178,1.178,0,0,1,26.986-11.306Zm4.15,6.732a5.327,5.327,0,0,1,.515-2.382,3.768,3.768,0,0,1,1.482-1.619,4.323,4.323,0,0,1,2.245-.573,4.09,4.09,0,0,1,2.968,1.112,4.464,4.464,0,0,1,1.282,3.021l.017.614a4.694,4.694,0,0,1-1.154,3.316,4.011,4.011,0,0,1-3.1,1.249,4.031,4.031,0,0,1-3.1-1.245,4.777,4.777,0,0,1-1.158-3.387Zm2.4.17a3.357,3.357,0,0,0,.481,1.958,1.588,1.588,0,0,0,1.378.678,1.592,1.592,0,0,0,1.361-.669,3.674,3.674,0,0,0,.49-2.141,3.324,3.324,0,0,0-.49-1.945,1.592,1.592,0,0,0-1.378-.69,1.566,1.566,0,0,0-1.361.686A3.735,3.735,0,0,0,33.535-4.4Zm2.316-8.347h2.615l-2.3,2.573H34.216ZM43.33-8.981,43.4-7.944a3.136,3.136,0,0,1,2.582-1.2,2.606,2.606,0,0,1,2.125.838A3.912,3.912,0,0,1,48.825-5.8V0h-2.4V-5.757a1.562,1.562,0,0,0-.332-1.111,1.484,1.484,0,0,0-1.1-.345,1.65,1.65,0,0,0-1.519.865V0h-2.4V-8.981Z" transform="translate(625.676 4437)" fill="#fff"/>
      <path id="Trazado_199919" data-name="Trazado 199919" d="M-46.152-4.258V0h-2.49V-12.086h4.715a5.455,5.455,0,0,1,2.395.5,3.67,3.67,0,0,1,1.59,1.415,3.946,3.946,0,0,1,.556,2.088,3.47,3.47,0,0,1-1.216,2.8,5.065,5.065,0,0,1-3.366,1.025Zm0-2.017h2.225a2.187,2.187,0,0,0,1.507-.465A1.691,1.691,0,0,0-41.9-8.068,1.994,1.994,0,0,0-42.425-9.5a1.953,1.953,0,0,0-1.444-.564h-2.283ZM-35.3,0H-37.71V-12.75H-35.3Zm7.18,0a2.664,2.664,0,0,1-.241-.805A2.9,2.9,0,0,1-30.63.166,3.189,3.189,0,0,1-32.817-.6a2.456,2.456,0,0,1-.867-1.926,2.538,2.538,0,0,1,1.058-2.191,5.222,5.222,0,0,1,3.059-.772h1.1V-6a1.48,1.48,0,0,0-.32-1,1.257,1.257,0,0,0-1.009-.374,1.429,1.429,0,0,0-.95.291.987.987,0,0,0-.344.8h-2.4A2.41,2.41,0,0,1-33-7.728,3.182,3.182,0,0,1-31.643-8.77a4.961,4.961,0,0,1,1.976-.378,3.92,3.92,0,0,1,2.635.834,2.918,2.918,0,0,1,.975,2.345v3.893A4.294,4.294,0,0,0-25.7-.141V0Zm-1.984-1.668a2.066,2.066,0,0,0,.979-.237,1.554,1.554,0,0,0,.664-.635V-4.084h-.9q-1.8,0-1.917,1.245l-.008.141a.96.96,0,0,0,.315.739A1.225,1.225,0,0,0-30.107-1.668Zm8.1-7.313.075,1.038a3.136,3.136,0,0,1,2.582-1.2,2.606,2.606,0,0,1,2.125.838A3.912,3.912,0,0,1-16.51-5.8V0h-2.4V-5.757a1.562,1.562,0,0,0-.332-1.111,1.484,1.484,0,0,0-1.1-.345,1.65,1.65,0,0,0-1.519.865V0h-2.4V-8.981ZM-12.161,0h-2.407V-8.981h2.407Zm-2.548-11.306a1.181,1.181,0,0,1,.361-.888,1.356,1.356,0,0,1,.984-.349,1.36,1.36,0,0,1,.979.349,1.175,1.175,0,0,1,.365.888,1.178,1.178,0,0,1-.369.9,1.363,1.363,0,0,1-.975.349,1.363,1.363,0,0,1-.975-.349A1.178,1.178,0,0,1-14.709-11.306ZM-9.6,0V-7.222H-10.94v-1.76H-9.6V-9.4a3.368,3.368,0,0,1,1.042-2.611,4.191,4.191,0,0,1,2.893-.917,9.6,9.6,0,0,1,2.723.49L-3.3-10.451a10.623,10.623,0,0,0-1.262-.311,6.2,6.2,0,0,0-.963-.071q-1.677,0-1.677,1.486v.365h1.768v1.76H-7.2V0Zm7.778,0H-4.233V-8.981h2.407ZM3.893-1.768a1.573,1.573,0,0,0,1.079-.365A1.28,1.28,0,0,0,5.4-3.1h2.25a3.077,3.077,0,0,1-.5,1.673A3.286,3.286,0,0,1,5.815-.253a4.2,4.2,0,0,1-1.88.419A3.9,3.9,0,0,1,.9-1.058,4.845,4.845,0,0,1-.216-4.441V-4.6a4.79,4.79,0,0,1,1.1-3.312,3.854,3.854,0,0,1,3.03-1.237,3.778,3.778,0,0,1,2.7.959A3.4,3.4,0,0,1,7.653-5.636H5.4a1.648,1.648,0,0,0-.432-1.139,1.439,1.439,0,0,0-1.1-.438A1.445,1.445,0,0,0,2.611-6.6,3.541,3.541,0,0,0,2.183-4.62v.249a3.586,3.586,0,0,0,.423,2A1.463,1.463,0,0,0,3.893-1.768ZM14.228,0a2.664,2.664,0,0,1-.241-.805,2.9,2.9,0,0,1-2.266.971A3.189,3.189,0,0,1,9.533-.6a2.456,2.456,0,0,1-.867-1.926A2.538,2.538,0,0,1,9.724-4.715a5.222,5.222,0,0,1,3.059-.772h1.1V-6a1.48,1.48,0,0,0-.32-1,1.257,1.257,0,0,0-1.009-.374,1.429,1.429,0,0,0-.95.291.987.987,0,0,0-.344.8h-2.4a2.41,2.41,0,0,1,.481-1.444A3.182,3.182,0,0,1,10.708-8.77a4.961,4.961,0,0,1,1.976-.378,3.92,3.92,0,0,1,2.635.834,2.918,2.918,0,0,1,.975,2.345v3.893a4.294,4.294,0,0,0,.357,1.934V0ZM12.244-1.668a2.066,2.066,0,0,0,.979-.237,1.554,1.554,0,0,0,.664-.635V-4.084h-.9q-1.8,0-1.917,1.245l-.008.141a.96.96,0,0,0,.315.739A1.225,1.225,0,0,0,12.244-1.668Zm9.629-.1a1.573,1.573,0,0,0,1.079-.365,1.28,1.28,0,0,0,.432-.971h2.25a3.077,3.077,0,0,1-.5,1.673A3.286,3.286,0,0,1,23.794-.253a4.2,4.2,0,0,1-1.88.419,3.9,3.9,0,0,1-3.038-1.224,4.845,4.845,0,0,1-1.112-3.383V-4.6a4.79,4.79,0,0,1,1.1-3.312A3.854,3.854,0,0,1,21.9-9.147a3.778,3.778,0,0,1,2.7.959,3.4,3.4,0,0,1,1.033,2.552h-2.25a1.648,1.648,0,0,0-.432-1.139,1.439,1.439,0,0,0-1.1-.438A1.445,1.445,0,0,0,20.59-6.6a3.541,3.541,0,0,0-.427,1.983v.249a3.586,3.586,0,0,0,.423,2A1.463,1.463,0,0,0,21.873-1.768ZM29.534,0H27.127V-8.981h2.407ZM26.986-11.306a1.181,1.181,0,0,1,.361-.888,1.356,1.356,0,0,1,.984-.349,1.36,1.36,0,0,1,.979.349,1.175,1.175,0,0,1,.365.888,1.178,1.178,0,0,1-.369.9,1.363,1.363,0,0,1-.975.349,1.363,1.363,0,0,1-.975-.349A1.178,1.178,0,0,1,26.986-11.306Zm4.15,6.732a5.327,5.327,0,0,1,.515-2.382,3.768,3.768,0,0,1,1.482-1.619,4.323,4.323,0,0,1,2.245-.573,4.09,4.09,0,0,1,2.968,1.112,4.464,4.464,0,0,1,1.282,3.021l.017.614a4.694,4.694,0,0,1-1.154,3.316,4.011,4.011,0,0,1-3.1,1.249,4.031,4.031,0,0,1-3.1-1.245,4.777,4.777,0,0,1-1.158-3.387Zm2.4.17a3.357,3.357,0,0,0,.481,1.958,1.588,1.588,0,0,0,1.378.678,1.592,1.592,0,0,0,1.361-.669,3.674,3.674,0,0,0,.49-2.141,3.324,3.324,0,0,0-.49-1.945,1.592,1.592,0,0,0-1.378-.69,1.566,1.566,0,0,0-1.361.686A3.735,3.735,0,0,0,33.535-4.4Zm2.316-8.347h2.615l-2.3,2.573H34.216ZM43.33-8.981,43.4-7.944a3.136,3.136,0,0,1,2.582-1.2,2.606,2.606,0,0,1,2.125.838A3.912,3.912,0,0,1,48.825-5.8V0h-2.4V-5.757a1.562,1.562,0,0,0-.332-1.111,1.484,1.484,0,0,0-1.1-.345,1.65,1.65,0,0,0-1.519.865V0h-2.4V-8.981Z" transform="translate(890.676 4437)" fill="#12263f"/>
      <path id="Trazado_199920" data-name="Trazado 199920" d="M-52.976-12.086l3.1,8.766,3.088-8.766h3.271V0h-2.5V-3.3l.249-5.7L-49.024,0h-1.71l-3.254-9,.249,5.694V0h-2.49V-12.086Zm11.106,7.512a5.327,5.327,0,0,1,.515-2.382,3.767,3.767,0,0,1,1.482-1.619,4.323,4.323,0,0,1,2.245-.573A4.09,4.09,0,0,1-34.66-8.035a4.464,4.464,0,0,1,1.282,3.021l.017.614a4.694,4.694,0,0,1-1.154,3.316,4.011,4.011,0,0,1-3.1,1.249,4.031,4.031,0,0,1-3.1-1.245,4.777,4.777,0,0,1-1.158-3.387Zm2.4.17a3.357,3.357,0,0,0,.481,1.958,1.588,1.588,0,0,0,1.378.678,1.592,1.592,0,0,0,1.361-.669,3.674,3.674,0,0,0,.49-2.141,3.324,3.324,0,0,0-.49-1.945,1.592,1.592,0,0,0-1.378-.69,1.566,1.566,0,0,0-1.361.686A3.735,3.735,0,0,0-39.47-4.4Zm9.795-4.578.075,1.038a3.136,3.136,0,0,1,2.582-1.2,2.606,2.606,0,0,1,2.125.838A3.912,3.912,0,0,1-24.18-5.8V0h-2.4V-5.757a1.562,1.562,0,0,0-.332-1.111,1.484,1.484,0,0,0-1.1-.345,1.65,1.65,0,0,0-1.519.865V0h-2.4V-8.981ZM-19.831,0h-2.407V-8.981h2.407Zm-2.548-11.306a1.181,1.181,0,0,1,.361-.888,1.356,1.356,0,0,1,.984-.349,1.36,1.36,0,0,1,.979.349,1.175,1.175,0,0,1,.365.888,1.178,1.178,0,0,1-.369.9,1.363,1.363,0,0,1-.975.349,1.363,1.363,0,0,1-.975-.349A1.178,1.178,0,0,1-22.379-11.306Zm7.4.116v2.208h1.536v1.76h-1.536v4.482a1.07,1.07,0,0,0,.191.714.959.959,0,0,0,.73.216,3.826,3.826,0,0,0,.706-.058V-.05a4.939,4.939,0,0,1-1.453.216,2.29,2.29,0,0,1-2.573-2.548V-7.222h-1.312v-1.76h1.312v-2.208Zm2.25,6.616a5.327,5.327,0,0,1,.515-2.382,3.768,3.768,0,0,1,1.482-1.619,4.323,4.323,0,0,1,2.245-.573A4.09,4.09,0,0,1-5.524-8.035,4.464,4.464,0,0,1-4.242-5.014l.017.614A4.694,4.694,0,0,1-5.379-1.083,4.011,4.011,0,0,1-8.475.166a4.031,4.031,0,0,1-3.1-1.245,4.777,4.777,0,0,1-1.158-3.387Zm2.4.17a3.357,3.357,0,0,0,.481,1.958,1.588,1.588,0,0,0,1.378.678,1.592,1.592,0,0,0,1.361-.669,3.674,3.674,0,0,0,.49-2.141,3.324,3.324,0,0,0-.49-1.945,1.592,1.592,0,0,0-1.378-.69,1.566,1.566,0,0,0-1.361.686A3.735,3.735,0,0,0-10.334-4.4ZM2.3-6.732A6.517,6.517,0,0,0,1.436-6.8a1.757,1.757,0,0,0-1.785.921V0h-2.4V-8.981H-.481l.066,1.071a2.223,2.223,0,0,1,2-1.237,2.514,2.514,0,0,1,.747.108ZM5.985,0H3.578V-8.981H5.985ZM3.437-11.306a1.181,1.181,0,0,1,.361-.888,1.356,1.356,0,0,1,.984-.349,1.36,1.36,0,0,1,.979.349,1.175,1.175,0,0,1,.365.888,1.178,1.178,0,0,1-.369.9,1.363,1.363,0,0,1-.975.349,1.363,1.363,0,0,1-.975-.349A1.178,1.178,0,0,1,3.437-11.306Zm7.28,9.372h4.391V0H7.653V-1.461l4.225-5.586h-4.1V-8.981h7.2v1.413ZM21.814,0a2.664,2.664,0,0,1-.241-.805,2.9,2.9,0,0,1-2.266.971A3.189,3.189,0,0,1,17.12-.6a2.456,2.456,0,0,1-.867-1.926,2.538,2.538,0,0,1,1.058-2.191,5.222,5.222,0,0,1,3.059-.772h1.1V-6a1.48,1.48,0,0,0-.32-1,1.257,1.257,0,0,0-1.009-.374,1.429,1.429,0,0,0-.95.291.987.987,0,0,0-.344.8h-2.4a2.41,2.41,0,0,1,.481-1.444A3.182,3.182,0,0,1,18.295-8.77a4.961,4.961,0,0,1,1.976-.378,3.92,3.92,0,0,1,2.635.834,2.918,2.918,0,0,1,.975,2.345v3.893a4.294,4.294,0,0,0,.357,1.934V0ZM19.831-1.668a2.066,2.066,0,0,0,.979-.237,1.554,1.554,0,0,0,.664-.635V-4.084h-.9q-1.8,0-1.917,1.245l-.008.141a.96.96,0,0,0,.315.739A1.225,1.225,0,0,0,19.831-1.668Zm9.629-.1a1.573,1.573,0,0,0,1.079-.365A1.28,1.28,0,0,0,30.97-3.1h2.25a3.077,3.077,0,0,1-.5,1.673A3.286,3.286,0,0,1,31.381-.253,4.2,4.2,0,0,1,29.5.166a3.9,3.9,0,0,1-3.038-1.224,4.845,4.845,0,0,1-1.112-3.383V-4.6a4.79,4.79,0,0,1,1.1-3.312,3.854,3.854,0,0,1,3.03-1.237,3.778,3.778,0,0,1,2.7.959A3.4,3.4,0,0,1,33.22-5.636H30.97a1.648,1.648,0,0,0-.432-1.139,1.439,1.439,0,0,0-1.1-.438,1.445,1.445,0,0,0-1.266.611A3.541,3.541,0,0,0,27.75-4.62v.249a3.586,3.586,0,0,0,.423,2A1.463,1.463,0,0,0,29.459-1.768ZM37.121,0H34.714V-8.981h2.407ZM34.573-11.306a1.181,1.181,0,0,1,.361-.888,1.356,1.356,0,0,1,.984-.349,1.36,1.36,0,0,1,.979.349,1.175,1.175,0,0,1,.365.888,1.178,1.178,0,0,1-.369.9,1.363,1.363,0,0,1-.975.349,1.363,1.363,0,0,1-.975-.349A1.178,1.178,0,0,1,34.573-11.306Zm4.15,6.732a5.327,5.327,0,0,1,.515-2.382,3.767,3.767,0,0,1,1.482-1.619,4.323,4.323,0,0,1,2.245-.573,4.09,4.09,0,0,1,2.968,1.112,4.464,4.464,0,0,1,1.282,3.021l.017.614a4.694,4.694,0,0,1-1.154,3.316,4.011,4.011,0,0,1-3.1,1.249,4.031,4.031,0,0,1-3.1-1.245,4.777,4.777,0,0,1-1.158-3.387Zm2.4.17A3.357,3.357,0,0,0,41.6-2.446a1.588,1.588,0,0,0,1.378.678,1.592,1.592,0,0,0,1.361-.669,3.674,3.674,0,0,0,.49-2.141,3.324,3.324,0,0,0-.49-1.945,1.592,1.592,0,0,0-1.378-.69,1.566,1.566,0,0,0-1.361.686A3.735,3.735,0,0,0,41.122-4.4Zm2.316-8.347h2.615l-2.3,2.573H41.8Zm7.479,3.769.075,1.038a3.136,3.136,0,0,1,2.582-1.2,2.606,2.606,0,0,1,2.125.838A3.912,3.912,0,0,1,56.412-5.8V0h-2.4V-5.757a1.562,1.562,0,0,0-.332-1.111,1.484,1.484,0,0,0-1.1-.345,1.65,1.65,0,0,0-1.519.865V0h-2.4V-8.981Z" transform="translate(1021.676 4436)" fill="#fff"/>
    </g>
    <path id="Trazado_199916" data-name="Trazado 199916" d="M-53.432-12.086l3.1,8.766,3.088-8.766h3.271V0h-2.5V-3.3l.249-5.7L-49.481,0h-1.71l-3.254-9L-54.2-3.3V0h-2.49V-12.086ZM-36.748,0a2.664,2.664,0,0,1-.241-.805,2.9,2.9,0,0,1-2.266.971A3.189,3.189,0,0,1-41.442-.6a2.456,2.456,0,0,1-.867-1.926,2.538,2.538,0,0,1,1.058-2.191,5.222,5.222,0,0,1,3.059-.772h1.1V-6a1.48,1.48,0,0,0-.32-1,1.257,1.257,0,0,0-1.009-.374,1.429,1.429,0,0,0-.95.291.987.987,0,0,0-.344.8h-2.4a2.41,2.41,0,0,1,.481-1.444A3.182,3.182,0,0,1-40.267-8.77a4.961,4.961,0,0,1,1.976-.378,3.92,3.92,0,0,1,2.635.834,2.918,2.918,0,0,1,.975,2.345v3.893a4.294,4.294,0,0,0,.357,1.934V0Zm-1.984-1.668a2.066,2.066,0,0,0,.979-.237,1.554,1.554,0,0,0,.664-.635V-4.084h-.9q-1.8,0-1.917,1.245l-.008.141a.96.96,0,0,0,.315.739A1.225,1.225,0,0,0-38.731-1.668Zm8.1-7.313.075,1.038a3.136,3.136,0,0,1,2.582-1.2,2.606,2.606,0,0,1,2.125.838A3.912,3.912,0,0,1-25.135-5.8V0h-2.4V-5.757a1.562,1.562,0,0,0-.332-1.111,1.484,1.484,0,0,0-1.1-.345,1.65,1.65,0,0,0-1.519.865V0h-2.4V-8.981Zm10.185-2.208v2.208h1.536v1.76h-1.536v4.482a1.07,1.07,0,0,0,.191.714.959.959,0,0,0,.73.216,3.826,3.826,0,0,0,.706-.058V-.05a4.939,4.939,0,0,1-1.453.216,2.29,2.29,0,0,1-2.573-2.548V-7.222h-1.312v-1.76h1.312v-2.208ZM-13.439.166a4.409,4.409,0,0,1-3.217-1.212A4.308,4.308,0,0,1-17.9-4.275v-.232a5.426,5.426,0,0,1,.523-2.42,3.838,3.838,0,0,1,1.482-1.644A4.159,4.159,0,0,1-13.7-9.147a3.727,3.727,0,0,1,2.9,1.162,4.722,4.722,0,0,1,1.058,3.3v.979h-5.719a2.229,2.229,0,0,0,.7,1.411,2.12,2.12,0,0,0,1.482.531,2.589,2.589,0,0,0,2.167-1l1.179,1.32A3.6,3.6,0,0,1-11.4-.261,4.793,4.793,0,0,1-13.439.166Zm-.274-7.379a1.5,1.5,0,0,0-1.158.484,2.5,2.5,0,0,0-.569,1.384H-12.1v-.192a1.786,1.786,0,0,0-.432-1.238A1.547,1.547,0,0,0-13.713-7.213Zm7.537-1.768L-6.1-7.944a3.136,3.136,0,0,1,2.582-1.2,2.606,2.606,0,0,1,2.125.838A3.912,3.912,0,0,1-.681-5.8V0h-2.4V-5.757a1.562,1.562,0,0,0-.332-1.111,1.484,1.484,0,0,0-1.1-.345,1.65,1.65,0,0,0-1.519.865V0h-2.4V-8.981ZM3.669,0H1.262V-8.981H3.669ZM1.121-11.306a1.181,1.181,0,0,1,.361-.888,1.356,1.356,0,0,1,.984-.349,1.36,1.36,0,0,1,.979.349,1.175,1.175,0,0,1,.365.888,1.178,1.178,0,0,1-.369.9,1.363,1.363,0,0,1-.975.349,1.363,1.363,0,0,1-.975-.349A1.178,1.178,0,0,1,1.121-11.306ZM7.894-8.981l.075,1a3.156,3.156,0,0,1,2.582-1.17,2.4,2.4,0,0,1,2.382,1.37,3.084,3.084,0,0,1,2.7-1.37,2.679,2.679,0,0,1,2.175.851,3.911,3.911,0,0,1,.714,2.561V0H16.112V-5.741a1.717,1.717,0,0,0-.3-1.119,1.322,1.322,0,0,0-1.054-.354,1.5,1.5,0,0,0-1.494,1.032L13.273,0h-2.4V-5.732a1.7,1.7,0,0,0-.307-1.132,1.335,1.335,0,0,0-1.046-.349,1.554,1.554,0,0,0-1.478.849V0h-2.4V-8.981ZM22.894,0H20.486V-8.981h2.407ZM20.345-11.306a1.181,1.181,0,0,1,.361-.888,1.356,1.356,0,0,1,.984-.349,1.36,1.36,0,0,1,.979.349,1.175,1.175,0,0,1,.365.888,1.178,1.178,0,0,1-.369.9,1.363,1.363,0,0,1-.975.349,1.363,1.363,0,0,1-.975-.349A1.178,1.178,0,0,1,20.345-11.306ZM29,.166a4.409,4.409,0,0,1-3.217-1.212,4.308,4.308,0,0,1-1.241-3.229v-.232a5.426,5.426,0,0,1,.523-2.42A3.838,3.838,0,0,1,26.55-8.571a4.159,4.159,0,0,1,2.187-.577,3.727,3.727,0,0,1,2.9,1.162A4.722,4.722,0,0,1,32.7-4.69v.979H26.978a2.229,2.229,0,0,0,.7,1.411,2.12,2.12,0,0,0,1.482.531,2.589,2.589,0,0,0,2.167-1l1.179,1.32A3.6,3.6,0,0,1,31.045-.261,4.793,4.793,0,0,1,29,.166Zm-.274-7.379a1.5,1.5,0,0,0-1.158.484A2.5,2.5,0,0,0,27-5.346h3.337v-.192a1.786,1.786,0,0,0-.432-1.238A1.547,1.547,0,0,0,28.729-7.213Zm7.537-1.768.075,1.038a3.136,3.136,0,0,1,2.582-1.2,2.606,2.606,0,0,1,2.125.838A3.912,3.912,0,0,1,41.761-5.8V0h-2.4V-5.757a1.562,1.562,0,0,0-.332-1.111,1.484,1.484,0,0,0-1.1-.345,1.65,1.65,0,0,0-1.519.865V0h-2.4V-8.981Zm10.185-2.208v2.208h1.536v1.76H46.451v4.482a1.07,1.07,0,0,0,.191.714.959.959,0,0,0,.73.216,3.826,3.826,0,0,0,.706-.058V-.05a4.939,4.939,0,0,1-1.453.216,2.29,2.29,0,0,1-2.573-2.548V-7.222H42.741v-1.76h1.312v-2.208ZM48.7-4.574a5.327,5.327,0,0,1,.515-2.382A3.767,3.767,0,0,1,50.7-8.575a4.323,4.323,0,0,1,2.245-.573A4.09,4.09,0,0,1,55.91-8.035a4.464,4.464,0,0,1,1.282,3.021l.017.614a4.694,4.694,0,0,1-1.154,3.316,4.011,4.011,0,0,1-3.1,1.249,4.031,4.031,0,0,1-3.1-1.245A4.777,4.777,0,0,1,48.7-4.466Zm2.4.17a3.357,3.357,0,0,0,.481,1.958,1.588,1.588,0,0,0,1.378.678,1.592,1.592,0,0,0,1.361-.669,3.674,3.674,0,0,0,.49-2.141,3.324,3.324,0,0,0-.49-1.945,1.592,1.592,0,0,0-1.378-.69,1.566,1.566,0,0,0-1.361.686A3.735,3.735,0,0,0,51.1-4.4Z" transform="translate(759.676 6599)" fill="#12263f"/>
  </g>
</svg>
