<svg xmlns="http://www.w3.org/2000/svg" xmlns:xlink="http://www.w3.org/1999/xlink" width="648" height="371.375" viewBox="0 0 648 371.375">
  <defs>
    <linearGradient id="linear-gradient" x1="0.453" y1="-0.589" x2="0.5" y2="1" gradientUnits="objectBoundingBox">
      <stop offset="0" stop-color="#f5f5f5"/>
      <stop offset="0.25" stop-color="#f5f5f5"/>
      <stop offset="1" stop-color="#a7b3cf"/>
    </linearGradient>
    <linearGradient id="linear-gradient-4" x1="0.453" y1="-0.589" x2="0.5" y2="1" gradientUnits="objectBoundingBox">
      <stop offset="0" stop-color="#039be5"/>
      <stop offset="1" stop-color="#027fbc"/>
    </linearGradient>
  </defs>
  <g id="Grupo_161559" data-name="Grupo 161559" transform="translate(-309 -2140.941)">
    <path id="Trazado_196239" data-name="Trazado 196239" d="M-7964.41-6533.363h28.957v13.8l28.148-34.172-28.148-32.582v13.262h-28.957Z" transform="translate(8587 8883.877)" fill="#f59d36"/>
    <path id="Trazado_199655" data-name="Trazado 199655" d="M-7964.41-6533.363h28.957v13.8l28.148-34.172-28.148-32.582v13.262h-28.957Z" transform="translate(8594.305 8751.189)" fill="#f59d36"/>
    <path id="Trazado_199656" data-name="Trazado 199656" d="M-7964.41-6533.363h28.957v13.8l28.148-34.172-28.148-32.582v13.262h-28.957Z" transform="translate(8594.305 9008.189)" fill="#f59d36"/>
    <rect id="Rectángulo_46652" data-name="Rectángulo 46652" width="270" height="106" rx="20" transform="translate(687 2140.941)" fill="url(#linear-gradient)"/>
    <rect id="Rectángulo_46653" data-name="Rectángulo 46653" width="270" height="106" rx="20" transform="translate(687 2273.629)" fill="url(#linear-gradient)"/>
    <rect id="Rectángulo_46654" data-name="Rectángulo 46654" width="270" height="106" rx="20" transform="translate(687 2406.316)" fill="url(#linear-gradient)"/>
    <rect id="Rectángulo_45474" data-name="Rectángulo 45474" width="270" height="158" rx="20" transform="translate(309 2251.941)" fill="url(#linear-gradient-4)"/>
    <path id="Trazado_199851" data-name="Trazado 199851" d="M-72.059-5.307V0h-3.771V-15.641h6.241a7.269,7.269,0,0,1,3.174.661,4.979,4.979,0,0,1,2.138,1.88,5.134,5.134,0,0,1,.757,2.766,4.526,4.526,0,0,1-1.638,3.658,6.8,6.8,0,0,1-4.5,1.37Zm0-2.911h2.471a2.33,2.33,0,0,0,1.67-.548,2.035,2.035,0,0,0,.575-1.547,2.516,2.516,0,0,0-.591-1.751,2.092,2.092,0,0,0-1.611-.666h-2.514ZM-57.857,0h-3.631V-16.5h3.631Zm8.776,0a4.088,4.088,0,0,1-.344-1.042A3.366,3.366,0,0,1-52.218.215a4.124,4.124,0,0,1-2.793-.994,3.163,3.163,0,0,1-1.149-2.5,3.251,3.251,0,0,1,1.4-2.857A7.114,7.114,0,0,1-50.7-7.1h1.117v-.615q0-1.608-1.386-1.608A1.133,1.133,0,0,0-52.261-8.05h-3.62a3.245,3.245,0,0,1,1.434-2.736,6.027,6.027,0,0,1,3.658-1.051,5.284,5.284,0,0,1,3.513,1.085,3.772,3.772,0,0,1,1.321,2.976v5.146a5.269,5.269,0,0,0,.494,2.449V0Zm-2.267-2.363a2.019,2.019,0,0,0,1.123-.29,1.818,1.818,0,0,0,.639-.655V-5.167h-1.053q-1.891,0-1.891,1.7a1.036,1.036,0,0,0,.333.8A1.205,1.205,0,0,0-51.348-2.363Zm10.721-9.26.118,1.364a3.942,3.942,0,0,1,3.319-1.579,3.316,3.316,0,0,1,2.712,1.085,5.165,5.165,0,0,1,.929,3.266V0h-3.631V-7.337a1.961,1.961,0,0,0-.354-1.294,1.64,1.64,0,0,0-1.289-.414,1.726,1.726,0,0,0-1.579.838V0h-3.62V-11.623Zm14.1,5.726a7.1,7.1,0,0,1,1.192-4.351A3.925,3.925,0,0,1-22-11.838a3.338,3.338,0,0,1,2.621,1.225V-16.5h3.631V0H-19l-.183-1.246A3.428,3.428,0,0,1-22.021.215a3.918,3.918,0,0,1-3.287-1.59A7.325,7.325,0,0,1-26.522-5.9Zm3.62.226q0,3.094,1.8,3.094a1.782,1.782,0,0,0,1.719-1.01V-8.014a1.734,1.734,0,0,0-1.7-1.031q-1.676,0-1.815,2.707ZM-8.067.215A5.975,5.975,0,0,1-12.4-1.38a5.509,5.509,0,0,1-1.654-4.152v-.3A7.138,7.138,0,0,1-13.39-8.98a4.834,4.834,0,0,1,1.928-2.111,5.821,5.821,0,0,1,3.008-.747,5.031,5.031,0,0,1,3.867,1.52A5.973,5.973,0,0,1-3.169-6.08v1.407h-7.2a2.609,2.609,0,0,0,.849,1.536,2.525,2.525,0,0,0,1.7.559,3.254,3.254,0,0,0,2.686-1.2L-3.48-1.826A4.624,4.624,0,0,1-5.4-.338,6.48,6.48,0,0,1-8.067.215Zm-.408-9.26q-1.59,0-1.891,2.105h3.652v-.279a1.793,1.793,0,0,0-.44-1.348A1.753,1.753,0,0,0-8.476-9.045ZM3.341-5.9a7.848,7.848,0,0,1,.58-3.115A4.67,4.67,0,0,1,5.586-11.1a4.389,4.389,0,0,1,2.524-.736,3.49,3.49,0,0,1,2.836,1.225l.129-1.01h3.287V-.44a4.9,4.9,0,0,1-.714,2.669,4.584,4.584,0,0,1-2.068,1.74,7.6,7.6,0,0,1-3.137.607,6.557,6.557,0,0,1-2.476-.483A4.47,4.47,0,0,1,4.136,2.836L5.65.709A3.319,3.319,0,0,0,8.314,1.9,2.156,2.156,0,0,0,10.721-.569V-.935A3.4,3.4,0,0,1,8.089.215,4.2,4.2,0,0,1,4.651-1.413,6.743,6.743,0,0,1,3.341-5.769Zm3.631.226a4.135,4.135,0,0,0,.537,2.261,1.7,1.7,0,0,0,1.5.833,1.923,1.923,0,0,0,1.708-.784V-8.25a1.875,1.875,0,0,0-1.687-.795A1.706,1.706,0,0,0,7.52-8.18,4.715,4.715,0,0,0,6.972-5.672ZM22.043.215a5.975,5.975,0,0,1-4.329-1.6A5.509,5.509,0,0,1,16.06-5.532v-.3A7.138,7.138,0,0,1,16.72-8.98a4.834,4.834,0,0,1,1.928-2.111,5.821,5.821,0,0,1,3.008-.747,5.031,5.031,0,0,1,3.867,1.52A5.973,5.973,0,0,1,26.941-6.08v1.407h-7.2a2.609,2.609,0,0,0,.849,1.536,2.525,2.525,0,0,0,1.7.559,3.254,3.254,0,0,0,2.686-1.2L26.63-1.826A4.624,4.624,0,0,1,24.712-.338,6.48,6.48,0,0,1,22.043.215Zm-.408-9.26q-1.59,0-1.891,2.105H23.4v-.279a1.793,1.793,0,0,0-.44-1.348A1.753,1.753,0,0,0,21.635-9.045ZM34.482-3.266A.836.836,0,0,0,34-4.007a7.353,7.353,0,0,0-1.837-.58,8.376,8.376,0,0,1-2.234-.79,3.743,3.743,0,0,1-1.343-1.187,2.834,2.834,0,0,1-.462-1.6A3.212,3.212,0,0,1,29.444-10.8,5.443,5.443,0,0,1,32.9-11.838,6.03,6.03,0,0,1,36.6-10.8,3.258,3.258,0,0,1,38-8.057H34.364q0-1.4-1.472-1.4a1.459,1.459,0,0,0-.956.317.981.981,0,0,0-.387.79.9.9,0,0,0,.473.784,4.466,4.466,0,0,0,1.509.494,13.042,13.042,0,0,1,1.821.462q2.621.9,2.621,3.233A3.044,3.044,0,0,1,36.561-.784a6.2,6.2,0,0,1-3.658,1,6.322,6.322,0,0,1-2.664-.537,4.455,4.455,0,0,1-1.826-1.461,3.308,3.308,0,0,1-.655-1.944h3.384a1.4,1.4,0,0,0,.537,1.176A2.209,2.209,0,0,0,33-2.181a1.738,1.738,0,0,0,1.112-.3A.962.962,0,0,0,34.482-3.266Zm9.4-11.247v2.89h1.912v2.514H43.882v5.317a1.358,1.358,0,0,0,.236.913,1.268,1.268,0,0,0,.935.258,5.311,5.311,0,0,0,.9-.064V-.1a6.681,6.681,0,0,1-2.041.312,3.792,3.792,0,0,1-2.761-.881,3.61,3.61,0,0,1-.892-2.675V-9.109H38.779v-2.514h1.482v-2.89ZM51.036,0H47.405V-11.623h3.631ZM47.19-14.631a1.63,1.63,0,0,1,.559-1.275,2.1,2.1,0,0,1,1.45-.5,2.1,2.1,0,0,1,1.45.5,1.63,1.63,0,0,1,.559,1.275,1.63,1.63,0,0,1-.559,1.275,2.1,2.1,0,0,1-1.45.5,2.1,2.1,0,0,1-1.45-.5A1.63,1.63,0,0,1,47.19-14.631Zm5.618,8.712a6.86,6.86,0,0,1,.677-3.1,4.84,4.84,0,0,1,1.944-2.089,5.856,5.856,0,0,1,2.976-.73,5.344,5.344,0,0,1,4.114,1.617,6.2,6.2,0,0,1,1.5,4.4v.129A6.019,6.019,0,0,1,62.514-1.38a5.359,5.359,0,0,1-4.087,1.6,5.42,5.42,0,0,1-3.985-1.488,5.819,5.819,0,0,1-1.622-4.034Zm3.62.226a4.325,4.325,0,0,0,.5,2.363,1.682,1.682,0,0,0,1.493.752q1.934,0,1.977-2.976v-.365q0-3.126-2-3.126-1.815,0-1.966,2.7ZM58.9-16.5h3.824l-2.986,3.373-2.954-.005Zm10.044,4.877.118,1.364a3.942,3.942,0,0,1,3.319-1.579,3.316,3.316,0,0,1,2.712,1.085,5.165,5.165,0,0,1,.929,3.266V0H72.392V-7.337a1.961,1.961,0,0,0-.354-1.294,1.64,1.64,0,0,0-1.289-.414,1.726,1.726,0,0,0-1.579.838V0h-3.62V-11.623ZM-72.171,17.1a7.1,7.1,0,0,1,1.192-4.351,3.925,3.925,0,0,1,3.33-1.59,3.338,3.338,0,0,1,2.621,1.225V6.5H-61.4V23h-3.255l-.183-1.246a3.428,3.428,0,0,1-2.836,1.461,3.918,3.918,0,0,1-3.287-1.59A7.325,7.325,0,0,1-72.171,17.1Zm3.62.226q0,3.094,1.8,3.094a1.782,1.782,0,0,0,1.719-1.01V14.986a1.734,1.734,0,0,0-1.7-1.031q-1.676,0-1.815,2.707Zm14.835,5.887a5.975,5.975,0,0,1-4.329-1.6A5.509,5.509,0,0,1-59.7,17.468v-.3a7.138,7.138,0,0,1,.661-3.147,4.834,4.834,0,0,1,1.928-2.111,5.821,5.821,0,0,1,3.008-.747,5.031,5.031,0,0,1,3.867,1.52,5.973,5.973,0,0,1,1.418,4.238v1.407h-7.2a2.609,2.609,0,0,0,.849,1.536,2.525,2.525,0,0,0,1.7.559,3.254,3.254,0,0,0,2.686-1.2l1.654,1.955a4.624,4.624,0,0,1-1.917,1.488A6.48,6.48,0,0,1-53.716,23.215Zm-.408-9.26q-1.59,0-1.891,2.105h3.652v-.279a1.793,1.793,0,0,0-.44-1.348A1.753,1.753,0,0,0-54.125,13.955ZM-35.8,19.734a.836.836,0,0,0-.483-.741,7.353,7.353,0,0,0-1.837-.58,8.376,8.376,0,0,1-2.234-.79A3.743,3.743,0,0,1-41.7,16.437a2.835,2.835,0,0,1-.462-1.6A3.212,3.212,0,0,1-40.836,12.2a5.443,5.443,0,0,1,3.459-1.037,6.03,6.03,0,0,1,3.7,1.042,3.258,3.258,0,0,1,1.4,2.739h-3.631q0-1.4-1.472-1.4a1.459,1.459,0,0,0-.956.317.981.981,0,0,0-.387.79.9.9,0,0,0,.473.784,4.466,4.466,0,0,0,1.509.494,13.042,13.042,0,0,1,1.821.462q2.621.9,2.621,3.233a3.044,3.044,0,0,1-1.413,2.589,6.2,6.2,0,0,1-3.658,1,6.322,6.322,0,0,1-2.664-.537,4.455,4.455,0,0,1-1.826-1.461,3.308,3.308,0,0,1-.655-1.944h3.384a1.4,1.4,0,0,0,.537,1.176,2.209,2.209,0,0,0,1.321.371,1.738,1.738,0,0,0,1.112-.3A.962.962,0,0,0-35.8,19.734Zm10.807,3.48a5.975,5.975,0,0,1-4.329-1.6,5.509,5.509,0,0,1-1.654-4.152v-.3a7.138,7.138,0,0,1,.661-3.147,4.834,4.834,0,0,1,1.928-2.111,5.821,5.821,0,0,1,3.008-.747,5.031,5.031,0,0,1,3.867,1.52,5.973,5.973,0,0,1,1.418,4.238v1.407h-7.2a2.609,2.609,0,0,0,.849,1.536,2.525,2.525,0,0,0,1.7.559,3.254,3.254,0,0,0,2.686-1.2l1.654,1.955a4.624,4.624,0,0,1-1.917,1.488A6.48,6.48,0,0,1-24.992,23.215Zm-.408-9.26q-1.59,0-1.891,2.105h3.652v-.279a1.793,1.793,0,0,0-.44-1.348A1.753,1.753,0,0,0-25.4,13.955Zm13.793.7-1.192-.086a2.142,2.142,0,0,0-2.191,1.074V23h-3.62V11.377h3.395l.118,1.493a2.8,2.8,0,0,1,2.546-1.708,3.53,3.53,0,0,1,1.01.129Zm6.134,4.039,1.837-7.315H.177L-3.615,23h-3.7L-11.1,11.377h3.824ZM5.076,23H1.445V11.377H5.076ZM1.23,8.369a1.63,1.63,0,0,1,.559-1.275,2.1,2.1,0,0,1,1.45-.5,2.1,2.1,0,0,1,1.45.5,1.63,1.63,0,0,1,.559,1.275,1.63,1.63,0,0,1-.559,1.275,2.1,2.1,0,0,1-1.45.5,2.1,2.1,0,0,1-1.45-.5A1.63,1.63,0,0,1,1.23,8.369ZM12.219,20.422a1.61,1.61,0,0,0,1.182-.414,1.517,1.517,0,0,0,.408-1.155H17.2a4.018,4.018,0,0,1-1.37,3.137,5.1,5.1,0,0,1-3.529,1.225,5.158,5.158,0,0,1-4-1.59,6.264,6.264,0,0,1-1.461-4.4v-.15a7.08,7.08,0,0,1,.65-3.11,4.732,4.732,0,0,1,1.875-2.073,5.589,5.589,0,0,1,2.9-.725,5.03,5.03,0,0,1,3.6,1.257A4.458,4.458,0,0,1,17.2,15.824H13.809a1.987,1.987,0,0,0-.44-1.386,1.52,1.52,0,0,0-1.182-.483q-1.407,0-1.644,1.794a12.659,12.659,0,0,0-.075,1.568,4.972,4.972,0,0,0,.419,2.428A1.45,1.45,0,0,0,12.219,20.422ZM22.553,23H18.922V11.377h3.631ZM18.708,8.369a1.63,1.63,0,0,1,.559-1.275,2.364,2.364,0,0,1,2.9,0,1.63,1.63,0,0,1,.559,1.275,1.63,1.63,0,0,1-.559,1.275,2.364,2.364,0,0,1-2.9,0A1.63,1.63,0,0,1,18.708,8.369Zm5.618,8.712a6.86,6.86,0,0,1,.677-3.1,4.84,4.84,0,0,1,1.944-2.089,5.856,5.856,0,0,1,2.976-.73,5.344,5.344,0,0,1,4.114,1.617,6.2,6.2,0,0,1,1.5,4.4v.129a6.019,6.019,0,0,1-1.509,4.313,5.359,5.359,0,0,1-4.087,1.6,5.42,5.42,0,0,1-3.985-1.488,5.819,5.819,0,0,1-1.622-4.034Zm3.62.226a4.325,4.325,0,0,0,.5,2.363,1.682,1.682,0,0,0,1.493.752q1.934,0,1.977-2.976v-.365q0-3.126-2-3.126-1.815,0-1.966,2.7Zm15.275,2.428a.836.836,0,0,0-.483-.741,7.353,7.353,0,0,0-1.837-.58,8.376,8.376,0,0,1-2.234-.79,3.743,3.743,0,0,1-1.343-1.187,2.835,2.835,0,0,1-.462-1.6A3.212,3.212,0,0,1,38.183,12.2a5.443,5.443,0,0,1,3.459-1.037,6.03,6.03,0,0,1,3.7,1.042,3.258,3.258,0,0,1,1.4,2.739H43.1q0-1.4-1.472-1.4a1.459,1.459,0,0,0-.956.317.981.981,0,0,0-.387.79.9.9,0,0,0,.473.784,4.466,4.466,0,0,0,1.509.494,13.042,13.042,0,0,1,1.821.462q2.621.9,2.621,3.233A3.044,3.044,0,0,1,45.3,22.216a6.2,6.2,0,0,1-3.658,1,6.322,6.322,0,0,1-2.664-.537,4.455,4.455,0,0,1-1.826-1.461,3.308,3.308,0,0,1-.655-1.944H39.88a1.4,1.4,0,0,0,.537,1.176,2.209,2.209,0,0,0,1.321.371,1.738,1.738,0,0,0,1.112-.3A.962.962,0,0,0,43.221,19.734Zm22.462-9.464H60.989V23H57.218V10.271H52.61V7.359H65.683ZM71.291,23h-3.76V7.359h3.76Z" transform="translate(444 2326.941)" fill="#fff"/>
    <path id="Trazado_199850" data-name="Trazado 199850" d="M-50.832-1.934A6.062,6.062,0,0,1-53.378-.376a10.981,10.981,0,0,1-3.674.591,6.551,6.551,0,0,1-4.909-1.88A7.61,7.61,0,0,1-63.927-6.9l-.011-1.354a9.334,9.334,0,0,1,.816-4.034,6.062,6.062,0,0,1,2.336-2.653,6.609,6.609,0,0,1,3.518-.929,6.929,6.929,0,0,1,4.539,1.337,5.667,5.667,0,0,1,1.885,3.991h-3.631a2.965,2.965,0,0,0-.838-1.869,2.7,2.7,0,0,0-1.826-.559,2.46,2.46,0,0,0-2.191,1.2,6.424,6.424,0,0,0-.784,3.438v.945a6.289,6.289,0,0,0,.8,3.518,2.831,2.831,0,0,0,2.519,1.176A3.168,3.168,0,0,0-54.6-3.341V-5.769h-2.621V-8.357h6.392ZM-43.184.215a5.975,5.975,0,0,1-4.329-1.6,5.509,5.509,0,0,1-1.654-4.152v-.3a7.138,7.138,0,0,1,.661-3.147,4.834,4.834,0,0,1,1.928-2.111,5.821,5.821,0,0,1,3.008-.747,5.031,5.031,0,0,1,3.867,1.52A5.973,5.973,0,0,1-38.285-6.08v1.407h-7.2a2.609,2.609,0,0,0,.849,1.536,2.525,2.525,0,0,0,1.7.559,3.254,3.254,0,0,0,2.686-1.2L-38.6-1.826A4.624,4.624,0,0,1-40.514-.338,6.48,6.48,0,0,1-43.184.215Zm-.408-9.26q-1.59,0-1.891,2.105h3.652v-.279a1.793,1.793,0,0,0-.44-1.348A1.753,1.753,0,0,0-43.592-9.045Zm12.848,5.779a.836.836,0,0,0-.483-.741,7.353,7.353,0,0,0-1.837-.58,8.376,8.376,0,0,1-2.234-.79,3.743,3.743,0,0,1-1.343-1.187,2.835,2.835,0,0,1-.462-1.6A3.212,3.212,0,0,1-35.782-10.8a5.443,5.443,0,0,1,3.459-1.037,6.03,6.03,0,0,1,3.7,1.042,3.258,3.258,0,0,1,1.4,2.739h-3.631q0-1.4-1.472-1.4a1.459,1.459,0,0,0-.956.317.981.981,0,0,0-.387.79.9.9,0,0,0,.473.784,4.466,4.466,0,0,0,1.509.494,13.043,13.043,0,0,1,1.821.462q2.621.9,2.621,3.233A3.044,3.044,0,0,1-28.666-.784a6.2,6.2,0,0,1-3.658,1,6.322,6.322,0,0,1-2.664-.537,4.455,4.455,0,0,1-1.826-1.461,3.308,3.308,0,0,1-.655-1.944h3.384a1.4,1.4,0,0,0,.537,1.176,2.209,2.209,0,0,0,1.321.371,1.738,1.738,0,0,0,1.112-.3A.962.962,0,0,0-30.744-3.266Zm9.4-11.247v2.89h1.912v2.514h-1.912v5.317a1.358,1.358,0,0,0,.236.913,1.268,1.268,0,0,0,.935.258,5.311,5.311,0,0,0,.9-.064V-.1a6.681,6.681,0,0,1-2.041.312,3.792,3.792,0,0,1-2.761-.881,3.61,3.61,0,0,1-.892-2.675V-9.109h-1.482v-2.514h1.482v-2.89ZM-14.19,0h-3.631V-11.623h3.631Zm-3.846-14.631a1.63,1.63,0,0,1,.559-1.275,2.1,2.1,0,0,1,1.45-.5,2.1,2.1,0,0,1,1.45.5,1.63,1.63,0,0,1,.559,1.275,1.63,1.63,0,0,1-.559,1.275,2.1,2.1,0,0,1-1.45.5,2.1,2.1,0,0,1-1.45-.5A1.63,1.63,0,0,1-18.036-14.631Zm5.618,8.712a6.86,6.86,0,0,1,.677-3.1A4.84,4.84,0,0,1-9.8-11.107a5.856,5.856,0,0,1,2.976-.73,5.344,5.344,0,0,1,4.114,1.617,6.2,6.2,0,0,1,1.5,4.4v.129A6.019,6.019,0,0,1-2.712-1.38,5.359,5.359,0,0,1-6.8.215a5.42,5.42,0,0,1-3.985-1.488,5.819,5.819,0,0,1-1.622-4.034Zm3.62.226a4.325,4.325,0,0,0,.5,2.363A1.682,1.682,0,0,0-6.8-2.578q1.934,0,1.977-2.976v-.365q0-3.126-2-3.126-1.815,0-1.966,2.7ZM-6.327-16.5H-2.5l-2.986,3.373-2.954-.005ZM3.717-11.623l.118,1.364a3.942,3.942,0,0,1,3.319-1.579,3.316,3.316,0,0,1,2.712,1.085A5.165,5.165,0,0,1,10.8-7.487V0H7.165V-7.337a1.961,1.961,0,0,0-.354-1.294,1.64,1.64,0,0,0-1.289-.414,1.726,1.726,0,0,0-1.579.838V0H.322V-11.623ZM17.821-5.9a7.1,7.1,0,0,1,1.192-4.351,3.925,3.925,0,0,1,3.33-1.59,3.338,3.338,0,0,1,2.621,1.225V-16.5H28.6V0H25.341l-.183-1.246A3.428,3.428,0,0,1,22.322.215a3.918,3.918,0,0,1-3.287-1.59A7.325,7.325,0,0,1,17.821-5.9Zm3.62.226q0,3.094,1.8,3.094a1.782,1.782,0,0,0,1.719-1.01V-8.014a1.734,1.734,0,0,0-1.7-1.031q-1.676,0-1.815,2.707ZM36.276.215a5.975,5.975,0,0,1-4.329-1.6,5.509,5.509,0,0,1-1.654-4.152v-.3a7.138,7.138,0,0,1,.661-3.147,4.834,4.834,0,0,1,1.928-2.111,5.821,5.821,0,0,1,3.008-.747,5.031,5.031,0,0,1,3.867,1.52A5.973,5.973,0,0,1,41.175-6.08v1.407h-7.2a2.609,2.609,0,0,0,.849,1.536,2.525,2.525,0,0,0,1.7.559,3.254,3.254,0,0,0,2.686-1.2l1.654,1.955A4.624,4.624,0,0,1,38.946-.338,6.48,6.48,0,0,1,36.276.215Zm-.408-9.26q-1.59,0-1.891,2.105H37.63v-.279a1.793,1.793,0,0,0-.44-1.348A1.753,1.753,0,0,0,35.868-9.045ZM51.928,0H48.3V-16.5h3.631ZM60.7,0a4.088,4.088,0,0,1-.344-1.042A3.366,3.366,0,0,1,57.567.215a4.124,4.124,0,0,1-2.793-.994,3.163,3.163,0,0,1-1.149-2.5,3.251,3.251,0,0,1,1.4-2.857A7.114,7.114,0,0,1,59.082-7.1H60.2v-.615q0-1.608-1.386-1.608A1.133,1.133,0,0,0,57.524-8.05H53.9a3.245,3.245,0,0,1,1.434-2.736A6.027,6.027,0,0,1,59-11.838a5.284,5.284,0,0,1,3.513,1.085A3.772,3.772,0,0,1,63.83-7.777v5.146a5.269,5.269,0,0,0,.494,2.449V0ZM58.438-2.363a2.019,2.019,0,0,0,1.123-.29,1.818,1.818,0,0,0,.639-.655V-5.167H59.146q-1.891,0-1.891,1.7a1.036,1.036,0,0,0,.333.8A1.205,1.205,0,0,0,58.438-2.363ZM-44.607,20.422a1.61,1.61,0,0,0,1.182-.414,1.517,1.517,0,0,0,.408-1.155h3.395a4.018,4.018,0,0,1-1.37,3.137,5.1,5.1,0,0,1-3.529,1.225,5.158,5.158,0,0,1-4-1.59,6.264,6.264,0,0,1-1.461-4.4v-.15a7.08,7.08,0,0,1,.65-3.11,4.732,4.732,0,0,1,1.875-2.073,5.589,5.589,0,0,1,2.9-.725,5.03,5.03,0,0,1,3.6,1.257,4.458,4.458,0,0,1,1.332,3.405h-3.395a1.987,1.987,0,0,0-.44-1.386,1.52,1.52,0,0,0-1.182-.483q-1.407,0-1.644,1.794a12.659,12.659,0,0,0-.075,1.568,4.972,4.972,0,0,0,.419,2.428A1.45,1.45,0,0,0-44.607,20.422ZM-31.544,23a4.087,4.087,0,0,1-.344-1.042,3.366,3.366,0,0,1-2.793,1.257,4.124,4.124,0,0,1-2.793-.994,3.163,3.163,0,0,1-1.149-2.5,3.251,3.251,0,0,1,1.4-2.857,7.114,7.114,0,0,1,4.061-.967h1.117v-.615q0-1.608-1.386-1.608a1.133,1.133,0,0,0-1.289,1.274h-3.62a3.245,3.245,0,0,1,1.434-2.736,6.027,6.027,0,0,1,3.658-1.051,5.284,5.284,0,0,1,3.513,1.085,3.772,3.772,0,0,1,1.321,2.976v5.146a5.269,5.269,0,0,0,.494,2.449V23Zm-2.267-2.363a2.019,2.019,0,0,0,1.123-.29,1.818,1.818,0,0,0,.639-.655V17.833H-33.1q-1.891,0-1.891,1.7a1.036,1.036,0,0,0,.333.8A1.205,1.205,0,0,0-33.811,20.637Zm18.187-3.362A7.009,7.009,0,0,1-16.844,21.6a3.909,3.909,0,0,1-3.292,1.617,3.351,3.351,0,0,1-2.632-1.171v5.425h-3.62V11.377H-23l.107,1.074a3.351,3.351,0,0,1,2.739-1.289,3.941,3.941,0,0,1,3.341,1.584A7.1,7.1,0,0,1-15.625,17.1Zm-3.62-.226q0-3.094-1.8-3.094a1.7,1.7,0,0,0-1.719.924v4.576a1.759,1.759,0,0,0,1.74.967q1.729,0,1.783-2.986ZM-7.482,23a4.087,4.087,0,0,1-.344-1.042,3.366,3.366,0,0,1-2.793,1.257,4.124,4.124,0,0,1-2.793-.994,3.163,3.163,0,0,1-1.149-2.5,3.251,3.251,0,0,1,1.4-2.857A7.114,7.114,0,0,1-9.1,15.9h1.117v-.615q0-1.608-1.386-1.608a1.133,1.133,0,0,0-1.289,1.274h-3.62a3.245,3.245,0,0,1,1.434-2.736A6.027,6.027,0,0,1-9.19,11.162a5.284,5.284,0,0,1,3.513,1.085,3.772,3.772,0,0,1,1.321,2.976v5.146a5.269,5.269,0,0,0,.494,2.449V23Zm-2.267-2.363a2.019,2.019,0,0,0,1.123-.29,1.818,1.818,0,0,0,.639-.655V17.833H-9.04q-1.891,0-1.891,1.7a1.036,1.036,0,0,0,.333.8A1.205,1.205,0,0,0-9.749,20.637Zm12.311-.215a1.61,1.61,0,0,0,1.182-.414,1.517,1.517,0,0,0,.408-1.155H7.546a4.018,4.018,0,0,1-1.37,3.137,5.1,5.1,0,0,1-3.529,1.225,5.158,5.158,0,0,1-4-1.59,6.264,6.264,0,0,1-1.461-4.4v-.15a7.08,7.08,0,0,1,.65-3.11A4.732,4.732,0,0,1-.285,11.887a5.589,5.589,0,0,1,2.9-.725,5.03,5.03,0,0,1,3.6,1.257,4.458,4.458,0,0,1,1.332,3.405H4.152a1.987,1.987,0,0,0-.44-1.386,1.52,1.52,0,0,0-1.182-.483q-1.407,0-1.644,1.794a12.658,12.658,0,0,0-.075,1.568,4.972,4.972,0,0,0,.419,2.428A1.45,1.45,0,0,0,2.562,20.422ZM12.9,23H9.265V11.377H12.9ZM9.05,8.369a1.63,1.63,0,0,1,.559-1.275,2.1,2.1,0,0,1,1.45-.5,2.1,2.1,0,0,1,1.45.5,1.63,1.63,0,0,1,.559,1.275,1.63,1.63,0,0,1-.559,1.275,2.1,2.1,0,0,1-1.45.5,2.1,2.1,0,0,1-1.45-.5A1.63,1.63,0,0,1,9.05,8.369ZM14.668,17.1a7.1,7.1,0,0,1,1.192-4.351,3.925,3.925,0,0,1,3.33-1.59,3.338,3.338,0,0,1,2.621,1.225V6.5h3.631V23H22.188l-.183-1.246a3.428,3.428,0,0,1-2.836,1.461,3.918,3.918,0,0,1-3.287-1.59A7.325,7.325,0,0,1,14.668,17.1Zm3.62.226q0,3.094,1.8,3.094a1.782,1.782,0,0,0,1.719-1.01V14.986a1.734,1.734,0,0,0-1.7-1.031q-1.676,0-1.815,2.707ZM34.047,23a4.088,4.088,0,0,1-.344-1.042,3.366,3.366,0,0,1-2.793,1.257,4.124,4.124,0,0,1-2.793-.994,3.163,3.163,0,0,1-1.149-2.5,3.251,3.251,0,0,1,1.4-2.857,7.114,7.114,0,0,1,4.061-.967h1.117v-.615q0-1.608-1.386-1.608a1.133,1.133,0,0,0-1.289,1.274h-3.62a3.245,3.245,0,0,1,1.434-2.736,6.027,6.027,0,0,1,3.658-1.051,5.284,5.284,0,0,1,3.513,1.085,3.772,3.772,0,0,1,1.321,2.976v5.146a5.269,5.269,0,0,0,.494,2.449V23Zm-2.267-2.363a2.019,2.019,0,0,0,1.123-.29,1.818,1.818,0,0,0,.639-.655V17.833H32.49q-1.891,0-1.891,1.7a1.036,1.036,0,0,0,.333.8A1.205,1.205,0,0,0,31.781,20.637ZM38.72,17.1a7.1,7.1,0,0,1,1.192-4.351,3.925,3.925,0,0,1,3.33-1.59,3.338,3.338,0,0,1,2.621,1.225V6.5h3.631V23H46.24l-.183-1.246a3.428,3.428,0,0,1-2.836,1.461,3.918,3.918,0,0,1-3.287-1.59A7.325,7.325,0,0,1,38.72,17.1Zm3.62.226q0,3.094,1.8,3.094a1.782,1.782,0,0,0,1.719-1.01V14.986a1.734,1.734,0,0,0-1.7-1.031q-1.676,0-1.815,2.707Z" transform="translate(822 2189.941)" fill="#12263f"/>
    <path id="Trazado_199852" data-name="Trazado 199852" d="M-50.832-1.934A6.062,6.062,0,0,1-53.378-.376a10.981,10.981,0,0,1-3.674.591,6.551,6.551,0,0,1-4.909-1.88A7.61,7.61,0,0,1-63.927-6.9l-.011-1.354a9.334,9.334,0,0,1,.816-4.034,6.062,6.062,0,0,1,2.336-2.653,6.609,6.609,0,0,1,3.518-.929,6.929,6.929,0,0,1,4.539,1.337,5.667,5.667,0,0,1,1.885,3.991h-3.631a2.965,2.965,0,0,0-.838-1.869,2.7,2.7,0,0,0-1.826-.559,2.46,2.46,0,0,0-2.191,1.2,6.424,6.424,0,0,0-.784,3.438v.945a6.289,6.289,0,0,0,.8,3.518,2.831,2.831,0,0,0,2.519,1.176A3.168,3.168,0,0,0-54.6-3.341V-5.769h-2.621V-8.357h6.392ZM-43.184.215a5.975,5.975,0,0,1-4.329-1.6,5.509,5.509,0,0,1-1.654-4.152v-.3a7.138,7.138,0,0,1,.661-3.147,4.834,4.834,0,0,1,1.928-2.111,5.821,5.821,0,0,1,3.008-.747,5.031,5.031,0,0,1,3.867,1.52A5.973,5.973,0,0,1-38.285-6.08v1.407h-7.2a2.609,2.609,0,0,0,.849,1.536,2.525,2.525,0,0,0,1.7.559,3.254,3.254,0,0,0,2.686-1.2L-38.6-1.826A4.624,4.624,0,0,1-40.514-.338,6.48,6.48,0,0,1-43.184.215Zm-.408-9.26q-1.59,0-1.891,2.105h3.652v-.279a1.793,1.793,0,0,0-.44-1.348A1.753,1.753,0,0,0-43.592-9.045Zm12.848,5.779a.836.836,0,0,0-.483-.741,7.353,7.353,0,0,0-1.837-.58,8.376,8.376,0,0,1-2.234-.79,3.743,3.743,0,0,1-1.343-1.187,2.835,2.835,0,0,1-.462-1.6A3.212,3.212,0,0,1-35.782-10.8a5.443,5.443,0,0,1,3.459-1.037,6.03,6.03,0,0,1,3.7,1.042,3.258,3.258,0,0,1,1.4,2.739h-3.631q0-1.4-1.472-1.4a1.459,1.459,0,0,0-.956.317.981.981,0,0,0-.387.79.9.9,0,0,0,.473.784,4.466,4.466,0,0,0,1.509.494,13.043,13.043,0,0,1,1.821.462q2.621.9,2.621,3.233A3.044,3.044,0,0,1-28.666-.784a6.2,6.2,0,0,1-3.658,1,6.322,6.322,0,0,1-2.664-.537,4.455,4.455,0,0,1-1.826-1.461,3.308,3.308,0,0,1-.655-1.944h3.384a1.4,1.4,0,0,0,.537,1.176,2.209,2.209,0,0,0,1.321.371,1.738,1.738,0,0,0,1.112-.3A.962.962,0,0,0-30.744-3.266Zm9.4-11.247v2.89h1.912v2.514h-1.912v5.317a1.358,1.358,0,0,0,.236.913,1.268,1.268,0,0,0,.935.258,5.311,5.311,0,0,0,.9-.064V-.1a6.681,6.681,0,0,1-2.041.312,3.792,3.792,0,0,1-2.761-.881,3.61,3.61,0,0,1-.892-2.675V-9.109h-1.482v-2.514h1.482v-2.89ZM-14.19,0h-3.631V-11.623h3.631Zm-3.846-14.631a1.63,1.63,0,0,1,.559-1.275,2.1,2.1,0,0,1,1.45-.5,2.1,2.1,0,0,1,1.45.5,1.63,1.63,0,0,1,.559,1.275,1.63,1.63,0,0,1-.559,1.275,2.1,2.1,0,0,1-1.45.5,2.1,2.1,0,0,1-1.45-.5A1.63,1.63,0,0,1-18.036-14.631Zm5.618,8.712a6.86,6.86,0,0,1,.677-3.1A4.84,4.84,0,0,1-9.8-11.107a5.856,5.856,0,0,1,2.976-.73,5.344,5.344,0,0,1,4.114,1.617,6.2,6.2,0,0,1,1.5,4.4v.129A6.019,6.019,0,0,1-2.712-1.38,5.359,5.359,0,0,1-6.8.215a5.42,5.42,0,0,1-3.985-1.488,5.819,5.819,0,0,1-1.622-4.034Zm3.62.226a4.325,4.325,0,0,0,.5,2.363A1.682,1.682,0,0,0-6.8-2.578q1.934,0,1.977-2.976v-.365q0-3.126-2-3.126-1.815,0-1.966,2.7ZM-6.327-16.5H-2.5l-2.986,3.373-2.954-.005ZM3.717-11.623l.118,1.364a3.942,3.942,0,0,1,3.319-1.579,3.316,3.316,0,0,1,2.712,1.085A5.165,5.165,0,0,1,10.8-7.487V0H7.165V-7.337a1.961,1.961,0,0,0-.354-1.294,1.64,1.64,0,0,0-1.289-.414,1.726,1.726,0,0,0-1.579.838V0H.322V-11.623ZM17.821-5.9a7.1,7.1,0,0,1,1.192-4.351,3.925,3.925,0,0,1,3.33-1.59,3.338,3.338,0,0,1,2.621,1.225V-16.5H28.6V0H25.341l-.183-1.246A3.428,3.428,0,0,1,22.322.215a3.918,3.918,0,0,1-3.287-1.59A7.325,7.325,0,0,1,17.821-5.9Zm3.62.226q0,3.094,1.8,3.094a1.782,1.782,0,0,0,1.719-1.01V-8.014a1.734,1.734,0,0,0-1.7-1.031q-1.676,0-1.815,2.707ZM36.276.215a5.975,5.975,0,0,1-4.329-1.6,5.509,5.509,0,0,1-1.654-4.152v-.3a7.138,7.138,0,0,1,.661-3.147,4.834,4.834,0,0,1,1.928-2.111,5.821,5.821,0,0,1,3.008-.747,5.031,5.031,0,0,1,3.867,1.52A5.973,5.973,0,0,1,41.175-6.08v1.407h-7.2a2.609,2.609,0,0,0,.849,1.536,2.525,2.525,0,0,0,1.7.559,3.254,3.254,0,0,0,2.686-1.2l1.654,1.955A4.624,4.624,0,0,1,38.946-.338,6.48,6.48,0,0,1,36.276.215Zm-.408-9.26q-1.59,0-1.891,2.105H37.63v-.279a1.793,1.793,0,0,0-.44-1.348A1.753,1.753,0,0,0,35.868-9.045ZM51.928,0H48.3V-16.5h3.631ZM60.7,0a4.088,4.088,0,0,1-.344-1.042A3.366,3.366,0,0,1,57.567.215a4.124,4.124,0,0,1-2.793-.994,3.163,3.163,0,0,1-1.149-2.5,3.251,3.251,0,0,1,1.4-2.857A7.114,7.114,0,0,1,59.082-7.1H60.2v-.615q0-1.608-1.386-1.608A1.133,1.133,0,0,0,57.524-8.05H53.9a3.245,3.245,0,0,1,1.434-2.736A6.027,6.027,0,0,1,59-11.838a5.284,5.284,0,0,1,3.513,1.085A3.772,3.772,0,0,1,63.83-7.777v5.146a5.269,5.269,0,0,0,.494,2.449V0ZM58.438-2.363a2.019,2.019,0,0,0,1.123-.29,1.818,1.818,0,0,0,.639-.655V-5.167H59.146q-1.891,0-1.891,1.7a1.036,1.036,0,0,0,.333.8A1.205,1.205,0,0,0,58.438-2.363ZM-52.61,20.422a1.61,1.61,0,0,0,1.182-.414,1.517,1.517,0,0,0,.408-1.155h3.395A4.018,4.018,0,0,1-49,21.99a5.1,5.1,0,0,1-3.529,1.225,5.158,5.158,0,0,1-4-1.59,6.264,6.264,0,0,1-1.461-4.4v-.15a7.08,7.08,0,0,1,.65-3.11,4.732,4.732,0,0,1,1.875-2.073,5.589,5.589,0,0,1,2.9-.725,5.03,5.03,0,0,1,3.6,1.257,4.458,4.458,0,0,1,1.332,3.405H-51.02a1.987,1.987,0,0,0-.44-1.386,1.52,1.52,0,0,0-1.182-.483q-1.407,0-1.644,1.794a12.659,12.659,0,0,0-.075,1.568,4.972,4.972,0,0,0,.419,2.428A1.45,1.45,0,0,0-52.61,20.422Zm6.059-3.341a6.86,6.86,0,0,1,.677-3.1,4.84,4.84,0,0,1,1.944-2.089,5.856,5.856,0,0,1,2.976-.73,5.344,5.344,0,0,1,4.114,1.617,6.2,6.2,0,0,1,1.5,4.4v.129a6.019,6.019,0,0,1-1.509,4.313,5.359,5.359,0,0,1-4.087,1.6,5.42,5.42,0,0,1-3.985-1.488,5.819,5.819,0,0,1-1.622-4.034Zm3.62.226a4.325,4.325,0,0,0,.5,2.363,1.682,1.682,0,0,0,1.493.752q1.934,0,1.977-2.976v-.365q0-3.126-2-3.126-1.815,0-1.966,2.7Zm12.515-5.93.118,1.364a3.942,3.942,0,0,1,3.319-1.579,3.316,3.316,0,0,1,2.712,1.085,5.165,5.165,0,0,1,.929,3.266V23h-3.631V15.663a1.961,1.961,0,0,0-.354-1.294,1.64,1.64,0,0,0-1.289-.414,1.726,1.726,0,0,0-1.579.838V23h-3.62V11.377Zm13.3-2.89v2.89h1.912v2.514h-1.912v5.317a1.358,1.358,0,0,0,.236.913,1.268,1.268,0,0,0,.935.258,5.311,5.311,0,0,0,.9-.064V22.9a6.681,6.681,0,0,1-2.041.312,3.792,3.792,0,0,1-2.761-.881,3.61,3.61,0,0,1-.892-2.675V13.891H-22.22V11.377h1.482V8.487ZM-9.963,23h-3.631V11.377h3.631ZM-13.809,8.369a1.63,1.63,0,0,1,.559-1.275,2.1,2.1,0,0,1,1.45-.5,2.1,2.1,0,0,1,1.45.5,1.63,1.63,0,0,1,.559,1.275,1.63,1.63,0,0,1-.559,1.275,2.1,2.1,0,0,1-1.45.5,2.1,2.1,0,0,1-1.45-.5A1.63,1.63,0,0,1-13.809,8.369Zm9.4,3.008.118,1.364A3.942,3.942,0,0,1-.972,11.162,3.316,3.316,0,0,1,1.74,12.247a5.165,5.165,0,0,1,.929,3.266V23H-.961V15.663a1.961,1.961,0,0,0-.354-1.294A1.64,1.64,0,0,0-2.6,13.955a1.726,1.726,0,0,0-1.579.838V23H-7.8V11.377ZM11.6,21.743a3.732,3.732,0,0,1-3.1,1.472A3.661,3.661,0,0,1,5.6,22.1a4.676,4.676,0,0,1-.983-3.2v-7.53h3.62v7.552a1.3,1.3,0,0,0,1.45,1.493,1.892,1.892,0,0,0,1.772-.892V11.377H15.1V23H11.7ZM20.9,23H17.268V11.377H20.9ZM17.053,8.369a1.63,1.63,0,0,1,.559-1.275,2.364,2.364,0,0,1,2.9,0,1.63,1.63,0,0,1,.559,1.275,1.63,1.63,0,0,1-.559,1.275,2.364,2.364,0,0,1-2.9,0A1.63,1.63,0,0,1,17.053,8.369ZM22.671,17.1a7.1,7.1,0,0,1,1.192-4.351,3.925,3.925,0,0,1,3.33-1.59,3.338,3.338,0,0,1,2.621,1.225V6.5h3.631V23H30.191l-.183-1.246a3.428,3.428,0,0,1-2.836,1.461,3.918,3.918,0,0,1-3.287-1.59A7.325,7.325,0,0,1,22.671,17.1Zm3.62.226q0,3.094,1.8,3.094a1.782,1.782,0,0,0,1.719-1.01V14.986a1.734,1.734,0,0,0-1.7-1.031q-1.676,0-1.815,2.707ZM42.05,23a4.088,4.088,0,0,1-.344-1.042,3.366,3.366,0,0,1-2.793,1.257,4.124,4.124,0,0,1-2.793-.994,3.163,3.163,0,0,1-1.149-2.5,3.251,3.251,0,0,1,1.4-2.857,7.114,7.114,0,0,1,4.061-.967h1.117v-.615q0-1.608-1.386-1.608a1.133,1.133,0,0,0-1.289,1.274H35.25a3.245,3.245,0,0,1,1.434-2.736,6.027,6.027,0,0,1,3.658-1.051,5.284,5.284,0,0,1,3.513,1.085,3.772,3.772,0,0,1,1.321,2.976v5.146a5.269,5.269,0,0,0,.494,2.449V23Zm-2.267-2.363a2.019,2.019,0,0,0,1.123-.29,1.818,1.818,0,0,0,.639-.655V17.833H40.493q-1.891,0-1.891,1.7a1.036,1.036,0,0,0,.333.8A1.205,1.205,0,0,0,39.784,20.637ZM46.723,17.1a7.1,7.1,0,0,1,1.192-4.351,3.925,3.925,0,0,1,3.33-1.59,3.338,3.338,0,0,1,2.621,1.225V6.5H57.5V23H54.243l-.183-1.246a3.428,3.428,0,0,1-2.836,1.461,3.918,3.918,0,0,1-3.287-1.59A7.325,7.325,0,0,1,46.723,17.1Zm3.62.226q0,3.094,1.8,3.094a1.782,1.782,0,0,0,1.719-1.01V14.986a1.734,1.734,0,0,0-1.7-1.031q-1.676,0-1.815,2.707Z" transform="translate(822 2322.629)" fill="#12263f"/>
    <path id="Trazado_199853" data-name="Trazado 199853" d="M-50.832-1.934A6.062,6.062,0,0,1-53.378-.376a10.981,10.981,0,0,1-3.674.591,6.551,6.551,0,0,1-4.909-1.88A7.61,7.61,0,0,1-63.927-6.9l-.011-1.354a9.334,9.334,0,0,1,.816-4.034,6.062,6.062,0,0,1,2.336-2.653,6.609,6.609,0,0,1,3.518-.929,6.929,6.929,0,0,1,4.539,1.337,5.667,5.667,0,0,1,1.885,3.991h-3.631a2.965,2.965,0,0,0-.838-1.869,2.7,2.7,0,0,0-1.826-.559,2.46,2.46,0,0,0-2.191,1.2,6.424,6.424,0,0,0-.784,3.438v.945a6.289,6.289,0,0,0,.8,3.518,2.831,2.831,0,0,0,2.519,1.176A3.168,3.168,0,0,0-54.6-3.341V-5.769h-2.621V-8.357h6.392ZM-43.184.215a5.975,5.975,0,0,1-4.329-1.6,5.509,5.509,0,0,1-1.654-4.152v-.3a7.138,7.138,0,0,1,.661-3.147,4.834,4.834,0,0,1,1.928-2.111,5.821,5.821,0,0,1,3.008-.747,5.031,5.031,0,0,1,3.867,1.52A5.973,5.973,0,0,1-38.285-6.08v1.407h-7.2a2.609,2.609,0,0,0,.849,1.536,2.525,2.525,0,0,0,1.7.559,3.254,3.254,0,0,0,2.686-1.2L-38.6-1.826A4.624,4.624,0,0,1-40.514-.338,6.48,6.48,0,0,1-43.184.215Zm-.408-9.26q-1.59,0-1.891,2.105h3.652v-.279a1.793,1.793,0,0,0-.44-1.348A1.753,1.753,0,0,0-43.592-9.045Zm12.848,5.779a.836.836,0,0,0-.483-.741,7.353,7.353,0,0,0-1.837-.58,8.376,8.376,0,0,1-2.234-.79,3.743,3.743,0,0,1-1.343-1.187,2.835,2.835,0,0,1-.462-1.6A3.212,3.212,0,0,1-35.782-10.8a5.443,5.443,0,0,1,3.459-1.037,6.03,6.03,0,0,1,3.7,1.042,3.258,3.258,0,0,1,1.4,2.739h-3.631q0-1.4-1.472-1.4a1.459,1.459,0,0,0-.956.317.981.981,0,0,0-.387.79.9.9,0,0,0,.473.784,4.466,4.466,0,0,0,1.509.494,13.043,13.043,0,0,1,1.821.462q2.621.9,2.621,3.233A3.044,3.044,0,0,1-28.666-.784a6.2,6.2,0,0,1-3.658,1,6.322,6.322,0,0,1-2.664-.537,4.455,4.455,0,0,1-1.826-1.461,3.308,3.308,0,0,1-.655-1.944h3.384a1.4,1.4,0,0,0,.537,1.176,2.209,2.209,0,0,0,1.321.371,1.738,1.738,0,0,0,1.112-.3A.962.962,0,0,0-30.744-3.266Zm9.4-11.247v2.89h1.912v2.514h-1.912v5.317a1.358,1.358,0,0,0,.236.913,1.268,1.268,0,0,0,.935.258,5.311,5.311,0,0,0,.9-.064V-.1a6.681,6.681,0,0,1-2.041.312,3.792,3.792,0,0,1-2.761-.881,3.61,3.61,0,0,1-.892-2.675V-9.109h-1.482v-2.514h1.482v-2.89ZM-14.19,0h-3.631V-11.623h3.631Zm-3.846-14.631a1.63,1.63,0,0,1,.559-1.275,2.1,2.1,0,0,1,1.45-.5,2.1,2.1,0,0,1,1.45.5,1.63,1.63,0,0,1,.559,1.275,1.63,1.63,0,0,1-.559,1.275,2.1,2.1,0,0,1-1.45.5,2.1,2.1,0,0,1-1.45-.5A1.63,1.63,0,0,1-18.036-14.631Zm5.618,8.712a6.86,6.86,0,0,1,.677-3.1A4.84,4.84,0,0,1-9.8-11.107a5.856,5.856,0,0,1,2.976-.73,5.344,5.344,0,0,1,4.114,1.617,6.2,6.2,0,0,1,1.5,4.4v.129A6.019,6.019,0,0,1-2.712-1.38,5.359,5.359,0,0,1-6.8.215a5.42,5.42,0,0,1-3.985-1.488,5.819,5.819,0,0,1-1.622-4.034Zm3.62.226a4.325,4.325,0,0,0,.5,2.363A1.682,1.682,0,0,0-6.8-2.578q1.934,0,1.977-2.976v-.365q0-3.126-2-3.126-1.815,0-1.966,2.7ZM-6.327-16.5H-2.5l-2.986,3.373-2.954-.005ZM3.717-11.623l.118,1.364a3.942,3.942,0,0,1,3.319-1.579,3.316,3.316,0,0,1,2.712,1.085A5.165,5.165,0,0,1,10.8-7.487V0H7.165V-7.337a1.961,1.961,0,0,0-.354-1.294,1.64,1.64,0,0,0-1.289-.414,1.726,1.726,0,0,0-1.579.838V0H.322V-11.623ZM17.821-5.9a7.1,7.1,0,0,1,1.192-4.351,3.925,3.925,0,0,1,3.33-1.59,3.338,3.338,0,0,1,2.621,1.225V-16.5H28.6V0H25.341l-.183-1.246A3.428,3.428,0,0,1,22.322.215a3.918,3.918,0,0,1-3.287-1.59A7.325,7.325,0,0,1,17.821-5.9Zm3.62.226q0,3.094,1.8,3.094a1.782,1.782,0,0,0,1.719-1.01V-8.014a1.734,1.734,0,0,0-1.7-1.031q-1.676,0-1.815,2.707ZM36.276.215a5.975,5.975,0,0,1-4.329-1.6,5.509,5.509,0,0,1-1.654-4.152v-.3a7.138,7.138,0,0,1,.661-3.147,4.834,4.834,0,0,1,1.928-2.111,5.821,5.821,0,0,1,3.008-.747,5.031,5.031,0,0,1,3.867,1.52A5.973,5.973,0,0,1,41.175-6.08v1.407h-7.2a2.609,2.609,0,0,0,.849,1.536,2.525,2.525,0,0,0,1.7.559,3.254,3.254,0,0,0,2.686-1.2l1.654,1.955A4.624,4.624,0,0,1,38.946-.338,6.48,6.48,0,0,1,36.276.215Zm-.408-9.26q-1.59,0-1.891,2.105H37.63v-.279a1.793,1.793,0,0,0-.44-1.348A1.753,1.753,0,0,0,35.868-9.045ZM51.928,0H48.3V-16.5h3.631ZM60.7,0a4.088,4.088,0,0,1-.344-1.042A3.366,3.366,0,0,1,57.567.215a4.124,4.124,0,0,1-2.793-.994,3.163,3.163,0,0,1-1.149-2.5,3.251,3.251,0,0,1,1.4-2.857A7.114,7.114,0,0,1,59.082-7.1H60.2v-.615q0-1.608-1.386-1.608A1.133,1.133,0,0,0,57.524-8.05H53.9a3.245,3.245,0,0,1,1.434-2.736A6.027,6.027,0,0,1,59-11.838a5.284,5.284,0,0,1,3.513,1.085A3.772,3.772,0,0,1,63.83-7.777v5.146a5.269,5.269,0,0,0,.494,2.449V0ZM58.438-2.363a2.019,2.019,0,0,0,1.123-.29,1.818,1.818,0,0,0,.639-.655V-5.167H59.146q-1.891,0-1.891,1.7a1.036,1.036,0,0,0,.333.8A1.205,1.205,0,0,0,58.438-2.363ZM-69.362,17.1a7.1,7.1,0,0,1,1.192-4.351,3.925,3.925,0,0,1,3.33-1.59,3.338,3.338,0,0,1,2.621,1.225V6.5h3.631V23h-3.255l-.183-1.246a3.428,3.428,0,0,1-2.836,1.461,3.918,3.918,0,0,1-3.287-1.59A7.325,7.325,0,0,1-69.362,17.1Zm3.62.226q0,3.094,1.8,3.094a1.782,1.782,0,0,0,1.719-1.01V14.986a1.734,1.734,0,0,0-1.7-1.031q-1.676,0-1.815,2.707ZM-52.712,23h-3.631V11.377h3.631ZM-56.558,8.369A1.63,1.63,0,0,1-56,7.094a2.1,2.1,0,0,1,1.45-.5,2.1,2.1,0,0,1,1.45.5,1.63,1.63,0,0,1,.559,1.275A1.63,1.63,0,0,1-53.1,9.644a2.1,2.1,0,0,1-1.45.5,2.1,2.1,0,0,1-1.45-.5A1.63,1.63,0,0,1-56.558,8.369ZM-44.4,19.734a.836.836,0,0,0-.483-.741,7.353,7.353,0,0,0-1.837-.58,8.376,8.376,0,0,1-2.234-.79,3.743,3.743,0,0,1-1.343-1.187,2.835,2.835,0,0,1-.462-1.6A3.212,3.212,0,0,1-49.436,12.2a5.443,5.443,0,0,1,3.459-1.037,6.03,6.03,0,0,1,3.7,1.042,3.258,3.258,0,0,1,1.4,2.739h-3.631q0-1.4-1.472-1.4a1.459,1.459,0,0,0-.956.317.981.981,0,0,0-.387.79.9.9,0,0,0,.473.784,4.466,4.466,0,0,0,1.509.494,13.042,13.042,0,0,1,1.821.462q2.621.9,2.621,3.233a3.044,3.044,0,0,1-1.413,2.589,6.2,6.2,0,0,1-3.658,1,6.322,6.322,0,0,1-2.664-.537,4.455,4.455,0,0,1-1.826-1.461,3.308,3.308,0,0,1-.655-1.944h3.384a1.4,1.4,0,0,0,.537,1.176,2.209,2.209,0,0,0,1.321.371,1.738,1.738,0,0,0,1.112-.3A.962.962,0,0,0-44.4,19.734Zm15.974-2.46A7.009,7.009,0,0,1-29.643,21.6a3.909,3.909,0,0,1-3.292,1.617,3.351,3.351,0,0,1-2.632-1.171v5.425h-3.62V11.377H-35.8l.107,1.074a3.351,3.351,0,0,1,2.739-1.289,3.941,3.941,0,0,1,3.341,1.584A7.1,7.1,0,0,1-28.424,17.1Zm-3.62-.226q0-3.094-1.8-3.094a1.7,1.7,0,0,0-1.719.924v4.576a1.759,1.759,0,0,0,1.74.967q1.729,0,1.783-2.986Zm4.759.032a6.86,6.86,0,0,1,.677-3.1,4.84,4.84,0,0,1,1.944-2.089,5.856,5.856,0,0,1,2.976-.73,5.344,5.344,0,0,1,4.114,1.617,6.2,6.2,0,0,1,1.5,4.4v.129A6.019,6.019,0,0,1-17.58,21.62a5.359,5.359,0,0,1-4.087,1.6,5.42,5.42,0,0,1-3.985-1.488,5.819,5.819,0,0,1-1.622-4.034Zm3.62.226a4.325,4.325,0,0,0,.5,2.363,1.682,1.682,0,0,0,1.493.752q1.934,0,1.977-2.976v-.365q0-3.126-2-3.126-1.815,0-1.966,2.7Zm12.515-5.93.118,1.364a3.942,3.942,0,0,1,3.319-1.579A3.316,3.316,0,0,1-5,12.247a5.165,5.165,0,0,1,.929,3.266V23H-7.7V15.663a1.961,1.961,0,0,0-.354-1.294,1.64,1.64,0,0,0-1.289-.414,1.726,1.726,0,0,0-1.579.838V23h-3.62V11.377ZM1.751,23H-1.88V11.377H1.751ZM-2.095,8.369a1.63,1.63,0,0,1,.559-1.275,2.1,2.1,0,0,1,1.45-.5,2.1,2.1,0,0,1,1.45.5,1.63,1.63,0,0,1,.559,1.275,1.63,1.63,0,0,1-.559,1.275,2.1,2.1,0,0,1-1.45.5,2.1,2.1,0,0,1-1.45-.5A1.63,1.63,0,0,1-2.095,8.369Zm16.865,8.916a7.084,7.084,0,0,1-1.182,4.394,3.958,3.958,0,0,1-3.33,1.536A3.435,3.435,0,0,1,7.4,21.808L7.251,23H4.007V6.5h3.62v5.812a3.314,3.314,0,0,1,2.61-1.149,3.959,3.959,0,0,1,3.352,1.558A7.121,7.121,0,0,1,14.771,17.1Zm-3.631-.231a4.725,4.725,0,0,0-.446-2.386,1.5,1.5,0,0,0-1.37-.713,1.733,1.733,0,0,0-1.7.933V19.5a1.743,1.743,0,0,0,1.719.922,1.537,1.537,0,0,0,1.622-1.244A8.933,8.933,0,0,0,11.14,17.054ZM20.185,23H16.554V11.377h3.631ZM16.339,8.369A1.63,1.63,0,0,1,16.9,7.094a2.364,2.364,0,0,1,2.9,0,1.63,1.63,0,0,1,.559,1.275A1.63,1.63,0,0,1,19.8,9.644a2.364,2.364,0,0,1-2.9,0A1.63,1.63,0,0,1,16.339,8.369ZM26.232,23H22.6V6.5h3.631Zm6.048,0H28.649V11.377H32.28ZM28.435,8.369a1.63,1.63,0,0,1,.559-1.275,2.364,2.364,0,0,1,2.9,0,1.63,1.63,0,0,1,.559,1.275,1.63,1.63,0,0,1-.559,1.275,2.364,2.364,0,0,1-2.9,0A1.63,1.63,0,0,1,28.435,8.369ZM34.053,17.1a7.1,7.1,0,0,1,1.192-4.351,3.925,3.925,0,0,1,3.33-1.59A3.338,3.338,0,0,1,41.2,12.387V6.5h3.631V23H41.572l-.183-1.246a3.428,3.428,0,0,1-2.836,1.461,3.918,3.918,0,0,1-3.287-1.59A7.325,7.325,0,0,1,34.053,17.1Zm3.62.226q0,3.094,1.8,3.094a1.782,1.782,0,0,0,1.719-1.01V14.986a1.734,1.734,0,0,0-1.7-1.031q-1.676,0-1.815,2.707ZM53.432,23a4.088,4.088,0,0,1-.344-1.042,3.366,3.366,0,0,1-2.793,1.257,4.124,4.124,0,0,1-2.793-.994,3.163,3.163,0,0,1-1.149-2.5,3.251,3.251,0,0,1,1.4-2.857A7.114,7.114,0,0,1,51.81,15.9h1.117v-.615q0-1.608-1.386-1.608a1.133,1.133,0,0,0-1.289,1.274h-3.62a3.245,3.245,0,0,1,1.434-2.736,6.027,6.027,0,0,1,3.658-1.051,5.284,5.284,0,0,1,3.513,1.085,3.772,3.772,0,0,1,1.321,2.976v5.146a5.269,5.269,0,0,0,.494,2.449V23Zm-2.267-2.363a2.019,2.019,0,0,0,1.123-.29,1.818,1.818,0,0,0,.639-.655V17.833H51.874q-1.891,0-1.891,1.7a1.036,1.036,0,0,0,.333.8A1.205,1.205,0,0,0,51.165,20.637ZM58.1,17.1A7.1,7.1,0,0,1,59.3,12.752a3.925,3.925,0,0,1,3.33-1.59,3.338,3.338,0,0,1,2.621,1.225V6.5h3.631V23H65.624l-.183-1.246a3.428,3.428,0,0,1-2.836,1.461,3.918,3.918,0,0,1-3.287-1.59A7.325,7.325,0,0,1,58.1,17.1Zm3.62.226q0,3.094,1.8,3.094a1.782,1.782,0,0,0,1.719-1.01V14.986a1.734,1.734,0,0,0-1.7-1.031q-1.676,0-1.815,2.707Z" transform="translate(822 2455.316)" fill="#12263f"/>
    <rect id="Rectángulo_46655" data-name="Rectángulo 46655" width="23" height="296" transform="translate(608.533 2178.388)" fill="#f59d36"/>
    <rect id="Rectángulo_46656" data-name="Rectángulo 46656" width="66" height="39" transform="translate(585.533 2311.388)" fill="#f59d36"/>
  </g>
</svg>
