<svg xmlns="http://www.w3.org/2000/svg" xmlns:xlink="http://www.w3.org/1999/xlink" width="865.619" height="308.586" viewBox="0 0 865.619 308.586">
  <defs>
    <linearGradient id="linear-gradient" x1="0.5" x2="0.5" y2="1" gradientUnits="objectBoundingBox">
      <stop offset="0" stop-color="#039be5"/>
      <stop offset="1" stop-color="#027fbc"/>
    </linearGradient>
    <linearGradient id="linear-gradient-5" x1="0.5" x2="0.5" y2="1" gradientUnits="objectBoundingBox">
      <stop offset="0" stop-color="#fff"/>
      <stop offset="1" stop-color="#d2e6ee"/>
    </linearGradient>
  </defs>
  <g id="Grupo_161581" data-name="Grupo 161581" transform="translate(-400.228 -2134.707)">
    <g id="Grupo_155381" data-name="Grupo 155381" transform="translate(-241.418 1361.436)">
      <g id="Grupo_146087" data-name="Grupo 146087" transform="translate(641.646 908.675)">
        <rect id="Rectángulo_37274" data-name="Rectángulo 37274" width="204.464" height="60.061" rx="10" transform="translate(1.155 0)" fill="url(#linear-gradient)"/>
        <g id="Rectángulo_37275" data-name="Rectángulo 37275" transform="translate(0 0)" fill="#fff" stroke="#1565c0" stroke-width="1">
          <rect width="56.596" height="60.061" rx="10" stroke="none"/>
          <rect x="0.5" y="0.5" width="55.596" height="59.061" rx="9.5" fill="none"/>
        </g>
        <path id="Trazado_199851" data-name="Trazado 199851" d="M-46.327-4.424h-1.984V0H-50.8V-12.086h4.491a5.076,5.076,0,0,1,3.3.955,3.3,3.3,0,0,1,1.162,2.7,3.718,3.718,0,0,1-.535,2.063A3.651,3.651,0,0,1-44-5.055l2.615,4.939V0h-2.673Zm-1.984-2.017H-46.3a2.057,2.057,0,0,0,1.453-.477,1.706,1.706,0,0,0,.515-1.316,1.826,1.826,0,0,0-.486-1.345,2.018,2.018,0,0,0-1.49-.49h-2ZM-35.976.166a4.409,4.409,0,0,1-3.217-1.212,4.308,4.308,0,0,1-1.241-3.229v-.232a5.426,5.426,0,0,1,.523-2.42,3.838,3.838,0,0,1,1.482-1.644,4.159,4.159,0,0,1,2.187-.577,3.727,3.727,0,0,1,2.9,1.162,4.722,4.722,0,0,1,1.058,3.3v.979H-38A2.229,2.229,0,0,0-37.3-2.3a2.12,2.12,0,0,0,1.482.531,2.589,2.589,0,0,0,2.167-1l1.179,1.32A3.6,3.6,0,0,1-33.934-.261,4.793,4.793,0,0,1-35.976.166Zm-.274-7.379a1.5,1.5,0,0,0-1.158.484,2.5,2.5,0,0,0-.569,1.384h3.337v-.192a1.786,1.786,0,0,0-.432-1.238A1.547,1.547,0,0,0-36.25-7.213Zm4.956,2.64a5.369,5.369,0,0,1,.942-3.345,3.08,3.08,0,0,1,2.586-1.229,2.758,2.758,0,0,1,2.3,1.1l.158-.938H-23.2V3.453h-2.407V-.772a2.765,2.765,0,0,1-2.175.938,3.057,3.057,0,0,1-2.557-1.245A5.632,5.632,0,0,1-31.294-4.574Zm2.4.17a3.522,3.522,0,0,0,.452,1.962,1.448,1.448,0,0,0,1.274.673,1.613,1.613,0,0,0,1.561-.881V-6.365a1.6,1.6,0,0,0-1.544-.848,1.466,1.466,0,0,0-1.287.673A3.889,3.889,0,0,0-28.9-4.4Zm12.958,3.49A3.008,3.008,0,0,1-18.395.166a2.837,2.837,0,0,1-2.2-.83A3.543,3.543,0,0,1-21.375-3.1V-8.981h2.4v5.809q0,1.4,1.278,1.4a1.732,1.732,0,0,0,1.677-.848V-8.981h2.407V0h-2.258ZM-9.272,0h-2.407V-8.981h2.407ZM-11.82-11.306a1.181,1.181,0,0,1,.361-.888,1.356,1.356,0,0,1,.984-.349,1.36,1.36,0,0,1,.979.349,1.175,1.175,0,0,1,.365.888,1.178,1.178,0,0,1-.369.9,1.363,1.363,0,0,1-.975.349,1.363,1.363,0,0,1-.975-.349A1.178,1.178,0,0,1-11.82-11.306Zm9.388,8.824a.773.773,0,0,0-.436-.693,4.95,4.95,0,0,0-1.4-.452q-3.2-.672-3.2-2.723a2.468,2.468,0,0,1,.992-2,4,4,0,0,1,2.594-.8,4.307,4.307,0,0,1,2.735.805A2.538,2.538,0,0,1-.125-6.25h-2.4A1.161,1.161,0,0,0-2.855-7.1a1.405,1.405,0,0,0-1.038-.336,1.436,1.436,0,0,0-.938.274.865.865,0,0,0-.332.7.739.739,0,0,0,.378.643A3.885,3.885,0,0,0-3.511-5.4,10.407,10.407,0,0,1-2-5,2.482,2.482,0,0,1-.1-2.582,2.343,2.343,0,0,1-1.154-.594a4.548,4.548,0,0,1-2.723.76,4.75,4.75,0,0,1-2-.4,3.363,3.363,0,0,1-1.374-1.1,2.565,2.565,0,0,1-.5-1.515h2.274a1.252,1.252,0,0,0,.473.979,1.877,1.877,0,0,0,1.179.34A1.737,1.737,0,0,0-2.785-1.8.814.814,0,0,0-2.432-2.482ZM3.976,0H1.569V-8.981H3.976ZM1.428-11.306a1.181,1.181,0,0,1,.361-.888,1.356,1.356,0,0,1,.984-.349,1.36,1.36,0,0,1,.979.349,1.175,1.175,0,0,1,.365.888,1.178,1.178,0,0,1-.369.9,1.363,1.363,0,0,1-.975.349,1.363,1.363,0,0,1-.975-.349A1.178,1.178,0,0,1,1.428-11.306Zm7.4.116v2.208h1.536v1.76H8.824v4.482a1.07,1.07,0,0,0,.191.714.959.959,0,0,0,.73.216,3.826,3.826,0,0,0,.706-.058V-.05A4.939,4.939,0,0,1,9,.166,2.29,2.29,0,0,1,6.425-2.382V-7.222H5.113v-1.76H6.425v-2.208Zm2.25,6.616a5.327,5.327,0,0,1,.515-2.382A3.768,3.768,0,0,1,13.07-8.575a4.323,4.323,0,0,1,2.245-.573,4.09,4.09,0,0,1,2.968,1.112,4.464,4.464,0,0,1,1.282,3.021l.017.614a4.694,4.694,0,0,1-1.154,3.316,4.011,4.011,0,0,1-3.1,1.249,4.031,4.031,0,0,1-3.1-1.245,4.777,4.777,0,0,1-1.158-3.387Zm2.4.17a3.357,3.357,0,0,0,.481,1.958,1.588,1.588,0,0,0,1.378.678,1.592,1.592,0,0,0,1.361-.669,3.674,3.674,0,0,0,.49-2.141,3.324,3.324,0,0,0-.49-1.945,1.592,1.592,0,0,0-1.378-.69,1.566,1.566,0,0,0-1.361.686A3.735,3.735,0,0,0,13.472-4.4ZM25.923-2.482a.773.773,0,0,0-.436-.693,4.95,4.95,0,0,0-1.4-.452q-3.2-.672-3.2-2.723a2.468,2.468,0,0,1,.992-2,4,4,0,0,1,2.594-.8,4.307,4.307,0,0,1,2.735.805A2.538,2.538,0,0,1,28.231-6.25h-2.4A1.161,1.161,0,0,0,25.5-7.1a1.405,1.405,0,0,0-1.038-.336,1.436,1.436,0,0,0-.938.274.865.865,0,0,0-.332.7.739.739,0,0,0,.378.643,3.885,3.885,0,0,0,1.274.423,10.407,10.407,0,0,1,1.511.4,2.482,2.482,0,0,1,1.9,2.416A2.343,2.343,0,0,1,27.2-.594a4.548,4.548,0,0,1-2.723.76,4.75,4.75,0,0,1-2-.4,3.363,3.363,0,0,1-1.374-1.1,2.565,2.565,0,0,1-.5-1.515h2.274a1.252,1.252,0,0,0,.473.979,1.877,1.877,0,0,0,1.179.34A1.737,1.737,0,0,0,25.571-1.8.814.814,0,0,0,25.923-2.482ZM33.66-4.557A5.413,5.413,0,0,1,34.6-7.9a3.057,3.057,0,0,1,2.577-1.245,2.751,2.751,0,0,1,2.167.979V-12.75h2.407V0H39.586L39.47-.955A2.823,2.823,0,0,1,37.163.166a3.049,3.049,0,0,1-2.544-1.249A5.587,5.587,0,0,1,33.66-4.557Zm2.4.171a3.565,3.565,0,0,0,.44,1.943,1.432,1.432,0,0,0,1.278.675,1.6,1.6,0,0,0,1.569-.942V-6.271a1.582,1.582,0,0,0-1.552-.942Q36.059-7.213,36.059-4.386ZM47.746.166A4.409,4.409,0,0,1,44.53-1.046a4.308,4.308,0,0,1-1.241-3.229v-.232a5.426,5.426,0,0,1,.523-2.42,3.838,3.838,0,0,1,1.482-1.644,4.159,4.159,0,0,1,2.187-.577,3.727,3.727,0,0,1,2.9,1.162,4.722,4.722,0,0,1,1.058,3.3v.979H45.721a2.229,2.229,0,0,0,.7,1.411,2.12,2.12,0,0,0,1.482.531,2.589,2.589,0,0,0,2.167-1l1.179,1.32A3.6,3.6,0,0,1,49.788-.261,4.793,4.793,0,0,1,47.746.166Zm-.274-7.379a1.5,1.5,0,0,0-1.158.484,2.5,2.5,0,0,0-.569,1.384h3.337v-.192a1.786,1.786,0,0,0-.432-1.238A1.547,1.547,0,0,0,47.472-7.213ZM-34.5,16.232a1.573,1.573,0,0,0,1.079-.365,1.28,1.28,0,0,0,.432-.971h2.25a3.077,3.077,0,0,1-.5,1.673,3.286,3.286,0,0,1-1.341,1.179,4.2,4.2,0,0,1-1.88.419,3.9,3.9,0,0,1-3.038-1.224,4.845,4.845,0,0,1-1.112-3.383V13.4a4.79,4.79,0,0,1,1.1-3.312,3.854,3.854,0,0,1,3.03-1.237,3.778,3.778,0,0,1,2.7.959,3.4,3.4,0,0,1,1.033,2.552h-2.25a1.648,1.648,0,0,0-.432-1.139,1.439,1.439,0,0,0-1.1-.438,1.445,1.445,0,0,0-1.266.611,3.541,3.541,0,0,0-.427,1.983v.249a3.586,3.586,0,0,0,.423,2A1.463,1.463,0,0,0-34.5,16.232ZM-24.164,18a2.664,2.664,0,0,1-.241-.805,2.9,2.9,0,0,1-2.266.971,3.189,3.189,0,0,1-2.187-.764,2.456,2.456,0,0,1-.867-1.926,2.538,2.538,0,0,1,1.058-2.191,5.222,5.222,0,0,1,3.059-.772h1.1V12a1.48,1.48,0,0,0-.32-1,1.257,1.257,0,0,0-1.009-.374,1.429,1.429,0,0,0-.95.291.987.987,0,0,0-.344.8h-2.4a2.41,2.41,0,0,1,.481-1.444A3.182,3.182,0,0,1-27.683,9.23a4.961,4.961,0,0,1,1.976-.378,3.92,3.92,0,0,1,2.635.834,2.918,2.918,0,0,1,.975,2.345v3.893a4.294,4.294,0,0,0,.357,1.934V18Zm-1.984-1.668a2.066,2.066,0,0,0,.979-.237,1.554,1.554,0,0,0,.664-.635V13.916h-.9q-1.8,0-1.917,1.245l-.008.141a.96.96,0,0,0,.315.739A1.225,1.225,0,0,0-26.147,16.332Zm13.979-2.739a5.387,5.387,0,0,1-.942,3.324,3.021,3.021,0,0,1-2.544,1.249,2.8,2.8,0,0,1-2.2-.946v4.233h-2.4V9.019h2.225l.083.88a2.819,2.819,0,0,1,2.274-1.046,3.041,3.041,0,0,1,2.582,1.229,5.532,5.532,0,0,1,.921,3.387Zm-2.4-.183a3.554,3.554,0,0,0-.444-1.94,1.445,1.445,0,0,0-1.291-.683,1.57,1.57,0,0,0-1.552.866v3.689a1.6,1.6,0,0,0,1.569.891Q-14.568,16.232-14.568,13.409ZM-5.479,18a2.664,2.664,0,0,1-.241-.805,2.9,2.9,0,0,1-2.266.971,3.189,3.189,0,0,1-2.187-.764,2.456,2.456,0,0,1-.867-1.926,2.538,2.538,0,0,1,1.058-2.191,5.222,5.222,0,0,1,3.059-.772h1.1V12a1.48,1.48,0,0,0-.32-1,1.257,1.257,0,0,0-1.009-.374,1.429,1.429,0,0,0-.95.291.987.987,0,0,0-.344.8h-2.4a2.41,2.41,0,0,1,.481-1.444A3.182,3.182,0,0,1-9,9.23a4.961,4.961,0,0,1,1.976-.378,3.92,3.92,0,0,1,2.635.834,2.918,2.918,0,0,1,.975,2.345v3.893a4.294,4.294,0,0,0,.357,1.934V18Zm-1.984-1.668a2.066,2.066,0,0,0,.979-.237,1.554,1.554,0,0,0,.664-.635V13.916h-.9q-1.8,0-1.917,1.245l-.008.141a.96.96,0,0,0,.315.739A1.225,1.225,0,0,0-7.462,16.332Zm9.629-.1a1.573,1.573,0,0,0,1.079-.365,1.28,1.28,0,0,0,.432-.971h2.25a3.077,3.077,0,0,1-.5,1.673,3.286,3.286,0,0,1-1.341,1.179,4.2,4.2,0,0,1-1.88.419A3.9,3.9,0,0,1-.83,16.942a4.845,4.845,0,0,1-1.112-3.383V13.4a4.79,4.79,0,0,1,1.1-3.312,3.854,3.854,0,0,1,3.03-1.237,3.778,3.778,0,0,1,2.7.959,3.4,3.4,0,0,1,1.033,2.552H3.677a1.648,1.648,0,0,0-.432-1.139,1.439,1.439,0,0,0-1.1-.438A1.445,1.445,0,0,0,.884,11.4,3.541,3.541,0,0,0,.457,13.38v.249a3.586,3.586,0,0,0,.423,2A1.463,1.463,0,0,0,2.167,16.232ZM9.828,18H7.421V9.019H9.828ZM7.28,6.694a1.181,1.181,0,0,1,.361-.888,1.356,1.356,0,0,1,.984-.349,1.36,1.36,0,0,1,.979.349,1.175,1.175,0,0,1,.365.888,1.178,1.178,0,0,1-.369.9,1.363,1.363,0,0,1-.975.349,1.363,1.363,0,0,1-.975-.349A1.178,1.178,0,0,1,7.28,6.694Zm4.15,6.749a5.413,5.413,0,0,1,.942-3.345A3.057,3.057,0,0,1,14.95,8.853a2.751,2.751,0,0,1,2.167.979V5.25h2.407V18H17.357l-.116-.955a2.823,2.823,0,0,1-2.308,1.121,3.049,3.049,0,0,1-2.544-1.249A5.587,5.587,0,0,1,11.43,13.443Zm2.4.171a3.565,3.565,0,0,0,.44,1.943,1.432,1.432,0,0,0,1.278.675,1.6,1.6,0,0,0,1.569-.942V11.729a1.582,1.582,0,0,0-1.552-.942Q13.829,10.787,13.829,13.614ZM26.587,18a2.664,2.664,0,0,1-.241-.805,2.9,2.9,0,0,1-2.266.971,3.189,3.189,0,0,1-2.187-.764,2.456,2.456,0,0,1-.867-1.926,2.538,2.538,0,0,1,1.058-2.191,5.222,5.222,0,0,1,3.059-.772h1.1V12a1.48,1.48,0,0,0-.32-1,1.257,1.257,0,0,0-1.009-.374,1.429,1.429,0,0,0-.95.291.987.987,0,0,0-.344.8h-2.4a2.41,2.41,0,0,1,.481-1.444A3.182,3.182,0,0,1,23.068,9.23a4.961,4.961,0,0,1,1.976-.378,3.92,3.92,0,0,1,2.635.834,2.918,2.918,0,0,1,.975,2.345v3.893a4.294,4.294,0,0,0,.357,1.934V18ZM24.6,16.332a2.066,2.066,0,0,0,.979-.237,1.554,1.554,0,0,0,.664-.635V13.916h-.9q-1.8,0-1.917,1.245l-.008.141a.96.96,0,0,0,.315.739A1.225,1.225,0,0,0,24.6,16.332Zm5.52-2.889a5.413,5.413,0,0,1,.942-3.345,3.057,3.057,0,0,1,2.577-1.245,2.751,2.751,0,0,1,2.167.979V5.25h2.407V18H36.05l-.116-.955a2.823,2.823,0,0,1-2.308,1.121,3.049,3.049,0,0,1-2.544-1.249A5.587,5.587,0,0,1,30.124,13.443Zm2.4.171a3.565,3.565,0,0,0,.44,1.943,1.432,1.432,0,0,0,1.278.675,1.6,1.6,0,0,0,1.569-.942V11.729a1.582,1.582,0,0,0-1.552-.942Q32.522,10.787,32.522,13.614Z" transform="translate(125.742 26.599)" fill="#fff"/>
        <g id="cBpRW6" transform="translate(-4948.979 -846.635)">
          <g id="Grupo_143032" data-name="Grupo 143032" transform="translate(4955.523 852.734)">
            <path id="Trazado_184068" data-name="Trazado 184068" d="M4962.55,862.669a10.494,10.494,0,0,1,2.548-6.4,10.252,10.252,0,0,1,16.019.66,1.161,1.161,0,0,0,1.068.546,8.912,8.912,0,0,1,8.171,4.744,1.464,1.464,0,0,0,.824.643,7.776,7.776,0,0,1,6.033,7.8,7.689,7.689,0,0,1-6.864,7.4c-.324.039-.647.086-1.08.143,0,.521-.021,1.033,0,1.542.035.686-.246,1.076-.951,1-.622-.07-.891.177-1,.769a4.019,4.019,0,0,1-.414,1.067c-.375.734-.825,1.433.145,2.106.12.083.053.71-.126.9-.908.99-1.88,1.922-2.833,2.87a.746.746,0,0,1-1.258-.095c-.376-.491-.725-.459-1.246-.182-.741.4-1.553.66-2.348.986-.2,1.571-.2,1.571-2.157,1.726v3.658c.041.028.083.083.126.083,1.7.033,1.672-.109,1.662,1.776,0,.8-.018,1.592,0,2.387.019.623-.261.92-.875.92-1.069,0-2.14-.005-3.21,0-.646,0-.953-.273-.937-.945.024-1.015,0-2.031.009-3.046.006-.966.105-1.055,1.109-1.07.214,0,.428-.018.686-.03v-3.723c-.588-.052-1.276.076-1.676-.206-.362-.256-.409-.958-.635-1.57-.758-.332-1.668-.762-2.607-1.113-.187-.07-.539.1-.726.265-.718.63-.894.648-1.567-.019-.78-.772-1.554-1.551-2.329-2.328-.828-.83-.827-.913.008-1.785.093-.1.179-.2.236-.268-.369-.955-.694-1.882-1.1-2.773a.883.883,0,0,0-.7-.339c-.814.024-1.168-.3-1.1-1.126.038-.46.007-.925.007-1.472a7.957,7.957,0,0,1-6.376-3.112,7.453,7.453,0,0,1-1.569-4.749A7.818,7.818,0,0,1,4962.55,862.669Zm26.718,14.124a13.45,13.45,0,0,0,1.582-.167,6.3,6.3,0,0,0,4.986-6.375,6.218,6.218,0,0,0-5.3-6.094,1.517,1.517,0,0,1-1.253-.974,7.406,7.406,0,0,0-7.629-4.294,1.112,1.112,0,0,1-1.227-.557,8.906,8.906,0,0,0-16.5,4.583c-.026.785-.236,1.105-1.077,1.147a6.353,6.353,0,0,0-1.125,12.515,13.845,13.845,0,0,0,1.649.211c.179-1.38.182-1.373,1.54-1.725a.662.662,0,0,0,.368-.359c.373-.9.719-1.815,1.086-2.758-.087-.093-.2-.214-.311-.331-.756-.777-.756-.882.017-1.659.658-.661,1.324-1.315,1.978-1.98,1.078-1.1,1.129-1.275,2.327-.065.033.034.1.038.056.023.852-.35,1.618-.721,2.422-.976.527-.167.786-.379.7-.963-.071-.51.057-.961.7-.966,1.4-.011,2.8-.034,4.2.025.246.01.7.43.674.6-.157,1,.422,1.233,1.2,1.46a16.39,16.39,0,0,1,1.965.853c.112-.1.234-.212.351-.325.784-.758.937-.755,1.73.038l1.979,1.978c1.092,1.092,1.092,1.091.043,2.252a.272.272,0,0,0-.045.108,22.872,22.872,0,0,1,.979,2.375c.166.566.41.755.97.694.644-.07.984.24.962.908C4989.262,876.21,4989.268,876.425,4989.268,876.794Zm-22.008-5.957c.834,1,.8.98.184,2.228a15.8,15.8,0,0,0-.957,2.518c-.174.592-.431.916-1.076.856a2.482,2.482,0,0,0-.541.067v2.9c1.153-.273,1.526.342,1.738,1.315a8.69,8.69,0,0,0,.821,2.046c.629,1.235.653,1.223-.178,2.249l1.988,2.045c1.04-.872,1.028-.851,2.23-.228a9.218,9.218,0,0,0,1.963.816c.961.24,1.794.481,1.414,1.786h2.94c.164-1.372.178-1.336.74-1.559,1.139-.451,2.249-.976,3.4-1.4a1.676,1.676,0,0,1,1.012.12c.21.073.36.317.549.5l2.021-2.069c-.854-1.02-.832-1.009-.193-2.262a9.341,9.341,0,0,0,.8-1.969c.232-.947.517-1.712,1.747-1.389V876.4c-1.266.343-1.5-.447-1.762-1.373a11.827,11.827,0,0,0-1.091-2.462.94.94,0,0,1,.177-1.367,2.2,2.2,0,0,0,.289-.35l-1.975-2.081c-.518.349-.823,1.051-1.686.589-1.049-.562-2.216-.9-3.3-1.4a1.68,1.68,0,0,1-.637-.8,2,2,0,0,1-.018-.757h-3.033c.441,1.334-.407,1.56-1.376,1.79a6.175,6.175,0,0,0-1.883.788c-.857.552-1.614.893-2.271-.261Zm8.015,25.173V898.3h2.187v-2.291Z" transform="translate(-4955.523 -852.734)" fill="#12263f"/>
            <path id="Trazado_184069" data-name="Trazado 184069" d="M5157.521,1059.7c-1.4,0-2.768-.008-4.131,0-.5,0-1.011-.045-1.007-.668s.5-.679,1.012-.675c1.508.012,3.017.023,4.523,0,.756-.014,1.014.323,1.007,1.046-.021,2.3-.008,4.6-.008,6.872.077.066.117.13.157.13,1.938-.04,1.656.2,1.67,1.847.006.768-.021,1.536.008,2.3.024.68-.3.942-.941.938-1.042-.007-2.085-.015-3.126,0-.7.011-.992-.319-.981-1,.017-.959,0-1.919,0-2.879,0-1.047.126-1.167,1.179-1.182.191,0,.382-.017.634-.028Zm1.831,10.368v-2.274h-2.206v2.274Z" transform="translate(-5119.965 -1024.493)" fill="#12263f"/>
            <path id="Trazado_184070" data-name="Trazado 184070" d="M4967.936,1059.719c0,2.11,0,4.106,0,6.1,0,.186.017.372.025.545,1.812.252,1.812.252,1.812,2.123,0,.712-.015,1.426.005,2.137a.744.744,0,0,1-.829.878q-1.685.014-3.371,0c-.576,0-.833-.313-.827-.886.011-1.014,0-2.028,0-3.042s.109-1.108,1.139-1.127c.212,0,.424-.023.714-.04v-6.6c0-1.426,0-1.426,1.416-1.426,1.4,0,2.8.008,4.193,0,.507,0,.9.149.891.711-.01.529-.407.635-.87.631C4970.844,1059.712,4969.451,1059.719,4967.936,1059.719Zm-1.757,8.1v2.265h2.189v-2.265Z" transform="translate(-4963.233 -1024.515)" fill="#12263f"/>
            <path id="Trazado_184071" data-name="Trazado 184071" d="M5025.321,872.632a9.033,9.033,0,0,1,4.3,1.215c.452.264.792.6.463,1.115-.311.489-.756.293-1.157.054a6.786,6.786,0,0,0-4.982-.875c-2.591.54-4.038,2.369-4.4,5.442-.057.483-.067,1.018-.713.975-.669-.044-.686-.588-.649-1.113A6.992,6.992,0,0,1,5025.321,872.632Z" transform="translate(-5007.856 -869.355)" fill="#12263f"/>
            <path id="Trazado_184072" data-name="Trazado 184072" d="M5041.008,971.371a6.735,6.735,0,0,0,6.671-6.484c.026-.524.155-1,.75-.956.616.042.623.572.6,1.066a8.118,8.118,0,0,1-16.222-.655c.139-4.295,3.749-7.932,7.832-7.855a1.206,1.206,0,0,1,.873.414c.287.43-.1.843-.777.892a6.79,6.79,0,0,0,.27,13.577Z" transform="translate(-5020.08 -939.401)" fill="#12263f"/>
            <path id="Trazado_184073" data-name="Trazado 184073" d="M5065.267,984.573a4.1,4.1,0,0,1-3.757,4.148c-.47.047-.935.034-1.016-.545-.089-.632.371-.755.882-.815a2.755,2.755,0,0,0,2.561-2.722,2.8,2.8,0,0,0-5.584-.324c-.059.519-.132.974-.765.917-.669-.061-.6-.6-.568-1.072a4.134,4.134,0,0,1,8.247.413Z" transform="translate(-5040.292 -959.406)" fill="#12263f"/>
          </g>
        </g>
      </g>
    </g>
    <g id="Grupo_161575" data-name="Grupo 161575" transform="translate(418.582 1361.436)">
      <g id="Grupo_146087-2" data-name="Grupo 146087" transform="translate(641.646 908.675)">
        <rect id="Rectángulo_37274-2" data-name="Rectángulo 37274" width="204.464" height="60.061" rx="10" transform="translate(1.155 0)" fill="url(#linear-gradient)"/>
        <g id="Rectángulo_37275-2" data-name="Rectángulo 37275" transform="translate(0 0)" fill="#fff" stroke="#1565c0" stroke-width="1">
          <rect width="56.596" height="60.061" rx="10" stroke="none"/>
          <rect x="0.5" y="0.5" width="55.596" height="59.061" rx="9.5" fill="none"/>
        </g>
        <path id="Trazado_199854" data-name="Trazado 199854" d="M-32.423-1.527a4.322,4.322,0,0,1-1.9,1.249,7.961,7.961,0,0,1-2.723.444A5.393,5.393,0,0,1-39.8-.519a4.568,4.568,0,0,1-1.826-1.988,7,7,0,0,1-.66-3.063v-.822a7.431,7.431,0,0,1,.61-3.134,4.513,4.513,0,0,1,1.76-2.025,5.069,5.069,0,0,1,2.694-.7,5.048,5.048,0,0,1,3.362,1.025,4.381,4.381,0,0,1,1.436,2.984h-2.424a2.41,2.41,0,0,0-.735-1.519,2.346,2.346,0,0,0-1.565-.481,2.208,2.208,0,0,0-1.934.955,5.02,5.02,0,0,0-.672,2.839v.772a4.778,4.778,0,0,0,.722,2.872,2.473,2.473,0,0,0,2.117.971,2.762,2.762,0,0,0,2-.6V-4.516h-2.266V-6.35h4.756ZM-26.43.166a4.409,4.409,0,0,1-3.217-1.212,4.308,4.308,0,0,1-1.241-3.229v-.232a5.426,5.426,0,0,1,.523-2.42,3.838,3.838,0,0,1,1.482-1.644A4.159,4.159,0,0,1-26.7-9.147a3.727,3.727,0,0,1,2.9,1.162,4.722,4.722,0,0,1,1.058,3.3v.979h-5.719a2.229,2.229,0,0,0,.7,1.411,2.12,2.12,0,0,0,1.482.531,2.589,2.589,0,0,0,2.167-1l1.179,1.32A3.6,3.6,0,0,1-24.388-.261,4.793,4.793,0,0,1-26.43.166ZM-26.7-7.213a1.5,1.5,0,0,0-1.158.484,2.5,2.5,0,0,0-.569,1.384h3.337v-.192a1.786,1.786,0,0,0-.432-1.238A1.547,1.547,0,0,0-26.7-7.213ZM-16.51-2.482a.773.773,0,0,0-.436-.693,4.95,4.95,0,0,0-1.4-.452q-3.2-.672-3.2-2.723a2.468,2.468,0,0,1,.992-2,4,4,0,0,1,2.594-.8,4.307,4.307,0,0,1,2.735.805A2.538,2.538,0,0,1-14.2-6.25h-2.4a1.161,1.161,0,0,0-.332-.851,1.405,1.405,0,0,0-1.038-.336,1.436,1.436,0,0,0-.938.274.865.865,0,0,0-.332.7.739.739,0,0,0,.378.643,3.885,3.885,0,0,0,1.274.423,10.407,10.407,0,0,1,1.511.4,2.482,2.482,0,0,1,1.9,2.416A2.343,2.343,0,0,1-15.232-.594a4.548,4.548,0,0,1-2.723.76,4.75,4.75,0,0,1-2-.4,3.363,3.363,0,0,1-1.374-1.1,2.565,2.565,0,0,1-.5-1.515h2.274a1.252,1.252,0,0,0,.473.979,1.877,1.877,0,0,0,1.179.34A1.737,1.737,0,0,0-16.863-1.8.814.814,0,0,0-16.51-2.482Zm6.749-8.708v2.208h1.536v1.76H-9.762v4.482a1.07,1.07,0,0,0,.191.714.959.959,0,0,0,.73.216,3.826,3.826,0,0,0,.706-.058V-.05A4.939,4.939,0,0,1-9.587.166a2.29,2.29,0,0,1-2.573-2.548V-7.222h-1.312v-1.76h1.312v-2.208ZM-4.358,0H-6.765V-8.981h2.407ZM-6.906-11.306a1.181,1.181,0,0,1,.361-.888,1.356,1.356,0,0,1,.984-.349,1.36,1.36,0,0,1,.979.349,1.175,1.175,0,0,1,.365.888,1.178,1.178,0,0,1-.369.9,1.363,1.363,0,0,1-.975.349,1.363,1.363,0,0,1-.975-.349A1.178,1.178,0,0,1-6.906-11.306Zm4.15,6.732a5.327,5.327,0,0,1,.515-2.382A3.768,3.768,0,0,1-.76-8.575a4.323,4.323,0,0,1,2.245-.573A4.09,4.09,0,0,1,4.453-8.035,4.464,4.464,0,0,1,5.736-5.014l.017.614A4.694,4.694,0,0,1,4.6-1.083,4.011,4.011,0,0,1,1.5.166,4.031,4.031,0,0,1-1.6-1.079,4.777,4.777,0,0,1-2.756-4.466Zm2.4.17A3.357,3.357,0,0,0,.125-2.446,1.588,1.588,0,0,0,1.5-1.768a1.592,1.592,0,0,0,1.361-.669,3.674,3.674,0,0,0,.49-2.141,3.324,3.324,0,0,0-.49-1.945,1.592,1.592,0,0,0-1.378-.69,1.566,1.566,0,0,0-1.361.686A3.735,3.735,0,0,0-.357-4.4ZM1.959-12.75H4.574l-2.3,2.573H.324ZM9.438-8.981l.075,1.038a3.136,3.136,0,0,1,2.582-1.2,2.606,2.606,0,0,1,2.125.838A3.912,3.912,0,0,1,14.933-5.8V0h-2.4V-5.757A1.562,1.562,0,0,0,12.2-6.868a1.484,1.484,0,0,0-1.1-.345,1.65,1.65,0,0,0-1.519.865V0H7.18V-8.981ZM20.611-4.557A5.413,5.413,0,0,1,21.553-7.9,3.057,3.057,0,0,1,24.13-9.147a2.751,2.751,0,0,1,2.167.979V-12.75H28.7V0H26.538l-.116-.955A2.823,2.823,0,0,1,24.114.166,3.049,3.049,0,0,1,21.57-1.083,5.587,5.587,0,0,1,20.611-4.557Zm2.4.171a3.565,3.565,0,0,0,.44,1.943,1.432,1.432,0,0,0,1.278.675A1.6,1.6,0,0,0,26.3-2.71V-6.271a1.582,1.582,0,0,0-1.552-.942Q23.01-7.213,23.01-4.386ZM34.7.166a4.409,4.409,0,0,1-3.217-1.212A4.308,4.308,0,0,1,30.24-4.275v-.232a5.426,5.426,0,0,1,.523-2.42,3.838,3.838,0,0,1,1.482-1.644,4.159,4.159,0,0,1,2.187-.577,3.727,3.727,0,0,1,2.9,1.162,4.722,4.722,0,0,1,1.058,3.3v.979H32.672a2.229,2.229,0,0,0,.7,1.411,2.12,2.12,0,0,0,1.482.531,2.589,2.589,0,0,0,2.167-1L38.2-1.453A3.6,3.6,0,0,1,36.739-.261,4.793,4.793,0,0,1,34.7.166Zm-.274-7.379a1.5,1.5,0,0,0-1.158.484A2.5,2.5,0,0,0,32.7-5.346h3.337v-.192A1.786,1.786,0,0,0,35.6-6.776,1.547,1.547,0,0,0,34.423-7.213ZM-40.881,18h-2.407V5.25h2.407Zm7.18,0a2.664,2.664,0,0,1-.241-.805,2.9,2.9,0,0,1-2.266.971A3.189,3.189,0,0,1-38.4,17.4a2.456,2.456,0,0,1-.867-1.926A2.538,2.538,0,0,1-38.2,13.285a5.222,5.222,0,0,1,3.059-.772h1.1V12a1.48,1.48,0,0,0-.32-1,1.257,1.257,0,0,0-1.009-.374,1.429,1.429,0,0,0-.95.291.987.987,0,0,0-.344.8h-2.4a2.41,2.41,0,0,1,.481-1.444A3.182,3.182,0,0,1-37.221,9.23a4.961,4.961,0,0,1,1.976-.378,3.92,3.92,0,0,1,2.635.834,2.918,2.918,0,0,1,.975,2.345v3.893a4.294,4.294,0,0,0,.357,1.934V18Zm-1.984-1.668a2.066,2.066,0,0,0,.979-.237,1.554,1.554,0,0,0,.664-.635V13.916h-.9q-1.8,0-1.917,1.245l-.008.141a.96.96,0,0,0,.315.739A1.225,1.225,0,0,0-35.685,16.332Zm9.753-2.889A5.413,5.413,0,0,1-24.99,10.1a3.057,3.057,0,0,1,2.577-1.245,2.751,2.751,0,0,1,2.167.979V5.25h2.407V18H-20l-.116-.955a2.823,2.823,0,0,1-2.308,1.121,3.049,3.049,0,0,1-2.544-1.249A5.587,5.587,0,0,1-25.932,13.443Zm2.4.171a3.565,3.565,0,0,0,.44,1.943,1.432,1.432,0,0,0,1.278.675,1.6,1.6,0,0,0,1.569-.942V11.729a1.582,1.582,0,0,0-1.552-.942Q-23.533,10.787-23.533,13.614Zm11.688,4.552a4.409,4.409,0,0,1-3.217-1.212A4.308,4.308,0,0,1-16.3,13.725v-.232a5.426,5.426,0,0,1,.523-2.42A3.838,3.838,0,0,1-14.3,9.429a4.159,4.159,0,0,1,2.187-.577,3.727,3.727,0,0,1,2.9,1.162,4.722,4.722,0,0,1,1.058,3.3v.979h-5.719a2.229,2.229,0,0,0,.7,1.411,2.12,2.12,0,0,0,1.482.531,2.589,2.589,0,0,0,2.167-1l1.179,1.32A3.6,3.6,0,0,1-9.8,17.739,4.793,4.793,0,0,1-11.845,18.166Zm-.274-7.379a1.5,1.5,0,0,0-1.158.484,2.5,2.5,0,0,0-.569,1.384h3.337v-.192a1.786,1.786,0,0,0-.432-1.238A1.547,1.547,0,0,0-12.119,10.787Zm7.579-1.768.075,1a3.156,3.156,0,0,1,2.582-1.17A2.4,2.4,0,0,1,.5,10.222a3.084,3.084,0,0,1,2.7-1.37A2.679,2.679,0,0,1,5.371,9.7a3.911,3.911,0,0,1,.714,2.561V18H3.677V12.259a1.717,1.717,0,0,0-.3-1.119,1.322,1.322,0,0,0-1.054-.354A1.5,1.5,0,0,0,.83,11.818L.838,18h-2.4V12.268a1.7,1.7,0,0,0-.307-1.132,1.335,1.335,0,0,0-1.046-.349,1.554,1.554,0,0,0-1.478.849V18h-2.4V9.019ZM13.132,18a2.664,2.664,0,0,1-.241-.805,2.9,2.9,0,0,1-2.266.971A3.189,3.189,0,0,1,8.438,17.4a2.456,2.456,0,0,1-.867-1.926,2.538,2.538,0,0,1,1.058-2.191,5.222,5.222,0,0,1,3.059-.772h1.1V12a1.48,1.48,0,0,0-.32-1,1.257,1.257,0,0,0-1.009-.374,1.429,1.429,0,0,0-.95.291.987.987,0,0,0-.344.8H7.77a2.41,2.41,0,0,1,.481-1.444A3.182,3.182,0,0,1,9.612,9.23a4.961,4.961,0,0,1,1.976-.378,3.92,3.92,0,0,1,2.635.834,2.918,2.918,0,0,1,.975,2.345v3.893a4.294,4.294,0,0,0,.357,1.934V18Zm-1.984-1.668a2.066,2.066,0,0,0,.979-.237,1.554,1.554,0,0,0,.664-.635V13.916h-.9q-1.8,0-1.917,1.245l-.008.141a.96.96,0,0,0,.315.739A1.225,1.225,0,0,0,11.148,16.332Zm8.1-7.313.075,1.038a3.136,3.136,0,0,1,2.582-1.2,2.606,2.606,0,0,1,2.125.838,3.912,3.912,0,0,1,.714,2.507V18h-2.4V12.243a1.562,1.562,0,0,0-.332-1.111,1.484,1.484,0,0,0-1.1-.345,1.65,1.65,0,0,0-1.519.865V18h-2.4V9.019Zm6.939,4.424a5.413,5.413,0,0,1,.942-3.345,3.057,3.057,0,0,1,2.577-1.245,2.751,2.751,0,0,1,2.167.979V5.25h2.407V18H32.116L32,17.045a2.823,2.823,0,0,1-2.308,1.121,3.049,3.049,0,0,1-2.544-1.249A5.587,5.587,0,0,1,26.189,13.443Zm2.4.171a3.565,3.565,0,0,0,.44,1.943,1.432,1.432,0,0,0,1.278.675,1.6,1.6,0,0,0,1.569-.942V11.729a1.582,1.582,0,0,0-1.552-.942Q28.588,10.787,28.588,13.614ZM41.346,18a2.664,2.664,0,0,1-.241-.805,2.9,2.9,0,0,1-2.266.971,3.189,3.189,0,0,1-2.187-.764,2.456,2.456,0,0,1-.867-1.926,2.538,2.538,0,0,1,1.058-2.191,5.222,5.222,0,0,1,3.059-.772h1.1V12a1.48,1.48,0,0,0-.32-1,1.257,1.257,0,0,0-1.009-.374,1.429,1.429,0,0,0-.95.291.987.987,0,0,0-.344.8h-2.4a2.41,2.41,0,0,1,.481-1.444A3.182,3.182,0,0,1,37.827,9.23,4.961,4.961,0,0,1,39.8,8.853a3.92,3.92,0,0,1,2.635.834,2.918,2.918,0,0,1,.975,2.345v3.893a4.294,4.294,0,0,0,.357,1.934V18Zm-1.984-1.668a2.066,2.066,0,0,0,.979-.237,1.554,1.554,0,0,0,.664-.635V13.916h-.9q-1.8,0-1.917,1.245l-.008.141a.96.96,0,0,0,.315.739A1.225,1.225,0,0,0,39.362,16.332Z" transform="translate(125.742 26.599)" fill="#fff"/>
        <g id="P3Bt8j.tif" transform="translate(-945.115 -760.323)">
          <g id="Grupo_161584" data-name="Grupo 161584" transform="translate(951.947 767.096)">
            <path id="Trazado_199707" data-name="Trazado 199707" d="M996.9,792.744v8.429a6.4,6.4,0,0,1-1.044,2.375c-.307.392-.619.783-.888,1.2a1.381,1.381,0,0,0-.234.692c-.018,2.039-.01,4.078-.01,6.116v.463h-11.6V811.5c0-1.8-.035-3.6.017-5.391a2.609,2.609,0,0,0-.654-1.928,5.5,5.5,0,0,1-1.4-2.552c-.114-.6-.135-1.215-.2-1.872a4.17,4.17,0,0,1-2.7.692c-1.1-.031-2.2-.008-3.307-.006-.145,0-.29.013-.426.02v2.9h2.108v1.409H958.5V803.33h1.4v-2.884h-.465c-1.284,0-2.568,0-3.851,0a3.6,3.6,0,0,1-3.634-3.611q-.008-8.722.005-17.443a3.569,3.569,0,0,1,.167-1.064,3.644,3.644,0,0,1,2.724-2.484V767.1H979.5v8.732a3.88,3.88,0,0,1,2.92,4.108c-.072,3.759-.021,7.521-.021,11.281v.449l1.453.4v-.482c0-2.432.014-4.863-.008-7.294a2.625,2.625,0,0,1,.665-2.087,3.511,3.511,0,0,1-1.095-1.93c-.316-1.58-.631-3.161-.935-4.743a3.345,3.345,0,0,1,3.371-4.085q3.647,0,7.295,0a3.368,3.368,0,0,1,3.692,2.659c.008.024.042.039.064.058v1.269a.582.582,0,0,0-.083.152c-.308,1.534-.618,3.069-.918,4.6a3.324,3.324,0,0,1-2.763,2.8,12.7,12.7,0,0,1-1.986.054c-1.008.006-2.017,0-2.955,0v5.907a2.26,2.26,0,0,1,2.575.886,2.208,2.208,0,0,1,1.9-.1,2.363,2.363,0,0,1,1.243,1.333,7.219,7.219,0,0,1,1.3.013A2.244,2.244,0,0,1,996.9,792.744Zm-18.868-24.2h-.5c-3.866,0-7.732.007-11.6-.01a.674.674,0,0,0-.706.455q-1.953,3.953-3.944,7.887c-.072.143-.217.343-.339.351-.567.037-1.137.017-1.745.017,0-.512.017-.978,0-1.442a1.437,1.437,0,0,0-2.092-1.286,1.485,1.485,0,0,0-.808,1.455q0,8.426,0,16.853c0,.115.018.231.027.343h21.708Zm4.366,24.676v.489c0,1.767.085,3.539-.023,5.3a6.032,6.032,0,0,0,1.583,4.735.869.869,0,0,0,.718.339c2.446-.013,4.893-.006,7.339-.008a3.757,3.757,0,0,0,1.562-.059c.438-.224.688-.811,1.025-1.237a3.723,3.723,0,0,0,.846-2.338c.011-2.356,0-4.712,0-7.068,0-.015,0-.03,0-.045-.017-.519-.318-.864-.743-.852a.764.764,0,0,0-.708.839c-.009.528,0,1.057,0,1.586v1.887h-1.447v-4.652c0-.106,0-.212,0-.317a.762.762,0,0,0-.71-.792.747.747,0,0,0-.737.808c-.01,1.5,0,2.99,0,4.485q0,.239,0,.479h-1.447v-.554c0-1.691,0-3.383,0-5.074,0-.6-.426-.986-.9-.837a.8.8,0,0,0-.552.881c.005,1.707,0,3.413,0,5.12v.46H986.75V785.039c0-.378.006-.755,0-1.133-.011-.521-.312-.865-.737-.856a.769.769,0,0,0-.714.835c0,.121,0,.242,0,.362q0,6.728,0,13.456v.531H983.85v-.465c0-1.012.008-2.024,0-3.035A1.441,1.441,0,0,0,982.4,793.221Zm7.266-20.325c-1.283,0-2.566-.013-3.849,0a1.9,1.9,0,0,0-1.9,2.343q.458,2.372.935,4.741A1.93,1.93,0,0,0,986.8,781.6q2.853.015,5.705,0a1.923,1.923,0,0,0,1.933-1.585c.318-1.563.632-3.128.926-4.7a1.91,1.91,0,0,0-2.038-2.419C992.108,772.892,990.885,772.895,989.663,772.9ZM966.572,799a2.3,2.3,0,0,1-1.561-1.972,2.2,2.2,0,0,1,1.609-2.35H953.4c0,.664,0,1.3,0,1.929A2.216,2.216,0,0,0,955.8,799q3.1,0,6.2,0Zm14.373-4.32H967.684a2.192,2.192,0,0,1,1.65,1.943A2.24,2.24,0,0,1,967.659,799c3.811,0,7.509.019,11.206-.011a2.115,2.115,0,0,0,2.073-2.062C980.976,796.186,980.945,795.447,980.945,794.679Zm3.649,10.86v5.035h8.651V805.54Zm-23.2-2.222h11.547v-2.847H961.391Zm-6.555-25.887a2.125,2.125,0,0,0-1.44,2.128q0,6.635,0,13.27c0,.115.019.23.029.336h1.411Zm24.689-.024v15.76h1.421c0-4.636.016-9.239-.014-13.842A2.044,2.044,0,0,0,979.525,777.406Zm-23.19-8.852v4.373l6.315-4.373Zm4.235,6.481,2.411-4.822-.064-.057-4.184,2.895A3.133,3.133,0,0,1,960.57,775.035Zm7.323,21.809a.721.721,0,1,0-.743.7A.757.757,0,0,0,967.893,796.845Z" transform="translate(-951.947 -767.096)" fill="#12263f"/>
            <path id="Trazado_199708" data-name="Trazado 199708" d="M1163.087,908.166h-1.429V906.7a3,3,0,0,1-2.154-3.559h1.41c0,.253-.012.517,0,.78a1.45,1.45,0,0,0,2.86.247,1.339,1.339,0,0,0-.842-1.526c-.446-.179-.91-.315-1.365-.472a2.844,2.844,0,0,1-.11-5.461l.187-.074v-1.469h1.414v1.43c1.852.9,2.311,1.653,2.179,3.614h-1.425c0-.3.015-.566,0-.831a1.415,1.415,0,0,0-1.344-1.342,1.431,1.431,0,0,0-1.524,1.139,1.394,1.394,0,0,0,.994,1.57c.469.164.946.3,1.413.473a2.827,2.827,0,0,1,.065,5.328c-.25.095-.352.207-.333.478C1163.106,907.388,1163.087,907.751,1163.087,908.166Z" transform="translate(-1140.613 -883.537)" fill="#12263f"/>
            <path id="Trazado_199709" data-name="Trazado 199709" d="M1027.769,926.833v1.448h-11.537v-1.448Z" transform="translate(-1010.394 -912.327)" fill="#12263f"/>
            <path id="Trazado_199710" data-name="Trazado 199710" d="M1016.085,960.131v-1.446h11.537v1.446Z" transform="translate(-1010.26 -941.286)" fill="#12263f"/>
            <path id="Trazado_199711" data-name="Trazado 199711" d="M1027.771,990.705v1.448h-11.537v-1.448Z" transform="translate(-1010.396 -970.398)" fill="#12263f"/>
            <path id="Trazado_199712" data-name="Trazado 199712" d="M1056.557,896.543H1047.9v-1.437h8.657Z" transform="translate(-1039.186 -883.481)" fill="#12263f"/>
            <path id="Trazado_199713" data-name="Trazado 199713" d="M1024.83,1022.666v1.417h-8.671v-1.417Z" transform="translate(-1010.328 -999.457)" fill="#12263f"/>
            <path id="Trazado_199714" data-name="Trazado 199714" d="M1016.25,895.066h1.408v1.422h-1.408Z" transform="translate(-1010.41 -883.445)" fill="#12263f"/>
            <path id="Trazado_199715" data-name="Trazado 199715" d="M1127.562,1024.006v-1.416h1.423v1.416Z" transform="translate(-1111.614 -999.388)" fill="#12263f"/>
            <path id="Trazado_199716" data-name="Trazado 199716" d="M1337.563,841.011l.948,1.041-6.2,6.2-1.895-1.9,1.017-.995.807.987Z" transform="translate(-1296.047 -834.299)" fill="#12263f"/>
          </g>
        </g>
      </g>
    </g>
    <g id="Grupo_161573" data-name="Grupo 161573" transform="translate(-21.418 1361.436)">
      <g id="Grupo_146087-3" data-name="Grupo 146087" transform="translate(641.646 908.675)">
        <rect id="Rectángulo_37274-3" data-name="Rectángulo 37274" width="204.464" height="60.061" rx="10" transform="translate(1.155 0)" fill="url(#linear-gradient)"/>
        <g id="Rectángulo_37275-3" data-name="Rectángulo 37275" transform="translate(0 0)" fill="#fff" stroke="#1565c0" stroke-width="1">
          <rect width="56.596" height="60.061" rx="10" stroke="none"/>
          <rect x="0.5" y="0.5" width="55.596" height="59.061" rx="9.5" fill="none"/>
        </g>
        <path id="Trazado_199852" data-name="Trazado 199852" d="M-46.152-4.258V0h-2.49V-12.086h4.715a5.455,5.455,0,0,1,2.395.5,3.67,3.67,0,0,1,1.59,1.415,3.946,3.946,0,0,1,.556,2.088,3.47,3.47,0,0,1-1.216,2.8,5.065,5.065,0,0,1-3.366,1.025Zm0-2.017h2.225a2.187,2.187,0,0,0,1.507-.465A1.691,1.691,0,0,0-41.9-8.068,1.994,1.994,0,0,0-42.425-9.5a1.953,1.953,0,0,0-1.444-.564h-2.283ZM-35.3,0H-37.71V-12.75H-35.3Zm7.18,0a2.664,2.664,0,0,1-.241-.805A2.9,2.9,0,0,1-30.63.166,3.189,3.189,0,0,1-32.817-.6a2.456,2.456,0,0,1-.867-1.926,2.538,2.538,0,0,1,1.058-2.191,5.222,5.222,0,0,1,3.059-.772h1.1V-6a1.48,1.48,0,0,0-.32-1,1.257,1.257,0,0,0-1.009-.374,1.429,1.429,0,0,0-.95.291.987.987,0,0,0-.344.8h-2.4A2.41,2.41,0,0,1-33-7.728,3.182,3.182,0,0,1-31.643-8.77a4.961,4.961,0,0,1,1.976-.378,3.92,3.92,0,0,1,2.635.834,2.918,2.918,0,0,1,.975,2.345v3.893A4.294,4.294,0,0,0-25.7-.141V0Zm-1.984-1.668a2.066,2.066,0,0,0,.979-.237,1.554,1.554,0,0,0,.664-.635V-4.084h-.9q-1.8,0-1.917,1.245l-.008.141a.96.96,0,0,0,.315.739A1.225,1.225,0,0,0-30.107-1.668Zm8.1-7.313.075,1.038a3.136,3.136,0,0,1,2.582-1.2,2.606,2.606,0,0,1,2.125.838A3.912,3.912,0,0,1-16.51-5.8V0h-2.4V-5.757a1.562,1.562,0,0,0-.332-1.111,1.484,1.484,0,0,0-1.1-.345,1.65,1.65,0,0,0-1.519.865V0h-2.4V-8.981ZM-12.161,0h-2.407V-8.981h2.407Zm-2.548-11.306a1.181,1.181,0,0,1,.361-.888,1.356,1.356,0,0,1,.984-.349,1.36,1.36,0,0,1,.979.349,1.175,1.175,0,0,1,.365.888,1.178,1.178,0,0,1-.369.9,1.363,1.363,0,0,1-.975.349,1.363,1.363,0,0,1-.975-.349A1.178,1.178,0,0,1-14.709-11.306ZM-9.6,0V-7.222H-10.94v-1.76H-9.6V-9.4a3.368,3.368,0,0,1,1.042-2.611,4.191,4.191,0,0,1,2.893-.917,9.6,9.6,0,0,1,2.723.49L-3.3-10.451a10.623,10.623,0,0,0-1.262-.311,6.2,6.2,0,0,0-.963-.071q-1.677,0-1.677,1.486v.365h1.768v1.76H-7.2V0Zm7.778,0H-4.233V-8.981h2.407ZM3.893-1.768a1.573,1.573,0,0,0,1.079-.365A1.28,1.28,0,0,0,5.4-3.1h2.25a3.077,3.077,0,0,1-.5,1.673A3.286,3.286,0,0,1,5.815-.253a4.2,4.2,0,0,1-1.88.419A3.9,3.9,0,0,1,.9-1.058,4.845,4.845,0,0,1-.216-4.441V-4.6a4.79,4.79,0,0,1,1.1-3.312,3.854,3.854,0,0,1,3.03-1.237,3.778,3.778,0,0,1,2.7.959A3.4,3.4,0,0,1,7.653-5.636H5.4a1.648,1.648,0,0,0-.432-1.139,1.439,1.439,0,0,0-1.1-.438A1.445,1.445,0,0,0,2.611-6.6,3.541,3.541,0,0,0,2.183-4.62v.249a3.586,3.586,0,0,0,.423,2A1.463,1.463,0,0,0,3.893-1.768ZM14.228,0a2.664,2.664,0,0,1-.241-.805,2.9,2.9,0,0,1-2.266.971A3.189,3.189,0,0,1,9.533-.6a2.456,2.456,0,0,1-.867-1.926A2.538,2.538,0,0,1,9.724-4.715a5.222,5.222,0,0,1,3.059-.772h1.1V-6a1.48,1.48,0,0,0-.32-1,1.257,1.257,0,0,0-1.009-.374,1.429,1.429,0,0,0-.95.291.987.987,0,0,0-.344.8h-2.4a2.41,2.41,0,0,1,.481-1.444A3.182,3.182,0,0,1,10.708-8.77a4.961,4.961,0,0,1,1.976-.378,3.92,3.92,0,0,1,2.635.834,2.918,2.918,0,0,1,.975,2.345v3.893a4.294,4.294,0,0,0,.357,1.934V0ZM12.244-1.668a2.066,2.066,0,0,0,.979-.237,1.554,1.554,0,0,0,.664-.635V-4.084h-.9q-1.8,0-1.917,1.245l-.008.141a.96.96,0,0,0,.315.739A1.225,1.225,0,0,0,12.244-1.668Zm9.629-.1a1.573,1.573,0,0,0,1.079-.365,1.28,1.28,0,0,0,.432-.971h2.25a3.077,3.077,0,0,1-.5,1.673A3.286,3.286,0,0,1,23.794-.253a4.2,4.2,0,0,1-1.88.419,3.9,3.9,0,0,1-3.038-1.224,4.845,4.845,0,0,1-1.112-3.383V-4.6a4.79,4.79,0,0,1,1.1-3.312A3.854,3.854,0,0,1,21.9-9.147a3.778,3.778,0,0,1,2.7.959,3.4,3.4,0,0,1,1.033,2.552h-2.25a1.648,1.648,0,0,0-.432-1.139,1.439,1.439,0,0,0-1.1-.438A1.445,1.445,0,0,0,20.59-6.6a3.541,3.541,0,0,0-.427,1.983v.249a3.586,3.586,0,0,0,.423,2A1.463,1.463,0,0,0,21.873-1.768ZM29.534,0H27.127V-8.981h2.407ZM26.986-11.306a1.181,1.181,0,0,1,.361-.888,1.356,1.356,0,0,1,.984-.349,1.36,1.36,0,0,1,.979.349,1.175,1.175,0,0,1,.365.888,1.178,1.178,0,0,1-.369.9,1.363,1.363,0,0,1-.975.349,1.363,1.363,0,0,1-.975-.349A1.178,1.178,0,0,1,26.986-11.306Zm4.15,6.732a5.327,5.327,0,0,1,.515-2.382,3.768,3.768,0,0,1,1.482-1.619,4.323,4.323,0,0,1,2.245-.573,4.09,4.09,0,0,1,2.968,1.112,4.464,4.464,0,0,1,1.282,3.021l.017.614a4.694,4.694,0,0,1-1.154,3.316,4.011,4.011,0,0,1-3.1,1.249,4.031,4.031,0,0,1-3.1-1.245,4.777,4.777,0,0,1-1.158-3.387Zm2.4.17a3.357,3.357,0,0,0,.481,1.958,1.588,1.588,0,0,0,1.378.678,1.592,1.592,0,0,0,1.361-.669,3.674,3.674,0,0,0,.49-2.141,3.324,3.324,0,0,0-.49-1.945,1.592,1.592,0,0,0-1.378-.69,1.566,1.566,0,0,0-1.361.686A3.735,3.735,0,0,0,33.535-4.4Zm2.316-8.347h2.615l-2.3,2.573H34.216ZM43.33-8.981,43.4-7.944a3.136,3.136,0,0,1,2.582-1.2,2.606,2.606,0,0,1,2.125.838A3.912,3.912,0,0,1,48.825-5.8V0h-2.4V-5.757a1.562,1.562,0,0,0-.332-1.111,1.484,1.484,0,0,0-1.1-.345,1.65,1.65,0,0,0-1.519.865V0h-2.4V-8.981Z" transform="translate(125.742 36.599)" fill="#fff"/>
        <g id="Y2rqgQ.tif" transform="translate(-482.679 -967.612)">
          <g id="Grupo_161583" data-name="Grupo 161583" transform="translate(490.452 976.466)">
            <path id="Trazado_199683" data-name="Trazado 199683" d="M490.452,1057.885a2.17,2.17,0,0,1,1.546-1.56,2.516,2.516,0,0,1,.59-.061q10.47,0,20.94-.008a1.051,1.051,0,0,1,.83.345c.371.394.767.764,1.143,1.153a.7.7,0,0,1,0,1.118.661.661,0,0,0-.06.061,3.675,3.675,0,0,1-3.411,1.468c-6.352-.087-12.706-.055-19.059-.022a2.315,2.315,0,0,1-2.522-1.639Zm18.457-.258H492.762c-.071,0-.143,0-.214,0a.686.686,0,1,0,.018,1.368c.085.005.171,0,.256,0h16.086Zm1.406,1.372c.826,0,1.635-.05,2.435.016a1.352,1.352,0,0,0,1.312-.7,1.312,1.312,0,0,0-1.386-.694,6.816,6.816,0,0,1-1.021.009h-1.34Z" transform="translate(-490.452 -1049.417)" fill="#12263f"/>
            <path id="Trazado_199684" data-name="Trazado 199684" d="M649.207,976.466v1.341H634.153v-1.341Z" transform="translate(-621.836 -976.466)" fill="#12263f"/>
            <path id="Trazado_199685" data-name="Trazado 199685" d="M827.123,976.466V977.8h-1.368v-1.337Z" transform="translate(-797.015 -976.466)" fill="#12263f"/>
            <path id="Trazado_199686" data-name="Trazado 199686" d="M575.983,1123.6h-4.109c0,.409,0,.816,0,1.222,0,.59-.235.82-.832.821-1.068,0-2.137,0-3.239,0v2.74h1.725c.542,0,1.083-.007,1.625,0a.654.654,0,0,1,.719.715q.011,2.01,0,4.019a.662.662,0,0,1-.747.732q-4.041.006-8.081,0a.661.661,0,0,1-.743-.735q-.009-1.988,0-3.976a.67.67,0,0,1,.766-.756c1.095-.005,2.19,0,3.311,0v-2.74h-3.163c-.712,0-.915-.2-.916-.909q0-1.86,0-3.72c0-.619.226-.841.853-.842q3.934,0,7.867,0c.627,0,.852.223.855.84,0,.384,0,.767,0,1.181h4.109c0-.421,0-.844,0-1.266a.671.671,0,0,1,.767-.755q4.019,0,8.039,0a.67.67,0,0,1,.768.755q.008,1.988,0,3.976a.662.662,0,0,1-.743.736q-4.04.006-8.081,0c-.505,0-.743-.255-.749-.773C575.979,1124.462,575.983,1124.051,575.983,1123.6Zm-12.29-2.042v2.687h6.794v-2.687Zm20.477,2.7v-2.692h-6.789v2.692Zm-20.476,5.511v2.687h6.792v-2.687Z" transform="translate(-556.138 -1107.858)" fill="#12263f"/>
            <path id="Trazado_199687" data-name="Trazado 199687" d="M525.107,1146.5c-.655,0-1.294,0-1.933,0a.671.671,0,0,1-.765-.757q0-12.508,0-25.015c0-.055.009-.111.016-.2h1.333v24.584h17.093v1.374H526.542v1.375h17.052v1.374h-17.51c-.742,0-.938-.194-.94-.928q0-.834,0-1.667A.961.961,0,0,0,525.107,1146.5Z" transform="translate(-519.669 -1108.183)" fill="#12263f"/>
            <path id="Trazado_199688" data-name="Trazado 199688" d="M552.529,1024.8H551.17V1009.78H523.794v1.3h-1.376c0-.711-.023-1.433.011-2.153a.591.591,0,0,1,.576-.54,3.011,3.011,0,0,1,.385-.006h28.136c.819,0,.988.173.989,1.007q0,.791,0,1.582a1.227,1.227,0,0,0,.027.148h1.8c.687,0,.9.209.9.88q0,6.542,0,13.085v.37H553.9v-12.935h-1.375Z" transform="translate(-519.671 -1005.647)" fill="#12263f"/>
            <path id="Trazado_199689" data-name="Trazado 199689" d="M740.224,1215.986a10.263,10.263,0,1,1-10.252,10.185A10.253,10.253,0,0,1,740.224,1215.986Zm-.023,19.159a8.9,8.9,0,1,0-8.859-8.974A8.941,8.941,0,0,0,740.2,1235.145Z" transform="translate(-709.442 -1195.456)" fill="#12263f"/>
            <path id="Trazado_199690" data-name="Trazado 199690" d="M562.545,1337.313V1336h12.273v1.313Z" transform="translate(-556.366 -1305.184)" fill="#12263f"/>
            <path id="Trazado_199691" data-name="Trazado 199691" d="M573.478,1368.026v1.312h-10.9v-1.312Z" transform="translate(-556.391 -1334.464)" fill="#12263f"/>
            <path id="Trazado_199692" data-name="Trazado 199692" d="M610.464,1305.363v-1.316h8.153v1.316Z" transform="translate(-600.178 -1275.969)" fill="#12263f"/>
            <path id="Trazado_199693" data-name="Trazado 199693" d="M578.4,1305.479v-1.3h1.327v1.3Z" transform="translate(-570.858 -1276.093)" fill="#12263f"/>
            <path id="Trazado_199694" data-name="Trazado 199694" d="M813.386,1295.367l-.924-.974c.729-.73,1.465-1.48,2.219-2.213a.877.877,0,0,0,.3-.7c-.018-1.121-.007-2.242-.007-3.385h1.365v.62c0,1.111.007,2.221-.007,3.332a.871.871,0,0,1-.151.553C815.265,1293.531,814.326,1294.441,813.386,1295.367Z" transform="translate(-784.862 -1261.382)" fill="#12263f"/>
            <path id="Trazado_199695" data-name="Trazado 199695" d="M909.752,1285.96l-1.2.7-.69-1.193,1.185-.692Z" transform="translate(-872.088 -1258.345)" fill="#12263f"/>
            <path id="Trazado_199696" data-name="Trazado 199696" d="M879.811,1393.783l.688,1.194-1.188.691-.7-1.191Z" transform="translate(-845.343 -1358.014)" fill="#12263f"/>
            <path id="Trazado_199697" data-name="Trazado 199697" d="M907.888,1365.9l.686-1.194,1.2.687-.688,1.2Z" transform="translate(-872.109 -1331.432)" fill="#12263f"/>
            <path id="Trazado_199698" data-name="Trazado 199698" d="M770.8,1364.573l.693,1.2-1.193.692-.691-1.19Z" transform="translate(-745.684 -1331.307)" fill="#12263f"/>
            <path id="Trazado_199699" data-name="Trazado 199699" d="M770.79,1286.758l-1.193-.7.691-1.187,1.193.685Z" transform="translate(-745.671 -1258.44)" fill="#12263f"/>
            <path id="Trazado_199700" data-name="Trazado 199700" d="M800.672,1256.722l-1.192.688-.7-1.187,1.194-.7Z" transform="translate(-772.356 -1231.608)" fill="#12263f"/>
            <path id="Trazado_199701" data-name="Trazado 199701" d="M880.552,1256.3l-.692,1.188-1.192-.684.688-1.2Z" transform="translate(-845.393 -1231.679)" fill="#12263f"/>
            <path id="Trazado_199702" data-name="Trazado 199702" d="M799.508,1393.885l1.193.691-.687,1.2-1.193-.691Z" transform="translate(-772.39 -1358.107)" fill="#12263f"/>
            <path id="Trazado_199703" data-name="Trazado 199703" d="M923.166,1328.15v1.3h-1.327v-1.3Z" transform="translate(-884.864 -1298.006)" fill="#12263f"/>
            <path id="Trazado_199704" data-name="Trazado 199704" d="M763.594,1329.405h-1.308v-1.315h1.308Z" transform="translate(-738.987 -1297.952)" fill="#12263f"/>
            <path id="Trazado_199705" data-name="Trazado 199705" d="M841.942,1249.512V1248.2h1.327v1.309Z" transform="translate(-811.815 -1224.912)" fill="#12263f"/>
            <path id="Trazado_199706" data-name="Trazado 199706" d="M843.38,1407.867v1.31h-1.317v-1.31Z" transform="translate(-811.926 -1370.891)" fill="#12263f"/>
          </g>
        </g>
      </g>
    </g>
    <g id="Grupo_161574" data-name="Grupo 161574" transform="translate(198.582 1361.436)">
      <g id="Grupo_146087-4" data-name="Grupo 146087" transform="translate(641.646 908.675)">
        <rect id="Rectángulo_37274-4" data-name="Rectángulo 37274" width="204.464" height="60.061" rx="10" transform="translate(1.155 0)" fill="url(#linear-gradient)"/>
        <g id="Rectángulo_37275-4" data-name="Rectángulo 37275" transform="translate(0 0)" fill="#fff" stroke="#1565c0" stroke-width="1">
          <rect width="56.596" height="60.061" rx="10" stroke="none"/>
          <rect x="0.5" y="0.5" width="55.596" height="59.061" rx="9.5" fill="none"/>
        </g>
        <path id="Trazado_199853" data-name="Trazado 199853" d="M-37.93-3.171a1.278,1.278,0,0,0-.5-1.083,6.533,6.533,0,0,0-1.793-.8,12.71,12.71,0,0,1-2.05-.826,3.35,3.35,0,0,1-2.059-3,2.919,2.919,0,0,1,.552-1.747,3.6,3.6,0,0,1,1.585-1.2,5.967,5.967,0,0,1,2.32-.432,5.432,5.432,0,0,1,2.308.469,3.674,3.674,0,0,1,1.573,1.324,3.464,3.464,0,0,1,.56,1.942h-2.49a1.63,1.63,0,0,0-.523-1.291,2.15,2.15,0,0,0-1.469-.461,2.3,2.3,0,0,0-1.419.386,1.217,1.217,0,0,0-.506,1.017,1.166,1.166,0,0,0,.594.988A6.705,6.705,0,0,0-39.5-7.13a7.55,7.55,0,0,1,3.1,1.585,3.157,3.157,0,0,1,.971,2.357A2.909,2.909,0,0,1-36.619-.726a5.2,5.2,0,0,1-3.2.892,6.171,6.171,0,0,1-2.54-.51,4.019,4.019,0,0,1-1.747-1.4A3.582,3.582,0,0,1-44.7-3.8h2.5q0,2,2.391,2a2.326,2.326,0,0,0,1.386-.361A1.175,1.175,0,0,0-37.93-3.171Zm9.4,2.258A3.008,3.008,0,0,1-30.983.166a2.837,2.837,0,0,1-2.2-.83A3.543,3.543,0,0,1-33.963-3.1V-8.981h2.4v5.809q0,1.4,1.278,1.4a1.732,1.732,0,0,0,1.677-.848V-8.981H-26.2V0h-2.258Zm12.219-3.495a5.387,5.387,0,0,1-.942,3.324A3.021,3.021,0,0,1-19.793.166a2.8,2.8,0,0,1-2.2-.946V3.453h-2.4V-8.981h2.225l.083.88A2.819,2.819,0,0,1-19.81-9.147a3.041,3.041,0,0,1,2.582,1.229,5.532,5.532,0,0,1,.921,3.387Zm-2.4-.183a3.554,3.554,0,0,0-.444-1.94,1.445,1.445,0,0,0-1.291-.683,1.57,1.57,0,0,0-1.552.866v3.689a1.6,1.6,0,0,0,1.569.891Q-18.706-1.768-18.706-4.591ZM-10.687.166A4.409,4.409,0,0,1-13.9-1.046a4.308,4.308,0,0,1-1.241-3.229v-.232a5.426,5.426,0,0,1,.523-2.42A3.838,3.838,0,0,1-13.14-8.571a4.159,4.159,0,0,1,2.187-.577,3.727,3.727,0,0,1,2.9,1.162,4.722,4.722,0,0,1,1.058,3.3v.979h-5.719a2.229,2.229,0,0,0,.7,1.411,2.12,2.12,0,0,0,1.482.531,2.589,2.589,0,0,0,2.167-1l1.179,1.32A3.6,3.6,0,0,1-8.645-.261,4.793,4.793,0,0,1-10.687.166Zm-.274-7.379a1.5,1.5,0,0,0-1.158.484,2.5,2.5,0,0,0-.569,1.384h3.337v-.192a1.786,1.786,0,0,0-.432-1.238A1.547,1.547,0,0,0-10.961-7.213Zm10.376.481A6.517,6.517,0,0,0-1.448-6.8a1.757,1.757,0,0,0-1.785.921V0h-2.4V-8.981h2.266L-3.3-7.911a2.223,2.223,0,0,1,2-1.237,2.514,2.514,0,0,1,.747.108ZM4.08-2.93,5.748-8.981H8.255L5.225,0H2.934L-.1-8.981H2.411ZM11.841,0H9.434V-8.981h2.407ZM9.293-11.306a1.181,1.181,0,0,1,.361-.888,1.356,1.356,0,0,1,.984-.349,1.36,1.36,0,0,1,.979.349,1.175,1.175,0,0,1,.365.888,1.178,1.178,0,0,1-.369.9,1.363,1.363,0,0,1-.975.349,1.363,1.363,0,0,1-.975-.349A1.178,1.178,0,0,1,9.293-11.306Zm9.388,8.824a.773.773,0,0,0-.436-.693,4.95,4.95,0,0,0-1.4-.452q-3.2-.672-3.2-2.723a2.468,2.468,0,0,1,.992-2,4,4,0,0,1,2.594-.8,4.307,4.307,0,0,1,2.735.805A2.538,2.538,0,0,1,20.989-6.25h-2.4a1.161,1.161,0,0,0-.332-.851,1.405,1.405,0,0,0-1.038-.336,1.436,1.436,0,0,0-.938.274.865.865,0,0,0-.332.7.739.739,0,0,0,.378.643A3.885,3.885,0,0,0,17.6-5.4a10.407,10.407,0,0,1,1.511.4,2.482,2.482,0,0,1,1.9,2.416A2.343,2.343,0,0,1,19.959-.594a4.548,4.548,0,0,1-2.723.76,4.75,4.75,0,0,1-2-.4,3.363,3.363,0,0,1-1.374-1.1,2.565,2.565,0,0,1-.5-1.515h2.274a1.252,1.252,0,0,0,.473.979,1.877,1.877,0,0,0,1.179.34A1.737,1.737,0,0,0,18.328-1.8.814.814,0,0,0,18.681-2.482ZM25.089,0H22.682V-8.981h2.407ZM22.541-11.306a1.181,1.181,0,0,1,.361-.888,1.356,1.356,0,0,1,.984-.349,1.36,1.36,0,0,1,.979.349,1.175,1.175,0,0,1,.365.888,1.178,1.178,0,0,1-.369.9,1.363,1.363,0,0,1-.975.349,1.363,1.363,0,0,1-.975-.349A1.178,1.178,0,0,1,22.541-11.306Zm4.15,6.732a5.327,5.327,0,0,1,.515-2.382,3.768,3.768,0,0,1,1.482-1.619,4.323,4.323,0,0,1,2.245-.573A4.09,4.09,0,0,1,33.9-8.035a4.464,4.464,0,0,1,1.282,3.021L35.2-4.4a4.694,4.694,0,0,1-1.154,3.316,4.011,4.011,0,0,1-3.1,1.249,4.031,4.031,0,0,1-3.1-1.245,4.777,4.777,0,0,1-1.158-3.387Zm2.4.17a3.357,3.357,0,0,0,.481,1.958,1.588,1.588,0,0,0,1.378.678,1.592,1.592,0,0,0,1.361-.669,3.674,3.674,0,0,0,.49-2.141,3.324,3.324,0,0,0-.49-1.945,1.592,1.592,0,0,0-1.378-.69,1.566,1.566,0,0,0-1.361.686A3.735,3.735,0,0,0,29.09-4.4Zm2.316-8.347h2.615l-2.3,2.573H29.771Zm7.479,3.769.075,1.038a3.136,3.136,0,0,1,2.582-1.2,2.606,2.606,0,0,1,2.125.838A3.912,3.912,0,0,1,44.38-5.8V0h-2.4V-5.757a1.562,1.562,0,0,0-.332-1.111,1.484,1.484,0,0,0-1.1-.345,1.65,1.65,0,0,0-1.519.865V0h-2.4V-8.981Z" transform="translate(125.742 36.599)" fill="#fff"/>
        <g id="LOV5LS.tif" transform="translate(-721.218 -133.591)">
          <g id="Grupo_161582" data-name="Grupo 161582" transform="translate(725.863 141.963)">
            <path id="Trazado_199665" data-name="Trazado 199665" d="M770.623,143.676v24.008a2.436,2.436,0,0,1-2.661,1.729c-3.275-.049-6.552-.016-9.828-.016h-.506c0,1.3-.008,2.55.006,3.8,0,.283-.051.43-.366.485-.449.078-.887.222-1.355.344l.864,1.471-3.874,3.891-1.488-.879c-.114.463-.238.866-.308,1.278-.063.369-.238.464-.6.455-1.108-.027-2.216-.01-3.245-.01.09,1.11.21,2.18.254,3.254s.011,2.164.011,3.246H725.868c0-1.218-.014-2.436,0-3.654a10.514,10.514,0,0,1,4.556-8.763,27.18,27.18,0,0,1,2.918-1.629c-.007-.006-.069-.067-.136-.121a5.737,5.737,0,0,1-.37-8.9.8.8,0,0,0,.25-.672q0-9.384,0-18.769a2.14,2.14,0,0,1,2.262-2.259q16.509,0,33.017,0a2.727,2.727,0,0,1,.623.065A2.294,2.294,0,0,1,770.623,143.676Zm-33.178,2.641v15.9a5.893,5.893,0,0,1,4.162,2.681c.076.116.332.159.5.16q11.84.011,23.681.007h.476V146.317Zm5.08,21.625h25.583c.844,0,1.058-.217,1.058-1.072q0-11.191,0-22.382c0-.854-.214-1.071-1.058-1.071H735.582c-.817,0-1.039.223-1.039,1.044q0,8.8,0,17.6v.481a5.338,5.338,0,0,1,.989-.256c.4-.025.436-.22.435-.552q-.013-8.167-.006-16.335v-.534H767.72v21.668H742.34Zm-1.509.018a4.321,4.321,0,1,0-4.35,4.316A4.357,4.357,0,0,0,741.016,167.961Zm-1.023,4.778c3.674,1.638,4.307,2.207,6.564,5.848a.392.392,0,0,0,.269.173c.99.012,1.979.008,2.987.008.131-.5.233-.987.389-1.452a.989.989,0,0,1,.373-.436.854.854,0,0,1,1.142.068c.17.143.393.222.573.356a.491.491,0,0,0,.79-.084c.286-.346.635-.639.948-.964s.775-.605.829-.959c.05-.324-.355-.722-.568-1.083a.923.923,0,0,1,.639-1.485l1.21-.3v-2.98h-2.986a5,5,0,0,1-1.965,5.517,4.7,4.7,0,0,1-5.308.352c-2.306-1.273-3.05-3.327-2.553-5.867-.948-.091-.953-.093-1.278.714A6.032,6.032,0,0,1,739.994,172.739Zm-8.663,2.79a9.117,9.117,0,0,0-2.626,2.805,11.329,11.329,0,0,0-1.339,6.644c0,.092.2.246.315.254.434.03.872-.009,1.306.019.366.024.462-.116.458-.467-.016-1.548-.007-3.1-.007-4.644V179.5h1.522v.559c0,1.578.01,3.156-.008,4.734,0,.362.112.465.466.46,1.217-.019,2.434-.006,3.651-.009.124,0,.247-.023.42-.041Zm12.6,3.968c.008.188.022.349.022.51,0,1.593.01,3.186-.006,4.779,0,.353.1.491.459.465a10.535,10.535,0,0,1,1.216,0c.306.014.445-.081.424-.407s0-.661,0-.992a10.747,10.747,0,0,0-.819-4.476,9.307,9.307,0,0,0-3.159-3.85l-4.163,9.689c.194.015.309.031.425.031,1.217,0,2.434-.011,3.651.008.357.006.467-.1.464-.462-.017-1.593-.007-3.186-.007-4.779V179.5Zm7.939-8.761c-.05-.249-.124-.585-.182-.924-.054-.319-.211-.426-.548-.423-1.939.018-3.879.015-5.818,0a.435.435,0,0,0-.509.36,3.463,3.463,0,0,0,1.014,3.739,3.38,3.38,0,0,0,3.889.625A3.613,3.613,0,0,0,751.869,170.736Zm-11.6,3.73c-.7,1.931-1.9,2.884-3.593,2.88-1.665,0-2.877-.982-3.552-2.886l-.494.231,4.067,9.457,4.067-9.46Zm-3.561-.764c-.593.074-1.187.153-1.783.22-.279.031-.348.167-.281.428a2.137,2.137,0,0,0,4.106-.011c.057-.232.015-.379-.249-.411C737.906,173.855,737.312,173.778,736.707,173.7Z" transform="translate(-725.863 -141.963)" fill="#12263f"/>
            <path id="Trazado_199666" data-name="Trazado 199666" d="M1102.079,479.149h-8.6v-1.387h8.6Z" transform="translate(-1060.242 -447.401)" fill="#12263f"/>
            <path id="Trazado_199667" data-name="Trazado 199667" d="M1093.411,510.968v-1.384h8.617v1.384Z" transform="translate(-1060.179 -476.346)" fill="#12263f"/>
            <path id="Trazado_199668" data-name="Trazado 199668" d="M1110.909,542.993h-1.368v-1.4h1.368Z" transform="translate(-1074.851 -505.46)" fill="#12263f"/>
            <path id="Trazado_199669" data-name="Trazado 199669" d="M1142.753,543.045h-1.383V541.66h1.383Z" transform="translate(-1103.802 -505.522)" fill="#12263f"/>
            <path id="Trazado_199670" data-name="Trazado 199670" d="M1173.253,542.993v-1.385h1.393v1.385Z" transform="translate(-1132.802 -505.474)" fill="#12263f"/>
            <path id="Trazado_199671" data-name="Trazado 199671" d="M890.794,213.3v1.436H895.8v7.218H884.322v-7.182h4.989v-1.436h-5.018v-2.885h-2.879v2.837H869.87v-7.161h11.521v2.831h2.879v-2.838h11.543v7.18Zm-5.025-5.731v4.261h8.582v-4.261Zm-.008,12.918h8.582v-4.236h-8.582Zm-5.843-12.913h-8.591v4.261h8.591Z" transform="translate(-856.85 -200.315)" fill="#12263f"/>
            <path id="Trazado_199672" data-name="Trazado 199672" d="M880.077,333.946v1.39H870.028v-1.39Z" transform="translate(-856.993 -316.588)" fill="#12263f"/>
            <path id="Trazado_199673" data-name="Trazado 199673" d="M916.315,365.813V367.2h-6.446v-1.388Z" transform="translate(-893.232 -345.574)" fill="#12263f"/>
            <path id="Trazado_199674" data-name="Trazado 199674" d="M903.346,303.426h-1.378v-1.4h1.378Z" transform="translate(-886.046 -287.551)" fill="#12263f"/>
            <path id="Trazado_199675" data-name="Trazado 199675" d="M935.211,301.938v1.386h-1.394v-1.386Z" transform="translate(-915.015 -287.474)" fill="#12263f"/>
            <path id="Trazado_199676" data-name="Trazado 199676" d="M965.815,301.847H967.2v1.4h-1.383Z" transform="translate(-944.12 -287.391)" fill="#12263f"/>
            <path id="Trazado_199677" data-name="Trazado 199677" d="M1067.179,237.966h-2.86v1.4h2.86Zm-4.342,1.415v-1.42h-1.41v1.42Z" transform="translate(-1031.086 -229.281)" fill="#12263f"/>
            <path id="Trazado_199678" data-name="Trazado 199678" d="M908.257,238h-6.473v1.4h6.473Z" transform="translate(-885.879 -229.314)" fill="#12263f"/>
            <path id="Trazado_199679" data-name="Trazado 199679" d="M1096.273,238.012v1.4h-2.861v-1.4Z" transform="translate(-1060.181 -229.328)" fill="#12263f"/>
            <path id="Trazado_199680" data-name="Trazado 199680" d="M1062.836,239.381h-1.41v-1.42h1.41Z" transform="translate(-1031.086 -229.281)" fill="#12263f"/>
            <path id="Trazado_199681" data-name="Trazado 199681" d="M1061.286,335.231v-1.4h5.751v1.4Z" transform="translate(-1030.959 -316.48)" fill="#12263f"/>
            <path id="Trazado_199682" data-name="Trazado 199682" d="M908.257,238v1.4h-6.473V238Z" transform="translate(-885.879 -229.314)" fill="#12263f"/>
          </g>
        </g>
      </g>
    </g>
    <g id="Rectángulo_46660" data-name="Rectángulo 46660" transform="translate(753.676 2134.707)" stroke="#039be5" stroke-width="4" fill="url(#linear-gradient-5)">
      <rect width="159.464" height="60.061" rx="10" stroke="none"/>
      <rect x="2" y="2" width="155.464" height="56.061" rx="8" fill="none"/>
    </g>
    <g id="Rectángulo_46661" data-name="Rectángulo 46661" transform="translate(754.212 2383.231)" stroke="#039be5" stroke-width="4" fill="url(#linear-gradient-5)">
      <rect width="159.464" height="60.061" rx="10" stroke="none"/>
      <rect x="2" y="2" width="155.464" height="56.061" rx="8" fill="none"/>
    </g>
    <g id="Rectángulo_46662" data-name="Rectángulo 46662" transform="translate(958.212 2383.231)" stroke="#039be5" stroke-width="4" fill="url(#linear-gradient-5)">
      <rect width="159.464" height="60.061" rx="10" stroke="none"/>
      <rect x="2" y="2" width="155.464" height="56.061" rx="8" fill="none"/>
    </g>
    <path id="Trazado_199850" data-name="Trazado 199850" d="M-52.976-12.086l3.1,8.766,3.088-8.766h3.271V0h-2.5V-3.3l.249-5.7L-49.024,0h-1.71l-3.254-9,.249,5.694V0h-2.49V-12.086Zm11.106,7.512a5.327,5.327,0,0,1,.515-2.382,3.767,3.767,0,0,1,1.482-1.619,4.323,4.323,0,0,1,2.245-.573A4.09,4.09,0,0,1-34.66-8.035a4.464,4.464,0,0,1,1.282,3.021l.017.614a4.694,4.694,0,0,1-1.154,3.316,4.011,4.011,0,0,1-3.1,1.249,4.031,4.031,0,0,1-3.1-1.245,4.777,4.777,0,0,1-1.158-3.387Zm2.4.17a3.357,3.357,0,0,0,.481,1.958,1.588,1.588,0,0,0,1.378.678,1.592,1.592,0,0,0,1.361-.669,3.674,3.674,0,0,0,.49-2.141,3.324,3.324,0,0,0-.49-1.945,1.592,1.592,0,0,0-1.378-.69,1.566,1.566,0,0,0-1.361.686A3.735,3.735,0,0,0-39.47-4.4Zm9.795-4.578.075,1.038a3.136,3.136,0,0,1,2.582-1.2,2.606,2.606,0,0,1,2.125.838A3.912,3.912,0,0,1-24.18-5.8V0h-2.4V-5.757a1.562,1.562,0,0,0-.332-1.111,1.484,1.484,0,0,0-1.1-.345,1.65,1.65,0,0,0-1.519.865V0h-2.4V-8.981ZM-19.831,0h-2.407V-8.981h2.407Zm-2.548-11.306a1.181,1.181,0,0,1,.361-.888,1.356,1.356,0,0,1,.984-.349,1.36,1.36,0,0,1,.979.349,1.175,1.175,0,0,1,.365.888,1.178,1.178,0,0,1-.369.9,1.363,1.363,0,0,1-.975.349,1.363,1.363,0,0,1-.975-.349A1.178,1.178,0,0,1-22.379-11.306Zm7.4.116v2.208h1.536v1.76h-1.536v4.482a1.07,1.07,0,0,0,.191.714.959.959,0,0,0,.73.216,3.826,3.826,0,0,0,.706-.058V-.05a4.939,4.939,0,0,1-1.453.216,2.29,2.29,0,0,1-2.573-2.548V-7.222h-1.312v-1.76h1.312v-2.208Zm2.25,6.616a5.327,5.327,0,0,1,.515-2.382,3.768,3.768,0,0,1,1.482-1.619,4.323,4.323,0,0,1,2.245-.573A4.09,4.09,0,0,1-5.524-8.035,4.464,4.464,0,0,1-4.242-5.014l.017.614A4.694,4.694,0,0,1-5.379-1.083,4.011,4.011,0,0,1-8.475.166a4.031,4.031,0,0,1-3.1-1.245,4.777,4.777,0,0,1-1.158-3.387Zm2.4.17a3.357,3.357,0,0,0,.481,1.958,1.588,1.588,0,0,0,1.378.678,1.592,1.592,0,0,0,1.361-.669,3.674,3.674,0,0,0,.49-2.141,3.324,3.324,0,0,0-.49-1.945,1.592,1.592,0,0,0-1.378-.69,1.566,1.566,0,0,0-1.361.686A3.735,3.735,0,0,0-10.334-4.4ZM2.3-6.732A6.517,6.517,0,0,0,1.436-6.8a1.757,1.757,0,0,0-1.785.921V0h-2.4V-8.981H-.481l.066,1.071a2.223,2.223,0,0,1,2-1.237,2.514,2.514,0,0,1,.747.108ZM5.985,0H3.578V-8.981H5.985ZM3.437-11.306a1.181,1.181,0,0,1,.361-.888,1.356,1.356,0,0,1,.984-.349,1.36,1.36,0,0,1,.979.349,1.175,1.175,0,0,1,.365.888,1.178,1.178,0,0,1-.369.9,1.363,1.363,0,0,1-.975.349,1.363,1.363,0,0,1-.975-.349A1.178,1.178,0,0,1,3.437-11.306Zm7.28,9.372h4.391V0H7.653V-1.461l4.225-5.586h-4.1V-8.981h7.2v1.413ZM21.814,0a2.664,2.664,0,0,1-.241-.805,2.9,2.9,0,0,1-2.266.971A3.189,3.189,0,0,1,17.12-.6a2.456,2.456,0,0,1-.867-1.926,2.538,2.538,0,0,1,1.058-2.191,5.222,5.222,0,0,1,3.059-.772h1.1V-6a1.48,1.48,0,0,0-.32-1,1.257,1.257,0,0,0-1.009-.374,1.429,1.429,0,0,0-.95.291.987.987,0,0,0-.344.8h-2.4a2.41,2.41,0,0,1,.481-1.444A3.182,3.182,0,0,1,18.295-8.77a4.961,4.961,0,0,1,1.976-.378,3.92,3.92,0,0,1,2.635.834,2.918,2.918,0,0,1,.975,2.345v3.893a4.294,4.294,0,0,0,.357,1.934V0ZM19.831-1.668a2.066,2.066,0,0,0,.979-.237,1.554,1.554,0,0,0,.664-.635V-4.084h-.9q-1.8,0-1.917,1.245l-.008.141a.96.96,0,0,0,.315.739A1.225,1.225,0,0,0,19.831-1.668Zm9.629-.1a1.573,1.573,0,0,0,1.079-.365A1.28,1.28,0,0,0,30.97-3.1h2.25a3.077,3.077,0,0,1-.5,1.673A3.286,3.286,0,0,1,31.381-.253,4.2,4.2,0,0,1,29.5.166a3.9,3.9,0,0,1-3.038-1.224,4.845,4.845,0,0,1-1.112-3.383V-4.6a4.79,4.79,0,0,1,1.1-3.312,3.854,3.854,0,0,1,3.03-1.237,3.778,3.778,0,0,1,2.7.959A3.4,3.4,0,0,1,33.22-5.636H30.97a1.648,1.648,0,0,0-.432-1.139,1.439,1.439,0,0,0-1.1-.438,1.445,1.445,0,0,0-1.266.611A3.541,3.541,0,0,0,27.75-4.62v.249a3.586,3.586,0,0,0,.423,2A1.463,1.463,0,0,0,29.459-1.768ZM37.121,0H34.714V-8.981h2.407ZM34.573-11.306a1.181,1.181,0,0,1,.361-.888,1.356,1.356,0,0,1,.984-.349,1.36,1.36,0,0,1,.979.349,1.175,1.175,0,0,1,.365.888,1.178,1.178,0,0,1-.369.9,1.363,1.363,0,0,1-.975.349,1.363,1.363,0,0,1-.975-.349A1.178,1.178,0,0,1,34.573-11.306Zm4.15,6.732a5.327,5.327,0,0,1,.515-2.382,3.767,3.767,0,0,1,1.482-1.619,4.323,4.323,0,0,1,2.245-.573,4.09,4.09,0,0,1,2.968,1.112,4.464,4.464,0,0,1,1.282,3.021l.017.614a4.694,4.694,0,0,1-1.154,3.316,4.011,4.011,0,0,1-3.1,1.249,4.031,4.031,0,0,1-3.1-1.245,4.777,4.777,0,0,1-1.158-3.387Zm2.4.17A3.357,3.357,0,0,0,41.6-2.446a1.588,1.588,0,0,0,1.378.678,1.592,1.592,0,0,0,1.361-.669,3.674,3.674,0,0,0,.49-2.141,3.324,3.324,0,0,0-.49-1.945,1.592,1.592,0,0,0-1.378-.69,1.566,1.566,0,0,0-1.361.686A3.735,3.735,0,0,0,41.122-4.4Zm2.316-8.347h2.615l-2.3,2.573H41.8Zm7.479,3.769.075,1.038a3.136,3.136,0,0,1,2.582-1.2,2.606,2.606,0,0,1,2.125.838A3.912,3.912,0,0,1,56.412-5.8V0h-2.4V-5.757a1.562,1.562,0,0,0-.332-1.111,1.484,1.484,0,0,0-1.1-.345,1.65,1.65,0,0,0-1.519.865V0h-2.4V-8.981ZM-49.456,14.6l1.66-5.586h2.573l-3.611,10.376-.2.473a2.738,2.738,0,0,1-2.656,1.76,3.775,3.775,0,0,1-1.062-.158V19.652l.365.008a1.973,1.973,0,0,0,1.017-.208,1.363,1.363,0,0,0,.527-.689l.282-.739-3.146-9.006h2.582Zm14.277.913a.773.773,0,0,0-.436-.693,4.95,4.95,0,0,0-1.4-.452q-3.2-.672-3.2-2.723a2.468,2.468,0,0,1,.992-2,4,4,0,0,1,2.594-.8,4.307,4.307,0,0,1,2.735.805,2.538,2.538,0,0,1,1.025,2.092h-2.4A1.161,1.161,0,0,0-35.6,10.9a1.405,1.405,0,0,0-1.038-.336,1.436,1.436,0,0,0-.938.274.865.865,0,0,0-.332.7.739.739,0,0,0,.378.643,3.885,3.885,0,0,0,1.274.423,10.407,10.407,0,0,1,1.511.4,2.482,2.482,0,0,1,1.9,2.416A2.343,2.343,0,0,1-33.9,17.406a4.548,4.548,0,0,1-2.723.76,4.75,4.75,0,0,1-2-.4A3.363,3.363,0,0,1-40,16.659a2.565,2.565,0,0,1-.5-1.515h2.274a1.252,1.252,0,0,0,.473.979,1.877,1.877,0,0,0,1.179.34,1.737,1.737,0,0,0,1.042-.261A.814.814,0,0,0-35.179,15.518Zm8.01,2.648a4.409,4.409,0,0,1-3.217-1.212,4.308,4.308,0,0,1-1.241-3.229v-.232a5.426,5.426,0,0,1,.523-2.42,3.838,3.838,0,0,1,1.482-1.644,4.159,4.159,0,0,1,2.187-.577,3.727,3.727,0,0,1,2.9,1.162,4.722,4.722,0,0,1,1.058,3.3v.979h-5.719a2.229,2.229,0,0,0,.7,1.411,2.12,2.12,0,0,0,1.482.531,2.589,2.589,0,0,0,2.167-1l1.179,1.32a3.6,3.6,0,0,1-1.461,1.191A4.793,4.793,0,0,1-27.168,18.166Zm-.274-7.379a1.5,1.5,0,0,0-1.158.484,2.5,2.5,0,0,0-.569,1.384h3.337v-.192a1.786,1.786,0,0,0-.432-1.238A1.547,1.547,0,0,0-27.442,10.787Zm4.98,2.656a5.264,5.264,0,0,1,.984-3.329,3.187,3.187,0,0,1,2.652-1.262,2.8,2.8,0,0,1,2.3,1.013l.1-.847h2.175V17.7a3.839,3.839,0,0,1-.535,2.05,3.439,3.439,0,0,1-1.507,1.328,5.3,5.3,0,0,1-2.274.457,4.925,4.925,0,0,1-1.926-.394,3.418,3.418,0,0,1-1.419-1.017l1.063-1.461a2.81,2.81,0,0,0,2.175,1,2.057,2.057,0,0,0,1.486-.51,1.915,1.915,0,0,0,.531-1.448v-.481a2.775,2.775,0,0,1-2.183.938A3.179,3.179,0,0,1-21.462,16.9a5.262,5.262,0,0,1-1-3.358Zm2.4.171a3.3,3.3,0,0,0,.49,1.922,1.557,1.557,0,0,0,1.345.7,1.665,1.665,0,0,0,1.569-.826V11.612a1.661,1.661,0,0,0-1.552-.826,1.566,1.566,0,0,0-1.357.709A3.715,3.715,0,0,0-20.063,13.614Zm13.032,3.473a3.008,3.008,0,0,1-2.457,1.079,2.837,2.837,0,0,1-2.2-.83,3.543,3.543,0,0,1-.776-2.432V9.019h2.4v5.809q0,1.4,1.278,1.4a1.732,1.732,0,0,0,1.677-.848V9.019h2.407V18H-6.964ZM-.365,18H-2.772V9.019H-.365ZM-2.914,6.694a1.181,1.181,0,0,1,.361-.888,1.356,1.356,0,0,1,.984-.349,1.36,1.36,0,0,1,.979.349,1.175,1.175,0,0,1,.365.888,1.178,1.178,0,0,1-.369.9,1.363,1.363,0,0,1-.975.349,1.363,1.363,0,0,1-.975-.349A1.178,1.178,0,0,1-2.914,6.694ZM3.86,9.019l.075,1a3.156,3.156,0,0,1,2.582-1.17A2.4,2.4,0,0,1,8.9,10.222a3.084,3.084,0,0,1,2.7-1.37,2.679,2.679,0,0,1,2.175.851,3.911,3.911,0,0,1,.714,2.561V18H12.078V12.259a1.717,1.717,0,0,0-.3-1.119,1.322,1.322,0,0,0-1.054-.354A1.5,1.5,0,0,0,9.23,11.818L9.239,18H6.84V12.268a1.7,1.7,0,0,0-.307-1.132,1.335,1.335,0,0,0-1.046-.349,1.554,1.554,0,0,0-1.478.849V18H1.61V9.019Zm15,8.981H16.452V9.019h2.407ZM16.311,6.694a1.181,1.181,0,0,1,.361-.888,1.556,1.556,0,0,1,1.963,0A1.175,1.175,0,0,1,19,6.694a1.178,1.178,0,0,1-.369.9,1.539,1.539,0,0,1-1.951,0A1.178,1.178,0,0,1,16.311,6.694Zm8.658,11.472a4.409,4.409,0,0,1-3.217-1.212,4.308,4.308,0,0,1-1.241-3.229v-.232a5.426,5.426,0,0,1,.523-2.42,3.838,3.838,0,0,1,1.482-1.644A4.159,4.159,0,0,1,24.7,8.853a3.727,3.727,0,0,1,2.9,1.162,4.722,4.722,0,0,1,1.058,3.3v.979H22.943a2.229,2.229,0,0,0,.7,1.411,2.12,2.12,0,0,0,1.482.531,2.589,2.589,0,0,0,2.167-1l1.179,1.32a3.6,3.6,0,0,1-1.461,1.191A4.793,4.793,0,0,1,24.969,18.166Zm-.274-7.379a1.5,1.5,0,0,0-1.158.484,2.5,2.5,0,0,0-.569,1.384h3.337v-.192a1.786,1.786,0,0,0-.432-1.238A1.547,1.547,0,0,0,24.695,10.787Zm7.537-1.768.075,1.038a3.136,3.136,0,0,1,2.582-1.2,2.606,2.606,0,0,1,2.125.838,3.912,3.912,0,0,1,.714,2.507V18h-2.4V12.243A1.562,1.562,0,0,0,35,11.132a1.484,1.484,0,0,0-1.1-.345,1.65,1.65,0,0,0-1.519.865V18h-2.4V9.019ZM42.417,6.811V9.019h1.536v1.76H42.417v4.482a1.07,1.07,0,0,0,.191.714.959.959,0,0,0,.73.216,3.826,3.826,0,0,0,.706-.058V17.95a4.939,4.939,0,0,1-1.453.216,2.29,2.29,0,0,1-2.573-2.548V10.778H38.707V9.019h1.312V6.811Zm2.25,6.616a5.327,5.327,0,0,1,.515-2.382,3.767,3.767,0,0,1,1.482-1.619,4.323,4.323,0,0,1,2.245-.573,4.09,4.09,0,0,1,2.968,1.112,4.464,4.464,0,0,1,1.282,3.021l.017.614a4.694,4.694,0,0,1-1.154,3.316,4.472,4.472,0,0,1-6.2,0,4.777,4.777,0,0,1-1.158-3.387Zm2.4.17a3.357,3.357,0,0,0,.481,1.958,1.73,1.73,0,0,0,2.739.008,3.674,3.674,0,0,0,.49-2.141,3.324,3.324,0,0,0-.49-1.945,1.592,1.592,0,0,0-1.378-.69,1.566,1.566,0,0,0-1.361.686A3.735,3.735,0,0,0,47.065,13.6Z" transform="translate(832.676 2161.306)" fill="#12263f"/>
    <path id="Trazado_199855" data-name="Trazado 199855" d="M-41.35-1.527a4.322,4.322,0,0,1-1.9,1.249,7.961,7.961,0,0,1-2.723.444,5.393,5.393,0,0,1-2.752-.685,4.568,4.568,0,0,1-1.826-1.988,7,7,0,0,1-.66-3.063v-.822a7.431,7.431,0,0,1,.61-3.134,4.513,4.513,0,0,1,1.76-2.025,5.069,5.069,0,0,1,2.694-.7,5.048,5.048,0,0,1,3.362,1.025A4.381,4.381,0,0,1-41.35-8.243h-2.424a2.41,2.41,0,0,0-.735-1.519,2.346,2.346,0,0,0-1.565-.481,2.208,2.208,0,0,0-1.934.955A5.02,5.02,0,0,0-48.68-6.45v.772a4.778,4.778,0,0,0,.722,2.872,2.473,2.473,0,0,0,2.117.971,2.762,2.762,0,0,0,2-.6V-4.516h-2.266V-6.35h4.756ZM-35.357.166a4.409,4.409,0,0,1-3.217-1.212,4.308,4.308,0,0,1-1.241-3.229v-.232a5.426,5.426,0,0,1,.523-2.42A3.838,3.838,0,0,1-37.81-8.571a4.159,4.159,0,0,1,2.187-.577,3.727,3.727,0,0,1,2.9,1.162,4.722,4.722,0,0,1,1.058,3.3v.979h-5.719a2.229,2.229,0,0,0,.7,1.411,2.12,2.12,0,0,0,1.482.531,2.589,2.589,0,0,0,2.167-1l1.179,1.32A3.6,3.6,0,0,1-33.315-.261,4.793,4.793,0,0,1-35.357.166Zm-.274-7.379a1.5,1.5,0,0,0-1.158.484,2.5,2.5,0,0,0-.569,1.384h3.337v-.192a1.786,1.786,0,0,0-.432-1.238A1.547,1.547,0,0,0-35.631-7.213Zm10.193,4.731a.773.773,0,0,0-.436-.693,4.95,4.95,0,0,0-1.4-.452q-3.2-.672-3.2-2.723a2.468,2.468,0,0,1,.992-2,4,4,0,0,1,2.594-.8,4.307,4.307,0,0,1,2.735.805A2.538,2.538,0,0,1-23.13-6.25h-2.4a1.161,1.161,0,0,0-.332-.851A1.405,1.405,0,0,0-26.9-7.437a1.436,1.436,0,0,0-.938.274.865.865,0,0,0-.332.7.739.739,0,0,0,.378.643,3.885,3.885,0,0,0,1.274.423,10.407,10.407,0,0,1,1.511.4,2.482,2.482,0,0,1,1.9,2.416A2.343,2.343,0,0,1-24.159-.594a4.548,4.548,0,0,1-2.723.76,4.75,4.75,0,0,1-2-.4,3.363,3.363,0,0,1-1.374-1.1,2.565,2.565,0,0,1-.5-1.515h2.274a1.252,1.252,0,0,0,.473.979,1.877,1.877,0,0,0,1.179.34A1.737,1.737,0,0,0-25.791-1.8.814.814,0,0,0-25.438-2.482Zm6.749-8.708v2.208h1.536v1.76h-1.536v4.482a1.07,1.07,0,0,0,.191.714.959.959,0,0,0,.73.216,3.826,3.826,0,0,0,.706-.058V-.05a4.939,4.939,0,0,1-1.453.216,2.29,2.29,0,0,1-2.573-2.548V-7.222H-22.4v-1.76h1.312v-2.208ZM-13.285,0h-2.407V-8.981h2.407Zm-2.548-11.306a1.181,1.181,0,0,1,.361-.888,1.356,1.356,0,0,1,.984-.349,1.36,1.36,0,0,1,.979.349,1.175,1.175,0,0,1,.365.888,1.178,1.178,0,0,1-.369.9,1.363,1.363,0,0,1-.975.349,1.363,1.363,0,0,1-.975-.349A1.178,1.178,0,0,1-15.834-11.306Zm4.15,6.732a5.327,5.327,0,0,1,.515-2.382A3.768,3.768,0,0,1-9.687-8.575a4.323,4.323,0,0,1,2.245-.573A4.09,4.09,0,0,1-4.474-8.035,4.464,4.464,0,0,1-3.192-5.014l.017.614A4.694,4.694,0,0,1-4.329-1.083,4.011,4.011,0,0,1-7.425.166a4.031,4.031,0,0,1-3.1-1.245,4.777,4.777,0,0,1-1.158-3.387Zm2.4.17A3.357,3.357,0,0,0-8.8-2.446a1.588,1.588,0,0,0,1.378.678,1.592,1.592,0,0,0,1.361-.669,3.674,3.674,0,0,0,.49-2.141,3.324,3.324,0,0,0-.49-1.945,1.592,1.592,0,0,0-1.378-.69A1.566,1.566,0,0,0-8.8-6.528,3.735,3.735,0,0,0-9.284-4.4Zm2.316-8.347h2.615l-2.3,2.573H-8.6ZM.51-8.981.585-7.944a3.136,3.136,0,0,1,2.582-1.2,2.606,2.606,0,0,1,2.125.838A3.912,3.912,0,0,1,6.006-5.8V0h-2.4V-5.757a1.562,1.562,0,0,0-.332-1.111,1.484,1.484,0,0,0-1.1-.345,1.65,1.65,0,0,0-1.519.865V0h-2.4V-8.981ZM11.683-4.557A5.413,5.413,0,0,1,12.625-7.9,3.057,3.057,0,0,1,15.2-9.147a2.751,2.751,0,0,1,2.167.979V-12.75h2.407V0H17.61l-.116-.955A2.823,2.823,0,0,1,15.186.166a3.049,3.049,0,0,1-2.544-1.249A5.587,5.587,0,0,1,11.683-4.557Zm2.4.171a3.565,3.565,0,0,0,.44,1.943,1.432,1.432,0,0,0,1.278.675,1.6,1.6,0,0,0,1.569-.942V-6.271a1.582,1.582,0,0,0-1.552-.942Q14.082-7.213,14.082-4.386ZM25.77.166a4.409,4.409,0,0,1-3.217-1.212,4.308,4.308,0,0,1-1.241-3.229v-.232a5.426,5.426,0,0,1,.523-2.42,3.838,3.838,0,0,1,1.482-1.644A4.159,4.159,0,0,1,25.5-9.147a3.727,3.727,0,0,1,2.9,1.162,4.722,4.722,0,0,1,1.058,3.3v.979H23.744a2.229,2.229,0,0,0,.7,1.411,2.12,2.12,0,0,0,1.482.531,2.589,2.589,0,0,0,2.167-1l1.179,1.32A3.6,3.6,0,0,1,27.812-.261,4.793,4.793,0,0,1,25.77.166ZM25.5-7.213a1.5,1.5,0,0,0-1.158.484,2.5,2.5,0,0,0-.569,1.384h3.337v-.192a1.786,1.786,0,0,0-.432-1.238A1.547,1.547,0,0,0,25.5-7.213ZM37.59,0H35.183V-12.75H37.59Zm7.18,0a2.664,2.664,0,0,1-.241-.805,2.9,2.9,0,0,1-2.266.971A3.189,3.189,0,0,1,40.076-.6a2.456,2.456,0,0,1-.867-1.926,2.538,2.538,0,0,1,1.058-2.191,5.222,5.222,0,0,1,3.059-.772h1.1V-6a1.48,1.48,0,0,0-.32-1A1.257,1.257,0,0,0,43.1-7.371a1.429,1.429,0,0,0-.95.291.987.987,0,0,0-.344.8h-2.4a2.41,2.41,0,0,1,.481-1.444A3.182,3.182,0,0,1,41.251-8.77a4.961,4.961,0,0,1,1.976-.378,3.92,3.92,0,0,1,2.635.834,2.918,2.918,0,0,1,.975,2.345v3.893a4.294,4.294,0,0,0,.357,1.934V0ZM42.786-1.668a2.066,2.066,0,0,0,.979-.237,1.554,1.554,0,0,0,.664-.635V-4.084h-.9q-1.8,0-1.917,1.245l-.008.141a.96.96,0,0,0,.315.739A1.225,1.225,0,0,0,42.786-1.668ZM-34.859,13.443a5.413,5.413,0,0,1,.942-3.345A3.057,3.057,0,0,1-31.34,8.853a2.751,2.751,0,0,1,2.167.979V5.25h2.407V18h-2.167l-.116-.955a2.823,2.823,0,0,1-2.308,1.121A3.049,3.049,0,0,1-33.9,16.917,5.587,5.587,0,0,1-34.859,13.443Zm2.4.171a3.565,3.565,0,0,0,.44,1.943,1.432,1.432,0,0,0,1.278.675,1.6,1.6,0,0,0,1.569-.942V11.729a1.582,1.582,0,0,0-1.552-.942Q-32.46,10.787-32.46,13.614Zm11.688,4.552a4.409,4.409,0,0,1-3.217-1.212,4.308,4.308,0,0,1-1.241-3.229v-.232a5.426,5.426,0,0,1,.523-2.42,3.838,3.838,0,0,1,1.482-1.644,4.159,4.159,0,0,1,2.187-.577,3.727,3.727,0,0,1,2.9,1.162,4.722,4.722,0,0,1,1.058,3.3v.979H-22.8a2.229,2.229,0,0,0,.7,1.411,2.12,2.12,0,0,0,1.482.531,2.589,2.589,0,0,0,2.167-1l1.179,1.32a3.6,3.6,0,0,1-1.461,1.191A4.793,4.793,0,0,1-20.773,18.166Zm-.274-7.379a1.5,1.5,0,0,0-1.158.484,2.5,2.5,0,0,0-.569,1.384h3.337v-.192a1.786,1.786,0,0,0-.432-1.238A1.547,1.547,0,0,0-21.047,10.787Zm7.579-1.768.075,1a3.156,3.156,0,0,1,2.582-1.17,2.4,2.4,0,0,1,2.382,1.37,3.084,3.084,0,0,1,2.7-1.37A2.679,2.679,0,0,1-3.557,9.7a3.911,3.911,0,0,1,.714,2.561V18H-5.25V12.259a1.717,1.717,0,0,0-.3-1.119A1.322,1.322,0,0,0-6.6,10.787,1.5,1.5,0,0,0-8.1,11.818L-8.089,18h-2.4V12.268a1.7,1.7,0,0,0-.307-1.132,1.335,1.335,0,0,0-1.046-.349,1.554,1.554,0,0,0-1.478.849V18h-2.4V9.019ZM4.2,18a2.664,2.664,0,0,1-.241-.805,2.9,2.9,0,0,1-2.266.971A3.189,3.189,0,0,1-.49,17.4a2.456,2.456,0,0,1-.867-1.926A2.538,2.538,0,0,1-.3,13.285a5.222,5.222,0,0,1,3.059-.772h1.1V12a1.48,1.48,0,0,0-.32-1,1.257,1.257,0,0,0-1.009-.374,1.429,1.429,0,0,0-.95.291.987.987,0,0,0-.344.8h-2.4a2.41,2.41,0,0,1,.481-1.444A3.182,3.182,0,0,1,.685,9.23,4.961,4.961,0,0,1,2.66,8.853,3.92,3.92,0,0,1,5.3,9.687a2.918,2.918,0,0,1,.975,2.345v3.893a4.294,4.294,0,0,0,.357,1.934V18ZM2.22,16.332a2.066,2.066,0,0,0,.979-.237,1.554,1.554,0,0,0,.664-.635V13.916h-.9q-1.8,0-1.917,1.245l-.008.141a.96.96,0,0,0,.315.739A1.225,1.225,0,0,0,2.22,16.332Zm8.1-7.313.075,1.038a3.136,3.136,0,0,1,2.582-1.2,2.606,2.606,0,0,1,2.125.838,3.912,3.912,0,0,1,.714,2.507V18h-2.4V12.243a1.562,1.562,0,0,0-.332-1.111,1.484,1.484,0,0,0-1.1-.345,1.65,1.65,0,0,0-1.519.865V18h-2.4V9.019Zm6.939,4.424A5.413,5.413,0,0,1,18.2,10.1a3.057,3.057,0,0,1,2.577-1.245,2.751,2.751,0,0,1,2.167.979V5.25h2.407V18H23.188l-.116-.955a2.823,2.823,0,0,1-2.308,1.121,3.049,3.049,0,0,1-2.544-1.249A5.587,5.587,0,0,1,17.261,13.443Zm2.4.171a3.565,3.565,0,0,0,.44,1.943,1.432,1.432,0,0,0,1.278.675,1.6,1.6,0,0,0,1.569-.942V11.729a1.582,1.582,0,0,0-1.552-.942Q19.66,10.787,19.66,13.614ZM32.419,18a2.664,2.664,0,0,1-.241-.805,2.9,2.9,0,0,1-2.266.971,3.189,3.189,0,0,1-2.187-.764,2.456,2.456,0,0,1-.867-1.926,2.538,2.538,0,0,1,1.058-2.191,5.222,5.222,0,0,1,3.059-.772h1.1V12a1.48,1.48,0,0,0-.32-1,1.257,1.257,0,0,0-1.009-.374,1.429,1.429,0,0,0-.95.291.987.987,0,0,0-.344.8h-2.4a2.41,2.41,0,0,1,.481-1.444A3.182,3.182,0,0,1,28.9,9.23a4.961,4.961,0,0,1,1.976-.378,3.92,3.92,0,0,1,2.635.834,2.918,2.918,0,0,1,.975,2.345v3.893a4.294,4.294,0,0,0,.357,1.934V18Zm-1.984-1.668a2.066,2.066,0,0,0,.979-.237,1.554,1.554,0,0,0,.664-.635V13.916h-.9q-1.8,0-1.917,1.245l-.008.141a.96.96,0,0,0,.315.739A1.225,1.225,0,0,0,30.435,16.332Z" transform="translate(833.212 2409.83)" fill="#12263f"/>
    <path id="Trazado_199856" data-name="Trazado 199856" d="M-5.943-4.026A4.277,4.277,0,0,1-7.384-.955,5.058,5.058,0,0,1-10.808.166,4.548,4.548,0,0,1-14.464-1.4a6.416,6.416,0,0,1-1.332-4.3v-.739A7.245,7.245,0,0,1-15.182-9.5a4.6,4.6,0,0,1,1.756-2.038,4.918,4.918,0,0,1,2.652-.71A4.927,4.927,0,0,1-7.4-11.131,4.6,4.6,0,0,1-5.927-7.985h-2.49a2.524,2.524,0,0,0-.652-1.7,2.413,2.413,0,0,0-1.706-.527,2.116,2.116,0,0,0-1.864.892,5,5,0,0,0-.635,2.768v.913a5.352,5.352,0,0,0,.594,2.864,2.077,2.077,0,0,0,1.872.9,2.458,2.458,0,0,0,1.722-.527,2.381,2.381,0,0,0,.652-1.631ZM-4.308,0V-12.086H-.589a5.647,5.647,0,0,1,2.851.718A5.007,5.007,0,0,1,4.225-9.326a6.3,6.3,0,0,1,.706,3.009v.556a6.316,6.316,0,0,1-.693,3A4.964,4.964,0,0,1,2.283-.73,5.69,5.69,0,0,1-.564,0Zm2.49-10.069V-2h1.2a2.7,2.7,0,0,0,2.233-.955,4.314,4.314,0,0,0,.789-2.731v-.639a4.382,4.382,0,0,0-.764-2.793,2.7,2.7,0,0,0-2.233-.95ZM6.74,0V-12.086h4.233a5.559,5.559,0,0,1,3.337.843,2.881,2.881,0,0,1,1.137,2.469,2.731,2.731,0,0,1-.457,1.565,2.637,2.637,0,0,1-1.27.992,2.551,2.551,0,0,1,1.465.938,2.773,2.773,0,0,1,.535,1.727,3.19,3.19,0,0,1-1.112,2.64A5.007,5.007,0,0,1,11.438,0ZM9.23-5.263V-2h2.133a2.059,2.059,0,0,0,1.374-.419,1.437,1.437,0,0,0,.494-1.158,1.518,1.518,0,0,0-1.718-1.685Zm0-1.76h1.843q1.884-.033,1.884-1.5a1.388,1.388,0,0,0-.477-1.183,2.51,2.51,0,0,0-1.507-.361H9.23Z" transform="translate(1037.212 2419.83)" fill="#12263f"/>
    <path id="Trazado_199661" data-name="Trazado 199661" d="M-7812.137-9468.582h8.41v-41.93h14.031v41.93h8.766l-16.3,16.3Z" transform="translate(8627.676 11708)" fill="#f59d36"/>
    <g id="Grupo_161576" data-name="Grupo 161576">
      <path id="Trazado_199662" data-name="Trazado 199662" d="M-8116.387-9498.09h8" transform="translate(8723.229 11798.252)" fill="#12263f" stroke="#12263f" stroke-width="1"/>
      <g id="Polígono_80" data-name="Polígono 80" transform="translate(618.229 2297.641) rotate(90)" fill="#12263f">
        <path d="M 4.190985202789307 4.5 L 0.8090149760246277 4.5 L 2.5 1.118029952049255 L 4.190985202789307 4.5 Z" stroke="none"/>
        <path d="M 2.5 2.236069917678833 L 1.618035078048706 4 L 3.381965160369873 4 L 2.5 2.236069917678833 M 2.5 0 L 5 5 L 0 5 L 2.5 0 Z" stroke="none" fill="#12263f"/>
      </g>
    </g>
    <g id="Grupo_161577" data-name="Grupo 161577" transform="translate(221.006)">
      <path id="Trazado_199662-2" data-name="Trazado 199662" d="M-8116.387-9498.09h8" transform="translate(8723.229 11798.252)" fill="#12263f" stroke="#12263f" stroke-width="1"/>
      <g id="Polígono_80-2" data-name="Polígono 80" transform="translate(618.229 2297.641) rotate(90)" fill="#12263f">
        <path d="M 4.190985202789307 4.5 L 0.8090149760246277 4.5 L 2.5 1.118029952049255 L 4.190985202789307 4.5 Z" stroke="none"/>
        <path d="M 2.5 2.236069917678833 L 1.618035078048706 4 L 3.381965160369873 4 L 2.5 2.236069917678833 M 2.5 0 L 5 5 L 0 5 L 2.5 0 Z" stroke="none" fill="#12263f"/>
      </g>
    </g>
    <g id="Grupo_161579" data-name="Grupo 161579" transform="translate(336.006 113.689)">
      <path id="Trazado_199662-3" data-name="Trazado 199662" d="M-8116.387-9498.09h8" transform="translate(8723.229 11798.252)" fill="#12263f" stroke="#12263f" stroke-width="1"/>
      <g id="Polígono_80-3" data-name="Polígono 80" transform="translate(618.229 2297.641) rotate(90)" fill="#12263f">
        <path d="M 4.190985202789307 4.5 L 0.8090149760246277 4.5 L 2.5 1.118029952049255 L 4.190985202789307 4.5 Z" stroke="none"/>
        <path d="M 2.5 2.236069917678833 L 1.618035078048706 4 L 3.381965160369873 4 L 2.5 2.236069917678833 M 2.5 0 L 5 5 L 0 5 L 2.5 0 Z" stroke="none" fill="#12263f"/>
      </g>
    </g>
    <g id="Grupo_161578" data-name="Grupo 161578" transform="translate(441.005)">
      <path id="Trazado_199662-4" data-name="Trazado 199662" d="M-8116.387-9498.09h8" transform="translate(8723.229 11798.252)" fill="#12263f" stroke="#12263f" stroke-width="1"/>
      <g id="Polígono_80-4" data-name="Polígono 80" transform="translate(618.229 2297.641) rotate(90)" fill="#12263f">
        <path d="M 4.190985202789307 4.5 L 0.8090149760246277 4.5 L 2.5 1.118029952049255 L 4.190985202789307 4.5 Z" stroke="none"/>
        <path d="M 2.5 2.236069917678833 L 1.618035078048706 4 L 3.381965160369873 4 L 2.5 2.236069917678833 M 2.5 0 L 5 5 L 0 5 L 2.5 0 Z" stroke="none" fill="#12263f"/>
      </g>
    </g>
    <g id="Grupo_161580" data-name="Grupo 161580" transform="translate(1535.076 4713.971) rotate(180)">
      <path id="Trazado_199662-5" data-name="Trazado 199662" d="M-8116.387-9498.09h8" transform="translate(8723.229 11798.252)" fill="#12263f" stroke="#12263f" stroke-width="1"/>
      <g id="Polígono_80-5" data-name="Polígono 80" transform="translate(618.229 2297.641) rotate(90)" fill="#12263f">
        <path d="M 4.190985202789307 4.5 L 0.8090149760246277 4.5 L 2.5 1.118029952049255 L 4.190985202789307 4.5 Z" stroke="none"/>
        <path d="M 2.5 2.236069917678833 L 1.618035078048706 4 L 3.381965160369873 4 L 2.5 2.236069917678833 M 2.5 0 L 5 5 L 0 5 L 2.5 0 Z" stroke="none" fill="#12263f"/>
      </g>
    </g>
    <path id="Trazado_199663" data-name="Trazado 199663" d="M-7633.441-9286.17v-83.655" transform="translate(8561.676 11700)" fill="none" stroke="#12263f" stroke-width="1"/>
    <path id="Trazado_199664" data-name="Trazado 199664" d="M-7618.638-9286.17v-83.736" transform="translate(8561.676 11700)" fill="none" stroke="#12263f" stroke-width="1"/>
  </g>
</svg>
