<svg xmlns="http://www.w3.org/2000/svg" width="50.055" height="50.075" viewBox="0 0 50.055 50.075">
  <g id="o8E3X5.tif" transform="translate(0)">
    <g id="Grupo_152069" data-name="Grupo 152069" transform="translate(0 0)">
      <path id="Trazado_194695" data-name="Trazado 194695" d="M1189.765-335.647h1.669a1.962,1.962,0,0,0,.3.088,8.207,8.207,0,0,1,5.121,2.736,8.66,8.66,0,0,1,1.743,3.085,1.286,1.286,0,0,0,.194.012,6.6,6.6,0,0,1,7.014,3.759.51.51,0,0,0,.551.336c1.025-.015,2.05-.006,3.075-.006a2.545,2.545,0,0,1,2.865,2.847q0,11.2.006,22.408a3.012,3.012,0,0,0,.145.914q.959,2.943,1.952,5.874c.4,1.177.821,2.345,1.234,3.518v2.5c-.528,1.517-1.624,2-3.184,2q-21.942-.047-43.885-.019c-.208,0-.417.006-.625-.006a2.3,2.3,0,0,1-2.2-1.7,6.907,6.907,0,0,1,0-2.972c.9-3.076,1.992-6.1,3-9.146a3.311,3.311,0,0,0,.169-1.013q.014-11.258.008-22.516a2.51,2.51,0,0,1,2.7-2.695c1.042,0,2.085-.014,3.127.007a.655.655,0,0,0,.7-.427,6.39,6.39,0,0,1,5-3.652,14.909,14.909,0,0,1,2.156-.016c.053-.14.09-.236.125-.333a8.178,8.178,0,0,1,5.084-5.091A19.684,19.684,0,0,1,1189.765-335.647Zm17.483,31.678V-320.63c-.331,0-.625,0-.918,0-.12,0-.241.012-.352.018a6.844,6.844,0,0,1-7.017,4.154c-.271-.012-.543,0-.852,0v3.39a.75.75,0,0,0,.006.259,1.169,1.169,0,0,0,.217.389c.582.6,1.184,1.175,1.76,1.778a.529.529,0,0,0,.633.147,2.476,2.476,0,0,1,2.877,1.116,2.491,2.491,0,0,1-.39,3.025,2.493,2.493,0,0,1-3.024.4,2.463,2.463,0,0,1-1.121-2.873.568.568,0,0,0-.181-.672c-.709-.692-1.4-1.407-2.109-2.093a1.011,1.011,0,0,1-.345-.814c.02-1.333.008-2.667.008-4.019h-5.006c0,1.836.006,3.64-.006,5.444a.674.674,0,0,0,.409.721,2.434,2.434,0,0,1,1.213,2.652,2.517,2.517,0,0,1-2.149,1.989,2.52,2.52,0,0,1-2.585-1.465,2.241,2.241,0,0,1,.659-2.856c.86-.505.8-1.146.794-1.9-.014-1.182,0-2.364,0-3.545v-1.075h-5.006c0,.619,0,1.172,0,1.726a7.943,7.943,0,0,1-.1,2.782c-.323.787-1.214,1.349-1.88,1.985-.458.437-.944.835-.542,1.562a.593.593,0,0,1,.017.258,2.522,2.522,0,0,1-1.688,2.393,2.5,2.5,0,0,1-2.8-.852,2.483,2.483,0,0,1-.1-2.879,2.417,2.417,0,0,1,2.725-1.025.678.678,0,0,0,.805-.221c.539-.566,1.106-1.106,1.652-1.665a.686.686,0,0,0,.231-.38c.018-1.211.011-2.423.011-3.684-.5,0-.943,0-1.391,0a6.655,6.655,0,0,1-6.333-3.878c-.06-.118-.195-.268-.307-.278-.371-.035-.747-.013-1.119-.013v16.659Zm-16.688-14.159h9.229c.052,0,.1,0,.156,0a4.836,4.836,0,0,0,4.381-2.953,4.7,4.7,0,0,0-.739-5.265,4.79,4.79,0,0,0-5.021-1.632c-.979.222-1.255.076-1.485-.881a6.63,6.63,0,0,0-6.467-5.123,6.632,6.632,0,0,0-6.5,5.145c-.222.92-.525,1.1-1.452.863a5.011,5.011,0,0,0-6.242,4.8,4.994,4.994,0,0,0,4.965,5.046C1184.442-318.108,1187.5-318.128,1190.56-318.128Zm23.043,27.515c-.029-.126-.041-.211-.068-.291-.856-2.567-1.724-5.13-2.561-7.7-.117-.36-.331-.332-.592-.332q-19.783,0-39.566-.008a.543.543,0,0,0-.627.438c-.82,2.506-1.661,5-2.492,7.506a3.212,3.212,0,0,0-.08.39h16.487c.215-.844.425-1.682.643-2.517.161-.616.395-.8,1.029-.8q4.822,0,9.644,0a.878.878,0,0,1,1.031.8c.218.835.427,1.673.641,2.518Zm-2.98-10.016V-309q0-6.933,0-13.866c0-.82-.276-1.1-1.091-1.1q-1.33,0-2.659,0c-.146,0-.292.022-.416.033v1.586a.555.555,0,0,0,.125.039c.452,0,.9,0,1.355.009.716.009,1.016.3,1.016,1.015q0,8.992,0,17.984c0,.718-.3,1.021-1.011,1.021q-17.333,0-34.665,0c-.722,0-1.029-.3-1.029-1q0-9.018,0-18.036c0-.679.309-.974.995-.982.5-.006,1,0,1.5,0v-1.669c-1.021,0-2.009,0-3,0-.917,0-1.164.251-1.164,1.181q0,10.816,0,21.633c0,.168.015.336.023.524Zm3.335,11.734h-46.682c-.136,1.4.074,1.636,1.428,1.636h43.887c.156,0,.313.005.469,0a.841.841,0,0,0,.9-.872C1213.969-288.374,1213.958-288.616,1213.958-288.895Zm-27.714-3.352-.4,1.63h9.519l-.4-1.63Zm-5.66-15.846a.841.841,0,0,0-.8-.853.837.837,0,0,0-.866.833.839.839,0,0,0,.821.828A.839.839,0,0,0,1180.584-308.093Zm10.846-.028a.839.839,0,0,0-.824-.825.837.837,0,0,0-.838.862.84.84,0,0,0,.849.8A.839.839,0,0,0,1191.43-308.121Zm10.846.028a.838.838,0,0,0-.794-.853.837.837,0,0,0-.866.834.836.836,0,0,0,.82.827A.839.839,0,0,0,1202.276-308.093Z" transform="translate(-1165.573 335.647)" fill="#12263f"/>
      <path id="Trazado_194696" data-name="Trazado 194696" d="M1290.6,65.43h-4.942V63.814h4.942Z" transform="translate(-1273.108 -22.069)" fill="#12263f"/>
      <path id="Trazado_194697" data-name="Trazado 194697" d="M1477.1,65.432V63.839h4.956v1.593Z" transform="translate(-1444.549 -22.092)" fill="#12263f"/>
      <path id="Trazado_194698" data-name="Trazado 194698" d="M1221.721,31.822h1.6v1.61h-1.6Z" transform="translate(-1215.853 6.58)" fill="#12263f"/>
      <path id="Trazado_194699" data-name="Trazado 194699" d="M1255.376,33.572h-1.592v-1.62h1.592Z" transform="translate(-1244.566 6.463)" fill="#12263f"/>
      <path id="Trazado_194700" data-name="Trazado 194700" d="M1285.511,33.471v-1.6h1.623v1.6Z" transform="translate(-1272.977 6.536)" fill="#12263f"/>
      <path id="Trazado_194701" data-name="Trazado 194701" d="M1317.521,31.822h1.6v1.61h-1.6Z" transform="translate(-1301.642 6.58)" fill="#12263f"/>
      <path id="Trazado_194702" data-name="Trazado 194702" d="M1349.4,33.546v-1.6h1.613v1.6Z" transform="translate(-1330.189 6.472)" fill="#12263f"/>
      <path id="Trazado_194703" data-name="Trazado 194703" d="M1381.494,31.776h1.6V33.4h-1.6Z" transform="translate(-1358.93 6.621)" fill="#12263f"/>
      <path id="Trazado_194704" data-name="Trazado 194704" d="M1445.215,33.442V31.834h1.6v1.608Z" transform="translate(-1415.992 6.569)" fill="#12263f"/>
      <path id="Trazado_194705" data-name="Trazado 194705" d="M1477.307,31.765h1.595v1.622h-1.595Z" transform="translate(-1444.73 6.631)" fill="#12263f"/>
      <path id="Trazado_194706" data-name="Trazado 194706" d="M1510.706,33.581H1509.1v-1.6h1.606Z" transform="translate(-1473.201 6.441)" fill="#12263f"/>
      <path id="Trazado_194707" data-name="Trazado 194707" d="M1540.866,33.578v-1.6h1.622v1.6Z" transform="translate(-1501.647 6.435)" fill="#12263f"/>
      <path id="Trazado_194708" data-name="Trazado 194708" d="M1572.816,33.552V31.966h1.623v1.586Z" transform="translate(-1530.258 6.451)" fill="#12263f"/>
      <path id="Trazado_194709" data-name="Trazado 194709" d="M1221.75,63.611h1.6v1.622h-1.6Z" transform="translate(-1215.879 -21.887)" fill="#12263f"/>
      <path id="Trazado_194710" data-name="Trazado 194710" d="M1255.342,65.453h-1.6v-1.61h1.6Z" transform="translate(-1244.527 -22.095)" fill="#12263f"/>
      <path id="Trazado_194711" data-name="Trazado 194711" d="M1542.735,65.445h-1.6V63.832h1.6Z" transform="translate(-1501.884 -22.085)" fill="#12263f"/>
      <path id="Trazado_194712" data-name="Trazado 194712" d="M1574.679,65.455h-1.6v-1.61h1.6Z" transform="translate(-1530.492 -22.097)" fill="#12263f"/>
      <path id="Trazado_194713" data-name="Trazado 194713" d="M1415.012,33.521h-1.6v-1.61h1.6Z" transform="translate(-1387.511 6.5)" fill="#12263f"/>
    </g>
  </g>
</svg>
