<svg xmlns="http://www.w3.org/2000/svg" xmlns:xlink="http://www.w3.org/1999/xlink" width="924" height="564" viewBox="0 0 924 564">
  <defs>
    <linearGradient id="linear-gradient" x1="0.5" x2="0.5" y2="1" gradientUnits="objectBoundingBox">
      <stop offset="0" stop-color="#fff"/>
      <stop offset="1" stop-color="#d2e6ee"/>
    </linearGradient>
    <linearGradient id="linear-gradient-10" x1="0.5" x2="0.5" y2="1" gradientUnits="objectBoundingBox">
      <stop offset="0" stop-color="#039be5"/>
      <stop offset="1" stop-color="#027fbc"/>
    </linearGradient>
  </defs>
  <g id="Grupo_161761" data-name="Grupo 161761" transform="translate(-338 -1722)">
    <g id="Grupo_161643" data-name="Grupo 161643" transform="translate(-2 118)">
      <g id="Rectángulo_46696" data-name="Rectángulo 46696" transform="translate(409 1604)" stroke="#12263f" stroke-width="4" fill="url(#linear-gradient)">
        <rect width="211" height="71" rx="10" stroke="none"/>
        <rect x="2" y="2" width="207" height="67" rx="8" fill="none"/>
      </g>
      <g id="Rectángulo_46700" data-name="Rectángulo 46700" transform="translate(340 1923)" stroke="#12263f" stroke-width="4" fill="url(#linear-gradient)">
        <rect width="211" height="71" rx="10" stroke="none"/>
        <rect x="2" y="2" width="207" height="67" rx="8" fill="none"/>
      </g>
      <g id="Rectángulo_46701" data-name="Rectángulo 46701" transform="translate(573 1923)" stroke="#12263f" stroke-width="4" fill="url(#linear-gradient)">
        <rect width="211" height="71" rx="10" stroke="none"/>
        <rect x="2" y="2" width="207" height="67" rx="8" fill="none"/>
      </g>
      <g id="Rectángulo_46704" data-name="Rectángulo 46704" transform="translate(573 2097)" stroke="#12263f" stroke-width="4" fill="url(#linear-gradient)">
        <rect width="211" height="71" rx="10" stroke="none"/>
        <rect x="2" y="2" width="207" height="67" rx="8" fill="none"/>
      </g>
      <g id="Rectángulo_46705" data-name="Rectángulo 46705" transform="translate(1053 2097)" stroke="#12263f" stroke-width="4" fill="url(#linear-gradient)">
        <rect width="211" height="71" rx="10" stroke="none"/>
        <rect x="2" y="2" width="207" height="67" rx="8" fill="none"/>
      </g>
      <g id="Rectángulo_46702" data-name="Rectángulo 46702" transform="translate(811 1923)" stroke="#12263f" stroke-width="4" fill="url(#linear-gradient)">
        <rect width="211" height="71" rx="10" stroke="none"/>
        <rect x="2" y="2" width="207" height="67" rx="8" fill="none"/>
      </g>
      <g id="Rectángulo_46703" data-name="Rectángulo 46703" transform="translate(1049 1923)" stroke="#12263f" stroke-width="4" fill="url(#linear-gradient)">
        <rect width="211" height="71" rx="10" stroke="none"/>
        <rect x="2" y="2" width="207" height="67" rx="8" fill="none"/>
      </g>
      <g id="Rectángulo_46697" data-name="Rectángulo 46697" transform="translate(676 1604)" stroke="#12263f" stroke-width="4" fill="url(#linear-gradient)">
        <rect width="211" height="71" rx="10" stroke="none"/>
        <rect x="2" y="2" width="207" height="67" rx="8" fill="none"/>
      </g>
      <g id="Rectángulo_46698" data-name="Rectángulo 46698" transform="translate(942 1604)" stroke="#12263f" stroke-width="4" fill="url(#linear-gradient)">
        <rect width="211" height="71" rx="10" stroke="none"/>
        <rect x="2" y="2" width="207" height="67" rx="8" fill="none"/>
      </g>
      <path id="Trazado_199882" data-name="Trazado 199882" d="M-41.986-4.157a1.549,1.549,0,0,0-.585-1.289A7.277,7.277,0,0,0-44.628-6.4a19.736,19.736,0,0,1-2.406-.956q-3.04-1.493-3.04-4.1a3.68,3.68,0,0,1,.757-2.293A4.9,4.9,0,0,1-47.174-15.3a8.34,8.34,0,0,1,3.115-.553,7.3,7.3,0,0,1,3.024.6,4.788,4.788,0,0,1,2.079,1.713A4.474,4.474,0,0,1-38.215-11h-3.76a1.891,1.891,0,0,0-.585-1.482,2.282,2.282,0,0,0-1.584-.526,2.573,2.573,0,0,0-1.6.446,1.368,1.368,0,0,0-.585,1.133,1.377,1.377,0,0,0,.645,1.09,8.128,8.128,0,0,0,2.267,1.01A13.885,13.885,0,0,1-40.75-8.207a4.477,4.477,0,0,1,2.535,4.028A3.819,3.819,0,0,1-39.762-.956,6.88,6.88,0,0,1-44.005.215a8.418,8.418,0,0,1-3.443-.682,5.191,5.191,0,0,1-2.32-1.869,4.87,4.87,0,0,1-.779-2.734h3.781a2.4,2.4,0,0,0,.65,1.853,3.072,3.072,0,0,0,2.111.6,2.427,2.427,0,0,0,1.477-.4A1.33,1.33,0,0,0-41.986-4.157ZM-36.9-5.919a6.86,6.86,0,0,1,.677-3.1,4.84,4.84,0,0,1,1.944-2.089,5.856,5.856,0,0,1,2.976-.73,5.344,5.344,0,0,1,4.114,1.617,6.2,6.2,0,0,1,1.5,4.4v.129A6.019,6.019,0,0,1-27.2-1.38a5.359,5.359,0,0,1-4.087,1.6,5.42,5.42,0,0,1-3.985-1.488,5.819,5.819,0,0,1-1.622-4.034Zm3.62.226a4.325,4.325,0,0,0,.5,2.363,1.682,1.682,0,0,0,1.493.752q1.934,0,1.977-2.976v-.365q0-3.126-2-3.126-1.815,0-1.966,2.7Zm19.98-.032A7.009,7.009,0,0,1-14.523-1.4,3.909,3.909,0,0,1-17.816.215,3.351,3.351,0,0,1-20.448-.956V4.469h-3.62V-11.623h3.384l.107,1.074a3.351,3.351,0,0,1,2.739-1.289A3.941,3.941,0,0,1-14.5-10.253,7.1,7.1,0,0,1-13.3-5.9Zm-3.62-.226q0-3.094-1.8-3.094a1.7,1.7,0,0,0-1.719.924v4.576a1.759,1.759,0,0,0,1.74.967q1.729,0,1.783-2.986Zm4.759.032a6.86,6.86,0,0,1,.677-3.1,4.84,4.84,0,0,1,1.944-2.089,5.856,5.856,0,0,1,2.976-.73,5.344,5.344,0,0,1,4.114,1.617,6.2,6.2,0,0,1,1.5,4.4v.129A6.019,6.019,0,0,1-2.46-1.38,5.359,5.359,0,0,1-6.547.215a5.42,5.42,0,0,1-3.985-1.488,5.819,5.819,0,0,1-1.622-4.034Zm3.62.226a4.325,4.325,0,0,0,.5,2.363,1.682,1.682,0,0,0,1.493.752q1.934,0,1.977-2.976v-.365q0-3.126-2-3.126-1.815,0-1.966,2.7ZM7.675-8.347,6.483-8.433A2.142,2.142,0,0,0,4.292-7.358V0H.671V-11.623H4.066l.118,1.493A2.8,2.8,0,0,1,6.73-11.838a3.53,3.53,0,0,1,1.01.129Zm6.059-6.166v2.89h1.912v2.514H13.734v5.317a1.358,1.358,0,0,0,.236.913,1.268,1.268,0,0,0,.935.258,5.311,5.311,0,0,0,.9-.064V-.1a6.681,6.681,0,0,1-2.041.312,3.792,3.792,0,0,1-2.761-.881,3.61,3.61,0,0,1-.892-2.675V-9.109H8.631v-2.514h1.482v-2.89ZM22.693.215a5.975,5.975,0,0,1-4.329-1.6,5.509,5.509,0,0,1-1.654-4.152v-.3A7.138,7.138,0,0,1,17.37-8.98,4.834,4.834,0,0,1,19.3-11.091a5.821,5.821,0,0,1,3.008-.747,5.031,5.031,0,0,1,3.867,1.52A5.973,5.973,0,0,1,27.591-6.08v1.407h-7.2a2.609,2.609,0,0,0,.849,1.536,2.525,2.525,0,0,0,1.7.559,3.254,3.254,0,0,0,2.686-1.2L27.28-1.826A4.624,4.624,0,0,1,25.362-.338,6.48,6.48,0,0,1,22.693.215Zm-.408-9.26q-1.59,0-1.891,2.105h3.652v-.279a1.793,1.793,0,0,0-.44-1.348A1.753,1.753,0,0,0,22.285-9.045ZM41.073,0a4.088,4.088,0,0,1-.344-1.042A3.366,3.366,0,0,1,37.936.215a4.124,4.124,0,0,1-2.793-.994,3.163,3.163,0,0,1-1.149-2.5,3.251,3.251,0,0,1,1.4-2.857A7.114,7.114,0,0,1,39.451-7.1h1.117v-.615q0-1.608-1.386-1.608A1.133,1.133,0,0,0,37.893-8.05h-3.62a3.245,3.245,0,0,1,1.434-2.736,6.027,6.027,0,0,1,3.658-1.051,5.284,5.284,0,0,1,3.513,1.085A3.772,3.772,0,0,1,44.2-7.777v5.146a5.269,5.269,0,0,0,.494,2.449V0ZM38.806-2.363a2.019,2.019,0,0,0,1.123-.29,1.818,1.818,0,0,0,.639-.655V-5.167H39.515q-1.891,0-1.891,1.7a1.036,1.036,0,0,0,.333.8A1.205,1.205,0,0,0,38.806-2.363ZM50.021,0H46.39V-16.5h3.631Zm-82.43,19.734a.836.836,0,0,0-.483-.741,7.353,7.353,0,0,0-1.837-.58,8.376,8.376,0,0,1-2.234-.79,3.743,3.743,0,0,1-1.343-1.187,2.835,2.835,0,0,1-.462-1.6A3.212,3.212,0,0,1-37.447,12.2a5.443,5.443,0,0,1,3.459-1.037,6.03,6.03,0,0,1,3.7,1.042,3.258,3.258,0,0,1,1.4,2.739h-3.631q0-1.4-1.472-1.4a1.459,1.459,0,0,0-.956.317.981.981,0,0,0-.387.79.9.9,0,0,0,.473.784,4.466,4.466,0,0,0,1.509.494,13.042,13.042,0,0,1,1.821.462q2.621.9,2.621,3.233a3.044,3.044,0,0,1-1.413,2.589,6.2,6.2,0,0,1-3.658,1,6.322,6.322,0,0,1-2.664-.537,4.455,4.455,0,0,1-1.826-1.461,3.308,3.308,0,0,1-.655-1.944h3.384a1.4,1.4,0,0,0,.537,1.176,2.209,2.209,0,0,0,1.321.371,1.738,1.738,0,0,0,1.112-.3A.962.962,0,0,0-32.409,19.734Zm10.807,3.48a5.975,5.975,0,0,1-4.329-1.6,5.509,5.509,0,0,1-1.654-4.152v-.3a7.138,7.138,0,0,1,.661-3.147A4.834,4.834,0,0,1-25,11.909a5.821,5.821,0,0,1,3.008-.747,5.031,5.031,0,0,1,3.867,1.52A5.973,5.973,0,0,1-16.7,16.92v1.407h-7.2a2.609,2.609,0,0,0,.849,1.536,2.525,2.525,0,0,0,1.7.559,3.254,3.254,0,0,0,2.686-1.2l1.654,1.955a4.624,4.624,0,0,1-1.917,1.488A6.48,6.48,0,0,1-21.6,23.215Zm-.408-9.26q-1.59,0-1.891,2.105h3.652v-.279a1.793,1.793,0,0,0-.44-1.348A1.753,1.753,0,0,0-22.011,13.955Zm13.793.7-1.192-.086A2.142,2.142,0,0,0-11.6,15.642V23h-3.62V11.377h3.395l.118,1.493a2.8,2.8,0,0,1,2.546-1.708,3.53,3.53,0,0,1,1.01.129Zm6.134,4.039,1.837-7.315H3.566L-.226,23h-3.7L-7.713,11.377h3.824ZM8.465,23H4.834V11.377H8.465ZM4.619,8.369a1.63,1.63,0,0,1,.559-1.275,2.1,2.1,0,0,1,1.45-.5,2.1,2.1,0,0,1,1.45.5,1.63,1.63,0,0,1,.559,1.275,1.63,1.63,0,0,1-.559,1.275,2.1,2.1,0,0,1-1.45.5,2.1,2.1,0,0,1-1.45-.5A1.63,1.63,0,0,1,4.619,8.369ZM15.608,20.422a1.61,1.61,0,0,0,1.182-.414,1.517,1.517,0,0,0,.408-1.155h3.395a4.018,4.018,0,0,1-1.37,3.137,5.1,5.1,0,0,1-3.529,1.225,5.158,5.158,0,0,1-4-1.59,6.264,6.264,0,0,1-1.461-4.4v-.15a7.08,7.08,0,0,1,.65-3.11,4.732,4.732,0,0,1,1.875-2.073,5.589,5.589,0,0,1,2.9-.725,5.03,5.03,0,0,1,3.6,1.257,4.458,4.458,0,0,1,1.332,3.405H17.2a1.987,1.987,0,0,0-.44-1.386,1.52,1.52,0,0,0-1.182-.483q-1.407,0-1.644,1.794a12.659,12.659,0,0,0-.075,1.568,4.972,4.972,0,0,0,.419,2.428A1.45,1.45,0,0,0,15.608,20.422ZM25.942,23H22.312V11.377h3.631ZM22.1,8.369a1.63,1.63,0,0,1,.559-1.275,2.364,2.364,0,0,1,2.9,0,1.63,1.63,0,0,1,.559,1.275,1.63,1.63,0,0,1-.559,1.275,2.364,2.364,0,0,1-2.9,0A1.63,1.63,0,0,1,22.1,8.369Zm5.618,8.712a6.86,6.86,0,0,1,.677-3.1,4.84,4.84,0,0,1,1.944-2.089,5.856,5.856,0,0,1,2.976-.73,5.344,5.344,0,0,1,4.114,1.617,6.2,6.2,0,0,1,1.5,4.4v.129A6.019,6.019,0,0,1,37.42,21.62a5.359,5.359,0,0,1-4.087,1.6,5.42,5.42,0,0,1-3.985-1.488,5.819,5.819,0,0,1-1.622-4.034Zm3.62.226a4.325,4.325,0,0,0,.5,2.363,1.682,1.682,0,0,0,1.493.752q1.934,0,1.977-2.976v-.365q0-3.126-2-3.126-1.815,0-1.966,2.7Z" transform="translate(514.5 1635.5)" fill="#12263f"/>
      <path id="Trazado_199883" data-name="Trazado 199883" d="M-34.418-5.3A5.712,5.712,0,0,1-35.3-2.412,5.316,5.316,0,0,1-37.56-.473a7.7,7.7,0,0,1-3.325.688A6.142,6.142,0,0,1-45.74-1.794a8.294,8.294,0,0,1-1.772-5.672v-.773a9.467,9.467,0,0,1,.8-4.023,6.064,6.064,0,0,1,2.3-2.664,6.429,6.429,0,0,1,3.48-.94,6.741,6.741,0,0,1,4.576,1.5,5.921,5.921,0,0,1,1.966,4.13h-3.76a2.8,2.8,0,0,0-.72-2.052,2.96,2.96,0,0,0-2.062-.623,2.252,2.252,0,0,0-2.062,1.053A6.766,6.766,0,0,0-43.678-8.5v1.106a7.487,7.487,0,0,0,.628,3.577,2.3,2.3,0,0,0,2.165,1.074A2.9,2.9,0,0,0-38.9-3.352a2.6,2.6,0,0,0,.73-1.944Zm7.24,5.511a5.975,5.975,0,0,1-4.329-1.6,5.509,5.509,0,0,1-1.654-4.152v-.3A7.138,7.138,0,0,1-32.5-8.98a4.834,4.834,0,0,1,1.928-2.111,5.821,5.821,0,0,1,3.008-.747,5.031,5.031,0,0,1,3.867,1.52A5.973,5.973,0,0,1-22.279-6.08v1.407h-7.2a2.609,2.609,0,0,0,.849,1.536,2.525,2.525,0,0,0,1.7.559,3.254,3.254,0,0,0,2.686-1.2l1.654,1.955A4.624,4.624,0,0,1-24.508-.338,6.48,6.48,0,0,1-27.178.215Zm-.408-9.26q-1.59,0-1.891,2.105h3.652v-.279a1.793,1.793,0,0,0-.44-1.348A1.753,1.753,0,0,0-27.586-9.045ZM-17.5-11.623l.118,1.364a3.942,3.942,0,0,1,3.319-1.579,3.316,3.316,0,0,1,2.712,1.085,5.165,5.165,0,0,1,.929,3.266V0h-3.631V-7.337a1.961,1.961,0,0,0-.354-1.294,1.64,1.64,0,0,0-1.289-.414,1.726,1.726,0,0,0-1.579.838V0h-3.62V-11.623Zm13.3-2.89v2.89h1.912v2.514H-4.2v5.317a1.358,1.358,0,0,0,.236.913,1.268,1.268,0,0,0,.935.258,5.311,5.311,0,0,0,.9-.064V-.1A6.681,6.681,0,0,1-4.168.215,3.792,3.792,0,0,1-6.929-.666,3.61,3.61,0,0,1-7.82-3.341V-9.109H-9.3v-2.514H-7.82v-2.89ZM6.166-8.347,4.974-8.433A2.142,2.142,0,0,0,2.782-7.358V0H-.838V-11.623H2.557l.118,1.493a2.8,2.8,0,0,1,2.546-1.708,3.53,3.53,0,0,1,1.01.129Zm.462,2.428a6.86,6.86,0,0,1,.677-3.1,4.84,4.84,0,0,1,1.944-2.089,5.856,5.856,0,0,1,2.976-.73,5.344,5.344,0,0,1,4.114,1.617,6.2,6.2,0,0,1,1.5,4.4v.129A6.019,6.019,0,0,1,16.333-1.38a5.359,5.359,0,0,1-4.087,1.6A5.42,5.42,0,0,1,8.261-1.273,5.819,5.819,0,0,1,6.639-5.307Zm3.62.226a4.325,4.325,0,0,0,.5,2.363,1.682,1.682,0,0,0,1.493.752q1.934,0,1.977-2.976v-.365q0-3.126-2-3.126-1.815,0-1.966,2.7ZM24.46-5.9a7.1,7.1,0,0,1,1.192-4.351,3.925,3.925,0,0,1,3.33-1.59A3.338,3.338,0,0,1,31.6-10.613V-16.5h3.631V0H31.979L31.8-1.246A3.428,3.428,0,0,1,28.961.215a3.918,3.918,0,0,1-3.287-1.59A7.325,7.325,0,0,1,24.46-5.9Zm3.62.226q0,3.094,1.8,3.094A1.782,1.782,0,0,0,31.6-3.588V-8.014a1.734,1.734,0,0,0-1.7-1.031q-1.676,0-1.815,2.707ZM42.915.215a5.975,5.975,0,0,1-4.329-1.6,5.509,5.509,0,0,1-1.654-4.152v-.3a7.138,7.138,0,0,1,.661-3.147,4.834,4.834,0,0,1,1.928-2.111,5.821,5.821,0,0,1,3.008-.747,5.031,5.031,0,0,1,3.867,1.52A5.973,5.973,0,0,1,47.813-6.08v1.407h-7.2a2.609,2.609,0,0,0,.849,1.536,2.525,2.525,0,0,0,1.7.559,3.254,3.254,0,0,0,2.686-1.2L47.5-1.826A4.624,4.624,0,0,1,45.584-.338,6.48,6.48,0,0,1,42.915.215Zm-.408-9.26q-1.59,0-1.891,2.105h3.652v-.279a1.793,1.793,0,0,0-.44-1.348A1.753,1.753,0,0,0,42.507-9.045Zm-80.55,28.779a.836.836,0,0,0-.483-.741,7.353,7.353,0,0,0-1.837-.58,8.376,8.376,0,0,1-2.234-.79,3.743,3.743,0,0,1-1.343-1.187,2.835,2.835,0,0,1-.462-1.6A3.212,3.212,0,0,1-43.082,12.2a5.443,5.443,0,0,1,3.459-1.037,6.03,6.03,0,0,1,3.7,1.042,3.258,3.258,0,0,1,1.4,2.739h-3.631q0-1.4-1.472-1.4a1.459,1.459,0,0,0-.956.317.981.981,0,0,0-.387.79.9.9,0,0,0,.473.784,4.466,4.466,0,0,0,1.509.494,13.042,13.042,0,0,1,1.821.462q2.621.9,2.621,3.233a3.044,3.044,0,0,1-1.413,2.589,6.2,6.2,0,0,1-3.658,1,6.322,6.322,0,0,1-2.664-.537,4.455,4.455,0,0,1-1.826-1.461,3.308,3.308,0,0,1-.655-1.944h3.384a1.4,1.4,0,0,0,.537,1.176,2.209,2.209,0,0,0,1.321.371,1.738,1.738,0,0,0,1.112-.3A.962.962,0,0,0-38.043,19.734Zm10.807,3.48a5.975,5.975,0,0,1-4.329-1.6,5.509,5.509,0,0,1-1.654-4.152v-.3a7.138,7.138,0,0,1,.661-3.147,4.834,4.834,0,0,1,1.928-2.111,5.821,5.821,0,0,1,3.008-.747,5.031,5.031,0,0,1,3.867,1.52,5.973,5.973,0,0,1,1.418,4.238v1.407h-7.2a2.609,2.609,0,0,0,.849,1.536,2.525,2.525,0,0,0,1.7.559,3.254,3.254,0,0,0,2.686-1.2l1.654,1.955a4.624,4.624,0,0,1-1.917,1.488A6.48,6.48,0,0,1-27.237,23.215Zm-.408-9.26q-1.59,0-1.891,2.105h3.652v-.279a1.793,1.793,0,0,0-.44-1.348A1.753,1.753,0,0,0-27.645,13.955Zm13.793.7-1.192-.086a2.142,2.142,0,0,0-2.191,1.074V23h-3.62V11.377h3.395l.118,1.493A2.8,2.8,0,0,1-14.8,11.162a3.53,3.53,0,0,1,1.01.129Zm6.134,4.039,1.837-7.315h3.813L-5.86,23h-3.7l-3.792-11.623h3.824ZM2.831,23H-.8V11.377H2.831ZM-1.015,8.369A1.63,1.63,0,0,1-.457,7.094a2.1,2.1,0,0,1,1.45-.5,2.1,2.1,0,0,1,1.45.5A1.63,1.63,0,0,1,3,8.369a1.63,1.63,0,0,1-.559,1.275,2.1,2.1,0,0,1-1.45.5,2.1,2.1,0,0,1-1.45-.5A1.63,1.63,0,0,1-1.015,8.369ZM9.974,20.422a1.61,1.61,0,0,0,1.182-.414,1.517,1.517,0,0,0,.408-1.155h3.395a4.018,4.018,0,0,1-1.37,3.137,5.1,5.1,0,0,1-3.529,1.225,5.158,5.158,0,0,1-4-1.59,6.264,6.264,0,0,1-1.461-4.4v-.15a7.08,7.08,0,0,1,.65-3.11,4.732,4.732,0,0,1,1.875-2.073,5.589,5.589,0,0,1,2.9-.725,5.03,5.03,0,0,1,3.6,1.257,4.458,4.458,0,0,1,1.332,3.405H11.564a1.987,1.987,0,0,0-.44-1.386,1.52,1.52,0,0,0-1.182-.483q-1.407,0-1.644,1.794a12.659,12.659,0,0,0-.075,1.568,4.972,4.972,0,0,0,.419,2.428A1.45,1.45,0,0,0,9.974,20.422ZM20.308,23H16.677V11.377h3.631ZM16.462,8.369a1.63,1.63,0,0,1,.559-1.275,2.364,2.364,0,0,1,2.9,0,1.63,1.63,0,0,1,.559,1.275,1.63,1.63,0,0,1-.559,1.275,2.364,2.364,0,0,1-2.9,0A1.63,1.63,0,0,1,16.462,8.369Zm5.618,8.712a6.86,6.86,0,0,1,.677-3.1A4.84,4.84,0,0,1,24.7,11.893a5.856,5.856,0,0,1,2.976-.73,5.344,5.344,0,0,1,4.114,1.617,6.2,6.2,0,0,1,1.5,4.4v.129a6.019,6.019,0,0,1-1.509,4.313,5.359,5.359,0,0,1-4.087,1.6,5.42,5.42,0,0,1-3.985-1.488,5.819,5.819,0,0,1-1.622-4.034Zm3.62.226a4.325,4.325,0,0,0,.5,2.363,1.682,1.682,0,0,0,1.493.752q1.934,0,1.977-2.976v-.365q0-3.126-2-3.126-1.815,0-1.966,2.7Zm15.275,2.428a.836.836,0,0,0-.483-.741,7.353,7.353,0,0,0-1.837-.58,8.376,8.376,0,0,1-2.234-.79,3.743,3.743,0,0,1-1.343-1.187,2.835,2.835,0,0,1-.462-1.6A3.212,3.212,0,0,1,35.938,12.2,5.443,5.443,0,0,1,39.4,11.162a6.03,6.03,0,0,1,3.7,1.042,3.258,3.258,0,0,1,1.4,2.739H40.858q0-1.4-1.472-1.4a1.459,1.459,0,0,0-.956.317.981.981,0,0,0-.387.79.9.9,0,0,0,.473.784,4.466,4.466,0,0,0,1.509.494,13.042,13.042,0,0,1,1.821.462q2.621.9,2.621,3.233a3.044,3.044,0,0,1-1.413,2.589,6.2,6.2,0,0,1-3.658,1,6.322,6.322,0,0,1-2.664-.537,4.455,4.455,0,0,1-1.826-1.461,3.308,3.308,0,0,1-.655-1.944h3.384a1.4,1.4,0,0,0,.537,1.176,2.209,2.209,0,0,0,1.321.371,1.738,1.738,0,0,0,1.112-.3A.962.962,0,0,0,40.976,19.734Z" transform="translate(781.5 1635.5)" fill="#12263f"/>
      <path id="Trazado_199884" data-name="Trazado 199884" d="M-56.939-5.307V0h-3.771V-15.641h6.241a7.269,7.269,0,0,1,3.174.661,4.979,4.979,0,0,1,2.138,1.88,5.134,5.134,0,0,1,.757,2.766,4.526,4.526,0,0,1-1.638,3.658,6.8,6.8,0,0,1-4.5,1.37Zm0-2.911h2.471a2.33,2.33,0,0,0,1.67-.548,2.035,2.035,0,0,0,.575-1.547,2.516,2.516,0,0,0-.591-1.751,2.092,2.092,0,0,0-1.611-.666h-2.514Zm17.413-.129-1.192-.086A2.142,2.142,0,0,0-42.91-7.358V0h-3.62V-11.623h3.395l.118,1.493a2.8,2.8,0,0,1,2.546-1.708,3.53,3.53,0,0,1,1.01.129Zm.462,2.428a6.86,6.86,0,0,1,.677-3.1,4.84,4.84,0,0,1,1.944-2.089,5.856,5.856,0,0,1,2.976-.73,5.344,5.344,0,0,1,4.114,1.617,6.2,6.2,0,0,1,1.5,4.4v.129A6.019,6.019,0,0,1-29.358-1.38a5.359,5.359,0,0,1-4.087,1.6,5.42,5.42,0,0,1-3.985-1.488,5.819,5.819,0,0,1-1.622-4.034Zm3.62.226a4.325,4.325,0,0,0,.5,2.363,1.682,1.682,0,0,0,1.493.752q1.934,0,1.977-2.976v-.365q0-3.126-2-3.126-1.815,0-1.966,2.7ZM-21.78-4.308l1.837-7.315h3.813L-19.921,0h-3.7l-3.792-11.623h3.824ZM-11.231,0h-3.631V-11.623h3.631Zm-3.846-14.631a1.63,1.63,0,0,1,.559-1.275,2.1,2.1,0,0,1,1.45-.5,2.1,2.1,0,0,1,1.45.5,1.63,1.63,0,0,1,.559,1.275,1.63,1.63,0,0,1-.559,1.275,2.1,2.1,0,0,1-1.45.5,2.1,2.1,0,0,1-1.45-.5A1.63,1.63,0,0,1-15.077-14.631ZM-2.917-3.266A.836.836,0,0,0-3.4-4.007a7.353,7.353,0,0,0-1.837-.58,8.376,8.376,0,0,1-2.234-.79A3.743,3.743,0,0,1-8.814-6.563a2.834,2.834,0,0,1-.462-1.6A3.212,3.212,0,0,1-7.955-10.8,5.443,5.443,0,0,1-4.5-11.838,6.03,6.03,0,0,1-.8-10.8,3.258,3.258,0,0,1,.6-8.057H-3.035q0-1.4-1.472-1.4a1.459,1.459,0,0,0-.956.317.981.981,0,0,0-.387.79.9.9,0,0,0,.473.784,4.466,4.466,0,0,0,1.509.494,13.043,13.043,0,0,1,1.821.462Q.575-5.7.575-3.373A3.044,3.044,0,0,1-.838-.784,6.2,6.2,0,0,1-4.5.215,6.322,6.322,0,0,1-7.16-.322,4.455,4.455,0,0,1-8.986-1.783a3.308,3.308,0,0,1-.655-1.944h3.384A1.4,1.4,0,0,0-5.72-2.551,2.209,2.209,0,0,0-4.4-2.181a1.738,1.738,0,0,0,1.112-.3A.962.962,0,0,0-2.917-3.266ZM6.085,0H2.455V-11.623H6.085ZM2.24-14.631A1.63,1.63,0,0,1,2.8-15.906a2.1,2.1,0,0,1,1.45-.5,2.1,2.1,0,0,1,1.45.5,1.63,1.63,0,0,1,.559,1.275A1.63,1.63,0,0,1,5.7-13.356a2.1,2.1,0,0,1-1.45.5,2.1,2.1,0,0,1-1.45-.5A1.63,1.63,0,0,1,2.24-14.631ZM7.858-5.919a6.86,6.86,0,0,1,.677-3.1,4.84,4.84,0,0,1,1.944-2.089,5.856,5.856,0,0,1,2.976-.73,5.344,5.344,0,0,1,4.114,1.617,6.2,6.2,0,0,1,1.5,4.4v.129A6.019,6.019,0,0,1,17.563-1.38a5.359,5.359,0,0,1-4.087,1.6A5.42,5.42,0,0,1,9.491-1.273,5.819,5.819,0,0,1,7.869-5.307Zm3.62.226a4.325,4.325,0,0,0,.5,2.363,1.682,1.682,0,0,0,1.493.752q1.934,0,1.977-2.976v-.365q0-3.126-2-3.126-1.815,0-1.966,2.7ZM13.949-16.5h3.824l-2.986,3.373-2.954-.005Zm10.044,4.877.118,1.364a3.942,3.942,0,0,1,3.319-1.579,3.316,3.316,0,0,1,2.712,1.085,5.165,5.165,0,0,1,.929,3.266V0H27.441V-7.337a1.961,1.961,0,0,0-.354-1.294A1.64,1.64,0,0,0,25.8-9.045a1.726,1.726,0,0,0-1.579.838V0H20.6V-11.623ZM38.1-5.9a7.1,7.1,0,0,1,1.192-4.351,3.925,3.925,0,0,1,3.33-1.59,3.338,3.338,0,0,1,2.621,1.225V-16.5h3.631V0H45.617l-.183-1.246A3.428,3.428,0,0,1,42.6.215a3.918,3.918,0,0,1-3.287-1.59A7.325,7.325,0,0,1,38.1-5.9Zm3.62.226q0,3.094,1.8,3.094a1.782,1.782,0,0,0,1.719-1.01V-8.014a1.734,1.734,0,0,0-1.7-1.031q-1.676,0-1.815,2.707ZM56.552.215a5.975,5.975,0,0,1-4.329-1.6,5.509,5.509,0,0,1-1.654-4.152v-.3a7.138,7.138,0,0,1,.661-3.147,4.834,4.834,0,0,1,1.928-2.111,5.821,5.821,0,0,1,3.008-.747,5.031,5.031,0,0,1,3.867,1.52A5.973,5.973,0,0,1,61.451-6.08v1.407h-7.2A2.609,2.609,0,0,0,55.1-3.137a2.525,2.525,0,0,0,1.7.559,3.254,3.254,0,0,0,2.686-1.2l1.654,1.955A4.624,4.624,0,0,1,59.222-.338,6.48,6.48,0,0,1,56.552.215Zm-.408-9.26q-1.59,0-1.891,2.105h3.652v-.279a1.793,1.793,0,0,0-.44-1.348A1.753,1.753,0,0,0,56.144-9.045ZM-38.043,19.734a.836.836,0,0,0-.483-.741,7.353,7.353,0,0,0-1.837-.58,8.376,8.376,0,0,1-2.234-.79,3.743,3.743,0,0,1-1.343-1.187,2.835,2.835,0,0,1-.462-1.6A3.212,3.212,0,0,1-43.082,12.2a5.443,5.443,0,0,1,3.459-1.037,6.03,6.03,0,0,1,3.7,1.042,3.258,3.258,0,0,1,1.4,2.739h-3.631q0-1.4-1.472-1.4a1.459,1.459,0,0,0-.956.317.981.981,0,0,0-.387.79.9.9,0,0,0,.473.784,4.466,4.466,0,0,0,1.509.494,13.042,13.042,0,0,1,1.821.462q2.621.9,2.621,3.233a3.044,3.044,0,0,1-1.413,2.589,6.2,6.2,0,0,1-3.658,1,6.322,6.322,0,0,1-2.664-.537,4.455,4.455,0,0,1-1.826-1.461,3.308,3.308,0,0,1-.655-1.944h3.384a1.4,1.4,0,0,0,.537,1.176,2.209,2.209,0,0,0,1.321.371,1.738,1.738,0,0,0,1.112-.3A.962.962,0,0,0-38.043,19.734Zm10.807,3.48a5.975,5.975,0,0,1-4.329-1.6,5.509,5.509,0,0,1-1.654-4.152v-.3a7.138,7.138,0,0,1,.661-3.147,4.834,4.834,0,0,1,1.928-2.111,5.821,5.821,0,0,1,3.008-.747,5.031,5.031,0,0,1,3.867,1.52,5.973,5.973,0,0,1,1.418,4.238v1.407h-7.2a2.609,2.609,0,0,0,.849,1.536,2.525,2.525,0,0,0,1.7.559,3.254,3.254,0,0,0,2.686-1.2l1.654,1.955a4.624,4.624,0,0,1-1.917,1.488A6.48,6.48,0,0,1-27.237,23.215Zm-.408-9.26q-1.59,0-1.891,2.105h3.652v-.279a1.793,1.793,0,0,0-.44-1.348A1.753,1.753,0,0,0-27.645,13.955Zm13.793.7-1.192-.086a2.142,2.142,0,0,0-2.191,1.074V23h-3.62V11.377h3.395l.118,1.493A2.8,2.8,0,0,1-14.8,11.162a3.53,3.53,0,0,1,1.01.129Zm6.134,4.039,1.837-7.315h3.813L-5.86,23h-3.7l-3.792-11.623h3.824ZM2.831,23H-.8V11.377H2.831ZM-1.015,8.369A1.63,1.63,0,0,1-.457,7.094a2.1,2.1,0,0,1,1.45-.5,2.1,2.1,0,0,1,1.45.5A1.63,1.63,0,0,1,3,8.369a1.63,1.63,0,0,1-.559,1.275,2.1,2.1,0,0,1-1.45.5,2.1,2.1,0,0,1-1.45-.5A1.63,1.63,0,0,1-1.015,8.369ZM9.974,20.422a1.61,1.61,0,0,0,1.182-.414,1.517,1.517,0,0,0,.408-1.155h3.395a4.018,4.018,0,0,1-1.37,3.137,5.1,5.1,0,0,1-3.529,1.225,5.158,5.158,0,0,1-4-1.59,6.264,6.264,0,0,1-1.461-4.4v-.15a7.08,7.08,0,0,1,.65-3.11,4.732,4.732,0,0,1,1.875-2.073,5.589,5.589,0,0,1,2.9-.725,5.03,5.03,0,0,1,3.6,1.257,4.458,4.458,0,0,1,1.332,3.405H11.564a1.987,1.987,0,0,0-.44-1.386,1.52,1.52,0,0,0-1.182-.483q-1.407,0-1.644,1.794a12.659,12.659,0,0,0-.075,1.568,4.972,4.972,0,0,0,.419,2.428A1.45,1.45,0,0,0,9.974,20.422ZM20.308,23H16.677V11.377h3.631ZM16.462,8.369a1.63,1.63,0,0,1,.559-1.275,2.364,2.364,0,0,1,2.9,0,1.63,1.63,0,0,1,.559,1.275,1.63,1.63,0,0,1-.559,1.275,2.364,2.364,0,0,1-2.9,0A1.63,1.63,0,0,1,16.462,8.369Zm5.618,8.712a6.86,6.86,0,0,1,.677-3.1A4.84,4.84,0,0,1,24.7,11.893a5.856,5.856,0,0,1,2.976-.73,5.344,5.344,0,0,1,4.114,1.617,6.2,6.2,0,0,1,1.5,4.4v.129a6.019,6.019,0,0,1-1.509,4.313,5.359,5.359,0,0,1-4.087,1.6,5.42,5.42,0,0,1-3.985-1.488,5.819,5.819,0,0,1-1.622-4.034Zm3.62.226a4.325,4.325,0,0,0,.5,2.363,1.682,1.682,0,0,0,1.493.752q1.934,0,1.977-2.976v-.365q0-3.126-2-3.126-1.815,0-1.966,2.7Zm15.275,2.428a.836.836,0,0,0-.483-.741,7.353,7.353,0,0,0-1.837-.58,8.376,8.376,0,0,1-2.234-.79,3.743,3.743,0,0,1-1.343-1.187,2.835,2.835,0,0,1-.462-1.6A3.212,3.212,0,0,1,35.938,12.2,5.443,5.443,0,0,1,39.4,11.162a6.03,6.03,0,0,1,3.7,1.042,3.258,3.258,0,0,1,1.4,2.739H40.858q0-1.4-1.472-1.4a1.459,1.459,0,0,0-.956.317.981.981,0,0,0-.387.79.9.9,0,0,0,.473.784,4.466,4.466,0,0,0,1.509.494,13.042,13.042,0,0,1,1.821.462q2.621.9,2.621,3.233a3.044,3.044,0,0,1-1.413,2.589,6.2,6.2,0,0,1-3.658,1,6.322,6.322,0,0,1-2.664-.537,4.455,4.455,0,0,1-1.826-1.461,3.308,3.308,0,0,1-.655-1.944h3.384a1.4,1.4,0,0,0,.537,1.176,2.209,2.209,0,0,0,1.321.371,1.738,1.738,0,0,0,1.112-.3A.962.962,0,0,0,40.976,19.734Z" transform="translate(1047.5 1635.5)" fill="#12263f"/>
      <rect id="Rectángulo_46699" data-name="Rectángulo 46699" width="744" height="13" transform="translate(409 1681)" fill="url(#linear-gradient-10)"/>
      <path id="Trazado_199661" data-name="Trazado 199661" d="M-7812.137-9468.582h8.41v-41.93h14.031v41.93h8.766l-16.3,16.3Z" transform="translate(-7012.137 -7752.793) rotate(180)" fill="url(#linear-gradient-10)"/>
      <path id="Trazado_199827" data-name="Trazado 199827" d="M-7812.137-9468.582h8.41v-71.078h14.031v71.078h8.766l-16.3,16.3Z" transform="translate(-7121.137 -7451.066) rotate(180)" fill="url(#linear-gradient-10)"/>
      <path id="Trazado_199828" data-name="Trazado 199828" d="M-7812.137-9468.582h8.41V-9717.22h14.031v248.638h8.766l-16.3,16.3Z" transform="translate(-8665.277 9928.816) rotate(90)" fill="url(#linear-gradient-10)"/>
      <path id="Trazado_199826" data-name="Trazado 199826" d="M-7812.137-9468.582h8.41v-41.93h14.031v41.93h8.766l-16.3,16.3Z" transform="translate(8580.93 11354.177)" fill="url(#linear-gradient-10)"/>
      <g id="Grupo_161574" data-name="Grupo 161574" transform="translate(-56.765 860.8)">
        <g id="Grupo_146087" data-name="Grupo 146087" transform="translate(641.646 908.675)">
          <rect id="Rectángulo_37274" data-name="Rectángulo 37274" width="394.631" height="65.692" rx="10" transform="translate(1.263 0)" fill="#1565c0"/>
          <g id="Rectángulo_37275" data-name="Rectángulo 37275" transform="translate(0 0)" fill="#fff" stroke="#1565c0" stroke-width="1">
            <rect width="61.902" height="65.692" rx="10" stroke="none"/>
            <rect x="0.5" y="0.5" width="60.902" height="64.692" rx="9.5" fill="none"/>
          </g>
          <path id="Trazado_199881" data-name="Trazado 199881" d="M-140.83-15.641-136.812-4.3l4-11.344h4.232V0h-3.233V-4.275l.322-7.38L-135.717,0h-2.213l-4.211-11.645.322,7.369V0h-3.223V-15.641Zm14.373,9.722A6.893,6.893,0,0,1-125.791-9a4.876,4.876,0,0,1,1.917-2.095,5.594,5.594,0,0,1,2.906-.741,5.293,5.293,0,0,1,3.84,1.439,5.777,5.777,0,0,1,1.66,3.91l.021.795A6.075,6.075,0,0,1-116.939-1.4,5.19,5.19,0,0,1-120.946.215,5.216,5.216,0,0,1-124.958-1.4a6.182,6.182,0,0,1-1.5-4.383Zm3.1.22a4.345,4.345,0,0,0,.623,2.534,2.055,2.055,0,0,0,1.783.877,2.06,2.06,0,0,0,1.762-.866,4.754,4.754,0,0,0,.634-2.77,4.3,4.3,0,0,0-.634-2.518,2.06,2.06,0,0,0-1.783-.893,2.027,2.027,0,0,0-1.762.888A4.834,4.834,0,0,0-123.353-5.7Zm12.676-5.924.1,1.343a4.058,4.058,0,0,1,3.341-1.558,3.372,3.372,0,0,1,2.75,1.085,5.062,5.062,0,0,1,.924,3.244V0h-3.1V-7.451a2.022,2.022,0,0,0-.43-1.437,1.921,1.921,0,0,0-1.429-.447,2.135,2.135,0,0,0-1.966,1.12V0h-3.1V-11.623ZM-97.937,0h-3.115V-11.623h3.115Zm-3.3-14.631a1.529,1.529,0,0,1,.467-1.149,1.755,1.755,0,0,1,1.273-.451,1.759,1.759,0,0,1,1.268.451,1.52,1.52,0,0,1,.473,1.149,1.524,1.524,0,0,1-.478,1.16,1.764,1.764,0,0,1-1.262.451,1.764,1.764,0,0,1-1.262-.451A1.524,1.524,0,0,1-101.234-14.631Zm9.571.15v2.857h1.987v2.277h-1.987v5.8a1.385,1.385,0,0,0,.247.924,1.241,1.241,0,0,0,.945.279,4.951,4.951,0,0,0,.913-.075V-.064a6.391,6.391,0,0,1-1.88.279q-3.266,0-3.33-3.3V-9.346h-1.7v-2.277h1.7V-14.48Zm2.911,8.562A6.893,6.893,0,0,1-88.086-9,4.876,4.876,0,0,1-86.168-11.1a5.594,5.594,0,0,1,2.906-.741,5.293,5.293,0,0,1,3.84,1.439,5.777,5.777,0,0,1,1.66,3.91l.021.795A6.075,6.075,0,0,1-79.234-1.4,5.19,5.19,0,0,1-83.241.215,5.216,5.216,0,0,1-87.253-1.4a6.182,6.182,0,0,1-1.5-4.383Zm3.1.22a4.345,4.345,0,0,0,.623,2.534,2.055,2.055,0,0,0,1.783.877,2.06,2.06,0,0,0,1.762-.866,4.754,4.754,0,0,0,.634-2.77,4.3,4.3,0,0,0-.634-2.518,2.06,2.06,0,0,0-1.783-.893,2.027,2.027,0,0,0-1.762.888A4.834,4.834,0,0,0-85.647-5.7ZM-69.3-8.712A8.434,8.434,0,0,0-70.415-8.8a2.274,2.274,0,0,0-2.31,1.192V0h-3.1V-11.623H-72.9l.086,1.386a2.877,2.877,0,0,1,2.589-1.6,3.253,3.253,0,0,1,.967.14ZM-64.528,0h-3.115V-11.623h3.115Zm-3.3-14.631a1.529,1.529,0,0,1,.467-1.149,1.755,1.755,0,0,1,1.273-.451,1.759,1.759,0,0,1,1.268.451,1.52,1.52,0,0,1,.473,1.149,1.524,1.524,0,0,1-.478,1.16,1.764,1.764,0,0,1-1.262.451,1.764,1.764,0,0,1-1.262-.451A1.524,1.524,0,0,1-67.826-14.631ZM-58.405-2.5h5.683V0h-9.646V-1.891L-56.9-9.12h-5.307v-2.5h9.313v1.829ZM-44.043,0a3.447,3.447,0,0,1-.312-1.042A3.756,3.756,0,0,1-47.287.215a4.127,4.127,0,0,1-2.831-.988A3.178,3.178,0,0,1-51.24-3.266,3.285,3.285,0,0,1-49.871-6.1a6.758,6.758,0,0,1,3.958-1h1.429v-.666A1.915,1.915,0,0,0-44.9-9.056,1.627,1.627,0,0,0-46.2-9.539a1.85,1.85,0,0,0-1.23.376,1.277,1.277,0,0,0-.446,1.031h-3.1A3.119,3.119,0,0,1-50.359-10,4.118,4.118,0,0,1-48.6-11.349a6.42,6.42,0,0,1,2.557-.489,5.073,5.073,0,0,1,3.411,1.08,3.777,3.777,0,0,1,1.262,3.035v5.038a5.557,5.557,0,0,0,.462,2.5V0ZM-46.61-2.159a2.674,2.674,0,0,0,1.268-.306,2.011,2.011,0,0,0,.859-.822v-2h-1.16q-2.331,0-2.481,1.611l-.011.183a1.243,1.243,0,0,0,.408.956A1.586,1.586,0,0,0-46.61-2.159Zm12.461-.129a2.036,2.036,0,0,0,1.4-.473,1.656,1.656,0,0,0,.559-1.257h2.911a3.982,3.982,0,0,1-.645,2.165A4.253,4.253,0,0,1-31.663-.328,5.43,5.43,0,0,1-34.1.215,5.046,5.046,0,0,1-38.027-1.37a6.27,6.27,0,0,1-1.439-4.377v-.2a6.2,6.2,0,0,1,1.429-4.286,4.987,4.987,0,0,1,3.921-1.6,4.889,4.889,0,0,1,3.5,1.241,4.393,4.393,0,0,1,1.337,3.3h-2.911a2.133,2.133,0,0,0-.559-1.474,1.862,1.862,0,0,0-1.418-.567,1.87,1.87,0,0,0-1.638.791,4.583,4.583,0,0,0-.553,2.566v.323a4.641,4.641,0,0,0,.548,2.582A1.893,1.893,0,0,0-34.149-2.288ZM-24.234,0H-27.35V-11.623h3.115Zm-3.3-14.631a1.529,1.529,0,0,1,.467-1.149,1.755,1.755,0,0,1,1.273-.451,1.759,1.759,0,0,1,1.268.451,1.52,1.52,0,0,1,.473,1.149,1.524,1.524,0,0,1-.478,1.16,1.764,1.764,0,0,1-1.262.451,1.764,1.764,0,0,1-1.262-.451A1.524,1.524,0,0,1-27.532-14.631Zm5.371,8.712A6.893,6.893,0,0,1-21.5-9,4.876,4.876,0,0,1-19.578-11.1a5.594,5.594,0,0,1,2.906-.741,5.293,5.293,0,0,1,3.84,1.439,5.777,5.777,0,0,1,1.66,3.91l.021.795A6.075,6.075,0,0,1-12.644-1.4,5.19,5.19,0,0,1-16.65.215,5.216,5.216,0,0,1-20.663-1.4a6.182,6.182,0,0,1-1.5-4.383Zm3.1.22a4.345,4.345,0,0,0,.623,2.534,2.055,2.055,0,0,0,1.783.877,2.06,2.06,0,0,0,1.762-.866,4.754,4.754,0,0,0,.634-2.77,4.3,4.3,0,0,0-.634-2.518,2.06,2.06,0,0,0-1.783-.893,2.027,2.027,0,0,0-1.762.888A4.834,4.834,0,0,0-19.057-5.7Zm3-10.8h3.384l-2.976,3.33h-2.524Zm9.679,4.877.1,1.343a4.058,4.058,0,0,1,3.341-1.558,3.372,3.372,0,0,1,2.75,1.085A5.062,5.062,0,0,1,.73-7.509V0h-3.1V-7.451A2.022,2.022,0,0,0-2.8-8.888a1.921,1.921,0,0,0-1.429-.447A2.135,2.135,0,0,0-6.2-8.215V0H-9.3V-11.623ZM12.9-4.394l2.148-7.229h3.33L13.707,1.8l-.258.612a3.543,3.543,0,0,1-3.437,2.277,4.885,4.885,0,0,1-1.375-.2V2.138l.473.011a2.554,2.554,0,0,0,1.316-.269,1.764,1.764,0,0,0,.682-.892l.365-.956L7.4-11.623h3.341ZM31.378-3.212a1,1,0,0,0-.564-.9A6.406,6.406,0,0,0,29-4.694q-4.146-.87-4.146-3.523A3.194,3.194,0,0,1,26.141-10.8,5.178,5.178,0,0,1,29.5-11.838a5.573,5.573,0,0,1,3.54,1.042,3.284,3.284,0,0,1,1.327,2.707h-3.1a1.5,1.5,0,0,0-.43-1.1,1.818,1.818,0,0,0-1.343-.435,1.858,1.858,0,0,0-1.214.354,1.119,1.119,0,0,0-.43.9.957.957,0,0,0,.489.833,5.028,5.028,0,0,0,1.649.548,13.468,13.468,0,0,1,1.955.521A3.212,3.212,0,0,1,34.4-3.341,3.032,3.032,0,0,1,33.032-.768a5.885,5.885,0,0,1-3.523.983,6.147,6.147,0,0,1-2.594-.521,4.353,4.353,0,0,1-1.778-1.429,3.32,3.32,0,0,1-.645-1.96h2.943a1.621,1.621,0,0,0,.612,1.268,2.429,2.429,0,0,0,1.525.44,2.248,2.248,0,0,0,1.348-.338A1.053,1.053,0,0,0,31.378-3.212ZM41.744.215a5.706,5.706,0,0,1-4.163-1.568,5.575,5.575,0,0,1-1.606-4.179v-.3a7.021,7.021,0,0,1,.677-3.131,4.967,4.967,0,0,1,1.917-2.127,5.382,5.382,0,0,1,2.831-.747,4.824,4.824,0,0,1,3.754,1.5,6.111,6.111,0,0,1,1.37,4.265V-4.8h-7.4a2.884,2.884,0,0,0,.908,1.826,2.744,2.744,0,0,0,1.917.688,3.351,3.351,0,0,0,2.8-1.3L46.277-1.88A4.66,4.66,0,0,1,44.387-.338,6.2,6.2,0,0,1,41.744.215Zm-.354-9.55a1.94,1.94,0,0,0-1.5.626,3.241,3.241,0,0,0-.736,1.791h4.318v-.248a2.311,2.311,0,0,0-.559-1.6A2,2,0,0,0,41.39-9.335ZM47.835-5.9a6.812,6.812,0,0,1,1.273-4.308,4.125,4.125,0,0,1,3.432-1.633,3.617,3.617,0,0,1,2.976,1.311l.129-1.1h2.814V-.387a4.968,4.968,0,0,1-.693,2.653,4.45,4.45,0,0,1-1.95,1.719,6.854,6.854,0,0,1-2.943.591,6.373,6.373,0,0,1-2.492-.51A4.423,4.423,0,0,1,48.544,2.75L49.919.859a3.637,3.637,0,0,0,2.814,1.3A2.662,2.662,0,0,0,54.656,1.5a2.478,2.478,0,0,0,.688-1.875V-1A3.591,3.591,0,0,1,52.519.215a4.114,4.114,0,0,1-3.389-1.638,6.81,6.81,0,0,1-1.294-4.345Zm3.1.221a4.264,4.264,0,0,0,.634,2.487,2.014,2.014,0,0,0,1.74.9,2.154,2.154,0,0,0,2.03-1.068v-4.91a2.149,2.149,0,0,0-2.009-1.068,2.027,2.027,0,0,0-1.756.917A4.807,4.807,0,0,0,50.939-5.677ZM67.8-1.182a3.893,3.893,0,0,1-3.18,1.4A3.672,3.672,0,0,1,61.773-.859a4.586,4.586,0,0,1-1-3.147v-7.616h3.1v7.518q0,1.817,1.654,1.817a2.242,2.242,0,0,0,2.17-1.1v-8.238h3.115V0H67.891ZM76.431,0H73.315V-11.623h3.115Zm-3.3-14.631A1.529,1.529,0,0,1,73.6-15.78a1.755,1.755,0,0,1,1.273-.451,1.759,1.759,0,0,1,1.268.451,1.52,1.52,0,0,1,.473,1.149,1.524,1.524,0,0,1-.478,1.16,1.764,1.764,0,0,1-1.262.451,1.764,1.764,0,0,1-1.262-.451A1.524,1.524,0,0,1,73.133-14.631ZM81.9-11.623l.1,1.3a4.085,4.085,0,0,1,3.341-1.515,3.1,3.1,0,0,1,3.083,1.772,3.991,3.991,0,0,1,3.491-1.772,3.467,3.467,0,0,1,2.814,1.1,5.061,5.061,0,0,1,.924,3.314V0H92.533V-7.429a2.222,2.222,0,0,0-.387-1.448,1.711,1.711,0,0,0-1.364-.458A1.938,1.938,0,0,0,88.849-8l.011,8h-3.1V-7.418a2.195,2.195,0,0,0-.4-1.464A1.728,1.728,0,0,0,84-9.335a2.011,2.011,0,0,0-1.912,1.1V0h-3.1V-11.623ZM101.31,0H98.194V-11.623h3.115Zm-3.3-14.631a1.529,1.529,0,0,1,.467-1.149,1.755,1.755,0,0,1,1.273-.451,1.759,1.759,0,0,1,1.268.451,1.52,1.52,0,0,1,.473,1.149,1.524,1.524,0,0,1-.478,1.16,1.764,1.764,0,0,1-1.262.451,1.764,1.764,0,0,1-1.262-.451A1.524,1.524,0,0,1,98.012-14.631ZM109.216.215a5.706,5.706,0,0,1-4.163-1.568,5.575,5.575,0,0,1-1.606-4.179v-.3a7.021,7.021,0,0,1,.677-3.131,4.967,4.967,0,0,1,1.917-2.127,5.382,5.382,0,0,1,2.831-.747,4.824,4.824,0,0,1,3.754,1.5A6.111,6.111,0,0,1,114-6.069V-4.8h-7.4a2.884,2.884,0,0,0,.908,1.826,2.744,2.744,0,0,0,1.917.688,3.351,3.351,0,0,0,2.8-1.3l1.525,1.708a4.66,4.66,0,0,1-1.891,1.542A6.2,6.2,0,0,1,109.216.215Zm-.354-9.55a1.94,1.94,0,0,0-1.5.626,3.241,3.241,0,0,0-.736,1.791h4.318v-.248a2.311,2.311,0,0,0-.559-1.6A2,2,0,0,0,108.861-9.335Zm9.754-2.288.1,1.343a4.058,4.058,0,0,1,3.341-1.558,3.372,3.372,0,0,1,2.75,1.085,5.062,5.062,0,0,1,.924,3.244V0h-3.1V-7.451a2.022,2.022,0,0,0-.43-1.437,1.921,1.921,0,0,0-1.429-.447,2.135,2.135,0,0,0-1.966,1.12V0h-3.1V-11.623ZM131.8-14.48v2.857h1.987v2.277H131.8v5.8a1.385,1.385,0,0,0,.247.924,1.241,1.241,0,0,0,.945.279,4.951,4.951,0,0,0,.913-.075V-.064a6.391,6.391,0,0,1-1.88.279q-3.266,0-3.33-3.3V-9.346h-1.7v-2.277h1.7V-14.48Zm2.911,8.562A6.893,6.893,0,0,1,135.373-9a4.876,4.876,0,0,1,1.917-2.095,5.594,5.594,0,0,1,2.906-.741,5.293,5.293,0,0,1,3.84,1.439,5.777,5.777,0,0,1,1.66,3.91l.021.795A6.075,6.075,0,0,1,144.225-1.4,5.19,5.19,0,0,1,140.218.215,5.216,5.216,0,0,1,136.206-1.4a6.182,6.182,0,0,1-1.5-4.383Zm3.1.22a4.345,4.345,0,0,0,.623,2.534,2.055,2.055,0,0,0,1.783.877,2.06,2.06,0,0,0,1.762-.866,4.754,4.754,0,0,0,.634-2.77,4.3,4.3,0,0,0-.634-2.518,2.06,2.06,0,0,0-1.783-.893,2.027,2.027,0,0,0-1.762.888A4.834,4.834,0,0,0,137.812-5.7Z" transform="translate(226.311 39.53)" fill="#fff"/>
          <g id="LOV5LS.tif" transform="translate(5.081 9.157)">
            <g id="Grupo_161582" data-name="Grupo 161582">
              <path id="Trazado_199665" data-name="Trazado 199665" d="M774.819,143.837V170.1a2.664,2.664,0,0,1-2.91,1.891c-3.583-.054-7.166-.018-10.75-.018h-.553c0,1.427-.009,2.789.006,4.151,0,.31-.056.471-.4.53-.491.085-.97.243-1.482.377l.945,1.609-4.237,4.255-1.628-.962c-.125.507-.261.947-.337,1.4-.068.4-.26.508-.66.5-1.211-.03-2.424-.011-3.549-.011.1,1.214.23,2.385.278,3.559s.012,2.367.012,3.551H725.868c0-1.332-.016-2.665.005-4a11.5,11.5,0,0,1,4.983-9.585,29.729,29.729,0,0,1,3.191-1.782c-.008-.007-.075-.074-.149-.132a6.275,6.275,0,0,1-.4-9.73.878.878,0,0,0,.274-.735q0-10.264,0-20.528a2.341,2.341,0,0,1,2.474-2.471q18.056,0,36.112,0a2.982,2.982,0,0,1,.681.072A2.508,2.508,0,0,1,774.819,143.837Zm-36.288,2.888v17.392a6.446,6.446,0,0,1,4.552,2.932c.083.127.363.174.552.175q12.95.012,25.9.007h.521V146.725Zm5.557,23.653h27.982c.923,0,1.157-.237,1.157-1.172q0-12.24,0-24.48c0-.934-.234-1.171-1.157-1.171H736.493c-.894,0-1.136.244-1.136,1.142q0,9.624,0,19.248v.526a5.838,5.838,0,0,1,1.082-.28c.44-.027.477-.241.476-.6q-.014-8.933-.007-17.866v-.584h34.736v23.7h-27.76Zm-1.65.02a4.726,4.726,0,1,0-4.758,4.721A4.765,4.765,0,0,0,742.437,170.4Zm-1.119,5.226c4.018,1.792,4.71,2.414,7.179,6.4a.429.429,0,0,0,.295.189c1.082.014,2.165.008,3.267.008.143-.552.255-1.08.425-1.588a1.082,1.082,0,0,1,.408-.477.935.935,0,0,1,1.249.075c.186.157.43.242.627.389a.537.537,0,0,0,.864-.092c.313-.378.694-.7,1.036-1.054s.848-.662.907-1.049c.054-.355-.388-.79-.622-1.184a1.01,1.01,0,0,1,.7-1.624l1.323-.333v-3.259h-3.266a5.47,5.47,0,0,1-2.149,6.034,5.143,5.143,0,0,1-5.806.385c-2.522-1.392-3.336-3.638-2.793-6.417-1.037-.1-1.042-.1-1.4.781A6.6,6.6,0,0,1,741.318,175.624Zm-9.475,3.052a9.971,9.971,0,0,0-2.872,3.068,12.391,12.391,0,0,0-1.464,7.267c0,.1.219.269.345.277.474.033.954-.01,1.428.021.4.026.5-.127.5-.511-.018-1.693-.007-3.386-.007-5.079v-.7h1.664v.611c0,1.726.011,3.452-.008,5.178,0,.4.123.509.51.5,1.331-.02,2.662-.007,3.993-.01.135,0,.271-.025.46-.045Zm13.781,4.34c.009.205.024.381.024.557,0,1.742.011,3.485-.007,5.227,0,.386.1.537.5.509a11.522,11.522,0,0,1,1.33,0c.334.016.487-.089.463-.445s0-.723-.005-1.085a11.754,11.754,0,0,0-.9-4.9,10.18,10.18,0,0,0-3.455-4.211l-4.554,10.6c.212.016.338.034.465.034,1.331,0,2.662-.012,3.993.009.39.006.511-.113.507-.505-.019-1.742-.008-3.484-.008-5.227v-.562Zm8.683-9.583c-.054-.272-.136-.64-.2-1.011-.059-.349-.231-.466-.6-.463-2.121.02-4.242.017-6.363,0a.475.475,0,0,0-.556.394,3.788,3.788,0,0,0,1.11,4.089,3.7,3.7,0,0,0,4.254.684A3.952,3.952,0,0,0,754.307,173.433Zm-12.69,4.08c-.767,2.113-2.073,3.154-3.929,3.15-1.821,0-3.147-1.074-3.885-3.157l-.54.253,4.448,10.344,4.448-10.347Zm-3.894-.835c-.649.081-1.3.167-1.95.24-.306.034-.381.183-.307.468a2.338,2.338,0,0,0,4.491-.012c.063-.253.017-.415-.272-.45C739.035,176.845,738.385,176.761,737.723,176.677Z" transform="translate(-725.863 -141.963)" fill="#12263f"/>
              <path id="Trazado_199666" data-name="Trazado 199666" d="M1102.885,479.279h-9.405v-1.517h9.405Z" transform="translate(-1057.126 -444.555)" fill="#12263f"/>
              <path id="Trazado_199667" data-name="Trazado 199667" d="M1093.411,511.1v-1.514h9.424V511.1Z" transform="translate(-1057.064 -473.23)" fill="#12263f"/>
              <path id="Trazado_199668" data-name="Trazado 199668" d="M1111.038,543.124h-1.5v-1.532h1.5Z" transform="translate(-1071.599 -502.072)" fill="#12263f"/>
              <path id="Trazado_199669" data-name="Trazado 199669" d="M1142.883,543.175h-1.513V541.66h1.513Z" transform="translate(-1100.28 -502.134)" fill="#12263f"/>
              <path id="Trazado_199670" data-name="Trazado 199670" d="M1173.253,543.123v-1.515h1.523v1.515Z" transform="translate(-1129.01 -502.087)" fill="#12263f"/>
              <path id="Trazado_199671" data-name="Trazado 199671" d="M892.755,213.968v1.57h5.481v7.9h-12.56v-7.856h5.457v-1.57h-5.488v-3.155H882.5v3.1H869.87v-7.833h12.6v3.1h3.149v-3.1h12.625v7.853Zm-5.5-6.268v4.661h9.387V207.7Zm-.009,14.129h9.386V217.2h-9.386Zm-6.391-14.124h-9.4v4.66h9.4Z" transform="translate(-855.629 -199.771)" fill="#12263f"/>
              <path id="Trazado_199672" data-name="Trazado 199672" d="M881.019,333.946v1.521H870.028v-1.521Z" transform="translate(-855.771 -314.961)" fill="#12263f"/>
              <path id="Trazado_199673" data-name="Trazado 199673" d="M916.92,365.813v1.518h-7.051v-1.518Z" transform="translate(-891.673 -343.676)" fill="#12263f"/>
              <path id="Trazado_199674" data-name="Trazado 199674" d="M903.476,303.557h-1.508v-1.534h1.508Z" transform="translate(-884.553 -286.195)" fill="#12263f"/>
              <path id="Trazado_199675" data-name="Trazado 199675" d="M935.342,301.938v1.516h-1.525v-1.516Z" transform="translate(-913.252 -286.118)" fill="#12263f"/>
              <path id="Trazado_199676" data-name="Trazado 199676" d="M965.815,301.847h1.512v1.536h-1.512Z" transform="translate(-942.086 -286.036)" fill="#12263f"/>
              <path id="Trazado_199677" data-name="Trazado 199677" d="M1067.718,237.966h-3.128V239.5h3.128Zm-4.749,1.548v-1.553h-1.542v1.553Z" transform="translate(-1028.242 -228.468)" fill="#12263f"/>
              <path id="Trazado_199678" data-name="Trazado 199678" d="M908.864,238h-7.079v1.536h7.079Z" transform="translate(-884.388 -228.5)" fill="#12263f"/>
              <path id="Trazado_199679" data-name="Trazado 199679" d="M1096.542,238.012v1.533h-3.129v-1.533Z" transform="translate(-1057.066 -228.514)" fill="#12263f"/>
              <path id="Trazado_199680" data-name="Trazado 199680" d="M1062.969,239.514h-1.542v-1.553h1.542Z" transform="translate(-1028.242 -228.468)" fill="#12263f"/>
              <path id="Trazado_199681" data-name="Trazado 199681" d="M1061.286,335.363v-1.536h6.29v1.536Z" transform="translate(-1028.116 -314.853)" fill="#12263f"/>
              <path id="Trazado_199682" data-name="Trazado 199682" d="M908.864,238v1.536h-7.079V238Z" transform="translate(-884.388 -228.5)" fill="#12263f"/>
            </g>
          </g>
        </g>
      </g>
      <g id="Grupo_161640" data-name="Grupo 161640" transform="translate(-52.836 -344.67)">
        <path id="Trazado_199662" data-name="Trazado 199662" d="M-8116.387-9498.09h13.341" transform="translate(8723.229 11799.937)" fill="#12263f" stroke="#12263f" stroke-width="4"/>
        <g id="Polígono_80" data-name="Polígono 80" transform="translate(625.836 2297.641) rotate(90)" fill="#12263f">
          <path d="M 7.53146505355835 7.840479850769043 L 0.8090149164199829 7.840479850769043 L 4.170239925384521 1.118029952049255 L 7.53146505355835 7.840479850769043 Z" stroke="none"/>
          <path d="M 4.170239925384521 2.236070156097412 L 1.618034839630127 7.340479850769043 L 6.722445011138916 7.340479850769043 L 4.170239925384521 2.236070156097412 M 4.170239925384521 0 L 8.340479850769043 8.340479850769043 L 0 8.340479850769043 L 4.170239925384521 0 Z" stroke="none" fill="#12263f"/>
        </g>
      </g>
      <g id="Grupo_161641" data-name="Grupo 161641" transform="translate(180.164 -344.67)">
        <path id="Trazado_199662-2" data-name="Trazado 199662" d="M-8116.387-9498.09h13.341" transform="translate(8723.229 11799.937)" fill="#12263f" stroke="#12263f" stroke-width="4"/>
        <g id="Polígono_80-2" data-name="Polígono 80" transform="translate(625.836 2297.641) rotate(90)" fill="#12263f">
          <path d="M 7.53146505355835 7.840479850769043 L 0.8090149164199829 7.840479850769043 L 4.170239925384521 1.118029952049255 L 7.53146505355835 7.840479850769043 Z" stroke="none"/>
          <path d="M 4.170239925384521 2.236070156097412 L 1.618034839630127 7.340479850769043 L 6.722445011138916 7.340479850769043 L 4.170239925384521 2.236070156097412 M 4.170239925384521 0 L 8.340479850769043 8.340479850769043 L 0 8.340479850769043 L 4.170239925384521 0 Z" stroke="none" fill="#12263f"/>
        </g>
      </g>
      <g id="Grupo_161642" data-name="Grupo 161642" transform="translate(418.164 -344.67)">
        <path id="Trazado_199662-3" data-name="Trazado 199662" d="M-8116.387-9498.09h13.341" transform="translate(8723.229 11799.937)" fill="#12263f" stroke="#12263f" stroke-width="4"/>
        <g id="Polígono_80-3" data-name="Polígono 80" transform="translate(625.836 2297.641) rotate(90)" fill="#12263f">
          <path d="M 7.53146505355835 7.840479850769043 L 0.8090149164199829 7.840479850769043 L 4.170239925384521 1.118029952049255 L 7.53146505355835 7.840479850769043 Z" stroke="none"/>
          <path d="M 4.170239925384521 2.236070156097412 L 1.618034839630127 7.340479850769043 L 6.722445011138916 7.340479850769043 L 4.170239925384521 2.236070156097412 M 4.170239925384521 0 L 8.340479850769043 8.340479850769043 L 0 8.340479850769043 L 4.170239925384521 0 Z" stroke="none" fill="#12263f"/>
        </g>
      </g>
      <path id="Trazado_199949" data-name="Trazado 199949" d="M-23.051-5.447A5.786,5.786,0,0,1-25-1.292,6.843,6.843,0,0,1-29.632.225a6.153,6.153,0,0,1-4.947-2.117,8.68,8.68,0,0,1-1.8-5.812v-1a9.8,9.8,0,0,1,.831-4.155,6.228,6.228,0,0,1,2.375-2.757,6.654,6.654,0,0,1,3.588-.96,6.666,6.666,0,0,1,4.56,1.516,6.218,6.218,0,0,1,2,4.256H-26.4a3.415,3.415,0,0,0-.882-2.3,3.265,3.265,0,0,0-2.308-.713,2.863,2.863,0,0,0-2.521,1.207,6.766,6.766,0,0,0-.859,3.745v1.235a7.242,7.242,0,0,0,.8,3.875,2.81,2.81,0,0,0,2.532,1.224A3.326,3.326,0,0,0-27.3-3.24a3.221,3.221,0,0,0,.882-2.207ZM-17.3,0h-3.257V-17.25H-17.3Zm6.42,0h-3.257V-12.151h3.257Zm-3.448-15.3a1.6,1.6,0,0,1,.489-1.2,1.835,1.835,0,0,1,1.331-.472,1.839,1.839,0,0,1,1.325.472,1.589,1.589,0,0,1,.494,1.2,1.593,1.593,0,0,1-.5,1.213,1.844,1.844,0,0,1-1.32.472,1.844,1.844,0,0,1-1.32-.472A1.593,1.593,0,0,1-14.332-15.3ZM-2.3.225a5.965,5.965,0,0,1-4.352-1.64A5.828,5.828,0,0,1-8.327-5.784V-6.1A7.341,7.341,0,0,1-7.62-9.372a5.192,5.192,0,0,1,2-2.224,5.627,5.627,0,0,1,2.959-.781A5.043,5.043,0,0,1,1.269-10.8,6.389,6.389,0,0,1,2.7-6.345V-5.02H-5.037a3.015,3.015,0,0,0,.949,1.909,2.869,2.869,0,0,0,2,.719A3.5,3.5,0,0,0,.848-3.751L2.443-1.965A4.872,4.872,0,0,1,.466-.354,6.485,6.485,0,0,1-2.3.225Zm-.371-9.984a2.028,2.028,0,0,0-1.567.654A3.388,3.388,0,0,0-5-7.232H-.489v-.26a2.416,2.416,0,0,0-.584-1.675A2.092,2.092,0,0,0-2.667-9.759ZM7.852-12.151l.1,1.4a4.242,4.242,0,0,1,3.493-1.628,3.526,3.526,0,0,1,2.875,1.134,5.292,5.292,0,0,1,.966,3.392V0H12.041V-7.789a2.114,2.114,0,0,0-.449-1.5A2.008,2.008,0,0,0,10.1-9.759,2.232,2.232,0,0,0,8.043-8.589V0H4.8V-12.151Zm14.1-2.987v2.987h2.078v2.381H21.954v6.064a1.448,1.448,0,0,0,.258.966,1.3,1.3,0,0,0,.988.292,5.176,5.176,0,0,0,.955-.079V-.067A6.682,6.682,0,0,1,22.19.225q-3.414,0-3.481-3.448V-9.771H16.934v-2.381h1.774v-2.987ZM31.754.225A5.965,5.965,0,0,1,27.4-1.415a5.828,5.828,0,0,1-1.679-4.369V-6.1a7.341,7.341,0,0,1,.708-3.274,5.192,5.192,0,0,1,2-2.224,5.627,5.627,0,0,1,2.959-.781A5.043,5.043,0,0,1,35.32-10.8a6.389,6.389,0,0,1,1.432,4.458V-5.02H29.014a3.015,3.015,0,0,0,.949,1.909,2.869,2.869,0,0,0,2,.719A3.5,3.5,0,0,0,34.9-3.751l1.595,1.786A4.872,4.872,0,0,1,34.517-.354,6.485,6.485,0,0,1,31.754.225Zm-.371-9.984a2.028,2.028,0,0,0-1.567.654,3.388,3.388,0,0,0-.769,1.873h4.515v-.26a2.416,2.416,0,0,0-.584-1.675A2.092,2.092,0,0,0,31.384-9.759Z" transform="translate(438 1964)" fill="#12263f"/>
    </g>
    <path id="Trazado_199950" data-name="Trazado 199950" d="M-64.212-5.761V0h-3.369V-16.352H-61.2a7.38,7.38,0,0,1,3.24.674,4.965,4.965,0,0,1,2.151,1.915,5.339,5.339,0,0,1,.752,2.824A4.7,4.7,0,0,1-56.7-7.148a6.853,6.853,0,0,1-4.554,1.387Zm0-2.729h3.01a2.959,2.959,0,0,0,2.038-.629,2.287,2.287,0,0,0,.7-1.8,2.7,2.7,0,0,0-.708-1.943,2.643,2.643,0,0,0-1.954-.764h-3.088Zm15,8.49h-3.257V-17.25h3.257Zm10.036,0A3.6,3.6,0,0,1-39.5-1.089,3.927,3.927,0,0,1-42.567.225,4.314,4.314,0,0,1-45.527-.809,3.323,3.323,0,0,1-46.7-3.414a3.434,3.434,0,0,1,1.432-2.965A7.065,7.065,0,0,1-41.13-7.423h1.494v-.7a2,2,0,0,0-.432-1.348,1.7,1.7,0,0,0-1.365-.505,1.934,1.934,0,0,0-1.286.393A1.335,1.335,0,0,0-43.185-8.5h-3.246a3.26,3.26,0,0,1,.651-1.954,4.306,4.306,0,0,1,1.842-1.409,6.712,6.712,0,0,1,2.673-.511A5.3,5.3,0,0,1-37.7-11.247a3.948,3.948,0,0,1,1.32,3.173v5.267A5.809,5.809,0,0,0-35.9-.191V0ZM-41.86-2.257a2.8,2.8,0,0,0,1.325-.32,2.1,2.1,0,0,0,.9-.859V-5.525h-1.213q-2.437,0-2.594,1.685l-.011.191a1.3,1.3,0,0,0,.427,1A1.658,1.658,0,0,0-41.86-2.257Zm11.283-9.894.1,1.4a4.242,4.242,0,0,1,3.493-1.628,3.526,3.526,0,0,1,2.875,1.134,5.292,5.292,0,0,1,.966,3.392V0h-3.246V-7.789a2.114,2.114,0,0,0-.449-1.5,2.008,2.008,0,0,0-1.494-.467,2.232,2.232,0,0,0-2.055,1.171V0h-3.246V-12.151ZM-16.936,0h-3.257V-12.151h3.257Zm-3.448-15.3a1.6,1.6,0,0,1,.489-1.2,1.835,1.835,0,0,1,1.331-.472,1.839,1.839,0,0,1,1.325.472,1.589,1.589,0,0,1,.494,1.2,1.593,1.593,0,0,1-.5,1.213,1.844,1.844,0,0,1-1.32.472,1.844,1.844,0,0,1-1.32-.472A1.593,1.593,0,0,1-20.383-15.3ZM-13.155,0V-9.771h-1.808v-2.381h1.808v-.562a4.557,4.557,0,0,1,1.409-3.532,5.671,5.671,0,0,1,3.914-1.241,12.982,12.982,0,0,1,3.684.663l-.472,2.684a14.372,14.372,0,0,0-1.707-.421,8.387,8.387,0,0,0-1.3-.1q-2.269,0-2.269,2.01v.494h2.392v2.381H-9.9V0ZM-2.632,0H-5.889V-12.151h3.257Zm8.06-2.392a2.129,2.129,0,0,0,1.46-.494A1.731,1.731,0,0,0,7.472-4.2h3.043a4.163,4.163,0,0,1-.674,2.263A4.446,4.446,0,0,1,8.028-.343,5.676,5.676,0,0,1,5.484.225a5.275,5.275,0,0,1-4.11-1.656,6.555,6.555,0,0,1-1.5-4.576v-.213A6.48,6.48,0,0,1,1.363-10.7a5.214,5.214,0,0,1,4.1-1.673,5.111,5.111,0,0,1,3.656,1.3,4.593,4.593,0,0,1,1.4,3.453H7.472a2.23,2.23,0,0,0-.584-1.541,1.947,1.947,0,0,0-1.482-.593,1.955,1.955,0,0,0-1.713.827A4.791,4.791,0,0,0,3.115-6.25v.337a4.852,4.852,0,0,0,.573,2.7A1.979,1.979,0,0,0,5.428-2.392ZM19.732,0a3.6,3.6,0,0,1-.326-1.089A3.927,3.927,0,0,1,16.34.225,4.314,4.314,0,0,1,13.381-.809a3.323,3.323,0,0,1-1.174-2.605,3.434,3.434,0,0,1,1.432-2.965,7.065,7.065,0,0,1,4.138-1.044h1.494v-.7a2,2,0,0,0-.432-1.348,1.7,1.7,0,0,0-1.365-.505,1.934,1.934,0,0,0-1.286.393A1.335,1.335,0,0,0,15.723-8.5H12.477a3.26,3.26,0,0,1,.651-1.954,4.306,4.306,0,0,1,1.842-1.409,6.712,6.712,0,0,1,2.673-.511,5.3,5.3,0,0,1,3.566,1.129,3.948,3.948,0,0,1,1.32,3.173v5.267a5.809,5.809,0,0,0,.483,2.617V0ZM17.048-2.257a2.8,2.8,0,0,0,1.325-.32,2.1,2.1,0,0,0,.9-.859V-5.525H18.059q-2.437,0-2.594,1.685l-.011.191a1.3,1.3,0,0,0,.427,1A1.658,1.658,0,0,0,17.048-2.257ZM30.4-2.392a2.129,2.129,0,0,0,1.46-.494A1.731,1.731,0,0,0,32.441-4.2h3.043a4.163,4.163,0,0,1-.674,2.263A4.446,4.446,0,0,1,33-.343a5.676,5.676,0,0,1-2.544.567,5.275,5.275,0,0,1-4.11-1.656,6.555,6.555,0,0,1-1.5-4.576v-.213A6.48,6.48,0,0,1,26.332-10.7a5.214,5.214,0,0,1,4.1-1.673,5.111,5.111,0,0,1,3.656,1.3,4.593,4.593,0,0,1,1.4,3.453H32.441a2.23,2.23,0,0,0-.584-1.541,1.947,1.947,0,0,0-1.482-.593,1.955,1.955,0,0,0-1.713.827,4.791,4.791,0,0,0-.578,2.683v.337a4.852,4.852,0,0,0,.573,2.7A1.979,1.979,0,0,0,30.4-2.392ZM41.085,0H37.828V-12.151h3.257ZM37.637-15.3a1.6,1.6,0,0,1,.489-1.2,1.835,1.835,0,0,1,1.331-.472,1.839,1.839,0,0,1,1.325.472,1.589,1.589,0,0,1,.494,1.2,1.593,1.593,0,0,1-.5,1.213,1.844,1.844,0,0,1-1.32.472,1.844,1.844,0,0,1-1.32-.472A1.593,1.593,0,0,1,37.637-15.3Zm5.937,9.108a7.206,7.206,0,0,1,.7-3.223,5.1,5.1,0,0,1,2-2.19,5.849,5.849,0,0,1,3.038-.775,5.533,5.533,0,0,1,4.015,1.5,6.04,6.04,0,0,1,1.735,4.088l.022.831a6.351,6.351,0,0,1-1.561,4.487A5.426,5.426,0,0,1,49.336.225,5.453,5.453,0,0,1,45.141-1.46a6.463,6.463,0,0,1-1.567-4.582Zm3.246.23a4.542,4.542,0,0,0,.651,2.649,2.149,2.149,0,0,0,1.864.917A2.154,2.154,0,0,0,51.178-3.3a4.97,4.97,0,0,0,.663-2.9,4.5,4.5,0,0,0-.663-2.632,2.154,2.154,0,0,0-1.864-.934,2.119,2.119,0,0,0-1.842.928A5.054,5.054,0,0,0,46.82-5.958ZM49.953-17.25h3.538L50.38-13.769H47.741Zm10.441,5.1.1,1.4a4.242,4.242,0,0,1,3.493-1.628,3.526,3.526,0,0,1,2.875,1.134,5.292,5.292,0,0,1,.966,3.392V0H64.583V-7.789a2.114,2.114,0,0,0-.449-1.5,2.008,2.008,0,0,0-1.494-.467,2.232,2.232,0,0,0-2.055,1.171V0H57.339V-12.151Z" transform="translate(675 2082)" fill="#12263f"/>
    <path id="Trazado_199951" data-name="Trazado 199951" d="M-80.751,0H-84.12V-16.352h3.369Zm6.274-12.151.1,1.359a4.27,4.27,0,0,1,3.493-1.583,3.241,3.241,0,0,1,3.223,1.853,4.172,4.172,0,0,1,3.65-1.853,3.624,3.624,0,0,1,2.942,1.151A5.291,5.291,0,0,1-60.1-7.76V0h-3.257V-7.767a2.323,2.323,0,0,0-.4-1.514,1.789,1.789,0,0,0-1.426-.478,2.026,2.026,0,0,0-2.021,1.4L-67.2,0h-3.246V-7.756a2.3,2.3,0,0,0-.416-1.531,1.807,1.807,0,0,0-1.415-.473,2.1,2.1,0,0,0-2,1.148V0h-3.246V-12.151Zm28.129,6.188a7.288,7.288,0,0,1-1.275,4.5A4.087,4.087,0,0,1-51.065.225a3.786,3.786,0,0,1-2.976-1.28V4.672h-3.246V-12.151h3.01l.112,1.19a3.815,3.815,0,0,1,3.077-1.415,4.115,4.115,0,0,1,3.493,1.662,7.485,7.485,0,0,1,1.247,4.582Zm-3.246-.247a4.809,4.809,0,0,0-.6-2.625,1.955,1.955,0,0,0-1.746-.924,2.124,2.124,0,0,0-2.1,1.171V-3.6a2.16,2.16,0,0,0,2.123,1.205Q-49.594-2.392-49.594-6.211Zm9,6.211h-3.257V-17.25h3.257ZM-32,.225a5.965,5.965,0,0,1-4.352-1.64,5.828,5.828,0,0,1-1.679-4.369V-6.1a7.341,7.341,0,0,1,.708-3.274,5.192,5.192,0,0,1,2-2.224,5.627,5.627,0,0,1,2.959-.781A5.043,5.043,0,0,1-28.438-10.8a6.389,6.389,0,0,1,1.432,4.458V-5.02h-7.738a3.015,3.015,0,0,0,.949,1.909,2.869,2.869,0,0,0,2,.719,3.5,3.5,0,0,0,2.931-1.359l1.595,1.786A4.872,4.872,0,0,1-29.241-.354,6.485,6.485,0,0,1-32,.225Zm-.371-9.984a2.028,2.028,0,0,0-1.567.654,3.388,3.388,0,0,0-.769,1.873H-30.2v-.26a2.416,2.416,0,0,0-.584-1.675A2.092,2.092,0,0,0-32.374-9.759ZM-21.8-12.151l.1,1.359A4.27,4.27,0,0,1-18.2-12.376a3.241,3.241,0,0,1,3.223,1.853,4.172,4.172,0,0,1,3.65-1.853,3.624,3.624,0,0,1,2.942,1.151A5.291,5.291,0,0,1-7.423-7.76V0H-10.68V-7.767a2.323,2.323,0,0,0-.4-1.514,1.789,1.789,0,0,0-1.426-.478,2.026,2.026,0,0,0-2.021,1.4L-14.521,0h-3.246V-7.756a2.3,2.3,0,0,0-.416-1.531A1.807,1.807,0,0,0-19.6-9.759a2.1,2.1,0,0,0-2,1.148V0h-3.246V-12.151ZM.985.225a5.965,5.965,0,0,1-4.352-1.64A5.828,5.828,0,0,1-5.046-5.784V-6.1a7.341,7.341,0,0,1,.708-3.274,5.192,5.192,0,0,1,2-2.224,5.627,5.627,0,0,1,2.959-.781A5.043,5.043,0,0,1,4.55-10.8,6.389,6.389,0,0,1,5.982-6.345V-5.02H-1.756A3.015,3.015,0,0,0-.807-3.111a2.869,2.869,0,0,0,2,.719A3.5,3.5,0,0,0,4.129-3.751L5.724-1.965A4.872,4.872,0,0,1,3.747-.354,6.485,6.485,0,0,1,.985.225ZM.614-9.759a2.028,2.028,0,0,0-1.567.654,3.388,3.388,0,0,0-.769,1.873H2.793v-.26a2.416,2.416,0,0,0-.584-1.675A2.092,2.092,0,0,0,.614-9.759Zm10.519-2.392.1,1.4a4.242,4.242,0,0,1,3.493-1.628A3.526,3.526,0,0,1,17.6-11.242a5.292,5.292,0,0,1,.966,3.392V0H15.322V-7.789a2.114,2.114,0,0,0-.449-1.5,2.008,2.008,0,0,0-1.494-.467,2.232,2.232,0,0,0-2.055,1.171V0H8.078V-12.151Zm14.1-2.987v2.987h2.078v2.381H25.235v6.064a1.448,1.448,0,0,0,.258.966,1.3,1.3,0,0,0,.988.292,5.176,5.176,0,0,0,.955-.079V-.067a6.682,6.682,0,0,1-1.965.292q-3.414,0-3.481-3.448V-9.771H20.215v-2.381h1.774v-2.987ZM36.484,0a3.6,3.6,0,0,1-.326-1.089A3.927,3.927,0,0,1,33.093.225,4.314,4.314,0,0,1,30.133-.809,3.323,3.323,0,0,1,28.96-3.414a3.434,3.434,0,0,1,1.432-2.965A7.065,7.065,0,0,1,34.53-7.423h1.494v-.7a2,2,0,0,0-.432-1.348,1.7,1.7,0,0,0-1.365-.505,1.934,1.934,0,0,0-1.286.393A1.335,1.335,0,0,0,32.475-8.5H29.229a3.26,3.26,0,0,1,.651-1.954,4.306,4.306,0,0,1,1.842-1.409,6.712,6.712,0,0,1,2.673-.511,5.3,5.3,0,0,1,3.566,1.129,3.948,3.948,0,0,1,1.32,3.173v5.267a5.809,5.809,0,0,0,.483,2.617V0ZM33.8-2.257a2.8,2.8,0,0,0,1.325-.32,2.1,2.1,0,0,0,.9-.859V-5.525H34.811q-2.437,0-2.594,1.685l-.011.191a1.3,1.3,0,0,0,.427,1A1.658,1.658,0,0,0,33.8-2.257Zm13.349-.135a2.129,2.129,0,0,0,1.46-.494A1.731,1.731,0,0,0,49.193-4.2h3.043a4.163,4.163,0,0,1-.674,2.263A4.446,4.446,0,0,1,49.749-.343a5.676,5.676,0,0,1-2.544.567A5.275,5.275,0,0,1,43.1-1.432a6.555,6.555,0,0,1-1.5-4.576v-.213A6.48,6.48,0,0,1,43.084-10.7a5.214,5.214,0,0,1,4.1-1.673,5.111,5.111,0,0,1,3.656,1.3,4.593,4.593,0,0,1,1.4,3.453H49.193a2.23,2.23,0,0,0-.584-1.541,1.947,1.947,0,0,0-1.482-.593,1.955,1.955,0,0,0-1.713.827,4.791,4.791,0,0,0-.578,2.683v.337a4.852,4.852,0,0,0,.573,2.7A1.979,1.979,0,0,0,47.149-2.392ZM57.837,0H54.58V-12.151h3.257ZM54.389-15.3a1.6,1.6,0,0,1,.489-1.2,1.835,1.835,0,0,1,1.331-.472,1.839,1.839,0,0,1,1.325.472,1.589,1.589,0,0,1,.494,1.2,1.593,1.593,0,0,1-.5,1.213,1.844,1.844,0,0,1-1.32.472,1.844,1.844,0,0,1-1.32-.472A1.593,1.593,0,0,1,54.389-15.3Zm5.937,9.108a7.206,7.206,0,0,1,.7-3.223,5.1,5.1,0,0,1,2-2.19,5.849,5.849,0,0,1,3.038-.775,5.533,5.533,0,0,1,4.015,1.5,6.04,6.04,0,0,1,1.735,4.088l.022.831a6.351,6.351,0,0,1-1.561,4.487A5.426,5.426,0,0,1,66.088.225,5.453,5.453,0,0,1,61.893-1.46a6.463,6.463,0,0,1-1.567-4.582Zm3.246.23a4.542,4.542,0,0,0,.651,2.649,2.149,2.149,0,0,0,1.864.917A2.154,2.154,0,0,0,67.93-3.3a4.97,4.97,0,0,0,.663-2.9,4.5,4.5,0,0,0-.663-2.632,2.154,2.154,0,0,0-1.864-.934,2.119,2.119,0,0,0-1.842.928A5.054,5.054,0,0,0,63.572-5.958ZM66.706-17.25h3.538l-3.111,3.481H64.493Zm10.441,5.1.1,1.4a4.242,4.242,0,0,1,3.493-1.628,3.526,3.526,0,0,1,2.875,1.134,5.292,5.292,0,0,1,.966,3.392V0H81.335V-7.789a2.114,2.114,0,0,0-.449-1.5,2.008,2.008,0,0,0-1.494-.467,2.232,2.232,0,0,0-2.055,1.171V0H74.092V-12.151Z" transform="translate(915 2082)" fill="#12263f"/>
    <path id="Trazado_199954" data-name="Trazado 199954" d="M-37.862-5.986h-2.684V0h-3.369V-16.352h6.076a6.868,6.868,0,0,1,4.47,1.292A4.457,4.457,0,0,1-31.8-11.41a5.031,5.031,0,0,1-.724,2.791,4.94,4.94,0,0,1-2.2,1.78L-31.18-.157V0H-34.8Zm-2.684-2.729h2.718a2.783,2.783,0,0,0,1.965-.646,2.308,2.308,0,0,0,.7-1.78,2.471,2.471,0,0,0-.657-1.819,2.73,2.73,0,0,0-2.016-.663h-2.707ZM-23.535.225a5.965,5.965,0,0,1-4.352-1.64,5.828,5.828,0,0,1-1.679-4.369V-6.1a7.341,7.341,0,0,1,.708-3.274,5.192,5.192,0,0,1,2-2.224,5.627,5.627,0,0,1,2.959-.781A5.043,5.043,0,0,1-19.97-10.8a6.389,6.389,0,0,1,1.432,4.458V-5.02h-7.738a3.015,3.015,0,0,0,.949,1.909,2.869,2.869,0,0,0,2,.719,3.5,3.5,0,0,0,2.931-1.359L-18.8-1.965A4.872,4.872,0,0,1-20.773-.354,6.485,6.485,0,0,1-23.535.225Zm-.371-9.984a2.028,2.028,0,0,0-1.567.654,3.388,3.388,0,0,0-.769,1.873h4.515v-.26a2.416,2.416,0,0,0-.584-1.675A2.092,2.092,0,0,0-23.906-9.759Zm11.934,5.795,2.257-8.187h3.392L-10.422,0h-3.1l-4.1-12.151h3.392ZM-1.149,0H-4.406V-12.151h3.257ZM-4.6-15.3a1.6,1.6,0,0,1,.489-1.2,1.835,1.835,0,0,1,1.331-.472,1.839,1.839,0,0,1,1.325.472,1.589,1.589,0,0,1,.494,1.2,1.593,1.593,0,0,1-.5,1.213,1.844,1.844,0,0,1-1.32.472,1.844,1.844,0,0,1-1.32-.472A1.593,1.593,0,0,1-4.6-15.3ZM8.427-3.358a1.046,1.046,0,0,0-.59-.938,6.7,6.7,0,0,0-1.892-.612Q1.61-5.817,1.61-8.591a3.339,3.339,0,0,1,1.342-2.7,5.414,5.414,0,0,1,3.51-1.084,5.827,5.827,0,0,1,3.7,1.089,3.433,3.433,0,0,1,1.387,2.83H8.3a1.57,1.57,0,0,0-.449-1.151,1.9,1.9,0,0,0-1.4-.455,1.943,1.943,0,0,0-1.269.371,1.17,1.17,0,0,0-.449.943,1,1,0,0,0,.511.87,5.257,5.257,0,0,0,1.724.573,14.08,14.08,0,0,1,2.044.545,3.358,3.358,0,0,1,2.572,3.268A3.17,3.17,0,0,1,10.156-.8,6.153,6.153,0,0,1,6.473.225,6.426,6.426,0,0,1,3.76-.32,4.551,4.551,0,0,1,1.9-1.814a3.471,3.471,0,0,1-.674-2.05H4.305a1.694,1.694,0,0,0,.64,1.325,2.539,2.539,0,0,0,1.595.46,2.35,2.35,0,0,0,1.409-.354A1.1,1.1,0,0,0,8.427-3.358ZM17.419,0H14.162V-12.151h3.257ZM13.971-15.3a1.6,1.6,0,0,1,.489-1.2,1.835,1.835,0,0,1,1.331-.472,1.839,1.839,0,0,1,1.325.472,1.589,1.589,0,0,1,.494,1.2,1.593,1.593,0,0,1-.5,1.213,1.844,1.844,0,0,1-1.32.472,1.844,1.844,0,0,1-1.32-.472A1.593,1.593,0,0,1,13.971-15.3Zm5.937,9.108a7.206,7.206,0,0,1,.7-3.223,5.1,5.1,0,0,1,2-2.19,5.849,5.849,0,0,1,3.038-.775,5.533,5.533,0,0,1,4.015,1.5A6.04,6.04,0,0,1,31.4-6.783l.022.831a6.351,6.351,0,0,1-1.561,4.487A5.426,5.426,0,0,1,25.669.225,5.453,5.453,0,0,1,21.475-1.46a6.463,6.463,0,0,1-1.567-4.582Zm3.246.23a4.542,4.542,0,0,0,.651,2.649,2.149,2.149,0,0,0,1.864.917A2.154,2.154,0,0,0,27.511-3.3a4.97,4.97,0,0,0,.663-2.9,4.5,4.5,0,0,0-.663-2.632,2.154,2.154,0,0,0-1.864-.934,2.119,2.119,0,0,0-1.842.928A5.054,5.054,0,0,0,23.154-5.958ZM26.287-17.25h3.538l-3.111,3.481H24.075Zm10.441,5.1.1,1.4a4.242,4.242,0,0,1,3.493-1.628A3.526,3.526,0,0,1,43.2-11.242a5.292,5.292,0,0,1,.966,3.392V0H40.917V-7.789a2.114,2.114,0,0,0-.449-1.5,2.008,2.008,0,0,0-1.494-.467,2.232,2.232,0,0,0-2.055,1.171V0H33.673V-12.151Z" transform="translate(1152 2082)" fill="#12263f"/>
    <path id="Trazado_199952" data-name="Trazado 199952" d="M-49.233-5.447a5.786,5.786,0,0,1-1.948,4.155A6.843,6.843,0,0,1-55.814.225a6.153,6.153,0,0,1-4.947-2.117,8.68,8.68,0,0,1-1.8-5.812v-1a9.8,9.8,0,0,1,.831-4.155,6.228,6.228,0,0,1,2.375-2.757,6.654,6.654,0,0,1,3.588-.96,6.666,6.666,0,0,1,4.56,1.516,6.218,6.218,0,0,1,2,4.256h-3.369a3.415,3.415,0,0,0-.882-2.3,3.265,3.265,0,0,0-2.308-.713,2.863,2.863,0,0,0-2.521,1.207,6.766,6.766,0,0,0-.859,3.745v1.235a7.242,7.242,0,0,0,.8,3.875,2.81,2.81,0,0,0,2.532,1.224,3.326,3.326,0,0,0,2.33-.713A3.221,3.221,0,0,0-52.6-5.447ZM-39.87,0A3.6,3.6,0,0,1-40.2-1.089,3.927,3.927,0,0,1-43.262.225,4.314,4.314,0,0,1-46.221-.809a3.323,3.323,0,0,1-1.174-2.605,3.434,3.434,0,0,1,1.432-2.965,7.065,7.065,0,0,1,4.138-1.044h1.494v-.7a2,2,0,0,0-.432-1.348,1.7,1.7,0,0,0-1.365-.505,1.934,1.934,0,0,0-1.286.393A1.335,1.335,0,0,0-43.88-8.5h-3.246a3.26,3.26,0,0,1,.651-1.954,4.306,4.306,0,0,1,1.842-1.409,6.712,6.712,0,0,1,2.673-.511,5.3,5.3,0,0,1,3.566,1.129,3.948,3.948,0,0,1,1.32,3.173v5.267a5.809,5.809,0,0,0,.483,2.617V0Zm-2.684-2.257a2.8,2.8,0,0,0,1.325-.32,2.1,2.1,0,0,0,.9-.859V-5.525h-1.213q-2.437,0-2.594,1.685l-.011.191a1.3,1.3,0,0,0,.427,1A1.658,1.658,0,0,0-42.554-2.257Zm12.181-12.881v2.987H-28.3v2.381h-2.078v6.064a1.448,1.448,0,0,0,.258.966,1.3,1.3,0,0,0,.988.292,5.176,5.176,0,0,0,.955-.079V-.067a6.682,6.682,0,0,1-1.965.292q-3.414,0-3.481-3.448V-9.771h-1.774v-2.381h1.774v-2.987ZM-19.124,0a3.6,3.6,0,0,1-.326-1.089A3.927,3.927,0,0,1-22.515.225,4.314,4.314,0,0,1-25.475-.809a3.323,3.323,0,0,1-1.174-2.605,3.434,3.434,0,0,1,1.432-2.965,7.065,7.065,0,0,1,4.138-1.044h1.494v-.7a2,2,0,0,0-.432-1.348,1.7,1.7,0,0,0-1.365-.505,1.934,1.934,0,0,0-1.286.393A1.335,1.335,0,0,0-23.133-8.5h-3.246a3.26,3.26,0,0,1,.651-1.954,4.306,4.306,0,0,1,1.842-1.409,6.712,6.712,0,0,1,2.673-.511,5.3,5.3,0,0,1,3.566,1.129,3.948,3.948,0,0,1,1.32,3.173v5.267a5.809,5.809,0,0,0,.483,2.617V0Zm-2.684-2.257a2.8,2.8,0,0,0,1.325-.32,2.1,2.1,0,0,0,.9-.859V-5.525H-20.8q-2.437,0-2.594,1.685l-.011.191a1.3,1.3,0,0,0,.427,1A1.658,1.658,0,0,0-21.808-2.257ZM-10.087,0h-3.257V-17.25h3.257ZM-7.6-6.188a7.206,7.206,0,0,1,.7-3.223,5.1,5.1,0,0,1,2-2.19,5.849,5.849,0,0,1,3.038-.775,5.533,5.533,0,0,1,4.015,1.5A6.04,6.04,0,0,1,3.891-6.783l.022.831A6.351,6.351,0,0,1,2.353-1.466,5.426,5.426,0,0,1-1.836.225,5.453,5.453,0,0,1-6.031-1.46,6.463,6.463,0,0,1-7.6-6.042Zm3.246.23A4.542,4.542,0,0,0-3.7-3.309a2.149,2.149,0,0,0,1.864.917A2.154,2.154,0,0,0,.006-3.3a4.97,4.97,0,0,0,.663-2.9A4.5,4.5,0,0,0,.006-8.826a2.154,2.154,0,0,0-1.864-.934A2.119,2.119,0,0,0-3.7-8.831,5.054,5.054,0,0,0-4.352-5.958ZM5.763-6.166a7.121,7.121,0,0,1,1.331-4.5,4.312,4.312,0,0,1,3.588-1.707,3.782,3.782,0,0,1,3.111,1.37l.135-1.146H16.87V-.4a5.193,5.193,0,0,1-.724,2.774,4.652,4.652,0,0,1-2.038,1.8,7.166,7.166,0,0,1-3.077.618,6.663,6.663,0,0,1-2.605-.533A4.624,4.624,0,0,1,6.5,2.875L7.942.9a3.8,3.8,0,0,0,2.942,1.359,2.783,2.783,0,0,0,2.01-.691,2.591,2.591,0,0,0,.719-1.96v-.651A3.754,3.754,0,0,1,10.66.225,4.3,4.3,0,0,1,7.116-1.488,7.12,7.12,0,0,1,5.763-6.031Zm3.246.231a4.458,4.458,0,0,0,.663,2.6,2.106,2.106,0,0,0,1.819.942,2.252,2.252,0,0,0,2.123-1.117V-8.642a2.247,2.247,0,0,0-2.1-1.117A2.119,2.119,0,0,0,9.677-8.8,5.026,5.026,0,0,0,9.009-5.935ZM19.18-6.188a7.206,7.206,0,0,1,.7-3.223,5.1,5.1,0,0,1,2-2.19,5.849,5.849,0,0,1,3.038-.775,5.533,5.533,0,0,1,4.015,1.5,6.04,6.04,0,0,1,1.735,4.088l.022.831A6.351,6.351,0,0,1,29.13-1.466,5.426,5.426,0,0,1,24.941.225,5.453,5.453,0,0,1,20.747-1.46,6.463,6.463,0,0,1,19.18-6.042Zm3.246.23a4.542,4.542,0,0,0,.651,2.649,2.149,2.149,0,0,0,1.864.917A2.154,2.154,0,0,0,26.783-3.3a4.97,4.97,0,0,0,.663-2.9,4.5,4.5,0,0,0-.663-2.632,2.154,2.154,0,0,0-1.864-.934,2.119,2.119,0,0,0-1.842.928A5.054,5.054,0,0,0,22.425-5.958Zm16.131-.208a7.323,7.323,0,0,1,1.275-4.526,4.136,4.136,0,0,1,3.487-1.685,3.722,3.722,0,0,1,2.931,1.325v-6.2h3.257V0H46.575l-.157-1.292A3.819,3.819,0,0,1,43.3.225a4.125,4.125,0,0,1-3.442-1.69A7.559,7.559,0,0,1,38.556-6.166Zm3.246.231a4.823,4.823,0,0,0,.6,2.629,1.937,1.937,0,0,0,1.729.914,2.171,2.171,0,0,0,2.123-1.275V-8.484a2.14,2.14,0,0,0-2.1-1.275Q41.8-9.759,41.8-5.935ZM57.936.225a5.965,5.965,0,0,1-4.352-1.64,5.828,5.828,0,0,1-1.679-4.369V-6.1a7.341,7.341,0,0,1,.708-3.274,5.192,5.192,0,0,1,2-2.224,5.627,5.627,0,0,1,2.959-.781A5.043,5.043,0,0,1,61.5-10.8a6.389,6.389,0,0,1,1.432,4.458V-5.02H55.2a3.015,3.015,0,0,0,.949,1.909,2.869,2.869,0,0,0,2,.719,3.5,3.5,0,0,0,2.931-1.359l1.595,1.786A4.872,4.872,0,0,1,60.7-.354,6.485,6.485,0,0,1,57.936.225Zm-.371-9.984A2.028,2.028,0,0,0,56-9.105a3.388,3.388,0,0,0-.769,1.873h4.515v-.26a2.416,2.416,0,0,0-.584-1.675A2.092,2.092,0,0,0,57.566-9.759Zm-97.773,30.4a1.046,1.046,0,0,0-.59-.938,6.7,6.7,0,0,0-1.892-.612q-4.335-.91-4.335-3.684a3.339,3.339,0,0,1,1.342-2.7,5.414,5.414,0,0,1,3.51-1.084,5.827,5.827,0,0,1,3.7,1.089,3.433,3.433,0,0,1,1.387,2.83h-3.246a1.57,1.57,0,0,0-.449-1.151,1.9,1.9,0,0,0-1.4-.455,1.943,1.943,0,0,0-1.269.371,1.17,1.17,0,0,0-.449.943,1,1,0,0,0,.511.87,5.257,5.257,0,0,0,1.724.573,14.08,14.08,0,0,1,2.044.545,3.358,3.358,0,0,1,2.572,3.268,3.17,3.17,0,0,1-1.426,2.69,6.153,6.153,0,0,1-3.684,1.028,6.426,6.426,0,0,1-2.712-.545,4.551,4.551,0,0,1-1.859-1.494,3.471,3.471,0,0,1-.674-2.05h3.077a1.694,1.694,0,0,0,.64,1.325,2.539,2.539,0,0,0,1.595.46,2.35,2.35,0,0,0,1.409-.354A1.1,1.1,0,0,0-40.207,20.642Zm11.159,3.583a5.965,5.965,0,0,1-4.352-1.64,5.828,5.828,0,0,1-1.679-4.369V17.9a7.341,7.341,0,0,1,.708-3.274,5.192,5.192,0,0,1,2-2.224,5.627,5.627,0,0,1,2.959-.781A5.043,5.043,0,0,1-25.482,13.2a6.389,6.389,0,0,1,1.432,4.458V18.98h-7.738a3.015,3.015,0,0,0,.949,1.909,2.869,2.869,0,0,0,2,.719A3.5,3.5,0,0,0-25.9,20.249l1.595,1.786a4.872,4.872,0,0,1-1.977,1.612A6.485,6.485,0,0,1-29.048,24.225Zm-.371-9.984a2.028,2.028,0,0,0-1.567.654,3.388,3.388,0,0,0-.769,1.873h4.515v-.26a2.416,2.416,0,0,0-.584-1.675A2.092,2.092,0,0,0-29.418,14.241Zm14.36.651a8.818,8.818,0,0,0-1.168-.09,2.377,2.377,0,0,0-2.415,1.247V24h-3.246V11.849h3.066l.09,1.449a3.007,3.007,0,0,1,2.707-1.673,3.4,3.4,0,0,1,1.011.146Zm6.634,5.144,2.257-8.187h3.392L-6.875,24h-3.1l-4.1-12.151h3.392ZM2.4,24H-.859V11.849H2.4ZM-1.05,8.7A1.6,1.6,0,0,1-.562,7.5,1.835,1.835,0,0,1,.769,7.031,1.839,1.839,0,0,1,2.094,7.5a1.589,1.589,0,0,1,.494,1.2,1.593,1.593,0,0,1-.5,1.213,1.844,1.844,0,0,1-1.32.472A1.844,1.844,0,0,1-.55,9.917,1.593,1.593,0,0,1-1.05,8.7Zm11.5,12.9a2.129,2.129,0,0,0,1.46-.494A1.731,1.731,0,0,0,12.49,19.8h3.043a4.163,4.163,0,0,1-.674,2.263,4.446,4.446,0,0,1-1.814,1.595,5.676,5.676,0,0,1-2.544.567,5.275,5.275,0,0,1-4.11-1.656,6.555,6.555,0,0,1-1.5-4.576v-.213A6.48,6.48,0,0,1,6.381,13.3a5.214,5.214,0,0,1,4.1-1.673,5.111,5.111,0,0,1,3.656,1.3,4.593,4.593,0,0,1,1.4,3.453H12.49a2.23,2.23,0,0,0-.584-1.541,1.947,1.947,0,0,0-1.482-.593,1.955,1.955,0,0,0-1.713.827,4.791,4.791,0,0,0-.578,2.683v.337a4.852,4.852,0,0,0,.573,2.7A1.979,1.979,0,0,0,10.446,21.608ZM21.134,24H17.877V11.849h3.257ZM17.686,8.7a1.6,1.6,0,0,1,.489-1.2,2.105,2.105,0,0,1,2.656,0,1.589,1.589,0,0,1,.494,1.2,1.593,1.593,0,0,1-.5,1.213,2.082,2.082,0,0,1-2.639,0A1.593,1.593,0,0,1,17.686,8.7Zm5.937,9.108a7.206,7.206,0,0,1,.7-3.223,5.1,5.1,0,0,1,2-2.19,5.849,5.849,0,0,1,3.038-.775,5.533,5.533,0,0,1,4.015,1.5,6.04,6.04,0,0,1,1.735,4.088l.022.831a6.351,6.351,0,0,1-1.561,4.487,5.426,5.426,0,0,1-4.189,1.69A5.453,5.453,0,0,1,25.19,22.54a6.463,6.463,0,0,1-1.567-4.582Zm3.246.23a4.542,4.542,0,0,0,.651,2.649,2.34,2.34,0,0,0,3.706.011,4.97,4.97,0,0,0,.663-2.9,4.5,4.5,0,0,0-.663-2.632,2.154,2.154,0,0,0-1.864-.934,2.119,2.119,0,0,0-1.842.928A5.054,5.054,0,0,0,26.869,18.042Zm17.168,2.6a1.046,1.046,0,0,0-.59-.938,6.7,6.7,0,0,0-1.892-.612q-4.335-.91-4.335-3.684a3.339,3.339,0,0,1,1.342-2.7,5.414,5.414,0,0,1,3.51-1.084,5.827,5.827,0,0,1,3.7,1.089,3.433,3.433,0,0,1,1.387,2.83H43.913a1.57,1.57,0,0,0-.449-1.151,1.9,1.9,0,0,0-1.4-.455,1.943,1.943,0,0,0-1.269.371,1.17,1.17,0,0,0-.449.943,1,1,0,0,0,.511.87,5.257,5.257,0,0,0,1.724.573,14.08,14.08,0,0,1,2.044.545,3.358,3.358,0,0,1,2.572,3.268,3.17,3.17,0,0,1-1.426,2.69,6.153,6.153,0,0,1-3.684,1.028,6.426,6.426,0,0,1-2.712-.545,4.551,4.551,0,0,1-1.859-1.494,3.471,3.471,0,0,1-.674-2.05h3.077a1.694,1.694,0,0,0,.64,1.325,2.539,2.539,0,0,0,1.595.46,2.35,2.35,0,0,0,1.409-.354A1.1,1.1,0,0,0,44.037,20.642Z" transform="translate(675 2247)" fill="#12263f"/>
    <path id="Trazado_199953" data-name="Trazado 199953" d="M-8.223-4.29A1.729,1.729,0,0,0-8.9-5.756a8.838,8.838,0,0,0-2.426-1.078A17.2,17.2,0,0,1-14.1-7.951q-2.785-1.5-2.785-4.054a3.949,3.949,0,0,1,.747-2.364,4.871,4.871,0,0,1,2.145-1.623,8.074,8.074,0,0,1,3.139-.584,7.349,7.349,0,0,1,3.122.635A4.971,4.971,0,0,1-5.6-14.15a4.687,4.687,0,0,1,.758,2.628H-8.211a2.2,2.2,0,0,0-.708-1.746,2.908,2.908,0,0,0-1.988-.623,3.107,3.107,0,0,0-1.92.522,1.647,1.647,0,0,0-.685,1.376,1.578,1.578,0,0,0,.8,1.336,9.072,9.072,0,0,0,2.364,1.011A10.214,10.214,0,0,1-6.156-7.5,4.272,4.272,0,0,1-4.842-4.312,3.935,3.935,0,0,1-6.448-.983,7.031,7.031,0,0,1-10.772.225a8.349,8.349,0,0,1-3.437-.691,5.438,5.438,0,0,1-2.364-1.892,4.846,4.846,0,0,1-.814-2.785h3.38q0,2.707,3.234,2.707A3.146,3.146,0,0,0-8.9-2.926,1.589,1.589,0,0,0-8.223-4.29ZM1.342,0H-2.027V-16.352H1.342ZM8.155-5.761V0H4.786V-16.352h6.379a7.38,7.38,0,0,1,3.24.674,4.965,4.965,0,0,1,2.151,1.915,5.339,5.339,0,0,1,.752,2.824,4.7,4.7,0,0,1-1.645,3.79,6.853,6.853,0,0,1-4.554,1.387Zm0-2.729h3.01A2.959,2.959,0,0,0,13.2-9.119a2.287,2.287,0,0,0,.7-1.8,2.7,2.7,0,0,0-.708-1.943,2.643,2.643,0,0,0-1.954-.764H8.155Z" transform="translate(1159 2259)" fill="#12263f"/>
  </g>
</svg>
