<svg id="Grupo_161745" data-name="Grupo 161745" xmlns="http://www.w3.org/2000/svg" xmlns:xlink="http://www.w3.org/1999/xlink" width="79.061" height="79.062" viewBox="0 0 79.061 79.062">
  <defs>
    <radialGradient id="radial-gradient" cx="0.076" cy="0.019" r="1.465" gradientTransform="translate(0.001)" gradientUnits="objectBoundingBox">
      <stop offset="0" stop-color="#f6f6f7"/>
      <stop offset="0.477" stop-color="#f9f9fa"/>
      <stop offset="0.715" stop-color="#fff"/>
    </radialGradient>
  </defs>
  <g id="Grupo_42274" data-name="Grupo 42274" transform="translate(0 0)">
    <g id="Grupo_18423" data-name="Grupo 18423" transform="translate(0 0)">
      <g id="Grupo_18421" data-name="Grupo 18421">
        <g id="Grupo_18420" data-name="Grupo 18420">
          <g id="Grupo_18419" data-name="Grupo 18419">
            <path id="Trazado_40936" data-name="Trazado 40936" d="M273.684,2185.25a39.53,39.53,0,1,1-39.53-39.529A39.53,39.53,0,0,1,273.684,2185.25Z" transform="translate(-194.623 -2145.721)" fill="#fff"/>
          </g>
        </g>
      </g>
      <path id="Trazado_40937" data-name="Trazado 40937" d="M273.528,2185.083A39.529,39.529,0,1,0,234,2224.613,39.372,39.372,0,0,0,273.528,2185.083Z" transform="translate(-194.467 -2145.553)" fill="url(#radial-gradient)"/>
      <path id="Trazado_40938" data-name="Trazado 40938" d="M262.865,2183.788a30.173,30.173,0,1,0-30.173,30.174A30.062,30.062,0,0,0,262.865,2183.788Z" transform="translate(-193.041 -2144.127)" fill="none" stroke="#12263f" stroke-miterlimit="10" stroke-width="2"/>
      <g id="Grupo_18422" data-name="Grupo 18422" transform="translate(7.003 22.193)">
        <path id="Trazado_40939" data-name="Trazado 40939" d="M268.606,2164.488a39.535,39.535,0,0,1-68.061,39.366,39.409,39.409,0,0,0,68.061-39.366Z" transform="translate(-200.545 -2164.488)" fill="#eceef0"/>
      </g>
    </g>
  </g>
  <g id="_6UQ8AX.tif" data-name="6UQ8AX.tif" transform="translate(25.25 21.206)">
    <g id="Grupo_161614" data-name="Grupo 161614" transform="translate(0)">
      <path id="Trazado_199717" data-name="Trazado 199717" d="M1347.137,363.048a4.408,4.408,0,0,1-1.982-.944,3.681,3.681,0,0,1-1.32-2.8q-.011-13.019-.008-26.038a1.065,1.065,0,0,1,.337-.8q2.952-2.947,5.9-5.9a1.1,1.1,0,0,1,.831-.347q8.378.009,16.756.007a3.814,3.814,0,0,1,3.79,3.733q.016,8.362,0,16.723c0,.07-.006.14-.011.232H1369.9v-.448q0-8.056,0-16.112a2.463,2.463,0,0,0-.916-2.118,2.432,2.432,0,0,0-1.547-.472h-15.606c-.094,0-.188.013-.324.023v.4c0,1.091.007,2.182,0,3.273a2.306,2.306,0,0,1-2.191,2.43c-.533.051-1.075.008-1.641.008v-1.549c.455,0,.906,0,1.357,0,.643,0,.912-.274.915-.922,0-.821,0-1.642,0-2.536-.136.125-.215.192-.288.264-1.357,1.356-2.717,2.708-4.062,4.075a.83.83,0,0,0-.222.525q-.016,12.623-.008,25.247a2.274,2.274,0,0,0,1.722,2.422,3.184,3.184,0,0,0,.816.085q9.727.007,19.453,0a2.283,2.283,0,0,0,2.453-1.728,3.843,3.843,0,0,0,.083-.853c.013-.4,0-.81,0-1.236h1.519c.066,1.451.149,2.888-.946,4.064a3.9,3.9,0,0,1-2.1,1.223,2.382,2.382,0,0,0-.236.074Z" transform="translate(-1343.827 -326.217)" fill="#12263f"/>
      <path id="Trazado_199718" data-name="Trazado 199718" d="M1656.9,552.843a6.539,6.539,0,0,1-.468.585q-5.6,5.611-11.2,11.217a1.336,1.336,0,0,1-1.14.468c-.523-.048-1.053,0-1.581-.013-.666-.01-.943-.279-.956-.933s-.048-1.3,0-1.939a1.272,1.272,0,0,1,.374-.7c.865-.9,1.755-1.77,2.636-2.651l8.668-8.669c.62-.62.944-.62,1.566,0,.5.5,1,1,1.5,1.5.215.221.406.467.607.7Zm-12.49,10.317,10.5-10.5-.908-.942-10.489,10.5Z" transform="translate(-1620.073 -533.635)" fill="#12263f"/>
      <path id="Trazado_199719" data-name="Trazado 199719" d="M1446.506,475.136h5.825c.791,0,1.059.266,1.059,1.049,0,3.428-.006,6.856.007,10.285a.971.971,0,0,1-.62.98q-2.584,1.248-5.154,2.526a2.4,2.4,0,0,1-2.269-.008q-2.555-1.268-5.126-2.5a1.018,1.018,0,0,1-.651-1.036c.016-3.428.008-6.856.009-10.285,0-.733.281-1.01,1.025-1.01Q1443.558,475.134,1446.506,475.136Zm-5.36,1.582c-.009.1-.02.166-.02.236q0,4.477-.006,8.954a.39.39,0,0,0,.271.4c1.527.742,3.054,1.485,4.573,2.245a1.082,1.082,0,0,0,1.054,0q2.231-1.114,4.478-2.194a.535.535,0,0,0,.361-.564c-.013-2.889-.008-5.777-.008-8.666v-.408Z" transform="translate(-1432.676 -464.405)" fill="#12263f"/>
      <path id="Trazado_199720" data-name="Trazado 199720" d="M1524.608,709.851h1.557c0,.434,0,.872,0,1.31,0,.7.281.972.986.974q1.978,0,3.955,0h.4v1.483c-.042.022-.062.043-.083.043-1.533,0-3.067,0-4.6,0a2.281,2.281,0,0,1-2.212-2.254C1524.588,710.9,1524.608,710.4,1524.608,709.851Z" transform="translate(-1511.574 -682.208)" fill="#12263f"/>
      <path id="Trazado_199721" data-name="Trazado 199721" d="M1633.993,371.938c0-.475.006-.918,0-1.361a.822.822,0,0,0-.913-.911c-.443-.008-.886,0-1.357,0v-1.589a15.834,15.834,0,0,1,2.2.186,2.1,2.1,0,0,1,1.576,1.963c.033.56.006,1.123.006,1.713Z" transform="translate(-1610.976 -365.059)" fill="#12263f"/>
      <path id="Trazado_199722" data-name="Trazado 199722" d="M1588.831,370.547v-1.488h1.509v1.488Z" transform="translate(-1571.177 -365.972)" fill="#12263f"/>
      <path id="Trazado_199723" data-name="Trazado 199723" d="M1485.832,537.2l1.11-1.088,1.712,1.729,4.018-4.024,1.083,1.1c-.935.931-1.9,1.894-2.87,2.858-.543.541-1.079,1.09-1.629,1.625a.762.762,0,0,1-1.176.042C1487.314,538.707,1486.57,537.944,1485.832,537.2Z" transform="translate(-1475.6 -518.862)" fill="#12263f"/>
    </g>
  </g>
</svg>
