<svg id="Grupo_161745" data-name="Grupo 161745" xmlns="http://www.w3.org/2000/svg" xmlns:xlink="http://www.w3.org/1999/xlink" width="79.061" height="79.062" viewBox="0 0 79.061 79.062">
  <defs>
    <radialGradient id="radial-gradient" cx="0.076" cy="0.019" r="1.465" gradientTransform="translate(0.001)" gradientUnits="objectBoundingBox">
      <stop offset="0" stop-color="#f6f6f7"/>
      <stop offset="0.477" stop-color="#f9f9fa"/>
      <stop offset="0.715" stop-color="#fff"/>
    </radialGradient>
  </defs>
  <g id="Grupo_42274" data-name="Grupo 42274" transform="translate(0 0)">
    <g id="Grupo_18423" data-name="Grupo 18423" transform="translate(0 0)">
      <g id="Grupo_18421" data-name="Grupo 18421">
        <g id="Grupo_18420" data-name="Grupo 18420">
          <g id="Grupo_18419" data-name="Grupo 18419">
            <path id="Trazado_40936" data-name="Trazado 40936" d="M273.684,2185.25a39.53,39.53,0,1,1-39.53-39.529A39.53,39.53,0,0,1,273.684,2185.25Z" transform="translate(-194.623 -2145.721)" fill="#fff"/>
          </g>
        </g>
      </g>
      <path id="Trazado_40937" data-name="Trazado 40937" d="M273.528,2185.083A39.529,39.529,0,1,0,234,2224.613,39.372,39.372,0,0,0,273.528,2185.083Z" transform="translate(-194.467 -2145.553)" fill="url(#radial-gradient)"/>
      <path id="Trazado_40938" data-name="Trazado 40938" d="M262.865,2183.788a30.173,30.173,0,1,0-30.173,30.174A30.062,30.062,0,0,0,262.865,2183.788Z" transform="translate(-193.041 -2144.127)" fill="none" stroke="#12263f" stroke-miterlimit="10" stroke-width="2"/>
      <g id="Grupo_18422" data-name="Grupo 18422" transform="translate(7.003 22.193)">
        <path id="Trazado_40939" data-name="Trazado 40939" d="M268.606,2164.488a39.535,39.535,0,0,1-68.061,39.366,39.409,39.409,0,0,0,68.061-39.366Z" transform="translate(-200.545 -2164.488)" fill="#eceef0"/>
      </g>
    </g>
  </g>
  <g id="xBBRod.tif" transform="translate(-1001.116 2569.762)">
    <g id="Grupo_161620" data-name="Grupo 161620" transform="translate(1024.245 -2546.801)">
      <path id="Trazado_199771" data-name="Trazado 199771" d="M1083.307-2546.8a.885.885,0,0,1,.409.847c-.014.655,0,1.311,0,1.966s-.188.838-.857.848c-.1,0-.209.011-.366.02v.5q0,12.638,0,25.276c0,.131.006.263,0,.393a.643.643,0,0,1-.682.669c-.071,0-.143,0-.214,0h-13.742v-1.231h13.366v-25.6H1052.59v15.221h-1.228v-15.253c-.234,0-.421.009-.608,0a.585.585,0,0,1-.615-.6c-.012-.81-.028-1.622.012-2.43.01-.212.219-.414.337-.621Zm-.86,1.241H1051.39v1.173h31.057Z" transform="translate(-1048.272 2546.801)" fill="#12263f"/>
      <path id="Trazado_199772" data-name="Trazado 199772" d="M1024.245-2285.37c.037-.173.07-.347.112-.519a3.03,3.03,0,0,1,2.725-2.351c.07-.007.14-.022.2-.033.27-.964.6-1.212,1.611-1.213.1,0,.191-.006.286,0a26.364,26.364,0,0,0,7.141-.771c1.807-.358,3.62-.69,5.431-1.03.526-.1.844.171.845.728q.006,5.361,0,10.722a1.052,1.052,0,0,1,0,.107.633.633,0,0,1-.818.6q-3.064-.577-6.128-1.153c-.115-.022-.233-.026-.39-.042,0,.363,0,.694,0,1.025,0,.62-.184.8-.814.8-.523,0-1.045,0-1.608,0-.006.147-.017.272-.017.4,0,.977,0,1.954,0,2.931a2.119,2.119,0,0,1-2.1,2.163,2.13,2.13,0,0,1-2.18-2.162c-.01-1.823,0-3.645,0-5.468v-.273a1.31,1.31,0,0,1-1.234-1.233,3.118,3.118,0,0,1-2.01-.792,2.948,2.948,0,0,1-.985-1.849c-.014-.1-.045-.2-.069-.306Zm17.08,4.907v-9.48l-8.479,1.589a1.34,1.34,0,0,0-.021.145c0,1.965,0,3.931-.006,5.9,0,.215.078.277.28.314,1.589.29,3.176.594,4.763.892C1039.007-2280.893,1040.151-2280.681,1041.325-2280.463Zm-12.749-7.755v6.047h3.011v-6.047Zm1.229,7.295v3.611h1.77v-3.611Zm-2.5-2.467V-2287a1.774,1.774,0,0,0-1.781,1.656A1.8,1.8,0,0,0,1027.3-2283.39Zm2.5,7.364c0,.361-.023.681.005,1a.886.886,0,0,0,.85.806.875.875,0,0,0,.9-.7,9.147,9.147,0,0,0,.063-1.1Zm4.231-3.713v-.835l-1.178-.226v1.081c.359,0,.69,0,1.02,0A1.477,1.477,0,0,0,1034.03-2279.739Z" transform="translate(-1024.245 2309.61)" fill="#12263f"/>
      <path id="Trazado_199773" data-name="Trazado 199773" d="M1196.9-2464.322l.764.573-.893.9c-.634-.62-1.272-1.226-1.885-1.855a.514.514,0,0,1,0-.749c.614-.629,1.252-1.236,1.892-1.863l.819.881-.707.6.056.133h.6a1.893,1.893,0,0,1,2.1,2.1q0,3.628,0,7.256v.4h-1.25v-.424q0-3.628,0-7.256c0-.664-.162-.828-.814-.831h-.6Z" transform="translate(-1182.515 2473.009)" fill="#12263f"/>
      <path id="Trazado_199774" data-name="Trazado 199774" d="M1296.584-2400.856h-.943v-1.213h1.085c.441,0,.881,0,1.322,0a.55.55,0,0,1,.608.531c.03.829.01,1.66.01,2.511h-1.231v-.912l-4.987,4.99-.9-.873Z" transform="translate(-1272.396 2412.439)" fill="#12263f"/>
      <path id="Trazado_199775" data-name="Trazado 199775" d="M1112.425-2470.1a2.412,2.412,0,0,1,2.449,2.432,2.413,2.413,0,0,1-2.4,2.441,2.414,2.414,0,0,1-2.467-2.414A2.413,2.413,0,0,1,1112.425-2470.1Zm1.23,2.447a1.227,1.227,0,0,0-1.188-1.224,1.226,1.226,0,0,0-1.245,1.2,1.241,1.241,0,0,0,1.224,1.231A1.24,1.24,0,0,0,1113.656-2467.651Z" transform="translate(-1103.859 2475.593)" fill="#12263f"/>
      <path id="Trazado_199776" data-name="Trazado 199776" d="M1393.228-2470.105a2.444,2.444,0,0,1,2.466,2.43,2.445,2.445,0,0,1-2.417,2.443,2.452,2.452,0,0,1-2.487-2.412A2.453,2.453,0,0,1,1393.228-2470.105Zm-1.186,2.438a1.207,1.207,0,0,0,1.184,1.22,1.22,1.22,0,0,0,1.225-1.22,1.21,1.21,0,0,0-1.19-1.214A1.2,1.2,0,0,0,1392.042-2467.668Z" transform="translate(-1364.53 2475.6)" fill="#12263f"/>
      <path id="Trazado_199777" data-name="Trazado 199777" d="M1324.915-2214.222v1.166h-10.358v-1.166Z" transform="translate(-1293.758 2238.049)" fill="#12263f"/>
      <path id="Trazado_199778" data-name="Trazado 199778" d="M1322.462-2178.989h-7.9v-1.172h7.9Z" transform="translate(-1293.761 2206.428)" fill="#12263f"/>
      <path id="Trazado_199779" data-name="Trazado 199779" d="M1372.5-2248.4v1.19h-6.673v-1.19Z" transform="translate(-1341.351 2269.782)" fill="#12263f"/>
      <path id="Trazado_199780" data-name="Trazado 199780" d="M1132.236-2355.059l-.924.975-.74-.9-.758.848-.9-.9.888-.75-.915-.733.948-.885.7.824.752-.892.942.914-.849.735Z" transform="translate(-1121.393 2371.03)" fill="#12263f"/>
      <path id="Trazado_199781" data-name="Trazado 199781" d="M1302.759-2465.616l-.936.936-.719-.893-.758.938-.88-.976.807-.715-.882-.759.942-.9.685.841.8-.875.881.927-.821.721Z" transform="translate(-1279.677 2473.659)" fill="#12263f"/>
      <path id="Trazado_199782" data-name="Trazado 199782" d="M1396.239-2322.227l-.832.7.847.714-.888.914-.761-.829-.761.835-.888-.925.828-.7-.881-.741.932-.929.733.836.692-.876Z" transform="translate(-1366.49 2339.242)" fill="#12263f"/>
      <path id="Trazado_199783" data-name="Trazado 199783" d="M1331.631-2248.487h1.19v1.2h-1.19Z" transform="translate(-1309.609 2269.859)" fill="#12263f"/>
    </g>
  </g>
</svg>
