<svg id="Grupo_161745" data-name="Grupo 161745" xmlns="http://www.w3.org/2000/svg" xmlns:xlink="http://www.w3.org/1999/xlink" width="79.061" height="79.062" viewBox="0 0 79.061 79.062">
  <defs>
    <radialGradient id="radial-gradient" cx="0.076" cy="0.019" r="1.465" gradientTransform="translate(0.001)" gradientUnits="objectBoundingBox">
      <stop offset="0" stop-color="#f6f6f7"/>
      <stop offset="0.477" stop-color="#f9f9fa"/>
      <stop offset="0.715" stop-color="#fff"/>
    </radialGradient>
  </defs>
  <g id="Grupo_42274" data-name="Grupo 42274" transform="translate(0 0)">
    <g id="Grupo_18423" data-name="Grupo 18423" transform="translate(0 0)">
      <g id="Grupo_18421" data-name="Grupo 18421">
        <g id="Grupo_18420" data-name="Grupo 18420">
          <g id="Grupo_18419" data-name="Grupo 18419">
            <path id="Trazado_40936" data-name="Trazado 40936" d="M273.684,2185.25a39.53,39.53,0,1,1-39.53-39.529A39.53,39.53,0,0,1,273.684,2185.25Z" transform="translate(-194.623 -2145.721)" fill="#fff"/>
          </g>
        </g>
      </g>
      <path id="Trazado_40937" data-name="Trazado 40937" d="M273.528,2185.083A39.529,39.529,0,1,0,234,2224.613,39.372,39.372,0,0,0,273.528,2185.083Z" transform="translate(-194.467 -2145.553)" fill="url(#radial-gradient)"/>
      <path id="Trazado_40938" data-name="Trazado 40938" d="M262.865,2183.788a30.173,30.173,0,1,0-30.173,30.174A30.062,30.062,0,0,0,262.865,2183.788Z" transform="translate(-193.041 -2144.127)" fill="none" stroke="#12263f" stroke-miterlimit="10" stroke-width="2"/>
      <g id="Grupo_18422" data-name="Grupo 18422" transform="translate(7.003 22.193)">
        <path id="Trazado_40939" data-name="Trazado 40939" d="M268.606,2164.488a39.535,39.535,0,0,1-68.061,39.366,39.409,39.409,0,0,0,68.061-39.366Z" transform="translate(-200.545 -2164.488)" fill="#eceef0"/>
      </g>
    </g>
  </g>
  <g id="NdTzWZ" transform="translate(-1150.786 3920.663)">
    <g id="Grupo_161622" data-name="Grupo 161622" transform="translate(1172.362 -3900.433)">
      <path id="Trazado_199791" data-name="Trazado 199791" d="M1177.3-3897.089c.19-2.185,1.226-3.35,2.921-3.342,1.659.007,2.716,1.15,2.878,3.183h1.539c.411-2.2,1.39-3.226,3.041-3.183,1.592.042,2.529,1.078,2.858,3.208H1192c.572-2.335,1.5-3.282,3.122-3.206,1.578.074,2.537,1.161,2.775,3.2.262.018.536.049.811.051.246,0,.491-.03.722-.046.327-2.193,1.367-3.271,3.051-3.209,1.591.059,2.6,1.191,2.79,3.18.475.058.969.1,1.456.181a3.987,3.987,0,0,1,3.409,3.937q.028,12.364,0,24.729a3.994,3.994,0,0,1-4.137,4.009q-9,.018-18,0a1.117,1.117,0,0,0-1.208.627,2,2,0,0,1-1.884,1.057c-2.842,0-5.685.013-8.527-.006a2.146,2.146,0,0,1-2.273-2.244,9.781,9.781,0,0,1,0-1.042,1.463,1.463,0,0,0-.616-1.328,3.291,3.291,0,0,1-1.017-1.9,18.985,18.985,0,0,1,0-4.159,3.271,3.271,0,0,1,1-1.908,1.556,1.556,0,0,0,.644-1.311q-.025-8.006-.009-16.012C1174.107-3895.051,1174.951-3896.239,1177.3-3897.089Zm9.753,30.9.289.237h18.088c2.23,0,3.141-.914,3.143-3.173q.006-8.575,0-17.149v-.994h-32.844v11.407c1.025.087,1.106.107,1.384-1.061a1.515,1.515,0,0,1,1.85-1.367c1.288.094,2.592-.03,3.881.056a1.863,1.863,0,0,1,1.048.708,2.307,2.307,0,0,1,.333.972c.16.69.545.933,1.317.638,0-.525-.028-1.089.007-1.648a1.423,1.423,0,0,1,1.488-1.5c.946-.035,1.9-.035,2.841.009a1.3,1.3,0,0,1,1.35,1.395c.013.347,0,.695,0,1.042,0,2.147-.125,2.279-2.268,2.419-.054,0-.1.058-.171.1,0,1.567-.007,3.14,0,4.712a2.6,2.6,0,0,1-1.026,2.126A4.513,4.513,0,0,0,1187.052-3866.187Zm-11.384-22.73h19.41c4.2,0,8.395-.015,12.592.014.7,0,.958-.182.917-.9-.057-1.006.016-2.02-.022-3.028-.074-1.967-1.321-2.932-3.341-2.55,0,.451-.007.919,0,1.386.011.577-.3.989-.828.886-.3-.057-.625-.54-.721-.89a5.53,5.53,0,0,1-.03-1.432h-5.815c0,.522-.012.964,0,1.4.02.569-.236.95-.8.945s-.787-.425-.771-.975c.013-.462,0-.924,0-1.388h-5.821a5.552,5.552,0,0,1-.031,1.467c-.1.346-.476.612-.729.913-.268-.287-.673-.533-.771-.869a5.715,5.715,0,0,1-.033-1.522h-5.823a5.751,5.751,0,0,1-.034,1.54c-.1.332-.511.571-.784.851-.245-.275-.627-.517-.7-.833a7.175,7.175,0,0,1-.032-1.611c-1.226,0-2.3-.019-3.367,0a2.4,2.4,0,0,0-2.454,2.361C1175.629-3891.794,1175.667-3890.438,1175.667-3888.918Zm4.958,14.69v.007c-1.8,0-3.6.015-5.4-.007a1.047,1.047,0,0,0-1.215,1.2c0,.82,0,1.642,0,2.463,0,2.148,0,2.151,2.154,2.146.538,0,1.093.143,1.455-.536.084-.158.8-.046,1.2.05.307.075.555.4.863.469a4.355,4.355,0,0,0,1.132.018c.651-.023,1.364.206,1.805-.6.062-.113.774.089,1.167.207.26.078.478.353.733.382a14.706,14.706,0,0,0,1.608.019.957.957,0,0,0,1.092-1.1c-.01-1.137,0-2.273,0-3.41-.006-1.021-.262-1.289-1.281-1.3C1184.162-3874.237,1182.394-3874.228,1180.625-3874.228Zm-4.96,7.4c0,.429,0,.738,0,1.048,0,1.433.046,1.482,1.485,1.483q3.119,0,6.238,0c2.285,0,2.285,0,2.115-2.311,0-.055-.056-.106-.119-.218-.6.055-1.308-.339-1.775.532-.076.142-.792-.006-1.191-.107-.344-.086-.646-.377-.989-.431a10.863,10.863,0,0,0-1.509-.021c-.47-.006-.869-.037-1.159.528a.665.665,0,0,1-1.179.054C1177.123-3867.164,1176.442-3866.766,1175.666-3866.826Zm11.565-9.045h2.383v-1.554h-2.383Zm-4.58.047c-.132-.831-.132-.849-.743-.862-.821-.018-1.643.025-2.462-.014-.642-.031-.919.21-.867.876Zm6.131-21.405c.037-1.042-.372-1.58-1.171-1.587s-1.2.5-1.231,1.587Zm4.977-.024h2.461c-.094-1.112-.525-1.636-1.294-1.555C1194.048-3898.717,1193.7-3898.158,1193.758-3897.254Zm10.158.021c-.43-.62-.64-1.185-1.043-1.418a1.418,1.418,0,0,0-1.273.158c-.308.232-.378.782-.58,1.26Zm-22.476,0c-.053-1.171-.555-1.7-1.428-1.554-.791.13-1.1.668-.9,1.554Z" transform="translate(-1172.362 3900.433)" fill="#12263f"/>
      <path id="Trazado_199792" data-name="Trazado 199792" d="M1283.7-3822.446h.852c1.47,0,1.911.441,1.925,1.906.027,2.854-.124,3.008-2.941,3.008-.316,0-.631,0-.947,0a2.763,2.763,0,0,1-.472-.021c-1.137-.208-1.5-1.089-1.345-3.293a1.511,1.511,0,0,1,1.7-1.6C1282.88-3822.452,1283.29-3822.445,1283.7-3822.446Zm1.175,1.694h-2.387v1.486h2.387Z" transform="translate(-1260.204 3837.225)" fill="#12263f"/>
      <path id="Trazado_199793" data-name="Trazado 199793" d="M1322.665-3822.445c2.687,0,2.8.118,2.789,2.823-.009,1.664-.443,2.088-2.14,2.09h-1.6a4.329,4.329,0,0,1-.471-.006c-1.242-.137-1.621-.95-1.512-3.231a1.542,1.542,0,0,1,1.712-1.675C1321.847-3822.45,1322.256-3822.445,1322.665-3822.445Zm1.175,1.642h-2.4v1.547h2.4Z" transform="translate(-1291.788 3837.224)" fill="#12263f"/>
      <path id="Trazado_199794" data-name="Trazado 199794" d="M1322.61-3748.468c-2.607,0-2.825-.221-2.813-2.848.007-1.55.535-2.071,2.11-2.075.692,0,1.385-.027,2.074.009a1.465,1.465,0,0,1,1.534,1.548c.025.564.019,1.131,0,1.7a1.486,1.486,0,0,1-1.685,1.667C1323.427-3748.462,1323.019-3748.468,1322.61-3748.468Zm1.3-3.189h-2.382v1.521h2.382Z" transform="translate(-1291.859 3781.261)" fill="#12263f"/>
      <path id="Trazado_199795" data-name="Trazado 199795" d="M1205.713-3817.648c-.347,0-.695.006-1.042,0-1.22-.028-1.816-.588-1.84-1.787-.047-2.413-.156-3.326,3.023-3.129.409.025.822-.01,1.231.009a1.4,1.4,0,0,1,1.449,1.416c.036.534.024,1.073.016,1.61-.019,1.38-.51,1.866-1.89,1.883C1206.345-3817.645,1206.029-3817.648,1205.713-3817.648Zm1.21-3.276h-2.385v1.525h2.385Z" transform="translate(-1197.046 3837.342)" fill="#12263f"/>
      <path id="Trazado_199796" data-name="Trazado 199796" d="M1283.782-3782.917c-2.767,0-2.925-.16-2.894-2.944.016-1.4.489-1.889,1.856-1.9.819-.009,1.64-.019,2.458.015a1.324,1.324,0,0,1,1.381,1.372c.017.219.011.441.012.661C1286.607-3783,1286.527-3782.917,1283.782-3782.917Zm1.169-1.614v-1.581H1282.6v1.581Z" transform="translate(-1260.321 3809.122)" fill="#12263f"/>
      <path id="Trazado_199797" data-name="Trazado 199797" d="M1322.642-3782.925c-2.691,0-2.877-.189-2.851-2.907.013-1.432.5-1.93,1.926-1.943.788-.007,1.578-.024,2.365.015a1.334,1.334,0,0,1,1.422,1.427c.032.566.023,1.135.011,1.7-.026,1.226-.493,1.68-1.737,1.7C1323.4-3782.919,1323.021-3782.925,1322.642-3782.925Zm1.275-3.207h-2.388v1.56h2.388Z" transform="translate(-1291.853 3809.13)" fill="#12263f"/>
      <path id="Trazado_199798" data-name="Trazado 199798" d="M1250.659-3816.566c0,.47.2,1.107-.037,1.379-.676.794-1.188-.163-1.849-.335-.569.1-1.1,1.168-1.8.316-.225-.271-.035-.885,0-1.356,0-.445-.159-.983.036-1.313.332-.562.833-.242,1.31,0a1.241,1.241,0,0,0,.966,0c.473-.225.975-.577,1.315-.019.2.324.036.869.036,1.314Z" transform="translate(-1232.745 3833.774)" fill="#12263f"/>
      <path id="Trazado_199799" data-name="Trazado 199799" d="M1288.082-3747.8a3.234,3.234,0,0,1,.881-.493,1.154,1.154,0,0,1,.924.163.934.934,0,0,1,.1.907c-.292.365-.134.535.008.871a1.121,1.121,0,0,1-.2.983c-.147.162-.633.138-.908.035-.442-.165-.79-.64-1.325-.151-.362.331-.886.608-1.207.077a2.584,2.584,0,0,1-.061-1.375v-1.408l1.793.115Z" transform="translate(-1264.651 3777.147)" fill="#12263f"/>
      <path id="Trazado_199800" data-name="Trazado 199800" d="M1256.035-3857.217c1.387,0,2.774,0,4.162,0,.562,0,1.129.053,1.134.808,0,.731-.519.849-1.1.849q-4.209,0-8.418,0c-.582,0-1.1-.131-1.089-.866.009-.7.528-.783,1.059-.787C1253.2-3857.223,1254.616-3857.216,1256.035-3857.217Z" transform="translate(-1235.872 3865.407)" fill="#12263f"/>
      <path id="Trazado_199801" data-name="Trazado 199801" d="M1230.55-3756.069c-.5-.038-1.4.225-1.414-.747-.018-1.05.912-.778,1.561-.811.282-.015.627-.1.833.024a4.286,4.286,0,0,1,.792.827,4.1,4.1,0,0,1-.818.685A2.65,2.65,0,0,1,1230.55-3756.069Z" transform="translate(-1218.378 3784.721)" fill="#12263f"/>
    </g>
  </g>
</svg>
