<svg xmlns="http://www.w3.org/2000/svg" width="60" height="61" viewBox="0 0 60 61">
  <g id="Grupo_1071918" data-name="Grupo 1071918" transform="translate(-561.676 -1642.244)">
    <ellipse id="Elipse_4870" data-name="Elipse 4870" cx="30" cy="30.5" rx="30" ry="30.5" transform="translate(561.676 1642.244)" fill="#f59d36"/>
    <g id="igIudo.tif" transform="translate(570.676 1651.983)">
      <g id="Grupo_155494" data-name="Grupo 155494" transform="translate(0 0)">
        <path id="Trazado_197412" data-name="Trazado 197412" d="M-1325.7,1302.278h-2.064c-.08.4-.147.805-.24,1.2a7.889,7.889,0,0,1-2.849,4.487.728.728,0,0,0-.33.694c.029.342.007.688.007,1.084h1.35v1.4h-1.339v2.712h-9.611v-2.689h-1.329v-1.387h1.288v-1.074c-.911.244-1.8.533-2.717.718a16.707,16.707,0,0,1-10.206-1.059,16.892,16.892,0,0,1-6.284-4.69,16.891,16.891,0,0,1-3.917-8.97,19.153,19.153,0,0,1,0-4.133.806.806,0,0,0-.2-.564c-.873-.9-1.771-1.786-2.659-2.676-.1-.1-.185-.2-.322-.342.372-.356.724-.7,1.09-1.038a.333.333,0,0,0,.1-.46c-.165-.332-.3-.681-.453-1.048h-1.752v-5.484c.478,0,.956-.012,1.434.005.24.009.331-.093.458-.293a1.181,1.181,0,0,0-.4-1.846,5.833,5.833,0,0,1-.462-.372l3.971-3.966c.292.319.628.662.934,1.031a.383.383,0,0,0,.6.09.19.19,0,0,1,.076-.031c.82-.138,1.031-.654.9-1.41a4.111,4.111,0,0,1,0-.744h5.475v1.782c.356.152.7.287,1.035.447a.337.337,0,0,0,.464-.08c.342-.374.7-.729,1.074-1.108,1.024,1.028,2,2,2.969,2.991a.651.651,0,0,0,.615.217,16.121,16.121,0,0,1,4.338.006,16.71,16.71,0,0,1,10.275,5.381,16.783,16.783,0,0,1,4.338,14.422.8.8,0,0,0,.172.575,8.084,8.084,0,0,1,1.757,3.156c.152.538.249,1.091.375,1.655h2.036Zm-18.489-1.4a8.137,8.137,0,0,1,4.682-6.721,8.066,8.066,0,0,1,8.145.576,12.16,12.16,0,0,0,.084-3.688,15.356,15.356,0,0,0-2.353-6.776,15.6,15.6,0,0,0-9.09-6.769,15.527,15.527,0,0,0-6.357-.435c-.7.092-.927.472-.641,1.119a2.486,2.486,0,0,1,.163.424.408.408,0,0,0,.5.359c.475-.028.953-.007,1.428-.007v5.482a3.558,3.558,0,0,1-.634-.005,1.189,1.189,0,0,0-1.586,1.032c-.047.215-.07.345.1.5.365.332.711.685,1.008.974l-3.936,3.938c-.13-.153-.3-.332-.447-.534-.42-.594-.91-.828-1.568-.352a.377.377,0,0,1-.153.059c-.251.045-.322.19-.313.439.02.49.006.981.006,1.466h-5.483c0-.519.012-1.014-.009-1.507a.473.473,0,0,0-.19-.348,7.649,7.649,0,0,0-.952-.4.287.287,0,0,0-.254.031,1.983,1.983,0,0,0-.466.739,14.93,14.93,0,0,0,.094,5.026,15.466,15.466,0,0,0,3.209,7,15.572,15.572,0,0,0,6.494,4.788,15.565,15.565,0,0,0,8.456.871c.857-.145,1.694-.408,2.564-.623a1.13,1.13,0,0,0-.084-.156,8.228,8.228,0,0,1-2.358-4.864c-.012-.1-.208-.238-.322-.243-.589-.025-1.179-.011-1.784-.011v-1.385Zm-19.981-23.6c-.395,1.024-.733,1.924-1.1,2.813a.476.476,0,0,1-.345.231c-.378.03-.761.011-1.138.011v2.715c.406,0,.779-.013,1.15.008a.415.415,0,0,1,.314.166c.37.927.718,1.862,1.111,2.9l-.914.867,1.978,1.97.819-.972c.995.379,1.883.706,2.759,1.063a.524.524,0,0,1,.258.374c.035.378.012.762.012,1.137h2.726v-1.349l3.069-1.273.837.983,1.962-1.961-.951-.838c.394-1.038.733-1.952,1.1-2.855a.437.437,0,0,1,.323-.2c.392-.025.787-.01,1.174-.01v-2.715c-.405,0-.791.016-1.173-.01a.443.443,0,0,1-.328-.206c-.363-.9-.7-1.814-1.092-2.837l.931-.8-1.992-1.992-.823.924c-1-.384-1.911-.727-2.814-1.091a.432.432,0,0,1-.219-.311c-.027-.393-.011-.788-.011-1.176h-2.716c0,.407.013.792-.008,1.175a.4.4,0,0,1-.178.3c-.915.366-1.839.711-2.913,1.12l-.8-.962-1.977,1.982Zm31.6,32.46c0-.56.034-1.073-.01-1.579a1.013,1.013,0,0,1,.5-1.011,6.564,6.564,0,0,0,2.77-7.037,6.8,6.8,0,0,0-9.247-4.886,6.886,6.886,0,0,0-4.221,7.138,6.962,6.962,0,0,0,3.109,4.968.711.711,0,0,1,.261.488c.031.63.012,1.263.012,1.9h2.719v-5.5l-.312-.125a2.726,2.726,0,0,1-1.688-3,2.772,2.772,0,0,1,2.67-2.288,2.8,2.8,0,0,1,2.727,2.231,2.73,2.73,0,0,1-1.641,3.03.478.478,0,0,0-.369.532c.013,1.575.006,3.151.008,4.727,0,.132.016.265.026.411Zm-.023,1.437h-6.773v1.3h6.773Zm-4.732-9.638a1.356,1.356,0,0,0,1.349,1.386,1.364,1.364,0,0,0,1.351-1.346,1.356,1.356,0,0,0-1.353-1.379A1.35,1.35,0,0,0-1337.32,1301.541Z" transform="translate(1368.138 -1271.425)" fill="#fff"/>
        <path id="Trazado_197413" data-name="Trazado 197413" d="M-1274.332,1535.208l-1.229,2.036-1.186-.705,2.385-3.978,4.69,2.34-.617,1.238-2.709-1.35a10.1,10.1,0,0,0,3.417,5.264,10.152,10.152,0,0,0,5.743,2.274v1.378a11.449,11.449,0,0,1-6.593-2.559A11.647,11.647,0,0,1-1274.332,1535.208Z" transform="translate(1284.34 -1510.862)" fill="#fff"/>
        <path id="Trazado_197414" data-name="Trazado 197414" d="M-1104.488,1388.135v-1.42a11.835,11.835,0,0,1,10.531,8.47l1.193-1.97,1.184.707c-.752,1.252-1.488,2.483-2.235,3.706a.34.34,0,0,1-.289.133c-1.479-.482-2.952-.979-4.458-1.485l.436-1.3,2.879.952a10.057,10.057,0,0,0-3.365-5.417A10.14,10.14,0,0,0-1104.488,1388.135Z" transform="translate(1126.396 -1377.134)" fill="#fff"/>
        <path id="Trazado_197415" data-name="Trazado 197415" d="M-1310.735,1334.671a5.454,5.454,0,0,1,5.47-5.479,5.47,5.47,0,0,1,5.487,5.469,5.486,5.486,0,0,1-5.477,5.486A5.47,5.47,0,0,1-1310.735,1334.671Zm8.735,2.359.172-.03.679-1.667h-1.344v-1.37h1.336l-.729-1.76-.911,1-1.052-1.028.974-.787-.035-.144-1.687-.683v1.354h-1.372v-1.353l-1.764.74,1.014.812-1.11,1.163-.758-.994a3.541,3.541,0,0,0-.672,1.705h1.236v1.372h-1.344l.69,1.658.165.041.778-.921,1.084,1.042-1.069.871,1.771.717v-1.324h1.392v1.327l1.767-.734-.993-.891,1-1.054Z" transform="translate(1315.505 -1324.392)" fill="#fff"/>
        <path id="Trazado_197416" data-name="Trazado 197416" d="M-1045.381,1627.45h-1.337V1626.1h1.337Z" transform="translate(1073.427 -1596.63)" fill="#fff"/>
        <path id="Trazado_197417" data-name="Trazado 197417" d="M-951.128,1583.25l.912-.862.927.937-.944.833Z" transform="translate(985.78 -1556.548)" fill="#fff"/>
        <path id="Trazado_197418" data-name="Trazado 197418" d="M-987.5,1568.279v1.345h-1.318v-1.345Z" transform="translate(1020.34 -1543.612)" fill="#fff"/>
        <path id="Trazado_197419" data-name="Trazado 197419" d="M-949.171,1664.95l-.887.9-.9-.939.929-.912Z" transform="translate(985.622 -1631.374)" fill="#fff"/>
        <path id="Trazado_197420" data-name="Trazado 197420" d="M-1031.323,1583.561l-.9.919-.945-.963.982-.874Z" transform="translate(1060.999 -1556.782)" fill="#fff"/>
        <path id="Trazado_197421" data-name="Trazado 197421" d="M-1031.38,1664.289l.933.877-.974.937-.846-.927Z" transform="translate(1060.176 -1631.643)" fill="#fff"/>
        <path id="Trazado_197422" data-name="Trazado 197422" d="M-929.918,1627.464h-1.317v-1.341h1.317Z" transform="translate(967.54 -1596.649)" fill="#fff"/>
      </g>
    </g>
  </g>
</svg>
