<svg xmlns="http://www.w3.org/2000/svg" width="82" height="82" viewBox="0 0 82 82">
  <g id="Grupo_1071911" data-name="Grupo 1071911" transform="translate(-224 -2059)">
    <rect id="Rectángulo_381952" data-name="Rectángulo 381952" width="82" height="82" transform="translate(224 2059)" fill="none"/>
    <path id="_x31_" d="M34,22V21a1,1,0,0,1,2,0v1a1,1,0,0,1-2,0ZM60,54a6.006,6.006,0,0,1-6,6H47.816A3,3,0,0,1,45,62H19a3,3,0,0,1-2.816-2H10a6.006,6.006,0,0,1-6-6,21.279,21.279,0,0,1,6.293-14.707,19.256,19.256,0,0,1,13.979-6.27l.69-2.071A10.02,10.02,0,0,1,21.217,25H18a3,3,0,0,1-3-3V19a3,3,0,0,1,2.042-2.829,14.98,14.98,0,0,1,29.916,0A3,3,0,0,1,49,19v3a3,3,0,0,1-3,3H42.783a10.008,10.008,0,0,1-3.745,5.952l.69,2.071a19.256,19.256,0,0,1,13.979,6.27A21.279,21.279,0,0,1,60,54ZM46,18H43v5h3a1,1,0,0,0,1-1V19A1,1,0,0,0,46,18ZM19.051,16h2a10.994,10.994,0,0,1,21.9,0h2a12.987,12.987,0,0,0-25.9,0ZM32,8a9.011,9.011,0,0,0-8.941,8H25a3,3,0,0,0,3-3,1,1,0,0,1,2,0,3,3,0,0,0,3,3h7.941A9.011,9.011,0,0,0,32,8ZM21,23V18H18a1,1,0,0,0-1,1v3a1,1,0,0,0,1,1Zm10,8h2a8.009,8.009,0,0,0,8-8V18H33a5,5,0,0,1-4-2,5,5,0,0,1-4,2H23v5A8.009,8.009,0,0,0,31,31Zm6.286,1.021A9.92,9.92,0,0,1,33,33H31a9.92,9.92,0,0,1-4.286-.979l-.506,1.517L32,36.848l5.792-3.31ZM6.748,48.965A5.958,5.958,0,0,1,10,48h6V44a3,3,0,0,1,3-3H45a3,3,0,0,1,3,3v4h6a5.958,5.958,0,0,1,3.252.965,20.234,20.234,0,0,0-4.959-8.258A17.206,17.206,0,0,0,39.263,35L32.5,38.868a1,1,0,0,1-.992,0L24.737,35a17.2,17.2,0,0,0-13.03,5.706,20.234,20.234,0,0,0-4.959,8.258ZM10,58h6V50H10a4,4,0,0,0,0,8Zm36,1V44a1,1,0,0,0-1-1H19a1,1,0,0,0-1,1V59a1,1,0,0,0,1,1H45A1,1,0,0,0,46,59Zm12-5a4,4,0,0,0-4-4H48v8h6A4,4,0,0,0,58,54ZM36.5,51.5A4.5,4.5,0,1,1,32,47,4.505,4.505,0,0,1,36.5,51.5Zm-2,0A2.5,2.5,0,1,0,32,54,2.5,2.5,0,0,0,34.5,51.5ZM29,23a1,1,0,0,0,1-1V21a1,1,0,0,0-2,0v1A1,1,0,0,0,29,23Z" transform="translate(233 2068)" fill="#fff"/>
  </g>
</svg>
