<svg xmlns="http://www.w3.org/2000/svg" xmlns:xlink="http://www.w3.org/1999/xlink" width="696" height="253" viewBox="0 0 696 253">
  <defs>
    <filter id="Rectángulo_36007" x="0" y="0" width="179" height="253" filterUnits="userSpaceOnUse">
      <feOffset dy="3" input="SourceAlpha"/>
      <feGaussianBlur stdDeviation="3" result="blur"/>
      <feFlood flood-opacity="0.161"/>
      <feComposite operator="in" in2="blur"/>
      <feComposite in="SourceGraphic"/>
    </filter>
    <filter id="Rectángulo_37254" x="345" y="0" width="179" height="253" filterUnits="userSpaceOnUse">
      <feOffset dy="3" input="SourceAlpha"/>
      <feGaussianBlur stdDeviation="3" result="blur-2"/>
      <feFlood flood-opacity="0.161"/>
      <feComposite operator="in" in2="blur-2"/>
      <feComposite in="SourceGraphic"/>
    </filter>
    <filter id="Rectángulo_37253" x="172" y="0" width="179" height="253" filterUnits="userSpaceOnUse">
      <feOffset dy="3" input="SourceAlpha"/>
      <feGaussianBlur stdDeviation="3" result="blur-3"/>
      <feFlood flood-opacity="0.161"/>
      <feComposite operator="in" in2="blur-3"/>
      <feComposite in="SourceGraphic"/>
    </filter>
    <filter id="Rectángulo_37255" x="517" y="0" width="179" height="253" filterUnits="userSpaceOnUse">
      <feOffset dy="3" input="SourceAlpha"/>
      <feGaussianBlur stdDeviation="3" result="blur-4"/>
      <feFlood flood-opacity="0.161"/>
      <feComposite operator="in" in2="blur-4"/>
      <feComposite in="SourceGraphic"/>
    </filter>
  </defs>
  <g id="Grupo_155797" data-name="Grupo 155797" transform="translate(-177 -565)">
    <g transform="matrix(1, 0, 0, 1, 177, 565)" filter="url(#Rectángulo_36007)">
      <rect id="Rectángulo_36007-2" data-name="Rectángulo 36007" width="161" height="235" rx="10" transform="translate(9 6)" fill="#fff"/>
    </g>
    <g transform="matrix(1, 0, 0, 1, 177, 565)" filter="url(#Rectángulo_37254)">
      <rect id="Rectángulo_37254-2" data-name="Rectángulo 37254" width="161" height="235" rx="10" transform="translate(354 6)" fill="#fff"/>
    </g>
    <g transform="matrix(1, 0, 0, 1, 177, 565)" filter="url(#Rectángulo_37253)">
      <rect id="Rectángulo_37253-2" data-name="Rectángulo 37253" width="161" height="235" rx="10" transform="translate(181 6)" fill="#fff"/>
    </g>
    <g transform="matrix(1, 0, 0, 1, 177, 565)" filter="url(#Rectángulo_37255)">
      <rect id="Rectángulo_37255-2" data-name="Rectángulo 37255" width="161" height="235" rx="10" transform="translate(526 6)" fill="#fff"/>
    </g>
    <path id="Trazado_199860" data-name="Trazado 199860" d="M20.5,11.2a1.128,1.128,0,0,0-.439-.956,5.764,5.764,0,0,0-1.582-.7,11.215,11.215,0,0,1-1.809-.729A2.956,2.956,0,0,1,14.849,6.17a2.575,2.575,0,0,1,.487-1.542,3.177,3.177,0,0,1,1.4-1.058,5.265,5.265,0,0,1,2.047-.381,4.793,4.793,0,0,1,2.036.414,3.242,3.242,0,0,1,1.388,1.168A3.057,3.057,0,0,1,22.7,6.485H20.5a1.438,1.438,0,0,0-.461-1.139,1.9,1.9,0,0,0-1.3-.406,2.026,2.026,0,0,0-1.252.341,1.074,1.074,0,0,0-.447.9,1.029,1.029,0,0,0,.524.872,5.916,5.916,0,0,0,1.542.659,6.661,6.661,0,0,1,2.732,1.4,2.786,2.786,0,0,1,.857,2.08,2.566,2.566,0,0,1-1.047,2.172,4.585,4.585,0,0,1-2.82.787,5.445,5.445,0,0,1-2.241-.45,3.546,3.546,0,0,1-1.542-1.234,3.161,3.161,0,0,1-.531-1.816h2.2q0,1.765,2.109,1.765a2.052,2.052,0,0,0,1.223-.319A1.037,1.037,0,0,0,20.5,11.2Zm7.2,2.944a3.89,3.89,0,0,1-2.838-1.069,3.8,3.8,0,0,1-1.095-2.849v-.205a4.787,4.787,0,0,1,.461-2.135,3.386,3.386,0,0,1,1.307-1.45,3.669,3.669,0,0,1,1.93-.509,3.289,3.289,0,0,1,2.56,1.025,4.167,4.167,0,0,1,.934,2.908v.864H25.909a1.966,1.966,0,0,0,.619,1.245,1.871,1.871,0,0,0,1.307.469,2.285,2.285,0,0,0,1.912-.886l1.04,1.165A3.178,3.178,0,0,1,29.5,13.769,4.229,4.229,0,0,1,27.7,14.146Zm-.242-6.511a1.323,1.323,0,0,0-1.022.427,2.209,2.209,0,0,0-.5,1.221h2.944V9.114a1.576,1.576,0,0,0-.381-1.092A1.365,1.365,0,0,0,27.454,7.635ZM36.749,14a2.351,2.351,0,0,1-.212-.71,2.561,2.561,0,0,1-2,.857,2.814,2.814,0,0,1-1.93-.674,2.167,2.167,0,0,1-.765-1.7,2.24,2.24,0,0,1,.934-1.934,4.608,4.608,0,0,1,2.7-.681h.974V8.7a1.306,1.306,0,0,0-.282-.879,1.109,1.109,0,0,0-.89-.33,1.261,1.261,0,0,0-.839.256.871.871,0,0,0-.3.7H32.017a2.126,2.126,0,0,1,.425-1.274,2.808,2.808,0,0,1,1.2-.919,4.378,4.378,0,0,1,1.743-.333,3.459,3.459,0,0,1,2.325.736,2.575,2.575,0,0,1,.861,2.069v3.435a3.789,3.789,0,0,0,.315,1.707V14ZM35,12.528a1.823,1.823,0,0,0,.864-.209,1.371,1.371,0,0,0,.586-.56V10.4h-.791q-1.589,0-1.692,1.1l-.007.125a.847.847,0,0,0,.278.652A1.081,1.081,0,0,0,35,12.528ZM44.512,14V7.628H43.333V6.075h1.179V5.4a2.736,2.736,0,0,1,.765-2.069A2.964,2.964,0,0,1,47.42,2.6a4.989,4.989,0,0,1,1.077.145l-.022,1.627A2.7,2.7,0,0,0,47.83,4.3q-1.194,0-1.194,1.13v.642h1.575V7.628H46.636V14Zm9.39,0a2.351,2.351,0,0,1-.212-.71,2.561,2.561,0,0,1-2,.857,2.814,2.814,0,0,1-1.93-.674,2.167,2.167,0,0,1-.765-1.7,2.24,2.24,0,0,1,.934-1.934,4.608,4.608,0,0,1,2.7-.681H53.6V8.7a1.306,1.306,0,0,0-.282-.879,1.109,1.109,0,0,0-.89-.33,1.261,1.261,0,0,0-.839.256.871.871,0,0,0-.3.7H49.17A2.126,2.126,0,0,1,49.6,7.181a2.808,2.808,0,0,1,1.2-.919,4.378,4.378,0,0,1,1.743-.333,3.459,3.459,0,0,1,2.325.736,2.575,2.575,0,0,1,.861,2.069v3.435a3.789,3.789,0,0,0,.315,1.707V14Zm-1.75-1.472a1.823,1.823,0,0,0,.864-.209,1.371,1.371,0,0,0,.586-.56V10.4h-.791q-1.589,0-1.692,1.1l-.007.125a.847.847,0,0,0,.278.652A1.081,1.081,0,0,0,52.151,12.528Zm.806-9.778h2.307L53.235,5.021H51.514Zm7.69,9.69a1.388,1.388,0,0,0,.952-.322,1.129,1.129,0,0,0,.381-.857h1.985a2.715,2.715,0,0,1-.439,1.476,2.9,2.9,0,0,1-1.183,1.04,3.7,3.7,0,0,1-1.659.37A3.44,3.44,0,0,1,58,13.066a4.275,4.275,0,0,1-.981-2.985V9.942A4.226,4.226,0,0,1,58,7.02a3.4,3.4,0,0,1,2.673-1.091,3.333,3.333,0,0,1,2.384.846,3,3,0,0,1,.912,2.252H61.98A1.455,1.455,0,0,0,61.6,8.022a1.416,1.416,0,0,0-2.084.153,3.125,3.125,0,0,0-.377,1.749v.22a3.164,3.164,0,0,0,.374,1.761A1.291,1.291,0,0,0,60.647,12.44ZM67.408,14H65.284V6.075h2.124ZM65.159,4.024a1.042,1.042,0,0,1,.319-.784,1.373,1.373,0,0,1,1.732,0,1.036,1.036,0,0,1,.322.784,1.039,1.039,0,0,1-.326.791,1.358,1.358,0,0,1-1.721,0A1.039,1.039,0,0,1,65.159,4.024ZM71.385,14H69.261V2.75h2.124Zm3.728-7.925.066.886a2.785,2.785,0,0,1,2.278-1.033,2.114,2.114,0,0,1,2.1,1.208,2.721,2.721,0,0,1,2.38-1.208,2.364,2.364,0,0,1,1.919.751,3.451,3.451,0,0,1,.63,2.26V14H82.364V8.935a1.515,1.515,0,0,0-.264-.987,1.167,1.167,0,0,0-.93-.312,1.321,1.321,0,0,0-1.318.91L79.859,14H77.742V8.942a1.5,1.5,0,0,0-.271-1,1.178,1.178,0,0,0-.923-.308,1.371,1.371,0,0,0-1.3.749V14H73.128V6.075Zm14.648,8.071a3.89,3.89,0,0,1-2.838-1.069,3.8,3.8,0,0,1-1.095-2.849v-.205a4.787,4.787,0,0,1,.461-2.135A3.386,3.386,0,0,1,87.6,6.438a3.669,3.669,0,0,1,1.93-.509,3.289,3.289,0,0,1,2.56,1.025,4.167,4.167,0,0,1,.934,2.908v.864H87.974a1.966,1.966,0,0,0,.619,1.245,1.871,1.871,0,0,0,1.307.469,2.285,2.285,0,0,0,1.912-.886l1.04,1.165a3.178,3.178,0,0,1-1.289,1.051A4.229,4.229,0,0,1,89.761,14.146ZM89.52,7.635a1.323,1.323,0,0,0-1.022.427A2.209,2.209,0,0,0,88,9.283H90.94V9.114a1.576,1.576,0,0,0-.381-1.092A1.365,1.365,0,0,0,89.52,7.635Zm6.65-1.56.066.916a2.767,2.767,0,0,1,2.278-1.062,2.3,2.3,0,0,1,1.875.74,3.451,3.451,0,0,1,.63,2.212V14H98.9V8.92a1.379,1.379,0,0,0-.293-.98,1.31,1.31,0,0,0-.974-.3,1.456,1.456,0,0,0-1.34.763V14H94.178V6.075Zm8.987-1.948V6.075h1.355V7.628h-1.355v3.955a.944.944,0,0,0,.168.63.846.846,0,0,0,.645.19,3.376,3.376,0,0,0,.623-.051v1.6a4.358,4.358,0,0,1-1.282.19A2.021,2.021,0,0,1,103.04,11.9V7.628h-1.157V6.075h1.157V4.127Zm6.182,10.02a3.89,3.89,0,0,1-2.838-1.069,3.8,3.8,0,0,1-1.095-2.849v-.205a4.787,4.787,0,0,1,.461-2.135,3.386,3.386,0,0,1,1.307-1.45,3.669,3.669,0,0,1,1.93-.509,3.289,3.289,0,0,1,2.56,1.025,4.167,4.167,0,0,1,.934,2.908v.864h-5.046a1.966,1.966,0,0,0,.619,1.245,1.871,1.871,0,0,0,1.307.469,2.285,2.285,0,0,0,1.912-.886l1.04,1.165a3.178,3.178,0,0,1-1.289,1.051A4.229,4.229,0,0,1,111.338,14.146ZM111.1,7.635a1.323,1.323,0,0,0-1.022.427,2.209,2.209,0,0,0-.5,1.221h2.944V9.114a1.576,1.576,0,0,0-.381-1.092A1.365,1.365,0,0,0,111.1,7.635ZM37.9,38a2.351,2.351,0,0,1-.212-.71,2.561,2.561,0,0,1-2,.857,2.814,2.814,0,0,1-1.93-.674,2.167,2.167,0,0,1-.765-1.7,2.24,2.24,0,0,1,.934-1.934,4.608,4.608,0,0,1,2.7-.681H37.6V32.7a1.306,1.306,0,0,0-.282-.879,1.109,1.109,0,0,0-.89-.33,1.261,1.261,0,0,0-.839.256.871.871,0,0,0-.3.7H33.167a2.126,2.126,0,0,1,.425-1.274,2.808,2.808,0,0,1,1.2-.919,4.378,4.378,0,0,1,1.743-.333,3.459,3.459,0,0,1,2.325.736,2.575,2.575,0,0,1,.861,2.069v3.435a3.789,3.789,0,0,0,.315,1.707V38Zm-1.75-1.472a1.823,1.823,0,0,0,.864-.209,1.371,1.371,0,0,0,.586-.56V34.4h-.791q-1.589,0-1.692,1.1l-.007.125a.847.847,0,0,0,.278.652A1.081,1.081,0,0,0,36.148,36.528Zm8.5-.088a1.388,1.388,0,0,0,.952-.322,1.129,1.129,0,0,0,.381-.857h1.985a2.715,2.715,0,0,1-.439,1.476,2.9,2.9,0,0,1-1.183,1.04,3.7,3.7,0,0,1-1.659.37A3.44,3.44,0,0,1,42,37.066a4.275,4.275,0,0,1-.981-2.985v-.139a4.226,4.226,0,0,1,.974-2.922,3.4,3.4,0,0,1,2.673-1.091,3.333,3.333,0,0,1,2.384.846,3,3,0,0,1,.912,2.252H45.977a1.455,1.455,0,0,0-.381-1.005,1.416,1.416,0,0,0-2.084.153,3.125,3.125,0,0,0-.377,1.749v.22a3.164,3.164,0,0,0,.374,1.761A1.291,1.291,0,0,0,44.644,36.44Zm7.822,0a1.388,1.388,0,0,0,.952-.322,1.129,1.129,0,0,0,.381-.857h1.985a2.715,2.715,0,0,1-.439,1.476,2.9,2.9,0,0,1-1.183,1.04,3.7,3.7,0,0,1-1.659.37,3.44,3.44,0,0,1-2.681-1.08,4.275,4.275,0,0,1-.981-2.985v-.139a4.226,4.226,0,0,1,.974-2.922,3.4,3.4,0,0,1,2.673-1.091,3.333,3.333,0,0,1,2.384.846,3,3,0,0,1,.912,2.252H53.8a1.455,1.455,0,0,0-.381-1.005,1.416,1.416,0,0,0-2.084.153,3.125,3.125,0,0,0-.377,1.749v.22a3.164,3.164,0,0,0,.374,1.761A1.291,1.291,0,0,0,52.466,36.44Zm8.174,1.707A3.89,3.89,0,0,1,57.8,37.077a3.8,3.8,0,0,1-1.095-2.849v-.205a4.787,4.787,0,0,1,.461-2.135,3.386,3.386,0,0,1,1.307-1.45,3.669,3.669,0,0,1,1.93-.509,3.289,3.289,0,0,1,2.56,1.025,4.167,4.167,0,0,1,.934,2.908v.864H58.853a1.966,1.966,0,0,0,.619,1.245,1.871,1.871,0,0,0,1.307.469,2.285,2.285,0,0,0,1.912-.886l1.04,1.165a3.178,3.178,0,0,1-1.289,1.051A4.229,4.229,0,0,1,60.64,38.146ZM60.4,31.635a1.323,1.323,0,0,0-1.022.427,2.209,2.209,0,0,0-.5,1.221h2.944v-.169a1.576,1.576,0,0,0-.381-1.092A1.365,1.365,0,0,0,60.4,31.635Zm8.994,4.175a.682.682,0,0,0-.385-.612,4.368,4.368,0,0,0-1.234-.4q-2.827-.593-2.827-2.4a2.178,2.178,0,0,1,.875-1.761,3.531,3.531,0,0,1,2.289-.707,3.8,3.8,0,0,1,2.413.71,2.239,2.239,0,0,1,.9,1.846H69.312a1.024,1.024,0,0,0-.293-.751,1.24,1.24,0,0,0-.916-.3,1.267,1.267,0,0,0-.828.242.763.763,0,0,0-.293.615.652.652,0,0,0,.333.568,3.428,3.428,0,0,0,1.124.374,9.183,9.183,0,0,1,1.333.355,2.19,2.19,0,0,1,1.677,2.131,2.067,2.067,0,0,1-.93,1.754,4.013,4.013,0,0,1-2.4.67,4.191,4.191,0,0,1-1.769-.355,2.968,2.968,0,0,1-1.212-.974A2.263,2.263,0,0,1,64.7,35.48H66.7a1.105,1.105,0,0,0,.417.864,1.656,1.656,0,0,0,1.04.3,1.533,1.533,0,0,0,.919-.231A.718.718,0,0,0,69.393,35.81ZM75.047,38H72.923V30.075h2.124ZM72.8,28.024a1.042,1.042,0,0,1,.319-.784,1.373,1.373,0,0,1,1.732,0,1.118,1.118,0,0,1,0,1.575,1.358,1.358,0,0,1-1.721,0A1.039,1.039,0,0,1,72.8,28.024Zm11.133,6.086a4.8,4.8,0,0,1-.813,2.97,2.693,2.693,0,0,1-2.271,1.066,2.474,2.474,0,0,1-2.058-.989l-.1.842h-1.9V26.75h2.117v4.036a2.411,2.411,0,0,1,1.926-.857,2.715,2.715,0,0,1,2.274,1.066,4.806,4.806,0,0,1,.824,3Zm-2.117-.161a3.17,3.17,0,0,0-.381-1.76,1.287,1.287,0,0,0-1.135-.555,1.4,1.4,0,0,0-1.392.83V35.6a1.415,1.415,0,0,0,1.406.837,1.307,1.307,0,0,0,1.348-1.014A5.245,5.245,0,0,0,81.814,33.949ZM87.469,38H85.345V26.75h2.124Zm5.391.146a3.89,3.89,0,0,1-2.838-1.069,3.8,3.8,0,0,1-1.095-2.849v-.205a4.787,4.787,0,0,1,.461-2.135,3.386,3.386,0,0,1,1.307-1.45,3.669,3.669,0,0,1,1.93-.509,3.289,3.289,0,0,1,2.56,1.025,4.167,4.167,0,0,1,.934,2.908v.864H91.072a1.966,1.966,0,0,0,.619,1.245A1.871,1.871,0,0,0,93,36.44a2.285,2.285,0,0,0,1.912-.886l1.04,1.165a3.178,3.178,0,0,1-1.289,1.051A4.229,4.229,0,0,1,92.859,38.146Zm-.242-6.511a1.323,1.323,0,0,0-1.022.427,2.209,2.209,0,0,0-.5,1.221h2.944v-.169a1.576,1.576,0,0,0-.381-1.092A1.365,1.365,0,0,0,92.618,31.635Z" transform="translate(199 664)" fill="#12263f"/>
    <path id="Trazado_199862" data-name="Trazado 199862" d="M36.309,3.336l2.739,7.734,2.725-7.734h2.886V14h-2.2V11.085l.22-5.032L39.8,14H38.287L35.416,6.061l.22,5.024V14h-2.2V3.336ZM51.031,14a2.351,2.351,0,0,1-.212-.71,2.561,2.561,0,0,1-2,.857,2.814,2.814,0,0,1-1.93-.674,2.167,2.167,0,0,1-.765-1.7,2.24,2.24,0,0,1,.934-1.934,4.608,4.608,0,0,1,2.7-.681h.974V8.7a1.306,1.306,0,0,0-.282-.879,1.109,1.109,0,0,0-.89-.33,1.261,1.261,0,0,0-.839.256.871.871,0,0,0-.3.7H46.3a2.126,2.126,0,0,1,.425-1.274,2.808,2.808,0,0,1,1.2-.919,4.378,4.378,0,0,1,1.743-.333,3.459,3.459,0,0,1,2.325.736,2.575,2.575,0,0,1,.861,2.069v3.435a3.789,3.789,0,0,0,.315,1.707V14Zm-1.75-1.472a1.823,1.823,0,0,0,.864-.209,1.371,1.371,0,0,0,.586-.56V10.4h-.791q-1.589,0-1.692,1.1l-.007.125a.847.847,0,0,0,.278.652A1.081,1.081,0,0,0,49.28,12.528Zm7.148-6.453.066.916a2.767,2.767,0,0,1,2.278-1.062,2.3,2.3,0,0,1,1.875.74,3.451,3.451,0,0,1,.63,2.212V14H59.161V8.92a1.379,1.379,0,0,0-.293-.98,1.31,1.31,0,0,0-.974-.3,1.456,1.456,0,0,0-1.34.763V14H54.437V6.075Zm8.987-1.948V6.075h1.355V7.628H65.416v3.955a.944.944,0,0,0,.168.63.846.846,0,0,0,.645.19,3.376,3.376,0,0,0,.623-.051v1.6a4.358,4.358,0,0,1-1.282.19A2.021,2.021,0,0,1,63.3,11.9V7.628H62.142V6.075H63.3V4.127ZM71.6,14.146a3.89,3.89,0,0,1-2.838-1.069,3.8,3.8,0,0,1-1.095-2.849v-.205a4.787,4.787,0,0,1,.461-2.135,3.386,3.386,0,0,1,1.307-1.45,3.669,3.669,0,0,1,1.93-.509,3.289,3.289,0,0,1,2.56,1.025,4.167,4.167,0,0,1,.934,2.908v.864H69.81a1.966,1.966,0,0,0,.619,1.245,1.871,1.871,0,0,0,1.307.469,2.285,2.285,0,0,0,1.912-.886l1.04,1.165A3.178,3.178,0,0,1,73.4,13.769,4.229,4.229,0,0,1,71.6,14.146Zm-.242-6.511a1.323,1.323,0,0,0-1.022.427,2.209,2.209,0,0,0-.5,1.221h2.944V9.114A1.576,1.576,0,0,0,72.4,8.021,1.365,1.365,0,0,0,71.355,7.635Zm6.65-1.56.066.916A2.767,2.767,0,0,1,80.35,5.929a2.3,2.3,0,0,1,1.875.74,3.451,3.451,0,0,1,.63,2.212V14H80.738V8.92a1.379,1.379,0,0,0-.293-.98,1.31,1.31,0,0,0-.974-.3,1.456,1.456,0,0,0-1.34.763V14H76.014V6.075Zm6.145,3.9a4.644,4.644,0,0,1,.868-2.937,2.812,2.812,0,0,1,2.34-1.113,2.466,2.466,0,0,1,2.029.894l.088-.747h1.919v7.661a3.387,3.387,0,0,1-.472,1.809,3.034,3.034,0,0,1-1.329,1.172,4.673,4.673,0,0,1-2.007.4,4.346,4.346,0,0,1-1.7-.348,3.016,3.016,0,0,1-1.252-.9l.938-1.289a2.48,2.48,0,0,0,1.919.886,1.815,1.815,0,0,0,1.311-.45,1.69,1.69,0,0,0,.469-1.278v-.425a2.448,2.448,0,0,1-1.926.828,2.8,2.8,0,0,1-2.311-1.117,4.643,4.643,0,0,1-.883-2.963Zm2.117.151a2.907,2.907,0,0,0,.432,1.7,1.373,1.373,0,0,0,1.187.614,1.469,1.469,0,0,0,1.384-.728V8.364a1.465,1.465,0,0,0-1.37-.728,1.382,1.382,0,0,0-1.2.625A3.278,3.278,0,0,0,86.268,10.13ZM97.613,14a2.351,2.351,0,0,1-.212-.71,2.561,2.561,0,0,1-2,.857,2.814,2.814,0,0,1-1.93-.674,2.167,2.167,0,0,1-.765-1.7,2.24,2.24,0,0,1,.934-1.934,4.608,4.608,0,0,1,2.7-.681h.974V8.7a1.306,1.306,0,0,0-.282-.879,1.109,1.109,0,0,0-.89-.33,1.261,1.261,0,0,0-.839.256.871.871,0,0,0-.3.7H92.881a2.126,2.126,0,0,1,.425-1.274,2.808,2.808,0,0,1,1.2-.919,4.378,4.378,0,0,1,1.743-.333,3.459,3.459,0,0,1,2.325.736,2.575,2.575,0,0,1,.861,2.069v3.435a3.789,3.789,0,0,0,.315,1.707V14Zm-1.75-1.472a1.823,1.823,0,0,0,.864-.209,1.371,1.371,0,0,0,.586-.56V10.4h-.791q-1.589,0-1.692,1.1l-.007.125a.847.847,0,0,0,.278.652A1.081,1.081,0,0,0,95.862,12.528ZM25.751,28.111a4.753,4.753,0,0,1-.831,2.933,2.665,2.665,0,0,1-2.245,1.1,2.469,2.469,0,0,1-1.941-.835v3.735H18.617V24.075H20.58l.073.776a2.488,2.488,0,0,1,2.007-.923,2.683,2.683,0,0,1,2.278,1.084A4.882,4.882,0,0,1,25.751,28Zm-2.117-.161a3.136,3.136,0,0,0-.392-1.712,1.275,1.275,0,0,0-1.139-.6,1.385,1.385,0,0,0-1.37.764v3.255a1.409,1.409,0,0,0,1.384.786Q23.635,30.44,23.635,27.949Zm8.174,3.245a2.654,2.654,0,0,1-2.168.952,2.5,2.5,0,0,1-1.945-.732,3.127,3.127,0,0,1-.685-2.146V24.075h2.117V29.2q0,1.239,1.128,1.239a1.528,1.528,0,0,0,1.479-.748V24.075h2.124V32H31.867Zm5.6-7.119.066.916a2.767,2.767,0,0,1,2.278-1.062,2.3,2.3,0,0,1,1.875.74,3.451,3.451,0,0,1,.63,2.212V32H40.136V26.92a1.379,1.379,0,0,0-.293-.98,1.31,1.31,0,0,0-.974-.3,1.456,1.456,0,0,0-1.34.763V32H35.412V24.075Zm8.987-1.948v1.948h1.355v1.553H46.391v3.955a.944.944,0,0,0,.168.63.846.846,0,0,0,.645.19,3.376,3.376,0,0,0,.623-.051v1.6a4.358,4.358,0,0,1-1.282.19A2.021,2.021,0,0,1,44.274,29.9v-4.27H43.117V24.075h1.157V22.127Zm7.28,9.067a2.654,2.654,0,0,1-2.168.952,2.5,2.5,0,0,1-1.945-.732,3.127,3.127,0,0,1-.685-2.146V24.075H50.99V29.2q0,1.239,1.128,1.239a1.528,1.528,0,0,0,1.479-.748V24.075h2.124V32H53.73Zm8.24.806a2.351,2.351,0,0,1-.212-.71,2.561,2.561,0,0,1-2,.857,2.814,2.814,0,0,1-1.93-.674,2.167,2.167,0,0,1-.765-1.7,2.24,2.24,0,0,1,.934-1.934,4.608,4.608,0,0,1,2.7-.681h.974V26.7a1.306,1.306,0,0,0-.282-.879,1.109,1.109,0,0,0-.89-.33,1.261,1.261,0,0,0-.839.256.871.871,0,0,0-.3.7H57.179a2.126,2.126,0,0,1,.425-1.274,2.808,2.808,0,0,1,1.2-.919,4.378,4.378,0,0,1,1.743-.333,3.459,3.459,0,0,1,2.325.736,2.575,2.575,0,0,1,.861,2.069v3.435a3.789,3.789,0,0,0,.315,1.707V32Zm-1.75-1.472a1.823,1.823,0,0,0,.864-.209,1.371,1.371,0,0,0,.586-.56V28.4H60.82q-1.589,0-1.692,1.1l-.007.125a.847.847,0,0,0,.278.652A1.081,1.081,0,0,0,60.16,30.528ZM67.594,32H65.47V20.75h2.124Zm3.728-7.925.066.886a2.785,2.785,0,0,1,2.278-1.033,2.114,2.114,0,0,1,2.1,1.208,2.721,2.721,0,0,1,2.38-1.208,2.364,2.364,0,0,1,1.919.751,3.451,3.451,0,0,1,.63,2.26V32H78.573V26.935a1.515,1.515,0,0,0-.264-.987,1.167,1.167,0,0,0-.93-.312,1.321,1.321,0,0,0-1.318.91L76.069,32H73.952V26.942a1.5,1.5,0,0,0-.271-1,1.178,1.178,0,0,0-.923-.308,1.371,1.371,0,0,0-1.3.749V32H69.338V24.075Zm14.648,8.071a3.89,3.89,0,0,1-2.838-1.069,3.8,3.8,0,0,1-1.095-2.849v-.205a4.787,4.787,0,0,1,.461-2.135,3.386,3.386,0,0,1,1.307-1.45,3.669,3.669,0,0,1,1.93-.509,3.289,3.289,0,0,1,2.56,1.025,4.167,4.167,0,0,1,.934,2.908v.864H84.184a1.966,1.966,0,0,0,.619,1.245,1.871,1.871,0,0,0,1.307.469,2.285,2.285,0,0,0,1.912-.886l1.04,1.165a3.178,3.178,0,0,1-1.289,1.051A4.229,4.229,0,0,1,85.971,32.146Zm-.242-6.511a1.323,1.323,0,0,0-1.022.427,2.209,2.209,0,0,0-.5,1.221H87.15v-.169a1.576,1.576,0,0,0-.381-1.092A1.365,1.365,0,0,0,85.729,25.635Zm6.65-1.56.066.916a2.767,2.767,0,0,1,2.278-1.062,2.3,2.3,0,0,1,1.875.74,3.451,3.451,0,0,1,.63,2.212V32H95.112V26.92a1.379,1.379,0,0,0-.293-.98,1.31,1.31,0,0,0-.974-.3,1.456,1.456,0,0,0-1.34.763V32H90.387V24.075Zm8.987-1.948v1.948h1.355v1.553h-1.355v3.955a.944.944,0,0,0,.168.63.846.846,0,0,0,.645.19,3.376,3.376,0,0,0,.623-.051v1.6a4.358,4.358,0,0,1-1.282.19A2.021,2.021,0,0,1,99.25,29.9v-4.27H98.093V24.075H99.25V22.127Zm6.182,10.02a3.89,3.89,0,0,1-2.838-1.069,3.8,3.8,0,0,1-1.095-2.849v-.205a4.787,4.787,0,0,1,.461-2.135,3.386,3.386,0,0,1,1.307-1.45,3.669,3.669,0,0,1,1.93-.509,3.289,3.289,0,0,1,2.56,1.025,4.167,4.167,0,0,1,.934,2.908v.864h-5.046a1.966,1.966,0,0,0,.619,1.245,1.871,1.871,0,0,0,1.307.469,2.285,2.285,0,0,0,1.912-.886l1.04,1.165a3.178,3.178,0,0,1-1.289,1.051A4.229,4.229,0,0,1,107.548,32.146Zm-.242-6.511a1.323,1.323,0,0,0-1.022.427,2.209,2.209,0,0,0-.5,1.221h2.944v-.169a1.576,1.576,0,0,0-.381-1.092A1.365,1.365,0,0,0,107.306,25.635ZM11.015,50H8.891V42.075h2.124ZM8.766,40.024a1.042,1.042,0,0,1,.319-.784,1.2,1.2,0,0,1,.868-.308,1.2,1.2,0,0,1,.864.308,1.118,1.118,0,0,1,0,1.575,1.2,1.2,0,0,1-.861.308,1.2,1.2,0,0,1-.861-.308A1.039,1.039,0,0,1,8.766,40.024Zm5.94,2.051.066.916a2.767,2.767,0,0,1,2.278-1.062,2.3,2.3,0,0,1,1.875.74,3.451,3.451,0,0,1,.63,2.212V50H17.438V44.92a1.379,1.379,0,0,0-.293-.98,1.31,1.31,0,0,0-.974-.3,1.456,1.456,0,0,0-1.34.763V50H12.714V42.075ZM21.738,50V43.628H20.558V42.075h1.179V41.4a2.736,2.736,0,0,1,.765-2.069,2.964,2.964,0,0,1,2.142-.736,4.989,4.989,0,0,1,1.077.145L25.7,40.369a2.7,2.7,0,0,0-.645-.066q-1.194,0-1.194,1.13v.642h1.575v1.553H23.862V50Zm4.468-4.036a4.7,4.7,0,0,1,.454-2.1,3.324,3.324,0,0,1,1.307-1.428,3.814,3.814,0,0,1,1.981-.505,3.609,3.609,0,0,1,2.618.981A3.939,3.939,0,0,1,33.7,45.576l.015.542a4.142,4.142,0,0,1-1.018,2.926,3.539,3.539,0,0,1-2.732,1.1,3.556,3.556,0,0,1-2.736-1.1,4.215,4.215,0,0,1-1.022-2.988Zm2.117.15a2.962,2.962,0,0,0,.425,1.727,1.526,1.526,0,0,0,2.417.007,3.241,3.241,0,0,0,.432-1.889,2.933,2.933,0,0,0-.432-1.716,1.4,1.4,0,0,0-1.216-.609,1.382,1.382,0,0,0-1.2.605A3.3,3.3,0,0,0,28.322,46.115ZM39.469,44.06A5.75,5.75,0,0,0,38.708,44a1.55,1.55,0,0,0-1.575.813V50H35.016V42.075h2l.059.945a1.961,1.961,0,0,1,1.765-1.091,2.218,2.218,0,0,1,.659.1Zm3-1.985.066.886a2.785,2.785,0,0,1,2.278-1.033,2.114,2.114,0,0,1,2.1,1.208,2.721,2.721,0,0,1,2.38-1.208,2.364,2.364,0,0,1,1.919.751,3.451,3.451,0,0,1,.63,2.26V50H49.723V44.935a1.515,1.515,0,0,0-.264-.987,1.167,1.167,0,0,0-.93-.312,1.321,1.321,0,0,0-1.318.91L47.219,50H45.1V44.942a1.5,1.5,0,0,0-.271-1,1.178,1.178,0,0,0-.923-.308,1.371,1.371,0,0,0-1.3.749V50H40.488V42.075ZM58.066,50a2.351,2.351,0,0,1-.212-.71,2.561,2.561,0,0,1-2,.857,2.814,2.814,0,0,1-1.93-.674,2.167,2.167,0,0,1-.765-1.7,2.24,2.24,0,0,1,.934-1.934,4.608,4.608,0,0,1,2.7-.681h.974V44.7a1.306,1.306,0,0,0-.282-.879,1.109,1.109,0,0,0-.89-.33,1.261,1.261,0,0,0-.839.256.871.871,0,0,0-.3.7H53.334a2.126,2.126,0,0,1,.425-1.274,2.808,2.808,0,0,1,1.2-.919,4.378,4.378,0,0,1,1.743-.333,3.459,3.459,0,0,1,2.325.736,2.575,2.575,0,0,1,.861,2.069v3.435a3.789,3.789,0,0,0,.315,1.707V50Zm-1.75-1.472a1.823,1.823,0,0,0,.864-.209,1.371,1.371,0,0,0,.586-.56V46.4h-.791q-1.589,0-1.692,1.1l-.007.125a.847.847,0,0,0,.278.652A1.081,1.081,0,0,0,56.315,48.528Zm4.871-2.549a4.776,4.776,0,0,1,.831-2.952,2.7,2.7,0,0,1,2.274-1.1,2.427,2.427,0,0,1,1.912.864V38.75h2.124V50H66.415l-.1-.842a2.491,2.491,0,0,1-2.036.989,2.69,2.69,0,0,1-2.245-1.1A4.93,4.93,0,0,1,61.186,45.979Zm2.117.151a3.146,3.146,0,0,0,.388,1.714,1.263,1.263,0,0,0,1.128.6,1.416,1.416,0,0,0,1.384-.831V44.467a1.4,1.4,0,0,0-1.37-.831Q63.3,43.635,63.3,46.13Zm6.335-.165a4.7,4.7,0,0,1,.454-2.1A3.324,3.324,0,0,1,71.4,42.434a3.814,3.814,0,0,1,1.981-.505A3.609,3.609,0,0,1,76,42.91a3.939,3.939,0,0,1,1.132,2.666l.015.542a4.142,4.142,0,0,1-1.018,2.926,3.946,3.946,0,0,1-5.468,0,4.215,4.215,0,0,1-1.022-2.988Zm2.117.15a2.962,2.962,0,0,0,.425,1.727,1.526,1.526,0,0,0,2.417.007,3.241,3.241,0,0,0,.432-1.889,2.933,2.933,0,0,0-.432-1.716,1.4,1.4,0,0,0-1.216-.609,1.382,1.382,0,0,0-1.2.605A3.3,3.3,0,0,0,71.755,46.115Zm10.986,1.7a.682.682,0,0,0-.385-.612,4.368,4.368,0,0,0-1.234-.4Q78.3,46.206,78.3,44.4a2.178,2.178,0,0,1,.875-1.761,3.531,3.531,0,0,1,2.289-.707,3.8,3.8,0,0,1,2.413.71,2.239,2.239,0,0,1,.9,1.846H82.66a1.024,1.024,0,0,0-.293-.751,1.24,1.24,0,0,0-.916-.3,1.267,1.267,0,0,0-.828.242.763.763,0,0,0-.293.615.652.652,0,0,0,.333.568,3.428,3.428,0,0,0,1.124.374,9.183,9.183,0,0,1,1.333.355A2.19,2.19,0,0,1,84.8,47.722a2.067,2.067,0,0,1-.93,1.754,4.013,4.013,0,0,1-2.4.67,4.191,4.191,0,0,1-1.769-.355,2.968,2.968,0,0,1-1.212-.974,2.263,2.263,0,0,1-.439-1.337h2.007a1.105,1.105,0,0,0,.417.864,1.656,1.656,0,0,0,1.04.3,1.533,1.533,0,0,0,.919-.231A.718.718,0,0,0,82.741,47.81ZM94.489,50a2.351,2.351,0,0,1-.212-.71,2.561,2.561,0,0,1-2,.857,2.814,2.814,0,0,1-1.93-.674,2.167,2.167,0,0,1-.765-1.7,2.24,2.24,0,0,1,.934-1.934,4.608,4.608,0,0,1,2.7-.681h.974V44.7a1.306,1.306,0,0,0-.282-.879,1.109,1.109,0,0,0-.89-.33,1.261,1.261,0,0,0-.839.256.871.871,0,0,0-.3.7H89.758a2.126,2.126,0,0,1,.425-1.274,2.808,2.808,0,0,1,1.2-.919,4.378,4.378,0,0,1,1.743-.333,3.459,3.459,0,0,1,2.325.736,2.575,2.575,0,0,1,.861,2.069v3.435a3.789,3.789,0,0,0,.315,1.707V50Zm-1.75-1.472a1.823,1.823,0,0,0,.864-.209,1.371,1.371,0,0,0,.586-.56V46.4H93.4q-1.589,0-1.692,1.1l-.007.125a.847.847,0,0,0,.278.652A1.081,1.081,0,0,0,92.739,48.528ZM103.908,50h-2.124V38.75h2.124Zm1.414-4.036a4.7,4.7,0,0,1,.454-2.1,3.324,3.324,0,0,1,1.307-1.428,3.814,3.814,0,0,1,1.981-.505,3.609,3.609,0,0,1,2.618.981,3.939,3.939,0,0,1,1.132,2.666l.015.542a4.142,4.142,0,0,1-1.018,2.926,3.946,3.946,0,0,1-5.468,0,4.215,4.215,0,0,1-1.022-2.988Zm2.117.15a2.962,2.962,0,0,0,.425,1.727,1.526,1.526,0,0,0,2.417.007,3.241,3.241,0,0,0,.432-1.889,2.933,2.933,0,0,0-.432-1.716,1.4,1.4,0,0,0-1.216-.609,1.382,1.382,0,0,0-1.2.605A3.3,3.3,0,0,0,107.438,46.115Zm10.986,1.7a.682.682,0,0,0-.385-.612,4.368,4.368,0,0,0-1.234-.4q-2.827-.593-2.827-2.4a2.178,2.178,0,0,1,.875-1.761,3.531,3.531,0,0,1,2.289-.707,3.8,3.8,0,0,1,2.413.71,2.239,2.239,0,0,1,.9,1.846h-2.117a1.024,1.024,0,0,0-.293-.751,1.24,1.24,0,0,0-.916-.3,1.267,1.267,0,0,0-.828.242.763.763,0,0,0-.293.615.652.652,0,0,0,.333.568,3.428,3.428,0,0,0,1.124.374,9.183,9.183,0,0,1,1.333.355,2.19,2.19,0,0,1,1.677,2.131,2.067,2.067,0,0,1-.93,1.754,4.013,4.013,0,0,1-2.4.67,4.191,4.191,0,0,1-1.769-.355,2.968,2.968,0,0,1-1.212-.974,2.263,2.263,0,0,1-.439-1.337h2.007a1.105,1.105,0,0,0,.417.864,1.656,1.656,0,0,0,1.04.3,1.533,1.533,0,0,0,.919-.231A.718.718,0,0,0,118.425,47.81Zm-111,19.384a2.654,2.654,0,0,1-2.168.952,2.5,2.5,0,0,1-1.945-.732,3.127,3.127,0,0,1-.685-2.146V60.075H4.742V65.2q0,1.239,1.128,1.239a1.528,1.528,0,0,0,1.479-.748V60.075H9.473V68H7.481Zm7.939-1.384a.682.682,0,0,0-.385-.612,4.368,4.368,0,0,0-1.234-.4q-2.827-.593-2.827-2.4a2.178,2.178,0,0,1,.875-1.761,3.531,3.531,0,0,1,2.289-.707,3.8,3.8,0,0,1,2.413.71,2.239,2.239,0,0,1,.9,1.846H15.281a1.024,1.024,0,0,0-.293-.751,1.24,1.24,0,0,0-.916-.3,1.267,1.267,0,0,0-.828.242.763.763,0,0,0-.293.615.652.652,0,0,0,.333.568,3.428,3.428,0,0,0,1.124.374,9.183,9.183,0,0,1,1.333.355,2.19,2.19,0,0,1,1.677,2.131,2.067,2.067,0,0,1-.93,1.754,4.013,4.013,0,0,1-2.4.67,4.191,4.191,0,0,1-1.769-.355,2.968,2.968,0,0,1-1.212-.974,2.263,2.263,0,0,1-.439-1.337h2.007a1.105,1.105,0,0,0,.417.864,1.656,1.656,0,0,0,1.04.3,1.533,1.533,0,0,0,.919-.231A.718.718,0,0,0,15.362,65.81Zm8.167,1.384a2.654,2.654,0,0,1-2.168.952,2.5,2.5,0,0,1-1.945-.732,3.127,3.127,0,0,1-.685-2.146V60.075h2.117V65.2q0,1.239,1.128,1.239a1.528,1.528,0,0,0,1.479-.748V60.075h2.124V68H23.587Zm8.24.806a2.351,2.351,0,0,1-.212-.71,2.561,2.561,0,0,1-2,.857,2.814,2.814,0,0,1-1.93-.674,2.167,2.167,0,0,1-.765-1.7,2.24,2.24,0,0,1,.934-1.934,4.608,4.608,0,0,1,2.7-.681h.974V62.7a1.306,1.306,0,0,0-.282-.879,1.109,1.109,0,0,0-.89-.33,1.261,1.261,0,0,0-.839.256.871.871,0,0,0-.3.7H27.037a2.126,2.126,0,0,1,.425-1.274,2.808,2.808,0,0,1,1.2-.919,4.378,4.378,0,0,1,1.743-.333,3.459,3.459,0,0,1,2.325.736,2.575,2.575,0,0,1,.861,2.069v3.435a3.789,3.789,0,0,0,.315,1.707V68Zm-1.75-1.472a1.823,1.823,0,0,0,.864-.209,1.371,1.371,0,0,0,.586-.56V64.4h-.791q-1.589,0-1.692,1.1l-.007.125a.847.847,0,0,0,.278.652A1.081,1.081,0,0,0,30.018,66.528Zm9.653-4.468A5.75,5.75,0,0,0,38.909,62a1.55,1.55,0,0,0-1.575.813V68H35.218V60.075h2l.059.945a1.961,1.961,0,0,1,1.765-1.091,2.218,2.218,0,0,1,.659.1ZM42.923,68H40.8V60.075h2.124Zm-2.249-9.976a1.042,1.042,0,0,1,.319-.784,1.373,1.373,0,0,1,1.732,0,1.118,1.118,0,0,1,0,1.575,1.358,1.358,0,0,1-1.721,0A1.039,1.039,0,0,1,40.674,58.024Zm3.662,5.94a4.7,4.7,0,0,1,.454-2.1A3.324,3.324,0,0,1,46.1,60.434a3.814,3.814,0,0,1,1.981-.505,3.609,3.609,0,0,1,2.618.981,3.939,3.939,0,0,1,1.132,2.666l.015.542a4.142,4.142,0,0,1-1.018,2.926,3.946,3.946,0,0,1-5.468,0,4.215,4.215,0,0,1-1.022-2.988Zm2.117.15a2.962,2.962,0,0,0,.425,1.727,1.526,1.526,0,0,0,2.417.007,3.241,3.241,0,0,0,.432-1.889,2.933,2.933,0,0,0-.432-1.716,1.4,1.4,0,0,0-1.216-.609,1.382,1.382,0,0,0-1.2.605A3.3,3.3,0,0,0,46.453,64.115Zm10.986,1.7a.682.682,0,0,0-.385-.612,4.368,4.368,0,0,0-1.234-.4q-2.827-.593-2.827-2.4a2.178,2.178,0,0,1,.875-1.761,3.531,3.531,0,0,1,2.289-.707,3.8,3.8,0,0,1,2.413.71,2.239,2.239,0,0,1,.9,1.846H57.359a1.024,1.024,0,0,0-.293-.751,1.24,1.24,0,0,0-.916-.3,1.267,1.267,0,0,0-.828.242.763.763,0,0,0-.293.615.652.652,0,0,0,.333.568,3.428,3.428,0,0,0,1.124.374,9.183,9.183,0,0,1,1.333.355A2.19,2.19,0,0,1,59.5,65.722a2.067,2.067,0,0,1-.93,1.754,4.013,4.013,0,0,1-2.4.67,4.191,4.191,0,0,1-1.769-.355,2.968,2.968,0,0,1-1.212-.974,2.263,2.263,0,0,1-.439-1.337h2.007a1.105,1.105,0,0,0,.417.864,1.656,1.656,0,0,0,1.04.3,1.533,1.533,0,0,0,.919-.231A.718.718,0,0,0,57.439,65.81ZM67.554,65l1.465-4.929H71.29L68.1,69.23l-.176.417A2.416,2.416,0,0,1,65.584,71.2a3.33,3.33,0,0,1-.937-.139v-1.6l.322.007a1.741,1.741,0,0,0,.9-.183,1.2,1.2,0,0,0,.465-.608l.249-.652L63.8,60.075h2.278Zm10.54,3H75.97V56.75h2.124Zm3.977,0H79.947V56.75h2.124Zm5.391.146a3.89,3.89,0,0,1-2.838-1.069,3.8,3.8,0,0,1-1.095-2.849v-.205a4.787,4.787,0,0,1,.461-2.135,3.386,3.386,0,0,1,1.307-1.45,3.669,3.669,0,0,1,1.93-.509,3.289,3.289,0,0,1,2.56,1.025,4.167,4.167,0,0,1,.934,2.908v.864H85.674a1.966,1.966,0,0,0,.619,1.245,1.871,1.871,0,0,0,1.307.469,2.285,2.285,0,0,0,1.912-.886l1.04,1.165a3.178,3.178,0,0,1-1.289,1.051A4.229,4.229,0,0,1,87.461,68.146Zm-.242-6.511a1.323,1.323,0,0,0-1.022.427,2.209,2.209,0,0,0-.5,1.221h2.944v-.169a1.576,1.576,0,0,0-.381-1.092A1.365,1.365,0,0,0,87.22,61.635Zm7.573,3.779,1.472-5.339h2.212L95.8,68H93.782l-2.673-7.925h2.212Zm8.167,2.732a3.89,3.89,0,0,1-2.838-1.069,3.8,3.8,0,0,1-1.095-2.849v-.205a4.787,4.787,0,0,1,.461-2.135,3.386,3.386,0,0,1,1.307-1.45,3.669,3.669,0,0,1,1.93-.509,3.289,3.289,0,0,1,2.56,1.025,4.167,4.167,0,0,1,.934,2.908v.864h-5.046a1.966,1.966,0,0,0,.619,1.245,1.871,1.871,0,0,0,1.307.469,2.285,2.285,0,0,0,1.912-.886l1.04,1.165a3.178,3.178,0,0,1-1.289,1.051A4.229,4.229,0,0,1,102.959,68.146Zm-.242-6.511a1.323,1.323,0,0,0-1.022.427,2.209,2.209,0,0,0-.5,1.221h2.944v-.169a1.576,1.576,0,0,0-.381-1.092A1.365,1.365,0,0,0,102.718,61.635ZM115.9,67.194a2.654,2.654,0,0,1-2.168.952,2.5,2.5,0,0,1-1.945-.732,3.127,3.127,0,0,1-.685-2.146V60.075h2.117V65.2q0,1.239,1.128,1.239a1.528,1.528,0,0,0,1.479-.748V60.075h2.124V68H115.96Zm5.6-7.119.066.916a2.767,2.767,0,0,1,2.278-1.062,2.3,2.3,0,0,1,1.875.74,3.451,3.451,0,0,1,.63,2.212V68h-2.117V62.92a1.379,1.379,0,0,0-.293-.98,1.31,1.31,0,0,0-.974-.3,1.456,1.456,0,0,0-1.34.763V68H119.5V60.075ZM8.737,80.06A5.75,5.75,0,0,0,7.975,80a1.55,1.55,0,0,0-1.575.813V86H4.284V78.075h2l.059.945a1.961,1.961,0,0,1,1.765-1.091,2.218,2.218,0,0,1,.659.1Zm4.526,6.086a3.89,3.89,0,0,1-2.838-1.069A3.8,3.8,0,0,1,9.33,82.228v-.205a4.787,4.787,0,0,1,.461-2.135,3.386,3.386,0,0,1,1.307-1.45,3.669,3.669,0,0,1,1.93-.509,3.289,3.289,0,0,1,2.56,1.025,4.167,4.167,0,0,1,.934,2.908v.864H11.476a1.966,1.966,0,0,0,.619,1.245,1.871,1.871,0,0,0,1.307.469,2.285,2.285,0,0,0,1.912-.886l1.04,1.165a3.178,3.178,0,0,1-1.289,1.051A4.229,4.229,0,0,1,13.263,86.146Zm-.242-6.511A1.323,1.323,0,0,0,12,80.062a2.209,2.209,0,0,0-.5,1.221h2.944v-.169a1.576,1.576,0,0,0-.381-1.092A1.365,1.365,0,0,0,13.022,79.635Zm4.395,2.344a4.644,4.644,0,0,1,.868-2.937,2.812,2.812,0,0,1,2.34-1.113,2.466,2.466,0,0,1,2.029.894l.088-.747H24.66v7.661a3.387,3.387,0,0,1-.472,1.809,3.034,3.034,0,0,1-1.329,1.172,4.673,4.673,0,0,1-2.007.4,4.346,4.346,0,0,1-1.7-.348,3.016,3.016,0,0,1-1.252-.9l.938-1.289a2.48,2.48,0,0,0,1.919.886,1.815,1.815,0,0,0,1.311-.45,1.69,1.69,0,0,0,.469-1.278v-.425a2.448,2.448,0,0,1-1.926.828A2.8,2.8,0,0,1,18.3,85.03a4.643,4.643,0,0,1-.883-2.963Zm2.117.151a2.907,2.907,0,0,0,.432,1.7,1.373,1.373,0,0,0,1.187.614,1.469,1.469,0,0,0,1.384-.728V80.364a1.465,1.465,0,0,0-1.37-.728,1.382,1.382,0,0,0-1.2.625A3.278,3.278,0,0,0,19.533,82.13ZM28.52,86H26.4V78.075H28.52Zm-2.249-9.976a1.042,1.042,0,0,1,.319-.784,1.373,1.373,0,0,1,1.732,0,1.118,1.118,0,0,1,0,1.575,1.358,1.358,0,0,1-1.721,0A1.039,1.039,0,0,1,26.271,76.024Zm8.284,7.786a.682.682,0,0,0-.385-.612,4.368,4.368,0,0,0-1.234-.4q-2.827-.593-2.827-2.4a2.178,2.178,0,0,1,.875-1.761,3.531,3.531,0,0,1,2.289-.707,3.8,3.8,0,0,1,2.413.71,2.239,2.239,0,0,1,.9,1.846H34.474a1.024,1.024,0,0,0-.293-.751,1.24,1.24,0,0,0-.916-.3,1.267,1.267,0,0,0-.828.242.763.763,0,0,0-.293.615.652.652,0,0,0,.333.568,3.428,3.428,0,0,0,1.124.374,9.183,9.183,0,0,1,1.333.355,2.19,2.19,0,0,1,1.677,2.131,2.067,2.067,0,0,1-.93,1.754,4.013,4.013,0,0,1-2.4.67,4.191,4.191,0,0,1-1.769-.355,2.968,2.968,0,0,1-1.212-.974,2.263,2.263,0,0,1-.439-1.337h2.007a1.105,1.105,0,0,0,.417.864,1.656,1.656,0,0,0,1.04.3,1.533,1.533,0,0,0,.919-.231A.718.718,0,0,0,34.555,83.81Zm5.955-7.683v1.948h1.355v1.553H40.51v3.955a.944.944,0,0,0,.168.63.846.846,0,0,0,.645.19,3.376,3.376,0,0,0,.623-.051v1.6a4.358,4.358,0,0,1-1.282.19A2.021,2.021,0,0,1,38.393,83.9v-4.27H37.236V78.075h1.157V76.127ZM47.5,80.06A5.75,5.75,0,0,0,46.735,80a1.55,1.55,0,0,0-1.575.813V86H43.044V78.075h2l.059.945a1.961,1.961,0,0,1,1.765-1.091,2.218,2.218,0,0,1,.659.1Zm.425,1.9a4.7,4.7,0,0,1,.454-2.1,3.324,3.324,0,0,1,1.307-1.428,3.814,3.814,0,0,1,1.981-.505,3.609,3.609,0,0,1,2.618.981,3.939,3.939,0,0,1,1.132,2.666l.015.542a4.142,4.142,0,0,1-1.018,2.926,3.946,3.946,0,0,1-5.468,0,4.215,4.215,0,0,1-1.022-2.988Zm2.117.15a2.962,2.962,0,0,0,.425,1.727,1.526,1.526,0,0,0,2.417.007,3.241,3.241,0,0,0,.432-1.889,2.933,2.933,0,0,0-.432-1.716,1.4,1.4,0,0,0-1.216-.609,1.382,1.382,0,0,0-1.2.605A3.3,3.3,0,0,0,50.038,82.115Zm10.1-.136a4.776,4.776,0,0,1,.831-2.952,2.7,2.7,0,0,1,2.274-1.1,2.427,2.427,0,0,1,1.912.864V74.75H67.28V86H65.368l-.1-.842a2.491,2.491,0,0,1-2.036.989,2.69,2.69,0,0,1-2.245-1.1A4.93,4.93,0,0,1,60.138,81.979Zm2.117.151a3.146,3.146,0,0,0,.388,1.714,1.263,1.263,0,0,0,1.128.6,1.416,1.416,0,0,0,1.384-.831V80.467a1.4,1.4,0,0,0-1.37-.831Q62.255,79.635,62.255,82.13Zm10.313,4.017a3.89,3.89,0,0,1-2.838-1.069,3.8,3.8,0,0,1-1.095-2.849v-.205a4.787,4.787,0,0,1,.461-2.135,3.386,3.386,0,0,1,1.307-1.45,3.669,3.669,0,0,1,1.93-.509,3.289,3.289,0,0,1,2.56,1.025,4.167,4.167,0,0,1,.934,2.908v.864H70.781a1.966,1.966,0,0,0,.619,1.245,1.871,1.871,0,0,0,1.307.469,2.285,2.285,0,0,0,1.912-.886l1.04,1.165a3.178,3.178,0,0,1-1.289,1.051A4.229,4.229,0,0,1,72.568,86.146Zm-.242-6.511a1.323,1.323,0,0,0-1.022.427,2.209,2.209,0,0,0-.5,1.221h2.944v-.169a1.576,1.576,0,0,0-.381-1.092A1.365,1.365,0,0,0,72.326,79.635ZM83.3,76.127v1.948h1.355v1.553H83.3v3.955a.944.944,0,0,0,.168.63.846.846,0,0,0,.645.19,3.376,3.376,0,0,0,.623-.051v1.6a4.358,4.358,0,0,1-1.282.19A2.021,2.021,0,0,1,81.181,83.9v-4.27H80.024V78.075h1.157V76.127Zm1.985,5.837a4.7,4.7,0,0,1,.454-2.1,3.324,3.324,0,0,1,1.307-1.428,3.814,3.814,0,0,1,1.981-.505,3.609,3.609,0,0,1,2.618.981,3.939,3.939,0,0,1,1.132,2.666l.015.542a4.142,4.142,0,0,1-1.018,2.926,3.946,3.946,0,0,1-5.468,0,4.215,4.215,0,0,1-1.022-2.988Zm2.117.15a2.962,2.962,0,0,0,.425,1.727,1.526,1.526,0,0,0,2.417.007,3.241,3.241,0,0,0,.432-1.889,2.933,2.933,0,0,0-.432-1.716,1.4,1.4,0,0,0-1.216-.609,1.382,1.382,0,0,0-1.2.605A3.3,3.3,0,0,0,87.4,82.115Zm6.365-.136a4.776,4.776,0,0,1,.831-2.952,2.7,2.7,0,0,1,2.274-1.1,2.427,2.427,0,0,1,1.912.864V74.75h2.124V86H98.993l-.1-.842a2.491,2.491,0,0,1-2.036.989,2.69,2.69,0,0,1-2.245-1.1A4.93,4.93,0,0,1,93.764,81.979Zm2.117.151a3.146,3.146,0,0,0,.388,1.714,1.263,1.263,0,0,0,1.128.6,1.416,1.416,0,0,0,1.384-.831V80.467a1.4,1.4,0,0,0-1.37-.831Q95.881,79.635,95.881,82.13ZM107.138,86a2.351,2.351,0,0,1-.212-.71,2.561,2.561,0,0,1-2,.857,2.814,2.814,0,0,1-1.93-.674,2.167,2.167,0,0,1-.765-1.7,2.24,2.24,0,0,1,.934-1.934,4.608,4.608,0,0,1,2.7-.681h.974V80.7a1.306,1.306,0,0,0-.282-.879,1.109,1.109,0,0,0-.89-.33,1.261,1.261,0,0,0-.839.256.871.871,0,0,0-.3.7h-2.117a2.126,2.126,0,0,1,.425-1.274,2.808,2.808,0,0,1,1.2-.919,4.378,4.378,0,0,1,1.743-.333,3.459,3.459,0,0,1,2.325.736,2.575,2.575,0,0,1,.861,2.069v3.435a3.789,3.789,0,0,0,.315,1.707V86Zm-1.75-1.472a1.823,1.823,0,0,0,.864-.209,1.371,1.371,0,0,0,.586-.56V82.4h-.791q-1.589,0-1.692,1.1l-.007.125a.847.847,0,0,0,.278.652A1.081,1.081,0,0,0,105.387,84.528ZM116.557,86h-2.124V74.75h2.124Zm6.335,0a2.351,2.351,0,0,1-.212-.71,2.561,2.561,0,0,1-2,.857,2.814,2.814,0,0,1-1.93-.674,2.167,2.167,0,0,1-.765-1.7,2.24,2.24,0,0,1,.934-1.934,4.608,4.608,0,0,1,2.7-.681h.974V80.7a1.306,1.306,0,0,0-.282-.879,1.109,1.109,0,0,0-.89-.33,1.261,1.261,0,0,0-.839.256.871.871,0,0,0-.3.7h-2.117a2.126,2.126,0,0,1,.425-1.274,2.808,2.808,0,0,1,1.2-.919,4.378,4.378,0,0,1,1.743-.333,3.459,3.459,0,0,1,2.325.736,2.575,2.575,0,0,1,.861,2.069v3.435a3.789,3.789,0,0,0,.315,1.707V86Zm-1.75-1.472a1.823,1.823,0,0,0,.864-.209,1.371,1.371,0,0,0,.586-.56V82.4H121.8q-1.589,0-1.692,1.1l-.007.125a.847.847,0,0,0,.278.652A1.081,1.081,0,0,0,121.142,84.528ZM3.7,104H1.574V96.075H3.7ZM1.449,94.024a1.042,1.042,0,0,1,.319-.784,1.2,1.2,0,0,1,.868-.308,1.2,1.2,0,0,1,.864.308,1.118,1.118,0,0,1,0,1.575,1.2,1.2,0,0,1-.861.308,1.2,1.2,0,0,1-.861-.308A1.039,1.039,0,0,1,1.449,94.024Zm5.94,2.051.066.916a2.767,2.767,0,0,1,2.278-1.062,2.3,2.3,0,0,1,1.875.74,3.451,3.451,0,0,1,.63,2.212V104H10.121V98.92a1.379,1.379,0,0,0-.293-.98,1.31,1.31,0,0,0-.974-.3,1.456,1.456,0,0,0-1.34.763V104H5.4V96.075Zm8.987-1.948v1.948h1.355v1.553H16.376v3.955a.944.944,0,0,0,.168.63.846.846,0,0,0,.645.19,3.376,3.376,0,0,0,.623-.051v1.6a4.358,4.358,0,0,1-1.282.19A2.021,2.021,0,0,1,14.26,101.9v-4.27H13.1V96.075H14.26V94.127Zm6.182,10.02a3.89,3.89,0,0,1-2.838-1.069,3.8,3.8,0,0,1-1.095-2.849v-.205a4.787,4.787,0,0,1,.461-2.135,3.386,3.386,0,0,1,1.307-1.45,3.669,3.669,0,0,1,1.93-.509,3.289,3.289,0,0,1,2.56,1.025,4.167,4.167,0,0,1,.934,2.908v.864H20.771a1.966,1.966,0,0,0,.619,1.245,1.871,1.871,0,0,0,1.307.469,2.285,2.285,0,0,0,1.912-.886l1.04,1.165a3.178,3.178,0,0,1-1.289,1.051A4.229,4.229,0,0,1,22.558,104.146Zm-.242-6.511a1.323,1.323,0,0,0-1.022.427,2.209,2.209,0,0,0-.5,1.221h2.944v-.169a1.576,1.576,0,0,0-.381-1.092A1.365,1.365,0,0,0,22.316,97.635Zm9.155.425A5.75,5.75,0,0,0,30.71,98a1.55,1.55,0,0,0-1.575.813V104H27.018V96.075h2l.059.945a1.961,1.961,0,0,1,1.765-1.091,2.218,2.218,0,0,1,.659.1ZM36.862,104a2.351,2.351,0,0,1-.212-.71,2.561,2.561,0,0,1-2,.857,2.814,2.814,0,0,1-1.93-.674,2.167,2.167,0,0,1-.765-1.7,2.24,2.24,0,0,1,.934-1.934,4.608,4.608,0,0,1,2.7-.681h.974V98.7a1.306,1.306,0,0,0-.282-.879,1.109,1.109,0,0,0-.89-.33,1.261,1.261,0,0,0-.839.256.871.871,0,0,0-.3.7H32.131a2.126,2.126,0,0,1,.425-1.274,2.808,2.808,0,0,1,1.2-.919,4.378,4.378,0,0,1,1.743-.333,3.459,3.459,0,0,1,2.325.736,2.575,2.575,0,0,1,.861,2.069v3.435A3.789,3.789,0,0,0,39,103.875V104Zm-1.75-1.472a1.823,1.823,0,0,0,.864-.209,1.371,1.371,0,0,0,.586-.56V100.4h-.791q-1.589,0-1.692,1.1l-.007.125a.847.847,0,0,0,.278.652A1.081,1.081,0,0,0,35.112,102.528Zm8.5-.088a1.388,1.388,0,0,0,.952-.322,1.129,1.129,0,0,0,.381-.857h1.985a2.715,2.715,0,0,1-.439,1.476,2.9,2.9,0,0,1-1.183,1.04,3.7,3.7,0,0,1-1.659.37,3.44,3.44,0,0,1-2.681-1.08,4.275,4.275,0,0,1-.981-2.985v-.139a4.226,4.226,0,0,1,.974-2.922,3.4,3.4,0,0,1,2.673-1.091,3.333,3.333,0,0,1,2.384.846,3,3,0,0,1,.912,2.252H44.941a1.455,1.455,0,0,0-.381-1.005,1.416,1.416,0,0,0-2.084.153,3.125,3.125,0,0,0-.377,1.749v.22a3.164,3.164,0,0,0,.374,1.761A1.291,1.291,0,0,0,43.608,102.44Zm7.822,0a1.388,1.388,0,0,0,.952-.322,1.129,1.129,0,0,0,.381-.857h1.985a2.715,2.715,0,0,1-.439,1.476,2.9,2.9,0,0,1-1.183,1.04,3.7,3.7,0,0,1-1.659.37,3.44,3.44,0,0,1-2.681-1.08,4.275,4.275,0,0,1-.981-2.985v-.139a4.226,4.226,0,0,1,.974-2.922,3.4,3.4,0,0,1,2.673-1.091,3.333,3.333,0,0,1,2.384.846,3,3,0,0,1,.912,2.252H52.763a1.455,1.455,0,0,0-.381-1.005,1.416,1.416,0,0,0-2.084.153,3.125,3.125,0,0,0-.377,1.749v.22a3.164,3.164,0,0,0,.374,1.761A1.291,1.291,0,0,0,51.43,102.44ZM58.19,104H56.066V96.075H58.19Zm-2.249-9.976a1.042,1.042,0,0,1,.319-.784,1.373,1.373,0,0,1,1.732,0,1.118,1.118,0,0,1,0,1.575,1.358,1.358,0,0,1-1.721,0A1.039,1.039,0,0,1,55.942,94.024Zm3.662,5.94a4.7,4.7,0,0,1,.454-2.1,3.324,3.324,0,0,1,1.307-1.428,3.814,3.814,0,0,1,1.981-.505,3.609,3.609,0,0,1,2.618.981A3.939,3.939,0,0,1,67.1,99.576l.015.542a4.142,4.142,0,0,1-1.018,2.926,3.946,3.946,0,0,1-5.468,0A4.215,4.215,0,0,1,59.6,100.06Zm2.117.15a2.962,2.962,0,0,0,.425,1.727,1.526,1.526,0,0,0,2.417.007,3.241,3.241,0,0,0,.432-1.889,2.933,2.933,0,0,0-.432-1.716,1.4,1.4,0,0,0-1.216-.609,1.382,1.382,0,0,0-1.2.605A3.3,3.3,0,0,0,61.72,100.115Zm2.043-7.365h2.307l-2.029,2.271H62.321Zm6.6,3.325.066.916a2.767,2.767,0,0,1,2.278-1.062,2.3,2.3,0,0,1,1.875.74,3.451,3.451,0,0,1,.63,2.212V104H73.095V98.92a1.379,1.379,0,0,0-.293-.98,1.31,1.31,0,0,0-.974-.3,1.456,1.456,0,0,0-1.34.763V104H68.371V96.075Zm13.484,6.365a1.388,1.388,0,0,0,.952-.322,1.129,1.129,0,0,0,.381-.857h1.985a2.715,2.715,0,0,1-.439,1.476,2.9,2.9,0,0,1-1.183,1.04,3.7,3.7,0,0,1-1.659.37,3.44,3.44,0,0,1-2.681-1.08,4.275,4.275,0,0,1-.981-2.985v-.139A4.226,4.226,0,0,1,81.2,97.02a3.4,3.4,0,0,1,2.673-1.091,3.333,3.333,0,0,1,2.384.846,3,3,0,0,1,.912,2.252H85.18a1.455,1.455,0,0,0-.381-1.005,1.416,1.416,0,0,0-2.084.153,3.125,3.125,0,0,0-.377,1.749v.22a3.164,3.164,0,0,0,.374,1.761A1.291,1.291,0,0,0,83.847,102.44Zm4.2-2.476a4.7,4.7,0,0,1,.454-2.1,3.324,3.324,0,0,1,1.307-1.428,3.814,3.814,0,0,1,1.981-.505,3.609,3.609,0,0,1,2.618.981,3.939,3.939,0,0,1,1.132,2.666l.015.542a4.142,4.142,0,0,1-1.018,2.926,3.946,3.946,0,0,1-5.468,0,4.215,4.215,0,0,1-1.022-2.988Zm2.117.15a2.962,2.962,0,0,0,.425,1.727,1.526,1.526,0,0,0,2.417.007,3.241,3.241,0,0,0,.432-1.889A2.933,2.933,0,0,0,93,98.244a1.4,1.4,0,0,0-1.216-.609,1.382,1.382,0,0,0-1.2.605A3.3,3.3,0,0,0,90.16,100.115ZM98.8,96.075l.066.916a2.767,2.767,0,0,1,2.278-1.062,2.3,2.3,0,0,1,1.875.74,3.451,3.451,0,0,1,.63,2.212V104h-2.117V98.92a1.379,1.379,0,0,0-.293-.98,1.31,1.31,0,0,0-.974-.3,1.456,1.456,0,0,0-1.34.763V104H96.811V96.075ZM111.225,104H109.1V92.75h2.124Zm1.414-4.036a4.7,4.7,0,0,1,.454-2.1,3.324,3.324,0,0,1,1.307-1.428,3.814,3.814,0,0,1,1.981-.505A3.609,3.609,0,0,1,119,96.91a3.939,3.939,0,0,1,1.132,2.666l.015.542a4.142,4.142,0,0,1-1.018,2.926,3.946,3.946,0,0,1-5.468,0,4.215,4.215,0,0,1-1.022-2.988Zm2.117.15a2.962,2.962,0,0,0,.425,1.727,1.526,1.526,0,0,0,2.417.007,3.241,3.241,0,0,0,.432-1.889,2.933,2.933,0,0,0-.432-1.716,1.4,1.4,0,0,0-1.216-.609,1.382,1.382,0,0,0-1.2.605A3.3,3.3,0,0,0,114.755,100.115Zm10.986,1.7a.682.682,0,0,0-.385-.612,4.368,4.368,0,0,0-1.234-.4q-2.827-.593-2.827-2.4a2.178,2.178,0,0,1,.875-1.761,3.531,3.531,0,0,1,2.289-.707,3.8,3.8,0,0,1,2.413.71,2.239,2.239,0,0,1,.9,1.846h-2.117a1.024,1.024,0,0,0-.293-.751,1.24,1.24,0,0,0-.916-.3,1.267,1.267,0,0,0-.828.242.763.763,0,0,0-.293.615.652.652,0,0,0,.333.568,3.428,3.428,0,0,0,1.124.374,9.183,9.183,0,0,1,1.333.355,2.19,2.19,0,0,1,1.677,2.131,2.067,2.067,0,0,1-.93,1.754,4.013,4.013,0,0,1-2.4.67,4.191,4.191,0,0,1-1.769-.355,2.968,2.968,0,0,1-1.212-.974,2.263,2.263,0,0,1-.439-1.337h2.007a1.105,1.105,0,0,0,.417.864,1.656,1.656,0,0,0,1.04.3,1.533,1.533,0,0,0,.919-.231A.718.718,0,0,0,125.741,101.81Zm-87.55,12.265.066.886a2.785,2.785,0,0,1,2.278-1.033,2.114,2.114,0,0,1,2.1,1.208,2.721,2.721,0,0,1,2.38-1.208,2.364,2.364,0,0,1,1.919.751,3.451,3.451,0,0,1,.63,2.26V122H45.442v-5.065a1.515,1.515,0,0,0-.264-.987,1.167,1.167,0,0,0-.93-.312,1.321,1.321,0,0,0-1.318.91L42.938,122H40.821v-5.058a1.5,1.5,0,0,0-.271-1,1.178,1.178,0,0,0-.923-.308,1.371,1.371,0,0,0-1.3.749V122H36.207v-7.925ZM51.426,122H49.3v-7.925h2.124Zm-2.249-9.976a1.042,1.042,0,0,1,.319-.784,1.373,1.373,0,0,1,1.732,0,1.118,1.118,0,0,1,0,1.575,1.358,1.358,0,0,1-1.721,0A1.039,1.039,0,0,1,49.178,112.024Zm8.284,7.786a.682.682,0,0,0-.385-.612,4.368,4.368,0,0,0-1.234-.4q-2.827-.593-2.827-2.4a2.178,2.178,0,0,1,.875-1.761,3.531,3.531,0,0,1,2.289-.707,3.8,3.8,0,0,1,2.413.71,2.239,2.239,0,0,1,.9,1.846H57.381a1.024,1.024,0,0,0-.293-.751,1.24,1.24,0,0,0-.916-.3,1.267,1.267,0,0,0-.828.242.763.763,0,0,0-.293.615.652.652,0,0,0,.333.568,3.428,3.428,0,0,0,1.124.374,9.183,9.183,0,0,1,1.333.355,2.19,2.19,0,0,1,1.677,2.131,2.067,2.067,0,0,1-.93,1.754,4.013,4.013,0,0,1-2.4.67,4.191,4.191,0,0,1-1.769-.355,2.968,2.968,0,0,1-1.212-.974,2.263,2.263,0,0,1-.439-1.337h2.007a1.105,1.105,0,0,0,.417.864,1.656,1.656,0,0,0,1.04.3,1.533,1.533,0,0,0,.919-.231A.718.718,0,0,0,57.461,119.81Zm5.405-5.735.066.886a2.785,2.785,0,0,1,2.278-1.033,2.114,2.114,0,0,1,2.1,1.208,2.721,2.721,0,0,1,2.38-1.208,2.364,2.364,0,0,1,1.919.751,3.451,3.451,0,0,1,.63,2.26V122H70.118v-5.065a1.515,1.515,0,0,0-.264-.987,1.167,1.167,0,0,0-.93-.312,1.321,1.321,0,0,0-1.318.91L67.613,122H65.5v-5.058a1.5,1.5,0,0,0-.271-1,1.178,1.178,0,0,0-.923-.308,1.371,1.371,0,0,0-1.3.749V122H60.882v-7.925Zm10.671,3.889a4.7,4.7,0,0,1,.454-2.1,3.324,3.324,0,0,1,1.307-1.428,3.814,3.814,0,0,1,1.981-.505,3.609,3.609,0,0,1,2.618.981,3.939,3.939,0,0,1,1.132,2.666l.015.542a4.142,4.142,0,0,1-1.018,2.926,3.946,3.946,0,0,1-5.468,0,4.215,4.215,0,0,1-1.022-2.988Zm2.117.15a2.962,2.962,0,0,0,.425,1.727,1.526,1.526,0,0,0,2.417.007,3.241,3.241,0,0,0,.432-1.889,2.933,2.933,0,0,0-.432-1.716,1.4,1.4,0,0,0-1.216-.609,1.382,1.382,0,0,0-1.2.605A3.3,3.3,0,0,0,75.655,118.115Zm10.986,1.7a.682.682,0,0,0-.385-.612,4.368,4.368,0,0,0-1.234-.4q-2.827-.593-2.827-2.4a2.178,2.178,0,0,1,.875-1.761,3.531,3.531,0,0,1,2.289-.707,3.8,3.8,0,0,1,2.413.71,2.239,2.239,0,0,1,.9,1.846H86.561a1.024,1.024,0,0,0-.293-.751,1.24,1.24,0,0,0-.916-.3,1.267,1.267,0,0,0-.828.242.763.763,0,0,0-.293.615.652.652,0,0,0,.333.568,3.428,3.428,0,0,0,1.124.374,9.183,9.183,0,0,1,1.333.355,2.19,2.19,0,0,1,1.677,2.131,2.067,2.067,0,0,1-.93,1.754,4.013,4.013,0,0,1-2.4.67,4.191,4.191,0,0,1-1.769-.355,2.968,2.968,0,0,1-1.212-.974,2.263,2.263,0,0,1-.439-1.337h2.007a1.105,1.105,0,0,0,.417.864,1.656,1.656,0,0,0,1.04.3,1.533,1.533,0,0,0,.919-.231A.718.718,0,0,0,86.641,119.81Zm3.53,1.15a1.066,1.066,0,0,1,.341-.82,1.323,1.323,0,0,1,1.714,0,1.066,1.066,0,0,1,.341.82,1.051,1.051,0,0,1-.337.809,1.345,1.345,0,0,1-1.721,0A1.051,1.051,0,0,1,90.171,120.96Z" transform="translate(543 664)" fill="#12263f"/>
    <path id="Trazado_199861" data-name="Trazado 199861" d="M12.173,8.91a6.438,6.438,0,0,1-.557,2.761A4.192,4.192,0,0,1,10.023,13.5a4.407,4.407,0,0,1-2.377.645,4.437,4.437,0,0,1-2.366-.637,4.233,4.233,0,0,1-1.611-1.82,6.253,6.253,0,0,1-.579-2.721V8.441a6.4,6.4,0,0,1,.568-2.772,4.226,4.226,0,0,1,1.6-1.838,4.412,4.412,0,0,1,2.369-.641A4.412,4.412,0,0,1,10,3.83a4.226,4.226,0,0,1,1.6,1.838,6.386,6.386,0,0,1,.568,2.765ZM9.946,8.426a4.488,4.488,0,0,0-.6-2.549,1.957,1.957,0,0,0-1.714-.872,1.958,1.958,0,0,0-1.707.861A4.436,4.436,0,0,0,5.317,8.39v.52a4.544,4.544,0,0,0,.6,2.534,1.952,1.952,0,0,0,1.729.9,1.935,1.935,0,0,0,1.7-.868,4.517,4.517,0,0,0,.6-2.531ZM14.209,14V7.628H13.03V6.075h1.179V5.4a2.736,2.736,0,0,1,.765-2.069A2.964,2.964,0,0,1,17.117,2.6a4.989,4.989,0,0,1,1.077.145l-.022,1.627a2.7,2.7,0,0,0-.645-.066q-1.194,0-1.194,1.13v.642h1.575V7.628H16.333V14Zm9.25-5.94A5.751,5.751,0,0,0,22.7,8a1.55,1.55,0,0,0-1.575.813V14H19.006V6.075h2l.059.945A1.961,1.961,0,0,1,22.83,5.929a2.218,2.218,0,0,1,.659.1Zm4.526,6.086a3.89,3.89,0,0,1-2.838-1.069,3.8,3.8,0,0,1-1.095-2.849v-.205a4.787,4.787,0,0,1,.461-2.135,3.386,3.386,0,0,1,1.307-1.45,3.669,3.669,0,0,1,1.93-.509,3.289,3.289,0,0,1,2.56,1.025,4.167,4.167,0,0,1,.934,2.908v.864H26.2a1.966,1.966,0,0,0,.619,1.245,1.871,1.871,0,0,0,1.307.469,2.285,2.285,0,0,0,1.912-.886l1.04,1.165a3.178,3.178,0,0,1-1.289,1.051A4.229,4.229,0,0,1,27.986,14.146Zm-.242-6.511a1.323,1.323,0,0,0-1.022.427,2.209,2.209,0,0,0-.5,1.221h2.944V9.114a1.576,1.576,0,0,0-.381-1.092A1.365,1.365,0,0,0,27.744,7.635Zm7.134,4.658h3.875V14H32.175V12.711L35.9,7.782H32.285V6.075h6.35V7.322Zm8.379.146a1.388,1.388,0,0,0,.952-.322,1.129,1.129,0,0,0,.381-.857h1.985a2.715,2.715,0,0,1-.439,1.476,2.9,2.9,0,0,1-1.183,1.04,3.7,3.7,0,0,1-1.659.37,3.44,3.44,0,0,1-2.681-1.08,4.275,4.275,0,0,1-.981-2.985V9.942a4.226,4.226,0,0,1,.974-2.922,3.4,3.4,0,0,1,2.673-1.091,3.333,3.333,0,0,1,2.384.846,3,3,0,0,1,.912,2.252H44.59a1.455,1.455,0,0,0-.381-1.005,1.416,1.416,0,0,0-2.084.153,3.125,3.125,0,0,0-.377,1.749v.22a3.164,3.164,0,0,0,.374,1.761A1.291,1.291,0,0,0,43.257,12.44ZM52.375,14a2.351,2.351,0,0,1-.212-.71,2.561,2.561,0,0,1-2,.857,2.814,2.814,0,0,1-1.93-.674,2.167,2.167,0,0,1-.765-1.7A2.24,2.24,0,0,1,48.4,9.84a4.608,4.608,0,0,1,2.7-.681h.974V8.7a1.306,1.306,0,0,0-.282-.879,1.109,1.109,0,0,0-.89-.33,1.261,1.261,0,0,0-.839.256.871.871,0,0,0-.3.7H47.644a2.126,2.126,0,0,1,.425-1.274,2.808,2.808,0,0,1,1.2-.919,4.378,4.378,0,0,1,1.743-.333,3.459,3.459,0,0,1,2.325.736A2.575,2.575,0,0,1,54.2,8.734v3.435a3.789,3.789,0,0,0,.315,1.707V14Zm-1.75-1.472a1.823,1.823,0,0,0,.864-.209,1.371,1.371,0,0,0,.586-.56V10.4h-.791q-1.589,0-1.692,1.1l-.007.125a.847.847,0,0,0,.278.652A1.081,1.081,0,0,0,50.625,12.528Zm13.682.667a2.654,2.654,0,0,1-2.168.952,2.5,2.5,0,0,1-1.945-.732,3.127,3.127,0,0,1-.685-2.146V6.075h2.117V11.2q0,1.239,1.128,1.239a1.528,1.528,0,0,0,1.479-.748V6.075h2.124V14H64.365Zm5.6-7.119.066.916a2.767,2.767,0,0,1,2.278-1.062,2.3,2.3,0,0,1,1.875.74,3.451,3.451,0,0,1,.63,2.212V14H72.634V8.92a1.379,1.379,0,0,0-.293-.98,1.31,1.31,0,0,0-.974-.3,1.456,1.456,0,0,0-1.34.763V14H67.91V6.075Zm14.48,5.735A.682.682,0,0,0,84,11.2a4.368,4.368,0,0,0-1.234-.4q-2.827-.593-2.827-2.4a2.178,2.178,0,0,1,.875-1.761A3.531,3.531,0,0,1,83.1,5.929a3.8,3.8,0,0,1,2.413.71,2.239,2.239,0,0,1,.9,1.846H84.3a1.024,1.024,0,0,0-.293-.751,1.24,1.24,0,0,0-.916-.3,1.267,1.267,0,0,0-.828.242.763.763,0,0,0-.293.615.652.652,0,0,0,.333.568,3.428,3.428,0,0,0,1.124.374,9.183,9.183,0,0,1,1.333.355,2.19,2.19,0,0,1,1.677,2.131,2.067,2.067,0,0,1-.93,1.754,4.013,4.013,0,0,1-2.4.67,4.191,4.191,0,0,1-1.769-.355,2.968,2.968,0,0,1-1.212-.974,2.263,2.263,0,0,1-.439-1.337h2.007a1.105,1.105,0,0,0,.417.864,1.656,1.656,0,0,0,1.04.3,1.533,1.533,0,0,0,.919-.231A.718.718,0,0,0,84.382,11.81Zm7.068,2.336a3.89,3.89,0,0,1-2.838-1.069,3.8,3.8,0,0,1-1.095-2.849v-.205a4.787,4.787,0,0,1,.461-2.135,3.386,3.386,0,0,1,1.307-1.45,3.669,3.669,0,0,1,1.93-.509,3.289,3.289,0,0,1,2.56,1.025,4.167,4.167,0,0,1,.934,2.908v.864H89.663a1.966,1.966,0,0,0,.619,1.245,1.871,1.871,0,0,0,1.307.469,2.285,2.285,0,0,0,1.912-.886l1.04,1.165a3.178,3.178,0,0,1-1.289,1.051A4.229,4.229,0,0,1,91.45,14.146Zm-.242-6.511a1.323,1.323,0,0,0-1.022.427,2.209,2.209,0,0,0-.5,1.221h2.944V9.114a1.576,1.576,0,0,0-.381-1.092A1.365,1.365,0,0,0,91.208,7.635Zm9.155.425A5.751,5.751,0,0,0,99.6,8a1.55,1.55,0,0,0-1.575.813V14H95.911V6.075h2l.059.945a1.961,1.961,0,0,1,1.765-1.091,2.218,2.218,0,0,1,.659.1Zm4.116,3.354,1.472-5.339h2.212L105.491,14h-2.021L100.8,6.075h2.212ZM111.328,14H109.2V6.075h2.124ZM109.08,4.024a1.042,1.042,0,0,1,.319-.784,1.373,1.373,0,0,1,1.732,0,1.036,1.036,0,0,1,.322.784,1.039,1.039,0,0,1-.326.791,1.358,1.358,0,0,1-1.721,0A1.039,1.039,0,0,1,109.08,4.024Zm7.288,8.416a1.388,1.388,0,0,0,.952-.322,1.129,1.129,0,0,0,.381-.857h1.985a2.715,2.715,0,0,1-.439,1.476,2.9,2.9,0,0,1-1.183,1.04,3.7,3.7,0,0,1-1.659.37,3.44,3.44,0,0,1-2.681-1.08,4.275,4.275,0,0,1-.981-2.985V9.942a4.226,4.226,0,0,1,.974-2.922,3.4,3.4,0,0,1,2.673-1.091,3.333,3.333,0,0,1,2.384.846,3,3,0,0,1,.912,2.252H117.7a1.455,1.455,0,0,0-.381-1.005,1.416,1.416,0,0,0-2.084.153,3.125,3.125,0,0,0-.377,1.749v.22a3.164,3.164,0,0,0,.374,1.761A1.291,1.291,0,0,0,116.367,12.44Zm6.76,1.56H121V6.075h2.124Zm-2.249-9.976a1.042,1.042,0,0,1,.319-.784,1.373,1.373,0,0,1,1.732,0,1.036,1.036,0,0,1,.322.784,1.039,1.039,0,0,1-.326.791,1.358,1.358,0,0,1-1.721,0A1.039,1.039,0,0,1,120.879,4.024Zm3.662,5.94a4.7,4.7,0,0,1,.454-2.1A3.324,3.324,0,0,1,126.3,6.434a3.814,3.814,0,0,1,1.981-.505,3.609,3.609,0,0,1,2.618.981,3.939,3.939,0,0,1,1.132,2.666l.015.542a4.142,4.142,0,0,1-1.018,2.926,3.946,3.946,0,0,1-5.468,0,4.215,4.215,0,0,1-1.022-2.988Zm2.117.15a2.962,2.962,0,0,0,.425,1.727,1.526,1.526,0,0,0,2.417.007,3.241,3.241,0,0,0,.432-1.889,2.933,2.933,0,0,0-.432-1.716,1.4,1.4,0,0,0-1.216-.609,1.382,1.382,0,0,0-1.2.605A3.3,3.3,0,0,0,126.658,10.115Zm-93.2,23.864a4.776,4.776,0,0,1,.831-2.952,2.7,2.7,0,0,1,2.274-1.1,2.427,2.427,0,0,1,1.912.864V26.75h2.124V38H38.683l-.1-.842a2.491,2.491,0,0,1-2.036.989,2.69,2.69,0,0,1-2.245-1.1A4.93,4.93,0,0,1,33.453,33.979Zm2.117.151a3.146,3.146,0,0,0,.388,1.714,1.263,1.263,0,0,0,1.128.6,1.416,1.416,0,0,0,1.384-.831V32.467a1.4,1.4,0,0,0-1.37-.831Q35.57,31.635,35.57,34.13Zm10.313,4.017a3.89,3.89,0,0,1-2.838-1.069,3.8,3.8,0,0,1-1.095-2.849v-.205a4.787,4.787,0,0,1,.461-2.135,3.386,3.386,0,0,1,1.307-1.45,3.669,3.669,0,0,1,1.93-.509,3.289,3.289,0,0,1,2.56,1.025,4.167,4.167,0,0,1,.934,2.908v.864H44.1a1.966,1.966,0,0,0,.619,1.245,1.871,1.871,0,0,0,1.307.469,2.285,2.285,0,0,0,1.912-.886l1.04,1.165a3.178,3.178,0,0,1-1.289,1.051A4.229,4.229,0,0,1,45.883,38.146Zm-.242-6.511a1.323,1.323,0,0,0-1.022.427,2.209,2.209,0,0,0-.5,1.221h2.944v-.169a1.576,1.576,0,0,0-.381-1.092A1.365,1.365,0,0,0,45.641,31.635Zm11.733,4.8a1.388,1.388,0,0,0,.952-.322,1.129,1.129,0,0,0,.381-.857h1.985a2.715,2.715,0,0,1-.439,1.476,2.9,2.9,0,0,1-1.183,1.04,3.7,3.7,0,0,1-1.659.37,3.44,3.44,0,0,1-2.681-1.08,4.275,4.275,0,0,1-.981-2.985v-.139a4.226,4.226,0,0,1,.974-2.922A3.4,3.4,0,0,1,57.4,29.929a3.333,3.333,0,0,1,2.384.846,3,3,0,0,1,.912,2.252H58.707a1.455,1.455,0,0,0-.381-1.005,1.416,1.416,0,0,0-2.084.153,3.125,3.125,0,0,0-.377,1.749v.22a3.164,3.164,0,0,0,.374,1.761A1.291,1.291,0,0,0,57.374,36.44ZM66.493,38a2.351,2.351,0,0,1-.212-.71,2.561,2.561,0,0,1-2,.857,2.814,2.814,0,0,1-1.93-.674,2.167,2.167,0,0,1-.765-1.7,2.24,2.24,0,0,1,.934-1.934,4.608,4.608,0,0,1,2.7-.681h.974V32.7a1.306,1.306,0,0,0-.282-.879,1.109,1.109,0,0,0-.89-.33,1.261,1.261,0,0,0-.839.256.871.871,0,0,0-.3.7H61.761a2.126,2.126,0,0,1,.425-1.274,2.808,2.808,0,0,1,1.2-.919,4.378,4.378,0,0,1,1.743-.333,3.459,3.459,0,0,1,2.325.736,2.575,2.575,0,0,1,.861,2.069v3.435a3.789,3.789,0,0,0,.315,1.707V38Zm-1.75-1.472a1.823,1.823,0,0,0,.864-.209,1.371,1.371,0,0,0,.586-.56V34.4H65.4q-1.589,0-1.692,1.1l-.007.125a.847.847,0,0,0,.278.652A1.081,1.081,0,0,0,64.742,36.528ZM72.177,38H70.052V26.75h2.124Zm3.977,0H74.03V30.075h2.124Zm-2.249-9.976a1.042,1.042,0,0,1,.319-.784,1.373,1.373,0,0,1,1.732,0,1.118,1.118,0,0,1,0,1.575,1.358,1.358,0,0,1-1.721,0A1.039,1.039,0,0,1,73.905,28.024Zm3.662,5.955a4.776,4.776,0,0,1,.831-2.952,2.7,2.7,0,0,1,2.274-1.1,2.427,2.427,0,0,1,1.912.864V26.75h2.124V38H82.8l-.1-.842a2.491,2.491,0,0,1-2.036.989,2.69,2.69,0,0,1-2.245-1.1A4.93,4.93,0,0,1,77.567,33.979Zm2.117.151a3.146,3.146,0,0,0,.388,1.714,1.263,1.263,0,0,0,1.128.6,1.416,1.416,0,0,0,1.384-.831V32.467a1.4,1.4,0,0,0-1.37-.831Q79.684,31.635,79.684,34.13ZM90.941,38a2.351,2.351,0,0,1-.212-.71,2.561,2.561,0,0,1-2,.857,2.814,2.814,0,0,1-1.93-.674,2.167,2.167,0,0,1-.765-1.7,2.24,2.24,0,0,1,.934-1.934,4.608,4.608,0,0,1,2.7-.681h.974V32.7a1.306,1.306,0,0,0-.282-.879,1.109,1.109,0,0,0-.89-.33,1.261,1.261,0,0,0-.839.256.871.871,0,0,0-.3.7H86.21a2.126,2.126,0,0,1,.425-1.274,2.808,2.808,0,0,1,1.2-.919,4.378,4.378,0,0,1,1.743-.333,3.459,3.459,0,0,1,2.325.736,2.575,2.575,0,0,1,.861,2.069v3.435a3.789,3.789,0,0,0,.315,1.707V38Zm-1.75-1.472a1.823,1.823,0,0,0,.864-.209,1.371,1.371,0,0,0,.586-.56V34.4H89.85q-1.589,0-1.692,1.1l-.007.125a.847.847,0,0,0,.278.652A1.081,1.081,0,0,0,89.191,36.528Zm4.871-2.549a4.776,4.776,0,0,1,.831-2.952,2.7,2.7,0,0,1,2.274-1.1,2.427,2.427,0,0,1,1.912.864V26.75H101.2V38H99.291l-.1-.842a2.491,2.491,0,0,1-2.036.989,2.69,2.69,0,0,1-2.245-1.1A4.93,4.93,0,0,1,94.061,33.979Zm2.117.151a3.146,3.146,0,0,0,.388,1.714,1.263,1.263,0,0,0,1.128.6,1.416,1.416,0,0,0,1.384-.831V32.467a1.4,1.4,0,0,0-1.37-.831Q96.178,31.635,96.178,34.13ZM26.547,60.44a1.388,1.388,0,0,0,.952-.322,1.129,1.129,0,0,0,.381-.857h1.985a2.715,2.715,0,0,1-.439,1.476,2.9,2.9,0,0,1-1.183,1.04,3.7,3.7,0,0,1-1.659.37,3.44,3.44,0,0,1-2.681-1.08,4.275,4.275,0,0,1-.981-2.985v-.139A4.226,4.226,0,0,1,23.9,55.02a3.4,3.4,0,0,1,2.673-1.091,3.333,3.333,0,0,1,2.384.846,3,3,0,0,1,.912,2.252H27.88a1.455,1.455,0,0,0-.381-1.005,1.416,1.416,0,0,0-2.084.153,3.125,3.125,0,0,0-.377,1.749v.22a3.164,3.164,0,0,0,.374,1.761A1.291,1.291,0,0,0,26.547,60.44Zm4.2-2.476a4.7,4.7,0,0,1,.454-2.1A3.324,3.324,0,0,1,32.5,54.434a3.814,3.814,0,0,1,1.981-.505,3.609,3.609,0,0,1,2.618.981,3.939,3.939,0,0,1,1.132,2.666l.015.542a4.142,4.142,0,0,1-1.018,2.926,3.946,3.946,0,0,1-5.468,0,4.215,4.215,0,0,1-1.022-2.988Zm2.117.15a2.962,2.962,0,0,0,.425,1.727,1.526,1.526,0,0,0,2.417.007,3.241,3.241,0,0,0,.432-1.889,2.933,2.933,0,0,0-.432-1.716,1.4,1.4,0,0,0-1.216-.609,1.382,1.382,0,0,0-1.2.605A3.3,3.3,0,0,0,32.86,58.115ZM41.5,54.075l.066.916a2.767,2.767,0,0,1,2.278-1.062,2.3,2.3,0,0,1,1.875.74,3.451,3.451,0,0,1,.63,2.212V62H44.235V56.92a1.379,1.379,0,0,0-.293-.98,1.31,1.31,0,0,0-.974-.3,1.456,1.456,0,0,0-1.34.763V62H39.51V54.075ZM52.247,59.81a.682.682,0,0,0-.385-.612,4.368,4.368,0,0,0-1.234-.4Q47.8,58.206,47.8,56.4a2.178,2.178,0,0,1,.875-1.761,3.531,3.531,0,0,1,2.289-.707,3.8,3.8,0,0,1,2.413.71,2.239,2.239,0,0,1,.9,1.846H52.167a1.024,1.024,0,0,0-.293-.751,1.24,1.24,0,0,0-.916-.3,1.267,1.267,0,0,0-.828.242.763.763,0,0,0-.293.615.652.652,0,0,0,.333.568,3.428,3.428,0,0,0,1.124.374,9.183,9.183,0,0,1,1.333.355,2.19,2.19,0,0,1,1.677,2.131,2.067,2.067,0,0,1-.93,1.754,4.013,4.013,0,0,1-2.4.67,4.191,4.191,0,0,1-1.769-.355,2.968,2.968,0,0,1-1.212-.974,2.263,2.263,0,0,1-.439-1.337h2.007a1.105,1.105,0,0,0,.417.864,1.656,1.656,0,0,0,1.04.3,1.533,1.533,0,0,0,.919-.231A.718.718,0,0,0,52.247,59.81ZM57.9,62H55.778V54.075H57.9Zm-2.249-9.976a1.042,1.042,0,0,1,.319-.784,1.373,1.373,0,0,1,1.732,0,1.118,1.118,0,0,1,0,1.575,1.358,1.358,0,0,1-1.721,0A1.039,1.039,0,0,1,55.653,52.024Zm8.284,7.786a.682.682,0,0,0-.385-.612,4.368,4.368,0,0,0-1.234-.4q-2.827-.593-2.827-2.4a2.178,2.178,0,0,1,.875-1.761,3.531,3.531,0,0,1,2.289-.707,3.8,3.8,0,0,1,2.413.71,2.239,2.239,0,0,1,.9,1.846H63.856a1.024,1.024,0,0,0-.293-.751,1.24,1.24,0,0,0-.916-.3,1.267,1.267,0,0,0-.828.242.763.763,0,0,0-.293.615.652.652,0,0,0,.333.568,3.428,3.428,0,0,0,1.124.374,9.183,9.183,0,0,1,1.333.355,2.19,2.19,0,0,1,1.677,2.131,2.067,2.067,0,0,1-.93,1.754,4.013,4.013,0,0,1-2.4.67,4.191,4.191,0,0,1-1.769-.355,2.968,2.968,0,0,1-1.212-.974,2.263,2.263,0,0,1-.439-1.337h2.007a1.105,1.105,0,0,0,.417.864,1.656,1.656,0,0,0,1.04.3,1.533,1.533,0,0,0,.919-.231A.718.718,0,0,0,63.937,59.81Zm5.955-7.683v1.948h1.355v1.553H69.891v3.955a.944.944,0,0,0,.168.63.846.846,0,0,0,.645.19,3.376,3.376,0,0,0,.623-.051v1.6a4.358,4.358,0,0,1-1.282.19A2.021,2.021,0,0,1,67.775,59.9v-4.27H66.617V54.075h1.157V52.127Zm6.182,10.02a3.89,3.89,0,0,1-2.838-1.069,3.8,3.8,0,0,1-1.095-2.849v-.205a4.787,4.787,0,0,1,.461-2.135,3.386,3.386,0,0,1,1.307-1.45,3.669,3.669,0,0,1,1.93-.509,3.289,3.289,0,0,1,2.56,1.025,4.167,4.167,0,0,1,.934,2.908v.864H74.286a1.966,1.966,0,0,0,.619,1.245,1.871,1.871,0,0,0,1.307.469,2.285,2.285,0,0,0,1.912-.886l1.04,1.165a3.178,3.178,0,0,1-1.289,1.051A4.229,4.229,0,0,1,76.073,62.146Zm-.242-6.511a1.323,1.323,0,0,0-1.022.427,2.209,2.209,0,0,0-.5,1.221h2.944v-.169a1.576,1.576,0,0,0-.381-1.092A1.365,1.365,0,0,0,75.831,55.635Zm6.65-1.56.066.916a2.767,2.767,0,0,1,2.278-1.062,2.3,2.3,0,0,1,1.875.74,3.451,3.451,0,0,1,.63,2.212V62H85.214V56.92a1.379,1.379,0,0,0-.293-.98,1.31,1.31,0,0,0-.974-.3,1.456,1.456,0,0,0-1.34.763V62H80.49V54.075Zm8.987-1.948v1.948h1.355v1.553H91.469v3.955a.944.944,0,0,0,.168.63.846.846,0,0,0,.645.19,3.376,3.376,0,0,0,.623-.051v1.6a4.358,4.358,0,0,1-1.282.19A2.021,2.021,0,0,1,89.352,59.9v-4.27H88.195V54.075h1.157V52.127Zm6.182,10.02a3.89,3.89,0,0,1-2.838-1.069,3.8,3.8,0,0,1-1.095-2.849v-.205a4.787,4.787,0,0,1,.461-2.135,3.386,3.386,0,0,1,1.307-1.45,3.669,3.669,0,0,1,1.93-.509,3.289,3.289,0,0,1,2.56,1.025,4.167,4.167,0,0,1,.934,2.908v.864H95.863a1.966,1.966,0,0,0,.619,1.245,1.871,1.871,0,0,0,1.307.469,2.285,2.285,0,0,0,1.912-.886l1.04,1.165a3.178,3.178,0,0,1-1.289,1.051A4.229,4.229,0,0,1,97.65,62.146Zm-.242-6.511a1.323,1.323,0,0,0-1.022.427,2.209,2.209,0,0,0-.5,1.221h2.944v-.169a1.576,1.576,0,0,0-.381-1.092A1.365,1.365,0,0,0,97.408,55.635ZM108.8,59l1.465-4.929h2.271l-3.186,9.155-.176.417a2.416,2.416,0,0,1-2.344,1.553,3.33,3.33,0,0,1-.937-.139v-1.6l.322.007a1.741,1.741,0,0,0,.9-.183,1.2,1.2,0,0,0,.465-.608l.249-.652-2.776-7.947h2.278ZM30.6,78.939a2.642,2.642,0,0,1,2.117-1.011q2.578,0,2.615,3V86H33.212V80.971a1.478,1.478,0,0,0-.293-1.009,1.254,1.254,0,0,0-.974-.327,1.44,1.44,0,0,0-1.348.719V86H28.48V74.75H30.6Zm6,3.025a4.7,4.7,0,0,1,.454-2.1,3.324,3.324,0,0,1,1.307-1.428,3.814,3.814,0,0,1,1.981-.505,3.609,3.609,0,0,1,2.618.981,3.939,3.939,0,0,1,1.132,2.666l.015.542a4.142,4.142,0,0,1-1.018,2.926,3.946,3.946,0,0,1-5.468,0A4.215,4.215,0,0,1,36.6,82.06Zm2.117.15a2.962,2.962,0,0,0,.425,1.727,1.526,1.526,0,0,0,2.417.007,3.241,3.241,0,0,0,.432-1.889,2.933,2.933,0,0,0-.432-1.716,1.4,1.4,0,0,0-1.216-.609,1.382,1.382,0,0,0-1.2.605A3.3,3.3,0,0,0,38.712,82.115Zm8.679-4.039.066.886a2.785,2.785,0,0,1,2.278-1.033,2.114,2.114,0,0,1,2.1,1.208,2.721,2.721,0,0,1,2.38-1.208,2.364,2.364,0,0,1,1.919.751,3.451,3.451,0,0,1,.63,2.26V86H54.642V80.935a1.515,1.515,0,0,0-.264-.987,1.167,1.167,0,0,0-.93-.312,1.321,1.321,0,0,0-1.318.91L52.137,86H50.021V80.942a1.5,1.5,0,0,0-.271-1,1.178,1.178,0,0,0-.923-.308,1.371,1.371,0,0,0-1.3.749V86H45.406V78.075Zm10.671,3.889a4.7,4.7,0,0,1,.454-2.1,3.324,3.324,0,0,1,1.307-1.428,3.814,3.814,0,0,1,1.981-.505,3.609,3.609,0,0,1,2.618.981,3.939,3.939,0,0,1,1.132,2.666l.015.542a4.142,4.142,0,0,1-1.018,2.926,3.946,3.946,0,0,1-5.468,0,4.215,4.215,0,0,1-1.022-2.988Zm2.117.15a2.962,2.962,0,0,0,.425,1.727,1.526,1.526,0,0,0,2.417.007,3.241,3.241,0,0,0,.432-1.889,2.933,2.933,0,0,0-.432-1.716,1.4,1.4,0,0,0-1.216-.609,1.382,1.382,0,0,0-1.2.605A3.3,3.3,0,0,0,60.179,82.115Zm6.387-.136a4.644,4.644,0,0,1,.868-2.937,2.812,2.812,0,0,1,2.34-1.113,2.466,2.466,0,0,1,2.029.894l.088-.747H73.81v7.661a3.387,3.387,0,0,1-.472,1.809,3.034,3.034,0,0,1-1.329,1.172,4.673,4.673,0,0,1-2.007.4,4.346,4.346,0,0,1-1.7-.348,3.016,3.016,0,0,1-1.252-.9l.938-1.289a2.48,2.48,0,0,0,1.919.886,1.815,1.815,0,0,0,1.311-.45,1.69,1.69,0,0,0,.469-1.278v-.425a2.448,2.448,0,0,1-1.926.828,2.8,2.8,0,0,1-2.311-1.117,4.643,4.643,0,0,1-.883-2.963Zm2.117.151a2.907,2.907,0,0,0,.432,1.7,1.373,1.373,0,0,0,1.187.614,1.469,1.469,0,0,0,1.384-.728V80.364a1.465,1.465,0,0,0-1.37-.728,1.382,1.382,0,0,0-1.2.625A3.278,3.278,0,0,0,68.683,82.13Zm10.4,4.017a3.89,3.89,0,0,1-2.838-1.069,3.8,3.8,0,0,1-1.095-2.849v-.205a4.787,4.787,0,0,1,.461-2.135,3.386,3.386,0,0,1,1.307-1.45,3.669,3.669,0,0,1,1.93-.509,3.289,3.289,0,0,1,2.56,1.025,4.167,4.167,0,0,1,.934,2.908v.864H77.3a1.966,1.966,0,0,0,.619,1.245,1.871,1.871,0,0,0,1.307.469,2.285,2.285,0,0,0,1.912-.886l1.04,1.165a3.178,3.178,0,0,1-1.289,1.051A4.229,4.229,0,0,1,79.083,86.146Zm-.242-6.511a1.323,1.323,0,0,0-1.022.427,2.209,2.209,0,0,0-.5,1.221h2.944v-.169a1.576,1.576,0,0,0-.381-1.092A1.365,1.365,0,0,0,78.842,79.635Zm.19-4.885h2.307L79.31,77.021H77.589Zm6.46,3.325.066.916a2.767,2.767,0,0,1,2.278-1.062,2.3,2.3,0,0,1,1.875.74,3.451,3.451,0,0,1,.63,2.212V86H88.224V80.92a1.379,1.379,0,0,0-.293-.98,1.31,1.31,0,0,0-.974-.3,1.456,1.456,0,0,0-1.34.763V86H83.5V78.075Zm10.1,8.071a3.89,3.89,0,0,1-2.838-1.069,3.8,3.8,0,0,1-1.095-2.849v-.205a4.787,4.787,0,0,1,.461-2.135,3.386,3.386,0,0,1,1.307-1.45,3.669,3.669,0,0,1,1.93-.509,3.289,3.289,0,0,1,2.56,1.025,4.167,4.167,0,0,1,.934,2.908v.864H93.8a1.966,1.966,0,0,0,.619,1.245,1.871,1.871,0,0,0,1.307.469,2.285,2.285,0,0,0,1.912-.886l1.04,1.165a3.178,3.178,0,0,1-1.289,1.051A4.229,4.229,0,0,1,95.592,86.146Zm-.242-6.511a1.323,1.323,0,0,0-1.022.427,2.209,2.209,0,0,0-.5,1.221h2.944v-.169a1.576,1.576,0,0,0-.381-1.092A1.365,1.365,0,0,0,95.35,79.635ZM104.645,86a2.351,2.351,0,0,1-.212-.71,2.561,2.561,0,0,1-2,.857,2.814,2.814,0,0,1-1.93-.674,2.167,2.167,0,0,1-.765-1.7,2.24,2.24,0,0,1,.934-1.934,4.608,4.608,0,0,1,2.7-.681h.974V80.7a1.306,1.306,0,0,0-.282-.879,1.109,1.109,0,0,0-.89-.33,1.261,1.261,0,0,0-.839.256.871.871,0,0,0-.3.7H99.913a2.126,2.126,0,0,1,.425-1.274,2.808,2.808,0,0,1,1.2-.919,4.378,4.378,0,0,1,1.743-.333,3.459,3.459,0,0,1,2.325.736,2.575,2.575,0,0,1,.861,2.069v3.435a3.789,3.789,0,0,0,.315,1.707V86Zm-1.75-1.472a1.823,1.823,0,0,0,.864-.209,1.371,1.371,0,0,0,.586-.56V82.4h-.791q-1.589,0-1.692,1.1l-.007.125a.847.847,0,0,0,.278.652A1.081,1.081,0,0,0,102.894,84.528Z" transform="translate(368 664)" fill="#12263f"/>
    <path id="Trazado_199863" data-name="Trazado 199863" d="M13.243,11.2a1.128,1.128,0,0,0-.439-.956,5.764,5.764,0,0,0-1.582-.7,11.215,11.215,0,0,1-1.809-.729A2.956,2.956,0,0,1,7.6,6.17a2.575,2.575,0,0,1,.487-1.542,3.177,3.177,0,0,1,1.4-1.058,5.265,5.265,0,0,1,2.047-.381,4.793,4.793,0,0,1,2.036.414,3.242,3.242,0,0,1,1.388,1.168,3.057,3.057,0,0,1,.494,1.714h-2.2a1.438,1.438,0,0,0-.461-1.139,1.9,1.9,0,0,0-1.3-.406,2.026,2.026,0,0,0-1.252.341,1.074,1.074,0,0,0-.447.9,1.029,1.029,0,0,0,.524.872,5.916,5.916,0,0,0,1.542.659,6.661,6.661,0,0,1,2.732,1.4,2.786,2.786,0,0,1,.857,2.08A2.566,2.566,0,0,1,14.4,13.359a4.585,4.585,0,0,1-2.82.787,5.445,5.445,0,0,1-2.241-.45A3.546,3.546,0,0,1,7.8,12.462a3.161,3.161,0,0,1-.531-1.816h2.2q0,1.765,2.109,1.765a2.052,2.052,0,0,0,1.223-.319A1.037,1.037,0,0,0,13.243,11.2ZM19.029,14H16.9V6.075h2.124ZM16.78,4.024a1.042,1.042,0,0,1,.319-.784,1.373,1.373,0,0,1,1.732,0,1.036,1.036,0,0,1,.322.784,1.039,1.039,0,0,1-.326.791,1.358,1.358,0,0,1-1.721,0A1.039,1.039,0,0,1,16.78,4.024ZM25.225,8.06A5.751,5.751,0,0,0,24.463,8a1.55,1.55,0,0,0-1.575.813V14H20.772V6.075h2l.059.945A1.961,1.961,0,0,1,24.6,5.929a2.218,2.218,0,0,1,.659.1Zm4.116,3.354,1.472-5.339h2.212L30.352,14H28.331L25.657,6.075h2.212ZM38.438,14a2.351,2.351,0,0,1-.212-.71,2.561,2.561,0,0,1-2,.857,2.814,2.814,0,0,1-1.93-.674,2.167,2.167,0,0,1-.765-1.7,2.24,2.24,0,0,1,.934-1.934,4.608,4.608,0,0,1,2.7-.681h.974V8.7a1.306,1.306,0,0,0-.282-.879,1.109,1.109,0,0,0-.89-.33,1.261,1.261,0,0,0-.839.256.871.871,0,0,0-.3.7H33.707a2.126,2.126,0,0,1,.425-1.274,2.808,2.808,0,0,1,1.2-.919,4.378,4.378,0,0,1,1.743-.333,3.459,3.459,0,0,1,2.325.736,2.575,2.575,0,0,1,.861,2.069v3.435a3.789,3.789,0,0,0,.315,1.707V14Zm-1.75-1.472a1.823,1.823,0,0,0,.864-.209,1.371,1.371,0,0,0,.586-.56V10.4h-.791q-1.589,0-1.692,1.1l-.007.125a.847.847,0,0,0,.278.652A1.081,1.081,0,0,0,36.688,12.528Zm8.606-2.549a4.776,4.776,0,0,1,.831-2.952,2.7,2.7,0,0,1,2.274-1.1,2.427,2.427,0,0,1,1.912.864V2.75h2.124V14H50.523l-.1-.842a2.491,2.491,0,0,1-2.036.989,2.69,2.69,0,0,1-2.245-1.1A4.93,4.93,0,0,1,45.293,9.979Zm2.117.151a3.146,3.146,0,0,0,.388,1.714,1.263,1.263,0,0,0,1.128.6,1.416,1.416,0,0,0,1.384-.831V8.467a1.4,1.4,0,0,0-1.37-.831Q47.41,7.635,47.41,10.13Zm10.313,4.017a3.89,3.89,0,0,1-2.838-1.069,3.8,3.8,0,0,1-1.095-2.849v-.205a4.787,4.787,0,0,1,.461-2.135,3.386,3.386,0,0,1,1.307-1.45,3.669,3.669,0,0,1,1.93-.509,3.289,3.289,0,0,1,2.56,1.025,4.167,4.167,0,0,1,.934,2.908v.864H55.936a1.966,1.966,0,0,0,.619,1.245,1.871,1.871,0,0,0,1.307.469,2.285,2.285,0,0,0,1.912-.886l1.04,1.165a3.178,3.178,0,0,1-1.289,1.051A4.229,4.229,0,0,1,57.723,14.146Zm-.242-6.511a1.323,1.323,0,0,0-1.022.427,2.209,2.209,0,0,0-.5,1.221H58.9V9.114a1.576,1.576,0,0,0-.381-1.092A1.365,1.365,0,0,0,57.481,7.635ZM70.21,11.81a.682.682,0,0,0-.385-.612,4.368,4.368,0,0,0-1.234-.4q-2.827-.593-2.827-2.4a2.178,2.178,0,0,1,.875-1.761,3.531,3.531,0,0,1,2.289-.707,3.8,3.8,0,0,1,2.413.71,2.239,2.239,0,0,1,.9,1.846H70.13a1.024,1.024,0,0,0-.293-.751,1.24,1.24,0,0,0-.916-.3,1.267,1.267,0,0,0-.828.242.763.763,0,0,0-.293.615.652.652,0,0,0,.333.568,3.428,3.428,0,0,0,1.124.374,9.183,9.183,0,0,1,1.333.355,2.19,2.19,0,0,1,1.677,2.131,2.067,2.067,0,0,1-.93,1.754,4.013,4.013,0,0,1-2.4.67,4.191,4.191,0,0,1-1.769-.355,2.968,2.968,0,0,1-1.212-.974,2.263,2.263,0,0,1-.439-1.337h2.007a1.105,1.105,0,0,0,.417.864,1.656,1.656,0,0,0,1.04.3,1.533,1.533,0,0,0,.919-.231A.718.718,0,0,0,70.21,11.81ZM73.3,9.964a4.7,4.7,0,0,1,.454-2.1,3.324,3.324,0,0,1,1.307-1.428,3.814,3.814,0,0,1,1.981-.505,3.609,3.609,0,0,1,2.618.981,3.939,3.939,0,0,1,1.132,2.666l.015.542a4.142,4.142,0,0,1-1.018,2.926,3.946,3.946,0,0,1-5.468,0A4.215,4.215,0,0,1,73.3,10.06Zm2.117.15a2.962,2.962,0,0,0,.425,1.727,1.526,1.526,0,0,0,2.417.007,3.241,3.241,0,0,0,.432-1.889,2.933,2.933,0,0,0-.432-1.716,1.4,1.4,0,0,0-1.216-.609,1.382,1.382,0,0,0-1.2.605A3.3,3.3,0,0,0,75.418,10.115Zm13.828,0a4.753,4.753,0,0,1-.831,2.933,2.665,2.665,0,0,1-2.245,1.1,2.469,2.469,0,0,1-1.941-.835v3.735H82.112V6.075h1.963l.073.776a2.488,2.488,0,0,1,2.007-.923,2.683,2.683,0,0,1,2.278,1.084A4.882,4.882,0,0,1,89.246,10Zm-2.117-.161a3.136,3.136,0,0,0-.392-1.712,1.275,1.275,0,0,0-1.139-.6,1.385,1.385,0,0,0-1.37.764v3.255a1.409,1.409,0,0,0,1.384.786Q87.129,12.44,87.129,9.949Zm3.1.015a4.7,4.7,0,0,1,.454-2.1,3.324,3.324,0,0,1,1.307-1.428,3.814,3.814,0,0,1,1.981-.505,3.609,3.609,0,0,1,2.618.981A3.939,3.939,0,0,1,97.72,9.576l.015.542a4.142,4.142,0,0,1-1.018,2.926,3.946,3.946,0,0,1-5.468,0,4.215,4.215,0,0,1-1.022-2.988Zm2.117.15a2.962,2.962,0,0,0,.425,1.727,1.526,1.526,0,0,0,2.417.007,3.241,3.241,0,0,0,.432-1.889,2.933,2.933,0,0,0-.432-1.716,1.4,1.4,0,0,0-1.216-.609,1.382,1.382,0,0,0-1.2.605A3.3,3.3,0,0,0,92.344,10.115ZM103.492,8.06A5.751,5.751,0,0,0,102.73,8a1.55,1.55,0,0,0-1.575.813V14H99.039V6.075h2l.059.945a1.961,1.961,0,0,1,1.765-1.091,2.218,2.218,0,0,1,.659.1Zm3.918-3.933V6.075h1.355V7.628H107.41v3.955a.944.944,0,0,0,.168.63.846.846,0,0,0,.645.19,3.376,3.376,0,0,0,.623-.051v1.6a4.358,4.358,0,0,1-1.282.19,2.021,2.021,0,0,1-2.271-2.249V7.628h-1.157V6.075h1.157V4.127Zm6.182,10.02a3.89,3.89,0,0,1-2.838-1.069,3.8,3.8,0,0,1-1.095-2.849v-.205a4.787,4.787,0,0,1,.461-2.135,3.386,3.386,0,0,1,1.307-1.45,3.669,3.669,0,0,1,1.93-.509,3.289,3.289,0,0,1,2.56,1.025,4.167,4.167,0,0,1,.934,2.908v.864H111.8a1.966,1.966,0,0,0,.619,1.245,1.871,1.871,0,0,0,1.307.469,2.285,2.285,0,0,0,1.912-.886l1.04,1.165a3.178,3.178,0,0,1-1.289,1.051A4.229,4.229,0,0,1,113.592,14.146Zm-.242-6.511a1.323,1.323,0,0,0-1.022.427,2.209,2.209,0,0,0-.5,1.221h2.944V9.114a1.576,1.576,0,0,0-.381-1.092A1.365,1.365,0,0,0,113.35,7.635ZM32.612,32a2.351,2.351,0,0,1-.212-.71,2.561,2.561,0,0,1-2,.857,2.814,2.814,0,0,1-1.93-.674,2.167,2.167,0,0,1-.765-1.7,2.24,2.24,0,0,1,.934-1.934,4.608,4.608,0,0,1,2.7-.681h.974V26.7a1.306,1.306,0,0,0-.282-.879,1.109,1.109,0,0,0-.89-.33,1.261,1.261,0,0,0-.839.256.871.871,0,0,0-.3.7H27.88a2.126,2.126,0,0,1,.425-1.274,2.808,2.808,0,0,1,1.2-.919,4.378,4.378,0,0,1,1.743-.333,3.459,3.459,0,0,1,2.325.736,2.575,2.575,0,0,1,.861,2.069v3.435a3.789,3.789,0,0,0,.315,1.707V32Zm-1.75-1.472a1.823,1.823,0,0,0,.864-.209,1.371,1.371,0,0,0,.586-.56V28.4H31.52q-1.589,0-1.692,1.1l-.007.125a.847.847,0,0,0,.278.652A1.081,1.081,0,0,0,30.861,30.528ZM38.3,32H36.171V20.75H38.3Zm7.427-7.925.066.916a2.767,2.767,0,0,1,2.278-1.062,2.3,2.3,0,0,1,1.875.74,3.451,3.451,0,0,1,.63,2.212V32H48.454V26.92a1.379,1.379,0,0,0-.293-.98,1.31,1.31,0,0,0-.974-.3,1.456,1.456,0,0,0-1.34.763V32H43.73V24.075Zm10.1,8.071a3.89,3.89,0,0,1-2.838-1.069,3.8,3.8,0,0,1-1.095-2.849v-.205a4.787,4.787,0,0,1,.461-2.135,3.386,3.386,0,0,1,1.307-1.45,3.669,3.669,0,0,1,1.93-.509,3.289,3.289,0,0,1,2.56,1.025,4.167,4.167,0,0,1,.934,2.908v.864H54.035a1.966,1.966,0,0,0,.619,1.245,1.871,1.871,0,0,0,1.307.469,2.285,2.285,0,0,0,1.912-.886l1.04,1.165a3.178,3.178,0,0,1-1.289,1.051A4.229,4.229,0,0,1,55.822,32.146Zm-.242-6.511a1.323,1.323,0,0,0-1.022.427,2.209,2.209,0,0,0-.5,1.221H57v-.169a1.576,1.576,0,0,0-.381-1.092A1.365,1.365,0,0,0,55.58,25.635Zm4.395,2.344a4.644,4.644,0,0,1,.868-2.937,2.812,2.812,0,0,1,2.34-1.113,2.466,2.466,0,0,1,2.029.894l.088-.747h1.919v7.661a3.387,3.387,0,0,1-.472,1.809,3.034,3.034,0,0,1-1.329,1.172,4.673,4.673,0,0,1-2.007.4,4.346,4.346,0,0,1-1.7-.348,3.016,3.016,0,0,1-1.252-.9l.938-1.289a2.48,2.48,0,0,0,1.919.886,1.815,1.815,0,0,0,1.311-.45,1.69,1.69,0,0,0,.469-1.278v-.425a2.448,2.448,0,0,1-1.926.828,2.8,2.8,0,0,1-2.311-1.117,4.643,4.643,0,0,1-.883-2.963Zm2.117.151a2.907,2.907,0,0,0,.432,1.7,1.373,1.373,0,0,0,1.187.614,1.469,1.469,0,0,0,1.384-.728V26.364a1.465,1.465,0,0,0-1.37-.728,1.382,1.382,0,0,0-1.2.625A3.278,3.278,0,0,0,62.092,28.13Zm6.423-.165a4.7,4.7,0,0,1,.454-2.1,3.324,3.324,0,0,1,1.307-1.428,3.814,3.814,0,0,1,1.981-.505,3.609,3.609,0,0,1,2.618.981,3.939,3.939,0,0,1,1.132,2.666l.015.542A4.142,4.142,0,0,1,75,31.044a3.946,3.946,0,0,1-5.468,0,4.215,4.215,0,0,1-1.022-2.988Zm2.117.15a2.962,2.962,0,0,0,.425,1.727,1.526,1.526,0,0,0,2.417.007,3.241,3.241,0,0,0,.432-1.889,2.933,2.933,0,0,0-.432-1.716,1.4,1.4,0,0,0-1.216-.609,1.382,1.382,0,0,0-1.2.605A3.3,3.3,0,0,0,70.632,28.115Zm9.99,2.325a1.388,1.388,0,0,0,.952-.322,1.129,1.129,0,0,0,.381-.857H83.94a2.715,2.715,0,0,1-.439,1.476,2.9,2.9,0,0,1-1.183,1.04,3.7,3.7,0,0,1-1.659.37,3.44,3.44,0,0,1-2.681-1.08A4.275,4.275,0,0,1,77,28.082v-.139a4.226,4.226,0,0,1,.974-2.922,3.4,3.4,0,0,1,2.673-1.091,3.333,3.333,0,0,1,2.384.846,3,3,0,0,1,.912,2.252H81.955a1.455,1.455,0,0,0-.381-1.005,1.416,1.416,0,0,0-2.084.153,3.125,3.125,0,0,0-.377,1.749v.22a3.164,3.164,0,0,0,.374,1.761A1.291,1.291,0,0,0,80.622,30.44ZM87.382,32H85.258V24.075h2.124Zm-2.249-9.976a1.042,1.042,0,0,1,.319-.784,1.373,1.373,0,0,1,1.732,0,1.118,1.118,0,0,1,0,1.575,1.358,1.358,0,0,1-1.721,0A1.039,1.039,0,0,1,85.134,22.024Zm3.662,5.94a4.7,4.7,0,0,1,.454-2.1,3.324,3.324,0,0,1,1.307-1.428,3.814,3.814,0,0,1,1.981-.505,3.609,3.609,0,0,1,2.618.981,3.939,3.939,0,0,1,1.132,2.666l.015.542a4.142,4.142,0,0,1-1.018,2.926,3.946,3.946,0,0,1-5.468,0A4.215,4.215,0,0,1,88.8,28.06Zm2.117.15a2.962,2.962,0,0,0,.425,1.727,1.526,1.526,0,0,0,2.417.007,3.241,3.241,0,0,0,.432-1.889,2.933,2.933,0,0,0-.432-1.716,1.4,1.4,0,0,0-1.216-.609,1.382,1.382,0,0,0-1.2.605A3.3,3.3,0,0,0,90.912,28.115Z" transform="translate(722 666)" fill="#12263f"/>
    <g id="Grupo_142439" data-name="Grupo 142439" transform="translate(404.734 594.499)">
      <circle id="Elipse_4868" data-name="Elipse 4868" cx="30.5" cy="30.5" r="30.5" transform="translate(0.266 -0.499)" fill="#2ec49f"/>
      <g id="T86jn9" transform="translate(-1297.531 4286.504)">
        <g id="Grupo_155829" data-name="Grupo 155829" transform="translate(1307.89 -4277.91)">
          <path id="Trazado_196233" data-name="Trazado 196233" d="M1374.8-4203.611a7.442,7.442,0,0,1,7.586-7.417,7.444,7.444,0,0,1,7.373,7.534,7.462,7.462,0,0,1-7.487,7.425A7.457,7.457,0,0,1,1374.8-4203.611Zm2.83,3.98c.7-1.005,1.371-1.941,2-2.908a1.1,1.1,0,0,0,.094-.765,2.776,2.776,0,0,1,1.045-3.171,2.649,2.649,0,0,1,3.083.047,2.726,2.726,0,0,1,1,3.1,1.02,1.02,0,0,0,.013.7c.665,1.012,1.375,2,2.065,2.981a5.975,5.975,0,0,0-.214-8.172,6.149,6.149,0,0,0-8.633-.223A6.022,6.022,0,0,0,1377.635-4199.631Zm4.654,2.454c1.029-.382,2-.7,2.919-1.122a.94.94,0,0,0,.257-.887,28.317,28.317,0,0,0-1.967-2.851c-.372-.472-.529-.839-.143-1.363a1.178,1.178,0,0,0-.248-1.853,1.931,1.931,0,0,0-1.649,0,1.177,1.177,0,0,0-.24,1.853c.388.524.219.894-.152,1.364a28.363,28.363,0,0,0-1.964,2.852.941.941,0,0,0,.266.884C1380.287-4197.87,1381.259-4197.558,1382.288-4197.177Z" transform="translate(-1361.821 4224.006)" fill="#fff"/>
          <path id="Trazado_196234" data-name="Trazado 196234" d="M1448.986-4262.913a5.112,5.112,0,0,1-1.429-.177,5.8,5.8,0,0,0-3.951.022c-1.189.309-1.487.03-1.281-1.174a6.674,6.674,0,0,0-.323-3.735,7.362,7.362,0,0,1,5.153-9.693,7.465,7.465,0,0,1,9.214,5.9A7.467,7.467,0,0,1,1448.986-4262.913Zm-5.249-1.593a7.421,7.421,0,0,1,3.642-.049,5.909,5.909,0,0,0,7.061-2.98,6.129,6.129,0,0,0-1.52-7.629,6.121,6.121,0,0,0-7.624-.135,6.037,6.037,0,0,0-1.787,7.554,3.277,3.277,0,0,1,.324,2.4A7.844,7.844,0,0,0,1443.737-4264.506Z" transform="translate(-1415.591 4277.91)" fill="#fff"/>
          <path id="Trazado_196235" data-name="Trazado 196235" d="M1443.566-4141.746l-1.653-1.316,1.129-.936,1.483,1.417a7.592,7.592,0,0,1,6.828-1.426,7.155,7.155,0,0,1,4.163,2.98,7.482,7.482,0,0,1-1.071,9.708,7.473,7.473,0,0,1-9.839.334C1441.468-4133.488,1441.066-4137.285,1443.566-4141.746Zm11.914,5a6.166,6.166,0,0,0-6.12-6.207,6.171,6.171,0,0,0-6.181,6.147,6.169,6.169,0,0,0,6.075,6.155A6.164,6.164,0,0,0,1455.48-4136.742Z" transform="translate(-1415.907 4170.216)" fill="#fff"/>
          <path id="Trazado_196236" data-name="Trazado 196236" d="M1320.328-4142.418l1.3-1.607,1.136,1.081-1.724,1.252a7.807,7.807,0,0,1,1.507,7.2,7.2,7.2,0,0,1-3.156,4.146,7.494,7.494,0,0,1-9.6-1.354,7.479,7.479,0,0,1-.174-9.77C1311.624-4143.916,1315.932-4145.541,1320.328-4142.418Zm-4.977,11.89a6.169,6.169,0,0,0,6.194-6.133,6.188,6.188,0,0,0-6.161-6.178,6.2,6.2,0,0,0-6.141,6.1A6.163,6.163,0,0,0,1315.351-4130.528Z" transform="translate(-1307.89 4170.096)" fill="#fff"/>
          <path id="Trazado_196237" data-name="Trazado 196237" d="M1321.215-4265.392l1.682,1.255-1.126.986-1.5-1.439a7.6,7.6,0,0,1-6.74,1.445,7.179,7.179,0,0,1-4.2-2.925,7.5,7.5,0,0,1,.949-9.718,7.482,7.482,0,0,1,9.754-.509C1323.282-4273.8,1323.731-4270.04,1321.215-4265.392Zm-11.91-5.056a6.17,6.17,0,0,0,6.105,6.223,6.168,6.168,0,0,0,6.194-6.133,6.167,6.167,0,0,0-6.156-6.169A6.165,6.165,0,0,0,1309.306-4270.447Z" transform="translate(-1307.954 4277.873)" fill="#fff"/>
          <path id="Trazado_196238" data-name="Trazado 196238" d="M1336.39-4189.886h1.189v1.27h-1.189Z" transform="translate(-1330.86 4206.967)" fill="#fff"/>
          <path id="Trazado_196239" data-name="Trazado 196239" d="M1336.306-4175.88h1.2v1.269h-1.2Z" transform="translate(-1330.792 4195.678)" fill="#fff"/>
          <path id="Trazado_196240" data-name="Trazado 196240" d="M1336.249-4160.472v-1.24h1.221v1.24Z" transform="translate(-1330.746 4184.26)" fill="#fff"/>
          <path id="Trazado_196241" data-name="Trazado 196241" d="M1411.391-4089.968h-1.251v-1.2h1.251Z" transform="translate(-1390.298 4127.402)" fill="#fff"/>
          <path id="Trazado_196242" data-name="Trazado 196242" d="M1410.192-4259.935h1.223v1.219h-1.223Z" transform="translate(-1390.341 4263.423)" fill="#fff"/>
          <path id="Trazado_196243" data-name="Trazado 196243" d="M1495.817-4174.47h-1.181v-1.282h1.181Z" transform="translate(-1458.399 4195.575)" fill="#fff"/>
          <path id="Trazado_196244" data-name="Trazado 196244" d="M1495.922-4161.64v1.229h-1.183v-1.229Z" transform="translate(-1458.481 4184.202)" fill="#fff"/>
          <path id="Trazado_196245" data-name="Trazado 196245" d="M1495.871-4189.718v1.25h-1.194v-1.25Z" transform="translate(-1458.432 4206.831)" fill="#fff"/>
          <path id="Trazado_196246" data-name="Trazado 196246" d="M1425.364-4259.892v1.193H1424.1v-1.193Z" transform="translate(-1401.547 4263.388)" fill="#fff"/>
          <path id="Trazado_196247" data-name="Trazado 196247" d="M1396.042-4090v-1.182h1.275V-4090Z" transform="translate(-1378.937 4127.415)" fill="#fff"/>
          <path id="Trazado_196248" data-name="Trazado 196248" d="M1397.357-4258.668H1396.1v-1.194h1.255Z" transform="translate(-1378.985 4263.365)" fill="#fff"/>
          <path id="Trazado_196249" data-name="Trazado 196249" d="M1424.152-4091.283h1.246v1.195h-1.246Z" transform="translate(-1401.592 4127.497)" fill="#fff"/>
          <path id="Trazado_196250" data-name="Trazado 196250" d="M1466.078-4250.6c.841,0,1.682.023,2.522-.006.887-.031,1.146-.432.734-1.179-.81-1.469-1.649-2.924-2.5-4.368-.424-.717-.966-.729-1.39-.016q-1.288,2.164-2.5,4.373c-.411.752-.161,1.155.709,1.189C1464.46-4250.571,1465.27-4250.6,1466.078-4250.6Z" transform="translate(-1432.701 4260.81)" fill="#fff"/>
          <path id="Trazado_196251" data-name="Trazado 196251" d="M1466.078-4250.6c-.808,0-1.618.024-2.425-.007-.871-.034-1.121-.437-.709-1.189q1.21-2.208,2.5-4.373c.424-.712.966-.7,1.39.016.854,1.444,1.694,2.9,2.5,4.368.412.747.154,1.147-.734,1.179C1467.76-4250.572,1466.919-4250.6,1466.078-4250.6Z" transform="translate(-1432.701 4260.81)" fill="#fff"/>
          <path id="Trazado_196252" data-name="Trazado 196252" d="M1462.416-4122.815c-.316-1.052.333-1.777,1.331-2.466,2.559-1.767,1.6-1.75,4.082.027.488.351,1.183.749,1.284,1.23a9.1,9.1,0,0,1,.011,2.977c-.044.345-.553.673-.906.93-3.035,2.2-1.845,2.152-4.848,0C1462.4-4120.8,1462.416-4120.824,1462.416-4122.815Zm3.375-2.286c-.458.339-.873.643-1.283.951-.726.546-1.149,2.149-.612,2.693a6.427,6.427,0,0,0,1.867,1.332c.223.1.744-.388,1.1-.649,1.466-1.086,1.466-2.433.015-3.516Z" transform="translate(-1432.366 4155.958)" fill="#fff"/>
          <path id="Trazado_196253" data-name="Trazado 196253" d="M1335.747-4119.7c0,.806-.02,1.613.006,2.418.021.651-.254.959-.906.957q-2.466-.008-4.933,0c-.637,0-.958-.278-.956-.929q.008-2.467,0-4.933c0-.636.261-.943.929-.935,1.644.02,3.289.025,4.933,0,.736-.013.961.326.935,1C1335.724-4121.315,1335.747-4120.508,1335.747-4119.7Zm-1.365-2.015h-4v3.973h4Z" transform="translate(-1324.87 4153.161)" fill="#fff"/>
          <path id="Trazado_196254" data-name="Trazado 196254" d="M1335.765-4253.428a3.323,3.323,0,0,1-3.366,3.361,3.393,3.393,0,0,1-3.419-3.343,3.464,3.464,0,0,1,3.449-3.44A3.387,3.387,0,0,1,1335.765-4253.428Zm-1.33-.051a2.079,2.079,0,0,0-2.059-2.027,2.115,2.115,0,0,0-2.051,2.046,2.076,2.076,0,0,0,2.12,2.062A2.049,2.049,0,0,0,1334.436-4253.479Z" transform="translate(-1324.888 4260.938)" fill="#fff"/>
        </g>
      </g>
    </g>
    <g id="Grupo_142440" data-name="Grupo 142440" transform="translate(577.616 594.499)">
      <ellipse id="Elipse_4869" data-name="Elipse 4869" cx="30" cy="30.5" rx="30" ry="30.5" transform="translate(0.384 -0.499)" fill="#f59d36"/>
      <g id="p78uZ0" transform="translate(-1219.946 4623.519)">
        <g id="Grupo_155830" data-name="Grupo 155830" transform="translate(1233.459 -4614.178)">
          <path id="Trazado_196255" data-name="Trazado 196255" d="M1352.511-4538.412c.5.138.782.366.715.816-.071.478-.45.575-.927.587-.05.551-.108,1.094-.147,1.637-.047.661-.239.852-.9.853h-6.609c-.7,0-.883-.186-.918-.905-.021-.44-.064-.878-.1-1.318a2.021,2.021,0,0,0-.057-.258c-.416-.028-.82-.1-.9-.605-.062-.412.2-.629.655-.812a23.134,23.134,0,0,0-1.211-2.666c-.871-1.431-1.851-2.8-2.8-4.178a11.135,11.135,0,0,1,3.093-15.592,10.334,10.334,0,0,1,14.53,3.572,10.329,10.329,0,0,1,1.254,8.1,15.193,15.193,0,0,1-2.151,4.256c-.916,1.422-1.812,2.858-2.647,4.328A17.44,17.44,0,0,0,1352.511-4538.412Zm-4.608.058c.991,0,1.982,0,2.973,0,.188,0,.335,0,.388-.248a13.192,13.192,0,0,1,1.84-4.26c.813-1.292,1.666-2.558,2.5-3.836a8.84,8.84,0,0,0,.439-9.471,9.094,9.094,0,0,0-10.177-4.74,9.679,9.679,0,0,0-6.959,11.426,13.114,13.114,0,0,0,2.62,5.044,16.307,16.307,0,0,1,3.027,5.818c.054.227.166.272.374.27C1345.922-4538.359,1346.913-4538.354,1347.9-4538.354Zm3.058,1.366h-6.018l.1,1.118h5.793Z" transform="translate(-1328.793 4566.751)" fill="#fff"/>
          <path id="Trazado_196256" data-name="Trazado 196256" d="M1237.128-4585.226c0-.565.006-1.129,0-1.694a.882.882,0,0,0-.964-.988,2.719,2.719,0,0,1-2.252-4.206c.866-1.373,1.665-2.789,2.447-4.212a3.359,3.359,0,0,0,.4-1.359,17.524,17.524,0,0,1,6.933-13.5,14.505,14.505,0,0,1,8.593-2.986c.083,0,.165,0,.248,0,.455.012.744.263.751.65s-.275.642-.727.677a22.4,22.4,0,0,0-2.258.209,14.051,14.051,0,0,0-9.287,6.133,17.089,17.089,0,0,0-2.938,8.987,4.251,4.251,0,0,1-.488,1.717q-1.2,2.237-2.545,4.394a1.4,1.4,0,0,0,1.188,2.181,2.186,2.186,0,0,1,2.233,2.347c.009.922,0,1.845,0,2.768a4.562,4.562,0,0,0,4.708,4.683,10.3,10.3,0,0,1,3.707.448,3.952,3.952,0,0,1,2.8,3.828.647.647,0,0,1-.518.7.619.619,0,0,1-.741-.381.927.927,0,0,1-.067-.32,2.6,2.6,0,0,0-2.132-2.635,11.82,11.82,0,0,0-2.568-.29,7.218,7.218,0,0,1-3.021-.545,5.752,5.752,0,0,1-3.491-5.233C1237.111-4584.317,1237.129-4584.772,1237.128-4585.226Z" transform="translate(-1233.459 4614.178)" fill="#fff"/>
          <path id="Trazado_196257" data-name="Trazado 196257" d="M1430.508-4210.5c.784,0,1.567,0,2.351,0,.5,0,.783.243.786.646s-.289.673-.767.675q-2.371.007-4.742,0a.677.677,0,0,1-.766-.677c0-.4.293-.645.788-.647.783-.005,1.567,0,2.35,0Z" transform="translate(-1411.348 4243.853)" fill="#fff"/>
          <path id="Trazado_196258" data-name="Trazado 196258" d="M1414.9-4116.821a.652.652,0,0,1-.666-.639.658.658,0,0,1,.67-.678.668.668,0,0,1,.65.66A.667.667,0,0,1,1414.9-4116.821Z" transform="translate(-1399.294 4159.123)" fill="#fff"/>
          <path id="Trazado_196259" data-name="Trazado 196259" d="M1386.429-4519.708c-.07.253-.068.483-.182.612-.31.35-.077.631.052.933s.17.62.622.712a1.12,1.12,0,0,1,.878,1.08,8.709,8.709,0,0,1-.005,1.524,1.2,1.2,0,0,1-.963,1.107.509.509,0,0,0-.434.414,1.484,1.484,0,0,1-.17.419.648.648,0,0,0,.007.746,1.192,1.192,0,0,1-.151,1.425,11.259,11.259,0,0,1-1.015,1.025,1.248,1.248,0,0,1-1.531.134.537.537,0,0,0-.6-.011,2.214,2.214,0,0,1-.377.164.684.684,0,0,0-.555.557,1.236,1.236,0,0,1-1.162.895c-.453.019-.909.018-1.362,0a1.242,1.242,0,0,1-1.2-.958.521.521,0,0,0-.4-.447,2.394,2.394,0,0,1-.532-.221.476.476,0,0,0-.56.013,1.278,1.278,0,0,1-1.568-.143c-.323-.3-.636-.609-.931-.934a1.359,1.359,0,0,1-.182-1.608.908.908,0,0,0,.024-.51c-.022-.145-.131-.274-.167-.419a.731.731,0,0,0-.588-.581,1.206,1.206,0,0,1-.877-1.178,11.969,11.969,0,0,1,0-1.32,1.246,1.246,0,0,1,.954-1.206.589.589,0,0,0,.483-.476,1.6,1.6,0,0,1,.155-.381.6.6,0,0,0,0-.709,1.258,1.258,0,0,1,.2-1.525q.433-.47.9-.906a1.3,1.3,0,0,1,1.568-.184.523.523,0,0,0,.6.017,1.484,1.484,0,0,1,.378-.162.725.725,0,0,0,.578-.585,1.191,1.191,0,0,1,1.176-.875c.439-.022.881-.017,1.321,0a1.264,1.264,0,0,1,1.221.99.474.474,0,0,0,.379.413,1.171,1.171,0,0,1,.269.1.95.95,0,0,0,1.055.02,1.076,1.076,0,0,1,1.272.181,9.479,9.479,0,0,1,1.1,1.115A2.75,2.75,0,0,1,1386.429-4519.708Zm-10.335,8.981c.1-.083.15-.126.2-.171.467-.424.611-.416,1.168-.138a10.882,10.882,0,0,0,1.524.614.717.717,0,0,1,.557.631c.022.148.023.3.035.478h1.144c.013-.092.027-.159.032-.226.044-.656.124-.719.726-.92a11.3,11.3,0,0,0,1.437-.612c.46-.229.668-.227,1.034.115.077.072.16.139.243.211l.843-.827-.3-.319a.716.716,0,0,1-.1-.873c.256-.559.5-1.128.707-1.706a.712.712,0,0,1,.692-.537c.134-.005.268-.013.42-.02v-1.172c-.138-.01-.246-.026-.353-.024-.442.008-.651-.219-.785-.633a10.941,10.941,0,0,0-.65-1.552.74.74,0,0,1,.108-.972c.086-.085.164-.179.235-.258l-.818-.847c-.067.056-.121.1-.17.141-.486.451-.6.442-1.2.142a10.083,10.083,0,0,0-1.408-.573c-.5-.165-.642-.313-.667-.847,0-.093-.017-.186-.027-.291h-1.147c-.012.085-.023.139-.026.193-.033.682-.122.771-.774.971a6.927,6.927,0,0,0-1.146.458c-.8.413-.795.426-1.467-.15-.017-.014-.051-.01-.016,0l-.855.8c.039.049.071.093.108.134.475.521.474.622.152,1.228a7.425,7.425,0,0,0-.506,1.17c-.267.822-.252.827-1.119.9-.023,0-.044.028-.078.052v1.151c.17,0,.306-.006.442,0a.7.7,0,0,1,.661.522c.222.588.467,1.169.724,1.743a.7.7,0,0,1-.1.837c-.1.108-.2.214-.289.309Z" transform="translate(-1360.997 4530.792)" fill="#fff"/>
          <path id="Trazado_196260" data-name="Trazado 196260" d="M1425-4474.45a3.625,3.625,0,0,1,3.615,3.631,3.64,3.64,0,0,1-3.655,3.64,3.643,3.643,0,0,1-3.616-3.68A3.624,3.624,0,0,1,1425-4474.45Zm-2.329,3.649a2.326,2.326,0,0,0,2.325,2.3,2.327,2.327,0,0,0,2.293-2.333,2.305,2.305,0,0,0-2.326-2.29A2.3,2.3,0,0,0,1422.67-4470.8Z" transform="translate(-1405.82 4485.994)" fill="#fff"/>
        </g>
      </g>
    </g>
    <g id="Grupo_142441" data-name="Grupo 142441" transform="translate(749.747 594.499)">
      <circle id="Elipse_4870" data-name="Elipse 4870" cx="30.5" cy="30.5" r="30.5" transform="translate(0.253 -0.499)" fill="#2ec49f"/>
      <g id="e4G3L4.tif" transform="translate(3229.479 -391.56)">
        <g id="Grupo_154943" data-name="Grupo 154943" transform="translate(-3216.79 397.657)">
          <path id="Trazado_195338" data-name="Trazado 195338" d="M-3212.211,440.855a.973.973,0,0,1-.352-.843c.016-2.206-.007-4.413.026-6.618a2.984,2.984,0,0,1,1.691-2.758.474.474,0,0,0,.239-.323c.015-1.615.01-3.23.01-4.906a4.6,4.6,0,0,0-2.485,1.932,12.187,12.187,0,0,0-1.41,4.418c-.386,2.82-.749,5.642-1.13,8.537l-1.169-.14c.075-.63.141-1.237.221-1.843.3-2.252.594-4.505.908-6.756a14.184,14.184,0,0,1,1.45-4.631,5.628,5.628,0,0,1,2.858-2.5,47.019,47.019,0,0,1,6.953-2.365l.45-.124c0-.394.01-.8-.007-1.2a.431.431,0,0,0-.159-.269,6.855,6.855,0,0,1-2.621-5.918c.006-.136,0-.272,0-.361a6.809,6.809,0,0,1-.879-.006,1.787,1.787,0,0,1-1.556-1.766,11.031,11.031,0,0,1,.017-1.684,2.706,2.706,0,0,1,.454-1.139,1,1,0,0,0,.2-.685c-.06-1.078-.18-2.158-.147-3.234a7.857,7.857,0,0,1,2.327-5.689,8.2,8.2,0,0,1,4.586-2.115,16.469,16.469,0,0,1,5.739.079,7.439,7.439,0,0,1,6.376,6.667,17.408,17.408,0,0,1-.046,4.408,1.057,1.057,0,0,0,.143.479,4.8,4.8,0,0,1,.484,1.127,8.826,8.826,0,0,1,.015,1.89,1.742,1.742,0,0,1-2.118,1.617c-.069-.01-.139-.011-.231-.018-.03.538-.043,1.068-.093,1.594a6.587,6.587,0,0,1-2.423,4.6,1.7,1.7,0,0,0-.349,1.521c.045.086.2.129.31.165,1.891.612,3.8,1.171,5.67,1.844a8.58,8.58,0,0,1,3.38,1.905,7.3,7.3,0,0,1,1.8,3.52c.372,1.593.615,3.218.86,4.837.274,1.8.488,3.614.726,5.422.026.194.041.389.067.633l-1.163.166c-.126-.941-.232-1.856-.374-2.765a64.807,64.807,0,0,0-1.265-8.01,13.757,13.757,0,0,0-.755-1.912,4.414,4.414,0,0,0-2.618-2.215c0,1.666,0,3.293.007,4.92a.336.336,0,0,0,.162.245,3.238,3.238,0,0,1,1.827,3.2c.012,2.08,0,4.159.006,6.239a.881.881,0,0,1-.4.824ZM-3190.8,424.2v.511q0,3.1,0,6.2c0,.719-.165.886-.9.887q-7.395,0-14.789,0c-.7,0-.9-.2-.9-.9q0-3.1,0-6.2v-.513c-.526.182-.993.369-1.475.5a.647.647,0,0,0-.553.759c.035,1.77.016,3.54.013,5.311,0,.6-.078.664-.638.864a2.31,2.31,0,0,0-.779.47,2.034,2.034,0,0,0-.553,1.582q-.005,2.845,0,5.69c0,.093.017.187.026.282h24.563c0-.8.006-1.57,0-2.34-.012-1.362-.013-2.725-.056-4.086a1.728,1.728,0,0,0-1.232-1.595c-.644-.211-.7-.288-.7-.951,0-1.8,0-3.6-.007-5.4,0-.144-.062-.377-.157-.415C-3189.533,424.62-3190.144,424.426-3190.8,424.2Zm-16.561-15.545c5.566-2.4,11.057-2.124,16.563.075a35.885,35.885,0,0,0-.025-3.92,5.93,5.93,0,0,0-4.133-5.336,13.615,13.615,0,0,0-7.27-.3,6.148,6.148,0,0,0-3.84,2.317C-3207.675,403.641-3207.59,406.1-3207.365,408.653Zm14.764,4c-1.427-.339-2.8-.651-4.167-.995a9.97,9.97,0,0,0-4.987.078c-1.243.318-2.494.6-3.8.92,0,.765-.008,1.633,0,2.5a5.5,5.5,0,0,0,4.277,5.36,13.421,13.421,0,0,0,3.093.181,5.453,5.453,0,0,0,5.018-3.173C-3192.356,415.943-3192.656,414.234-3192.6,412.65Zm-6.476,16.082c-.1-.119-.171-.2-.24-.289-1.352-1.706-2.708-3.408-4.046-5.123a.434.434,0,0,0-.558-.177c-.628.2-1.259.382-1.9.538-.305.075-.389.219-.386.523.013,1.981.007,3.961.007,5.942v.418h14.177a.422.422,0,0,0,.037-.1c0-2.135.009-4.27,0-6.405a.421.421,0,0,0-.239-.309c-.708-.221-1.429-.4-2.136-.622a.349.349,0,0,0-.451.156c-.8,1.034-1.6,2.061-2.408,3.089C-3197.835,427.151-3198.449,427.932-3199.077,428.732Zm7.958-18.858a19.777,19.777,0,0,0-15.971-.049c.393,1.282.912,1.649,2.16,1.453a22.419,22.419,0,0,0,2.455-.555,11.43,11.43,0,0,1,5.774-.229c1.2.284,2.4.569,3.606.79C-3192.038,411.477-3191.425,411.018-3191.119,409.874Zm-11.629,11.472a1.564,1.564,0,0,0,.39,1.382c1.105,1.339,2.162,2.718,3.254,4.1.093-.108.166-.19.234-.276,1.028-1.314,2.036-2.643,3.093-3.934a1.494,1.494,0,0,0,.311-1.259A11.824,11.824,0,0,1-3202.748,421.346Zm-5.243-10.275c0,.4-.02.832.006,1.264.028.491.43.789.828.6a1.1,1.1,0,0,0,.391-.5c.033-.065-.047-.229-.121-.3C-3207.245,411.773-3207.619,411.427-3207.992,411.071Zm17.783.039c-.362.346-.709.665-1.037,1a.522.522,0,0,0-.148.347.525.525,0,0,0,.555.517.53.53,0,0,0,.621-.49C-3190.181,412.018-3190.208,411.547-3190.208,411.109Z" transform="translate(3216.79 -397.657)" fill="#fff"/>
          <path id="Trazado_195339" data-name="Trazado 195339" d="M-3136.143,814.941v1.019h3.175v-1.019Zm18.607,1.017h3.155v-1.022h-3.155Z" transform="translate(3142.956 -779.683)" fill="#fff"/>
          <path id="Trazado_195340" data-name="Trazado 195340" d="M-3136.143,815h3.175v1.019h-3.175Z" transform="translate(3142.956 -779.737)" fill="#fff"/>
          <path id="Trazado_195341" data-name="Trazado 195341" d="M-2915.9,815.958v-1.022h3.154v1.022Z" transform="translate(2941.318 -779.683)" fill="#fff"/>
        </g>
      </g>
    </g>
    <g id="Grupo_142438" data-name="Grupo 142438" transform="translate(232.603 594.499)">
      <ellipse id="Elipse_4775" data-name="Elipse 4775" cx="30" cy="30.5" rx="30" ry="30.5" transform="translate(0.397 -0.499)" fill="#f59d36"/>
      <g id="bB6J8T.tif" transform="translate(2859.513 -1108.69)">
        <g id="Grupo_154941" data-name="Grupo 154941" transform="translate(-2848.836 1118)">
          <path id="Trazado_195330" data-name="Trazado 195330" d="M-2573.53,1400.691a7.778,7.778,0,0,1-.754-.592q-5.557-5.55-11.1-11.112a1.142,1.142,0,0,1-.457-.938.861.861,0,0,1,.588-.752.869.869,0,0,1,.958.24c.413.393.811.8,1.21,1.209.118.12.218.256.345.409.13-.112.219-.179.3-.257.66-.659,1.3-1.337,1.987-1.971a1.7,1.7,0,0,1,.8-.388.715.715,0,0,1,.75.451.8.8,0,0,1-.035.88,3.481,3.481,0,0,1-.379.44c-.686.688-1.377,1.371-2.029,2.02l2.088,2.089c.646-.649,1.346-1.356,2.052-2.057a2.61,2.61,0,0,1,.445-.373.864.864,0,0,1,1.068.154.878.878,0,0,1,.107,1.073,2.738,2.738,0,0,1-.352.412c-.7.705-1.408,1.407-2.09,2.086l4.69,4.7,4.633-4.639a2.038,2.038,0,0,1-.322-.232q-5.238-5.238-10.469-10.482a1.03,1.03,0,0,1-.415-1.054.864.864,0,0,1,1.317-.527,2.035,2.035,0,0,1,.356.3q5.634,5.639,11.264,11.281a.978.978,0,0,1,.01,1.634q-2.773,2.781-5.553,5.554a4.733,4.733,0,0,1-.621.448Z" transform="translate(2606.321 -1360.838)" fill="#fff"/>
          <path id="Trazado_195331" data-name="Trazado 195331" d="M-2841.843,1118a6,6,0,0,1,.706.528q5.6,5.59,11.182,11.191a1.017,1.017,0,0,1,.395,1.1.866.866,0,0,1-1.314.472,2.63,2.63,0,0,1-.41-.353q-5.206-5.211-10.407-10.428a2.935,2.935,0,0,1-.282-.4l-4.611,4.688,4.693,4.688c.04-.037.135-.116.222-.2.669-.668,1.333-1.342,2.007-2.006a.921.921,0,0,1,1.154-.242.89.89,0,0,1,.135,1.48c-.658.679-1.331,1.344-2,2.009a1.865,1.865,0,0,1-.3.2l2.186,2.194c.176-.212.365-.474.588-.7q.8-.824,1.621-1.623a.9.9,0,0,1,1.315-.067.9.9,0,0,1-.044,1.32c-.748.771-1.517,1.522-2.4,2.4.276.222.551.414.791.644a11.787,11.787,0,0,1,1.019,1.065.834.834,0,0,1-.078,1.132.882.882,0,0,1-1.132.1,2.45,2.45,0,0,1-.353-.3q-5.6-5.61-11.2-11.227a5.444,5.444,0,0,1-.481-.648v-.467c.215-.255.413-.527.648-.762q2.595-2.6,5.206-5.181a8.384,8.384,0,0,1,.751-.595Z" transform="translate(2848.836 -1118)" fill="#fff"/>
          <path id="Trazado_195332" data-name="Trazado 195332" d="M-2812.336,1118.947a4.217,4.217,0,0,1,3.759,2.578,4.31,4.31,0,0,1-.6,4.738,5.8,5.8,0,0,1-.474.514q-12.839,12.864-25.683,25.723a2.9,2.9,0,0,1-.675.512q-5.119,2.723-10.25,5.424a1.529,1.529,0,0,1-.614.2.863.863,0,0,1-.852-1.165,2.868,2.868,0,0,1,.192-.423q2.678-5.083,5.365-10.162a2.913,2.913,0,0,1,.5-.681q12.862-12.9,25.73-25.787A4.744,4.744,0,0,1-2812.336,1118.947Zm-26.2,31.72c.6.131,1.135.22,1.651.371a.624.624,0,0,0,.7-.22q9.4-9.432,18.812-18.854c.1-.1.192-.2.255-.268l-1.239-1.291c-.111.124-.217.256-.335.375q-7.086,7.1-14.175,14.2a2.765,2.765,0,0,1-.473.4.863.863,0,0,1-1.04-.13.867.867,0,0,1-.148-1.071,2.566,2.566,0,0,1,.371-.446q7.126-7.144,14.255-14.284c.106-.107.208-.218.264-.276l-1.259-1.335a2.7,2.7,0,0,1-.254.354q-9.405,9.428-18.815,18.852a.783.783,0,0,0-.161.167.549.549,0,0,0-.1.306c.121.6.263,1.2.41,1.854.128-.118.223-.2.311-.287q1.374-1.375,2.748-2.751a2.463,2.463,0,0,1,.354-.3.863.863,0,0,1,1.1.091.868.868,0,0,1,.107,1.132,2.772,2.772,0,0,1-.328.381C-2836.506,1148.629-2837.494,1149.618-2838.541,1150.667Zm25.848-23.582c.707-.661,1.489-1.29,2.146-2.03a2.57,2.57,0,0,0-.119-3.468,2.575,2.575,0,0,0-3.386-.39,31.3,31.3,0,0,0-2.335,2.186Zm-1.3,1.382-3.644-3.649-1.8,1.814,3.632,3.646Zm-27.607,21.18c-.628,1.19-1.21,2.283-1.774,3.384a.375.375,0,0,0,.087.318c.241.269.518.507.758.777a.318.318,0,0,0,.464.066c.9-.487,1.8-.96,2.7-1.438.165-.088.329-.177.56-.3-.6-.13-1.1-.245-1.6-.348a.993.993,0,0,1-.842-.844C-2841.353,1150.755-2841.468,1150.252-2841.6,1149.647Zm-3.071,5.825.05.067.632-.351-.359-.328Z" transform="translate(2847.861 -1118.873)" fill="#fff"/>
          <path id="Trazado_195333" data-name="Trazado 195333" d="M-2781.226,1185.8a1.758,1.758,0,0,1-1.761-1.783,1.787,1.787,0,0,1,1.77-1.791,1.825,1.825,0,0,1,1.8,1.819A1.79,1.79,0,0,1-2781.226,1185.8Z" transform="translate(2788.113 -1177.228)" fill="#fff"/>
          <path id="Trazado_195334" data-name="Trazado 195334" d="M-2447.839,1519.873a1.788,1.788,0,0,1,1.756-1.8,1.807,1.807,0,0,1,1.811,1.8,1.8,1.8,0,0,1-1.786,1.777A1.774,1.774,0,0,1-2447.839,1519.873Z" transform="translate(2479.052 -1486.93)" fill="#fff"/>
        </g>
      </g>
    </g>
  </g>
</svg>
