<svg xmlns="http://www.w3.org/2000/svg" width="943" height="703.026" viewBox="0 0 943 703.026">
  <g id="Grupo_161719" data-name="Grupo 161719" transform="translate(-333 -1103)">
    <g id="UyrgcM.tif" transform="translate(751.619 1675.022)">
      <g id="Grupo_151394" data-name="Grupo 151394" transform="translate(0 0)">
        <path id="Trazado_193789" data-name="Trazado 193789" d="M1991.352,43.757c.764.4,1.514.835,2.293,1.206a7.253,7.253,0,0,1,3.368,9.009c-.626,1.417-1.834,1.777-3.3,1.773-8.922-.024-17.845-.012-26.767-.011-3.569,0-7.138.009-10.707,0-2.545-.009-3.494-1.032-3.649-3.51-.232-3.707.99-6.432,4.687-7.725a10.038,10.038,0,0,0,1.573-.975c-.739-.067-1.131-.133-1.524-.134-5.632-.01-11.264,0-16.9-.018-4.155-.01-6.649-2.486-6.653-6.669q-.022-25.095,0-50.19c0-3.99,2.474-6.481,6.424-6.575a8.918,8.918,0,0,1,1.337.006,5.4,5.4,0,0,0,5.272-2.025c1.344-1.614,2.937-1.709,4.814-.668,1.206.669,1.837.329,2.19-.946a3.534,3.534,0,0,1,3.875-2.945c1.17-.018,2.343-.029,3.513,0a3.479,3.479,0,0,1,3.639,2.835c.346,1.429,1.024,1.647,2.24.991a3.5,3.5,0,0,1,4.815.788,5.731,5.731,0,0,0,4.952,2c10.818-.092,21.636-.047,32.455-.045,4.385,0,6.838,2.436,6.84,6.831q.011,24.927,0,49.855c0,4.243-2.51,6.742-6.763,6.748q-8.948.014-17.894,0Zm21.492-14.024c0-.649,0-1.146,0-1.642q0-20.41,0-40.819c0-3.25-.82-4.068-4.044-4.068-10.316,0-20.632.04-30.948-.029-1.507-.01-2.417.205-2.994,1.785-.479,1.311-.421,1.912,1,2.275a3.435,3.435,0,0,1,2.832,3.627c.035,1.114.018,2.23.007,3.346-.023,2.42-.727,3.4-3.064,4.121-1.083.336-1.451.9-.9,1.955,1.236,2.362,1.066,3.425-.836,5.336-.786.79-1.553,1.606-2.388,2.342a3.541,3.541,0,0,1-4.2.5c-1.642-.81-1.945-.7-2.5,1.055a3.47,3.47,0,0,1-3.651,2.606c-2.58-.14-5.652,1.064-7.208-2.317a1.4,1.4,0,0,1-.05-.159c-.647-1.929-.887-2.036-2.617-1.186A3.4,3.4,0,0,1,1947,7.848c-.905-.909-1.841-1.788-2.719-2.722a3.491,3.491,0,0,1-.614-4.439c.771-1.535.606-1.921-1.058-2.457a3.465,3.465,0,0,1-2.668-3.767c.1-2.535-1-5.535,2.291-7.057.2-.093.471-.084.626-.218.453-.391,1.3-.986,1.214-1.224-.346-.971-.8-2.423-1.542-2.647-3.559-1.081-5.453.485-5.453,4.186q0,20.242,0,40.484v1.746Zm0,3.47h-75.762c0,1.082,0,2.072,0,3.062.013,2.921.866,3.79,3.771,3.791q23.168.009,46.336.006,11.124,0,22.248-.006c2.379-.005,3.363-.99,3.4-3.325C2012.856,35.619,2012.84,34.509,2012.84,33.2Zm-51.4-24.354c1.177-4.118,3.818-5.214,7.707-3.316l3.042-2.984c-2.34-3.3-.56-6.744,3.1-7.745V-9.45c-3.776-.755-5.073-3.942-3.139-7.662l-2.968-3.017a4.852,4.852,0,0,1-7.779-3.086h-4.244c-.357,3.535-4.661,5.236-8.047,2.922a13.275,13.275,0,0,1-1.576,2.024,1.77,1.77,0,0,0-.438,2.542,4.31,4.31,0,0,1,.124,2.855c-.539,1.924-1.689,3.391-3.888,3.371v4.464c3.272.193,5.406,4.208,3.321,7.537l2.847,3.126c.491-.279.9-.555,1.349-.757,1.88-.85,5.2.176,5.679,2.124.495,2.026,1.664,1.966,3.144,1.861C1960.226,8.815,1960.782,8.848,1961.437,8.848Zm32.357,43.481c.473-2.9.083-3.437-2.245-4.734a16.951,16.951,0,0,1-4.021-3.158,2.908,2.908,0,0,0-2.391-1.078c-6.632.036-13.265.054-19.9-.008a3.492,3.492,0,0,0-3.095,1.372,12.7,12.7,0,0,1-3.656,2.825c-2.489,1.355-2.883,1.936-2.359,4.781Z" transform="translate(-1933.769 26.659)" fill="#12263f"/>
        <path id="Trazado_193790" data-name="Trazado 193790" d="M2084.308,61.165c-1.913-1.455-3.067-.434-3.993,1.73-.239.558-1.4.913-2.173,1.008a19.222,19.222,0,0,1-4.165.043,3,3,0,0,1-2.75-2.344c-.291-1.138-.692-1.5-1.852-.873a3.317,3.317,0,0,1-4.26-.707c-.585-.6-1.192-1.173-1.777-1.77-1.689-1.723-1.837-2.38-.848-4.591.418-.936.264-1.367-.757-1.7-1.979-.644-2.6-1.621-2.635-3.737-.013-.892-.018-1.784,0-2.676.041-2.021.676-2.955,2.592-3.582.977-.32,1.227-.688.721-1.678-.95-1.858-.706-3,.761-4.51.7-.719,1.405-1.434,2.143-2.113a3.077,3.077,0,0,1,3.844-.594c1.313.777,1.787.372,2.034-.927a1.926,1.926,0,0,1,.439-.887c1.918-2.129,4.452-1.329,6.771-1.285a2.959,2.959,0,0,1,2.747,2.541c.263,1.007.677,1.227,1.66.72,1.844-.951,3-.706,4.515.762.68.659,1.352,1.329,2.007,2.013a3.229,3.229,0,0,1,.6,4.126c-.624,1.1-.407,1.643.838,1.833a1.973,1.973,0,0,1,.912.384c2.194,1.78,1.5,4.265,1.479,6.537A3.016,3.016,0,0,1,2090.7,51.9c-1.328.321-1.321.891-.694,1.878a3.019,3.019,0,0,1,.435,1.414C2090.551,57.3,2086.811,61.125,2084.308,61.165Zm-19.05-5.717,2.224,2.29c3.416-1.414,4.867-.862,6.84,2.443a1.3,1.3,0,0,0,.915.482c.865.066,1.738.023,2.548.023,1.092-3.454,3.6-4.487,6.919-2.937l2.268-2.3c-1.605-2.487-.761-5.69,2.833-7.026V45.355c-3.067-.781-4.5-3.769-2.915-7.06l-2.175-2.223c-2.82,1.825-6.025.394-7.07-2.867a17.11,17.11,0,0,0-2.117.024,1.761,1.761,0,0,0-1.2.541c-1.867,3.212-3.179,3.706-6.846,2.4l-2.187,2.175c1.486,3.145.722,5.354-2.2,6.747a1.389,1.389,0,0,0-.638.954,21.484,21.484,0,0,0-.029,2.436C2065.89,49.9,2066.974,52.535,2065.258,55.448Z" transform="translate(-2016.976 -10.821)" fill="#12263f"/>
        <path id="Trazado_193791" data-name="Trazado 193791" d="M2054.121,157.051a2.265,2.265,0,1,1-2.273-2.207A2.321,2.321,0,0,1,2054.121,157.051Z" transform="translate(-2010.671 -93.853)" fill="#12263f"/>
        <path id="Trazado_193792" data-name="Trazado 193792" d="M1994.415,23.53a7.768,7.768,0,1,1,7.8-7.721A7.773,7.773,0,0,1,1994.415,23.53Zm.089-12.256a4.474,4.474,0,1,0,4.416,4.518A4.525,4.525,0,0,0,1994.5,11.274Z" transform="translate(-1968.871 3.651)" fill="#12263f"/>
        <path id="Trazado_193793" data-name="Trazado 193793" d="M2089.1,67.046a6.975,6.975,0,0,1,13.95-.1,6.975,6.975,0,1,1-13.95.1Zm3.316-.066a3.647,3.647,0,0,0,3.635,3.738,3.738,3.738,0,0,0,3.708-3.707,3.668,3.668,0,0,0-3.593-3.625A3.585,3.585,0,0,0,2092.421,66.98Z" transform="translate(-2036.907 -30.923)" fill="#12263f"/>
      </g>
    </g>
    <g id="Grupo_161708" data-name="Grupo 161708" transform="translate(404.434 1195.415)">
      <path id="Trazado_197171" data-name="Trazado 197171" d="M7468.148,4833.606v-4.541c-3.465,0-6.765-.065-10.062.023-2.29.062-3.133-.892-3.117-3.177q.108-15.83.007-31.66c-.014-2.271.854-3.23,3.124-3.225q21.494.049,42.99,0c2.29,0,3.151,1.115,3.145,3.3q-.044,15.83,0,31.66c.009,2.294-1.028,3.168-3.26,3.106-3.2-.088-6.407-.023-9.857-.023v4.531c3.269,0,6.569.062,9.866-.022,2.243-.057,3.294.857,3.245,3.134-.059,2.664,0,5.332-.018,8-.011,1.9-.93,2.807-2.89,2.8q-21.829-.04-43.659,0c-2.047,0-2.72-1.013-2.676-2.907.061-2.666.092-5.335-.009-8-.092-2.388,1.071-3.092,3.265-3.027C7461.444,4833.678,7464.648,4833.606,7468.148,4833.606Zm-9-8.787h41.083c0-9.451-.018-18.644.011-27.837.006-2.32-1.628-1.958-3.023-1.959q-16.324-.02-32.646-.008h-5.425Zm40.838,12.952H7459.25v5.516h40.733Zm-27.564-4.414h15.275c-1.032-1.844-1.627-4.031-2.394-4.092-4.241-.34-8.523-.163-12.882-.163Z" transform="translate(-7454.969 -4791.026)" fill="#12263f"/>
      <path id="Trazado_197172" data-name="Trazado 197172" d="M7486.455,4807.642a22.316,22.316,0,0,1-1.694,2.232c-3.733,3.776-7.422,7.6-11.323,11.2-.773.712-2.4.5-3.627.717.262-1.149.154-2.646.851-3.39,3.7-3.957,7.558-7.771,11.474-11.515a4.7,4.7,0,0,1,2.883-.961C7485.437,4805.907,7485.9,4806.941,7486.455,4807.642Z" transform="translate(-7459.917 -4795.994)" fill="#12263f"/>
      <path id="Trazado_197173" data-name="Trazado 197173" d="M7475.511,4801.705c.428.295,1.278.574,1.386,1.028a3.033,3.033,0,0,1-.292,2.373c-2.477,2.674-5.05,5.267-7.747,7.716a2.837,2.837,0,0,1-2.579.105,2.333,2.333,0,0,1-.49-2.2c2.766-3,5.684-5.852,8.586-8.721C7474.572,4801.812,7474.992,4801.835,7475.511,4801.705Z" transform="translate(-7458.536 -4794.586)" fill="#12263f"/>
    </g>
    <g id="Grupo_161717" data-name="Grupo 161717" transform="translate(530.07 1582.652)">
      <g id="Grupo_161718" data-name="Grupo 161718" transform="translate(0 0)">
        <path id="Trazado_197171-2" data-name="Trazado 197171" d="M7468.148,4833.606v-4.541c-3.465,0-6.765-.065-10.062.023-2.29.062-3.133-.892-3.117-3.177q.108-15.83.007-31.66c-.014-2.271.854-3.23,3.124-3.225q21.494.049,42.99,0c2.29,0,3.151,1.115,3.145,3.3q-.044,15.83,0,31.66c.009,2.294-1.028,3.168-3.26,3.106-3.2-.088-6.407-.023-9.857-.023v4.531c3.269,0,6.569.062,9.866-.022,2.243-.057,3.294.857,3.245,3.134-.059,2.664,0,5.332-.018,8-.011,1.9-.93,2.807-2.89,2.8q-21.829-.04-43.659,0c-2.047,0-2.72-1.013-2.676-2.907.061-2.666.092-5.335-.009-8-.092-2.388,1.071-3.092,3.265-3.027C7461.444,4833.678,7464.648,4833.606,7468.148,4833.606Zm-9-8.787h41.083c0-9.451-.018-18.644.011-27.837.006-2.32-1.628-1.958-3.023-1.959q-16.324-.02-32.646-.008h-5.425Zm40.838,12.952H7459.25v5.516h40.733Zm-27.564-4.414h15.275c-1.032-1.844-1.627-4.031-2.394-4.092-4.241-.34-8.523-.163-12.882-.163Z" transform="translate(-7454.969 -4767.36)" fill="#12263f"/>
        <path id="Trazado_199843" data-name="Trazado 199843" d="M824.8,2681.322v-43.063" transform="translate(-800.168 -2637.741)" fill="none" stroke="#12263f" stroke-width="4"/>
        <path id="Trazado_199844" data-name="Trazado 199844" d="M810.41,2654.191l16.16-16.4,16.4,16.4" transform="translate(-801.799 -2637.794)" fill="none" stroke="#12263f" stroke-width="4"/>
      </g>
    </g>
    <g id="Grupo_161710" data-name="Grupo 161710" transform="translate(955.525 1195.415)">
      <path id="Trazado_197171-3" data-name="Trazado 197171" d="M7468.148,4833.606v-4.541c-3.465,0-6.765-.065-10.062.023-2.29.062-3.133-.892-3.117-3.177q.108-15.83.007-31.66c-.014-2.271.854-3.23,3.124-3.225q21.494.049,42.99,0c2.29,0,3.151,1.115,3.145,3.3q-.044,15.83,0,31.66c.009,2.294-1.028,3.168-3.26,3.106-3.2-.088-6.407-.023-9.857-.023v4.531c3.269,0,6.569.062,9.866-.022,2.243-.057,3.294.857,3.245,3.134-.059,2.664,0,5.332-.018,8-.011,1.9-.93,2.807-2.89,2.8q-21.829-.04-43.659,0c-2.047,0-2.72-1.013-2.676-2.907.061-2.666.092-5.335-.009-8-.092-2.388,1.071-3.092,3.265-3.027C7461.444,4833.678,7464.648,4833.606,7468.148,4833.606Zm-9-8.787h41.083c0-9.451-.018-18.644.011-27.837.006-2.32-1.628-1.958-3.023-1.959q-16.324-.02-32.646-.008h-5.425Zm40.838,12.952H7459.25v5.516h40.733Zm-27.564-4.414h15.275c-1.032-1.844-1.627-4.031-2.394-4.092-4.241-.34-8.523-.163-12.882-.163Z" transform="translate(-7454.969 -4791.026)" fill="#12263f"/>
      <path id="Trazado_197172-2" data-name="Trazado 197172" d="M7486.455,4807.642a22.316,22.316,0,0,1-1.694,2.232c-3.733,3.776-7.422,7.6-11.323,11.2-.773.712-2.4.5-3.627.717.262-1.149.154-2.646.851-3.39,3.7-3.957,7.558-7.771,11.474-11.515a4.7,4.7,0,0,1,2.883-.961C7485.437,4805.907,7485.9,4806.941,7486.455,4807.642Z" transform="translate(-7459.917 -4795.994)" fill="#12263f"/>
      <path id="Trazado_197173-2" data-name="Trazado 197173" d="M7475.511,4801.705c.428.295,1.278.574,1.386,1.028a3.033,3.033,0,0,1-.292,2.373c-2.477,2.674-5.05,5.267-7.747,7.716a2.837,2.837,0,0,1-2.579.105,2.333,2.333,0,0,1-.49-2.2c2.766-3,5.684-5.852,8.586-8.721C7474.572,4801.812,7474.992,4801.835,7475.511,4801.705Z" transform="translate(-7458.536 -4794.586)" fill="#12263f"/>
    </g>
    <g id="Grupo_161709" data-name="Grupo 161709" transform="translate(592.584 1195.415)">
      <path id="Trazado_197171-4" data-name="Trazado 197171" d="M7468.148,4833.606v-4.541c-3.465,0-6.765-.065-10.062.023-2.29.062-3.133-.892-3.117-3.177q.108-15.83.007-31.66c-.014-2.271.854-3.23,3.124-3.225q21.494.049,42.99,0c2.29,0,3.151,1.115,3.145,3.3q-.044,15.83,0,31.66c.009,2.294-1.028,3.168-3.26,3.106-3.2-.088-6.407-.023-9.857-.023v4.531c3.269,0,6.569.062,9.866-.022,2.243-.057,3.294.857,3.245,3.134-.059,2.664,0,5.332-.018,8-.011,1.9-.93,2.807-2.89,2.8q-21.829-.04-43.659,0c-2.047,0-2.72-1.013-2.676-2.907.061-2.666.092-5.335-.009-8-.092-2.388,1.071-3.092,3.265-3.027C7461.444,4833.678,7464.648,4833.606,7468.148,4833.606Zm-9-8.787h41.083c0-9.451-.018-18.644.011-27.837.006-2.32-1.628-1.958-3.023-1.959q-16.324-.02-32.646-.008h-5.425Zm40.838,12.952H7459.25v5.516h40.733Zm-27.564-4.414h15.275c-1.032-1.844-1.627-4.031-2.394-4.092-4.241-.34-8.523-.163-12.882-.163Z" transform="translate(-7454.969 -4791.026)" fill="#12263f"/>
      <path id="Trazado_197172-3" data-name="Trazado 197172" d="M7486.455,4807.642a22.316,22.316,0,0,1-1.694,2.232c-3.733,3.776-7.422,7.6-11.323,11.2-.773.712-2.4.5-3.627.717.262-1.149.154-2.646.851-3.39,3.7-3.957,7.558-7.771,11.474-11.515a4.7,4.7,0,0,1,2.883-.961C7485.437,4805.907,7485.9,4806.941,7486.455,4807.642Z" transform="translate(-7459.917 -4795.994)" fill="#12263f"/>
      <path id="Trazado_197173-3" data-name="Trazado 197173" d="M7475.511,4801.705c.428.295,1.278.574,1.386,1.028a3.033,3.033,0,0,1-.292,2.373c-2.477,2.674-5.05,5.267-7.747,7.716a2.837,2.837,0,0,1-2.579.105,2.333,2.333,0,0,1-.49-2.2c2.766-3,5.684-5.852,8.586-8.721C7474.572,4801.812,7474.992,4801.835,7475.511,4801.705Z" transform="translate(-7458.536 -4794.586)" fill="#12263f"/>
    </g>
    <g id="Grupo_161711" data-name="Grupo 161711" transform="translate(1143.675 1195.415)">
      <path id="Trazado_197171-5" data-name="Trazado 197171" d="M7468.148,4833.606v-4.541c-3.465,0-6.765-.065-10.062.023-2.29.062-3.133-.892-3.117-3.177q.108-15.83.007-31.66c-.014-2.271.854-3.23,3.124-3.225q21.494.049,42.99,0c2.29,0,3.151,1.115,3.145,3.3q-.044,15.83,0,31.66c.009,2.294-1.028,3.168-3.26,3.106-3.2-.088-6.407-.023-9.857-.023v4.531c3.269,0,6.569.062,9.866-.022,2.243-.057,3.294.857,3.245,3.134-.059,2.664,0,5.332-.018,8-.011,1.9-.93,2.807-2.89,2.8q-21.829-.04-43.659,0c-2.047,0-2.72-1.013-2.676-2.907.061-2.666.092-5.335-.009-8-.092-2.388,1.071-3.092,3.265-3.027C7461.444,4833.678,7464.648,4833.606,7468.148,4833.606Zm-9-8.787h41.083c0-9.451-.018-18.644.011-27.837.006-2.32-1.628-1.958-3.023-1.959q-16.324-.02-32.646-.008h-5.425Zm40.838,12.952H7459.25v5.516h40.733Zm-27.564-4.414h15.275c-1.032-1.844-1.627-4.031-2.394-4.092-4.241-.34-8.523-.163-12.882-.163Z" transform="translate(-7454.969 -4791.026)" fill="#12263f"/>
      <path id="Trazado_197172-4" data-name="Trazado 197172" d="M7486.455,4807.642a22.316,22.316,0,0,1-1.694,2.232c-3.733,3.776-7.422,7.6-11.323,11.2-.773.712-2.4.5-3.627.717.262-1.149.154-2.646.851-3.39,3.7-3.957,7.558-7.771,11.474-11.515a4.7,4.7,0,0,1,2.883-.961C7485.437,4805.907,7485.9,4806.941,7486.455,4807.642Z" transform="translate(-7459.917 -4795.994)" fill="#12263f"/>
      <path id="Trazado_197173-4" data-name="Trazado 197173" d="M7475.511,4801.705c.428.295,1.278.574,1.386,1.028a3.033,3.033,0,0,1-.292,2.373c-2.477,2.674-5.05,5.267-7.747,7.716a2.837,2.837,0,0,1-2.579.105,2.333,2.333,0,0,1-.49-2.2c2.766-3,5.684-5.852,8.586-8.721C7474.572,4801.812,7474.992,4801.835,7475.511,4801.705Z" transform="translate(-7458.536 -4794.586)" fill="#12263f"/>
    </g>
    <path id="Trazado_199865" data-name="Trazado 199865" d="M11.43-13.508v8.9A4.555,4.555,0,0,1,10.043-1.1,5.347,5.347,0,0,1,6.253.186,5.407,5.407,0,0,1,2.5-1.067,4.477,4.477,0,0,1,1.076-4.509v-9H3.859v8.916a2.574,2.574,0,0,0,.635,1.934,2.44,2.44,0,0,0,1.758.608q2.347,0,2.384-2.468v-8.99ZM18.972-2.774a.864.864,0,0,0-.487-.775,5.533,5.533,0,0,0-1.563-.506Q13.341-4.806,13.341-7.1a2.758,2.758,0,0,1,1.109-2.231,4.472,4.472,0,0,1,2.9-.9,4.813,4.813,0,0,1,3.057.9,2.836,2.836,0,0,1,1.146,2.338H18.87a1.3,1.3,0,0,0-.371-.951,1.57,1.57,0,0,0-1.16-.376,1.6,1.6,0,0,0-1.048.306.966.966,0,0,0-.371.779.826.826,0,0,0,.422.719,4.342,4.342,0,0,0,1.424.473,11.632,11.632,0,0,1,1.688.45,2.774,2.774,0,0,1,2.125,2.7A2.618,2.618,0,0,1,20.4-.663a5.083,5.083,0,0,1-3.043.849,5.309,5.309,0,0,1-2.24-.45A3.759,3.759,0,0,1,13.582-1.5a2.867,2.867,0,0,1-.557-1.693h2.542A1.4,1.4,0,0,0,16.1-2.1a2.1,2.1,0,0,0,1.317.38,1.941,1.941,0,0,0,1.164-.292A.909.909,0,0,0,18.972-2.774ZM29.316-1.021A3.362,3.362,0,0,1,26.57.186a3.171,3.171,0,0,1-2.463-.928A3.96,3.96,0,0,1,23.24-3.46v-6.578h2.681v6.492q0,1.57,1.429,1.57a1.936,1.936,0,0,0,1.874-.947v-7.115h2.69V0H29.391ZM39.753,0a2.977,2.977,0,0,1-.269-.9A3.244,3.244,0,0,1,36.952.186a3.564,3.564,0,0,1-2.445-.854,2.745,2.745,0,0,1-.969-2.152A2.837,2.837,0,0,1,34.72-5.27a5.837,5.837,0,0,1,3.419-.863h1.234v-.575a1.654,1.654,0,0,0-.357-1.113,1.405,1.405,0,0,0-1.127-.417,1.6,1.6,0,0,0-1.062.325,1.1,1.1,0,0,0-.385.891H33.76A2.693,2.693,0,0,1,34.3-8.637,3.557,3.557,0,0,1,35.82-9.8a5.545,5.545,0,0,1,2.208-.422,4.381,4.381,0,0,1,2.946.932,3.262,3.262,0,0,1,1.09,2.621v4.351a4.8,4.8,0,0,0,.4,2.162V0ZM37.536-1.865a2.309,2.309,0,0,0,1.095-.264,1.737,1.737,0,0,0,.742-.71V-4.564h-1q-2.013,0-2.143,1.392l-.009.158a1.073,1.073,0,0,0,.353.826A1.369,1.369,0,0,0,37.536-1.865ZM49.764-7.524A7.284,7.284,0,0,0,48.8-7.6,1.964,1.964,0,0,0,46.8-6.568V0H44.123V-10.038h2.533l.074,1.2a2.484,2.484,0,0,1,2.236-1.382,2.809,2.809,0,0,1,.835.121ZM53.883,0h-2.69V-10.038h2.69ZM51.035-12.636a1.32,1.32,0,0,1,.4-.993,1.516,1.516,0,0,1,1.1-.39,1.52,1.52,0,0,1,1.095.39,1.313,1.313,0,0,1,.408.993,1.316,1.316,0,0,1-.413,1,1.523,1.523,0,0,1-1.09.39,1.523,1.523,0,0,1-1.09-.39A1.316,1.316,0,0,1,51.035-12.636Zm4.639,7.524a5.953,5.953,0,0,1,.575-2.663A4.211,4.211,0,0,1,57.9-9.583a4.831,4.831,0,0,1,2.51-.64A4.571,4.571,0,0,1,63.731-8.98,4.989,4.989,0,0,1,65.164-5.6l.019.687a5.247,5.247,0,0,1-1.29,3.706,4.482,4.482,0,0,1-3.46,1.4,4.5,4.5,0,0,1-3.465-1.392,5.339,5.339,0,0,1-1.294-3.785Zm2.681.19a3.752,3.752,0,0,0,.538,2.188,1.775,1.775,0,0,0,1.54.757,1.779,1.779,0,0,0,1.521-.748A4.106,4.106,0,0,0,62.5-5.117a3.715,3.715,0,0,0-.547-2.174,1.779,1.779,0,0,0-1.54-.771,1.75,1.75,0,0,0-1.521.767A4.175,4.175,0,0,0,58.354-4.921ZM80.713,0H71.454V-1.837l4.37-4.657A10.78,10.78,0,0,0,77.155-8.21,2.757,2.757,0,0,0,77.586-9.6a2.063,2.063,0,0,0-.455-1.415,1.641,1.641,0,0,0-1.3-.515,1.77,1.77,0,0,0-1.433.626,2.481,2.481,0,0,0-.524,1.647h-2.69a4.428,4.428,0,0,1,.589-2.254,4.152,4.152,0,0,1,1.665-1.6,5.062,5.062,0,0,1,2.44-.58,4.793,4.793,0,0,1,3.242,1,3.545,3.545,0,0,1,1.155,2.83,4.542,4.542,0,0,1-.52,2.041A11.342,11.342,0,0,1,77.976-5.4L74.905-2.162h5.808Z" transform="translate(382.451 1185.612)" fill="#12263f"/>
    <path id="Trazado_199867" data-name="Trazado 199867" d="M11.43-13.508v8.9A4.555,4.555,0,0,1,10.043-1.1,5.347,5.347,0,0,1,6.253.186,5.407,5.407,0,0,1,2.5-1.067,4.477,4.477,0,0,1,1.076-4.509v-9H3.859v8.916a2.574,2.574,0,0,0,.635,1.934,2.44,2.44,0,0,0,1.758.608q2.347,0,2.384-2.468v-8.99ZM18.972-2.774a.864.864,0,0,0-.487-.775,5.533,5.533,0,0,0-1.563-.506Q13.341-4.806,13.341-7.1a2.758,2.758,0,0,1,1.109-2.231,4.472,4.472,0,0,1,2.9-.9,4.813,4.813,0,0,1,3.057.9,2.836,2.836,0,0,1,1.146,2.338H18.87a1.3,1.3,0,0,0-.371-.951,1.57,1.57,0,0,0-1.16-.376,1.6,1.6,0,0,0-1.048.306.966.966,0,0,0-.371.779.826.826,0,0,0,.422.719,4.342,4.342,0,0,0,1.424.473,11.632,11.632,0,0,1,1.688.45,2.774,2.774,0,0,1,2.125,2.7A2.618,2.618,0,0,1,20.4-.663a5.083,5.083,0,0,1-3.043.849,5.309,5.309,0,0,1-2.24-.45A3.759,3.759,0,0,1,13.582-1.5a2.867,2.867,0,0,1-.557-1.693h2.542A1.4,1.4,0,0,0,16.1-2.1a2.1,2.1,0,0,0,1.317.38,1.941,1.941,0,0,0,1.164-.292A.909.909,0,0,0,18.972-2.774ZM29.316-1.021A3.362,3.362,0,0,1,26.57.186a3.171,3.171,0,0,1-2.463-.928A3.96,3.96,0,0,1,23.24-3.46v-6.578h2.681v6.492q0,1.57,1.429,1.57a1.936,1.936,0,0,0,1.874-.947v-7.115h2.69V0H29.391ZM39.753,0a2.977,2.977,0,0,1-.269-.9A3.244,3.244,0,0,1,36.952.186a3.564,3.564,0,0,1-2.445-.854,2.745,2.745,0,0,1-.969-2.152A2.837,2.837,0,0,1,34.72-5.27a5.837,5.837,0,0,1,3.419-.863h1.234v-.575a1.654,1.654,0,0,0-.357-1.113,1.405,1.405,0,0,0-1.127-.417,1.6,1.6,0,0,0-1.062.325,1.1,1.1,0,0,0-.385.891H33.76A2.693,2.693,0,0,1,34.3-8.637,3.557,3.557,0,0,1,35.82-9.8a5.545,5.545,0,0,1,2.208-.422,4.381,4.381,0,0,1,2.946.932,3.262,3.262,0,0,1,1.09,2.621v4.351a4.8,4.8,0,0,0,.4,2.162V0ZM37.536-1.865a2.309,2.309,0,0,0,1.095-.264,1.737,1.737,0,0,0,.742-.71V-4.564h-1q-2.013,0-2.143,1.392l-.009.158a1.073,1.073,0,0,0,.353.826A1.369,1.369,0,0,0,37.536-1.865ZM49.764-7.524A7.284,7.284,0,0,0,48.8-7.6,1.964,1.964,0,0,0,46.8-6.568V0H44.123V-10.038h2.533l.074,1.2a2.484,2.484,0,0,1,2.236-1.382,2.809,2.809,0,0,1,.835.121ZM53.883,0h-2.69V-10.038h2.69ZM51.035-12.636a1.32,1.32,0,0,1,.4-.993,1.516,1.516,0,0,1,1.1-.39,1.52,1.52,0,0,1,1.095.39,1.313,1.313,0,0,1,.408.993,1.316,1.316,0,0,1-.413,1,1.523,1.523,0,0,1-1.09.39,1.523,1.523,0,0,1-1.09-.39A1.316,1.316,0,0,1,51.035-12.636Zm4.639,7.524a5.953,5.953,0,0,1,.575-2.663A4.211,4.211,0,0,1,57.9-9.583a4.831,4.831,0,0,1,2.51-.64A4.571,4.571,0,0,1,63.731-8.98,4.989,4.989,0,0,1,65.164-5.6l.019.687a5.247,5.247,0,0,1-1.29,3.706,4.482,4.482,0,0,1-3.46,1.4,4.5,4.5,0,0,1-3.465-1.392,5.339,5.339,0,0,1-1.294-3.785Zm2.681.19a3.752,3.752,0,0,0,.538,2.188,1.775,1.775,0,0,0,1.54.757,1.779,1.779,0,0,0,1.521-.748A4.106,4.106,0,0,0,62.5-5.117a3.715,3.715,0,0,0-.547-2.174,1.779,1.779,0,0,0-1.54-.771,1.75,1.75,0,0,0-1.521.767A4.175,4.175,0,0,0,58.354-4.921ZM80.713,0H71.454V-1.837l4.37-4.657A10.78,10.78,0,0,0,77.155-8.21,2.757,2.757,0,0,0,77.586-9.6a2.063,2.063,0,0,0-.455-1.415,1.641,1.641,0,0,0-1.3-.515,1.77,1.77,0,0,0-1.433.626,2.481,2.481,0,0,0-.524,1.647h-2.69a4.428,4.428,0,0,1,.589-2.254,4.152,4.152,0,0,1,1.665-1.6,5.062,5.062,0,0,1,2.44-.58,4.793,4.793,0,0,1,3.242,1,3.545,3.545,0,0,1,1.155,2.83,4.542,4.542,0,0,1-.52,2.041A11.342,11.342,0,0,1,77.976-5.4L74.905-2.162h5.808Z" transform="translate(933.541 1185.612)" fill="#12263f"/>
    <path id="Trazado_199866" data-name="Trazado 199866" d="M-31.446-13.508l3.47,9.8,3.451-9.8h3.655V0h-2.792V-3.692l.278-6.374L-27.03,0h-1.911l-3.637-10.057.278,6.364V0h-2.783V-13.508ZM-13.995.186A4.928,4.928,0,0,1-17.59-1.169a4.815,4.815,0,0,1-1.387-3.609v-.26a6.064,6.064,0,0,1,.584-2.7,4.289,4.289,0,0,1,1.656-1.837,4.648,4.648,0,0,1,2.445-.645,4.166,4.166,0,0,1,3.242,1.3A5.278,5.278,0,0,1-9.866-5.242v1.095h-6.392a2.491,2.491,0,0,0,.784,1.577,2.37,2.37,0,0,0,1.656.594A2.894,2.894,0,0,0-11.4-3.1l1.317,1.475A4.025,4.025,0,0,1-11.713-.292,5.357,5.357,0,0,1-13.995.186ZM-14.3-8.062a1.675,1.675,0,0,0-1.294.54,2.8,2.8,0,0,0-.635,1.547H-12.5v-.214a2,2,0,0,0-.482-1.384A1.729,1.729,0,0,0-14.3-8.062ZM-2.908-2.774A.864.864,0,0,0-3.4-3.549a5.533,5.533,0,0,0-1.563-.506Q-8.54-4.806-8.54-7.1A2.758,2.758,0,0,1-7.431-9.328a4.472,4.472,0,0,1,2.9-.9,4.813,4.813,0,0,1,3.057.9A2.836,2.836,0,0,1-.329-6.986H-3.01a1.3,1.3,0,0,0-.371-.951,1.57,1.57,0,0,0-1.16-.376,1.6,1.6,0,0,0-1.048.306.966.966,0,0,0-.371.779.826.826,0,0,0,.422.719,4.342,4.342,0,0,0,1.424.473,11.632,11.632,0,0,1,1.688.45A2.774,2.774,0,0,1-.3-2.885,2.618,2.618,0,0,1-1.48-.663,5.083,5.083,0,0,1-4.523.186a5.309,5.309,0,0,1-2.24-.45A3.759,3.759,0,0,1-8.3-1.5a2.867,2.867,0,0,1-.557-1.693h2.542A1.4,1.4,0,0,0-5.784-2.1a2.1,2.1,0,0,0,1.317.38A1.941,1.941,0,0,0-3.3-2.009.909.909,0,0,0-2.908-2.774ZM7.241,0a2.977,2.977,0,0,1-.269-.9A3.244,3.244,0,0,1,4.439.186,3.564,3.564,0,0,1,1.995-.668,2.745,2.745,0,0,1,1.025-2.82,2.837,2.837,0,0,1,2.208-5.27a5.837,5.837,0,0,1,3.419-.863H6.861v-.575A1.654,1.654,0,0,0,6.5-7.821a1.405,1.405,0,0,0-1.127-.417,1.6,1.6,0,0,0-1.062.325,1.1,1.1,0,0,0-.385.891H1.248a2.693,2.693,0,0,1,.538-1.614A3.557,3.557,0,0,1,3.307-9.8a5.545,5.545,0,0,1,2.208-.422,4.381,4.381,0,0,1,2.946.932A3.262,3.262,0,0,1,9.551-6.67v4.351a4.8,4.8,0,0,0,.4,2.162V0ZM5.024-1.865a2.309,2.309,0,0,0,1.095-.264,1.737,1.737,0,0,0,.742-.71V-4.564h-1q-2.013,0-2.143,1.392l-.009.158a1.073,1.073,0,0,0,.353.826A1.369,1.369,0,0,0,5.024-1.865Zm10.9-3.229a6.049,6.049,0,0,1,1.053-3.739,3.417,3.417,0,0,1,2.881-1.392A3.074,3.074,0,0,1,22.28-9.129V-14.25h2.69V0H22.549l-.13-1.067A3.155,3.155,0,0,1,19.84.186,3.407,3.407,0,0,1,17-1.211,6.244,6.244,0,0,1,15.925-5.093Zm2.681.191A3.984,3.984,0,0,0,19.1-2.731a1.6,1.6,0,0,0,1.429.755A1.793,1.793,0,0,0,22.28-3.029v-3.98a1.768,1.768,0,0,0-1.735-1.053Q18.606-8.062,18.606-4.9ZM31.668.186a4.928,4.928,0,0,1-3.595-1.354,4.815,4.815,0,0,1-1.387-3.609v-.26a6.064,6.064,0,0,1,.584-2.7,4.289,4.289,0,0,1,1.656-1.837,4.648,4.648,0,0,1,2.445-.645,4.166,4.166,0,0,1,3.242,1.3A5.278,5.278,0,0,1,35.8-5.242v1.095H29.4a2.491,2.491,0,0,0,.784,1.577,2.37,2.37,0,0,0,1.656.594A2.894,2.894,0,0,0,34.266-3.1l1.317,1.475A4.025,4.025,0,0,1,33.95-.292,5.357,5.357,0,0,1,31.668.186Zm-.306-8.248a1.675,1.675,0,0,0-1.294.54,2.8,2.8,0,0,0-.635,1.547h3.729v-.214a2,2,0,0,0-.482-1.384A1.729,1.729,0,0,0,31.362-8.062ZM-39.967,17.226a.864.864,0,0,0-.487-.775,5.533,5.533,0,0,0-1.563-.506Q-45.6,15.194-45.6,12.9a2.758,2.758,0,0,1,1.109-2.231,4.472,4.472,0,0,1,2.9-.9,4.813,4.813,0,0,1,3.057.9,2.836,2.836,0,0,1,1.146,2.338h-2.681a1.3,1.3,0,0,0-.371-.951,1.57,1.57,0,0,0-1.16-.376,1.6,1.6,0,0,0-1.048.306.966.966,0,0,0-.371.779.826.826,0,0,0,.422.719,4.342,4.342,0,0,0,1.424.473,11.632,11.632,0,0,1,1.688.45,2.774,2.774,0,0,1,2.125,2.7,2.618,2.618,0,0,1-1.178,2.222,5.083,5.083,0,0,1-3.043.849,5.309,5.309,0,0,1-2.24-.45A3.759,3.759,0,0,1-45.357,18.5a2.867,2.867,0,0,1-.557-1.693h2.542a1.4,1.4,0,0,0,.529,1.095,2.1,2.1,0,0,0,1.317.38,1.941,1.941,0,0,0,1.164-.292A.909.909,0,0,0-39.967,17.226Zm8.953,2.959a4.928,4.928,0,0,1-3.595-1.354A4.815,4.815,0,0,1-36,15.222v-.26a6.064,6.064,0,0,1,.584-2.7,4.289,4.289,0,0,1,1.656-1.837,4.648,4.648,0,0,1,2.445-.645,4.166,4.166,0,0,1,3.242,1.3,5.278,5.278,0,0,1,1.183,3.683v1.095h-6.392a2.491,2.491,0,0,0,.784,1.577,2.37,2.37,0,0,0,1.656.594A2.894,2.894,0,0,0-28.417,16.9l1.317,1.475a4.025,4.025,0,0,1-1.633,1.331A5.357,5.357,0,0,1-31.014,20.186Zm-.306-8.248a1.675,1.675,0,0,0-1.294.54,2.8,2.8,0,0,0-.635,1.547h3.729v-.214A2,2,0,0,0-30,12.427,1.729,1.729,0,0,0-31.32,11.938Zm11.6.538a7.284,7.284,0,0,0-.965-.074,1.964,1.964,0,0,0-1.995,1.03V20h-2.681V9.962h2.533l.074,1.2a2.484,2.484,0,0,1,2.236-1.382,2.809,2.809,0,0,1,.835.121Zm5.214,4.249,1.865-6.763h2.8L-13.229,20H-15.79L-19.176,9.962h2.8ZM-5.835,20h-2.69V9.962h2.69ZM-8.684,7.364a1.32,1.32,0,0,1,.4-.993,1.516,1.516,0,0,1,1.1-.39,1.52,1.52,0,0,1,1.095.39,1.313,1.313,0,0,1,.408.993,1.316,1.316,0,0,1-.413,1,1.523,1.523,0,0,1-1.09.39,1.523,1.523,0,0,1-1.09-.39A1.316,1.316,0,0,1-8.684,7.364ZM.547,18.024a1.759,1.759,0,0,0,1.206-.408,1.43,1.43,0,0,0,.482-1.085H4.75A3.439,3.439,0,0,1,4.193,18.4a3.673,3.673,0,0,1-1.5,1.317,4.689,4.689,0,0,1-2.1.469,4.358,4.358,0,0,1-3.4-1.368,5.415,5.415,0,0,1-1.243-3.781V14.86a5.353,5.353,0,0,1,1.234-3.7A4.307,4.307,0,0,1,.575,9.776a4.222,4.222,0,0,1,3.02,1.072A3.794,3.794,0,0,1,4.75,13.7H2.236a1.842,1.842,0,0,0-.482-1.273,1.608,1.608,0,0,0-1.225-.49,1.615,1.615,0,0,0-1.415.683,3.958,3.958,0,0,0-.478,2.216v.279a4.008,4.008,0,0,0,.473,2.23A1.635,1.635,0,0,0,.547,18.024ZM9.11,20H6.42V9.962H9.11ZM6.262,7.364a1.32,1.32,0,0,1,.4-.993,1.516,1.516,0,0,1,1.1-.39,1.52,1.52,0,0,1,1.095.39,1.313,1.313,0,0,1,.408.993,1.316,1.316,0,0,1-.413,1,1.523,1.523,0,0,1-1.09.39,1.523,1.523,0,0,1-1.09-.39A1.316,1.316,0,0,1,6.262,7.364ZM10.9,14.888a5.953,5.953,0,0,1,.575-2.663,4.211,4.211,0,0,1,1.656-1.809,4.831,4.831,0,0,1,2.51-.64,4.571,4.571,0,0,1,3.317,1.243A4.989,4.989,0,0,1,20.392,14.4l.019.687a5.247,5.247,0,0,1-1.29,3.706,4.482,4.482,0,0,1-3.46,1.4A4.5,4.5,0,0,1,12.2,18.794,5.339,5.339,0,0,1,10.9,15.009Zm2.681.19a3.752,3.752,0,0,0,.538,2.188,1.933,1.933,0,0,0,3.062.009,4.106,4.106,0,0,0,.547-2.393,3.715,3.715,0,0,0-.547-2.174,1.779,1.779,0,0,0-1.54-.771,1.75,1.75,0,0,0-1.521.767A4.175,4.175,0,0,0,13.582,15.079ZM27.5,17.226a.864.864,0,0,0-.487-.775,5.533,5.533,0,0,0-1.563-.506q-3.581-.751-3.581-3.043a2.758,2.758,0,0,1,1.109-2.231,4.472,4.472,0,0,1,2.9-.9,4.813,4.813,0,0,1,3.057.9,2.836,2.836,0,0,1,1.146,2.338H27.4a1.3,1.3,0,0,0-.371-.951,1.57,1.57,0,0,0-1.16-.376,1.6,1.6,0,0,0-1.048.306.966.966,0,0,0-.371.779.826.826,0,0,0,.422.719,4.342,4.342,0,0,0,1.424.473,11.632,11.632,0,0,1,1.688.45,2.774,2.774,0,0,1,2.125,2.7,2.618,2.618,0,0,1-1.178,2.222,5.083,5.083,0,0,1-3.043.849,5.309,5.309,0,0,1-2.24-.45A3.759,3.759,0,0,1,22.108,18.5a2.867,2.867,0,0,1-.557-1.693h2.542a1.4,1.4,0,0,0,.529,1.095,2.1,2.1,0,0,0,1.317.38,1.941,1.941,0,0,0,1.164-.292A.909.909,0,0,0,27.5,17.226ZM42.963,20H40.282V9.651l-3.2.988V8.478l5.594-2h.288Z" transform="translate(527.084 1399.369)" fill="#12263f"/>
    <path id="Trazado_199869" data-name="Trazado 199869" d="M-31.446-13.508l3.47,9.8,3.451-9.8h3.655V0h-2.792V-3.692l.278-6.374L-27.03,0h-1.911l-3.637-10.057.278,6.364V0h-2.783V-13.508ZM-13.995.186A4.928,4.928,0,0,1-17.59-1.169a4.815,4.815,0,0,1-1.387-3.609v-.26a6.064,6.064,0,0,1,.584-2.7,4.289,4.289,0,0,1,1.656-1.837,4.648,4.648,0,0,1,2.445-.645,4.166,4.166,0,0,1,3.242,1.3A5.278,5.278,0,0,1-9.866-5.242v1.095h-6.392a2.491,2.491,0,0,0,.784,1.577,2.37,2.37,0,0,0,1.656.594A2.894,2.894,0,0,0-11.4-3.1l1.317,1.475A4.025,4.025,0,0,1-11.713-.292,5.357,5.357,0,0,1-13.995.186ZM-14.3-8.062a1.675,1.675,0,0,0-1.294.54,2.8,2.8,0,0,0-.635,1.547H-12.5v-.214a2,2,0,0,0-.482-1.384A1.729,1.729,0,0,0-14.3-8.062ZM-2.908-2.774A.864.864,0,0,0-3.4-3.549a5.533,5.533,0,0,0-1.563-.506Q-8.54-4.806-8.54-7.1A2.758,2.758,0,0,1-7.431-9.328a4.472,4.472,0,0,1,2.9-.9,4.813,4.813,0,0,1,3.057.9A2.836,2.836,0,0,1-.329-6.986H-3.01a1.3,1.3,0,0,0-.371-.951,1.57,1.57,0,0,0-1.16-.376,1.6,1.6,0,0,0-1.048.306.966.966,0,0,0-.371.779.826.826,0,0,0,.422.719,4.342,4.342,0,0,0,1.424.473,11.632,11.632,0,0,1,1.688.45A2.774,2.774,0,0,1-.3-2.885,2.618,2.618,0,0,1-1.48-.663,5.083,5.083,0,0,1-4.523.186a5.309,5.309,0,0,1-2.24-.45A3.759,3.759,0,0,1-8.3-1.5a2.867,2.867,0,0,1-.557-1.693h2.542A1.4,1.4,0,0,0-5.784-2.1a2.1,2.1,0,0,0,1.317.38A1.941,1.941,0,0,0-3.3-2.009.909.909,0,0,0-2.908-2.774ZM7.241,0a2.977,2.977,0,0,1-.269-.9A3.244,3.244,0,0,1,4.439.186,3.564,3.564,0,0,1,1.995-.668,2.745,2.745,0,0,1,1.025-2.82,2.837,2.837,0,0,1,2.208-5.27a5.837,5.837,0,0,1,3.419-.863H6.861v-.575A1.654,1.654,0,0,0,6.5-7.821a1.405,1.405,0,0,0-1.127-.417,1.6,1.6,0,0,0-1.062.325,1.1,1.1,0,0,0-.385.891H1.248a2.693,2.693,0,0,1,.538-1.614A3.557,3.557,0,0,1,3.307-9.8a5.545,5.545,0,0,1,2.208-.422,4.381,4.381,0,0,1,2.946.932A3.262,3.262,0,0,1,9.551-6.67v4.351a4.8,4.8,0,0,0,.4,2.162V0ZM5.024-1.865a2.309,2.309,0,0,0,1.095-.264,1.737,1.737,0,0,0,.742-.71V-4.564h-1q-2.013,0-2.143,1.392l-.009.158a1.073,1.073,0,0,0,.353.826A1.369,1.369,0,0,0,5.024-1.865Zm10.9-3.229a6.049,6.049,0,0,1,1.053-3.739,3.417,3.417,0,0,1,2.881-1.392A3.074,3.074,0,0,1,22.28-9.129V-14.25h2.69V0H22.549l-.13-1.067A3.155,3.155,0,0,1,19.84.186,3.407,3.407,0,0,1,17-1.211,6.244,6.244,0,0,1,15.925-5.093Zm2.681.191A3.984,3.984,0,0,0,19.1-2.731a1.6,1.6,0,0,0,1.429.755A1.793,1.793,0,0,0,22.28-3.029v-3.98a1.768,1.768,0,0,0-1.735-1.053Q18.606-8.062,18.606-4.9ZM31.668.186a4.928,4.928,0,0,1-3.595-1.354,4.815,4.815,0,0,1-1.387-3.609v-.26a6.064,6.064,0,0,1,.584-2.7,4.289,4.289,0,0,1,1.656-1.837,4.648,4.648,0,0,1,2.445-.645,4.166,4.166,0,0,1,3.242,1.3A5.278,5.278,0,0,1,35.8-5.242v1.095H29.4a2.491,2.491,0,0,0,.784,1.577,2.37,2.37,0,0,0,1.656.594A2.894,2.894,0,0,0,34.266-3.1l1.317,1.475A4.025,4.025,0,0,1,33.95-.292,5.357,5.357,0,0,1,31.668.186Zm-.306-8.248a1.675,1.675,0,0,0-1.294.54,2.8,2.8,0,0,0-.635,1.547h3.729v-.214a2,2,0,0,0-.482-1.384A1.729,1.729,0,0,0,31.362-8.062ZM-39.967,17.226a.864.864,0,0,0-.487-.775,5.533,5.533,0,0,0-1.563-.506Q-45.6,15.194-45.6,12.9a2.758,2.758,0,0,1,1.109-2.231,4.472,4.472,0,0,1,2.9-.9,4.813,4.813,0,0,1,3.057.9,2.836,2.836,0,0,1,1.146,2.338h-2.681a1.3,1.3,0,0,0-.371-.951,1.57,1.57,0,0,0-1.16-.376,1.6,1.6,0,0,0-1.048.306.966.966,0,0,0-.371.779.826.826,0,0,0,.422.719,4.342,4.342,0,0,0,1.424.473,11.632,11.632,0,0,1,1.688.45,2.774,2.774,0,0,1,2.125,2.7,2.618,2.618,0,0,1-1.178,2.222,5.083,5.083,0,0,1-3.043.849,5.309,5.309,0,0,1-2.24-.45A3.759,3.759,0,0,1-45.357,18.5a2.867,2.867,0,0,1-.557-1.693h2.542a1.4,1.4,0,0,0,.529,1.095,2.1,2.1,0,0,0,1.317.38,1.941,1.941,0,0,0,1.164-.292A.909.909,0,0,0-39.967,17.226Zm8.953,2.959a4.928,4.928,0,0,1-3.595-1.354A4.815,4.815,0,0,1-36,15.222v-.26a6.064,6.064,0,0,1,.584-2.7,4.289,4.289,0,0,1,1.656-1.837,4.648,4.648,0,0,1,2.445-.645,4.166,4.166,0,0,1,3.242,1.3,5.278,5.278,0,0,1,1.183,3.683v1.095h-6.392a2.491,2.491,0,0,0,.784,1.577,2.37,2.37,0,0,0,1.656.594A2.894,2.894,0,0,0-28.417,16.9l1.317,1.475a4.025,4.025,0,0,1-1.633,1.331A5.357,5.357,0,0,1-31.014,20.186Zm-.306-8.248a1.675,1.675,0,0,0-1.294.54,2.8,2.8,0,0,0-.635,1.547h3.729v-.214A2,2,0,0,0-30,12.427,1.729,1.729,0,0,0-31.32,11.938Zm11.6.538a7.284,7.284,0,0,0-.965-.074,1.964,1.964,0,0,0-1.995,1.03V20h-2.681V9.962h2.533l.074,1.2a2.484,2.484,0,0,1,2.236-1.382,2.809,2.809,0,0,1,.835.121Zm5.214,4.249,1.865-6.763h2.8L-13.229,20H-15.79L-19.176,9.962h2.8ZM-5.835,20h-2.69V9.962h2.69ZM-8.684,7.364a1.32,1.32,0,0,1,.4-.993,1.516,1.516,0,0,1,1.1-.39,1.52,1.52,0,0,1,1.095.39,1.313,1.313,0,0,1,.408.993,1.316,1.316,0,0,1-.413,1,1.523,1.523,0,0,1-1.09.39,1.523,1.523,0,0,1-1.09-.39A1.316,1.316,0,0,1-8.684,7.364ZM.547,18.024a1.759,1.759,0,0,0,1.206-.408,1.43,1.43,0,0,0,.482-1.085H4.75A3.439,3.439,0,0,1,4.193,18.4a3.673,3.673,0,0,1-1.5,1.317,4.689,4.689,0,0,1-2.1.469,4.358,4.358,0,0,1-3.4-1.368,5.415,5.415,0,0,1-1.243-3.781V14.86a5.353,5.353,0,0,1,1.234-3.7A4.307,4.307,0,0,1,.575,9.776a4.222,4.222,0,0,1,3.02,1.072A3.794,3.794,0,0,1,4.75,13.7H2.236a1.842,1.842,0,0,0-.482-1.273,1.608,1.608,0,0,0-1.225-.49,1.615,1.615,0,0,0-1.415.683,3.958,3.958,0,0,0-.478,2.216v.279a4.008,4.008,0,0,0,.473,2.23A1.635,1.635,0,0,0,.547,18.024ZM9.11,20H6.42V9.962H9.11ZM6.262,7.364a1.32,1.32,0,0,1,.4-.993,1.516,1.516,0,0,1,1.1-.39,1.52,1.52,0,0,1,1.095.39,1.313,1.313,0,0,1,.408.993,1.316,1.316,0,0,1-.413,1,1.523,1.523,0,0,1-1.09.39,1.523,1.523,0,0,1-1.09-.39A1.316,1.316,0,0,1,6.262,7.364ZM10.9,14.888a5.953,5.953,0,0,1,.575-2.663,4.211,4.211,0,0,1,1.656-1.809,4.831,4.831,0,0,1,2.51-.64,4.571,4.571,0,0,1,3.317,1.243A4.989,4.989,0,0,1,20.392,14.4l.019.687a5.247,5.247,0,0,1-1.29,3.706,4.482,4.482,0,0,1-3.46,1.4A4.5,4.5,0,0,1,12.2,18.794,5.339,5.339,0,0,1,10.9,15.009Zm2.681.19a3.752,3.752,0,0,0,.538,2.188,1.933,1.933,0,0,0,3.062.009,4.106,4.106,0,0,0,.547-2.393,3.715,3.715,0,0,0-.547-2.174,1.779,1.779,0,0,0-1.54-.771,1.75,1.75,0,0,0-1.521.767A4.175,4.175,0,0,0,13.582,15.079ZM27.5,17.226a.864.864,0,0,0-.487-.775,5.533,5.533,0,0,0-1.563-.506q-3.581-.751-3.581-3.043a2.758,2.758,0,0,1,1.109-2.231,4.472,4.472,0,0,1,2.9-.9,4.813,4.813,0,0,1,3.057.9,2.836,2.836,0,0,1,1.146,2.338H27.4a1.3,1.3,0,0,0-.371-.951,1.57,1.57,0,0,0-1.16-.376,1.6,1.6,0,0,0-1.048.306.966.966,0,0,0-.371.779.826.826,0,0,0,.422.719,4.342,4.342,0,0,0,1.424.473,11.632,11.632,0,0,1,1.688.45,2.774,2.774,0,0,1,2.125,2.7,2.618,2.618,0,0,1-1.178,2.222,5.083,5.083,0,0,1-3.043.849,5.309,5.309,0,0,1-2.24-.45A3.759,3.759,0,0,1,22.108,18.5a2.867,2.867,0,0,1-.557-1.693h2.542a1.4,1.4,0,0,0,.529,1.095,2.1,2.1,0,0,0,1.317.38,1.941,1.941,0,0,0,1.164-.292A.909.909,0,0,0,27.5,17.226ZM45.709,20H36.451V18.163l4.37-4.657a10.78,10.78,0,0,0,1.331-1.716,2.757,2.757,0,0,0,.431-1.392,2.063,2.063,0,0,0-.455-1.415,1.641,1.641,0,0,0-1.3-.515,1.77,1.77,0,0,0-1.433.626,2.481,2.481,0,0,0-.524,1.647h-2.69a4.428,4.428,0,0,1,.589-2.254,4.152,4.152,0,0,1,1.665-1.6,5.062,5.062,0,0,1,2.44-.58,4.793,4.793,0,0,1,3.242,1,3.545,3.545,0,0,1,1.155,2.83,4.542,4.542,0,0,1-.52,2.041A11.342,11.342,0,0,1,42.973,14.6L39.9,17.838h5.808Z" transform="translate(1078.175 1399.369)" fill="#12263f"/>
    <path id="Trazado_199870" data-name="Trazado 199870" d="M-48.112-13.508l3.47,9.8,3.451-9.8h3.655V0h-2.792V-3.692l.278-6.374L-43.7,0h-1.911l-3.637-10.057.278,6.364V0h-2.783V-13.508ZM-30.662.186a4.928,4.928,0,0,1-3.595-1.354,4.815,4.815,0,0,1-1.387-3.609v-.26a6.064,6.064,0,0,1,.584-2.7A4.289,4.289,0,0,1-33.4-9.579a4.648,4.648,0,0,1,2.445-.645,4.166,4.166,0,0,1,3.242,1.3,5.278,5.278,0,0,1,1.183,3.683v1.095h-6.392a2.491,2.491,0,0,0,.784,1.577,2.37,2.37,0,0,0,1.656.594A2.894,2.894,0,0,0-28.064-3.1l1.317,1.475A4.025,4.025,0,0,1-28.379-.292,5.357,5.357,0,0,1-30.662.186Zm-.306-8.248a1.675,1.675,0,0,0-1.294.54A2.8,2.8,0,0,0-32.9-5.975h3.729v-.214a2,2,0,0,0-.482-1.384A1.729,1.729,0,0,0-30.968-8.062Zm11.393,5.288a.864.864,0,0,0-.487-.775,5.533,5.533,0,0,0-1.563-.506q-3.581-.751-3.581-3.043A2.758,2.758,0,0,1-24.1-9.328a4.472,4.472,0,0,1,2.9-.9,4.813,4.813,0,0,1,3.057.9A2.836,2.836,0,0,1-17-6.986h-2.681a1.3,1.3,0,0,0-.371-.951,1.57,1.57,0,0,0-1.16-.376,1.6,1.6,0,0,0-1.048.306.966.966,0,0,0-.371.779.826.826,0,0,0,.422.719,4.342,4.342,0,0,0,1.424.473,11.632,11.632,0,0,1,1.688.45,2.774,2.774,0,0,1,2.125,2.7A2.618,2.618,0,0,1-18.146-.663a5.083,5.083,0,0,1-3.043.849,5.309,5.309,0,0,1-2.24-.45A3.759,3.759,0,0,1-24.965-1.5a2.867,2.867,0,0,1-.557-1.693h2.542A1.4,1.4,0,0,0-22.451-2.1a2.1,2.1,0,0,0,1.317.38,1.941,1.941,0,0,0,1.164-.292A.909.909,0,0,0-19.575-2.774ZM-9.426,0a2.977,2.977,0,0,1-.269-.9A3.244,3.244,0,0,1-12.228.186a3.564,3.564,0,0,1-2.445-.854,2.745,2.745,0,0,1-.969-2.152A2.837,2.837,0,0,1-14.459-5.27a5.837,5.837,0,0,1,3.419-.863h1.234v-.575a1.654,1.654,0,0,0-.357-1.113,1.405,1.405,0,0,0-1.127-.417,1.6,1.6,0,0,0-1.062.325,1.1,1.1,0,0,0-.385.891h-2.681a2.693,2.693,0,0,1,.538-1.614A3.557,3.557,0,0,1-13.359-9.8a5.545,5.545,0,0,1,2.208-.422,4.381,4.381,0,0,1,2.946.932A3.262,3.262,0,0,1-7.116-6.67v4.351a4.8,4.8,0,0,0,.4,2.162V0Zm-2.217-1.865a2.309,2.309,0,0,0,1.095-.264,1.737,1.737,0,0,0,.742-.71V-4.564h-1q-2.013,0-2.143,1.392l-.009.158a1.073,1.073,0,0,0,.353.826A1.369,1.369,0,0,0-11.643-1.865ZM3.433-3.275,5.3-10.038H8.1L4.713,0H2.152L-1.234-10.038h2.8ZM12.107,0H9.417V-10.038h2.69ZM9.259-12.636a1.32,1.32,0,0,1,.4-.993,1.516,1.516,0,0,1,1.1-.39,1.52,1.52,0,0,1,1.095.39,1.313,1.313,0,0,1,.408.993,1.316,1.316,0,0,1-.413,1,1.523,1.523,0,0,1-1.09.39,1.523,1.523,0,0,1-1.09-.39A1.316,1.316,0,0,1,9.259-12.636Zm10.7,5.112a7.284,7.284,0,0,0-.965-.074A1.964,1.964,0,0,0,17-6.568V0H14.315V-10.038h2.533l.074,1.2a2.484,2.484,0,0,1,2.236-1.382,2.809,2.809,0,0,1,.835.121Zm4.963-4.982v2.468h1.716v1.967H24.919v5.01a1.2,1.2,0,0,0,.213.8,1.072,1.072,0,0,0,.816.241,4.276,4.276,0,0,0,.789-.065V-.056a5.52,5.52,0,0,1-1.624.241,2.56,2.56,0,0,1-2.876-2.848V-8.071H20.772v-1.967h1.466v-2.468ZM34.141-1.021A3.362,3.362,0,0,1,31.395.186a3.171,3.171,0,0,1-2.463-.928,3.96,3.96,0,0,1-.867-2.718v-6.578h2.681v6.492q0,1.57,1.429,1.57a1.936,1.936,0,0,0,1.874-.947v-7.115h2.69V0H34.215ZM44.578,0a2.977,2.977,0,0,1-.269-.9A3.244,3.244,0,0,1,41.776.186a3.564,3.564,0,0,1-2.445-.854,2.745,2.745,0,0,1-.969-2.152A2.837,2.837,0,0,1,39.545-5.27a5.837,5.837,0,0,1,3.419-.863H44.2v-.575a1.654,1.654,0,0,0-.357-1.113,1.405,1.405,0,0,0-1.127-.417,1.6,1.6,0,0,0-1.062.325,1.1,1.1,0,0,0-.385.891H38.584a2.693,2.693,0,0,1,.538-1.614A3.557,3.557,0,0,1,40.644-9.8a5.545,5.545,0,0,1,2.208-.422,4.381,4.381,0,0,1,2.946.932,3.262,3.262,0,0,1,1.09,2.621v4.351a4.8,4.8,0,0,0,.4,2.162V0ZM42.36-1.865a2.309,2.309,0,0,0,1.095-.264,1.737,1.737,0,0,0,.742-.71V-4.564h-1q-2.013,0-2.143,1.392l-.009.158a1.073,1.073,0,0,0,.353.826A1.369,1.369,0,0,0,42.36-1.865ZM51.777,0h-2.69V-14.25h2.69ZM-50.858,14.907a6.049,6.049,0,0,1,1.053-3.739,3.417,3.417,0,0,1,2.881-1.392A3.074,3.074,0,0,1-44.5,10.871V5.75h2.69V20h-2.421l-.13-1.067a3.155,3.155,0,0,1-2.579,1.252,3.407,3.407,0,0,1-2.844-1.4A6.244,6.244,0,0,1-50.858,14.907Zm2.681.191a3.984,3.984,0,0,0,.492,2.171,1.6,1.6,0,0,0,1.429.755A1.793,1.793,0,0,0-44.5,16.971v-3.98a1.768,1.768,0,0,0-1.735-1.053Q-48.177,11.938-48.177,15.1Zm13.063,5.088a4.928,4.928,0,0,1-3.595-1.354A4.815,4.815,0,0,1-40.1,15.222v-.26a6.064,6.064,0,0,1,.584-2.7,4.289,4.289,0,0,1,1.656-1.837,4.648,4.648,0,0,1,2.445-.645,4.166,4.166,0,0,1,3.242,1.3,5.278,5.278,0,0,1,1.183,3.683v1.095h-6.392a2.491,2.491,0,0,0,.784,1.577,2.37,2.37,0,0,0,1.656.594A2.894,2.894,0,0,0-32.517,16.9l1.317,1.475a4.025,4.025,0,0,1-1.633,1.331A5.357,5.357,0,0,1-35.115,20.186Zm-.306-8.248a1.675,1.675,0,0,0-1.294.54,2.8,2.8,0,0,0-.635,1.547h3.729v-.214a2,2,0,0,0-.482-1.384A1.729,1.729,0,0,0-35.421,11.938ZM-19.3,17.226a.864.864,0,0,0-.487-.775,5.533,5.533,0,0,0-1.563-.506q-3.581-.751-3.581-3.043a2.758,2.758,0,0,1,1.109-2.231,4.472,4.472,0,0,1,2.9-.9,4.813,4.813,0,0,1,3.057.9,2.836,2.836,0,0,1,1.146,2.338H-19.4a1.3,1.3,0,0,0-.371-.951,1.57,1.57,0,0,0-1.16-.376,1.6,1.6,0,0,0-1.048.306.966.966,0,0,0-.371.779.826.826,0,0,0,.422.719,4.342,4.342,0,0,0,1.424.473,11.632,11.632,0,0,1,1.688.45,2.774,2.774,0,0,1,2.125,2.7,2.618,2.618,0,0,1-1.178,2.222,5.083,5.083,0,0,1-3.043.849,5.309,5.309,0,0,1-2.24-.45A3.759,3.759,0,0,1-24.687,18.5a2.867,2.867,0,0,1-.557-1.693H-22.7a1.4,1.4,0,0,0,.529,1.095,2.1,2.1,0,0,0,1.317.38,1.941,1.941,0,0,0,1.164-.292A.909.909,0,0,0-19.3,17.226Zm8.953,2.959a4.928,4.928,0,0,1-3.595-1.354,4.815,4.815,0,0,1-1.387-3.609v-.26a6.064,6.064,0,0,1,.584-2.7,4.289,4.289,0,0,1,1.656-1.837,4.648,4.648,0,0,1,2.445-.645,4.166,4.166,0,0,1,3.242,1.3,5.278,5.278,0,0,1,1.183,3.683v1.095h-6.392a2.491,2.491,0,0,0,.784,1.577,2.37,2.37,0,0,0,1.656.594A2.894,2.894,0,0,0-7.747,16.9l1.317,1.475a4.025,4.025,0,0,1-1.633,1.331A5.357,5.357,0,0,1-10.344,20.186Zm-.306-8.248a1.675,1.675,0,0,0-1.294.54,2.8,2.8,0,0,0-.635,1.547h3.729v-.214a2,2,0,0,0-.482-1.384A1.729,1.729,0,0,0-10.65,11.938Zm11.6.538A7.284,7.284,0,0,0-.019,12.4a1.964,1.964,0,0,0-1.995,1.03V20H-4.694V9.962h2.533l.074,1.2A2.484,2.484,0,0,1,.148,9.776,2.809,2.809,0,0,1,.983,9.9ZM6.16,16.725,8.025,9.962h2.8L7.44,20H4.88L1.494,9.962H4.3ZM14.834,20h-2.69V9.962h2.69ZM11.986,7.364a1.32,1.32,0,0,1,.4-.993,1.516,1.516,0,0,1,1.1-.39,1.52,1.52,0,0,1,1.095.39,1.313,1.313,0,0,1,.408.993,1.316,1.316,0,0,1-.413,1,1.523,1.523,0,0,1-1.09.39,1.523,1.523,0,0,1-1.09-.39A1.316,1.316,0,0,1,11.986,7.364Zm9.231,10.66a1.759,1.759,0,0,0,1.206-.408,1.43,1.43,0,0,0,.482-1.085H25.42a3.439,3.439,0,0,1-.557,1.869,3.673,3.673,0,0,1-1.5,1.317,4.689,4.689,0,0,1-2.1.469,4.358,4.358,0,0,1-3.4-1.368,5.415,5.415,0,0,1-1.243-3.781V14.86a5.353,5.353,0,0,1,1.234-3.7,4.307,4.307,0,0,1,3.386-1.382,4.222,4.222,0,0,1,3.02,1.072A3.794,3.794,0,0,1,25.42,13.7H22.906a1.842,1.842,0,0,0-.482-1.273,1.793,1.793,0,0,0-2.639.193,3.958,3.958,0,0,0-.478,2.216v.279a4.008,4.008,0,0,0,.473,2.23A1.635,1.635,0,0,0,21.217,18.024ZM29.78,20H27.09V9.962h2.69ZM26.932,7.364a1.32,1.32,0,0,1,.4-.993,1.739,1.739,0,0,1,2.194,0,1.313,1.313,0,0,1,.408.993,1.316,1.316,0,0,1-.413,1,1.72,1.72,0,0,1-2.18,0A1.316,1.316,0,0,1,26.932,7.364Zm4.639,7.524a5.953,5.953,0,0,1,.575-2.663A4.211,4.211,0,0,1,33.8,10.417a4.831,4.831,0,0,1,2.51-.64,4.571,4.571,0,0,1,3.317,1.243A4.989,4.989,0,0,1,41.062,14.4l.019.687a5.247,5.247,0,0,1-1.29,3.706,4.482,4.482,0,0,1-3.46,1.4,4.5,4.5,0,0,1-3.465-1.392,5.339,5.339,0,0,1-1.294-3.785Zm2.681.19a3.752,3.752,0,0,0,.538,2.188,1.933,1.933,0,0,0,3.062.009,4.106,4.106,0,0,0,.547-2.393,3.715,3.715,0,0,0-.547-2.174,1.779,1.779,0,0,0-1.54-.771,1.75,1.75,0,0,0-1.521.767A4.175,4.175,0,0,0,34.252,15.079Zm13.916,2.148a.864.864,0,0,0-.487-.775,5.533,5.533,0,0,0-1.563-.506q-3.581-.751-3.581-3.043a2.758,2.758,0,0,1,1.109-2.231,4.472,4.472,0,0,1,2.9-.9,4.813,4.813,0,0,1,3.057.9,2.836,2.836,0,0,1,1.146,2.338H48.066a1.3,1.3,0,0,0-.371-.951,1.57,1.57,0,0,0-1.16-.376,1.6,1.6,0,0,0-1.048.306.966.966,0,0,0-.371.779.826.826,0,0,0,.422.719,4.342,4.342,0,0,0,1.424.473,11.632,11.632,0,0,1,1.688.45,2.774,2.774,0,0,1,2.125,2.7A2.618,2.618,0,0,1,49.6,19.337a5.083,5.083,0,0,1-3.043.849,5.309,5.309,0,0,1-2.24-.45A3.759,3.759,0,0,1,42.778,18.5a2.867,2.867,0,0,1-.557-1.693h2.542a1.4,1.4,0,0,0,.529,1.095,2.1,2.1,0,0,0,1.317.38,1.941,1.941,0,0,0,1.164-.292A.909.909,0,0,0,48.168,17.226Z" transform="translate(787.254 1587.036)" fill="#12263f"/>
    <path id="Trazado_199872" data-name="Trazado 199872" d="M-25.763-3.544a1.428,1.428,0,0,0-.557-1.211,7.3,7.3,0,0,0-2-.891,14.206,14.206,0,0,1-2.292-.923,3.744,3.744,0,0,1-2.3-3.349A3.262,3.262,0,0,1-32.3-11.87a4.024,4.024,0,0,1,1.772-1.341,6.669,6.669,0,0,1,2.593-.482,6.071,6.071,0,0,1,2.579.524,4.107,4.107,0,0,1,1.758,1.48,3.872,3.872,0,0,1,.626,2.171h-2.783a1.821,1.821,0,0,0-.584-1.443,2.4,2.4,0,0,0-1.642-.515,2.567,2.567,0,0,0-1.586.431,1.361,1.361,0,0,0-.566,1.136,1.3,1.3,0,0,0,.663,1.1,7.494,7.494,0,0,0,1.953.835A8.438,8.438,0,0,1-24.056-6.2a3.529,3.529,0,0,1,1.085,2.635A3.251,3.251,0,0,1-24.3-.812a5.808,5.808,0,0,1-3.572,1,6.9,6.9,0,0,1-2.839-.571,4.492,4.492,0,0,1-1.953-1.563,4,4,0,0,1-.673-2.3h2.792q0,2.236,2.672,2.236a2.6,2.6,0,0,0,1.549-.4A1.313,1.313,0,0,0-25.763-3.544Zm4.082-1.568a5.953,5.953,0,0,1,.575-2.663A4.211,4.211,0,0,1-19.45-9.583a4.831,4.831,0,0,1,2.51-.64A4.571,4.571,0,0,1-13.624-8.98,4.989,4.989,0,0,1-12.19-5.6l.019.687a5.247,5.247,0,0,1-1.29,3.706,4.482,4.482,0,0,1-3.46,1.4,4.5,4.5,0,0,1-3.465-1.392,5.339,5.339,0,0,1-1.294-3.785Zm2.681.19a3.752,3.752,0,0,0,.538,2.188,1.775,1.775,0,0,0,1.54.757A1.779,1.779,0,0,0-15.4-2.724a4.106,4.106,0,0,0,.547-2.393A3.715,3.715,0,0,0-15.4-7.291a1.779,1.779,0,0,0-1.54-.771,1.75,1.75,0,0,0-1.521.767A4.175,4.175,0,0,0-19-4.921Zm17.516,0A6.02,6.02,0,0,1-2.537-1.211,3.376,3.376,0,0,1-5.381.186,3.127,3.127,0,0,1-7.839-.872V3.859h-2.681v-13.9h2.486l.093.983A3.151,3.151,0,0,1-5.4-10.224,3.4,3.4,0,0,1-2.514-8.851a6.183,6.183,0,0,1,1.03,3.785Zm-2.681-.2a3.972,3.972,0,0,0-.5-2.168A1.615,1.615,0,0,0-6.1-8.062a1.755,1.755,0,0,0-1.735.968v4.122a1.785,1.785,0,0,0,1.753,1Q-4.166-1.976-4.166-5.131Zm3.924.019A5.953,5.953,0,0,1,.334-7.774,4.211,4.211,0,0,1,1.99-9.583a4.831,4.831,0,0,1,2.51-.64A4.571,4.571,0,0,1,7.816-8.98,4.989,4.989,0,0,1,9.25-5.6l.019.687a5.247,5.247,0,0,1-1.29,3.706,4.482,4.482,0,0,1-3.46,1.4A4.5,4.5,0,0,1,1.053-1.206,5.339,5.339,0,0,1-.241-4.991Zm2.681.19a3.752,3.752,0,0,0,.538,2.188,1.775,1.775,0,0,0,1.54.757A1.779,1.779,0,0,0,6.04-2.724a4.106,4.106,0,0,0,.547-2.393A3.715,3.715,0,0,0,6.04-7.291,1.779,1.779,0,0,0,4.5-8.062,1.75,1.75,0,0,0,2.978-7.3,4.175,4.175,0,0,0,2.44-4.921Zm14.12-2.6A7.284,7.284,0,0,0,15.6-7.6,1.964,1.964,0,0,0,13.6-6.568V0H10.919V-10.038h2.533l.074,1.2a2.484,2.484,0,0,1,2.236-1.382,2.809,2.809,0,0,1,.835.121Zm4.963-4.982v2.468H23.24v1.967H21.523v5.01a1.2,1.2,0,0,0,.213.8,1.072,1.072,0,0,0,.816.241,4.276,4.276,0,0,0,.789-.065V-.056a5.52,5.52,0,0,1-1.624.241,2.56,2.56,0,0,1-2.876-2.848V-8.071H17.376v-1.967h1.466v-2.468ZM29.354.186a4.928,4.928,0,0,1-3.595-1.354,4.815,4.815,0,0,1-1.387-3.609v-.26a6.064,6.064,0,0,1,.584-2.7,4.289,4.289,0,0,1,1.656-1.837,4.648,4.648,0,0,1,2.445-.645,4.166,4.166,0,0,1,3.242,1.3,5.278,5.278,0,0,1,1.183,3.683v1.095H27.09a2.491,2.491,0,0,0,.784,1.577,2.37,2.37,0,0,0,1.656.594A2.894,2.894,0,0,0,31.951-3.1l1.317,1.475A4.025,4.025,0,0,1,31.636-.292,5.357,5.357,0,0,1,29.354.186Zm-.306-8.248a1.675,1.675,0,0,0-1.294.54,2.8,2.8,0,0,0-.635,1.547h3.729v-.214a2,2,0,0,0-.482-1.384A1.729,1.729,0,0,0,29.047-8.062ZM-36.864,20a2.977,2.977,0,0,1-.269-.9,3.244,3.244,0,0,1-2.533,1.085,3.564,3.564,0,0,1-2.445-.854,2.745,2.745,0,0,1-.969-2.152A2.837,2.837,0,0,1-41.9,14.73a5.837,5.837,0,0,1,3.419-.863h1.234v-.575a1.654,1.654,0,0,0-.357-1.113,1.405,1.405,0,0,0-1.127-.417,1.6,1.6,0,0,0-1.062.325,1.1,1.1,0,0,0-.385.891h-2.681a2.693,2.693,0,0,1,.538-1.614A3.557,3.557,0,0,1-40.8,10.2a5.545,5.545,0,0,1,2.208-.422,4.381,4.381,0,0,1,2.946.932,3.262,3.262,0,0,1,1.09,2.621v4.351a4.8,4.8,0,0,0,.4,2.162V20Zm-2.217-1.865a2.309,2.309,0,0,0,1.095-.264,1.737,1.737,0,0,0,.742-.71V15.436h-1q-2.013,0-2.143,1.392l-.009.158a1.073,1.073,0,0,0,.353.826A1.369,1.369,0,0,0-39.081,18.135ZM-29.664,20h-2.69V5.75h2.69Zm12.376-2.774a.864.864,0,0,0-.487-.775,5.533,5.533,0,0,0-1.563-.506q-3.581-.751-3.581-3.043a2.758,2.758,0,0,1,1.109-2.231,4.472,4.472,0,0,1,2.9-.9,4.813,4.813,0,0,1,3.057.9,2.836,2.836,0,0,1,1.146,2.338H-17.39a1.3,1.3,0,0,0-.371-.951,1.57,1.57,0,0,0-1.16-.376,1.6,1.6,0,0,0-1.048.306.966.966,0,0,0-.371.779.826.826,0,0,0,.422.719,4.342,4.342,0,0,0,1.424.473,11.632,11.632,0,0,1,1.688.45,2.774,2.774,0,0,1,2.125,2.7,2.618,2.618,0,0,1-1.178,2.222,5.083,5.083,0,0,1-3.043.849,5.309,5.309,0,0,1-2.24-.45A3.759,3.759,0,0,1-22.678,18.5a2.867,2.867,0,0,1-.557-1.693h2.542a1.4,1.4,0,0,0,.529,1.095,2.1,2.1,0,0,0,1.317.38,1.941,1.941,0,0,0,1.164-.292A.909.909,0,0,0-17.288,17.226Zm8.953,2.959a4.928,4.928,0,0,1-3.595-1.354,4.815,4.815,0,0,1-1.387-3.609v-.26a6.064,6.064,0,0,1,.584-2.7,4.289,4.289,0,0,1,1.656-1.837,4.648,4.648,0,0,1,2.445-.645,4.166,4.166,0,0,1,3.242,1.3,5.278,5.278,0,0,1,1.183,3.683v1.095H-10.6a2.491,2.491,0,0,0,.784,1.577,2.37,2.37,0,0,0,1.656.594A2.894,2.894,0,0,0-5.738,16.9l1.317,1.475a4.025,4.025,0,0,1-1.633,1.331A5.357,5.357,0,0,1-8.336,20.186Zm-.306-8.248a1.675,1.675,0,0,0-1.294.54,2.8,2.8,0,0,0-.635,1.547h3.729v-.214a2,2,0,0,0-.482-1.384A1.729,1.729,0,0,0-8.642,11.938Zm11.6.538A7.284,7.284,0,0,0,1.99,12.4,1.964,1.964,0,0,0,0,13.432V20H-2.686V9.962H-.153l.074,1.2A2.484,2.484,0,0,1,2.157,9.776a2.809,2.809,0,0,1,.835.121Zm5.214,4.249,1.865-6.763h2.8L9.449,20H6.888L3.5,9.962H6.3ZM16.843,20h-2.69V9.962h2.69ZM13.995,7.364a1.32,1.32,0,0,1,.4-.993,1.516,1.516,0,0,1,1.1-.39,1.52,1.52,0,0,1,1.095.39A1.313,1.313,0,0,1,17,7.364a1.316,1.316,0,0,1-.413,1,1.72,1.72,0,0,1-2.18,0A1.316,1.316,0,0,1,13.995,7.364Zm9.231,10.66a1.759,1.759,0,0,0,1.206-.408,1.43,1.43,0,0,0,.482-1.085h2.514a3.439,3.439,0,0,1-.557,1.869,3.673,3.673,0,0,1-1.5,1.317,4.689,4.689,0,0,1-2.1.469,4.358,4.358,0,0,1-3.4-1.368,5.415,5.415,0,0,1-1.243-3.781V14.86a5.353,5.353,0,0,1,1.234-3.7,4.307,4.307,0,0,1,3.386-1.382,4.222,4.222,0,0,1,3.02,1.072A3.794,3.794,0,0,1,27.428,13.7H24.914a1.842,1.842,0,0,0-.482-1.273,1.793,1.793,0,0,0-2.639.193,3.958,3.958,0,0,0-.478,2.216v.279a4.008,4.008,0,0,0,.473,2.23A1.635,1.635,0,0,0,23.226,18.024ZM31.789,20H29.1V9.962h2.69ZM28.941,7.364a1.32,1.32,0,0,1,.4-.993,1.739,1.739,0,0,1,2.194,0,1.313,1.313,0,0,1,.408.993,1.316,1.316,0,0,1-.413,1,1.72,1.72,0,0,1-2.18,0A1.316,1.316,0,0,1,28.941,7.364Zm4.639,7.524a5.953,5.953,0,0,1,.575-2.663,4.211,4.211,0,0,1,1.656-1.809,4.831,4.831,0,0,1,2.51-.64,4.571,4.571,0,0,1,3.317,1.243A4.989,4.989,0,0,1,43.07,14.4l.019.687a5.247,5.247,0,0,1-1.29,3.706,4.482,4.482,0,0,1-3.46,1.4,4.5,4.5,0,0,1-3.465-1.392,5.339,5.339,0,0,1-1.294-3.785Zm2.681.19a3.752,3.752,0,0,0,.538,2.188,1.933,1.933,0,0,0,3.062.009,4.106,4.106,0,0,0,.547-2.393,3.715,3.715,0,0,0-.547-2.174,1.779,1.779,0,0,0-1.54-.771A1.75,1.75,0,0,0,36.8,12.7,4.175,4.175,0,0,0,36.26,15.079Z" transform="translate(790.614 1785.841)" fill="#12263f"/>
    <path id="Trazado_199871" data-name="Trazado 199871" d="M-33.872-1.707A4.831,4.831,0,0,1-36-.311a8.9,8.9,0,0,1-3.043.5A6.028,6.028,0,0,1-42.115-.58,5.1,5.1,0,0,1-44.156-2.8a7.82,7.82,0,0,1-.738-3.423v-.918a8.305,8.305,0,0,1,.682-3.5,5.044,5.044,0,0,1,1.967-2.264,5.665,5.665,0,0,1,3.01-.784,5.642,5.642,0,0,1,3.757,1.146,4.9,4.9,0,0,1,1.6,3.335h-2.709a2.693,2.693,0,0,0-.821-1.7,2.622,2.622,0,0,0-1.749-.538,2.468,2.468,0,0,0-2.162,1.067,5.61,5.61,0,0,0-.751,3.173v.863a5.341,5.341,0,0,0,.807,3.21A2.764,2.764,0,0,0-38.891-2.05a3.087,3.087,0,0,0,2.236-.668V-5.047h-2.533V-7.1h5.316Zm6.7,1.893a4.928,4.928,0,0,1-3.595-1.354,4.815,4.815,0,0,1-1.387-3.609v-.26a6.064,6.064,0,0,1,.584-2.7,4.289,4.289,0,0,1,1.656-1.837,4.648,4.648,0,0,1,2.445-.645,4.166,4.166,0,0,1,3.242,1.3,5.278,5.278,0,0,1,1.183,3.683v1.095h-6.392a2.491,2.491,0,0,0,.784,1.577A2.37,2.37,0,0,0-27-1.976,2.894,2.894,0,0,0-24.576-3.1l1.317,1.475A4.025,4.025,0,0,1-24.891-.292,5.357,5.357,0,0,1-27.173.186Zm-.306-8.248a1.675,1.675,0,0,0-1.294.54,2.8,2.8,0,0,0-.635,1.547h3.729v-.214a2,2,0,0,0-.482-1.384A1.729,1.729,0,0,0-27.479-8.062Zm11.393,5.288a.864.864,0,0,0-.487-.775,5.533,5.533,0,0,0-1.563-.506q-3.581-.751-3.581-3.043A2.758,2.758,0,0,1-20.61-9.328a4.472,4.472,0,0,1,2.9-.9,4.813,4.813,0,0,1,3.057.9,2.836,2.836,0,0,1,1.146,2.338h-2.681a1.3,1.3,0,0,0-.371-.951,1.57,1.57,0,0,0-1.16-.376,1.6,1.6,0,0,0-1.048.306.966.966,0,0,0-.371.779.826.826,0,0,0,.422.719,4.342,4.342,0,0,0,1.424.473,11.632,11.632,0,0,1,1.688.45,2.774,2.774,0,0,1,2.125,2.7A2.618,2.618,0,0,1-14.658-.663,5.083,5.083,0,0,1-17.7.186a5.309,5.309,0,0,1-2.24-.45A3.759,3.759,0,0,1-21.477-1.5a2.867,2.867,0,0,1-.557-1.693h2.542A1.4,1.4,0,0,0-18.963-2.1a2.1,2.1,0,0,0,1.317.38,1.941,1.941,0,0,0,1.164-.292A.909.909,0,0,0-16.087-2.774Zm7.542-9.732v2.468h1.716v1.967H-8.544v5.01a1.2,1.2,0,0,0,.213.8,1.072,1.072,0,0,0,.816.241,4.276,4.276,0,0,0,.789-.065V-.056A5.52,5.52,0,0,1-8.35.186a2.56,2.56,0,0,1-2.876-2.848V-8.071h-1.466v-1.967h1.466v-2.468ZM-2.5,0H-5.2V-10.038H-2.5ZM-5.353-12.636a1.32,1.32,0,0,1,.4-.993,1.516,1.516,0,0,1,1.1-.39,1.52,1.52,0,0,1,1.095.39,1.313,1.313,0,0,1,.408.993,1.316,1.316,0,0,1-.413,1,1.523,1.523,0,0,1-1.09.39,1.523,1.523,0,0,1-1.09-.39A1.316,1.316,0,0,1-5.353-12.636ZM-.714-5.112A5.953,5.953,0,0,1-.139-7.774,4.211,4.211,0,0,1,1.517-9.583a4.831,4.831,0,0,1,2.51-.64A4.571,4.571,0,0,1,7.343-8.98,4.989,4.989,0,0,1,8.776-5.6l.019.687a5.247,5.247,0,0,1-1.29,3.706,4.482,4.482,0,0,1-3.46,1.4A4.5,4.5,0,0,1,.58-1.206,5.339,5.339,0,0,1-.714-4.991Zm2.681.19A3.752,3.752,0,0,0,2.5-2.733a1.775,1.775,0,0,0,1.54.757,1.779,1.779,0,0,0,1.521-.748,4.106,4.106,0,0,0,.547-2.393,3.715,3.715,0,0,0-.547-2.174,1.779,1.779,0,0,0-1.54-.771A1.75,1.75,0,0,0,2.5-7.3,4.175,4.175,0,0,0,1.967-4.921ZM4.555-14.25H7.478l-2.57,2.876H2.728Zm8.359,4.212L13-8.878a3.5,3.5,0,0,1,2.885-1.345,2.913,2.913,0,0,1,2.375.937,4.372,4.372,0,0,1,.8,2.8V0H16.375V-6.435A1.746,1.746,0,0,0,16-7.676a1.659,1.659,0,0,0-1.234-.386,1.844,1.844,0,0,0-1.7.967V0H10.391V-10.038ZM25.4-5.093a6.049,6.049,0,0,1,1.053-3.739,3.417,3.417,0,0,1,2.881-1.392,3.074,3.074,0,0,1,2.421,1.095V-14.25h2.69V0H32.025L31.9-1.067A3.155,3.155,0,0,1,29.316.186a3.407,3.407,0,0,1-2.844-1.4A6.244,6.244,0,0,1,25.4-5.093Zm2.681.191a3.984,3.984,0,0,0,.492,2.171A1.6,1.6,0,0,0,30-1.976a1.793,1.793,0,0,0,1.753-1.053v-3.98a1.768,1.768,0,0,0-1.735-1.053Q28.083-8.062,28.083-4.9ZM41.145.186A4.928,4.928,0,0,1,37.55-1.169a4.815,4.815,0,0,1-1.387-3.609v-.26a6.064,6.064,0,0,1,.584-2.7A4.289,4.289,0,0,1,38.4-9.579a4.648,4.648,0,0,1,2.445-.645,4.166,4.166,0,0,1,3.242,1.3,5.278,5.278,0,0,1,1.183,3.683v1.095H38.881a2.491,2.491,0,0,0,.784,1.577,2.37,2.37,0,0,0,1.656.594A2.894,2.894,0,0,0,43.743-3.1L45.06-1.624A4.025,4.025,0,0,1,43.427-.292,5.357,5.357,0,0,1,41.145.186Zm-.306-8.248a1.675,1.675,0,0,0-1.294.54,2.8,2.8,0,0,0-.635,1.547h3.729v-.214a2,2,0,0,0-.482-1.384A1.729,1.729,0,0,0,40.839-8.062ZM-78.227,9.962l.083,1.16a3.5,3.5,0,0,1,2.885-1.345,2.913,2.913,0,0,1,2.375.937,4.372,4.372,0,0,1,.8,2.8V20h-2.681V13.565a1.746,1.746,0,0,0-.371-1.241,1.659,1.659,0,0,0-1.234-.386,1.844,1.844,0,0,0-1.7.967V20H-80.75V9.962Zm11,10.038h-2.69V9.962h2.69ZM-70.072,7.364a1.32,1.32,0,0,1,.4-.993,1.516,1.516,0,0,1,1.1-.39,1.52,1.52,0,0,1,1.095.39,1.313,1.313,0,0,1,.408.993,1.316,1.316,0,0,1-.413,1,1.523,1.523,0,0,1-1.09.39,1.523,1.523,0,0,1-1.09-.39A1.316,1.316,0,0,1-70.072,7.364Zm8.813,9.361,1.865-6.763h2.8L-59.978,20h-2.561L-65.925,9.962h2.8Zm10.344,3.46a4.928,4.928,0,0,1-3.595-1.354A4.815,4.815,0,0,1-55.9,15.222v-.26a6.064,6.064,0,0,1,.584-2.7,4.289,4.289,0,0,1,1.656-1.837,4.648,4.648,0,0,1,2.445-.645,4.166,4.166,0,0,1,3.242,1.3,5.278,5.278,0,0,1,1.183,3.683v1.095h-6.392a2.491,2.491,0,0,0,.784,1.577,2.37,2.37,0,0,0,1.656.594A2.894,2.894,0,0,0-48.316,16.9L-47,18.376a4.025,4.025,0,0,1-1.633,1.331A5.357,5.357,0,0,1-50.914,20.186Zm-.306-8.248a1.675,1.675,0,0,0-1.294.54,2.8,2.8,0,0,0-.635,1.547h3.729v-.214a2,2,0,0,0-.482-1.384A1.729,1.729,0,0,0-51.22,11.938ZM-42.435,20h-2.69V5.75h2.69Zm6.828.186A4.928,4.928,0,0,1-39.2,18.831a4.815,4.815,0,0,1-1.387-3.609v-.26a6.064,6.064,0,0,1,.584-2.7,4.289,4.289,0,0,1,1.656-1.837A4.648,4.648,0,0,1-35.9,9.776a4.166,4.166,0,0,1,3.242,1.3,5.278,5.278,0,0,1,1.183,3.683v1.095H-37.87a2.491,2.491,0,0,0,.784,1.577,2.37,2.37,0,0,0,1.656.594A2.894,2.894,0,0,0-33.009,16.9l1.317,1.475a4.025,4.025,0,0,1-1.633,1.331A5.357,5.357,0,0,1-35.606,20.186Zm-.306-8.248a1.675,1.675,0,0,0-1.294.54,2.8,2.8,0,0,0-.635,1.547h3.729v-.214a2,2,0,0,0-.482-1.384A1.729,1.729,0,0,0-35.913,11.938Zm11.393,5.288a.864.864,0,0,0-.487-.775,5.533,5.533,0,0,0-1.563-.506q-3.581-.751-3.581-3.043a2.758,2.758,0,0,1,1.109-2.231,4.472,4.472,0,0,1,2.9-.9,4.813,4.813,0,0,1,3.057.9,2.836,2.836,0,0,1,1.146,2.338h-2.681a1.3,1.3,0,0,0-.371-.951,1.57,1.57,0,0,0-1.16-.376,1.6,1.6,0,0,0-1.048.306.966.966,0,0,0-.371.779.826.826,0,0,0,.422.719,4.342,4.342,0,0,0,1.424.473,11.632,11.632,0,0,1,1.688.45,2.774,2.774,0,0,1,2.125,2.7,2.618,2.618,0,0,1-1.178,2.222,5.083,5.083,0,0,1-3.043.849,5.309,5.309,0,0,1-2.24-.45A3.759,3.759,0,0,1-29.91,18.5a2.867,2.867,0,0,1-.557-1.693h2.542A1.4,1.4,0,0,0-27.4,17.9a2.1,2.1,0,0,0,1.317.38,1.941,1.941,0,0,0,1.164-.292A.909.909,0,0,0-24.52,17.226Zm8.646-2.319a6.049,6.049,0,0,1,1.053-3.739A3.417,3.417,0,0,1-11.94,9.776a3.074,3.074,0,0,1,2.421,1.095V5.75h2.69V20H-9.25l-.13-1.067a3.155,3.155,0,0,1-2.579,1.252,3.407,3.407,0,0,1-2.844-1.4A6.244,6.244,0,0,1-15.874,14.907Zm2.681.191a3.984,3.984,0,0,0,.492,2.171,1.6,1.6,0,0,0,1.429.755,1.793,1.793,0,0,0,1.753-1.053v-3.98a1.768,1.768,0,0,0-1.735-1.053Q-13.192,11.938-13.192,15.1ZM-.13,20.186a4.928,4.928,0,0,1-3.595-1.354,4.815,4.815,0,0,1-1.387-3.609v-.26a6.064,6.064,0,0,1,.584-2.7,4.289,4.289,0,0,1,1.656-1.837A4.648,4.648,0,0,1-.427,9.776a4.166,4.166,0,0,1,3.242,1.3A5.278,5.278,0,0,1,4,14.758v1.095H-2.394A2.491,2.491,0,0,0-1.61,17.43a2.37,2.37,0,0,0,1.656.594A2.894,2.894,0,0,0,2.468,16.9l1.317,1.475a4.025,4.025,0,0,1-1.633,1.331A5.357,5.357,0,0,1-.13,20.186Zm-.306-8.248a1.675,1.675,0,0,0-1.294.54,2.8,2.8,0,0,0-.635,1.547H1.364v-.214a2,2,0,0,0-.482-1.384A1.729,1.729,0,0,0-.436,11.938ZM8.35,20H5.659V5.75H8.35Zm12.376-2.774a.864.864,0,0,0-.487-.775,5.533,5.533,0,0,0-1.563-.506q-3.581-.751-3.581-3.043A2.758,2.758,0,0,1,16.2,10.672a4.472,4.472,0,0,1,2.9-.9,4.813,4.813,0,0,1,3.057.9A2.836,2.836,0,0,1,23.3,13.014H20.624a1.3,1.3,0,0,0-.371-.951,1.57,1.57,0,0,0-1.16-.376,1.6,1.6,0,0,0-1.048.306.966.966,0,0,0-.371.779.826.826,0,0,0,.422.719,4.342,4.342,0,0,0,1.424.473,11.632,11.632,0,0,1,1.688.45,2.774,2.774,0,0,1,2.125,2.7,2.618,2.618,0,0,1-1.178,2.222,5.083,5.083,0,0,1-3.043.849,5.309,5.309,0,0,1-2.24-.45A3.759,3.759,0,0,1,15.335,18.5a2.867,2.867,0,0,1-.557-1.693h2.542A1.4,1.4,0,0,0,17.85,17.9a2.1,2.1,0,0,0,1.317.38,1.941,1.941,0,0,0,1.164-.292A.909.909,0,0,0,20.726,17.226Zm8.953,2.959a4.928,4.928,0,0,1-3.595-1.354A4.815,4.815,0,0,1,24.7,15.222v-.26a6.064,6.064,0,0,1,.584-2.7,4.289,4.289,0,0,1,1.656-1.837,4.648,4.648,0,0,1,2.445-.645,4.166,4.166,0,0,1,3.242,1.3,5.278,5.278,0,0,1,1.183,3.683v1.095H27.415A2.491,2.491,0,0,0,28.2,17.43a2.37,2.37,0,0,0,1.656.594A2.894,2.894,0,0,0,32.276,16.9l1.317,1.475a4.025,4.025,0,0,1-1.633,1.331A5.357,5.357,0,0,1,29.678,20.186Zm-.306-8.248a1.675,1.675,0,0,0-1.294.54,2.8,2.8,0,0,0-.635,1.547h3.729v-.214a2,2,0,0,0-.482-1.384A1.729,1.729,0,0,0,29.372,11.938Zm11.6.538A7.284,7.284,0,0,0,40,12.4a1.964,1.964,0,0,0-1.995,1.03V20H35.328V9.962h2.533l.074,1.2a2.484,2.484,0,0,1,2.236-1.382,2.809,2.809,0,0,1,.835.121Zm5.214,4.249,1.865-6.763h2.8L47.463,20H44.9L41.516,9.962h2.8ZM54.857,20h-2.69V9.962h2.69ZM52.009,7.364a1.32,1.32,0,0,1,.4-.993,1.739,1.739,0,0,1,2.194,0,1.313,1.313,0,0,1,.408.993,1.316,1.316,0,0,1-.413,1,1.72,1.72,0,0,1-2.18,0A1.316,1.316,0,0,1,52.009,7.364Zm9.231,10.66a1.759,1.759,0,0,0,1.206-.408,1.43,1.43,0,0,0,.482-1.085h2.514a3.439,3.439,0,0,1-.557,1.869,3.673,3.673,0,0,1-1.5,1.317,4.689,4.689,0,0,1-2.1.469,4.358,4.358,0,0,1-3.4-1.368,5.415,5.415,0,0,1-1.243-3.781V14.86a5.353,5.353,0,0,1,1.234-3.7,4.307,4.307,0,0,1,3.386-1.382,4.222,4.222,0,0,1,3.02,1.072A3.794,3.794,0,0,1,65.442,13.7H62.928a1.842,1.842,0,0,0-.482-1.273,1.793,1.793,0,0,0-2.639.193,3.958,3.958,0,0,0-.478,2.216v.279a4.008,4.008,0,0,0,.473,2.23A1.635,1.635,0,0,0,61.24,18.024ZM69.8,20h-2.69V9.962H69.8ZM66.955,7.364a1.32,1.32,0,0,1,.4-.993,1.739,1.739,0,0,1,2.194,0,1.313,1.313,0,0,1,.408.993,1.316,1.316,0,0,1-.413,1,1.72,1.72,0,0,1-2.18,0A1.316,1.316,0,0,1,66.955,7.364Zm4.639,7.524a5.953,5.953,0,0,1,.575-2.663,4.211,4.211,0,0,1,1.656-1.809,4.831,4.831,0,0,1,2.51-.64,4.571,4.571,0,0,1,3.317,1.243A4.989,4.989,0,0,1,81.084,14.4l.019.687a5.247,5.247,0,0,1-1.29,3.706,5,5,0,0,1-6.926,0,5.339,5.339,0,0,1-1.294-3.785Zm2.681.19a3.752,3.752,0,0,0,.538,2.188,1.933,1.933,0,0,0,3.062.009,4.106,4.106,0,0,0,.547-2.393,3.715,3.715,0,0,0-.547-2.174,1.779,1.779,0,0,0-1.54-.771,1.75,1.75,0,0,0-1.521.767A4.175,4.175,0,0,0,74.274,15.079Z" transform="translate(549.979 1701.708)" fill="#12263f"/>
    <path id="Trazado_199864" data-name="Trazado 199864" d="M11.43-13.508v8.9A4.555,4.555,0,0,1,10.043-1.1,5.347,5.347,0,0,1,6.253.186,5.407,5.407,0,0,1,2.5-1.067,4.477,4.477,0,0,1,1.076-4.509v-9H3.859v8.916a2.574,2.574,0,0,0,.635,1.934,2.44,2.44,0,0,0,1.758.608q2.347,0,2.384-2.468v-8.99ZM18.972-2.774a.864.864,0,0,0-.487-.775,5.533,5.533,0,0,0-1.563-.506Q13.341-4.806,13.341-7.1a2.758,2.758,0,0,1,1.109-2.231,4.472,4.472,0,0,1,2.9-.9,4.813,4.813,0,0,1,3.057.9,2.836,2.836,0,0,1,1.146,2.338H18.87a1.3,1.3,0,0,0-.371-.951,1.57,1.57,0,0,0-1.16-.376,1.6,1.6,0,0,0-1.048.306.966.966,0,0,0-.371.779.826.826,0,0,0,.422.719,4.342,4.342,0,0,0,1.424.473,11.632,11.632,0,0,1,1.688.45,2.774,2.774,0,0,1,2.125,2.7A2.618,2.618,0,0,1,20.4-.663a5.083,5.083,0,0,1-3.043.849,5.309,5.309,0,0,1-2.24-.45A3.759,3.759,0,0,1,13.582-1.5a2.867,2.867,0,0,1-.557-1.693h2.542A1.4,1.4,0,0,0,16.1-2.1a2.1,2.1,0,0,0,1.317.38,1.941,1.941,0,0,0,1.164-.292A.909.909,0,0,0,18.972-2.774ZM29.316-1.021A3.362,3.362,0,0,1,26.57.186a3.171,3.171,0,0,1-2.463-.928A3.96,3.96,0,0,1,23.24-3.46v-6.578h2.681v6.492q0,1.57,1.429,1.57a1.936,1.936,0,0,0,1.874-.947v-7.115h2.69V0H29.391ZM39.753,0a2.977,2.977,0,0,1-.269-.9A3.244,3.244,0,0,1,36.952.186a3.564,3.564,0,0,1-2.445-.854,2.745,2.745,0,0,1-.969-2.152A2.837,2.837,0,0,1,34.72-5.27a5.837,5.837,0,0,1,3.419-.863h1.234v-.575a1.654,1.654,0,0,0-.357-1.113,1.405,1.405,0,0,0-1.127-.417,1.6,1.6,0,0,0-1.062.325,1.1,1.1,0,0,0-.385.891H33.76A2.693,2.693,0,0,1,34.3-8.637,3.557,3.557,0,0,1,35.82-9.8a5.545,5.545,0,0,1,2.208-.422,4.381,4.381,0,0,1,2.946.932,3.262,3.262,0,0,1,1.09,2.621v4.351a4.8,4.8,0,0,0,.4,2.162V0ZM37.536-1.865a2.309,2.309,0,0,0,1.095-.264,1.737,1.737,0,0,0,.742-.71V-4.564h-1q-2.013,0-2.143,1.392l-.009.158a1.073,1.073,0,0,0,.353.826A1.369,1.369,0,0,0,37.536-1.865ZM49.764-7.524A7.284,7.284,0,0,0,48.8-7.6,1.964,1.964,0,0,0,46.8-6.568V0H44.123V-10.038h2.533l.074,1.2a2.484,2.484,0,0,1,2.236-1.382,2.809,2.809,0,0,1,.835.121ZM53.883,0h-2.69V-10.038h2.69ZM51.035-12.636a1.32,1.32,0,0,1,.4-.993,1.516,1.516,0,0,1,1.1-.39,1.52,1.52,0,0,1,1.095.39,1.313,1.313,0,0,1,.408.993,1.316,1.316,0,0,1-.413,1,1.523,1.523,0,0,1-1.09.39,1.523,1.523,0,0,1-1.09-.39A1.316,1.316,0,0,1,51.035-12.636Zm4.639,7.524a5.953,5.953,0,0,1,.575-2.663A4.211,4.211,0,0,1,57.9-9.583a4.831,4.831,0,0,1,2.51-.64A4.571,4.571,0,0,1,63.731-8.98,4.989,4.989,0,0,1,65.164-5.6l.019.687a5.247,5.247,0,0,1-1.29,3.706,4.482,4.482,0,0,1-3.46,1.4,4.5,4.5,0,0,1-3.465-1.392,5.339,5.339,0,0,1-1.294-3.785Zm2.681.19a3.752,3.752,0,0,0,.538,2.188,1.775,1.775,0,0,0,1.54.757,1.779,1.779,0,0,0,1.521-.748A4.106,4.106,0,0,0,62.5-5.117a3.715,3.715,0,0,0-.547-2.174,1.779,1.779,0,0,0-1.54-.771,1.75,1.75,0,0,0-1.521.767A4.175,4.175,0,0,0,58.354-4.921ZM77.967,0H75.286V-10.349l-3.2.988v-2.162l5.594-2h.288Z" transform="translate(586.187 1185.612)" fill="#12263f"/>
    <path id="Trazado_199868" data-name="Trazado 199868" d="M11.43-13.508v8.9A4.555,4.555,0,0,1,10.043-1.1,5.347,5.347,0,0,1,6.253.186,5.407,5.407,0,0,1,2.5-1.067,4.477,4.477,0,0,1,1.076-4.509v-9H3.859v8.916a2.574,2.574,0,0,0,.635,1.934,2.44,2.44,0,0,0,1.758.608q2.347,0,2.384-2.468v-8.99ZM18.972-2.774a.864.864,0,0,0-.487-.775,5.533,5.533,0,0,0-1.563-.506Q13.341-4.806,13.341-7.1a2.758,2.758,0,0,1,1.109-2.231,4.472,4.472,0,0,1,2.9-.9,4.813,4.813,0,0,1,3.057.9,2.836,2.836,0,0,1,1.146,2.338H18.87a1.3,1.3,0,0,0-.371-.951,1.57,1.57,0,0,0-1.16-.376,1.6,1.6,0,0,0-1.048.306.966.966,0,0,0-.371.779.826.826,0,0,0,.422.719,4.342,4.342,0,0,0,1.424.473,11.632,11.632,0,0,1,1.688.45,2.774,2.774,0,0,1,2.125,2.7A2.618,2.618,0,0,1,20.4-.663a5.083,5.083,0,0,1-3.043.849,5.309,5.309,0,0,1-2.24-.45A3.759,3.759,0,0,1,13.582-1.5a2.867,2.867,0,0,1-.557-1.693h2.542A1.4,1.4,0,0,0,16.1-2.1a2.1,2.1,0,0,0,1.317.38,1.941,1.941,0,0,0,1.164-.292A.909.909,0,0,0,18.972-2.774ZM29.316-1.021A3.362,3.362,0,0,1,26.57.186a3.171,3.171,0,0,1-2.463-.928A3.96,3.96,0,0,1,23.24-3.46v-6.578h2.681v6.492q0,1.57,1.429,1.57a1.936,1.936,0,0,0,1.874-.947v-7.115h2.69V0H29.391ZM39.753,0a2.977,2.977,0,0,1-.269-.9A3.244,3.244,0,0,1,36.952.186a3.564,3.564,0,0,1-2.445-.854,2.745,2.745,0,0,1-.969-2.152A2.837,2.837,0,0,1,34.72-5.27a5.837,5.837,0,0,1,3.419-.863h1.234v-.575a1.654,1.654,0,0,0-.357-1.113,1.405,1.405,0,0,0-1.127-.417,1.6,1.6,0,0,0-1.062.325,1.1,1.1,0,0,0-.385.891H33.76A2.693,2.693,0,0,1,34.3-8.637,3.557,3.557,0,0,1,35.82-9.8a5.545,5.545,0,0,1,2.208-.422,4.381,4.381,0,0,1,2.946.932,3.262,3.262,0,0,1,1.09,2.621v4.351a4.8,4.8,0,0,0,.4,2.162V0ZM37.536-1.865a2.309,2.309,0,0,0,1.095-.264,1.737,1.737,0,0,0,.742-.71V-4.564h-1q-2.013,0-2.143,1.392l-.009.158a1.073,1.073,0,0,0,.353.826A1.369,1.369,0,0,0,37.536-1.865ZM49.764-7.524A7.284,7.284,0,0,0,48.8-7.6,1.964,1.964,0,0,0,46.8-6.568V0H44.123V-10.038h2.533l.074,1.2a2.484,2.484,0,0,1,2.236-1.382,2.809,2.809,0,0,1,.835.121ZM53.883,0h-2.69V-10.038h2.69ZM51.035-12.636a1.32,1.32,0,0,1,.4-.993,1.516,1.516,0,0,1,1.1-.39,1.52,1.52,0,0,1,1.095.39,1.313,1.313,0,0,1,.408.993,1.316,1.316,0,0,1-.413,1,1.523,1.523,0,0,1-1.09.39,1.523,1.523,0,0,1-1.09-.39A1.316,1.316,0,0,1,51.035-12.636Zm4.639,7.524a5.953,5.953,0,0,1,.575-2.663A4.211,4.211,0,0,1,57.9-9.583a4.831,4.831,0,0,1,2.51-.64A4.571,4.571,0,0,1,63.731-8.98,4.989,4.989,0,0,1,65.164-5.6l.019.687a5.247,5.247,0,0,1-1.29,3.706,4.482,4.482,0,0,1-3.46,1.4,4.5,4.5,0,0,1-3.465-1.392,5.339,5.339,0,0,1-1.294-3.785Zm2.681.19a3.752,3.752,0,0,0,.538,2.188,1.775,1.775,0,0,0,1.54.757,1.779,1.779,0,0,0,1.521-.748A4.106,4.106,0,0,0,62.5-5.117a3.715,3.715,0,0,0-.547-2.174,1.779,1.779,0,0,0-1.54-.771,1.75,1.75,0,0,0-1.521.767A4.175,4.175,0,0,0,58.354-4.921ZM77.967,0H75.286V-10.349l-3.2.988v-2.162l5.594-2h.288Z" transform="translate(1137.278 1185.612)" fill="#12263f"/>
    <g id="Elipse_6087" data-name="Elipse 6087" transform="translate(333 1103)" fill="none" stroke="#2ec49f" stroke-width="6">
      <ellipse cx="196" cy="167.5" rx="196" ry="167.5" stroke="none"/>
      <ellipse cx="196" cy="167.5" rx="193" ry="164.5" fill="none"/>
    </g>
    <g id="Elipse_6088" data-name="Elipse 6088" transform="translate(884 1103)" fill="none" stroke="#2ec49f" stroke-width="6">
      <ellipse cx="196" cy="167.5" rx="196" ry="167.5" stroke="none"/>
      <ellipse cx="196" cy="167.5" rx="193" ry="164.5" fill="none"/>
    </g>
    <path id="Trazado_199839" data-name="Trazado 199839" d="M10.636,25.764,6.342,18.305c-1.176.655-2.227,1.271-3.3,1.833C1.111,21.144-.081,20.476,0,18.372c.22-5.5.577-11,.983-16.5C1.119.1,2.241-.439,3.852.364c4.839,2.412,9.686,4.808,14.484,7.3,1.879.976,1.939,2.3.171,3.53-.945.658-1.969,1.2-3.231,1.961l4.193,7.368a13.728,13.728,0,0,1,1.464-.639c1.4-.411,2.809-.783,4.215-1.17a21.628,21.628,0,0,1,.612,4.108c-.176,4.538-.548,9.067-.809,13.6-.144,2.506-1.3,2.992-3.437,1.9-4.559-2.322-9.161-4.561-13.7-6.919-2.345-1.219-2.3-2.47.007-3.937C8.631,26.955,9.463,26.473,10.636,25.764ZM3.63,15.812c3.326-2.606,4.859-1.328,6.114,1.3,1,2.086,2.291,4.028,3.447,6.037,2.108,3.667,2.107,3.668-1.339,6.4l9.965,5.006v-10.7c-3.781,1.19-3.78,1.19-5.978-2.617-.966-1.673-1.942-3.34-2.907-5.014-2.249-3.9-2.248-3.9.979-6.892L4.294,4.494C4.067,8.358,3.871,11.708,3.63,15.812Z" transform="translate(580.413 1299.725) rotate(-115)" fill="#12263f"/>
    <path id="Trazado_199849" data-name="Trazado 199849" d="M10.636,25.764,6.342,18.305c-1.176.655-2.227,1.271-3.3,1.833C1.111,21.144-.081,20.476,0,18.372c.22-5.5.577-11,.983-16.5C1.119.1,2.241-.439,3.852.364c4.839,2.412,9.686,4.808,14.484,7.3,1.879.976,1.939,2.3.171,3.53-.945.658-1.969,1.2-3.231,1.961l4.193,7.368a13.728,13.728,0,0,1,1.464-.639c1.4-.411,2.809-.783,4.215-1.17a21.628,21.628,0,0,1,.612,4.108c-.176,4.538-.548,9.067-.809,13.6-.144,2.506-1.3,2.992-3.437,1.9-4.559-2.322-9.161-4.561-13.7-6.919-2.345-1.219-2.3-2.47.007-3.937C8.631,26.955,9.463,26.473,10.636,25.764ZM3.63,15.812c3.326-2.606,4.859-1.328,6.114,1.3,1,2.086,2.291,4.028,3.447,6.037,2.108,3.667,2.107,3.668-1.339,6.4l9.965,5.006v-10.7c-3.781,1.19-3.78,1.19-5.978-2.617-.966-1.673-1.942-3.34-2.907-5.014-2.249-3.9-2.248-3.9.979-6.892L4.294,4.494C4.067,8.358,3.871,11.708,3.63,15.812Z" transform="translate(801.89 1670.474) rotate(-151)" fill="#12263f" stroke="#2ec49f" stroke-width="2"/>
    <path id="Trazado_199841" data-name="Trazado 199841" d="M10.636,25.764,6.342,18.305c-1.176.655-2.227,1.271-3.3,1.833C1.111,21.144-.081,20.476,0,18.372c.22-5.5.577-11,.983-16.5C1.119.1,2.241-.439,3.852.364c4.839,2.412,9.686,4.808,14.484,7.3,1.879.976,1.939,2.3.171,3.53-.945.658-1.969,1.2-3.231,1.961l4.193,7.368a13.728,13.728,0,0,1,1.464-.639c1.4-.411,2.809-.783,4.215-1.17a21.628,21.628,0,0,1,.612,4.108c-.176,4.538-.548,9.067-.809,13.6-.144,2.506-1.3,2.992-3.437,1.9-4.559-2.322-9.161-4.561-13.7-6.919-2.345-1.219-2.3-2.47.007-3.937C8.631,26.955,9.463,26.473,10.636,25.764ZM3.63,15.812c3.326-2.606,4.859-1.328,6.114,1.3,1,2.086,2.291,4.028,3.447,6.037,2.108,3.667,2.107,3.668-1.339,6.4l9.965,5.006v-10.7c-3.781,1.19-3.78,1.19-5.978-2.617-.966-1.673-1.942-3.34-2.907-5.014-2.249-3.9-2.248-3.9.979-6.892L4.294,4.494C4.067,8.358,3.871,11.708,3.63,15.812Z" transform="translate(1131.503 1299.725) rotate(-115)" fill="#12263f"/>
    <path id="Trazado_199840" data-name="Trazado 199840" d="M10.636,25.764,6.342,18.305c-1.176.655-2.227,1.271-3.3,1.833C1.111,21.144-.081,20.476,0,18.372c.22-5.5.577-11,.983-16.5C1.119.1,2.241-.439,3.852.364c4.839,2.412,9.686,4.808,14.484,7.3,1.879.976,1.939,2.3.171,3.53-.945.658-1.969,1.2-3.231,1.961l4.193,7.368a13.728,13.728,0,0,1,1.464-.639c1.4-.411,2.809-.783,4.215-1.17a21.628,21.628,0,0,1,.612,4.108c-.176,4.538-.548,9.067-.809,13.6-.144,2.506-1.3,2.992-3.437,1.9-4.559-2.322-9.161-4.561-13.7-6.919-2.345-1.219-2.3-2.47.007-3.937C8.631,26.955,9.463,26.473,10.636,25.764ZM3.63,15.812c3.326-2.606,4.859-1.328,6.114,1.3,1,2.086,2.291,4.028,3.447,6.037,2.108,3.667,2.107,3.668-1.339,6.4l9.965,5.006v-10.7c-3.781,1.19-3.78,1.19-5.978-2.617-.966-1.673-1.942-3.34-2.907-5.014-2.249-3.9-2.248-3.9.979-6.892L4.294,4.494C4.067,8.358,3.871,11.708,3.63,15.812Z" transform="matrix(-0.966, 0.259, -0.259, -0.966, 486.764, 1293.877)" fill="#12263f"/>
    <path id="Trazado_199845" data-name="Trazado 199845" d="M13.621,32.991c-1.862-3.233-3.578-6.215-5.5-9.551-1.506.839-2.851,1.627-4.231,2.348C1.423,27.076-.1,26.22.005,23.525.287,16.478.745,9.437,1.265,2.4,1.433.124,2.869-.562,4.933.466c6.2,3.088,12.4,6.156,18.548,9.348,2.406,1.249,2.483,2.94.219,4.52-1.21.842-2.521,1.539-4.138,2.512l5.369,9.435a17.588,17.588,0,0,1,1.875-.818c1.792-.526,3.6-1,5.4-1.5a27.809,27.809,0,0,1,.784,5.261c-.226,5.811-.7,11.61-1.036,17.417-.184,3.209-1.662,3.832-4.4,2.435-5.837-2.973-11.73-5.84-17.543-8.86-3-1.561-2.948-3.163.01-5.042C11.053,34.517,12.117,33.9,13.621,32.991ZM4.649,20.247c4.26-3.337,6.222-1.7,7.83,1.667,1.273,2.671,2.934,5.157,4.413,7.73,2.7,4.7,2.7,4.7-1.714,8.193l12.76,6.41v-13.7c-4.842,1.524-4.839,1.523-7.654-3.351-1.237-2.142-2.487-4.278-3.723-6.42-2.88-5-2.878-5,1.252-8.826L5.5,5.754C5.209,10.7,4.957,14.993,4.649,20.247Z" transform="matrix(-0.966, 0.259, -0.259, -0.966, 729.801, 1440.537)" fill="#12263f" stroke="#2ec49f" stroke-width="2"/>
    <path id="Trazado_199847" data-name="Trazado 199847" d="M13.621,32.991c-1.862-3.233-3.578-6.215-5.5-9.551-1.506.839-2.851,1.627-4.231,2.348C1.423,27.076-.1,26.22.005,23.525.287,16.478.745,9.437,1.265,2.4,1.433.124,2.869-.562,4.933.466c6.2,3.088,12.4,6.156,18.548,9.348,2.406,1.249,2.483,2.94.219,4.52-1.21.842-2.521,1.539-4.138,2.512l5.369,9.435a17.588,17.588,0,0,1,1.875-.818c1.792-.526,3.6-1,5.4-1.5a27.809,27.809,0,0,1,.784,5.261c-.226,5.811-.7,11.61-1.036,17.417-.184,3.209-1.662,3.832-4.4,2.435-5.837-2.973-11.73-5.84-17.543-8.86-3-1.561-2.948-3.163.01-5.042C11.053,34.517,12.117,33.9,13.621,32.991ZM4.649,20.247c4.26-3.337,6.222-1.7,7.83,1.667,1.273,2.671,2.934,5.157,4.413,7.73,2.7,4.7,2.7,4.7-1.714,8.193l12.76,6.41v-13.7c-4.842,1.524-4.839,1.523-7.654-3.351-1.237-2.142-2.487-4.278-3.723-6.42-2.88-5-2.878-5,1.252-8.826L5.5,5.754C5.209,10.7,4.957,14.993,4.649,20.247Z" transform="matrix(0.966, -0.259, 0.259, 0.966, 892.936, 1556.945)" fill="#12263f" stroke="#2ec49f" stroke-width="2"/>
    <path id="Trazado_199846" data-name="Trazado 199846" d="M13.621,32.991c-1.862-3.233-3.578-6.215-5.5-9.551-1.506.839-2.851,1.627-4.231,2.348C1.423,27.076-.1,26.22.005,23.525.287,16.478.745,9.437,1.265,2.4,1.433.124,2.869-.562,4.933.466c6.2,3.088,12.4,6.156,18.548,9.348,2.406,1.249,2.483,2.94.219,4.52-1.21.842-2.521,1.539-4.138,2.512l5.369,9.435a17.588,17.588,0,0,1,1.875-.818c1.792-.526,3.6-1,5.4-1.5a27.809,27.809,0,0,1,.784,5.261c-.226,5.811-.7,11.61-1.036,17.417-.184,3.209-1.662,3.832-4.4,2.435-5.837-2.973-11.73-5.84-17.543-8.86-3-1.561-2.948-3.163.01-5.042C11.053,34.517,12.117,33.9,13.621,32.991ZM4.649,20.247c4.26-3.337,6.222-1.7,7.83,1.667,1.273,2.671,2.934,5.157,4.413,7.73,2.7,4.7,2.7,4.7-1.714,8.193l12.76,6.41v-13.7c-4.842,1.524-4.839,1.523-7.654-3.351-1.237-2.142-2.487-4.278-3.723-6.42-2.88-5-2.878-5,1.252-8.826L5.5,5.754C5.209,10.7,4.957,14.993,4.649,20.247Z" transform="matrix(-0.259, -0.966, 0.966, -0.259, 864.331, 1443.143)" fill="#12263f" stroke="#2ec49f" stroke-width="2"/>
    <path id="Trazado_199848" data-name="Trazado 199848" d="M13.621,32.991c-1.862-3.233-3.578-6.215-5.5-9.551-1.506.839-2.851,1.627-4.231,2.348C1.423,27.076-.1,26.22.005,23.525.287,16.478.745,9.437,1.265,2.4,1.433.124,2.869-.562,4.933.466c6.2,3.088,12.4,6.156,18.548,9.348,2.406,1.249,2.483,2.94.219,4.52-1.21.842-2.521,1.539-4.138,2.512l5.369,9.435a17.588,17.588,0,0,1,1.875-.818c1.792-.526,3.6-1,5.4-1.5a27.809,27.809,0,0,1,.784,5.261c-.226,5.811-.7,11.61-1.036,17.417-.184,3.209-1.662,3.832-4.4,2.435-5.837-2.973-11.73-5.84-17.543-8.86-3-1.561-2.948-3.163.01-5.042C11.053,34.517,12.117,33.9,13.621,32.991ZM4.649,20.247c4.26-3.337,6.222-1.7,7.83,1.667,1.273,2.671,2.934,5.157,4.413,7.73,2.7,4.7,2.7,4.7-1.714,8.193l12.76,6.41v-13.7c-4.842,1.524-4.839,1.523-7.654-3.351-1.237-2.142-2.487-4.278-3.723-6.42-2.88-5-2.878-5,1.252-8.826L5.5,5.754C5.209,10.7,4.957,14.993,4.649,20.247Z" transform="matrix(0.259, 0.966, -0.966, 0.259, 684.145, 1560.274)" fill="#12263f" stroke="#2ec49f" stroke-width="2"/>
    <path id="Trazado_199842" data-name="Trazado 199842" d="M10.636,25.764,6.342,18.305c-1.176.655-2.227,1.271-3.3,1.833C1.111,21.144-.081,20.476,0,18.372c.22-5.5.577-11,.983-16.5C1.119.1,2.241-.439,3.852.364c4.839,2.412,9.686,4.808,14.484,7.3,1.879.976,1.939,2.3.171,3.53-.945.658-1.969,1.2-3.231,1.961l4.193,7.368a13.728,13.728,0,0,1,1.464-.639c1.4-.411,2.809-.783,4.215-1.17a21.628,21.628,0,0,1,.612,4.108c-.176,4.538-.548,9.067-.809,13.6-.144,2.506-1.3,2.992-3.437,1.9-4.559-2.322-9.161-4.561-13.7-6.919-2.345-1.219-2.3-2.47.007-3.937C8.631,26.955,9.463,26.473,10.636,25.764ZM3.63,15.812c3.326-2.606,4.859-1.328,6.114,1.3,1,2.086,2.291,4.028,3.447,6.037,2.108,3.667,2.107,3.668-1.339,6.4l9.965,5.006v-10.7c-3.781,1.19-3.78,1.19-5.978-2.617-.966-1.673-1.942-3.34-2.907-5.014-2.249-3.9-2.248-3.9.979-6.892L4.294,4.494C4.067,8.358,3.871,11.708,3.63,15.812Z" transform="matrix(-0.966, 0.259, -0.259, -0.966, 1037.854, 1293.877)" fill="#12263f"/>
    <g id="Grupo_161715" data-name="Grupo 161715" transform="translate(1037.25 1293.941)">
      <g id="Grupo_161713" data-name="Grupo 161713" transform="translate(0 17.386)">
        <path id="Trazado_197171-6" data-name="Trazado 197171" d="M7469.7,4838.611v-5.075c-3.872,0-7.56-.073-11.243.026-2.561.069-3.5-1-3.484-3.551q.12-17.691.008-35.381c-.016-2.538.955-3.609,3.49-3.6q24.022.055,48.045,0c2.559,0,3.521,1.247,3.514,3.686q-.048,17.69,0,35.381c.01,2.564-1.149,3.541-3.645,3.472-3.577-.1-7.16-.025-11.015-.025v5.063c3.651,0,7.341.068,11.024-.024,2.508-.063,3.682.958,3.627,3.5-.065,2.978,0,5.958-.019,8.938-.013,2.124-1.039,3.138-3.23,3.134q-24.394-.045-48.79,0c-2.287,0-3.04-1.131-2.991-3.249.068-2.979.1-5.962-.01-8.937-.1-2.668,1.2-3.456,3.648-3.383C7462.206,4838.692,7465.786,4838.611,7469.7,4838.611Zm-10.06-9.819h45.911c0-10.561-.02-20.835.013-31.109.008-2.593-1.819-2.187-3.379-2.189q-18.243-.023-36.482-.008h-6.062Zm45.639,14.475h-45.522v6.164h45.522Zm-30.806-4.934h17.071c-1.154-2.06-1.818-4.505-2.676-4.573-4.739-.38-9.523-.182-14.4-.182Z" transform="translate(-7454.969 -4791.026)" fill="#12263f"/>
        <path id="Trazado_197172-5" data-name="Trazado 197172" d="M7488.411,4807.844a24.822,24.822,0,0,1-1.894,2.494c-4.172,4.22-8.294,8.5-12.654,12.516-.863.8-2.679.56-4.054.8.293-1.284.173-2.956.95-3.788,4.137-4.421,8.447-8.684,12.823-12.869a5.257,5.257,0,0,1,3.222-1.074C7487.273,4805.906,7487.789,4807.062,7488.411,4807.844Z" transform="translate(-7458.753 -4794.826)" fill="#12263f"/>
        <path id="Trazado_197173-5" data-name="Trazado 197173" d="M7476.667,4801.705c.479.329,1.43.642,1.549,1.149a3.388,3.388,0,0,1-.325,2.652c-2.769,2.987-5.645,5.886-8.659,8.622a3.169,3.169,0,0,1-2.882.118,2.61,2.61,0,0,1-.548-2.456c3.091-3.349,6.353-6.539,9.595-9.745C7475.619,4801.824,7476.088,4801.851,7476.667,4801.705Z" transform="translate(-7457.697 -4793.75)" fill="#12263f"/>
      </g>
      <g id="Grupo_161712" data-name="Grupo 161712" transform="translate(51.327 0)">
        <path id="Trazado_197206" data-name="Trazado 197206" d="M8197.99,4405.9q.007,15.983,0,31.966c0,6.09-2.118,8.254-8.1,8.268-5.525.014-11.05.04-16.574-.007-4.784-.041-7.329-2.535-7.336-7.312q-.048-33,0-66.005c.007-4.758,2.61-7.366,7.278-7.4q8.732-.057,17.464,0c4.851.029,7.232,2.413,7.25,7.337C8198.014,4383.8,8197.987,4394.853,8197.99,4405.9Zm-3.538.114q0-16.422-.009-32.848c0-3.327-.894-4.224-4.2-4.242q-8.136-.045-16.276,0c-3.44.015-4.455.962-4.458,4.354q-.026,32.552.009,65.1c0,3.248,1,4.191,4.272,4.208q8.137.045,16.275,0c3.638-.015,4.367-.725,4.375-4.317Q8194.471,4422.146,8194.452,4406.018Z" transform="translate(-8165.958 -4365.388)" fill="#12263f"/>
        <path id="Trazado_197212" data-name="Trazado 197212" d="M8184.848,4458.428c2.263,0,4.536-.13,6.781.072.734.066,1.393.989,2.085,1.521-.7.632-1.38,1.788-2.1,1.812-4.816.164-9.642.154-14.459.009-.666-.021-1.3-1.094-1.946-1.679.653-.579,1.271-1.6,1.966-1.655C8179.72,4458.308,8182.289,4458.429,8184.848,4458.428Z" transform="translate(-8168.375 -4389.672)" fill="#12263f"/>
        <path id="Trazado_197213" data-name="Trazado 197213" d="M8184.268,4448.8c2.46,0,4.93-.12,7.376.073.726.057,1.383.993,2.073,1.528-.7.632-1.39,1.784-2.111,1.808-4.817.163-9.646.153-14.464.006-.66-.021-1.288-1.106-1.93-1.7.656-.572,1.274-1.574,1.976-1.636C8179.531,4448.671,8181.905,4448.8,8184.268,4448.8Z" transform="translate(-8168.375 -4387.158)" fill="#12263f"/>
        <path id="Trazado_197214" data-name="Trazado 197214" d="M8184.337,4433.049c-2.263,0-4.542.146-6.783-.08-.822-.082-1.557-1.047-2.33-1.609.716-.6,1.419-1.709,2.155-1.734,4.719-.156,9.449-.154,14.167,0,.741.025,1.446,1.109,2.168,1.7-.764.573-1.486,1.56-2.3,1.638C8189.076,4433.194,8186.7,4433.05,8184.337,4433.049Z" transform="translate(-8168.379 -4382.134)" fill="#12263f"/>
        <path id="Trazado_197215" data-name="Trazado 197215" d="M8184.7,4439.164a66.469,66.469,0,0,1,6.78.079c.792.082,1.493,1.08,2.235,1.66-.746.587-1.477,1.658-2.242,1.684q-7.078.235-14.163-.007c-.719-.025-1.4-1.193-2.095-1.832.7-.527,1.372-1.451,2.11-1.509C8179.767,4439.044,8182.238,4439.165,8184.7,4439.164Z" transform="translate(-8168.376 -4384.641)" fill="#12263f"/>
        <path id="Trazado_197220" data-name="Trazado 197220" d="M8179.4,4382.792a3.377,3.377,0,1,1,3.4-3.391A3.3,3.3,0,0,1,8179.4,4382.792Zm1.747-3.312a1.681,1.681,0,0,0-1.687-1.776,1.6,1.6,0,0,0-1.737,1.576,1.674,1.674,0,0,0,1.6,1.854A1.712,1.712,0,0,0,8181.145,4379.479Z" transform="translate(-8168.593 -4368.17)" fill="#12263f"/>
      </g>
    </g>
    <g id="Grupo_161716" data-name="Grupo 161716" transform="translate(486.159 1293.941)">
      <g id="Grupo_161713-2" data-name="Grupo 161713" transform="translate(0 17.386)">
        <path id="Trazado_197171-7" data-name="Trazado 197171" d="M7469.7,4838.611v-5.075c-3.872,0-7.56-.073-11.243.026-2.561.069-3.5-1-3.484-3.551q.12-17.691.008-35.381c-.016-2.538.955-3.609,3.49-3.6q24.022.055,48.045,0c2.559,0,3.521,1.247,3.514,3.686q-.048,17.69,0,35.381c.01,2.564-1.149,3.541-3.645,3.472-3.577-.1-7.16-.025-11.015-.025v5.063c3.651,0,7.341.068,11.024-.024,2.508-.063,3.682.958,3.627,3.5-.065,2.978,0,5.958-.019,8.938-.013,2.124-1.039,3.138-3.23,3.134q-24.394-.045-48.79,0c-2.287,0-3.04-1.131-2.991-3.249.068-2.979.1-5.962-.01-8.937-.1-2.668,1.2-3.456,3.648-3.383C7462.206,4838.692,7465.786,4838.611,7469.7,4838.611Zm-10.06-9.819h45.911c0-10.561-.02-20.835.013-31.109.008-2.593-1.819-2.187-3.379-2.189q-18.243-.023-36.482-.008h-6.062Zm45.639,14.475h-45.522v6.164h45.522Zm-30.806-4.934h17.071c-1.154-2.06-1.818-4.505-2.676-4.573-4.739-.38-9.523-.182-14.4-.182Z" transform="translate(-7454.969 -4791.026)" fill="#12263f"/>
        <path id="Trazado_197172-6" data-name="Trazado 197172" d="M7488.411,4807.844a24.822,24.822,0,0,1-1.894,2.494c-4.172,4.22-8.294,8.5-12.654,12.516-.863.8-2.679.56-4.054.8.293-1.284.173-2.956.95-3.788,4.137-4.421,8.447-8.684,12.823-12.869a5.257,5.257,0,0,1,3.222-1.074C7487.273,4805.906,7487.789,4807.062,7488.411,4807.844Z" transform="translate(-7458.753 -4794.826)" fill="#12263f"/>
        <path id="Trazado_197173-6" data-name="Trazado 197173" d="M7476.667,4801.705c.479.329,1.43.642,1.549,1.149a3.388,3.388,0,0,1-.325,2.652c-2.769,2.987-5.645,5.886-8.659,8.622a3.169,3.169,0,0,1-2.882.118,2.61,2.61,0,0,1-.548-2.456c3.091-3.349,6.353-6.539,9.595-9.745C7475.619,4801.824,7476.088,4801.851,7476.667,4801.705Z" transform="translate(-7457.697 -4793.75)" fill="#12263f"/>
      </g>
      <g id="Grupo_161712-2" data-name="Grupo 161712" transform="translate(51.327)">
        <path id="Trazado_197206-2" data-name="Trazado 197206" d="M8197.99,4405.9q.007,15.983,0,31.966c0,6.09-2.118,8.254-8.1,8.268-5.525.014-11.05.04-16.574-.007-4.784-.041-7.329-2.535-7.336-7.312q-.048-33,0-66.005c.007-4.758,2.61-7.366,7.278-7.4q8.732-.057,17.464,0c4.851.029,7.232,2.413,7.25,7.337C8198.014,4383.8,8197.987,4394.853,8197.99,4405.9Zm-3.538.114q0-16.422-.009-32.848c0-3.327-.894-4.224-4.2-4.242q-8.136-.045-16.276,0c-3.44.015-4.455.962-4.458,4.354q-.026,32.552.009,65.1c0,3.248,1,4.191,4.272,4.208q8.137.045,16.275,0c3.638-.015,4.367-.725,4.375-4.317Q8194.471,4422.146,8194.452,4406.018Z" transform="translate(-8165.958 -4365.388)" fill="#12263f"/>
        <path id="Trazado_197212-2" data-name="Trazado 197212" d="M8184.848,4458.428c2.263,0,4.536-.13,6.781.072.734.066,1.393.989,2.085,1.521-.7.632-1.38,1.788-2.1,1.812-4.816.164-9.642.154-14.459.009-.666-.021-1.3-1.094-1.946-1.679.653-.579,1.271-1.6,1.966-1.655C8179.72,4458.308,8182.289,4458.429,8184.848,4458.428Z" transform="translate(-8168.375 -4389.672)" fill="#12263f"/>
        <path id="Trazado_197213-2" data-name="Trazado 197213" d="M8184.268,4448.8c2.46,0,4.93-.12,7.376.073.726.057,1.383.993,2.073,1.528-.7.632-1.39,1.784-2.111,1.808-4.817.163-9.646.153-14.464.006-.66-.021-1.288-1.106-1.93-1.7.656-.572,1.274-1.574,1.976-1.636C8179.531,4448.671,8181.905,4448.8,8184.268,4448.8Z" transform="translate(-8168.375 -4387.158)" fill="#12263f"/>
        <path id="Trazado_197214-2" data-name="Trazado 197214" d="M8184.337,4433.049c-2.263,0-4.542.146-6.783-.08-.822-.082-1.557-1.047-2.33-1.609.716-.6,1.419-1.709,2.155-1.734,4.719-.156,9.449-.154,14.167,0,.741.025,1.446,1.109,2.168,1.7-.764.573-1.486,1.56-2.3,1.638C8189.076,4433.194,8186.7,4433.05,8184.337,4433.049Z" transform="translate(-8168.379 -4382.134)" fill="#12263f"/>
        <path id="Trazado_197215-2" data-name="Trazado 197215" d="M8184.7,4439.164a66.469,66.469,0,0,1,6.78.079c.792.082,1.493,1.08,2.235,1.66-.746.587-1.477,1.658-2.242,1.684q-7.078.235-14.163-.007c-.719-.025-1.4-1.193-2.095-1.832.7-.527,1.372-1.451,2.11-1.509C8179.767,4439.044,8182.238,4439.165,8184.7,4439.164Z" transform="translate(-8168.376 -4384.641)" fill="#12263f"/>
        <path id="Trazado_197220-2" data-name="Trazado 197220" d="M8179.4,4382.792a3.377,3.377,0,1,1,3.4-3.391A3.3,3.3,0,0,1,8179.4,4382.792Zm1.747-3.312a1.681,1.681,0,0,0-1.687-1.776,1.6,1.6,0,0,0-1.737,1.576,1.674,1.674,0,0,0,1.6,1.854A1.712,1.712,0,0,0,8181.145,4379.479Z" transform="translate(-8168.593 -4368.17)" fill="#12263f"/>
      </g>
    </g>
    <g id="_14590S.tif" data-name="14590S.tif" transform="translate(968.71 1569.037)">
      <g id="Grupo_155297" data-name="Grupo 155297" transform="translate(0 -0.001)">
        <path id="Trazado_197168" data-name="Trazado 197168" d="M6054.871,7690.441c1.033.1,2.067.2,3.1.3,6.058.612,11.963,1.809,17.407,4.687a14.865,14.865,0,0,1,5.751,4.9,7.567,7.567,0,0,1,1.274,4.248c-.01,4.464-.006,8.927-.015,13.391a3.275,3.275,0,0,1-.11,1,1.535,1.535,0,0,1-2.975-.548c-.021-2.256-.01-4.512-.012-6.768v-.768c-1.32.858-2.526,1.751-3.827,2.468a40.458,40.458,0,0,1-12.853,4.145,65.8,65.8,0,0,1-13.836.866c-6.767-.269-13.412-1.252-19.638-4.081-1.984-.9-3.81-2.148-5.712-3.24,0,1.384.12,2.935-.025,4.459-.265,2.764,1.079,4.619,3.144,6.14a28.332,28.332,0,0,0,10,4.322,61.143,61.143,0,0,0,14.681,1.745,1.553,1.553,0,0,1,1.591,1.023,1.436,1.436,0,0,1-.52,1.744,2.105,2.105,0,0,1-1.078.336,58.238,58.238,0,0,1-20.04-3.24,25.619,25.619,0,0,1-7.7-4.355c-.02.252-.049.45-.049.648,0,2.013.085,4.031-.026,6.038a6.009,6.009,0,0,0,2.394,5.117,20.9,20.9,0,0,0,6.509,3.607,49.561,49.561,0,0,0,13.385,2.793c.363.028.724.074,1.084.114a1.558,1.558,0,0,1,1.481,1.651,1.513,1.513,0,0,1-1.689,1.429c-1.928-.171-3.861-.339-5.775-.626a40.97,40.97,0,0,1-12.081-3.5c-1.814-.891-3.506-2.031-5.251-3.058a3.281,3.281,0,0,0-.031.411c0,2.184.027,4.366-.014,6.549a5.05,5.05,0,0,0,1.221,3.407,14.632,14.632,0,0,0,5.2,3.757,37.993,37.993,0,0,0,10.885,3.216c2.415.359,4.859.533,7.292.774a1.727,1.727,0,0,1,1.648.979,1.358,1.358,0,0,1-.253,1.615,1.922,1.922,0,0,1-1.2.542c-7.335-.351-14.491-1.511-21.08-5a15.486,15.486,0,0,1-5.194-4.249,9.292,9.292,0,0,1-1.7-4.254v-41.192a9.8,9.8,0,0,1,1.444-3.835,14.367,14.367,0,0,1,4.687-4.17c5.244-3.068,11.03-4.351,16.974-5.082,1.511-.187,3.031-.3,4.546-.45Zm-3.571,24.989c3.086-.269,6.18-.462,9.255-.825a40.012,40.012,0,0,0,11.524-3.065,15.2,15.2,0,0,0,6.03-4.184,4.3,4.3,0,0,0-.017-5.9,14.3,14.3,0,0,0-5.375-3.874,45.9,45.9,0,0,0-15.792-3.787,66.263,66.263,0,0,0-13.638.26,45.856,45.856,0,0,0-12.2,3.042,16.879,16.879,0,0,0-6.171,3.992c-1.968,2.153-1.976,4.457-.033,6.616.21.232.432.458.665.671a21.177,21.177,0,0,0,7.729,4.191A61.781,61.781,0,0,0,6051.3,7715.431Z" transform="translate(-6020.234 -7690.441)" fill="#12263f"/>
        <path id="Trazado_197169" data-name="Trazado 197169" d="M6270.646,7951.82a8.573,8.573,0,1,1-.873-10.313,4.145,4.145,0,0,0,.426-.2c2.638-1.581,5.269-3.174,7.916-4.741a.654.654,0,0,0,.353-.912,8.537,8.537,0,1,1,16.729-2.63,8.71,8.71,0,0,1-7.244,8.669,8.469,8.469,0,0,1-7-2.09c-.219-.19-.426-.393-.641-.587-.016-.015-.046-.014-.145-.038l-8.769,5.26a9.691,9.691,0,0,1,.449,4.3.664.664,0,0,0,.347.509c2.282.937,4.578,1.838,6.861,2.77.481.2.586-.166.775-.417a8.573,8.573,0,0,1,13.213-.558,8.75,8.75,0,0,1,1.094,9.829,8.554,8.554,0,0,1-8.683,4.324,8.452,8.452,0,0,1-7.2-7.077,25.364,25.364,0,0,1-.06-2.6c-.009-.2-.106-.5-.245-.562C6275.524,7953.763,6273.078,7952.793,6270.646,7951.82Zm10.619,4.7a5.378,5.378,0,0,0,5.367,5.429,5.423,5.423,0,1,0-5.367-5.429Zm0-23.243a5.411,5.411,0,0,0,10.821-.026,5.466,5.466,0,0,0-5.472-5.437A5.412,5.412,0,0,0,6281.264,7933.281Zm-23.284,13.909a5.409,5.409,0,0,0,10.818.1,5.465,5.465,0,0,0-5.406-5.5A5.408,5.408,0,0,0,6257.98,7947.19Z" transform="translate(-6220.626 -7890.552)" fill="#12263f"/>
      </g>
    </g>
    <g id="o8E3X5.tif" transform="translate(730.427 1431.409)">
      <g id="Grupo_152069" data-name="Grupo 152069" transform="translate(0 0)">
        <path id="Trazado_194695" data-name="Trazado 194695" d="M1225.875-335.647h4.159a4.883,4.883,0,0,0,.737.22,20.455,20.455,0,0,1,12.764,6.82,21.592,21.592,0,0,1,4.345,7.691,3.206,3.206,0,0,0,.482.031c7.684-.9,14.127,2.529,17.482,9.369a1.272,1.272,0,0,0,1.372.839c2.554-.037,5.109-.015,7.664-.015,4.7,0,7.14,2.427,7.14,7.1q0,27.927.015,55.855a7.507,7.507,0,0,0,.363,2.278q2.392,7.335,4.865,14.642c.993,2.934,2.048,5.846,3.075,8.768v6.239c-1.316,3.782-4.048,4.993-7.936,4.985q-54.693-.116-109.387-.046c-.52,0-1.04.015-1.558-.014-2.508-.137-5.07-1.8-5.475-4.231a17.225,17.225,0,0,1,0-7.408c2.254-7.668,4.966-15.2,7.468-22.8a8.246,8.246,0,0,0,.421-2.526q.034-28.061.02-56.123c0-4.135,2.592-6.708,6.739-6.717,2.6-.006,5.2-.035,7.794.018a1.634,1.634,0,0,0,1.757-1.065,15.926,15.926,0,0,1,12.459-9.1,37.153,37.153,0,0,1,5.374-.04c.132-.35.224-.589.312-.829A20.383,20.383,0,0,1,1221-334.4,49.016,49.016,0,0,1,1225.875-335.647Zm43.577,78.96v-41.528c-.825,0-1.557,0-2.29,0-.3,0-.6.03-.877.044-3.534,7.385-9.431,10.7-17.491,10.355-.676-.029-1.354,0-2.125,0v8.449a1.878,1.878,0,0,0,.016.645,2.92,2.92,0,0,0,.54.97c1.45,1.49,2.953,2.929,4.387,4.433a1.319,1.319,0,0,0,1.579.366,6.173,6.173,0,0,1,7.172,2.782,6.21,6.21,0,0,1-.972,7.541,6.215,6.215,0,0,1-7.539.994,6.14,6.14,0,0,1-2.795-7.161,1.416,1.416,0,0,0-.45-1.675c-1.768-1.724-3.478-3.507-5.257-5.218a2.521,2.521,0,0,1-.859-2.029c.048-3.323.02-6.647.02-10.017h-12.477c0,4.576.016,9.073-.015,13.57a1.68,1.68,0,0,0,1.019,1.8,6.066,6.066,0,0,1,3.023,6.611,6.274,6.274,0,0,1-5.356,4.958,6.283,6.283,0,0,1-6.443-3.652c-1.118-2.513-.7-5.746,1.643-7.12,2.145-1.259,2-2.856,1.979-4.727-.034-2.945-.009-5.891-.009-8.837v-2.68H1213.4c0,1.543.008,2.923,0,4.3-.018,2.336.573,4.927-.25,6.936-.8,1.962-3.028,3.362-4.687,4.947-1.142,1.09-2.354,2.08-1.35,3.894a1.471,1.471,0,0,1,.043.643,6.285,6.285,0,0,1-4.207,5.965,6.221,6.221,0,0,1-6.977-2.125,6.189,6.189,0,0,1-.254-7.176,6.024,6.024,0,0,1,6.793-2.556,1.69,1.69,0,0,0,2.007-.55c1.343-1.412,2.756-2.757,4.118-4.151a1.711,1.711,0,0,0,.576-.947c.044-3.019.026-6.039.026-9.182-1.236,0-2.352,0-3.467,0-7.212-.038-12.5-3.208-15.786-9.666-.15-.3-.486-.667-.764-.694-.924-.088-1.862-.033-2.788-.033v41.525Zm-41.6-35.292h23c.13,0,.26,0,.39-.01,5.069-.334,8.836-2.747,10.919-7.362a11.724,11.724,0,0,0-1.842-13.124,11.939,11.939,0,0,0-12.515-4.067c-2.439.552-3.129.189-3.7-2.2a16.526,16.526,0,0,0-16.12-12.771,16.53,16.53,0,0,0-16.205,12.824c-.553,2.294-1.307,2.743-3.618,2.151a12.49,12.49,0,0,0-15.559,11.961,12.448,12.448,0,0,0,12.375,12.577C1212.606-291.93,1220.23-291.98,1227.855-291.979Zm57.436,68.584c-.072-.314-.1-.526-.169-.727-2.135-6.4-4.3-12.787-6.383-19.2-.292-.9-.825-.827-1.475-.827q-49.31,0-98.62-.02a1.354,1.354,0,0,0-1.562,1.092c-2.043,6.246-4.139,12.473-6.211,18.709a8.082,8.082,0,0,0-.2.973h41.1c.536-2.1,1.059-4.192,1.6-6.274.4-1.536.984-2,2.566-2q12.019-.011,24.037,0c1.578,0,2.17.467,2.569,2,.543,2.083,1.063,4.171,1.6,6.276Zm-7.428-24.965v-20.874q0-17.281,0-34.562c0-2.043-.688-2.73-2.72-2.736q-3.314-.01-6.627,0c-.364,0-.728.056-1.037.081v3.954a1.38,1.38,0,0,0,.312.1c1.126.011,2.252.008,3.378.022,1.784.022,2.532.748,2.533,2.531q.011,22.413,0,44.827c0,1.789-.746,2.545-2.519,2.545q-43.2.009-86.406,0c-1.8,0-2.565-.739-2.566-2.5q-.012-22.478,0-44.957c0-1.691.769-2.427,2.479-2.448,1.244-.015,2.489,0,3.728,0v-4.159c-2.544,0-5.007,0-7.47,0-2.285,0-2.9.627-2.9,2.945q0,26.961,0,53.922c0,.419.036.839.058,1.306Zm8.314,29.247H1169.82c-.34,3.491.184,4.078,3.558,4.078h109.391c.39,0,.78.013,1.169,0a2.1,2.1,0,0,0,2.235-2.174C1286.2-217.814,1286.177-218.417,1286.177-219.113Zm-69.079-8.356c-.333,1.344-.659,2.666-1.006,4.064h23.726c-.348-1.4-.677-2.725-1.009-4.064Zm-14.108-39.5a2.1,2.1,0,0,0-1.983-2.127,2.086,2.086,0,0,0-2.158,2.077,2.091,2.091,0,0,0,2.046,2.063A2.092,2.092,0,0,0,1202.99-266.966Zm27.034-.07a2.091,2.091,0,0,0-2.053-2.057,2.086,2.086,0,0,0-2.088,2.148,2.094,2.094,0,0,0,2.116,1.993A2.091,2.091,0,0,0,1230.024-267.036Zm27.034.069a2.089,2.089,0,0,0-1.98-2.126,2.087,2.087,0,0,0-2.159,2.078,2.085,2.085,0,0,0,2.045,2.062A2.092,2.092,0,0,0,1257.058-266.967Z" transform="translate(-1165.573 335.647)" fill="#12263f"/>
        <path id="Trazado_194696" data-name="Trazado 194696" d="M1297.976,67.843h-12.319V63.814h12.319Z" transform="translate(-1254.377 40.238)" fill="#12263f"/>
        <path id="Trazado_194697" data-name="Trazado 194697" d="M1477.1,67.81V63.839h12.353V67.81Z" transform="translate(-1395.957 40.22)" fill="#12263f"/>
        <path id="Trazado_194698" data-name="Trazado 194698" d="M1221.721,31.822h3.991v4.014h-3.991Z" transform="translate(-1207.095 63.897)" fill="#12263f"/>
        <path id="Trazado_194699" data-name="Trazado 194699" d="M1257.753,35.99h-3.969V31.952h3.969Z" transform="translate(-1230.807 63.801)" fill="#12263f"/>
        <path id="Trazado_194700" data-name="Trazado 194700" d="M1285.511,35.859V31.871h4.044v3.989Z" transform="translate(-1254.269 63.861)" fill="#12263f"/>
        <path id="Trazado_194701" data-name="Trazado 194701" d="M1317.521,31.822h3.991v4.014h-3.991Z" transform="translate(-1277.941 63.897)" fill="#12263f"/>
        <path id="Trazado_194702" data-name="Trazado 194702" d="M1349.4,35.939v-4h4.02v4Z" transform="translate(-1301.516 63.808)" fill="#12263f"/>
        <path id="Trazado_194703" data-name="Trazado 194703" d="M1381.494,31.776h3.982V35.82h-3.982Z" transform="translate(-1325.25 63.931)" fill="#12263f"/>
        <path id="Trazado_194704" data-name="Trazado 194704" d="M1445.215,35.842V31.834h4v4.008Z" transform="translate(-1372.373 63.888)" fill="#12263f"/>
        <path id="Trazado_194705" data-name="Trazado 194705" d="M1477.307,31.765h3.975v4.043h-3.975Z" transform="translate(-1396.106 63.939)" fill="#12263f"/>
        <path id="Trazado_194706" data-name="Trazado 194706" d="M1513.1,35.975h-4v-4h4Z" transform="translate(-1419.618 63.782)" fill="#12263f"/>
        <path id="Trazado_194707" data-name="Trazado 194707" d="M1540.866,35.959V31.983h4.044v3.976Z" transform="translate(-1443.109 63.778)" fill="#12263f"/>
        <path id="Trazado_194708" data-name="Trazado 194708" d="M1572.816,35.918V31.966h4.044v3.952Z" transform="translate(-1466.736 63.79)" fill="#12263f"/>
        <path id="Trazado_194709" data-name="Trazado 194709" d="M1221.75,63.611h3.976v4.044h-3.976Z" transform="translate(-1207.117 40.388)" fill="#12263f"/>
        <path id="Trazado_194710" data-name="Trazado 194710" d="M1257.732,67.857h-3.991V63.843h3.991Z" transform="translate(-1230.775 40.217)" fill="#12263f"/>
        <path id="Trazado_194711" data-name="Trazado 194711" d="M1545.128,67.852h-4v-4.02h4Z" transform="translate(-1443.305 40.225)" fill="#12263f"/>
        <path id="Trazado_194712" data-name="Trazado 194712" d="M1577.068,67.858h-3.99V63.845h3.99Z" transform="translate(-1466.93 40.215)" fill="#12263f"/>
        <path id="Trazado_194713" data-name="Trazado 194713" d="M1417.4,35.924h-3.99V31.911h3.99Z" transform="translate(-1348.854 63.831)" fill="#12263f"/>
      </g>
    </g>
  </g>
</svg>
