<svg xmlns="http://www.w3.org/2000/svg" width="107.233" height="85.754" viewBox="0 0 107.233 85.754">
  <g id="Grupo_161759" data-name="Grupo 161759" transform="translate(-255 -2024.645)">
    <path id="Polígono_49" data-name="Polígono 49" d="M12.5,0,25,19H0Z" transform="translate(274 2044.679) rotate(90)" fill="#f59d36"/>
    <g id="BYcVr3" transform="translate(-1293.523 2282.319)">
      <g id="Grupo_155630" data-name="Grupo 155630" transform="translate(1570.022 -257.674)">
        <path id="Trazado_197939" data-name="Trazado 197939" d="M1612.341-210.547H1634.3v-43.785h-54.373v.4c0,2.575.005,5.15,0,7.724a1.668,1.668,0,0,1-1.747,1.745,1.641,1.641,0,0,1-1.551-1.509c-.011-.16-.011-.32-.011-.48,0-3.112.025-6.225-.014-9.337a1.78,1.78,0,0,1,1.889-1.887q28.7.03,57.4.016a1.632,1.632,0,0,1,1.739,1.835q0,5.87,0,11.741,0,8.531,0,17.062v.688h.44q3.021,0,6.042,0a1.633,1.633,0,0,1,1.761,1.783q-.006,6.866,0,13.732c0,.079.009.157.017.288h8.094a1.66,1.66,0,0,1,1.7,2.207q-1.8,6.98-3.6,13.961-2.43,9.4-4.865,18.8c-.2.785-.4,1.571-.61,2.354a1.611,1.611,0,0,1-1.673,1.286c-1.053.007-2.106,0-3.158,0l-47.2,0h-22.76a1.634,1.634,0,0,1-1.787-1.787q0-10.66,0-21.319,0-14.59,0-29.18a4.051,4.051,0,0,1,.054-.921,1.6,1.6,0,0,1,1.568-1.2c1.5-.006,3,0,4.5,0h.472c0-.613,0-1.2,0-1.794q0-5.6,0-11.191a1.794,1.794,0,0,1,.371-1.251,1.593,1.593,0,0,1,1.7-.545,1.574,1.574,0,0,1,1.214,1.341,2.932,2.932,0,0,1,.03.513q0,13.663,0,27.327v.271l.063.012c.142-.533.285-1.066.425-1.6.241-.917.467-1.837.722-2.75a4.936,4.936,0,0,1,4.966-3.741h18.16c1.339,0,2.678.007,4.016,0a5.155,5.155,0,0,1,2.65.7,1.012,1.012,0,0,0,.482.119c3.227.007,6.454,0,9.681.007a1.643,1.643,0,0,1,1.53,2.373,1.6,1.6,0,0,1-1.523.927h-7.845C1613.544-213.8,1612.659-212.236,1612.341-210.547Zm39.637,3.317h-19.416c-7.438,0-14.876-.012-22.313.013a1.7,1.7,0,0,1-1.7-2.213c.481-1.6.92-3.2,1.362-4.81a1.645,1.645,0,0,0-1.635-2.2q-11.14-.007-22.279,0a1.669,1.669,0,0,0-1.679,1.339q-1.567,5.962-3.144,11.921-1.694,6.425-3.385,12.85-1.629,6.175-3.261,12.35c-.238.9-.469,1.808-.709,2.735h69.891Zm-78.628-15.788v36.4a.136.136,0,0,0,.064-.09q1.441-5.46,2.879-10.922a6.031,6.031,0,0,0,.306-1.466q.029-11.771.012-23.542c0-.122-.012-.245-.019-.378Zm69.19,12.475v-12.476h-4.882v12.476Z" transform="translate(-1570.022 257.674)" fill="#fff"/>
        <path id="Trazado_197940" data-name="Trazado 197940" d="M2007.915-179.638a13.8,13.8,0,0,1-.821,5.557,14.25,14.25,0,0,1-7.625,8.09,1.5,1.5,0,0,1-1.327-.01,13.9,13.9,0,0,1-8.239-10.62,28.469,28.469,0,0,1-.186-3.692c-.018-.48-.006-.961,0-1.441a1.7,1.7,0,0,1,1.6-1.75,24.085,24.085,0,0,0,5.464-1.386,6.969,6.969,0,0,0,1.076-.664,1.526,1.526,0,0,1,1.836-.031,8.549,8.549,0,0,0,3.29,1.382c1.164.279,2.344.495,3.522.715a1.693,1.693,0,0,1,1.413,1.757c0,.355,0,.709,0,1.064S2007.915-179.981,2007.915-179.638Zm-3.251-.791-.1,0c-.008-.007-.015-.019-.024-.021a22.8,22.8,0,0,1-5.624-1.692.282.282,0,0,0-.219.009,20.562,20.562,0,0,1-4.684,1.5c-.32.074-.772.058-.92.26-.166.228-.06.657-.068,1a11.231,11.231,0,0,0,.426,3.627,10.787,10.787,0,0,0,5.09,6.256.474.474,0,0,0,.555,0,10.436,10.436,0,0,0,5.359-7.529A32.934,32.934,0,0,0,2004.663-180.429Z" transform="translate(-1960.891 190.808)" fill="#fff"/>
        <path id="Trazado_197941" data-name="Trazado 197941" d="M1875.452,138.779h15.583a1.648,1.648,0,0,1,.456,3.246,1.948,1.948,0,0,1-.508.053q-15.583,0-31.166,0a1.659,1.659,0,0,1-1.69-1.322,1.638,1.638,0,0,1,1.069-1.886,2.045,2.045,0,0,1,.673-.089Q1867.66,138.775,1875.452,138.779Z" transform="translate(-1838.317 -111.557)" fill="#fff"/>
        <path id="Trazado_197942" data-name="Trazado 197942" d="M1949.636,222.77c1.922,0,3.844,0,5.765,0a1.648,1.648,0,0,1,.526,3.218,1.872,1.872,0,0,1-.573.079q-5.7.006-11.393,0a1.653,1.653,0,1,1,.012-3.3Q1946.805,222.768,1949.636,222.77Z" transform="translate(-1916.673 -189.781)" fill="#fff"/>
        <path id="Trazado_197943" data-name="Trazado 197943" d="M2319.315,222.766c1.075,0,2.149,0,3.224,0a1.651,1.651,0,1,1-.01,3.3q-3.242.006-6.483,0a1.652,1.652,0,1,1,.01-3.3Q2317.686,222.764,2319.315,222.766Z" transform="translate(-2263.233 -189.777)" fill="#fff"/>
        <path id="Trazado_197944" data-name="Trazado 197944" d="M1766.7,222.755c.949,0,1.9,0,2.847,0a1.651,1.651,0,1,1,0,3.3q-2.847.006-5.693,0a1.651,1.651,0,1,1,0-3.3C1764.8,222.751,1765.749,222.754,1766.7,222.755Z" transform="translate(-1748.978 -189.766)" fill="#fff"/>
        <path id="Trazado_197945" data-name="Trazado 197945" d="M2208.827,226.014c-.308,0-.617.012-.925,0a1.65,1.65,0,0,1,.054-3.3c.571-.01,1.142-.009,1.713,0a1.648,1.648,0,0,1-.02,3.3c-.274,0-.548,0-.822,0Z" transform="translate(-2162.655 -189.724)" fill="#fff"/>
        <path id="Trazado_197946" data-name="Trazado 197946" d="M2388.775,310.042a8.073,8.073,0,0,1-1.409-.192,1.586,1.586,0,0,1-1.022-1.776,1.641,1.641,0,0,1,1.559-1.385c.6-.016,1.211-.017,1.816,0a1.65,1.65,0,0,1-.012,3.3c-.308.009-.617,0-.925,0Z" transform="translate(-2330.272 -267.927)" fill="#fff"/>
        <path id="Trazado_197947" data-name="Trazado 197947" d="M1808.6,432.333c-2.654,0-5.308,0-7.963,0a1.643,1.643,0,0,1-1.613-2.2,1.677,1.677,0,0,1,1.654-1.1q4.925,0,9.85,0,3.072,0,6.144,0a1.657,1.657,0,0,1,1.152,2.876,1.725,1.725,0,0,1-1.228.43C1813.933,432.329,1811.268,432.332,1808.6,432.333Z" transform="translate(-1783.209 -381.877)" fill="#fff"/>
      </g>
    </g>
  </g>
</svg>
