<svg id="Grupo_161745" data-name="Grupo 161745" xmlns="http://www.w3.org/2000/svg" xmlns:xlink="http://www.w3.org/1999/xlink" width="79.061" height="79.062" viewBox="0 0 79.061 79.062">
  <defs>
    <radialGradient id="radial-gradient" cx="0.076" cy="0.019" r="1.465" gradientTransform="translate(0.001)" gradientUnits="objectBoundingBox">
      <stop offset="0" stop-color="#f6f6f7"/>
      <stop offset="0.477" stop-color="#f9f9fa"/>
      <stop offset="0.715" stop-color="#fff"/>
    </radialGradient>
  </defs>
  <g id="Grupo_42274" data-name="Grupo 42274" transform="translate(0 0)">
    <g id="Grupo_18423" data-name="Grupo 18423" transform="translate(0 0)">
      <g id="Grupo_18421" data-name="Grupo 18421">
        <g id="Grupo_18420" data-name="Grupo 18420">
          <g id="Grupo_18419" data-name="Grupo 18419">
            <path id="Trazado_40936" data-name="Trazado 40936" d="M273.684,2185.25a39.53,39.53,0,1,1-39.53-39.529A39.53,39.53,0,0,1,273.684,2185.25Z" transform="translate(-194.623 -2145.721)" fill="#fff"/>
          </g>
        </g>
      </g>
      <path id="Trazado_40937" data-name="Trazado 40937" d="M273.528,2185.083A39.529,39.529,0,1,0,234,2224.613,39.372,39.372,0,0,0,273.528,2185.083Z" transform="translate(-194.467 -2145.553)" fill="url(#radial-gradient)"/>
      <path id="Trazado_40938" data-name="Trazado 40938" d="M262.865,2183.788a30.173,30.173,0,1,0-30.173,30.174A30.062,30.062,0,0,0,262.865,2183.788Z" transform="translate(-193.041 -2144.127)" fill="none" stroke="#12263f" stroke-miterlimit="10" stroke-width="2"/>
      <g id="Grupo_18422" data-name="Grupo 18422" transform="translate(7.003 22.193)">
        <path id="Trazado_40939" data-name="Trazado 40939" d="M268.606,2164.488a39.535,39.535,0,0,1-68.061,39.366,39.409,39.409,0,0,0,68.061-39.366Z" transform="translate(-200.545 -2164.488)" fill="#eceef0"/>
      </g>
    </g>
  </g>
  <g id="k6uWVS.tif" transform="translate(-1002.304 2134.366)">
    <g id="Grupo_161619" data-name="Grupo 161619" transform="translate(1027.245 -2112.907)">
      <path id="Trazado_199760" data-name="Trazado 199760" d="M1027.931-2112.907h24.009a1.127,1.127,0,0,1,.678,1.119q-.011,16.444-.006,32.887c0,.779-.344,1.117-1.13,1.117h-23.009c-.767,0-.953-.125-1.228-.822v-33.478A1.255,1.255,0,0,1,1027.931-2112.907Zm22.865,1.8h-21.69v31.512h21.69Z" transform="translate(-1027.245 2112.907)" fill="#12263f"/>
      <path id="Trazado_199761" data-name="Trazado 199761" d="M1427.175-2031.912q0-5.162,0-10.324a.951.951,0,0,1,.354-.91,1.291,1.291,0,0,1,.633-.2c1.372-.017,2.744-.014,4.115-.006a.92.92,0,0,1,1,.976c0,.1,0,.206,0,.309q0,10.153-.011,20.306a2.777,2.777,0,0,1-.265,1.144c-.6,1.278-1.26,2.531-1.888,3.8a.966.966,0,0,1-.906.66.966.966,0,0,1-.877-.655c-.655-1.319-1.327-2.629-1.967-3.956a2.042,2.042,0,0,1-.176-.855C1427.17-2025.052,1427.175-2028.482,1427.175-2031.912Zm4.263,9.654v-16.411h-2.45v16.411Zm-2.45-19.288v1.027h2.444v-1.027Zm.545,21.128.685,1.372.678-1.372Z" transform="translate(-1399.682 2048.137)" fill="#12263f"/>
      <path id="Trazado_199762" data-name="Trazado 199762" d="M1093.433-2049.438c-2.548,0-5.1-.017-7.646.011a1.011,1.011,0,0,1-1.1-1.091c.026-1.451.005-2.9.009-4.355,0-.739.352-1.078,1.1-1.078h15.292a.962.962,0,0,1,1.1,1.087c0,1.452-.01,2.9.006,4.355a1.011,1.011,0,0,1-1.078,1.082C1098.554-2049.453,1095.994-2049.438,1093.433-2049.438Zm-6.909-4.708v2.9h13.827v-2.9Z" transform="translate(-1080.742 2059.866)" fill="#12263f"/>
      <path id="Trazado_199763" data-name="Trazado 199763" d="M1144.391-1881.176c-.423,0-.845.006-1.268,0a.944.944,0,0,1-1.005-.8c-.052-.2-.108-.4-.141-.6a5.017,5.017,0,0,0-1.274-2.522,4.85,4.85,0,0,1,2.666-8.042,5.053,5.053,0,0,1,5.954,4.183,4.566,4.566,0,0,1-1.191,3.757,6.044,6.044,0,0,0-1.432,2.969c-.171.874-.426,1.051-1.314,1.051Zm.642-1.813c.1-.378.189-.755.308-1.121a6.486,6.486,0,0,1,1.363-2.154,2.905,2.905,0,0,0,.8-2.645,3.178,3.178,0,0,0-4.2-2.33,3.006,3.006,0,0,0-1.575,4.519c.3.414.641.8.952,1.211a5.728,5.728,0,0,1,1.03,2.52Z" transform="translate(-1131.686 1908.336)" fill="#12263f"/>
      <path id="Trazado_199764" data-name="Trazado 199764" d="M1186.672-1704.565c-.308,0-.617.009-.924,0a.914.914,0,0,1-.935-.856.874.874,0,0,1,.877-.937c.661-.028,1.324-.028,1.985,0a.883.883,0,0,1,.872.912.92.92,0,0,1-.916.88C1187.312-1704.553,1186.992-1704.565,1186.672-1704.565Z" transform="translate(-1173.981 1734.324)" fill="#12263f"/>
      <path id="Trazado_199765" data-name="Trazado 199765" d="M1277.228-1910.267a.931.931,0,0,1-.939-.894.942.942,0,0,1,.93-.908.956.956,0,0,1,.924.882A.935.935,0,0,1,1277.228-1910.267Z" transform="translate(-1259.171 1925.874)" fill="#12263f"/>
      <path id="Trazado_199766" data-name="Trazado 199766" d="M1098.209-1847.89a.927.927,0,0,1-.93.9.957.957,0,0,1-.921-.921.932.932,0,0,1,.924-.875A.906.906,0,0,1,1098.209-1847.89Z" transform="translate(-1091.607 1866.94)" fill="#12263f"/>
      <path id="Trazado_199767" data-name="Trazado 199767" d="M1199.459-1934.293a.916.916,0,0,1,.934.892.931.931,0,0,1-.943.89.915.915,0,0,1-.909-.882A.9.9,0,0,1,1199.459-1934.293Z" transform="translate(-1186.767 1946.57)" fill="#12263f"/>
      <path id="Trazado_199768" data-name="Trazado 199768" d="M1121.667-1910.274a.922.922,0,0,1-.933-.9.933.933,0,0,1,.893-.906.961.961,0,0,1,.959.884A.941.941,0,0,1,1121.667-1910.274Z" transform="translate(-1114.308 1925.881)" fill="#12263f"/>
      <path id="Trazado_199769" data-name="Trazado 199769" d="M1199.445-1672.542a.954.954,0,0,1,.935.908.936.936,0,0,1-.945.889.916.916,0,0,1-.909-.883A.933.933,0,0,1,1199.445-1672.542Z" transform="translate(-1186.752 1702.811)" fill="#12263f"/>
      <path id="Trazado_199770" data-name="Trazado 199770" d="M1307.561-1847.9a.935.935,0,0,1-.914.92.936.936,0,0,1-.932-.9.911.911,0,0,1,.9-.894A.913.913,0,0,1,1307.561-1847.9Z" transform="translate(-1286.574 1866.93)" fill="#12263f"/>
    </g>
  </g>
</svg>
