<svg id="Grupo_161745" data-name="Grupo 161745" xmlns="http://www.w3.org/2000/svg" xmlns:xlink="http://www.w3.org/1999/xlink" width="79.061" height="79.062" viewBox="0 0 79.061 79.062">
  <defs>
    <radialGradient id="radial-gradient" cx="0.076" cy="0.019" r="1.465" gradientTransform="translate(0.001)" gradientUnits="objectBoundingBox">
      <stop offset="0" stop-color="#f6f6f7"/>
      <stop offset="0.477" stop-color="#f9f9fa"/>
      <stop offset="0.715" stop-color="#fff"/>
    </radialGradient>
  </defs>
  <g id="Grupo_42274" data-name="Grupo 42274" transform="translate(0 0)">
    <g id="Grupo_18423" data-name="Grupo 18423" transform="translate(0 0)">
      <g id="Grupo_18421" data-name="Grupo 18421">
        <g id="Grupo_18420" data-name="Grupo 18420">
          <g id="Grupo_18419" data-name="Grupo 18419">
            <path id="Trazado_40936" data-name="Trazado 40936" d="M273.684,2185.25a39.53,39.53,0,1,1-39.53-39.529A39.53,39.53,0,0,1,273.684,2185.25Z" transform="translate(-194.623 -2145.721)" fill="#fff"/>
          </g>
        </g>
      </g>
      <path id="Trazado_40937" data-name="Trazado 40937" d="M273.528,2185.083A39.529,39.529,0,1,0,234,2224.613,39.372,39.372,0,0,0,273.528,2185.083Z" transform="translate(-194.467 -2145.553)" fill="url(#radial-gradient)"/>
      <path id="Trazado_40938" data-name="Trazado 40938" d="M262.865,2183.788a30.173,30.173,0,1,0-30.173,30.174A30.062,30.062,0,0,0,262.865,2183.788Z" transform="translate(-193.041 -2144.127)" fill="none" stroke="#12263f" stroke-miterlimit="10" stroke-width="2"/>
      <g id="Grupo_18422" data-name="Grupo 18422" transform="translate(7.003 22.193)">
        <path id="Trazado_40939" data-name="Trazado 40939" d="M268.606,2164.488a39.535,39.535,0,0,1-68.061,39.366,39.409,39.409,0,0,0,68.061-39.366Z" transform="translate(-200.545 -2164.488)" fill="#eceef0"/>
      </g>
    </g>
  </g>
  <g id="bgeAWu" transform="translate(-1065.46 410.558)">
    <g id="Grupo_161615" data-name="Grupo 161615" transform="translate(1090.607 -389.535)">
      <path id="Trazado_199724" data-name="Trazado 199724" d="M1127.612-375.992c-.911.526-2.038.177-2.568,1.471s.614,1.816.77,2.7l-3.2,3.2a3.233,3.233,0,0,1-.787-.461c-.818-.816-1.629-.447-2.455-.054-.077.036-.193.067-.216.129a10.568,10.568,0,0,0-1.072,3.071c-.123,4.144-.051,8.294-.051,12.441v.981h-27.429v-34.585h3.47c.028-.35.047-.6.068-.841a1.623,1.623,0,0,1,1.591-1.568c.766-.034,1.534-.017,2.3-.011,1.363.01,1.93.551,2.051,1.942.01.111.027.222.057.453h.9c2.358,0,4.716.024,7.073-.017a4.369,4.369,0,0,0,1.669-.482c.954-.036,1.479,1.2,2.8.684s.952-1.712,1.5-2.58c1.306,0,2.638-.019,3.969.02a.877.877,0,0,1,.582.432,3.682,3.682,0,0,1,.247.9,1.72,1.72,0,0,0,2.646,1.063c.387-.23.776-.456,1.127-.661l3.208,3.2a4.03,4.03,0,0,1-.494.826,1.74,1.74,0,0,0,0,2.441,2.064,2.064,0,0,0,1.287.6c.773.12,1.022.456.974,1.234C1127.559-378.319,1127.612-377.153,1127.612-375.992Zm-33.445-10.027c-.572,0-1.051.04-1.52-.009-.753-.079-1.02.148-1.017.968q.044,15.26,0,30.52c0,.788.217,1,1,.994,7.758-.028,15.515-.017,23.273-.017h.9v-13.263h-2.719c-.54-.889-.173-2.064-1.5-2.605s-1.834.76-2.748.78l-3.12-3.073c.146-.967,1.327-1.522.777-2.833s-1.768-.877-2.552-1.441v-4.355c.865-.557,2.044-.209,2.573-1.529s-.716-1.831-.833-3.031l1.18-.87-.1-.167h-7.713v15.534l1.183.058v7.084H1093v-7.09l1.17-.057Zm28.38-.546c-1.184,1.606-2.371.947-3.638.445-.619-.246-.975-.542-1.008-1.154-.054-1-.584-1.3-1.5-1.151a.681.681,0,0,1-.255,0c-1.023-.231-1.41.29-1.549,1.22a1.334,1.334,0,0,1-.494.89,12.174,12.174,0,0,1-2.031.838,1.012,1.012,0,0,1-.694-.077c-1.443-.7-1.434-.708-2.595.426a7.367,7.367,0,0,1-.768.578c.728,1.067,1.13,1.855.6,3.163a2.848,2.848,0,0,1-2.53,1.852c0,.739.035,1.394-.011,2.042-.039.543.162.746.691.831.458.073,1.2.21,1.282.482.393,1.28,1.71,2.563.242,3.966a.583.583,0,0,0-.114.219l1.872,1.941c.45-.265.875-.547,1.329-.77a.968.968,0,0,1,.673-.084,20.321,20.321,0,0,1,2.029.852.988.988,0,0,1,.435.529c.527,1.522.518,1.525,2.14,1.524h.969a2.969,2.969,0,0,1,1.811-2.524c1.353-.607,2.141-.088,3.133.534.539-.565,1.052-1.059,1.5-1.6.134-.162.215-.571.112-.692a2.112,2.112,0,0,1-.107-2.829,1.2,1.2,0,0,0,.2-.555c.044-.566.422-.733.89-.852,1.339-.338,1.337-.345,1.337-1.678a2.289,2.289,0,0,1,0-.425c.137-.712-.179-1.069-.872-1.126a1.423,1.423,0,0,1-1.506-1.376.805.805,0,0,0-.161-.389,1.765,1.765,0,0,1,.1-2.37.919.919,0,0,0,.037-.854C1123.688-385.342,1123.162-385.867,1122.547-386.566Zm-28.419,17.436v4.675h5.994c0-1.407,0-2.763,0-4.12,0-.192-.033-.385-.049-.557a1.169,1.169,0,0,0-1.564.637c-.389.713-.893,1.362-1.411,2.134-.511-.755-1.01-1.4-1.408-2.11A1.163,1.163,0,0,0,1094.128-369.13Zm4.8-15.654c0-.4,0-.764,0-1.125-.017-2.822.426-2.512-2.826-2.511-.056,0-.134-.014-.166.017-.225.217-.611.432-.629.671-.072.976-.03,1.961-.03,2.949Zm-2.453,13.162v-9.514H1095.3v9.514Zm2.4,0v-9.517h-1.123v9.517Zm-3.553-10.8h3.538v-1.126h-3.538Zm1.776,13.954,1.238-1.868h-2.487Z" transform="translate(-1090.607 389.535)" fill="#12263f"/>
      <path id="Trazado_199725" data-name="Trazado 199725" d="M1104.629-233.733c2.027,0,3.983-.009,5.938,0,.945.006,1.923.146,2.482-1.173l.866,1.051c-1.178.6-1.007,1.661-1,2.677.012,1.5,0,3,0,4.538h-8.29Zm3.348,3.781,2.631-2.577h-4.915c0,1.5-.019,2.974.031,4.442,0,.136.439.361.678.367,1.448.035,2.9.021,4.345.014.324,0,.647-.038.962-.058v-3.862l-3.417,3.536-1.63-1.648.638-.834Z" transform="translate(-1102.238 261.268)" fill="#12263f"/>
      <path id="Trazado_199726" data-name="Trazado 199726" d="M1160.59-219.6v-1.038h13.049v1.038Z" transform="translate(-1148.658 249.438)" fill="#12263f"/>
      <path id="Trazado_199727" data-name="Trazado 199727" d="M1160.612-205.522v-1.018h13.064v1.018Z" transform="translate(-1148.676 237.741)" fill="#12263f"/>
      <path id="Trazado_199728" data-name="Trazado 199728" d="M1171.419-255.98v1.081h-10.642v-1.081Z" transform="translate(-1148.813 278.752)" fill="#12263f"/>
      <path id="Trazado_199729" data-name="Trazado 199729" d="M1171.353-241.824v1.074H1160.7v-1.074Z" transform="translate(-1148.746 267.009)" fill="#12263f"/>
      <path id="Trazado_199730" data-name="Trazado 199730" d="M1160.671-191.339v-.98h10.663c.013.305.027.606.044.98Z" transform="translate(-1148.725 225.945)" fill="#12263f"/>
      <path id="Trazado_199731" data-name="Trazado 199731" d="M1165.41-269.889v1.07h-4.694v-1.07Z" transform="translate(-1148.762 290.289)" fill="#12263f"/>
      <path id="Trazado_199732" data-name="Trazado 199732" d="M1230.695-191.215v-.992h1.1v.992Z" transform="translate(-1206.809 225.852)" fill="#12263f"/>
      <path id="Trazado_199733" data-name="Trazado 199733" d="M1206.393-350.866a7.05,7.05,0,0,1-7.159-7.156,7.154,7.154,0,0,1,7.094-7.187,7.282,7.282,0,0,1,7.25,7.162A7.156,7.156,0,0,1,1206.393-350.866Zm6-7.109a6.074,6.074,0,0,0-5.984-6.053,6.106,6.106,0,0,0-6.07,5.982,6.139,6.139,0,0,0,6,6.07A6.107,6.107,0,0,0,1212.4-357.975Z" transform="translate(-1180.713 369.357)" fill="#12263f"/>
      <path id="Trazado_199734" data-name="Trazado 199734" d="M1218.025-341.581a4.655,4.655,0,0,1-4.719-4.817,4.759,4.759,0,0,1,4.773-4.726,4.87,4.87,0,0,1,4.769,4.782A4.76,4.76,0,0,1,1218.025-341.581Zm.052-8.371a3.7,3.7,0,0,0-3.648,3.622,3.676,3.676,0,0,0,3.639,3.625,3.7,3.7,0,0,0,3.609-3.575A3.7,3.7,0,0,0,1218.078-349.951Z" transform="translate(-1192.385 357.672)" fill="#12263f"/>
    </g>
  </g>
</svg>
