<svg id="Grupo_161745" data-name="Grupo 161745" xmlns="http://www.w3.org/2000/svg" xmlns:xlink="http://www.w3.org/1999/xlink" width="79.061" height="79.062" viewBox="0 0 79.061 79.062">
  <defs>
    <radialGradient id="radial-gradient" cx="0.076" cy="0.019" r="1.465" gradientTransform="translate(0.001)" gradientUnits="objectBoundingBox">
      <stop offset="0" stop-color="#f6f6f7"/>
      <stop offset="0.477" stop-color="#f9f9fa"/>
      <stop offset="0.715" stop-color="#fff"/>
    </radialGradient>
  </defs>
  <g id="Grupo_42274" data-name="Grupo 42274" transform="translate(0 0)">
    <g id="Grupo_18423" data-name="Grupo 18423" transform="translate(0 0)">
      <g id="Grupo_18421" data-name="Grupo 18421">
        <g id="Grupo_18420" data-name="Grupo 18420">
          <g id="Grupo_18419" data-name="Grupo 18419">
            <path id="Trazado_40936" data-name="Trazado 40936" d="M273.684,2185.25a39.53,39.53,0,1,1-39.53-39.529A39.53,39.53,0,0,1,273.684,2185.25Z" transform="translate(-194.623 -2145.721)" fill="#fff"/>
          </g>
        </g>
      </g>
      <path id="Trazado_40937" data-name="Trazado 40937" d="M273.528,2185.083A39.529,39.529,0,1,0,234,2224.613,39.372,39.372,0,0,0,273.528,2185.083Z" transform="translate(-194.467 -2145.553)" fill="url(#radial-gradient)"/>
      <path id="Trazado_40938" data-name="Trazado 40938" d="M262.865,2183.788a30.173,30.173,0,1,0-30.173,30.174A30.062,30.062,0,0,0,262.865,2183.788Z" transform="translate(-193.041 -2144.127)" fill="none" stroke="#12263f" stroke-miterlimit="10" stroke-width="2"/>
      <g id="Grupo_18422" data-name="Grupo 18422" transform="translate(7.003 22.193)">
        <path id="Trazado_40939" data-name="Trazado 40939" d="M268.606,2164.488a39.535,39.535,0,0,1-68.061,39.366,39.409,39.409,0,0,0,68.061-39.366Z" transform="translate(-200.545 -2164.488)" fill="#eceef0"/>
      </g>
    </g>
  </g>
  <g id="_7Bi2Hy.tif" data-name="7Bi2Hy.tif" transform="translate(-996.89 994.674)">
    <g id="Grupo_161616" data-name="Grupo 161616" transform="translate(1016.245 -972.804)">
      <path id="Trazado_199735" data-name="Trazado 199735" d="M1053.318-972.8v3.646h-1.1v-1.662c-.144.11-.222.158-.286.22-.985.961-1.965,1.926-2.953,2.882a.409.409,0,0,0-.127.5,1.893,1.893,0,0,1-.488,2.07,1.946,1.946,0,0,1-2.116.454.5.5,0,0,0-.418.083q-.64.573-1.23,1.2a.53.53,0,0,0-.126.423,13.651,13.651,0,0,1-1.754,11.536.625.625,0,0,0-.036.106l2.006,2.147.7-.87,9.823,9.938L1050.086-935l-9.75-9.865.807-.658-2.025-2.171c-6.795,3.756-12.872,2.91-18.3-2.551-.2.177-.442.377-.657.607a.379.379,0,0,0-.061.332,2.006,2.006,0,0,1-1.149,2.692,2.01,2.01,0,0,1-2.631-1.349c-.008-.029-.048-.049-.073-.073v-.917c.024-.026.06-.048.071-.079a1.991,1.991,0,0,1,2.691-1.337.389.389,0,0,0,.3-.057c.312-.24.609-.5.888-.733a13.738,13.738,0,0,1,3.676-19.354,13.238,13.238,0,0,1,10.108-1.968,13.59,13.59,0,0,1,10.033,8.129c.355-.381.657-.724.98-1.045a.375.375,0,0,0,.1-.466,1.9,1.9,0,0,1,.455-2.14,1.863,1.863,0,0,1,2.144-.428.415.415,0,0,0,.526-.126c.951-.94,1.91-1.871,2.866-2.807.077-.075.147-.156.281-.3h-1.718V-972.8Zm-34.476,13.435a12.519,12.519,0,0,0,12.431,12.8,12.481,12.481,0,0,0,12.615-12.463,12.5,12.5,0,0,0-12.427-12.581A12.557,12.557,0,0,0,1018.842-959.369Zm34.793,19.229-8.1-8.191-3.621,3.621,8.09,8.2Zm-11.554-10.178-2,1.983,1.744,1.866,1.989-1.993Zm5.741-16.265a.885.885,0,0,0-.874-.87.88.88,0,0,0-.848.857.882.882,0,0,0,.853.889A.886.886,0,0,0,1047.823-966.582Zm-29.571,17.219a.867.867,0,0,0-.862.874.868.868,0,0,0,.857.842.873.873,0,0,0,.88-.857A.868.868,0,0,0,1018.252-949.363Z" transform="translate(-1016.245 972.804)" fill="#12263f"/>
      <path id="Trazado_199736" data-name="Trazado 199736" d="M1445.857-836.954h1.085v1.189h-1.085Z" transform="translate(-1412.953 847.359)" fill="#12263f"/>
      <path id="Trazado_199737" data-name="Trazado 199737" d="M1495.732-767.947h-1.085v-1.2h1.085Z" transform="translate(-1458.006 784.741)" fill="#12263f"/>
      <path id="Trazado_199738" data-name="Trazado 199738" d="M1428.9-709.061h1.1v1.181h-1.1Z" transform="translate(-1397.297 729.261)" fill="#12263f"/>
      <path id="Trazado_199739" data-name="Trazado 199739" d="M1097.6-607.234v1.175h-1.093v-1.175Z" transform="translate(-1090.358 635.233)" fill="#12263f"/>
      <path id="Trazado_199740" data-name="Trazado 199740" d="M1218.815-575.143h-1.094v-1.178h1.094Z" transform="translate(-1202.29 606.688)" fill="#12263f"/>
      <path id="Trazado_199741" data-name="Trazado 199741" d="M1097.553-517.345v1.183h-1.093v-1.183Z" transform="translate(-1090.316 552.228)" fill="#12263f"/>
      <path id="Trazado_199742" data-name="Trazado 199742" d="M1104.04-913.166a9.938,9.938,0,0,1-9.916,9.911,9.929,9.929,0,0,1-9.927-9.931,9.93,9.93,0,0,1,9.928-9.892A9.938,9.938,0,0,1,1104.04-913.166Zm-17.743,3.982c.774-.706,1.548-1.405,2.307-2.121.071-.067.066-.246.049-.366a5.2,5.2,0,0,1-.152-.854,1.989,1.989,0,0,1,1.946-1.919,1.989,1.989,0,0,1,2.053,1.759.384.384,0,0,0,.325.381q1.965.607,3.923,1.233a.394.394,0,0,0,.486-.135,1.93,1.93,0,0,1,2.183-.528.419.419,0,0,0,.527-.127c.8-.8,1.6-1.606,2.437-2.369a.873.873,0,0,0,.273-.989,8.783,8.783,0,0,0-9.712-6.633,8.6,8.6,0,0,0-5.715,3.259,8.522,8.522,0,0,0-1.875,4.984A8.473,8.473,0,0,0,1086.3-909.184Zm.73,1.176a8.734,8.734,0,0,0,10.379,2.972,8.586,8.586,0,0,0,5.43-8.052c-.712.692-1.4,1.369-2.1,2.029a.456.456,0,0,0-.13.562,1.887,1.887,0,0,1-.467,2.04,1.89,1.89,0,0,1-2.071.49,1.884,1.884,0,0,1-1.338-1.649.374.374,0,0,0-.3-.373c-1.335-.41-2.666-.833-4-1.234a.486.486,0,0,0-.409.1,2.023,2.023,0,0,1-2.228.561.428.428,0,0,0-.361.066C1088.63-909.678,1087.839-908.85,1087.027-908.007Zm12.546-1.854a.859.859,0,0,0-.862-.87.857.857,0,0,0-.852.88.862.862,0,0,0,.843.854A.862.862,0,0,0,1099.573-909.861Zm-9.052-3.434a.867.867,0,0,0-.885.851.871.871,0,0,0,.875.862.867.867,0,0,0,.866-.834A.864.864,0,0,0,1090.521-913.3Z" transform="translate(-1078.993 926.886)" fill="#12263f"/>
      <path id="Trazado_199743" data-name="Trazado 199743" d="M1383.679-627.487l-.711.7-3.115-3.127-.754.921-.8-.81,1.537-1.528Z" transform="translate(-1350.567 657.485)" fill="#12263f"/>
      <path id="Trazado_199744" data-name="Trazado 199744" d="M1453.068-566.437l-.77-.768.779-.734.779.769Z" transform="translate(-1418.901 598.948)" fill="#12263f"/>
      <path id="Trazado_199745" data-name="Trazado 199745" d="M1156.249-892.58l-.371,1.056a6.612,6.612,0,0,0-3.362-.245,6.456,6.456,0,0,0-3.039,1.472l-.717-.82A7.473,7.473,0,0,1,1156.249-892.58Z" transform="translate(-1138.61 899.121)" fill="#12263f"/>
      <path id="Trazado_199746" data-name="Trazado 199746" d="M1259.43-878.148l-.745.869-.861-.629.587-.967Z" transform="translate(-1239.322 886.069)" fill="#12263f"/>
      <path id="Trazado_199747" data-name="Trazado 199747" d="M1176.644-714.036l.409-1.017a6.925,6.925,0,0,0,3.776.324l.227,1.047A6.744,6.744,0,0,1,1176.644-714.036Z" transform="translate(-1164.359 734.794)" fill="#12263f"/>
    </g>
  </g>
</svg>
