<svg id="Grupo_161745" data-name="Grupo 161745" xmlns="http://www.w3.org/2000/svg" xmlns:xlink="http://www.w3.org/1999/xlink" width="79.061" height="79.062" viewBox="0 0 79.061 79.062">
  <defs>
    <radialGradient id="radial-gradient" cx="0.076" cy="0.019" r="1.465" gradientTransform="translate(0.001)" gradientUnits="objectBoundingBox">
      <stop offset="0" stop-color="#f6f6f7"/>
      <stop offset="0.477" stop-color="#f9f9fa"/>
      <stop offset="0.715" stop-color="#fff"/>
    </radialGradient>
  </defs>
  <g id="Grupo_42274" data-name="Grupo 42274" transform="translate(0 0)">
    <g id="Grupo_18423" data-name="Grupo 18423" transform="translate(0 0)">
      <g id="Grupo_18421" data-name="Grupo 18421">
        <g id="Grupo_18420" data-name="Grupo 18420">
          <g id="Grupo_18419" data-name="Grupo 18419">
            <path id="Trazado_40936" data-name="Trazado 40936" d="M273.684,2185.25a39.53,39.53,0,1,1-39.53-39.529A39.53,39.53,0,0,1,273.684,2185.25Z" transform="translate(-194.623 -2145.721)" fill="#fff"/>
          </g>
        </g>
      </g>
      <path id="Trazado_40937" data-name="Trazado 40937" d="M273.528,2185.083A39.529,39.529,0,1,0,234,2224.613,39.372,39.372,0,0,0,273.528,2185.083Z" transform="translate(-194.467 -2145.553)" fill="url(#radial-gradient)"/>
      <path id="Trazado_40938" data-name="Trazado 40938" d="M262.865,2183.788a30.173,30.173,0,1,0-30.173,30.174A30.062,30.062,0,0,0,262.865,2183.788Z" transform="translate(-193.041 -2144.127)" fill="none" stroke="#12263f" stroke-miterlimit="10" stroke-width="2"/>
      <g id="Grupo_18422" data-name="Grupo 18422" transform="translate(7.003 22.193)">
        <path id="Trazado_40939" data-name="Trazado 40939" d="M268.606,2164.488a39.535,39.535,0,0,1-68.061,39.366,39.409,39.409,0,0,0,68.061-39.366Z" transform="translate(-200.545 -2164.488)" fill="#eceef0"/>
      </g>
    </g>
  </g>
  <g id="pnzDC2.tif" transform="translate(-995.642 3672.194)">
    <g id="Grupo_161621" data-name="Grupo 161621" transform="translate(1016.245 -3651.376)">
      <path id="Trazado_199784" data-name="Trazado 199784" d="M1016.245-3626.624v-3.651h1.16v-17.45h-1.16v-3.651h27.713v3.647H1042.8v10.818c1.055,0,2.087-.019,3.118,0a4.181,4.181,0,0,1,4.059,3.844c.065.921.052,1.848.036,2.772a5.4,5.4,0,0,1-1.824,4.067,1.552,1.552,0,0,0-.143.205,9.822,9.822,0,0,1,1.382.009,4.8,4.8,0,0,1,4.2,4.9q0,3.558,0,7.118h-14.457v-6.635h-.447c-1.679,0-3.357-.005-5.036.006a.471.471,0,0,1-.5-.306c-.885-1.8-1.791-3.581-2.673-5.379a.52.52,0,0,0-.554-.338q-6.678.014-13.356.007C1016.488-3626.637,1016.366-3626.628,1016.245-3626.624Zm2.436-21.1v17.43h9.832c-.154-.31-.312-.582-.424-.871a.446.446,0,0,0-.5-.3c-2.457.008-4.915,0-7.372.011-.286,0-.374-.075-.372-.367.013-1.582.006-3.163.007-4.745,0-.106.014-.212.022-.323h8.45v2.594a.585.585,0,0,0,.114-.058,2.5,2.5,0,0,1,4.073.779c.5,1.012,1.062,1.993,1.583,2.995a.482.482,0,0,0,.5.314c1.4-.016,2.8-.007,4.2-.008.116,0,.233-.012.386-.021,0-.883-.029-1.734.006-2.582a4.027,4.027,0,0,1,2.069-3.431.568.568,0,0,0,.331-.564c-.011-3.479-.007-6.959-.007-10.438v-.41Zm18.094,25.894h3.6v6.593h8.44v-5.971h1.217v2.373h2.361c0-.878.037-1.74-.008-2.6a3.436,3.436,0,0,0-2.079-3.06,8.341,8.341,0,0,0-1.328-.385l.531,2.162c-.038.034-.054.056-.075.065-1.572.675-3.143,1.351-4.719,2.017a.486.486,0,0,1-.337-.024c-1.486-.63-2.966-1.273-4.453-1.9-.235-.1-.267-.214-.2-.442.162-.593.3-1.193.453-1.821h-3.4Zm-1.247-.012c0-1.155,0-2.248,0-3.342a.7.7,0,0,0-.093-.306q-2.028-3.809-4.071-7.611a1.732,1.732,0,0,0-.555-.6,1.231,1.231,0,0,0-1.482.165,1.37,1.37,0,0,0-.235,1.646q2.447,4.92,4.913,9.831a.4.4,0,0,0,.251.211C1034.661-3621.827,1035.073-3621.839,1035.527-3621.839Zm4.88-8.435a4.19,4.19,0,0,0,4.231,4.219,4.179,4.179,0,0,0,4.13-4.278,4.174,4.174,0,0,1-2.475-1.413,4.264,4.264,0,0,1-3.71,1.479C1041.869-3630.306,1041.151-3630.274,1040.408-3630.274Zm-22.924-18.713h25.254v-1.135h-25.254Zm31.322,17.4c0-.382.014-.722,0-1.061a3.024,3.024,0,0,0-3.178-3.042c-.729,0-1.462-.037-2.188.013a3.69,3.69,0,0,0-1.367.309c-1.543.766-1.858,2.136-1.652,3.871.82,0,1.646-.022,2.47.006a3.077,3.077,0,0,0,2.471-1.023c.355-.379.73-.741,1.124-1.14C1047.08-3632.737,1047.6-3631.809,1048.806-3631.583Zm-27.723-1.115h5.976v-2.967h-5.976Zm-3.6,4.814h12.23c-.149-.3-.295-.567-.407-.843a.473.473,0,0,0-.52-.33q-5.457.016-10.915.007h-.389Zm34.888,12.656v-2.342h-2.316v2.342Zm-13.088-13.8h-4.356c.193.365.361.7.548,1.02a.306.306,0,0,0,.219.137c1.322.009,2.644.006,4,.006Zm1.831,2.977a1.181,1.181,0,0,0-1.144-.6c-1.105.041-2.213.013-3.32.013h-.4c.1.44.293.623.738.6.825-.041,1.654-.012,2.481-.012Zm2.214,1.234,1.258,1.883,1.255-1.883Zm.059,2.412.044-.053c-.5-.754-1-1.511-1.513-2.255a.444.444,0,0,0-.346-.113c-.068,0-.161.128-.185.215-.109.4-.2.8-.3,1.219Zm2.355-.064.049.06,2.293-.985c-.1-.421-.19-.81-.3-1.192-.028-.1-.126-.228-.2-.238a.418.418,0,0,0-.339.123C1046.73-3623.963,1046.239-3623.213,1045.742-3622.468Z" transform="translate(-1016.245 3651.376)" fill="#12263f"/>
      <path id="Trazado_199785" data-name="Trazado 199785" d="M1073.512-3578.347l-.932.927c-.216-.25-.426-.517-.665-.756a.39.39,0,0,0-.331-.074c-.285.1-.556.231-.874.368v1.221H1069.5v-1.216c-.325-.141-.608-.278-.9-.381a.359.359,0,0,0-.3.068c-.247.231-.471.487-.721.753l-.835-.92.837-.795-.466-1.121h-1.214v-1.212c.342,0,.668-.01.992,0a.281.281,0,0,0,.337-.244.581.581,0,0,1,.078-.241c.384-.476.137-.8-.252-1.094-.125-.1-.245-.2-.385-.314l.986-.875.742.84c.349-.138.647-.242.929-.378a.366.366,0,0,0,.165-.264c.02-.326.008-.656.008-1.013h1.227c0,.334.009.66,0,.985-.007.19.05.3.247.326a.414.414,0,0,1,.207.065c.5.42.84.154,1.148-.26.095-.126.185-.256.263-.363l.941.909-.887.809c.141.358.239.657.379.935a.424.424,0,0,0,.308.166c.313.022.629.008.97.008v1.214c-.319,0-.632.01-.944,0a.3.3,0,0,0-.368.25c-.081.276-.214.538-.354.877Zm-5.2-2.531a1.776,1.776,0,0,0,1.8,1.8,1.8,1.8,0,0,0,1.788-1.788,1.831,1.831,0,0,0-1.814-1.811A1.8,1.8,0,0,0,1068.308-3580.879Z" transform="translate(-1062.258 3589.918)" fill="#12263f"/>
      <path id="Trazado_199786" data-name="Trazado 199786" d="M1201.4-3499.117h-3.577v-3.572h3.577Zm-2.368-2.38v1.189c.347,0,.673.009,1-.008a.249.249,0,0,0,.174-.167c.017-.334.008-.67.008-1.014Z" transform="translate(-1184.54 3513.567)" fill="#12263f"/>
      <path id="Trazado_199787" data-name="Trazado 199787" d="M1197.789-3580.725v-1.213c.567,0,1.121-.014,1.674.006a.622.622,0,0,0,.619-.324c.658-1.02,1.345-2.021,2.01-3.038a.481.481,0,0,1,.464-.26c.8.014,1.6.005,2.433.005v1.225c-.543,0-1.1.021-1.649-.008a.665.665,0,0,0-.671.364c-.65,1.011-1.331,2-1.99,3.007a.457.457,0,0,1-.438.242C1199.43-3580.732,1198.619-3580.725,1197.789-3580.725Z" transform="translate(-1184.508 3590.37)" fill="#12263f"/>
      <path id="Trazado_199788" data-name="Trazado 199788" d="M1315.576-3583.9H1313.2v-1.175h2.372Z" transform="translate(-1291.479 3589.922)" fill="#12263f"/>
      <path id="Trazado_199789" data-name="Trazado 199789" d="M1263.778-3485.186v-1.187h2.371v1.187Z" transform="translate(-1245.669 3498.443)" fill="#12263f"/>
      <path id="Trazado_199790" data-name="Trazado 199790" d="M1315.589-3486.2v1.175h-2.374v-1.175Z" transform="translate(-1291.489 3498.285)" fill="#12263f"/>
    </g>
  </g>
</svg>
