<svg id="Grupo_161745" data-name="Grupo 161745" xmlns="http://www.w3.org/2000/svg" xmlns:xlink="http://www.w3.org/1999/xlink" width="79.061" height="79.062" viewBox="0 0 79.061 79.062">
  <defs>
    <radialGradient id="radial-gradient" cx="0.076" cy="0.019" r="1.465" gradientTransform="translate(0.001)" gradientUnits="objectBoundingBox">
      <stop offset="0" stop-color="#f6f6f7"/>
      <stop offset="0.477" stop-color="#f9f9fa"/>
      <stop offset="0.715" stop-color="#fff"/>
    </radialGradient>
  </defs>
  <g id="Grupo_42274" data-name="Grupo 42274" transform="translate(0 0)">
    <g id="Grupo_18423" data-name="Grupo 18423" transform="translate(0 0)">
      <g id="Grupo_18421" data-name="Grupo 18421">
        <g id="Grupo_18420" data-name="Grupo 18420">
          <g id="Grupo_18419" data-name="Grupo 18419">
            <path id="Trazado_40936" data-name="Trazado 40936" d="M273.684,2185.25a39.53,39.53,0,1,1-39.53-39.529A39.53,39.53,0,0,1,273.684,2185.25Z" transform="translate(-194.623 -2145.721)" fill="#fff"/>
          </g>
        </g>
      </g>
      <path id="Trazado_40937" data-name="Trazado 40937" d="M273.528,2185.083A39.529,39.529,0,1,0,234,2224.613,39.372,39.372,0,0,0,273.528,2185.083Z" transform="translate(-194.467 -2145.553)" fill="url(#radial-gradient)"/>
      <path id="Trazado_40938" data-name="Trazado 40938" d="M262.865,2183.788a30.173,30.173,0,1,0-30.173,30.174A30.062,30.062,0,0,0,262.865,2183.788Z" transform="translate(-193.041 -2144.127)" fill="none" stroke="#12263f" stroke-miterlimit="10" stroke-width="2"/>
      <g id="Grupo_18422" data-name="Grupo 18422" transform="translate(7.003 22.193)">
        <path id="Trazado_40939" data-name="Trazado 40939" d="M268.606,2164.488a39.535,39.535,0,0,1-68.061,39.366,39.409,39.409,0,0,0,68.061-39.366Z" transform="translate(-200.545 -2164.488)" fill="#eceef0"/>
      </g>
    </g>
  </g>
  <g id="boMHB4.tif" transform="translate(-995.276 1289.503)">
    <g id="Grupo_161617" data-name="Grupo 161617" transform="translate(1016.245 -1270.698)">
      <path id="Trazado_199748" data-name="Trazado 199748" d="M1029-1270.7v1.748c.374.158.727.326,1.1.45a.439.439,0,0,0,.363-.1c.351-.336.679-.7,1.053-1.086.57.575,1.1,1.111,1.63,1.645.439.442.869.894,1.329,1.313a.747.747,0,0,0,.521.182,16.072,16.072,0,0,1,8.422,1.144,16.637,16.637,0,0,1,10.091,12.272,15.9,15.9,0,0,1,.071,6.052.542.542,0,0,0,.079.4,8.2,8.2,0,0,1,2.139,4.677,1.392,1.392,0,0,0,.041.154h1.985v1.357h-1.937c-.224.8-.385,1.572-.652,2.3a7.1,7.1,0,0,1-2.276,3.153,1.03,1.03,0,0,0-.484,1.012,7.492,7.492,0,0,1,.006.877h1.319v1.356h-1.3v2.661h-9.416v-2.632h-1.3v-1.359h1.261v-1.053c-.892.239-1.766.523-2.661.7a16.353,16.353,0,0,1-10-1.039,16.591,16.591,0,0,1-6.129-4.567,16.617,16.617,0,0,1-3.772-8.181,16.174,16.174,0,0,1-.064-4.651.673.673,0,0,0-.244-.631c-.956-.939-1.9-1.888-2.9-2.883.371-.362.719-.717,1.086-1.052a.33.33,0,0,0,.079-.454c-.157-.327-.289-.665-.438-1.014h-1.745v-5.363a4.123,4.123,0,0,1,.728,0c.736.123,1.247-.071,1.382-.879.011-.064.08-.125.076-.184-.01-.139,0-.32-.084-.406-.343-.36-.716-.691-1.065-1.02l3.857-3.871a13.645,13.645,0,0,0,1.026,1.071c.457.388.775-.22,1.19-.241.192-.009.285-.14.278-.361-.015-.5,0-1,.005-1.5Zm0,20.115h-5.37c0-.515.007-1-.006-1.487,0-.1-.052-.262-.127-.3-.338-.167-.692-.3-1.044-.44a.215.215,0,0,0-.185.033,1.108,1.108,0,0,0-.5.8c-.022,1-.1,2-.085,3a13.316,13.316,0,0,0,1.185,5.141,15.2,15.2,0,0,0,7.717,7.931,15.183,15.183,0,0,0,10.4.919c.393-.1.776-.242,1.186-.371-.064-.083-.085-.118-.113-.146a7.862,7.862,0,0,1-2.254-4.7c-.027-.238-.144-.28-.349-.277-.577.009-1.154,0-1.729,0v-1.377h2.008a7.956,7.956,0,0,1,4.593-6.57,7.891,7.891,0,0,1,7.956.564,14.382,14.382,0,0,0-.3-5.772,15.192,15.192,0,0,0-5.543-8.452,15.054,15.054,0,0,0-7.07-3.034,15.633,15.633,0,0,0-4.525-.028.657.657,0,0,0-.564,1.019,3.082,3.082,0,0,1,.209.526c.06.25.2.305.44.3.469-.015.939,0,1.42,0v5.371a5.118,5.118,0,0,1-.752-.006c-.7-.109-1.207.051-1.327.843a.389.389,0,0,1-.069.146.354.354,0,0,0,.088.525c.355.324.685.675.949.94l-3.818,3.829c-.291-.3-.611-.654-.952-.981a.444.444,0,0,0-.365-.124,11.23,11.23,0,0,0-1.107.576c-.036.021-.007.154-.007.236C1029-1251.513,1029-1251.067,1029-1250.583Zm-4.024-1.365h2.661v-1.322l2.986-1.24.828.911,1.927-1.925-.931-.827,1.233-2.979H1035v-2.639h-.614c-.78,0-.757-.009-1.031-.737s-.6-1.434-.936-2.229l.943-.831-1.943-1.956-.811.931c-.987-.38-1.868-.71-2.739-1.064a.465.465,0,0,1-.228-.334c-.029-.371-.011-.746-.011-1.13h-2.66c0,.392.016.769-.009,1.143a.429.429,0,0,1-.2.317c-.884.358-1.776.693-2.8,1.086l-.809-.969-1.955,1.955.968.809c-.393,1.023-.728,1.916-1.085,2.8a.43.43,0,0,1-.317.2c-.374.025-.75.01-1.133.01v2.66c.405,0,.783-.013,1.159.009a.39.39,0,0,1,.287.187c.357.9.7,1.8,1.094,2.847l-.937.815,1.935,1.928.824-.955c.986.375,1.867.7,2.739,1.053a.474.474,0,0,1,.228.343C1024.992-1252.706,1024.973-1252.329,1024.973-1251.948Zm26.141,18.784c0-.543.026-1.056-.008-1.566a.955.955,0,0,1,.477-.958,6.56,6.56,0,0,0,2.729-6.927,6.654,6.654,0,0,0-9.039-4.761,6.616,6.616,0,0,0-4.142,7.013,6.561,6.561,0,0,0,3.028,4.821.541.541,0,0,1,.278.525c-.016.617-.005,1.235-.005,1.85h2.661c.006-.144.016-.263.016-.381,0-1.557-.008-3.115.008-4.672a.435.435,0,0,0-.348-.483,2.648,2.648,0,0,1-1.629-2.947,2.712,2.712,0,0,1,2.633-2.22,2.753,2.753,0,0,1,2.652,2.209,2.671,2.671,0,0,1-1.633,2.953.443.443,0,0,0-.339.5c.012,1.557.005,3.114.007,4.671,0,.118.015.236.025.375Zm-6.667,2.682h6.645v-1.268h-6.645Zm4.653-10.711a1.326,1.326,0,0,0-1.321-1.313,1.323,1.323,0,0,0-1.322,1.35,1.33,1.33,0,0,0,1.319,1.319A1.334,1.334,0,0,0,1049.1-1241.192Z" transform="translate(-1016.245 1270.698)" fill="#12263f"/>
      <path id="Trazado_199749" data-name="Trazado 199749" d="M1110.371-1006.922l-1.2,1.99-1.158-.693,2.336-3.9,4.593,2.3-.605,1.209-2.6-1.294a9.931,9.931,0,0,0,8.912,7.371v1.338a11.23,11.23,0,0,1-6.466-2.519A11.462,11.462,0,0,1,1110.371-1006.922Z" transform="translate(-1100.541 1030.781)" fill="#12263f"/>
      <path id="Trazado_199750" data-name="Trazado 199750" d="M1286.03-1146.019l.432-1.276,2.817.932a9.852,9.852,0,0,0-3.3-5.307,9.929,9.929,0,0,0-5.753-2.325v-1.392a11.591,11.591,0,0,1,10.314,8.3l1.168-1.93,1.16.693c-.737,1.227-1.457,2.433-2.189,3.631a.333.333,0,0,1-.283.131C1288.952-1145.036,1287.509-1145.523,1286.03-1146.019Z" transform="translate(-1258.744 1164.773)" fill="#12263f"/>
      <path id="Trazado_199751" data-name="Trazado 199751" d="M1074.015-1207.567a5.342,5.342,0,0,1,5.373-5.352,5.358,5.358,0,0,1,5.358,5.374,5.373,5.373,0,0,1-5.42,5.359A5.36,5.36,0,0,1,1074.015-1207.567Zm8.065.679v-1.364h1.323l-.685-1.6-.212-.065-.661.868-1.089-1,1.01-.824-1.732-.7v1.329h-1.342v-1.334l-1.613.677-.028.155.878.778-1.014,1.056-.842-1.066-.722,1.764h1.323v1.345h-1.321l.673,1.617.149.045.762-.964,1.025,1.044-.977.892,1.706.7v-1.3h1.359v1.311l1.624-.68.071-.214-.93-.695.981-1.022.829.932a3.382,3.382,0,0,0,.666-1.676Z" transform="translate(-1069.313 1217.622)" fill="#12263f"/>
      <path id="Trazado_199752" data-name="Trazado 199752" d="M1338.007-916.082h1.307v1.319h-1.307Z" transform="translate(-1311.818 944.946)" fill="#12263f"/>
      <path id="Trazado_199753" data-name="Trazado 199753" d="M1435.121-958.644l-.856.866-.932-.925.943-.865Z" transform="translate(-1399.385 984.893)" fill="#12263f"/>
      <path id="Trazado_199754" data-name="Trazado 199754" d="M1395.717-972.455v-1.315h1.3v1.315Z" transform="translate(-1364.83 997.938)" fill="#12263f"/>
      <path id="Trazado_199755" data-name="Trazado 199755" d="M1435.979-876.548l-.886.875-.841-.912.881-.835Z" transform="translate(-1400.229 909.431)" fill="#12263f"/>
      <path id="Trazado_199756" data-name="Trazado 199756" d="M1352.38-958.169l-.914-.9.934-.912.879.924Z" transform="translate(-1324.181 985.275)" fill="#12263f"/>
      <path id="Trazado_199757" data-name="Trazado 199757" d="M1352.457-877.63l.853-.9.881.918-.866.839Z" transform="translate(-1325.091 910.447)" fill="#12263f"/>
      <path id="Trazado_199758" data-name="Trazado 199758" d="M1453.457-916h1.29v1.319h-1.29Z" transform="translate(-1417.87 944.867)" fill="#12263f"/>
    </g>
  </g>
</svg>
