<svg id="Grupo_161745" data-name="Grupo 161745" xmlns="http://www.w3.org/2000/svg" xmlns:xlink="http://www.w3.org/1999/xlink" width="79.061" height="79.062" viewBox="0 0 79.061 79.062">
  <defs>
    <radialGradient id="radial-gradient" cx="0.076" cy="0.019" r="1.465" gradientTransform="translate(0.001)" gradientUnits="objectBoundingBox">
      <stop offset="0" stop-color="#f6f6f7"/>
      <stop offset="0.477" stop-color="#f9f9fa"/>
      <stop offset="0.715" stop-color="#fff"/>
    </radialGradient>
  </defs>
  <g id="Grupo_42274" data-name="Grupo 42274" transform="translate(0 0)">
    <g id="Grupo_18423" data-name="Grupo 18423" transform="translate(0 0)">
      <g id="Grupo_18421" data-name="Grupo 18421">
        <g id="Grupo_18420" data-name="Grupo 18420">
          <g id="Grupo_18419" data-name="Grupo 18419">
            <path id="Trazado_40936" data-name="Trazado 40936" d="M273.684,2185.25a39.53,39.53,0,1,1-39.53-39.529A39.53,39.53,0,0,1,273.684,2185.25Z" transform="translate(-194.623 -2145.721)" fill="#fff"/>
          </g>
        </g>
      </g>
      <path id="Trazado_40937" data-name="Trazado 40937" d="M273.528,2185.083A39.529,39.529,0,1,0,234,2224.613,39.372,39.372,0,0,0,273.528,2185.083Z" transform="translate(-194.467 -2145.553)" fill="url(#radial-gradient)"/>
      <path id="Trazado_40938" data-name="Trazado 40938" d="M262.865,2183.788a30.173,30.173,0,1,0-30.173,30.174A30.062,30.062,0,0,0,262.865,2183.788Z" transform="translate(-193.041 -2144.127)" fill="none" stroke="#12263f" stroke-miterlimit="10" stroke-width="2"/>
      <g id="Grupo_18422" data-name="Grupo 18422" transform="translate(7.003 22.193)">
        <path id="Trazado_40939" data-name="Trazado 40939" d="M268.606,2164.488a39.535,39.535,0,0,1-68.061,39.366,39.409,39.409,0,0,0,68.061-39.366Z" transform="translate(-200.545 -2164.488)" fill="#eceef0"/>
      </g>
    </g>
  </g>
  <g id="fcCcjA.tif" transform="translate(-994.34 1605.193)">
    <g id="Grupo_161618" data-name="Grupo 161618" transform="translate(1016.245 -1584.402)">
      <path id="Trazado_199759" data-name="Trazado 199759" d="M1035.441-1547.168c0-2.7,0-5.4.015-8.105a2.032,2.032,0,0,1,.178-.8c.761-1.685,1.543-3.362,2.317-5.041.06-.13.116-.262.192-.436h-6.872v-1.221c.117-.006.244-.018.371-.018q4.8,0,9.6,0a3.027,3.027,0,0,1,3.223,3.2c.006,1.672,0,3.344,0,5.016,0,.618-.183.8-.8.8-.808,0-1.617,0-2.365,0l4.993,4.992,4.993-4.992h-2.336c-.717,0-.882-.162-.883-.872q0-3.053,0-6.107a5.384,5.384,0,0,0-2.289-4.62,4.964,4.964,0,0,0-2.946-.987c-3.708-.013-7.417-.006-11.125-.008h-.446v-1.223H1042.4a6.7,6.7,0,0,1,3.54.9.358.358,0,0,0,.525-.068,5.455,5.455,0,0,0,1.6-4.033q-.005-3.035,0-6.07c0-.773.147-.921.905-.922h2.239l-4.974-4.977-4.975,4.977h2.134c.157,0,.316,0,.472.006a.562.562,0,0,1,.59.6c0,1.9.037,3.806-.023,5.706a2.928,2.928,0,0,1-3,2.694c-3.332.028-6.665.009-10,.008a1.594,1.594,0,0,1-.17-.021v-1.191h7.751a7.084,7.084,0,0,0-5.456-6.95c-.5.849-1,1.7-1.487,2.564a.355.355,0,0,0,.031.316,1.817,1.817,0,0,1-1.471,2.887.462.462,0,0,0-.331.193c-.791,1.4-1.567,2.809-2.361,4.241a2.982,2.982,0,0,1,.855,2.72,2.957,2.957,0,0,1-1.149,1.834,3.032,3.032,0,0,1-3.945-.3,3.019,3.019,0,0,1,.236-4.424l-2.276-2.962-3.857,8.26c.14.013.24.03.34.03.824,0,1.648,0,2.472,0,.94,0,1.032.094,1.032,1.051q0,3.144,0,6.288v.457h.44q2.672,0,5.344,0c.61,0,.814.2.814.8q0,2.907-.009,5.815h-1.163c-.011-.144-.03-.288-.031-.431q0-2.253,0-4.505v-.452h-5.713c-.695,0-.884-.187-.884-.879q0-3.233,0-6.467v-.469h-.433c-.981,0-1.962-.01-2.943.005a.865.865,0,0,1-.829-.4v-.436c.059-.1.125-.2.175-.307,1.172-2.5,2.335-5.013,3.518-7.513a4.409,4.409,0,0,0,.58-1.988.966.966,0,0,0-.145-.525c-.552-.75-1.139-1.474-1.693-2.223a.864.864,0,0,0-.807-.462,1.4,1.4,0,0,1-1.183-.6,6.193,6.193,0,0,1-.444-.772v-.8c.023-.026.056-.047.067-.077a1.787,1.787,0,0,1,1.865-1.311.711.711,0,0,0,.413-.163q1.762-1.49,3.5-3.006a.576.576,0,0,0,.153-.394,1.811,1.811,0,0,1,1.3-1.77,1.791,1.791,0,0,1,2.046.787c.055.088.109.178.156.255,2.582-.341,5.136-.674,7.689-1.024a.618.618,0,0,0,.4-.277,1.835,1.835,0,0,1,1.964-.994,1.837,1.837,0,0,1,1.452,1.573,1.807,1.807,0,0,1-1.2,1.907.746.746,0,0,0-.34.284c-.457.755-.9,1.521-1.342,2.284a2.413,2.413,0,0,0-.11.246A8.55,8.55,0,0,1,1040.3-1570c.454,0,.891.025,1.325-.005a1.7,1.7,0,0,0,1.6-1.6c.04-1.61.021-3.221.025-4.832a.657.657,0,0,0-.046-.145h-.381q-1.49,0-2.981,0c-.307,0-.594-.05-.725-.368a.7.7,0,0,1,.253-.8q3.168-3.155,6.327-6.319c.439-.438.706-.441,1.141-.007q3.164,3.159,6.326,6.319c.227.227.4.463.264.8s-.437.38-.754.379q-1.49,0-2.981,0c-.13,0-.26.011-.422.018v.424c0,1.793-.011,3.586,0,5.379a6.573,6.573,0,0,1-1.153,3.9c-.266.384-.588.73-.891,1.1.057.063.112.126.169.187a6.332,6.332,0,0,1,1.856,4.4c.024,1.9.012,3.8.015,5.706,0,.143,0,.286,0,.46.162.007.292.018.421.019q1.509,0,3.017,0c.341,0,.635.081.743.447a.687.687,0,0,1-.263.707c-1.168,1.162-2.329,2.331-3.5,3.493q-1.594,1.586-3.2,3.165h-.436c-.1-.085-.207-.165-.3-.257q-3.227-3.223-6.449-6.453a.829.829,0,0,1-.224-.4c-.079-.416.2-.694.7-.7,1.018-.009,2.036,0,3.053,0,.128,0,.256-.014.4-.022,0-1.66.029-3.281-.011-4.9a1.716,1.716,0,0,0-1.768-1.662c-.557-.01-1.115.01-1.672-.009a.4.4,0,0,0-.428.289c-.854,1.868-1.719,3.732-2.575,5.6a1.121,1.121,0,0,0-.109.448q-.007,4.034,0,8.068Zm-8.455-20.338c.685-1.234,1.426-2.564,2.159-3.9.07-.127.174-.359.127-.405-.233-.232-.182-.656-.589-.772q-2.7-.771-5.387-1.582a.28.28,0,0,0-.38.138,6.9,6.9,0,0,0-1,2.2.515.515,0,0,0,.076.385q1.447,1.911,2.921,3.8a.421.421,0,0,0,.291.128C1025.766-1567.5,1026.325-1567.506,1026.986-1567.506Zm7.524-13.46c-.241-.3-.435-.555-.656-.79a.426.426,0,0,0-.318-.113c-1.572.2-3.143.4-4.715.61-.911.12-1.82.265-2.735.354-.389.038-.444.339-.564.574-.043.084.091.29.186.4.263.317.573.6.818.925.4.535.834.931,1.563.649a.1.1,0,0,1,.036,0c1.538,0,3.076.01,4.614,0a.424.424,0,0,0,.317-.145C1033.557-1579.322,1034.04-1580.16,1034.51-1580.966Zm-11.629.949-3.462,2.969c.223.241.378.552.615.639.768.282,1.563.492,2.355.7a.53.53,0,0,0,.433-.117,8.734,8.734,0,0,1,2.864-1.931,2.539,2.539,0,0,0,.227-.125c-.485-.538-.95-1.062-1.428-1.574a.444.444,0,0,0-.3-.134A1.909,1.909,0,0,1,1022.881-1580.017Zm1.186,15.439a1.78,1.78,0,0,0,1.768,1.784,1.8,1.8,0,0,0,1.816-1.787,1.81,1.81,0,0,0-1.782-1.786A1.782,1.782,0,0,0,1024.067-1564.577Zm5.192-9.586c-.768-.85-1.526-1.7-2.3-2.532a.451.451,0,0,0-.4-.078,7.968,7.968,0,0,0-1.257.553c-.458.268-.875.606-1.371.958.172.063.238.092.306.112,1.471.435,2.945.858,4.41,1.31C1028.979-1573.74,1029.152-1573.812,1029.26-1574.164Zm3.014-2.969h-4.053c.715.8,1.35,1.542,2.038,2.234a.709.709,0,0,0,.681,0C1031.415-1575.606,1031.822-1576.358,1032.273-1577.132Zm-12.65,1.89c-.045.211-.178.455-.107.558.438.632.923,1.232,1.4,1.855l.877-1.772Zm11.041,2.847a.58.58,0,0,0,.568-.615.567.567,0,0,0-.587-.554.6.6,0,0,0-.582.572A.62.62,0,0,0,1030.665-1572.395Zm4.807-10.771a.588.588,0,0,0-.6.582.63.63,0,0,0,.579.586.582.582,0,0,0,.59-.6A.562.562,0,0,0,1035.473-1583.166Zm-17.438,7.771a.62.62,0,0,0,.6-.569.586.586,0,0,0-.561-.6.563.563,0,0,0-.607.573A.585.585,0,0,0,1018.035-1575.4Zm6.012-5.417a.567.567,0,0,0,.582-.564.591.591,0,0,0-.556-.6.623.623,0,0,0-.613.6A.585.585,0,0,0,1024.047-1580.812Z" transform="translate(-1016.245 1584.402)" fill="#12263f"/>
    </g>
  </g>
</svg>
