<svg id="Design-elements" xmlns="http://www.w3.org/2000/svg" width="29.654" height="16.104" viewBox="0 0 29.654 16.104">
  <path id="dots-03" d="M25.431,13.995A2.111,2.111,0,1,1,27.544,16.1,2.11,2.11,0,0,1,25.431,13.995Zm-12.715,0A2.108,2.108,0,1,1,14.824,16.1,2.108,2.108,0,0,1,12.716,13.995ZM0,13.995A2.106,2.106,0,1,1,2.107,16.1,2.108,2.108,0,0,1,0,13.995ZM25.431,2.112a2.111,2.111,0,1,1,2.112,2.111A2.113,2.113,0,0,1,25.431,2.112Zm-12.715,0a2.108,2.108,0,1,1,2.108,2.111A2.11,2.11,0,0,1,12.716,2.112ZM0,2.112A2.106,2.106,0,1,1,2.107,4.223,2.11,2.11,0,0,1,0,2.112Z" transform="translate(0 0)" fill="#12263f"/>
</svg>
