<svg xmlns="http://www.w3.org/2000/svg" width="82" height="82" viewBox="0 0 82 82">
  <g id="Grupo_1071909" data-name="Grupo 1071909" transform="translate(-224 -2059)">
    <g id="compra-local" transform="translate(231.85 2066.73)">
      <path id="Trazado_777327" data-name="Trazado 777327" d="M32.22,25.16a.976.976,0,0,0,.77.39.948.948,0,0,0,.77-.39c.07-.09,1.7-2.28,3.47-5.09,2.94-4.68,4.44-8.09,4.44-10.14a8.67,8.67,0,0,0-17.34,0c0,2.05,1.49,5.46,4.44,10.14C30.52,22.88,32.15,25.07,32.22,25.16Zm.77-21.97a6.752,6.752,0,0,1,6.75,6.74c0,.95-.54,3.39-4.14,9.11-1,1.58-1.97,2.99-2.61,3.9-.64-.91-1.61-2.31-2.61-3.9-3.6-5.72-4.14-8.17-4.14-9.11a6.758,6.758,0,0,1,6.75-6.74Z" fill="#fff"/>
      <path id="Trazado_777328" data-name="Trazado 777328" d="M37.47,9.94a4.48,4.48,0,1,0-4.48,4.48,4.479,4.479,0,0,0,4.48-4.48Zm-7.04,0a2.56,2.56,0,0,1,5.12,0v.01a2.56,2.56,0,0,1-5.12-.01Z" fill="#fff"/>
      <path id="Trazado_777329" data-name="Trazado 777329" d="M45.75,52.8v1.8a.96.96,0,1,0,1.92,0V52.8a.96.96,0,0,0-1.92,0Z" fill="#fff"/>
      <path id="Trazado_777330" data-name="Trazado 777330" d="M60.89,62.81H57.07V36.21a4.593,4.593,0,0,0,2.55-4.13V28.42c0-.02-.01-.04-.01-.06a.936.936,0,0,0-.14-.51L54.71,20a2.878,2.878,0,0,0-2.47-1.39H40.7a.96.96,0,0,0,0,1.92H52.24a.94.94,0,0,1,.82.46l3.88,6.4H9.05l3.88-6.4a.94.94,0,0,1,.82-.46H25.29a.96.96,0,1,0,0-1.92H13.74A2.891,2.891,0,0,0,11.27,20L6.51,27.86a.944.944,0,0,0-.13.57v3.66a4.593,4.593,0,0,0,2.55,4.13v26.6H5.11a.96.96,0,1,0,0,1.92H60.88a.96.96,0,0,0,.96-.96.948.948,0,0,0-.95-.97Zm-3.2-30.73a2.691,2.691,0,0,1-1.89,2.58,2.644,2.644,0,0,1-.81.12,2.708,2.708,0,0,1-2.5-1.67,2.5,2.5,0,0,1-.21-1.03v-2.7h5.4v2.7Zm-42.05-2.7h5.4v2.7a2.591,2.591,0,0,1-.21,1.05,2.7,2.7,0,0,1-4.98,0,2.733,2.733,0,0,1-.21-1.05Zm7.33,0h5.4v2.7a2.7,2.7,0,1,1-5.4,0Zm7.33,0h5.4v2.7a2.733,2.733,0,0,1-.21,1.05,2.7,2.7,0,0,1-4.98,0,2.733,2.733,0,0,1-.21-1.05Zm7.33,0h5.4v2.7a2.733,2.733,0,0,1-.21,1.05,2.7,2.7,0,0,1-4.98,0,2.733,2.733,0,0,1-.21-1.05Zm7.32,0h5.4v2.7a2.733,2.733,0,0,1-.21,1.05,2.7,2.7,0,0,1-4.98,0,2.733,2.733,0,0,1-.21-1.05Zm-36.64,0h5.4v2.7a2.693,2.693,0,0,1-2.7,2.7,2.431,2.431,0,0,1-.82-.13,2.7,2.7,0,0,1-1.88-2.57Zm2.55,7.32h.09c.02,0,.04.01.07.01.06,0,.11-.01.16-.01h.16v-.01a4.607,4.607,0,0,0,3.35-1.79,4.608,4.608,0,0,0,7.33-.01,4.608,4.608,0,0,0,7.33.01,4.605,4.605,0,0,0,7.32,0,4.605,4.605,0,0,0,7.32,0,4.608,4.608,0,0,0,7.33-.01,4.568,4.568,0,0,0,3.34,1.79l-.01.01a.86.86,0,0,1,.16.01c.06,0,.11.01.17.01a.2.2,0,0,0,.07-.01h.09V62.81H50.73V47.04a7.15,7.15,0,0,0-14.3,0V62.81H10.86ZM48.81,62.81H38.36V47.04a5.23,5.23,0,0,1,10.46,0V62.81Z" fill="#fff"/>
      <path id="Trazado_777331" data-name="Trazado 777331" d="M31,54.03h-.54V45.16a.96.96,0,0,0-.96-.96H17.74a.96.96,0,0,0-.96.96v8.87h-.54a.96.96,0,1,0,0,1.92H31a.96.96,0,0,0,0-1.92Zm-12.3,0V46.12h9.83v7.91Z" fill="#fff"/>
    </g>
    <rect id="Rectángulo_381952" data-name="Rectángulo 381952" width="82" height="82" transform="translate(224 2059)" fill="none"/>
  </g>
</svg>
