<svg xmlns="http://www.w3.org/2000/svg" width="82" height="82" viewBox="0 0 82 82">
  <g id="Grupo_1071910" data-name="Grupo 1071910" transform="translate(-224 -2059)">
    <rect id="Rectángulo_381952" data-name="Rectángulo 381952" width="82" height="82" transform="translate(224 2059)" fill="none"/>
    <g id="logistica" transform="translate(234 2069)">
      <path id="Trazado_777332" data-name="Trazado 777332" d="M37,52a3,3,0,1,0,3,3A3,3,0,0,0,37,52Zm0,4a1,1,0,1,1,1-1A1,1,0,0,1,37,56Z" fill="#fff"/>
      <path id="Trazado_777333" data-name="Trazado 777333" d="M13,52a3,3,0,1,0,3,3A3,3,0,0,0,13,52Zm0,4a1,1,0,1,1,1-1A1,1,0,0,1,13,56Z" fill="#fff"/>
      <path id="Trazado_777334" data-name="Trazado 777334" d="M15,16a3,3,0,1,0-3-3A3,3,0,0,0,15,16Zm0-4a1,1,0,1,1-1,1A1,1,0,0,1,15,12Z" fill="#fff"/>
      <path id="Trazado_777335" data-name="Trazado 777335" d="M55,36a3,3,0,1,0,3,3A3,3,0,0,0,55,36Zm0,4a1,1,0,1,1,1-1A1,1,0,0,1,55,40Z" fill="#fff"/>
      <path id="Trazado_777336" data-name="Trazado 777336" d="M55.956,32.073c.015-.358.044-.716.044-1.073a24.915,24.915,0,0,0-3.58-12.87A12.047,12.047,0,0,0,54,12.2V12A11.991,11.991,0,0,0,31.611,6.02a25.287,25.287,0,0,0-11.327,2.4A6.995,6.995,0,0,0,9.4,17.2l.414.552A24.848,24.848,0,0,0,6.037,30H4a2,2,0,0,0-2,2V52a2,2,0,0,0-2,2v2a2,2,0,0,0,2,2H6.685a6.985,6.985,0,0,0,12.63,0h11.37a6.985,6.985,0,0,0,12.63,0H46a2,2,0,0,0,2-2V53.246a3.047,3.047,0,0,0-.089-.728l-.64-2.56a25,25,0,0,0,3.968-4.307L55,50.667,60.6,43.2a6.994,6.994,0,0,0-4.644-11.127ZM42,2A10.011,10.011,0,0,1,52,12V12.2a10.042,10.042,0,0,1-2.137,6.178L42,28.382,34.137,18.373A10.04,10.04,0,0,1,32,12.2V12A10.011,10.011,0,0,1,42,2ZM15,8a5,5,0,0,1,4,8l-4,5.334L11,16a5,5,0,0,1,4-8ZM4,32h8v7.618l5-2.5,5,2.5V32h8V52H19.315a6.985,6.985,0,0,0-12.63,0H4Zm10,0h6v4.382l-3-1.5-3,1.5Zm18,6h9.438a1,1,0,0,1,.97.757L42.719,40H38a2,2,0,0,0-2,2v2a2,2,0,0,0,2,2h6.219l1.5,6h-2.4A6.982,6.982,0,0,0,32,50.111Zm11.719,6H38V42h5.219ZM2,56V54H6.08a6.29,6.29,0,0,0,0,2Zm11,4a5,5,0,1,1,5-5A5.006,5.006,0,0,1,13,60Zm6.92-4a6.29,6.29,0,0,0,0-2H30.08a6.29,6.29,0,0,0,0,2ZM37,60a5,5,0,1,1,5-5A5.006,5.006,0,0,1,37,60Zm6.92-4a6.29,6.29,0,0,0,0-2H46v2Zm2.805-8.225-2.376-9.5A3,3,0,0,0,41.438,36H32V32a2,2,0,0,0-2-2H8.036A22.853,22.853,0,0,1,11.1,19.471l3.9,5.2L20.6,17.2A7.04,7.04,0,0,0,22,13a6.944,6.944,0,0,0-.63-2.885A22.7,22.7,0,0,1,30.7,8.009,11.947,11.947,0,0,0,30,12V12.2a12.051,12.051,0,0,0,2.564,7.414L42,31.618l9.17-11.671A22.939,22.939,0,0,1,54,31c0,.361-.028.724-.044,1.087A6.992,6.992,0,0,0,49.4,43.2l.577.77a23.038,23.038,0,0,1-3.252,3.806ZM59,42l-4,5.334L51,42a5,5,0,1,1,8,0Z" fill="#fff"/>
      <path id="Trazado_777337" data-name="Trazado 777337" d="M42,20a8,8,0,1,0-8-8A8.009,8.009,0,0,0,42,20ZM42,6a6,6,0,1,1-6,6A6.006,6.006,0,0,1,42,6Z" fill="#fff"/>
      <path id="Trazado_777338" data-name="Trazado 777338" d="M24,26h2v2H24Z" fill="#fff"/>
      <path id="Trazado_777339" data-name="Trazado 777339" d="M28,26h2v2H28Z" fill="#fff"/>
      <path id="Trazado_777340" data-name="Trazado 777340" d="M32,26h2v2H32Z" fill="#fff"/>
    </g>
  </g>
</svg>
