<svg xmlns="http://www.w3.org/2000/svg" width="43.836" height="58.936" viewBox="0 0 43.836 58.936">
  <g id="Grupo_1071897" data-name="Grupo 1071897" transform="translate(-213.31 -1541.057)">
    <path id="Trazado_195433" data-name="Trazado 195433" d="M1367.818,413.814a3.121,3.121,0,1,1-3.114,3.122A3.117,3.117,0,0,1,1367.818,413.814Z" transform="translate(-1151.394 1127.243)" fill="#2b3990" fill-rule="evenodd"/>
    <path id="Trazado_195434" data-name="Trazado 195434" d="M1379.766,413.814a3.121,3.121,0,1,1-3.117,3.122A3.119,3.119,0,0,1,1379.766,413.814Z" transform="translate(-1144.542 1127.243)" fill="#2b3990" fill-rule="evenodd"/>
    <path id="Trazado_195435" data-name="Trazado 195435" d="M1391.717,413.814a3.121,3.121,0,1,1-3.122,3.122A3.121,3.121,0,0,1,1391.717,413.814Z" transform="translate(-1137.691 1127.243)" fill="#2b3990" fill-rule="evenodd"/>
    <path id="Trazado_195439" data-name="Trazado 195439" d="M1367.818,424.981a3.116,3.116,0,1,1-3.114,3.116A3.115,3.115,0,0,1,1367.818,424.981Z" transform="translate(-1151.394 1133.647)" fill="#2b3990" fill-rule="evenodd"/>
    <path id="Trazado_195440" data-name="Trazado 195440" d="M1379.766,424.981a3.116,3.116,0,1,1-3.117,3.116A3.117,3.117,0,0,1,1379.766,424.981Z" transform="translate(-1144.542 1133.647)" fill="#2b3990" fill-rule="evenodd"/>
    <path id="Trazado_195441" data-name="Trazado 195441" d="M1391.717,424.981a3.116,3.116,0,1,1-3.122,3.116A3.119,3.119,0,0,1,1391.717,424.981Z" transform="translate(-1137.691 1133.647)" fill="#2b3990" fill-rule="evenodd"/>
    <path id="Trazado_195445" data-name="Trazado 195445" d="M1367.818,436.139a3.116,3.116,0,1,1-3.114,3.116A3.114,3.114,0,0,1,1367.818,436.139Z" transform="translate(-1151.394 1140.047)" fill="#2b3990" fill-rule="evenodd"/>
    <path id="Trazado_195446" data-name="Trazado 195446" d="M1379.766,436.139a3.116,3.116,0,1,1-3.117,3.116A3.116,3.116,0,0,1,1379.766,436.139Z" transform="translate(-1144.542 1140.047)" fill="#2b3990" fill-rule="evenodd"/>
    <path id="Trazado_195447" data-name="Trazado 195447" d="M1391.717,436.139a3.116,3.116,0,1,1-3.122,3.116A3.118,3.118,0,0,1,1391.717,436.139Z" transform="translate(-1137.691 1140.047)" fill="#2b3990" fill-rule="evenodd"/>
    <path id="Trazado_195451" data-name="Trazado 195451" d="M1367.818,447.308a3.116,3.116,0,1,1-3.114,3.117A3.115,3.115,0,0,1,1367.818,447.308Z" transform="translate(-1151.394 1146.452)" fill="#2b3990" fill-rule="evenodd"/>
    <path id="Trazado_195452" data-name="Trazado 195452" d="M1379.766,447.308a3.116,3.116,0,1,1-3.117,3.117A3.117,3.117,0,0,1,1379.766,447.308Z" transform="translate(-1144.542 1146.452)" fill="#2b3990" fill-rule="evenodd"/>
    <path id="Trazado_195453" data-name="Trazado 195453" d="M1391.717,447.308a3.116,3.116,0,1,1-3.122,3.117A3.119,3.119,0,0,1,1391.717,447.308Z" transform="translate(-1137.691 1146.452)" fill="#2b3990" fill-rule="evenodd"/>
  </g>
</svg>
