<svg xmlns="http://www.w3.org/2000/svg" xmlns:xlink="http://www.w3.org/1999/xlink" width="1329" height="370.073" viewBox="0 0 1329 370.073">
  <defs>
    <linearGradient id="linear-gradient" x1="0.187" y1="1" x2="1.538" y2="1" gradientUnits="objectBoundingBox">
      <stop offset="0" stop-color="#f5f5f5" stop-opacity="0.2"/>
      <stop offset="0.421" stop-color="#f5f5f5"/>
      <stop offset="1" stop-color="#afafaf"/>
    </linearGradient>
    <clipPath id="clip-path">
      <rect id="Rect치ngulo_45490" data-name="Rect치ngulo 45490" width="1329" height="370.073" transform="translate(0 0)" fill="#fff"/>
    </clipPath>
  </defs>
  <g id="Grupo_154301" data-name="Grupo 154301" transform="translate(-135.518 -5709.157)">
    <rect id="Rect치ngulo_42598" data-name="Rect치ngulo 42598" width="1113" height="368.371" transform="translate(351 5709.86)" fill="url(#linear-gradient)"/>
    <g id="Enmascarar_grupo_80040" data-name="Enmascarar grupo 80040" transform="translate(135.518 5709.157)" clip-path="url(#clip-path)">
      <path id="Dots-01" d="M445.884,224.228a.545.545,0,1,1,.535-.545A.539.539,0,0,1,445.884,224.228Zm0-13.954a.538.538,0,1,1,0-1.076.538.538,0,0,1,0,1.076Zm0-13.964a.512.512,0,0,1-.508-.508.5.5,0,0,1,1.007,0A.511.511,0,0,1,445.884,196.31Zm0-14.067a.379.379,0,0,1-.39-.382.383.383,0,0,1,.39-.386.4.4,0,0,1,.389.386A.391.391,0,0,1,445.884,182.242Zm0-14.054a.267.267,0,0,1-.273-.268.27.27,0,0,1,.273-.268.274.274,0,0,1,.262.268A.271.271,0,0,1,445.884,168.188Zm-.082-14.2a.071.071,0,0,1,.082-.077.079.079,0,0,1,.072.077.077.077,0,0,1-.072.073C445.829,154.061,445.8,154.034,445.8,153.988Zm-13.839,84.835a1.206,1.206,0,0,1-1.189-1.218,1.193,1.193,0,0,1,2.386,0A1.208,1.208,0,0,1,431.963,238.823Zm0-13.946a1.2,1.2,0,1,1,1.2-1.194A1.195,1.195,0,0,1,431.963,224.877Zm0-13.94a1.2,1.2,0,1,1,1.2-1.2A1.2,1.2,0,0,1,431.963,210.937Zm0-13.976a1.159,1.159,0,1,1,1.16-1.158A1.164,1.164,0,0,1,431.963,196.96Zm0-14.091a1.006,1.006,0,1,1,1.006-1.009A1,1,0,0,1,431.963,182.869Zm0-14.063a.881.881,0,1,1,.889-.886A.888.888,0,0,1,431.963,168.806Zm0-14.087a.734.734,0,0,1-.735-.731.735.735,0,1,1,1.469,0A.728.728,0,0,1,431.963,154.719Zm0-14.213a.463.463,0,1,1,.472-.463A.471.471,0,0,1,431.963,140.506Zm-.227-14.4a.231.231,0,1,1,.462,0,.231.231,0,0,1-.462,0ZM418.052,239.4a1.8,1.8,0,0,1-1.777-1.8,1.777,1.777,0,0,1,3.555,0A1.8,1.8,0,0,1,418.052,239.4Zm0-13.954a1.779,1.779,0,1,1,1.778-1.767A1.773,1.773,0,0,1,418.052,225.45Zm0-13.927a1.786,1.786,0,0,1-1.777-1.79,1.777,1.777,0,0,1,3.555,0A1.786,1.786,0,0,1,418.052,211.523Zm0-14.018a1.706,1.706,0,1,1,1.7-1.7A1.7,1.7,0,0,1,418.052,197.505Zm0-14.023a1.619,1.619,0,1,1,1.624-1.621A1.618,1.618,0,0,1,418.052,183.482Zm0-14.09a1.47,1.47,0,1,1,1.461-1.472A1.47,1.47,0,0,1,418.052,169.392Zm0-14.091a1.315,1.315,0,1,1,1.315-1.313A1.316,1.316,0,0,1,418.052,155.3Zm0-14.213a1.045,1.045,0,1,1,1.034-1.045A1.043,1.043,0,0,1,418.052,141.088Zm0-14.168a.813.813,0,1,1,.817-.809A.818.818,0,0,1,418.052,126.92Zm0-14.245a.5.5,0,0,1,0-1.009.5.5,0,1,1,0,1.009Zm-.19-14.445a.192.192,0,0,1,.19-.2.2.2,0,0,1,.191.2.2.2,0,0,1-.191.191A.189.189,0,0,1,417.862,98.23Zm-13.72,127.842a2.4,2.4,0,1,1,2.385-2.39A2.39,2.39,0,0,1,404.143,226.073Zm0-14.014a2.319,2.319,0,1,1,2.312-2.325A2.325,2.325,0,0,1,404.143,212.059Zm0-13.976a2.281,2.281,0,1,1,2.276-2.28A2.278,2.278,0,0,1,404.143,198.082Zm0-14.014a2.208,2.208,0,1,1,2.195-2.208A2.208,2.208,0,0,1,404.143,184.068Zm0-14.095a2.049,2.049,0,1,1,2.049-2.053A2.05,2.05,0,0,1,404.143,169.974Zm0-14.132a1.855,1.855,0,1,1,1.85-1.853A1.853,1.853,0,0,1,404.143,155.841Zm0-14.172a1.622,1.622,0,1,1,1.623-1.626A1.625,1.625,0,0,1,404.143,141.669Zm0-14.209a1.354,1.354,0,1,1,1.342-1.35A1.347,1.347,0,0,1,404.143,127.461Zm0-14.25a1.042,1.042,0,1,1,1.043-1.044A1.041,1.041,0,0,1,404.143,113.211Zm0-14.244a.736.736,0,1,1,.725-.736A.729.729,0,0,1,404.143,98.966Zm0-14.332a.355.355,0,0,1-.353-.35.349.349,0,0,1,.7,0A.353.353,0,0,1,404.143,84.634ZM390.231,226.58a2.9,2.9,0,1,1,2.884-2.9A2.9,2.9,0,0,1,390.231,226.58Zm0-13.981a2.862,2.862,0,1,1,2.847-2.866A2.86,2.86,0,0,1,390.231,212.6Zm0-14.008a2.785,2.785,0,1,1,2.775-2.789A2.793,2.793,0,0,1,390.231,198.591Zm0-14.023a2.707,2.707,0,1,1,2.693-2.707A2.7,2.7,0,0,1,390.231,184.568Zm0-14.1a2.546,2.546,0,1,1,2.539-2.548A2.542,2.542,0,0,1,390.231,170.468Zm0-14.09a2.394,2.394,0,1,1,2.385-2.39A2.4,2.4,0,0,1,390.231,156.378Zm0-14.164a2.169,2.169,0,1,1,2.158-2.171A2.175,2.175,0,0,1,390.231,142.214Zm0-14.213a1.895,1.895,0,1,1,1.886-1.89A1.889,1.889,0,0,1,390.231,128Zm0-14.25a1.585,1.585,0,1,1,1.57-1.585A1.582,1.582,0,0,1,390.231,113.751Zm0-14.286a1.238,1.238,0,1,1,1.224-1.235A1.233,1.233,0,0,1,390.231,99.466Zm0-14.327a.849.849,0,1,1,.843-.854A.846.846,0,0,1,390.231,85.138Zm0-14.363a.425.425,0,1,1,.417-.422A.422.422,0,0,1,390.231,70.776ZM376.312,227.085a3.4,3.4,0,1,1,3.39-3.4A3.4,3.4,0,0,1,376.312,227.085Zm0-13.981a3.363,3.363,0,1,1,3.355-3.37A3.367,3.367,0,0,1,376.312,213.1Zm0-14.018A3.287,3.287,0,1,1,379.6,195.8,3.278,3.278,0,0,1,376.312,199.086Zm0-14.014a3.207,3.207,0,1,1,3.2-3.211A3.207,3.207,0,0,1,376.312,185.072Zm0-14.1a3.05,3.05,0,1,1,3.047-3.052A3.044,3.044,0,0,1,376.312,170.972Zm0-14.123a2.859,2.859,0,1,1,2.855-2.862A2.867,2.867,0,0,1,376.312,156.85Zm0-14.177a2.628,2.628,0,1,1,2.63-2.63A2.621,2.621,0,0,1,376.312,142.673Zm0-14.167a2.4,2.4,0,1,1,2.394-2.395A2.4,2.4,0,0,1,376.312,128.506Zm0-14.291a2.051,2.051,0,1,1,2.05-2.049A2.04,2.04,0,0,1,376.312,114.215Zm0-14.281a1.7,1.7,0,1,1,1.695-1.7A1.7,1.7,0,0,1,376.312,99.934Zm0-14.322a1.317,1.317,0,0,1-1.3-1.327,1.31,1.31,0,0,1,2.62,0A1.325,1.325,0,0,1,376.312,85.611Zm0-14.372a.888.888,0,1,1,.889-.886A.887.887,0,0,1,376.312,71.239Zm0-14.4a.425.425,0,1,1,.427-.427A.426.426,0,0,1,376.312,56.84Zm-13.919,170.7a3.866,3.866,0,1,1,3.863-3.857A3.855,3.855,0,0,1,362.393,227.54Zm0-13.983a3.827,3.827,0,1,1,3.827-3.824A3.818,3.818,0,0,1,362.393,213.557Zm0-13.976a3.784,3.784,0,1,1,3.781-3.779A3.781,3.781,0,0,1,362.393,199.581Zm0-14.046a3.675,3.675,0,1,1,3.673-3.675A3.664,3.664,0,0,1,362.393,185.535Zm0-14.1a3.512,3.512,0,1,1,3.518-3.516A3.516,3.516,0,0,1,362.393,171.436Zm0-14.167a3.287,3.287,0,1,1,3.292-3.28A3.271,3.271,0,0,1,362.393,157.269Zm0-14.168a3.057,3.057,0,1,1,3.056-3.057A3.044,3.044,0,0,1,362.393,143.1Zm0-14.209a2.783,2.783,0,1,1,2.774-2.781A2.783,2.783,0,0,1,362.393,128.892Zm0-14.25a2.473,2.473,0,1,1,2.483-2.475A2.467,2.467,0,0,1,362.393,114.641Zm0-14.29a2.123,2.123,0,1,1,2.131-2.121A2.124,2.124,0,0,1,362.393,100.351Zm0-14.323a1.739,1.739,0,1,1,1.741-1.744A1.738,1.738,0,0,1,362.393,86.028Zm0-14.358a1.315,1.315,0,1,1,1.315-1.317A1.309,1.309,0,0,1,362.393,71.671Zm0-14.4a.849.849,0,0,1,0-1.7.849.849,0,1,1,0,1.7Zm0-14.445a.345.345,0,1,1,.353-.345A.345.345,0,0,1,362.393,42.822ZM348.491,241.9a4.284,4.284,0,1,1,4.28-4.3A4.284,4.284,0,0,1,348.491,241.9Zm0-13.931a4.293,4.293,0,1,1,4.28-4.289A4.288,4.288,0,0,1,348.491,227.971Zm0-13.941a4.29,4.29,0,1,1,4.28-4.3A4.292,4.292,0,0,1,348.491,214.03Zm0-14.022a4.211,4.211,0,1,1,4.2-4.206A4.2,4.2,0,0,1,348.491,200.008Zm0-14.045a4.1,4.1,0,1,1,4.08-4.1A4.1,4.1,0,0,1,348.491,185.962Zm0-14.1a3.938,3.938,0,1,1,3.934-3.943A3.935,3.935,0,0,1,348.491,171.863Zm0-14.123a3.754,3.754,0,1,1,3.735-3.752A3.752,3.752,0,0,1,348.491,157.74Zm0-14.168a3.518,3.518,0,1,1,3.5-3.529A3.512,3.512,0,0,1,348.491,143.572Zm0-14.254a3.209,3.209,0,1,1,3.2-3.208A3.212,3.212,0,0,1,348.491,129.319Zm0-14.25a2.9,2.9,0,1,1,2.892-2.9A2.891,2.891,0,0,1,348.491,115.069Zm0-14.326a2.512,2.512,0,1,1,2.5-2.512A2.513,2.513,0,0,1,348.491,100.742Zm0-14.287a2.164,2.164,0,1,1,2.167-2.171A2.166,2.166,0,0,1,348.491,86.456Zm0-14.4a1.7,1.7,0,1,1,1.7-1.7A1.709,1.709,0,0,1,348.491,72.052Zm0-14.4a1.238,1.238,0,1,1,1.233-1.236A1.235,1.235,0,0,1,348.491,57.648Zm0-14.44a.732.732,0,1,1,0-1.463.731.731,0,0,1,0,1.463Zm-.236-14.673a.239.239,0,0,1,.236-.236.232.232,0,0,1,.226.236.227.227,0,0,1-.226.237A.234.234,0,0,1,348.255,28.535ZM334.572,228.4a4.715,4.715,0,1,1,4.715-4.716A4.722,4.722,0,0,1,334.572,228.4Zm0-13.987a4.674,4.674,0,1,1,4.67-4.678A4.669,4.669,0,0,1,334.572,214.412Zm0-14.008a4.6,4.6,0,1,1,4.588-4.6A4.6,4.6,0,0,1,334.572,200.4Zm0-14.059a4.483,4.483,0,1,1,4.479-4.484A4.474,4.474,0,0,1,334.572,186.345Zm0-14.086a4.333,4.333,0,1,1,4.325-4.338A4.328,4.328,0,0,1,334.572,172.258Zm0-14.14a4.138,4.138,0,1,1,4.135-4.13A4.127,4.127,0,0,1,334.572,158.118Zm0-14.2a3.863,3.863,0,1,1,3.863-3.87A3.859,3.859,0,0,1,334.572,143.913Zm0-14.218a3.591,3.591,0,1,1,3.591-3.584A3.581,3.581,0,0,1,334.572,129.7Zm0-14.245a3.286,3.286,0,1,1,3.283-3.284A3.271,3.271,0,0,1,334.572,115.45Zm0-14.322a2.9,2.9,0,1,1,2.893-2.9A2.9,2.9,0,0,1,334.572,101.128Zm0-14.363a2.471,2.471,0,1,1,2.466-2.481A2.474,2.474,0,0,1,334.572,86.765Zm0-14.359a2.051,2.051,0,1,1,2.049-2.053A2.047,2.047,0,0,1,334.572,72.406Zm0-14.4a1.587,1.587,0,1,1,1.587-1.59A1.587,1.587,0,0,1,334.572,58Zm0-14.449a1.081,1.081,0,0,1,0-2.162,1.081,1.081,0,0,1,0,2.162Zm0-14.477a.54.54,0,1,1,.544-.541A.541.541,0,0,1,334.572,29.076Zm-13.911,213.6a5.06,5.06,0,1,1,5.052-5.069A5.057,5.057,0,0,1,320.66,242.674Zm0-13.926a5.065,5.065,0,1,1,5.052-5.065A5.054,5.054,0,0,1,320.66,228.748Zm0-13.946a5.062,5.062,0,1,1,5.052-5.069A5.054,5.054,0,0,1,320.66,214.8Zm0-14.022a4.981,4.981,0,1,1,4.979-4.978A4.974,4.974,0,0,1,320.66,200.78Zm0-14.085a4.831,4.831,0,1,1,4.824-4.834A4.83,4.83,0,0,1,320.66,186.695Zm0-14.087a4.683,4.683,0,1,1,4.661-4.688A4.681,4.681,0,0,1,320.66,172.608Zm0-14.14a4.488,4.488,0,1,1,4.479-4.48A4.479,4.479,0,0,1,320.66,158.468Zm0-14.2a4.215,4.215,0,1,1,4.208-4.22A4.2,4.2,0,0,1,320.66,144.263Zm0-14.218a3.941,3.941,0,1,1,3.936-3.934A3.925,3.925,0,0,1,320.66,130.045Zm0-14.282a3.6,3.6,0,1,1,3.59-3.6A3.594,3.594,0,0,1,320.66,115.763Zm0-14.29A3.243,3.243,0,1,1,323.9,98.23,3.25,3.25,0,0,1,320.66,101.473Zm0-14.359a2.825,2.825,0,1,1,2.812-2.83A2.818,2.818,0,0,1,320.66,87.115Zm0-14.368a2.394,2.394,0,1,1,2.394-2.394A2.389,2.389,0,0,1,320.66,72.747Zm0-14.436a1.894,1.894,0,1,1,1.886-1.9A1.9,1.9,0,0,1,320.66,58.311Zm0-14.45a1.39,1.39,0,1,1,1.388-1.385A1.392,1.392,0,0,1,320.66,43.862Zm0-14.472a.849.849,0,1,1,.843-.854A.851.851,0,0,1,320.66,29.39Zm-.272-14.795a.272.272,0,1,1,.272.268A.265.265,0,0,1,320.388,14.595ZM306.75,229.053a5.374,5.374,0,1,1,5.358-5.37A5.372,5.372,0,0,1,306.75,229.053Zm0-13.946a5.371,5.371,0,1,1,5.358-5.373A5.366,5.366,0,0,1,306.75,215.106Zm0-14.008a5.294,5.294,0,1,1,5.286-5.3A5.3,5.3,0,0,1,306.75,201.1Zm0-14.022a5.217,5.217,0,1,1,5.2-5.215A5.209,5.209,0,0,1,306.75,187.076Zm0-14.123a5.029,5.029,0,1,1,5.014-5.033A5.026,5.026,0,0,1,306.75,172.953Zm0-14.167a4.795,4.795,0,1,1,4.787-4.8A4.8,4.8,0,0,1,306.75,158.786Zm0-14.223a4.519,4.519,0,1,1,4.514-4.519A4.514,4.514,0,0,1,306.75,144.563Zm0-14.244a4.216,4.216,0,1,1,4.207-4.207A4.21,4.21,0,0,1,306.75,130.318Zm0-14.246a3.9,3.9,0,1,1,3.889-3.906A3.9,3.9,0,0,1,306.75,116.072Zm0-14.326a3.518,3.518,0,1,1,3.509-3.516A3.517,3.517,0,0,1,306.75,101.746Zm0-14.363a3.094,3.094,0,1,1,3.083-3.1A3.089,3.089,0,0,1,306.75,87.383Zm0-14.368a2.664,2.664,0,1,1,2.656-2.662A2.666,2.666,0,0,1,306.75,73.015Zm0-14.436a2.164,2.164,0,1,1,2.158-2.167A2.165,2.165,0,0,1,306.75,58.579Zm0-14.44a1.663,1.663,0,1,1,1.65-1.663A1.655,1.655,0,0,1,306.75,44.139Zm0-14.522a1.079,1.079,0,1,1,1.079-1.081A1.077,1.077,0,0,1,306.75,29.617Zm0-14.517a.5.5,0,1,1,.5-.5A.5.5,0,0,1,306.75,15.1ZM292.83,229.4a5.721,5.721,0,1,1,5.713-5.714A5.713,5.713,0,0,1,292.83,229.4Zm0-13.977a5.681,5.681,0,1,1,5.678-5.687A5.67,5.67,0,0,1,292.83,215.42Zm0-14.05A5.569,5.569,0,1,1,298.4,195.8,5.56,5.56,0,0,1,292.83,201.371Zm0-14.022a5.488,5.488,0,1,1,5.477-5.488A5.479,5.479,0,0,1,292.83,187.349Zm0-14.128a5.3,5.3,0,1,1,5.287-5.3A5.3,5.3,0,0,1,292.83,173.221Zm0-14.167a5.067,5.067,0,1,1,5.051-5.066A5.061,5.061,0,0,1,292.83,159.054Zm0-14.214a4.8,4.8,0,1,1,4.788-4.8A4.79,4.79,0,0,1,292.83,144.84Zm0-14.254a4.483,4.483,0,1,1,4.48-4.475A4.479,4.479,0,0,1,292.83,130.586Zm0-14.282a4.136,4.136,0,1,1,4.126-4.138A4.134,4.134,0,0,1,292.83,116.3Zm0-14.326a3.752,3.752,0,1,1,3.737-3.747A3.745,3.745,0,0,1,292.83,101.978Zm0-14.359a3.327,3.327,0,1,1,3.32-3.334A3.325,3.325,0,0,1,292.83,87.619Zm0-14.368a2.9,2.9,0,1,1,2.9-2.9A2.9,2.9,0,0,1,292.83,73.251Zm0-14.4a2.435,2.435,0,1,1,2.431-2.439A2.443,2.443,0,0,1,292.83,58.852Zm0-14.477a1.9,1.9,0,1,1,1.9-1.9A1.891,1.891,0,0,1,292.83,44.375Zm0-14.481a1.354,1.354,0,1,1,1.352-1.359A1.353,1.353,0,0,1,292.83,29.894Zm0-14.518a.779.779,0,0,1-.771-.781.776.776,0,0,1,1.551,0A.786.786,0,0,1,292.83,15.376ZM292.721.659a.117.117,0,0,1,.109-.123.132.132,0,0,1,.126.123.128.128,0,0,1-.126.118A.113.113,0,0,1,292.721.659ZM278.92,229.62a5.951,5.951,0,1,1,5.939-5.937A5.936,5.936,0,0,1,278.92,229.62Zm0-13.972a5.912,5.912,0,1,1,5.895-5.915A5.9,5.9,0,0,1,278.92,215.648Zm0-14.014a5.833,5.833,0,1,1,5.831-5.832A5.835,5.835,0,0,1,278.92,201.634Zm0-14.054a5.719,5.719,0,1,1,5.713-5.719A5.709,5.709,0,0,1,278.92,187.58Zm0-14.132a5.526,5.526,0,1,1,5.514-5.528A5.521,5.521,0,0,1,278.92,173.448Zm0-14.167a5.294,5.294,0,1,1,5.3-5.293A5.293,5.293,0,0,1,278.92,159.281Zm0-14.209a5.026,5.026,0,1,1,5.023-5.028A5.014,5.014,0,0,1,278.92,145.072Zm0-14.25a4.715,4.715,0,1,1,4.705-4.711A4.711,4.711,0,0,1,278.92,130.822Zm0-14.29a4.365,4.365,0,1,1,4.362-4.366A4.36,4.36,0,0,1,278.92,116.532Zm0-14.318A3.982,3.982,0,1,1,282.9,98.23,3.972,3.972,0,0,1,278.92,102.214Zm0-14.4a3.518,3.518,0,1,1,3.509-3.526A3.514,3.514,0,0,1,278.92,87.81Zm0-14.4a3.057,3.057,0,1,1,3.047-3.057A3.057,3.057,0,0,1,278.92,73.41Zm0-14.4a2.592,2.592,0,1,1,2.585-2.594A2.589,2.589,0,0,1,278.92,59.006Zm0-14.44a2.089,2.089,0,1,1,2.086-2.09A2.094,2.094,0,0,1,278.92,44.566Zm0-14.522a1.508,1.508,0,1,1,1.505-1.508A1.5,1.5,0,0,1,278.92,30.044Zm0-14.477a.97.97,0,1,1,0-1.94.97.97,0,0,1,0,1.94Zm0-14.6a.312.312,0,0,1-.308-.309.319.319,0,0,1,.308-.314.307.307,0,0,1,.309.314A.3.3,0,0,1,278.92.968ZM265.01,229.825a6.146,6.146,0,1,1,6.139-6.142A6.141,6.141,0,0,1,265.01,229.825Zm0-13.973a6.109,6.109,0,1,1,6.093-6.118A6.112,6.112,0,0,1,265.01,215.852Zm0-14.027a6.028,6.028,0,1,1,6.012-6.023A6.022,6.022,0,0,1,265.01,201.825Zm0-14.054a5.912,5.912,0,1,1,5.9-5.91A5.9,5.9,0,0,1,265.01,187.771Zm0-14.118a5.728,5.728,0,1,1,5.713-5.732A5.715,5.715,0,0,1,265.01,173.653Zm0-14.172a5.489,5.489,0,1,1,5.477-5.492A5.488,5.488,0,0,1,265.01,159.48Zm0-14.223a5.214,5.214,0,1,1,5.2-5.214A5.214,5.214,0,0,1,265.01,145.257Zm0-14.276a4.874,4.874,0,1,1,4.86-4.87A4.877,4.877,0,0,1,265.01,130.981Zm0-14.291a4.524,4.524,0,1,1,4.507-4.524A4.509,4.509,0,0,1,265.01,116.69Zm0-14.326a4.136,4.136,0,1,1,4.126-4.133A4.133,4.133,0,0,1,265.01,102.364Zm0-14.363a3.711,3.711,0,1,1,3.7-3.716A3.71,3.71,0,0,1,265.01,88Zm0-14.4a3.246,3.246,0,1,1,3.237-3.243A3.243,3.243,0,0,1,265.01,73.6Zm0-14.436a2.746,2.746,0,1,1,2.739-2.748A2.75,2.75,0,0,1,265.01,59.16Zm0-14.445a2.242,2.242,0,1,1,2.24-2.24A2.24,2.24,0,0,1,265.01,44.716Zm0-14.518a1.663,1.663,0,1,1,1.659-1.663A1.659,1.659,0,0,1,265.01,30.2Zm0-14.558a1.043,1.043,0,1,1,1.043-1.045A1.044,1.044,0,0,1,265.01,15.64Zm0-14.518a.462.462,0,0,1-.463-.463.463.463,0,1,1,.926,0A.462.462,0,0,1,265.01,1.122ZM251.1,229.969a6.3,6.3,0,1,1,6.284-6.287A6.28,6.28,0,0,1,251.1,229.969Zm0-13.932a6.3,6.3,0,1,1,6.284-6.3A6.292,6.292,0,0,1,251.1,216.038Zm0-14.05a6.182,6.182,0,1,1,6.175-6.186A6.184,6.184,0,0,1,251.1,201.988Zm0-14.091a6.037,6.037,0,1,1,6.013-6.037A6.038,6.038,0,0,1,251.1,187.9Zm0-14.136a5.837,5.837,0,1,1,5.83-5.841A5.829,5.829,0,0,1,251.1,173.762Zm0-14.167a5.608,5.608,0,1,1,5.595-5.606A5.6,5.6,0,0,1,251.1,159.594Zm0-14.246a5.3,5.3,0,1,1,5.278-5.305A5.3,5.3,0,0,1,251.1,145.348Zm0-14.213a5.029,5.029,0,1,1,5.006-5.024A5.026,5.026,0,0,1,251.1,131.136Zm0-14.327a4.64,4.64,0,1,1,4.625-4.642A4.64,4.64,0,0,1,251.1,116.808Zm0-14.331a4.249,4.249,0,1,1,4.234-4.247A4.237,4.237,0,0,1,251.1,102.477Zm0-14.358a3.83,3.83,0,1,1,3.818-3.835A3.821,3.821,0,0,1,251.1,88.119Zm0-14.441a3.325,3.325,0,1,1,3.31-3.325A3.318,3.318,0,0,1,251.1,73.678Zm0-14.4a2.86,2.86,0,1,1,2.847-2.862A2.853,2.853,0,0,1,251.1,59.274Zm0-14.482a2.317,2.317,0,1,1,2.312-2.317A2.314,2.314,0,0,1,251.1,44.793Zm0-14.481a1.776,1.776,0,1,1,1.767-1.776A1.778,1.778,0,0,1,251.1,30.312Zm0-14.518a1.2,1.2,0,1,1,1.187-1.2A1.2,1.2,0,0,1,251.1,15.794Zm0-14.595a.537.537,0,0,1-.545-.541.54.54,0,1,1,.545.541Zm-13.91,228.9a6.419,6.419,0,1,1,6.391-6.414A6.415,6.415,0,0,1,237.188,230.1Zm0-13.941a6.418,6.418,0,1,1,6.391-6.422A6.413,6.413,0,0,1,237.188,216.156Zm0-14.058a6.3,6.3,0,1,1,6.293-6.3A6.286,6.286,0,0,1,237.188,202.1Zm0-14.132a6.11,6.11,0,1,1,6.084-6.105A6.1,6.1,0,0,1,237.188,187.966Zm0-14.091a5.951,5.951,0,1,1,5.939-5.955A5.951,5.951,0,0,1,237.188,173.875Zm0-14.172a5.719,5.719,0,1,1,5.7-5.715A5.721,5.721,0,0,1,237.188,159.7Zm0-14.287a5.371,5.371,0,1,1,5.359-5.373A5.366,5.366,0,0,1,237.188,145.416Zm0-14.244a5.065,5.065,0,1,1,5.041-5.061A5.062,5.062,0,0,1,237.188,131.172Zm0-14.29a4.715,4.715,0,1,1,4.7-4.715A4.712,4.712,0,0,1,237.188,116.881Zm0-14.359a4.29,4.29,0,1,1,4.28-4.292A4.286,4.286,0,0,1,237.188,102.523Zm0-14.326a3.9,3.9,0,1,1,3.889-3.912A3.9,3.9,0,0,1,237.188,88.2Zm0-14.4a3.439,3.439,0,1,1,3.437-3.439A3.432,3.432,0,0,1,237.188,73.792Zm0-14.436a2.939,2.939,0,1,1,2.92-2.944A2.94,2.94,0,0,1,237.188,59.356Zm0-14.45a2.433,2.433,0,1,1,2.421-2.43A2.426,2.426,0,0,1,237.188,44.906Zm0-14.513a1.856,1.856,0,1,1,1.848-1.858A1.861,1.861,0,0,1,237.188,30.393Zm0-14.517a1.276,1.276,0,1,1,1.268-1.281A1.273,1.273,0,0,1,237.188,15.876Zm0-14.563a.658.658,0,0,1-.662-.654A.662.662,0,0,1,237.188,0a.655.655,0,0,1,.653.659A.651.651,0,0,1,237.188,1.313Zm-13.92,228.862a6.5,6.5,0,1,1,6.484-6.492A6.485,6.485,0,0,1,223.268,230.175Zm0-13.978a6.457,6.457,0,1,1,6.439-6.464A6.451,6.451,0,0,1,223.268,216.2Zm0-14.054a6.344,6.344,0,1,1,6.33-6.341A6.333,6.333,0,0,1,223.268,202.143Zm0-14.1a6.187,6.187,0,1,1,6.176-6.183A6.168,6.168,0,0,1,223.268,188.043Zm0-14.128a5.994,5.994,0,1,1,5.986-6A5.988,5.988,0,0,1,223.268,173.916Zm0-14.213a5.719,5.719,0,1,1,5.713-5.715A5.719,5.719,0,0,1,223.268,159.7Zm0-14.2a5.453,5.453,0,1,1,5.442-5.455A5.454,5.454,0,0,1,223.268,145.5Zm0-14.286a5.106,5.106,0,1,1,5.1-5.1A5.1,5.1,0,0,1,223.268,131.213Zm0-14.29a4.754,4.754,0,1,1,4.743-4.756A4.747,4.747,0,0,1,223.268,116.923Zm0-14.359a4.332,4.332,0,1,1,4.326-4.334A4.327,4.327,0,0,1,223.268,102.564Zm0-14.368a3.9,3.9,0,1,1,3.9-3.912A3.9,3.9,0,0,1,223.268,88.2Zm0-14.4a3.439,3.439,0,1,1,3.438-3.439A3.429,3.429,0,0,1,223.268,73.792Zm0-14.436a2.939,2.939,0,1,1,2.93-2.944A2.946,2.946,0,0,1,223.268,59.356Zm0-14.45a2.433,2.433,0,1,1,2.431-2.43A2.426,2.426,0,0,1,223.268,44.906Zm0-14.513a1.856,1.856,0,1,1,1.851-1.858A1.852,1.852,0,0,1,223.268,30.393Zm0-14.517a1.276,1.276,0,1,1,1.27-1.281A1.271,1.271,0,0,1,223.268,15.876Zm0-14.563a.651.651,0,0,1-.653-.654.653.653,0,1,1,1.305,0A.65.65,0,0,1,223.268,1.313Zm-13.919,228.82a6.455,6.455,0,1,1,6.447-6.45A6.443,6.443,0,0,1,209.349,230.133Zm0-13.978a6.418,6.418,0,1,1,6.41-6.422A6.416,6.416,0,0,1,209.349,216.156Zm0-14.058a6.3,6.3,0,1,1,6.292-6.3A6.289,6.289,0,0,1,209.349,202.1Zm0-14.132a6.11,6.11,0,1,1,6.1-6.105A6.091,6.091,0,0,1,209.349,187.966Zm0-14.091a5.951,5.951,0,1,1,5.948-5.955A5.942,5.942,0,0,1,209.349,173.875Zm0-14.172a5.719,5.719,0,1,1,5.712-5.715A5.71,5.71,0,0,1,209.349,159.7Zm0-14.287a5.371,5.371,0,1,1,5.377-5.373A5.369,5.369,0,0,1,209.349,145.416Zm0-14.2a5.106,5.106,0,1,1,5.1-5.1A5.1,5.1,0,0,1,209.349,131.213Zm0-14.29a4.754,4.754,0,1,1,4.76-4.756A4.746,4.746,0,0,1,209.349,116.923Zm0-14.359a4.332,4.332,0,1,1,4.335-4.334A4.327,4.327,0,0,1,209.349,102.564Zm0-14.368a3.9,3.9,0,1,1,3.908-3.912A3.9,3.9,0,0,1,209.349,88.2Zm0-14.4a3.439,3.439,0,1,1,3.437-3.439A3.435,3.435,0,0,1,209.349,73.792Zm0-14.436a2.939,2.939,0,1,1,2.947-2.944A2.931,2.931,0,0,1,209.349,59.356Zm0-14.45a2.433,2.433,0,1,1,2.439-2.43A2.426,2.426,0,0,1,209.349,44.906Zm0-14.513a1.856,1.856,0,1,1,1.868-1.858A1.857,1.857,0,0,1,209.349,30.393Zm0-14.517a1.276,1.276,0,1,1,1.278-1.281A1.269,1.269,0,0,1,209.349,15.876Zm0-14.563A.651.651,0,0,1,208.7.659.655.655,0,0,1,209.349,0a.662.662,0,0,1,.662.659A.659.659,0,0,1,209.349,1.313ZM195.439,230.02a6.339,6.339,0,1,1,6.329-6.337A6.333,6.333,0,0,1,195.439,230.02Zm0-13.982a6.3,6.3,0,1,1,6.293-6.3A6.3,6.3,0,0,1,195.439,216.038Zm0-14.018a6.221,6.221,0,1,1,6.211-6.218A6.208,6.208,0,0,1,195.439,202.02Zm0-14.095a6.064,6.064,0,1,1,6.066-6.065A6.062,6.062,0,0,1,195.439,187.925Zm0-14.128a5.873,5.873,0,1,1,5.876-5.877A5.865,5.865,0,0,1,195.439,173.8Zm0-14.2a5.608,5.608,0,1,1,5.595-5.606A5.61,5.61,0,0,1,195.439,159.594Zm0-14.214a5.333,5.333,0,1,1,5.323-5.337A5.331,5.331,0,0,1,195.439,145.38Zm0-14.244a5.029,5.029,0,1,1,5.024-5.024A5.017,5.017,0,0,1,195.439,131.136Zm0-14.327a4.64,4.64,0,1,1,4.634-4.642A4.636,4.636,0,0,1,195.439,116.808Zm0-14.331a4.249,4.249,0,1,1,4.243-4.247A4.238,4.238,0,0,1,195.439,102.477Zm0-14.358a3.83,3.83,0,1,1,3.817-3.835A3.827,3.827,0,0,1,195.439,88.119Zm0-14.4a3.361,3.361,0,1,1,3.364-3.361A3.36,3.36,0,0,1,195.439,73.715Zm0-14.44a2.86,2.86,0,1,1,2.856-2.862A2.857,2.857,0,0,1,195.439,59.274Zm0-14.482a2.317,2.317,0,1,1,2.321-2.317A2.319,2.319,0,0,1,195.439,44.793Zm0-14.481a1.776,1.776,0,1,1,1.777-1.776A1.778,1.778,0,0,1,195.439,30.312Zm0-14.518a1.2,1.2,0,1,1,1.2-1.2A1.2,1.2,0,0,1,195.439,15.794Zm0-14.595a.548.548,0,0,1-.544-.541.547.547,0,0,1,.544-.541.537.537,0,0,1,.544.541A.537.537,0,0,1,195.439,1.2ZM181.527,229.87a6.192,6.192,0,1,1,6.176-6.187A6.188,6.188,0,0,1,181.527,229.87Zm0-14.018a6.109,6.109,0,1,1,6.095-6.118A6.109,6.109,0,0,1,181.527,215.852Zm0-13.981a6.069,6.069,0,1,1,6.058-6.068A6.074,6.074,0,0,1,181.527,201.87Zm0-14.1a5.912,5.912,0,1,1,5.9-5.91A5.908,5.908,0,0,1,181.527,187.771Zm0-14.118a5.728,5.728,0,1,1,5.714-5.732A5.728,5.728,0,0,1,181.527,173.653Zm0-14.172A5.489,5.489,0,1,1,187,153.988,5.493,5.493,0,0,1,181.527,159.48Zm0-14.223a5.214,5.214,0,1,1,5.214-5.214A5.206,5.206,0,0,1,181.527,145.257Zm0-14.276a4.874,4.874,0,1,1,4.861-4.87A4.861,4.861,0,0,1,181.527,130.981Zm0-14.291a4.524,4.524,0,1,1,4.516-4.524A4.509,4.509,0,0,1,181.527,116.69Zm0-14.326a4.136,4.136,0,1,1,4.135-4.133A4.133,4.133,0,0,1,181.527,102.364Zm0-14.363a3.711,3.711,0,1,1,3.709-3.716A3.707,3.707,0,0,1,181.527,88Zm0-14.4a3.246,3.246,0,1,1,3.247-3.243A3.25,3.25,0,0,1,181.527,73.6Zm0-14.4a2.782,2.782,0,1,1,2.784-2.784A2.781,2.781,0,0,1,181.527,59.2Zm0-14.481a2.242,2.242,0,1,1,2.24-2.24A2.24,2.24,0,0,1,181.527,44.716Zm0-14.481a1.7,1.7,0,1,1,1.7-1.7A1.7,1.7,0,0,1,181.527,30.234Zm0-14.554a1.083,1.083,0,1,1,1.079-1.086A1.075,1.075,0,0,1,181.527,15.681Zm0-14.559a.462.462,0,0,1-.462-.463.469.469,0,0,1,.462-.468.463.463,0,0,1,.463.468A.456.456,0,0,1,181.527,1.122Zm-13.9,228.558a5.994,5.994,0,1,1,5.976-6A5.99,5.99,0,0,1,167.626,229.68Zm0-13.987a5.951,5.951,0,1,1,5.93-5.959A5.94,5.94,0,0,1,167.626,215.693Zm0-14.013a5.878,5.878,0,1,1,5.859-5.877A5.868,5.868,0,0,1,167.626,201.679Zm0-14.1a5.719,5.719,0,1,1,5.695-5.719A5.711,5.711,0,0,1,167.626,187.58Zm0-14.132a5.526,5.526,0,1,1,5.5-5.528A5.522,5.522,0,0,1,167.626,173.448Zm0-14.167a5.294,5.294,0,1,1,5.278-5.293A5.3,5.3,0,0,1,167.626,159.281Zm0-14.168a5.065,5.065,0,1,1,5.042-5.069A5.064,5.064,0,0,1,167.626,145.112Zm0-14.249a4.754,4.754,0,1,1,4.734-4.752A4.748,4.748,0,0,1,167.626,130.863Zm0-14.287a4.406,4.406,0,1,1,4.389-4.41A4.4,4.4,0,0,1,167.626,116.576Zm0-14.363a3.982,3.982,0,1,1,3.963-3.984A3.988,3.988,0,0,1,167.626,102.214Zm0-14.367a3.557,3.557,0,1,1,3.537-3.562A3.56,3.56,0,0,1,167.626,87.847Zm0-14.4a3.093,3.093,0,1,1,3.084-3.093A3.09,3.09,0,0,1,167.626,73.447Zm0-14.4a2.63,2.63,0,1,1,2.612-2.63A2.638,2.638,0,0,1,167.626,59.043Zm0-14.477a2.089,2.089,0,1,1,2.086-2.09A2.082,2.082,0,0,1,167.626,44.566Zm0-14.482a1.544,1.544,0,1,1,0-3.088,1.544,1.544,0,0,1,0,3.088Zm0-14.517a.97.97,0,1,1,.953-.972A.966.966,0,0,1,167.626,15.567Zm0-14.563a.349.349,0,0,1-.363-.345.349.349,0,0,1,.363-.345.345.345,0,0,1,0,.69ZM153.7,243.347a5.728,5.728,0,1,1,5.713-5.742A5.731,5.731,0,0,1,153.7,243.347Zm0-13.95a5.721,5.721,0,1,1,5.713-5.714A5.714,5.714,0,0,1,153.7,229.4Zm0-13.941a5.714,5.714,0,1,1,5.713-5.723A5.718,5.718,0,0,1,153.7,215.456Zm0-14.054a5.6,5.6,0,1,1,5.6-5.6A5.588,5.588,0,0,1,153.7,201.4Zm0-14.054a5.488,5.488,0,1,1,5.487-5.488A5.484,5.484,0,0,1,153.7,187.349Zm0-14.128a5.3,5.3,0,1,1,5.3-5.3A5.29,5.29,0,0,1,153.7,173.221Zm0-14.131a5.1,5.1,0,1,1,5.106-5.1A5.106,5.106,0,0,1,153.7,159.09Zm0-14.21a4.833,4.833,0,1,1,4.825-4.837A4.839,4.839,0,0,1,153.7,144.881Zm0-14.244a4.527,4.527,0,1,1,4.526-4.525A4.522,4.522,0,0,1,153.7,130.636Zm0-14.295a4.172,4.172,0,1,1,4.172-4.175A4.174,4.174,0,0,1,153.7,116.341Zm0-14.318a3.791,3.791,0,1,1,3.782-3.793A3.79,3.79,0,0,1,153.7,102.023Zm0-14.368a3.366,3.366,0,1,1,3.365-3.371A3.36,3.36,0,0,1,153.7,87.656Zm0-14.4a2.9,2.9,0,1,1,2.9-2.9A2.893,2.893,0,0,1,153.7,73.251Zm0-14.4a2.435,2.435,0,1,1,2.431-2.439A2.443,2.443,0,0,1,153.7,58.852Zm0-14.477a1.9,1.9,0,1,1,1.9-1.9A1.891,1.891,0,0,1,153.7,44.375Zm0-14.481a1.354,1.354,0,1,1,1.352-1.359A1.35,1.35,0,0,1,153.7,29.894Zm0-14.518a.776.776,0,0,1-.761-.781.771.771,0,0,1,1.541,0A.78.78,0,0,1,153.7,15.376ZM153.516.659A.187.187,0,0,1,153.7.468a.191.191,0,0,1,.2.191.189.189,0,0,1-.2.191A.184.184,0,0,1,153.516.659ZM139.787,229.13a5.451,5.451,0,1,1,5.441-5.447A5.446,5.446,0,0,1,139.787,229.13Zm0-14.023a5.371,5.371,0,1,1,5.368-5.373A5.363,5.363,0,0,1,139.787,215.106Zm0-13.977a5.33,5.33,0,1,1,5.332-5.328A5.316,5.316,0,0,1,139.787,201.13Zm0-14.054a5.217,5.217,0,1,1,5.2-5.215A5.207,5.207,0,0,1,139.787,187.076Zm0-14.091a5.06,5.06,0,1,1,5.06-5.064A5.051,5.051,0,0,1,139.787,172.984Zm0-14.177a4.833,4.833,0,1,1,4.824-4.82A4.83,4.83,0,0,1,139.787,158.808Zm0-14.2a4.558,4.558,0,1,1,4.552-4.565A4.56,4.56,0,0,1,139.787,144.608Zm0-14.245a4.254,4.254,0,1,1,4.253-4.252A4.246,4.246,0,0,1,139.787,130.363Zm0-14.25a3.945,3.945,0,1,1,3.945-3.947A3.942,3.942,0,0,1,139.787,116.113Zm0-14.368A3.518,3.518,0,1,1,143.3,98.23,3.509,3.509,0,0,1,139.787,101.746Zm0-14.318a3.134,3.134,0,1,1,3.128-3.143A3.128,3.128,0,0,1,139.787,87.428Zm0-14.367a2.707,2.707,0,1,1,2.7-2.707A2.711,2.711,0,0,1,139.787,73.061Zm0-14.441a2.205,2.205,0,1,1,2.2-2.208A2.2,2.2,0,0,1,139.787,58.62Zm0-14.445a1.7,1.7,0,1,1,1.7-1.7A1.7,1.7,0,0,1,139.787,44.175Zm0-14.472a1.163,1.163,0,1,1,1.17-1.168A1.166,1.166,0,0,1,139.787,29.7Zm0-14.563a.543.543,0,0,1,0-1.086.543.543,0,1,1,0,1.086Zm-13.91,213.64a5.1,5.1,0,1,1,5.1-5.1A5.094,5.094,0,0,1,125.877,228.78Zm0-13.932a5.105,5.105,0,1,1,5.1-5.115A5.1,5.1,0,0,1,125.877,214.848Zm0-14.018A5.024,5.024,0,1,1,130.9,195.8,5.011,5.011,0,0,1,125.877,200.83Zm0-14.1a4.87,4.87,0,1,1,4.86-4.87A4.862,4.862,0,0,1,125.877,186.73Zm0-14.05a4.754,4.754,0,1,1,4.752-4.76A4.761,4.761,0,0,1,125.877,172.68Zm0-14.172a4.52,4.52,0,1,1,4.516-4.52A4.517,4.517,0,0,1,125.877,158.508Zm0-14.2a4.254,4.254,0,1,1,4.244-4.261A4.253,4.253,0,0,1,125.877,144.3Zm0-14.213a3.979,3.979,0,1,1,3.981-3.98A3.97,3.97,0,0,1,125.877,130.091Zm0-14.291a3.631,3.631,0,1,1,3.627-3.633A3.633,3.633,0,0,1,125.877,115.8Zm0-14.29a3.284,3.284,0,1,1,3.283-3.28A3.269,3.269,0,0,1,125.877,101.51Zm0-14.4a2.825,2.825,0,1,1,2.811-2.83A2.828,2.828,0,0,1,125.877,87.115Zm0-14.327a2.432,2.432,0,1,1,2.43-2.434A2.433,2.433,0,0,1,125.877,72.788Zm0-14.445a1.933,1.933,0,1,1,1.931-1.931A1.931,1.931,0,0,1,125.877,58.343Zm0-14.436a1.433,1.433,0,1,1,1.433-1.431A1.432,1.432,0,0,1,125.877,43.907Zm0-14.481a.888.888,0,1,1,.9-.891A.888.888,0,0,1,125.877,29.426Zm0-14.518a.31.31,0,0,1-.309-.313.308.308,0,0,1,.617,0A.31.31,0,0,1,125.877,14.908ZM111.966,228.43a4.752,4.752,0,1,1,4.743-4.747A4.75,4.75,0,0,1,111.966,228.43Zm0-13.941a4.747,4.747,0,1,1,4.743-4.755A4.743,4.743,0,0,1,111.966,214.489Zm0-14.054A4.636,4.636,0,1,1,116.6,195.8,4.63,4.63,0,0,1,111.966,200.435Zm0-14.054a4.52,4.52,0,1,1,4.515-4.52A4.511,4.511,0,0,1,111.966,186.381Zm0-14.055a4.406,4.406,0,1,1,4.4-4.406A4.4,4.4,0,0,1,111.966,172.326Zm0-14.167a4.175,4.175,0,1,1,4.163-4.171A4.18,4.18,0,0,1,111.966,158.159Zm0-14.168a3.945,3.945,0,1,1,3.927-3.947A3.949,3.949,0,0,1,111.966,143.99Zm0-14.249a3.634,3.634,0,1,1,3.619-3.63A3.64,3.64,0,0,1,111.966,129.741Zm0-14.291a3.286,3.286,0,1,1,3.273-3.284A3.284,3.284,0,0,1,111.966,115.45Zm0-14.281a2.939,2.939,0,1,1,2.929-2.939A2.936,2.936,0,0,1,111.966,101.169Zm0-14.367a2.51,2.51,0,1,1,2.5-2.517A2.514,2.514,0,0,1,111.966,86.8Zm0-14.359a2.09,2.09,0,1,1,2.085-2.09A2.089,2.089,0,0,1,111.966,72.443Zm0-14.4a1.624,1.624,0,1,1,1.623-1.626A1.626,1.626,0,0,1,111.966,58.039Zm0-14.485a1.081,1.081,0,0,1,0-2.162,1.081,1.081,0,0,1,0,2.162Zm0-14.477a.54.54,0,1,1,0-1.081.54.54,0,0,1,0,1.081ZM98.055,228.008a4.329,4.329,0,1,1,4.316-4.325A4.321,4.321,0,0,1,98.055,228.008Zm0-13.937a4.331,4.331,0,1,1,4.316-4.338A4.33,4.33,0,0,1,98.055,214.071Zm0-14.018A4.254,4.254,0,1,1,102.3,195.8,4.251,4.251,0,0,1,98.055,200.053Zm0-14.055a4.138,4.138,0,1,1,4.126-4.138A4.139,4.139,0,0,1,98.055,186Zm0-14.085a3.988,3.988,0,1,1,3.971-3.993A3.985,3.985,0,0,1,98.055,171.913Zm0-14.15a3.784,3.784,0,1,1,3.781-3.775A3.772,3.772,0,0,1,98.055,157.763Zm0-14.191a3.518,3.518,0,1,1,3.509-3.529A3.525,3.525,0,0,1,98.055,143.572Zm0-14.177a3.289,3.289,0,1,1,3.273-3.285A3.284,3.284,0,0,1,98.055,129.4Zm0-14.291a2.939,2.939,0,1,1,2.929-2.939A2.939,2.939,0,0,1,98.055,115.1Zm0-14.286a2.589,2.589,0,1,1,2.584-2.589A2.586,2.586,0,0,1,98.055,100.819Zm0-14.322a2.2,2.2,0,1,1,2.194-2.212A2.2,2.2,0,0,1,98.055,86.5Zm0-14.4a1.74,1.74,0,1,1,1.732-1.74A1.731,1.731,0,0,1,98.055,72.093Zm0-14.4a1.274,1.274,0,1,1,1.27-1.277A1.274,1.274,0,0,1,98.055,57.689Zm0-14.436a.775.775,0,1,1,.771-.777A.777.777,0,0,1,98.055,43.253Zm0-14.45a.268.268,0,1,1,0-.536.268.268,0,0,1,0,.536ZM84.135,241.53a3.911,3.911,0,1,1,3.9-3.925A3.907,3.907,0,0,1,84.135,241.53Zm0-13.95a3.9,3.9,0,1,1,3.9-3.9A3.9,3.9,0,0,1,84.135,227.581Zm0-13.932a3.909,3.909,0,1,1,3.9-3.915A3.9,3.9,0,0,1,84.135,213.648Zm0-14.022a3.827,3.827,0,1,1,3.827-3.825A3.824,3.824,0,0,1,84.135,199.627Zm0-14.055a3.709,3.709,0,1,1,3.709-3.711A3.7,3.7,0,0,1,84.135,185.572Zm0-14.1a3.556,3.556,0,1,1,3.556-3.556A3.557,3.557,0,0,1,84.135,171.477Zm0-14.131a3.362,3.362,0,1,1,3.356-3.358A3.356,3.356,0,0,1,84.135,157.346Zm0-14.168a3.129,3.129,0,1,1,3.138-3.134A3.127,3.127,0,0,1,84.135,143.177Zm0-14.254a2.821,2.821,0,1,1,2.82-2.812A2.817,2.817,0,0,1,84.135,128.923Zm0-14.245a2.512,2.512,0,1,1,2.512-2.512A2.511,2.511,0,0,1,84.135,114.678Zm0-14.244a2.2,2.2,0,1,1,2.2-2.2A2.21,2.21,0,0,1,84.135,100.433Zm0-14.359a1.783,1.783,0,1,1,1.787-1.79A1.789,1.789,0,0,1,84.135,86.074Zm0-14.363a1.356,1.356,0,1,1,1.351-1.358A1.357,1.357,0,0,1,84.135,71.711Zm0-14.4a.893.893,0,1,1,.889-.9A.893.893,0,0,1,84.135,57.307Zm0-14.449a.389.389,0,0,1-.39-.382.394.394,0,0,1,.39-.391.387.387,0,0,1,.39.391A.382.382,0,0,1,84.135,42.858Zm-13.911,198.2a3.439,3.439,0,1,1,3.428-3.453A3.446,3.446,0,0,1,70.224,241.058Zm0-13.945a3.436,3.436,0,1,1,3.428-3.43A3.436,3.436,0,0,1,70.224,227.113Zm0-13.927a3.443,3.443,0,1,1,3.428-3.452A3.443,3.443,0,0,1,70.224,213.185Zm0-14.022A3.361,3.361,0,1,1,73.58,195.8,3.359,3.359,0,0,1,70.224,199.163Zm0-14.05a3.252,3.252,0,1,1,3.238-3.252A3.247,3.247,0,0,1,70.224,185.113Zm0-14.1a3.093,3.093,0,1,1,3.084-3.1A3.1,3.1,0,0,1,70.224,171.018Zm0-14.132a2.9,2.9,0,1,1,2.893-2.9A2.889,2.889,0,0,1,70.224,156.886Zm0-14.136a2.707,2.707,0,1,1,2.7-2.707A2.709,2.709,0,0,1,70.224,142.75Zm0-14.208a2.433,2.433,0,1,1,2.431-2.431A2.436,2.436,0,0,1,70.224,128.542Zm0-14.287a2.089,2.089,0,1,1,2.086-2.089A2.085,2.085,0,0,1,70.224,114.256Zm0-14.286a1.738,1.738,0,1,1,1.741-1.74A1.739,1.739,0,0,1,70.224,99.97Zm0-14.327a1.349,1.349,0,1,1,1.352-1.358A1.354,1.354,0,0,1,70.224,85.643Zm0-14.322a.968.968,0,1,1,.97-.967A.973.973,0,0,1,70.224,71.321Zm0-14.44a.465.465,0,1,1,.463-.468A.466.466,0,0,1,70.224,56.88ZM56.314,240.558a2.939,2.939,0,1,1,2.938-2.953A2.935,2.935,0,0,1,56.314,240.558Zm0-13.945a2.939,2.939,0,1,1,2.938-2.93A2.927,2.927,0,0,1,56.314,226.613Zm0-13.932a2.941,2.941,0,1,1,2.938-2.948A2.934,2.934,0,0,1,56.314,212.681Zm0-14.022a2.86,2.86,0,1,1,2.847-2.857A2.858,2.858,0,0,1,56.314,198.659Zm0-14.014a2.785,2.785,0,1,1,2.774-2.785A2.779,2.779,0,0,1,56.314,184.645Zm0-14.1a2.624,2.624,0,1,1,2.62-2.625A2.623,2.623,0,0,1,56.314,170.546Zm0-14.123a2.437,2.437,0,1,1,2.43-2.435A2.426,2.426,0,0,1,56.314,156.423Zm0-14.172a2.2,2.2,0,1,1,2.2-2.208A2.2,2.2,0,0,1,56.314,142.251Zm0-14.209a1.933,1.933,0,1,1,1.932-1.931A1.932,1.932,0,0,1,56.314,128.042Zm0-14.245a1.624,1.624,0,1,1,1.623-1.631A1.624,1.624,0,0,1,56.314,113.8Zm0-14.29a1.276,1.276,0,1,1,1.27-1.277A1.275,1.275,0,0,1,56.314,99.507Zm0-14.323a.89.89,0,1,1,.889-.9A.887.887,0,0,1,56.314,85.184Zm0-14.367a.464.464,0,0,1,0-.927.464.464,0,0,1,0,.927Zm-.036-14.4a.033.033,0,0,1,.036-.036.039.039,0,0,1,.036.036.04.04,0,0,1-.036.041C56.287,56.454,56.277,56.435,56.277,56.412ZM42.4,240.04a2.434,2.434,0,1,1,2.421-2.434A2.427,2.427,0,0,1,42.4,240.04Zm0-13.926a2.433,2.433,0,1,1,2.421-2.431A2.423,2.423,0,0,1,42.4,226.113Zm0-13.941a2.437,2.437,0,1,1,2.421-2.439A2.431,2.431,0,0,1,42.4,212.172Zm0-14.054a2.321,2.321,0,1,1,2.312-2.316A2.319,2.319,0,0,1,42.4,198.118Zm0-14.018a2.237,2.237,0,1,1,2.231-2.239A2.241,2.241,0,0,1,42.4,184.1Zm0-14.081a2.089,2.089,0,1,1,2.086-2.1A2.085,2.085,0,0,1,42.4,170.019Zm0-14.141a1.895,1.895,0,1,1,1.886-1.89A1.889,1.889,0,0,1,42.4,155.878Zm0-14.128a1.7,1.7,0,1,1,1.7-1.708A1.7,1.7,0,0,1,42.4,141.751Zm0-14.213a1.431,1.431,0,1,1,1.423-1.427A1.429,1.429,0,0,1,42.4,127.538Zm0-14.291a1.079,1.079,0,1,1,0-2.157,1.079,1.079,0,1,1,0,2.157ZM42.4,99a.775.775,0,1,1,.762-.772A.772.772,0,0,1,42.4,99Zm0-14.323a.388.388,0,1,1,0-.776.388.388,0,0,1,0,.776Zm-13.921,154.8a1.858,1.858,0,0,1-1.849-1.872,1.85,1.85,0,0,1,3.7,0A1.857,1.857,0,0,1,28.483,239.477Zm0-13.932a1.862,1.862,0,1,1,1.85-1.862A1.855,1.855,0,0,1,28.483,225.545Zm0-13.954a1.853,1.853,0,1,1,1.85-1.857A1.848,1.848,0,0,1,28.483,211.591Zm0-14.013a1.777,1.777,0,0,1,0-3.553,1.777,1.777,0,1,1,0,3.553Zm0-14.018a1.7,1.7,0,1,1,1.7-1.7A1.7,1.7,0,0,1,28.483,183.56Zm0-14.086a1.549,1.549,0,1,1,1.551-1.553A1.543,1.543,0,0,1,28.483,169.474Zm0-14.14a1.347,1.347,0,1,1,1.361-1.345A1.359,1.359,0,0,1,28.483,155.334Zm0-14.123a1.163,1.163,0,1,1,1.161-1.168A1.174,1.174,0,0,1,28.483,141.211Zm0-14.21a.9.9,0,0,1-.888-.89.889.889,0,1,1,.888.89Zm0-14.295a.538.538,0,0,1,0-1.076.538.538,0,1,1,0,1.076Zm0-14.208a.265.265,0,0,1-.262-.268.268.268,0,0,1,.262-.272.276.276,0,0,1,.273.272A.272.272,0,0,1,28.483,98.5ZM14.573,238.9a1.276,1.276,0,1,1,1.269-1.29A1.278,1.278,0,0,1,14.573,238.9Zm0-13.945a1.272,1.272,0,1,1,1.269-1.268A1.268,1.268,0,0,1,14.573,224.951Zm0-13.937a1.274,1.274,0,1,1,1.269-1.281A1.27,1.27,0,0,1,14.573,211.014Zm0-14.018a1.2,1.2,0,1,1,1.2-1.194A1.2,1.2,0,0,1,14.573,197Zm0-14.055a1.081,1.081,0,1,1,1.079-1.081A1.071,1.071,0,0,1,14.573,182.941Zm0-14.058a.961.961,0,1,1,.971-.963A.964.964,0,0,1,14.573,168.883Zm0-14.123a.775.775,0,1,1,.771-.772A.771.771,0,0,1,14.573,154.76Zm0-14.177a.538.538,0,1,1,.544-.541A.543.543,0,0,1,14.573,140.584Zm0-14.168a.309.309,0,1,1,.309-.305A.308.308,0,0,1,14.573,126.416ZM.662,238.278A.675.675,0,0,1,0,237.605a.651.651,0,0,1,.662-.644.642.642,0,0,1,.653.644A.666.666,0,0,1,.662,238.278Zm0-13.946a.654.654,0,1,1,.653-.649A.649.649,0,0,1,.662,224.332Zm0-13.931A.668.668,0,0,1,0,209.733a.654.654,0,0,1,.662-.645.645.645,0,0,1,.653.645A.659.659,0,0,1,.662,210.4Zm0-14.055a.54.54,0,1,1,0-1.081.54.54,0,0,1,0,1.081Zm0-14.013a.468.468,0,1,1,0-.936.468.468,0,0,1,0,.936Zm0-14.064a.357.357,0,0,1-.354-.35.363.363,0,0,1,.354-.35.355.355,0,0,1,.344.35A.349.349,0,0,1,.662,168.27Zm-.19-14.282a.19.19,0,0,1,.19-.2.193.193,0,0,1,0,.386A.189.189,0,0,1,.472,153.988Zm.19,97.027a.533.533,0,0,1,.536.545.544.544,0,0,1-.536.545.552.552,0,0,1-.544-.545A.54.54,0,0,1,.662,251.015Zm0,14.018a.465.465,0,0,1,.463.464.457.457,0,0,1-.463.454A.46.46,0,0,1,.19,265.5.468.468,0,0,1,.662,265.032Zm0,14.091a.3.3,0,0,1,.3.309.294.294,0,0,1-.3.309.308.308,0,0,1-.317-.309A.319.319,0,0,1,.662,279.124ZM.78,293.368a.122.122,0,0,1-.118.128.123.123,0,0,1-.118-.128.118.118,0,0,1,.236,0Zm13.793-43.007a1.19,1.19,0,1,1-1.2,1.2A1.191,1.191,0,0,1,14.573,250.361Zm0,14.09a1.049,1.049,0,0,1,0,2.1,1.049,1.049,0,1,1,0-2.1Zm0,14.009a.979.979,0,0,1,.971.972.97.97,0,0,1-1.941,0A.984.984,0,0,1,14.573,278.46Zm0,14.145a.768.768,0,0,1,.771.763.775.775,0,1,1-.771-.763Zm0,14.2a.5.5,0,1,1-.5.5A.5.5,0,0,1,14.573,306.805Zm.263,14.435a.263.263,0,1,1-.526,0,.263.263,0,1,1,.526,0Zm13.647-71.48a1.79,1.79,0,0,1,0,3.58,1.79,1.79,0,0,1,0-3.58Zm0,14.073a1.667,1.667,0,1,1-1.659,1.663A1.661,1.661,0,0,1,28.483,263.833Zm0,14.1a1.5,1.5,0,0,1,1.505,1.5,1.505,1.505,0,1,1-1.505-1.5Zm0,14.073a1.371,1.371,0,0,1,1.361,1.362,1.356,1.356,0,0,1-1.361,1.345,1.34,1.34,0,0,1-1.341-1.345A1.356,1.356,0,0,1,28.483,292.006Zm0,14.227a1.081,1.081,0,1,1-1.069,1.071A1.074,1.074,0,0,1,28.483,306.233Zm0,14.172a.845.845,0,1,1,0,1.69.845.845,0,1,1,0-1.69Zm0,14.245a.536.536,0,1,1-.535.545A.533.533,0,0,1,28.483,334.65Zm.237,14.463a.24.24,0,0,1-.237.255.245.245,0,0,1-.236-.255.238.238,0,0,1,.236-.218A.232.232,0,0,1,28.719,349.113ZM42.4,249.234a2.317,2.317,0,1,1-2.321,2.326A2.315,2.315,0,0,1,42.4,249.234Zm0,14.009a2.246,2.246,0,0,1,2.231,2.253,2.24,2.24,0,0,1-4.48,0A2.256,2.256,0,0,1,42.4,263.243Zm0,14.1a2.089,2.089,0,1,1-2.086,2.09A2.088,2.088,0,0,1,42.4,277.343Zm0,14.136a1.894,1.894,0,1,1-1.9,1.889A1.892,1.892,0,0,1,42.4,291.479Zm0,14.173a1.653,1.653,0,1,1,0,3.306,1.653,1.653,0,1,1,0-3.306Zm0,14.208a1.39,1.39,0,1,1-1.4,1.38A1.387,1.387,0,0,1,42.4,319.86Zm0,14.245a1.081,1.081,0,1,1-1.089,1.089A1.079,1.079,0,0,1,42.4,334.105Zm0,14.3a.713.713,0,0,1,.725.708.73.73,0,1,1-1.46,0A.715.715,0,0,1,42.4,348.4Zm0,14.308a.34.34,0,0,1,.335.354.34.34,0,1,1-.681,0A.342.342,0,0,1,42.4,362.713Zm13.91-114.024a2.862,2.862,0,1,1-2.856,2.871A2.859,2.859,0,0,1,56.314,248.689Zm0,14.063a2.744,2.744,0,1,1-2.747,2.744A2.733,2.733,0,0,1,56.314,262.752Zm0,14.1a2.58,2.58,0,1,1-2.584,2.58A2.578,2.578,0,0,1,56.314,276.853Zm0,14.081a2.435,2.435,0,1,1-2.43,2.434A2.432,2.432,0,0,1,56.314,290.934Zm0,14.209a2.171,2.171,0,1,1-2.158,2.162A2.159,2.159,0,0,1,56.314,305.143Zm0,14.218a1.889,1.889,0,1,1-1.886,1.88A1.892,1.892,0,0,1,56.314,319.36Zm0,14.244a1.581,1.581,0,1,1-1.587,1.59A1.591,1.591,0,0,1,56.314,333.6Zm0,14.272a1.245,1.245,0,1,1-1.242,1.235A1.242,1.242,0,0,1,56.314,347.877Zm0,14.345a.845.845,0,1,1,0,1.69.845.845,0,0,1,0-1.69Zm0,14.354a.427.427,0,0,1,0,.854.427.427,0,0,1,0-.854Zm13.91-128.351a3.329,3.329,0,1,1-3.319,3.334A3.337,3.337,0,0,1,70.224,248.226Zm0,14.018a3.248,3.248,0,1,1-3.237,3.253A3.245,3.245,0,0,1,70.224,262.244Zm0,14.127a3.057,3.057,0,1,1-3.056,3.062A3.071,3.071,0,0,1,70.224,276.371Zm0,14.1a2.9,2.9,0,1,1-2.893,2.9A2.9,2.9,0,0,1,70.224,290.47Zm0,14.181a2.662,2.662,0,1,1-2.657,2.653A2.664,2.664,0,0,1,70.224,304.651Zm0,14.209a2.394,2.394,0,1,1-2.394,2.38A2.4,2.4,0,0,1,70.224,318.861Zm0,14.281a2.044,2.044,0,1,1-2.05,2.053A2.042,2.042,0,0,1,70.224,333.142Zm0,14.291a1.691,1.691,0,0,1,1.7,1.68,1.7,1.7,0,1,1-1.7-1.68Zm0,14.309a1.326,1.326,0,1,1-1.315,1.326A1.324,1.324,0,0,1,70.224,361.742Zm0,14.381a.886.886,0,1,1,0,1.771.886.886,0,1,1,0-1.771Zm0,14.4a.427.427,0,0,1,0,.854.427.427,0,0,1,0-.854Zm13.911-142.8a3.825,3.825,0,1,1-3.818,3.834A3.825,3.825,0,0,1,84.135,247.726Zm0,14.046a3.715,3.715,0,1,1-3.7,3.725A3.719,3.719,0,0,1,84.135,261.772Zm0,14.153a3.516,3.516,0,1,1-3.509,3.507A3.51,3.51,0,0,1,84.135,275.925Zm0,14.118a3.334,3.334,0,1,1-3.311,3.325A3.318,3.318,0,0,1,84.135,290.043Zm0,14.173a3.093,3.093,0,1,1-3.083,3.088A3.1,3.1,0,0,1,84.135,304.216Zm0,14.191a2.834,2.834,0,1,1-2.82,2.833A2.832,2.832,0,0,1,84.135,318.407Zm0,14.308a2.471,2.471,0,1,1-2.466,2.48A2.469,2.469,0,0,1,84.135,332.715Zm0,14.245a2.162,2.162,0,1,1-2.158,2.153A2.165,2.165,0,0,1,84.135,346.96Zm0,14.372a1.736,1.736,0,1,1-1.732,1.735A1.722,1.722,0,0,1,84.135,361.332Zm0,14.364A1.308,1.308,0,1,1,82.83,377,1.3,1.3,0,0,1,84.135,375.7Zm0,14.39a.854.854,0,1,1-.843.854A.846.846,0,0,1,84.135,390.086Zm0,14.454a.337.337,0,0,1,.344.337.352.352,0,0,1-.344.354.368.368,0,0,1-.354-.354A.352.352,0,0,1,84.135,404.539Zm13.92-171.2a4.284,4.284,0,1,1-4.29,4.27A4.271,4.271,0,0,1,98.055,233.335Zm0,13.973A4.247,4.247,0,1,1,93.8,251.56,4.248,4.248,0,0,1,98.055,247.308Zm0,14.045a4.138,4.138,0,1,1-4.136,4.144A4.135,4.135,0,0,1,98.055,261.353Zm0,14.1a3.979,3.979,0,1,1-3.981,3.979A3.98,3.98,0,0,1,98.055,275.453Zm0,14.163a3.756,3.756,0,1,1-3.754,3.752A3.742,3.742,0,0,1,98.055,289.616Zm0,14.181a3.511,3.511,0,1,1-3.518,3.507A3.508,3.508,0,0,1,98.055,303.8Zm0,14.2a3.252,3.252,0,1,1-3.247,3.243A3.237,3.237,0,0,1,98.055,318Zm0,14.29a2.9,2.9,0,1,1-2.9,2.907A2.9,2.9,0,0,1,98.055,332.287Zm0,14.327a2.512,2.512,0,1,1-2.521,2.5A2.5,2.5,0,0,1,98.055,346.615Zm0,14.327a2.121,2.121,0,1,1-2.131,2.126A2.113,2.113,0,0,1,98.055,360.942Zm0,14.364a1.7,1.7,0,1,1-1.7,1.7A1.7,1.7,0,0,1,98.055,375.305Zm0,14.4a1.24,1.24,0,1,1-1.242,1.236A1.229,1.229,0,0,1,98.055,389.7Zm0,14.446a.727.727,0,1,1,0,1.453.727.727,0,1,1,0-1.453Zm.181,14.662a.193.193,0,0,1-.181.2.2.2,0,0,1-.2-.2.194.194,0,0,1,.2-.191A.184.184,0,0,1,98.237,418.812ZM111.966,232.9a4.713,4.713,0,1,1-4.706,4.7A4.706,4.706,0,0,1,111.966,232.9Zm0,14a4.643,4.643,0,1,1-4.634,4.652A4.649,4.649,0,0,1,111.966,246.908Zm0,14.063a4.525,4.525,0,1,1-4.516,4.525A4.52,4.52,0,0,1,111.966,260.971Zm0,14.091a4.365,4.365,0,1,1-4.361,4.37A4.372,4.372,0,0,1,111.966,275.063Zm0,14.163a4.143,4.143,0,1,1-4.126,4.143A4.141,4.141,0,0,1,111.966,289.225Zm0,14.173a3.916,3.916,0,1,1-3.89,3.906A3.907,3.907,0,0,1,111.966,303.4Zm0,14.245a3.607,3.607,0,1,1-3.591,3.6A3.614,3.614,0,0,1,111.966,317.643Zm0,14.245a3.288,3.288,0,1,1-3.283,3.306A3.292,3.292,0,0,1,111.966,331.888Zm0,14.345a2.9,2.9,0,1,1-2.9,2.879A2.881,2.881,0,0,1,111.966,346.234Zm0,14.354a2.476,2.476,0,1,1-2.466,2.48A2.461,2.461,0,0,1,111.966,360.587Zm0,14.364A2.048,2.048,0,1,1,109.925,377,2.053,2.053,0,0,1,111.966,374.951Zm0,14.408a1.585,1.585,0,0,1,0,3.17,1.585,1.585,0,1,1,0-3.17Zm0,14.481a1.045,1.045,0,1,1-1.043,1.037A1.048,1.048,0,0,1,111.966,403.84Zm0,14.482a.5.5,0,0,1,0,1,.5.5,0,1,1,0-1Zm13.911-185.768a5.06,5.06,0,1,1-5.06,5.051A5.063,5.063,0,0,1,125.877,232.554Zm0,13.99a5.015,5.015,0,1,1-5.006,5.015A5.013,5.013,0,0,1,125.877,246.545Zm0,14.082a4.874,4.874,0,1,1-4.861,4.87A4.871,4.871,0,0,1,125.877,260.627Zm0,14.082a4.724,4.724,0,1,1-4.707,4.724A4.728,4.728,0,0,1,125.877,274.708Zm0,14.172a4.488,4.488,0,1,1-4.48,4.488A4.48,4.48,0,0,1,125.877,288.88Zm0,14.218a4.211,4.211,0,1,1-4.2,4.207A4.213,4.213,0,0,1,125.877,303.1Zm0,14.2a3.947,3.947,0,1,1-3.936,3.942A3.933,3.933,0,0,1,125.877,317.3Zm0,14.3a3.588,3.588,0,1,1-3.582,3.6A3.578,3.578,0,0,1,125.877,331.6Zm0,14.318a3.207,3.207,0,1,1-3.2,3.2A3.2,3.2,0,0,1,125.877,345.915Zm0,14.372a2.78,2.78,0,1,1-2.776,2.78A2.771,2.771,0,0,1,125.877,360.288Zm0,14.318a2.4,2.4,0,1,1-2.4,2.4A2.394,2.394,0,0,1,125.877,374.606Zm0,14.445a1.89,1.89,0,1,1-1.887,1.889A1.9,1.9,0,0,1,125.877,389.05Zm0,14.481a1.35,1.35,0,1,1-1.352,1.345A1.349,1.349,0,0,1,125.877,403.531Zm0,14.482a.808.808,0,1,1-.808.8A.815.815,0,0,1,125.877,418.013Zm.235,14.754a.236.236,0,0,1-.471,0,.236.236,0,1,1,.471,0Zm13.675-200.521a5.374,5.374,0,1,1-5.359,5.36A5.363,5.363,0,0,1,139.787,232.245Zm0,14.018a5.292,5.292,0,1,1-5.278,5.3A5.3,5.3,0,0,1,139.787,246.264Zm0,14.018a5.215,5.215,0,1,1-5.2,5.215A5.2,5.2,0,0,1,139.787,260.281Zm0,14.136a5.024,5.024,0,1,1-5.014,5.015A5.013,5.013,0,0,1,139.787,274.417Zm0,14.163A4.793,4.793,0,1,1,135,293.368,4.779,4.779,0,0,1,139.787,288.581Zm0,14.2a4.524,4.524,0,1,1-4.506,4.524A4.521,4.521,0,0,1,139.787,302.78Zm0,14.245a4.225,4.225,0,1,1-4.207,4.215A4.22,4.22,0,0,1,139.787,317.025Zm0,14.3a3.861,3.861,0,1,1-3.854,3.87A3.85,3.85,0,0,1,139.787,331.325Zm0,14.282a3.52,3.52,0,1,1-3.509,3.506A3.513,3.513,0,0,1,139.787,345.606Zm0,14.409a3.053,3.053,0,1,1-3.047,3.052A3.046,3.046,0,0,1,139.787,360.015Zm0,14.354a2.625,2.625,0,1,1-2.62,2.635A2.634,2.634,0,0,1,139.787,374.369Zm0,14.408a2.162,2.162,0,1,1-2.158,2.162A2.168,2.168,0,0,1,139.787,388.777Zm0,14.481a1.627,1.627,0,1,1-1.614,1.618A1.624,1.624,0,0,1,139.787,403.258Zm0,14.518a1.036,1.036,0,1,1-1.043,1.035A1.042,1.042,0,0,1,139.787,417.777Zm0,14.517a.464.464,0,1,1,0,.927.449.449,0,0,1-.453-.455A.454.454,0,0,1,139.787,432.294ZM153.7,245.945a5.61,5.61,0,1,1-5.585,5.615A5.6,5.6,0,0,1,153.7,245.945Zm0,14.064a5.492,5.492,0,1,1-5.468,5.488A5.486,5.486,0,0,1,153.7,260.009Zm0,14.118a5.3,5.3,0,1,1-5.277,5.306A5.307,5.307,0,0,1,153.7,274.127Zm0,14.172a5.07,5.07,0,1,1-5.051,5.069A5.08,5.08,0,0,1,153.7,288.3Zm0,14.218a4.792,4.792,0,1,1-4.769,4.788A4.775,4.775,0,0,1,153.7,302.517Zm0,14.255a4.488,4.488,0,1,1-4.47,4.469A4.471,4.471,0,0,1,153.7,316.771Zm0,14.281a4.134,4.134,0,1,1-4.126,4.143A4.132,4.132,0,0,1,153.7,331.052Zm0,14.318a3.752,3.752,0,1,1-3.736,3.743A3.748,3.748,0,0,1,153.7,345.37Zm0,14.408a3.289,3.289,0,1,1-3.273,3.289A3.285,3.285,0,0,1,153.7,359.779Zm0,14.354A2.871,2.871,0,1,1,150.85,377,2.874,2.874,0,0,1,153.7,374.133Zm0,14.408a2.4,2.4,0,1,1-2.385,2.4A2.394,2.394,0,0,1,153.7,388.541Zm0,14.482a1.853,1.853,0,1,1-1.84,1.853A1.861,1.861,0,0,1,153.7,403.023Zm0,14.481a1.3,1.3,0,0,1,1.315,1.308A1.311,1.311,0,1,1,153.7,417.5Zm0,14.517a.742.742,0,0,1,.744.745.74.74,0,0,1-1.479,0A.741.741,0,0,1,153.7,432.021Zm.091,14.673a.084.084,0,0,1-.091.082.087.087,0,0,1-.081-.082c0-.027.044-.082.081-.082A.1.1,0,0,1,153.788,446.694Zm13.838-215.03a5.951,5.951,0,1,1-5.948,5.942A5.944,5.944,0,0,1,167.626,231.664Zm0,14.055a5.837,5.837,0,1,1-5.831,5.841A5.835,5.835,0,0,1,167.626,245.718Zm0,14.045a5.728,5.728,0,1,1-5.713,5.733A5.716,5.716,0,0,1,167.626,259.763Zm0,14.146a5.524,5.524,0,1,1-5.523,5.523A5.508,5.508,0,0,1,167.626,273.909Zm0,14.172a5.292,5.292,0,1,1-5.3,5.287A5.282,5.282,0,0,1,167.626,288.081Zm0,14.208A5.024,5.024,0,1,1,162.6,307.3,5.015,5.015,0,0,1,167.626,302.289Zm0,14.282a4.674,4.674,0,1,1-4.679,4.669A4.662,4.662,0,0,1,167.626,316.571Zm0,14.281a4.334,4.334,0,1,1-4.334,4.342A4.333,4.333,0,0,1,167.626,330.852Zm0,14.337a3.938,3.938,0,1,1-3.953,3.924A3.93,3.93,0,0,1,167.626,345.189Zm0,14.354a3.516,3.516,0,1,1-3.527,3.525A3.517,3.517,0,0,1,167.626,359.542Zm0,14.418A3.048,3.048,0,1,1,164.569,377,3.041,3.041,0,0,1,167.626,373.96Zm0,14.427a2.558,2.558,0,1,1-2.556,2.553A2.538,2.538,0,0,1,167.626,388.387Zm0,14.445a2.049,2.049,0,1,1-2.05,2.045A2.052,2.052,0,0,1,167.626,402.831Zm0,14.518a1.467,1.467,0,1,1-1.477,1.462A1.466,1.466,0,0,1,167.626,417.35Zm0,14.517a.873.873,0,0,1,.871.9.887.887,0,0,1-.871.89.9.9,0,0,1-.9-.89A.889.889,0,0,1,167.626,431.867Zm0,14.564a.267.267,0,0,1,.254.263.262.262,0,0,1-.254.263.273.273,0,0,1-.281-.263A.278.278,0,0,1,167.626,446.431Zm13.9-214.912a6.105,6.105,0,1,1-6.093,6.087A6.081,6.081,0,0,1,181.527,231.519Zm0,13.991a6.041,6.041,0,1,1-6.021,6.05A6.039,6.039,0,0,1,181.527,245.509Zm0,14.081a5.914,5.914,0,1,1-5.9,5.905A5.9,5.9,0,0,1,181.527,259.591Zm0,14.118a5.728,5.728,0,1,1-5.712,5.723A5.718,5.718,0,0,1,181.527,273.709Zm0,14.172a5.492,5.492,0,1,1-5.477,5.487A5.478,5.478,0,0,1,181.527,287.881Zm0,14.209a5.215,5.215,0,1,1-5.2,5.215A5.224,5.224,0,0,1,181.527,302.09Zm0,14.337a4.833,4.833,0,1,1-4.815,4.814A4.823,4.823,0,0,1,181.527,316.426Zm0,14.281a4.479,4.479,0,1,1-4.47,4.488A4.488,4.488,0,0,1,181.527,330.707Zm0,14.309a4.1,4.1,0,1,1-4.09,4.1A4.113,4.113,0,0,1,181.527,345.016Zm0,14.382a3.674,3.674,0,1,1-3.663,3.67A3.668,3.668,0,0,1,181.527,359.4Zm0,14.39A3.216,3.216,0,1,1,178.336,377,3.22,3.22,0,0,1,181.527,373.788Zm0,14.445a2.707,2.707,0,1,1-2.7,2.707A2.705,2.705,0,0,1,181.527,388.232Zm0,14.445a2.2,2.2,0,1,1-2.2,2.2A2.2,2.2,0,0,1,181.527,402.677Zm0,14.518a1.626,1.626,0,1,1-1.613,1.617A1.621,1.621,0,0,1,181.527,417.2Zm0,14.554a1.013,1.013,0,0,1,1.007,1.018,1,1,0,1,1-1.007-1.018Zm0,14.563a.386.386,0,1,1-.38.382A.377.377,0,0,1,181.527,446.312Zm13.911-215a6.307,6.307,0,1,1-6.285,6.291A6.3,6.3,0,0,1,195.439,231.314Zm0,14.05a6.191,6.191,0,1,1-6.176,6.2A6.184,6.184,0,0,1,195.439,245.364Zm0,14.1a6.023,6.023,0,1,1-6.012,6.033A6.013,6.013,0,0,1,195.439,259.463Zm0,14.128a5.837,5.837,0,1,1-5.822,5.841A5.837,5.837,0,0,1,195.439,273.591Zm0,14.218a5.569,5.569,0,1,1-5.55,5.559A5.562,5.562,0,0,1,195.439,287.809Zm0,14.2a5.3,5.3,0,1,1-5.287,5.3A5.291,5.291,0,0,1,195.439,302.009Zm0,14.254a4.988,4.988,0,1,1-4.97,4.978A4.983,4.983,0,0,1,195.439,316.262Zm0,14.318a4.606,4.606,0,1,1-4.58,4.615A4.61,4.61,0,0,1,195.439,330.58Zm0,14.337a4.215,4.215,0,1,1-4.2,4.2A4.2,4.2,0,0,1,195.439,344.916Zm0,14.354a3.789,3.789,0,1,1-3.773,3.8A3.787,3.787,0,0,1,195.439,359.27Zm0,14.445A3.289,3.289,0,1,1,192.164,377,3.285,3.285,0,0,1,195.439,373.715Zm0,14.445a2.78,2.78,0,1,1-2.775,2.78A2.774,2.774,0,0,1,195.439,388.16Zm0,14.445a2.271,2.271,0,1,1-2.277,2.272A2.274,2.274,0,0,1,195.439,402.6Zm0,14.518a1.7,1.7,0,0,1,1.7,1.689,1.7,1.7,0,1,1-1.7-1.689Zm0,14.48a1.163,1.163,0,1,1-1.152,1.163A1.153,1.153,0,0,1,195.439,431.6Zm0,14.591a.5.5,0,0,1,0,1.009.5.5,0,0,1,0-1.009ZM209.349,231.2a6.418,6.418,0,1,1-6.4,6.4A6.4,6.4,0,0,1,209.349,231.2Zm0,14.046a6.309,6.309,0,1,1-6.284,6.314A6.3,6.3,0,0,1,209.349,245.246Zm0,14.145a6.1,6.1,0,1,1-6.086,6.105A6.1,6.1,0,0,1,209.349,259.391Zm0,14.118a5.914,5.914,0,1,1-5.895,5.923A5.911,5.911,0,0,1,209.349,273.509Zm0,14.172a5.687,5.687,0,1,1-5.667,5.687A5.686,5.686,0,0,1,209.349,287.681Zm0,14.245a5.378,5.378,0,1,1-5.359,5.378A5.38,5.38,0,0,1,209.349,301.927Zm0,14.263a5.06,5.06,0,1,1-5.043,5.05A5.05,5.05,0,0,1,209.349,316.19Zm0,14.317a4.679,4.679,0,1,1-4.661,4.688A4.67,4.67,0,0,1,209.349,330.507Zm0,14.337a4.288,4.288,0,1,1-4.271,4.269A4.284,4.284,0,0,1,209.349,344.844Zm0,14.39a3.83,3.83,0,1,1-3.809,3.834A3.817,3.817,0,0,1,209.349,359.234Zm0,14.4A3.366,3.366,0,1,1,206,377,3.366,3.366,0,0,1,209.349,373.634Zm0,14.454a2.857,2.857,0,1,1-2.847,2.852A2.852,2.852,0,0,1,209.349,388.087Zm0,14.472a2.321,2.321,0,1,1-2.3,2.317A2.32,2.32,0,0,1,209.349,402.56Zm0,14.49a1.771,1.771,0,1,1-1.769,1.762A1.76,1.76,0,0,1,209.349,417.05Zm0,14.517a1.19,1.19,0,1,1,0,2.381,1.19,1.19,0,0,1,0-2.381Zm0,14.591a.536.536,0,1,1-.535.536A.541.541,0,0,1,209.349,446.158ZM223.268,231.2a6.418,6.418,0,1,1-6.4,6.4A6.407,6.407,0,0,1,223.268,231.2Zm0,14.046a6.309,6.309,0,1,1-6.293,6.314A6.3,6.3,0,0,1,223.268,245.246Zm0,14.09a6.151,6.151,0,1,1-6.13,6.161A6.158,6.158,0,0,1,223.268,259.336Zm0,14.155a5.951,5.951,0,1,1-5.939,5.942A5.942,5.942,0,0,1,223.268,273.491Zm0,14.163a5.719,5.719,0,1,1-5.713,5.714A5.71,5.71,0,0,1,223.268,287.654Zm0,14.273a5.378,5.378,0,1,1-5.358,5.378A5.378,5.378,0,0,1,223.268,301.927Zm0,14.263a5.06,5.06,0,1,1-5.05,5.05A5.057,5.057,0,0,1,223.268,316.19Zm0,14.281a4.711,4.711,0,1,1-4.706,4.724A4.709,4.709,0,0,1,223.268,330.471Zm0,14.373a4.288,4.288,0,1,1-4.28,4.269A4.291,4.291,0,0,1,223.268,344.844Zm0,14.353a3.861,3.861,0,1,1-3.863,3.87A3.876,3.876,0,0,1,223.268,359.2Zm0,14.408a3.4,3.4,0,1,1-3.391,3.4A3.392,3.392,0,0,1,223.268,373.605Zm0,14.427a2.9,2.9,0,1,1-2.892,2.908A2.906,2.906,0,0,1,223.268,388.032Zm0,14.446a2.4,2.4,0,1,1-2.385,2.4A2.4,2.4,0,0,1,223.268,402.478Zm0,14.572a1.771,1.771,0,1,1-1.777,1.762A1.766,1.766,0,0,1,223.268,417.05Zm0,14.517a1.19,1.19,0,1,1-1.2,1.2A1.192,1.192,0,0,1,223.268,431.567Zm0,14.591a.536.536,0,1,1,0,1.072.536.536,0,0,1,0-1.072Zm13.92-214.921a6.377,6.377,0,1,1-6.375,6.368A6.364,6.364,0,0,1,237.188,231.237Zm0,14.055a6.259,6.259,0,1,1-6.249,6.268A6.255,6.255,0,0,1,237.188,245.292Zm0,14.1a6.1,6.1,0,1,1-6.1,6.105A6.092,6.092,0,0,1,237.188,259.391Zm0,14.118a5.914,5.914,0,1,1-5.913,5.923A5.917,5.917,0,0,1,237.188,273.509Zm0,14.218a5.646,5.646,0,1,1-5.641,5.641A5.648,5.648,0,0,1,237.188,287.727Zm0,14.254a5.333,5.333,0,1,1-5.333,5.324A5.32,5.32,0,0,1,237.188,301.98Zm0,14.21a5.06,5.06,0,1,1-5.061,5.05A5.041,5.041,0,0,1,237.188,316.19Zm0,14.317a4.679,4.679,0,1,1-4.679,4.688A4.679,4.679,0,0,1,237.188,330.507Zm0,14.337a4.288,4.288,0,1,1-4.29,4.269A4.288,4.288,0,0,1,237.188,344.844Zm0,14.39a3.83,3.83,0,1,1-3.827,3.834A3.829,3.829,0,0,1,237.188,359.234Zm0,14.4a3.366,3.366,0,1,1-3.356,3.37A3.363,3.363,0,0,1,237.188,373.634Zm0,14.454a2.857,2.857,0,1,1-2.865,2.852A2.849,2.849,0,0,1,237.188,388.087Zm0,14.472a2.321,2.321,0,1,1-2.321,2.317A2.325,2.325,0,0,1,237.188,402.56Zm0,14.49a1.771,1.771,0,1,1-1.777,1.762A1.759,1.759,0,0,1,237.188,417.05Zm0,14.517a1.19,1.19,0,1,1-1.206,1.2A1.189,1.189,0,0,1,237.188,431.567Zm0,14.591a.536.536,0,0,1,0,1.072.536.536,0,1,1,0-1.072ZM251.1,231.35a6.271,6.271,0,1,1-6.258,6.255A6.256,6.256,0,0,1,251.1,231.35Zm0,14.014a6.191,6.191,0,1,1-6.175,6.2A6.19,6.19,0,0,1,251.1,245.364Zm0,14.1a6.023,6.023,0,1,1-6.03,6.033A6.011,6.011,0,0,1,251.1,259.463Zm0,14.128a5.837,5.837,0,1,1-5.831,5.841A5.842,5.842,0,0,1,251.1,273.591Zm0,14.218a5.569,5.569,0,1,1-5.558,5.559A5.56,5.56,0,0,1,251.1,287.809Zm0,14.2a5.3,5.3,0,1,1-5.286,5.3A5.283,5.283,0,0,1,251.1,302.009Zm0,14.29a4.951,4.951,0,1,1-4.942,4.942A4.937,4.937,0,0,1,251.1,316.3Zm0,14.281a4.606,4.606,0,1,1-4.588,4.615A4.595,4.595,0,0,1,251.1,330.58Zm0,14.337a4.215,4.215,0,1,1-4.207,4.2A4.2,4.2,0,0,1,251.1,344.916Zm0,14.354a3.789,3.789,0,1,1-3.781,3.8A3.772,3.772,0,0,1,251.1,359.27Zm0,14.445A3.289,3.289,0,1,1,247.816,377,3.278,3.278,0,0,1,251.1,373.715Zm0,14.445a2.78,2.78,0,1,1-2.775,2.78A2.772,2.772,0,0,1,251.1,388.16Zm0,14.445a2.271,2.271,0,1,1-2.286,2.272A2.27,2.27,0,0,1,251.1,402.6Zm0,14.518a1.692,1.692,0,0,1,1.7,1.689,1.7,1.7,0,1,1-3.391,0A1.687,1.687,0,0,1,251.1,417.123Zm0,14.553a1.081,1.081,0,1,1-1.079,1.09A1.091,1.091,0,0,1,251.1,431.676Zm0,14.554a.462.462,0,0,1,.453.463.458.458,0,1,1-.916,0A.465.465,0,0,1,251.1,446.23ZM265.01,231.519a6.1,6.1,0,1,1-6.1,6.087A6.085,6.085,0,0,1,265.01,231.519Zm0,13.991a6.041,6.041,0,1,1-6.023,6.05A6.031,6.031,0,0,1,265.01,245.509Zm0,14.109a5.873,5.873,0,1,1-5.868,5.878A5.871,5.871,0,0,1,265.01,259.618Zm0,14.091a5.728,5.728,0,1,1-5.7,5.723A5.718,5.718,0,0,1,265.01,273.709Zm0,14.208a5.451,5.451,0,1,1-5.442,5.451A5.45,5.45,0,0,1,265.01,287.917Zm0,14.21a5.183,5.183,0,1,1-5.169,5.178A5.177,5.177,0,0,1,265.01,302.127Zm0,14.3a4.833,4.833,0,1,1-4.825,4.814A4.822,4.822,0,0,1,265.01,316.426Zm0,14.281a4.479,4.479,0,1,1-4.48,4.488A4.481,4.481,0,0,1,265.01,330.707Zm0,14.364a4.061,4.061,0,1,1-4.063,4.042A4.046,4.046,0,0,1,265.01,345.071Zm0,14.327a3.674,3.674,0,1,1-3.673,3.67A3.674,3.674,0,0,1,265.01,359.4Zm0,14.444A3.162,3.162,0,1,1,261.836,377,3.164,3.164,0,0,1,265.01,373.842Zm0,14.391a2.707,2.707,0,1,1-2.7,2.707A2.7,2.7,0,0,1,265.01,388.232Zm0,14.5a2.162,2.162,0,1,1-2.159,2.145A2.156,2.156,0,0,1,265.01,402.732Zm0,14.463a1.626,1.626,0,1,1-1.624,1.617A1.614,1.614,0,0,1,265.01,417.2Zm0,14.554a1.006,1.006,0,0,1,1,1.018,1,1,0,0,1-2,0A1.013,1.013,0,0,1,265.01,431.749Zm0,14.563a.386.386,0,1,1-.381.382A.378.378,0,0,1,265.01,446.312ZM278.92,231.7a5.921,5.921,0,1,1-5.9,5.909A5.9,5.9,0,0,1,278.92,231.7Zm0,14.022a5.837,5.837,0,1,1-5.83,5.841A5.837,5.837,0,0,1,278.92,245.718Zm0,14.045a5.728,5.728,0,1,1-5.7,5.733A5.726,5.726,0,0,1,278.92,259.763Zm0,14.182a5.487,5.487,0,1,1-5.476,5.487A5.477,5.477,0,0,1,278.92,273.945Zm0,14.163a5.256,5.256,0,1,1-5.242,5.26A5.251,5.251,0,0,1,278.92,288.108Zm0,14.217a4.983,4.983,0,1,1-4.978,4.979A4.979,4.979,0,0,1,278.92,302.326Zm0,14.245a4.674,4.674,0,1,1-4.67,4.669A4.671,4.671,0,0,1,278.92,316.571Zm0,14.318a4.288,4.288,0,1,1-4.28,4.306A4.3,4.3,0,0,1,278.92,330.889Zm0,14.3a3.938,3.938,0,1,1-3.935,3.924A3.931,3.931,0,0,1,278.92,345.189Zm0,14.354a3.516,3.516,0,1,1-3.509,3.525A3.512,3.512,0,0,1,278.92,359.542Zm0,14.418A3.048,3.048,0,1,1,275.863,377,3.043,3.043,0,0,1,278.92,373.96Zm0,14.427a2.558,2.558,0,1,1-2.538,2.553A2.547,2.547,0,0,1,278.92,388.387Zm0,14.49a1.994,1.994,0,0,1,2,2,2.009,2.009,0,1,1-2-2Zm0,14.473a1.467,1.467,0,1,1-1.469,1.462A1.468,1.468,0,0,1,278.92,417.35Zm0,14.562a.845.845,0,1,1,0,1.691.845.845,0,0,1,0-1.691Zm0,14.518a.271.271,0,0,1,.272.263.272.272,0,0,1-.544,0A.27.27,0,0,1,278.92,446.431ZM292.83,231.964a5.651,5.651,0,1,1-5.631,5.641A5.638,5.638,0,0,1,292.83,231.964Zm0,14.027a5.565,5.565,0,1,1-5.549,5.569A5.567,5.567,0,0,1,292.83,245.991Zm0,14.054A5.451,5.451,0,1,1,287.4,265.5,5.438,5.438,0,0,1,292.83,260.045Zm0,14.135a5.252,5.252,0,1,1-5.25,5.252A5.246,5.246,0,0,1,292.83,274.181Zm0,14.173a5.024,5.024,0,1,1-5.014,5.014A5.007,5.007,0,0,1,292.83,288.354Zm0,14.191a4.76,4.76,0,1,1-4.743,4.76A4.76,4.76,0,0,1,292.83,302.544Zm0,14.263a4.442,4.442,0,1,1-4.434,4.433A4.437,4.437,0,0,1,292.83,316.808Zm0,14.29a4.1,4.1,0,1,1-4.08,4.1A4.091,4.091,0,0,1,292.83,331.1Zm0,14.309a3.716,3.716,0,1,1-3.7,3.706A3.709,3.709,0,0,1,292.83,345.407Zm0,14.372a3.289,3.289,0,1,1-3.273,3.289A3.285,3.285,0,0,1,292.83,359.779Zm0,14.408A2.817,2.817,0,1,1,290.019,377,2.808,2.808,0,0,1,292.83,374.187Zm0,14.446a2.308,2.308,0,1,1-2.312,2.307A2.318,2.318,0,0,1,292.83,388.632Zm0,14.445a1.807,1.807,0,0,1,1.822,1.8,1.817,1.817,0,1,1-3.635,0A1.806,1.806,0,0,1,292.83,403.077Zm0,14.463a1.281,1.281,0,1,1-1.27,1.272A1.276,1.276,0,0,1,292.83,417.54Zm0,14.527a.7.7,0,1,1-.689.7A.687.687,0,0,1,292.83,432.067Zm.081,14.627a.077.077,0,1,1-.154,0c0-.027.036-.082.073-.082A.1.1,0,0,1,292.911,446.694Zm13.84-214.413a5.333,5.333,0,1,1-5.332,5.324A5.341,5.341,0,0,1,306.75,232.281Zm0,13.983a5.292,5.292,0,1,1-5.3,5.3A5.3,5.3,0,0,1,306.75,246.264Zm0,14.036a5.187,5.187,0,1,1-5.169,5.2A5.181,5.181,0,0,1,306.75,260.3Zm0,14.154a4.979,4.979,0,1,1-4.979,4.979A4.97,4.97,0,0,1,306.75,274.454Zm0,14.154a4.761,4.761,0,1,1-4.743,4.76A4.752,4.752,0,0,1,306.75,288.608Zm0,14.218a4.483,4.483,0,1,1-4.481,4.479A4.486,4.486,0,0,1,306.75,302.826Zm0,14.2a4.225,4.225,0,1,1-4.208,4.215A4.226,4.226,0,0,1,306.75,317.025Zm0,14.336a3.83,3.83,0,1,1-3.819,3.834A3.838,3.838,0,0,1,306.75,331.361Zm0,14.282a3.479,3.479,0,1,1-3.474,3.47A3.481,3.481,0,0,1,306.75,345.643Zm0,14.372a3.053,3.053,0,1,1-3.047,3.052A3.036,3.036,0,0,1,306.75,360.015Zm0,14.39a2.594,2.594,0,1,1-2.593,2.6A2.593,2.593,0,0,1,306.75,374.405Zm0,14.408a2.13,2.13,0,1,1-2.133,2.126A2.122,2.122,0,0,1,306.75,388.814Zm0,14.482a1.581,1.581,0,1,1-1.587,1.581A1.58,1.58,0,0,1,306.75,403.3Zm0,14.481a1.036,1.036,0,1,1,0,2.071,1.036,1.036,0,1,1,0-2.071Zm0,14.517a.464.464,0,1,1-.472.473A.469.469,0,0,1,306.75,432.294Zm13.91-185.685a4.947,4.947,0,1,1-4.942,4.951A4.941,4.941,0,0,1,320.66,246.609Zm0,14.054a4.833,4.833,0,1,1-4.824,4.834A4.827,4.827,0,0,1,320.66,260.662Zm0,14.1a4.679,4.679,0,1,1-4.67,4.67A4.665,4.665,0,0,1,320.66,274.762Zm0,14.154a4.452,4.452,0,1,1-4.435,4.451A4.455,4.455,0,0,1,320.66,288.917Zm0,14.181a4.211,4.211,0,1,1-4.2,4.207A4.213,4.213,0,0,1,320.66,303.1Zm0,14.245a3.9,3.9,0,1,1-3.89,3.9A3.9,3.9,0,0,1,320.66,317.343Zm0,14.29a3.562,3.562,0,1,1-3.545,3.561A3.558,3.558,0,0,1,320.66,331.633Zm0,14.327a3.166,3.166,0,1,1-3.164,3.152A3.16,3.16,0,0,1,320.66,345.961Zm0,14.327a2.78,2.78,0,1,1-2.774,2.78A2.779,2.779,0,0,1,320.66,360.288Zm0,14.39A2.326,2.326,0,1,1,318.339,377,2.334,2.334,0,0,1,320.66,374.678Zm0,14.408a1.858,1.858,0,1,1-1.859,1.854A1.85,1.85,0,0,1,320.66,389.086Zm0,14.445a1.35,1.35,0,1,1-1.351,1.345A1.343,1.343,0,0,1,320.66,403.531Zm0,14.518a.772.772,0,1,1-.771.763A.769.769,0,0,1,320.66,418.049Zm.236,14.717a.238.238,0,0,1-.236.219.229.229,0,0,1-.226-.219.222.222,0,0,1,.226-.237A.229.229,0,0,1,320.9,432.766Zm13.675-199.83a4.679,4.679,0,1,1-4.662,4.669A4.677,4.677,0,0,1,334.572,232.936Zm0,14.027a4.6,4.6,0,1,1-4.589,4.6A4.586,4.586,0,0,1,334.572,246.964Zm0,14.044A4.488,4.488,0,1,1,330.1,265.5,4.488,4.488,0,0,1,334.572,261.008Zm0,14.155a4.279,4.279,0,1,1-4.281,4.27A4.271,4.271,0,0,1,334.572,275.162Zm0,14.118a4.1,4.1,0,1,1-4.091,4.088A4.089,4.089,0,0,1,334.572,289.28Zm0,14.191a3.829,3.829,0,1,1-3.819,3.834A3.829,3.829,0,0,1,334.572,303.471Zm0,14.227a3.552,3.552,0,1,1-3.546,3.542A3.543,3.543,0,0,1,334.572,317.7Zm0,14.244a3.244,3.244,0,1,1-3.238,3.252A3.244,3.244,0,0,1,334.572,331.942Zm0,14.318a2.862,2.862,0,1,1-2.848,2.852A2.863,2.863,0,0,1,334.572,346.26Zm0,14.372a2.435,2.435,0,1,1-2.431,2.434A2.44,2.44,0,0,1,334.572,360.633Zm0,14.364a2,2,0,1,1-2,2.007A2.007,2.007,0,0,1,334.572,375Zm0,14.4a1.544,1.544,0,1,1,0,3.088,1.544,1.544,0,0,1,0-3.088Zm0,14.482a1,1,0,1,1-1.007,1A1,1,0,0,1,334.572,403.877Zm0,14.481a.458.458,0,0,1,.463.454.468.468,0,0,1-.463.473.461.461,0,0,1-.455-.473A.45.45,0,0,1,334.572,418.358Zm13.92-171.023a4.22,4.22,0,1,1-4.208,4.225A4.207,4.207,0,0,1,348.491,247.335Zm0,14.1a4.061,4.061,0,1,1-4.053,4.062A4.043,4.043,0,0,1,348.491,261.435Zm0,14.063a3.938,3.938,0,1,1-3.936,3.935A3.927,3.927,0,0,1,348.491,275.5Zm0,14.146a3.716,3.716,0,1,1-3.7,3.724A3.708,3.708,0,0,1,348.491,289.644Zm0,14.181a3.479,3.479,0,1,1-3.473,3.479A3.469,3.469,0,0,1,348.491,303.825Zm0,14.244a3.175,3.175,0,1,1-3.174,3.17A3.169,3.169,0,0,1,348.491,318.07Zm0,14.263a2.857,2.857,0,1,1-2.866,2.862A2.859,2.859,0,0,1,348.491,332.333Zm0,14.327a2.471,2.471,0,1,1-2.466,2.452A2.467,2.467,0,0,1,348.491,346.66Zm0,14.317a2.089,2.089,0,1,1-2.086,2.09A2.092,2.092,0,0,1,348.491,360.978Zm0,14.372a1.654,1.654,0,0,1,0,3.307,1.654,1.654,0,1,1,0-3.307Zm0,14.39a1.2,1.2,0,1,1-1.2,1.2A1.2,1.2,0,0,1,348.491,389.74Zm0,14.446a.689.689,0,0,1,.689.69.7.7,0,0,1-.689.708.716.716,0,0,1-.709-.708A.7.7,0,0,1,348.491,404.186Zm.118,14.626a.118.118,0,1,1-.236,0,.118.118,0,0,1,.236,0Zm13.784-185.021a3.824,3.824,0,1,1-3.818,3.815A3.827,3.827,0,0,1,362.393,233.791Zm0,13.99a3.779,3.779,0,1,1-3.782,3.779A3.774,3.774,0,0,1,362.393,247.781Zm0,14.045a3.671,3.671,0,1,1-3.655,3.671A3.677,3.677,0,0,1,362.393,261.826Zm0,14.1a3.516,3.516,0,1,1-3.51,3.507A3.5,3.5,0,0,1,362.393,275.925Zm0,14.173a3.28,3.28,0,1,1-3.275,3.27A3.283,3.283,0,0,1,362.393,290.1Zm0,14.172a3.043,3.043,0,1,1-3.038,3.035A3.032,3.032,0,0,1,362.393,304.27Zm0,14.191a2.784,2.784,0,1,1-2.775,2.78A2.765,2.765,0,0,1,362.393,318.461Zm0,14.29a2.44,2.44,0,1,1-2.431,2.444A2.449,2.449,0,0,1,362.393,332.751Zm0,14.273a2.089,2.089,0,1,1-2.086,2.089A2.088,2.088,0,0,1,362.393,347.024Zm0,14.336a1.7,1.7,0,1,1-1.687,1.708A1.692,1.692,0,0,1,362.393,361.359Zm0,14.373A1.276,1.276,0,1,1,361.131,377,1.265,1.265,0,0,1,362.393,375.732Zm0,14.39a.818.818,0,1,1-.808.818A.815.815,0,0,1,362.393,390.122Zm0,14.446a.314.314,0,0,1,.317.309.322.322,0,0,1-.317.318.313.313,0,0,1-.3-.318A.3.3,0,0,1,362.393,404.568Zm13.919-170.323a3.37,3.37,0,1,1-3.355,3.361A3.374,3.374,0,0,1,376.312,234.244Zm0,14.027a3.28,3.28,0,1,1-3.282,3.289A3.285,3.285,0,0,1,376.312,248.271Zm0,14.054a3.166,3.166,0,1,1-3.165,3.171A3.171,3.171,0,0,1,376.312,262.325Zm0,14.046a3.057,3.057,0,1,1-3.046,3.062A3.064,3.064,0,0,1,376.312,276.371Zm0,14.172a2.821,2.821,0,1,1-2.82,2.825A2.831,2.831,0,0,1,376.312,290.543Zm0,14.182a2.589,2.589,0,1,1-2.585,2.579A2.589,2.589,0,0,1,376.312,304.725Zm0,14.208A2.316,2.316,0,1,1,374,321.24,2.3,2.3,0,0,1,376.312,318.933Zm0,14.244a2.013,2.013,0,1,1-2,2.017A2.009,2.009,0,0,1,376.312,333.178Zm0,14.282a1.662,1.662,0,1,1-1.659,1.653A1.657,1.657,0,0,1,376.312,347.46Zm0,14.345a1.255,1.255,0,0,1,1.269,1.263,1.274,1.274,0,1,1-1.269-1.263Zm0,14.345a.854.854,0,0,1,0,1.708.854.854,0,0,1,0-1.708Zm0,14.4a.4.4,0,0,1,.39.391.393.393,0,0,1-.39.39.379.379,0,0,1-.38-.39A.385.385,0,0,1,376.312,390.549Zm13.919-155.805a2.871,2.871,0,1,1-2.856,2.862A2.868,2.868,0,0,1,390.231,234.744Zm0,14.036a2.78,2.78,0,1,1-2.784,2.78A2.777,2.777,0,0,1,390.231,248.78Zm0,14.018a2.7,2.7,0,1,1-2.7,2.7A2.7,2.7,0,0,1,390.231,262.8Zm0,14.091a2.537,2.537,0,0,1,2.539,2.544,2.548,2.548,0,1,1-2.539-2.544Zm0,14.162a2.317,2.317,0,1,1-2.322,2.317A2.319,2.319,0,0,1,390.231,291.051Zm0,14.137A2.121,2.121,0,1,1,388.1,307.3,2.124,2.124,0,0,1,390.231,305.188Zm0,14.2a1.863,1.863,0,1,1-1.859,1.853A1.859,1.859,0,0,1,390.231,319.387Zm0,14.246a1.553,1.553,0,1,1-1.55,1.562A1.544,1.544,0,0,1,390.231,333.633Zm0,14.3a1.19,1.19,0,0,1,0,2.38,1.19,1.19,0,1,1,0-2.38Zm0,14.317a.811.811,0,0,1,.806.818.806.806,0,1,1-1.612,0A.806.806,0,0,1,390.231,362.249Zm0,14.364a.385.385,0,0,1,.381.391.385.385,0,0,1-.771,0A.387.387,0,0,1,390.231,376.613ZM404.143,235.3a2.316,2.316,0,1,1-2.322,2.307A2.322,2.322,0,0,1,404.143,235.3Zm0,13.972a2.28,2.28,0,1,1-2.285,2.289A2.288,2.288,0,0,1,404.143,249.27Zm0,14.063a2.162,2.162,0,1,1-2.159,2.163A2.166,2.166,0,0,1,404.143,263.333Zm0,14.082a2.012,2.012,0,1,1-2.013,2.017A2.015,2.015,0,0,1,404.143,277.415Zm0,14.145a1.813,1.813,0,1,1-1.814,1.808A1.8,1.8,0,0,1,404.143,291.56Zm0,14.164a1.581,1.581,0,1,1-1.587,1.581A1.58,1.58,0,0,1,404.143,305.724Zm0,14.172a1.335,1.335,0,0,1,1.342,1.344,1.347,1.347,0,1,1-1.342-1.344Zm0,14.282a1.008,1.008,0,1,1-1.006,1.017A1.011,1.011,0,0,1,404.143,334.178Zm0,14.254a.695.695,0,0,1,0,1.39.695.695,0,1,1,0-1.39Zm0,14.308a.329.329,0,0,1,.309.327.312.312,0,0,1-.309.309.306.306,0,0,1-.309-.309A.322.322,0,0,1,404.143,362.74Zm13.91-112.88a1.694,1.694,0,0,1,1.7,1.7,1.7,1.7,0,1,1-3.4,0A1.7,1.7,0,0,1,418.052,249.861Zm0,14a1.635,1.635,0,1,1-1.622,1.635A1.626,1.626,0,0,1,418.052,263.861Zm0,14.1a1.468,1.468,0,0,1,1.461,1.472,1.465,1.465,0,0,1-2.929,0A1.476,1.476,0,0,1,418.052,277.96Zm0,14.136a1.272,1.272,0,1,1-1.269,1.272A1.269,1.269,0,0,1,418.052,292.1Zm0,14.173a1.035,1.035,0,1,1-1.042,1.035A1.028,1.028,0,0,1,418.052,306.269Zm0,14.208a.772.772,0,0,1,0,1.544.772.772,0,0,1,0-1.544Zm0,14.245a.467.467,0,0,1,.463.472.458.458,0,0,1-.463.455.451.451,0,0,1-.462-.455A.46.46,0,0,1,418.052,334.723Zm.119,14.39a.123.123,0,0,1-.119.128c-.072,0-.108-.055-.108-.128,0-.054.036-.09.108-.09S418.171,349.059,418.171,349.113Zm13.792-98.643a1.09,1.09,0,1,1-1.079,1.09A1.093,1.093,0,0,1,431.963,250.469Zm0,14.009a1.009,1.009,0,1,1-1,1.018A1.007,1.007,0,0,1,431.963,264.479Zm0,14.1a.849.849,0,1,1,0,1.7.849.849,0,0,1,0-1.7Zm0,14.1a.685.685,0,0,1,.69.69.694.694,0,1,1-.69-.69Zm0,14.173a.471.471,0,0,1,.472.454.467.467,0,1,1-.934,0A.469.469,0,0,1,431.963,306.851Zm.235,14.389a.231.231,0,0,1-.462,0,.231.231,0,0,1,.462,0Zm13.685-84.161a.536.536,0,1,1-.544.527A.535.535,0,0,1,445.884,237.079Zm0,14.008a.468.468,0,0,1,.462.473.467.467,0,1,1-.462-.473Zm0,14.009a.408.408,0,0,1,.389.4.386.386,0,0,1-.389.382.374.374,0,0,1-.39-.382A.4.4,0,0,1,445.884,265.1Zm.262,14.336a.278.278,0,0,1-.262.272.274.274,0,0,1-.273-.272.268.268,0,0,1,.273-.273A.272.272,0,0,1,446.145,279.432Zm-.189,13.936a.071.071,0,0,1-.072.073c-.055,0-.082-.018-.082-.073a.074.074,0,0,1,.082-.073A.086.086,0,0,1,445.956,293.368Z" transform="translate(1010.528 -150.995)" fill="#fff" fill-rule="evenodd" opacity="0.19"/>
      <g id="Grupo_154296" data-name="Grupo 154296" transform="translate(599.101 234.088)" opacity="0.09">
        <path id="Trazado_174290" data-name="Trazado 174290" d="M59.688,318.107-111.288,507.625a13.927,13.927,0,0,1-21.126,0h0a17.854,17.854,0,0,1,0-23.417L38.562,294.69a13.928,13.928,0,0,1,21.126,0h0A17.854,17.854,0,0,1,59.688,318.107Z" transform="translate(136.79 -289.84)" fill="none" stroke="#8f9294" stroke-miterlimit="10" stroke-width="2"/>
        <path id="Trazado_174291" data-name="Trazado 174291" d="M57.955,409.738l-130.5,144.657a10.631,10.631,0,0,1-16.125,0h0a13.627,13.627,0,0,1,0-17.875l130.5-144.657a10.632,10.632,0,0,1,16.126,0h0A13.629,13.629,0,0,1,57.955,409.738Z" transform="translate(128.113 -300.296)" fill="none" stroke="#8f9294" stroke-miterlimit="10" stroke-width="2"/>
      </g>
    </g>
  </g>
</svg>
