<svg xmlns="http://www.w3.org/2000/svg" xmlns:xlink="http://www.w3.org/1999/xlink" width="715" height="436" viewBox="0 0 715 436">
  <defs>
    <linearGradient id="linear-gradient" x1="0.5" x2="0.5" y2="1" gradientUnits="objectBoundingBox">
      <stop offset="0" stop-color="#fff"/>
      <stop offset="1" stop-color="#d2e6ee"/>
    </linearGradient>
    <linearGradient id="linear-gradient-10" x1="0.5" x2="0.5" y2="1" gradientUnits="objectBoundingBox">
      <stop offset="0" stop-color="#039be5"/>
      <stop offset="1" stop-color="#027fbc"/>
    </linearGradient>
  </defs>
  <g id="Grupo_1071916" data-name="Grupo 1071916" transform="translate(-443 -1642)">
    <g id="Trazado_777397" data-name="Trazado 777397" transform="translate(496 1642)" fill="url(#linear-gradient)">
      <path d="M 154 53 L 10 53 C 5.588782787322998 53 2 49.41121673583984 2 45 L 2 10 C 2 5.588782787322998 5.588782787322998 2 10 2 L 154 2 C 158.4112243652344 2 162 5.588782787322998 162 10 L 162 45 C 162 49.41121673583984 158.4112243652344 53 154 53 Z" stroke="none"/>
      <path d="M 10 4 C 6.69158935546875 4 4 6.691596984863281 4 10 L 4 45 C 4 48.30840301513672 6.69158935546875 51 10 51 L 154 51 C 157.3084106445312 51 160 48.30840301513672 160 45 L 160 10 C 160 6.691596984863281 157.3084106445312 4 154 4 L 10 4 M 10 0 L 154 0 C 159.5228271484375 0 164 4.477142333984375 164 10 L 164 45 C 164 50.52285766601562 159.5228271484375 55 154 55 L 10 55 C 4.477142333984375 55 0 50.52285766601562 0 45 L 0 10 C 0 4.477142333984375 4.477142333984375 0 10 0 Z" stroke="none" fill="#12263f"/>
    </g>
    <g id="Trazado_777398" data-name="Trazado 777398" transform="translate(443 1889)" fill="url(#linear-gradient)">
      <path d="M 153 53 L 10 53 C 5.588782787322998 53 2 49.41121673583984 2 45 L 2 10 C 2 5.588782787322998 5.588782787322998 2 10 2 L 153 2 C 157.4112243652344 2 161 5.588782787322998 161 10 L 161 45 C 161 49.41121673583984 157.4112243652344 53 153 53 Z" stroke="none"/>
      <path d="M 10 4 C 6.69158935546875 4 4 6.691596984863281 4 10 L 4 45 C 4 48.30840301513672 6.69158935546875 51 10 51 L 153 51 C 156.3084106445312 51 159 48.30840301513672 159 45 L 159 10 C 159 6.691596984863281 156.3084106445312 4 153 4 L 10 4 M 10 0 L 153 0 C 158.5228271484375 0 163 4.477142333984375 163 10 L 163 45 C 163 50.52285766601562 158.5228271484375 55 153 55 L 10 55 C 4.477142333984375 55 0 50.52285766601562 0 45 L 0 10 C 0 4.477142333984375 4.477142333984375 0 10 0 Z" stroke="none" fill="#12263f"/>
    </g>
    <g id="Trazado_777399" data-name="Trazado 777399" transform="translate(623 1889)" fill="url(#linear-gradient)">
      <path d="M 154 53 L 10 53 C 5.588782787322998 53 2 49.41121673583984 2 45 L 2 10 C 2 5.588782787322998 5.588782787322998 2 10 2 L 154 2 C 158.4112243652344 2 162 5.588782787322998 162 10 L 162 45 C 162 49.41121673583984 158.4112243652344 53 154 53 Z" stroke="none"/>
      <path d="M 10 4 C 6.69158935546875 4 4 6.691596984863281 4 10 L 4 45 C 4 48.30840301513672 6.69158935546875 51 10 51 L 154 51 C 157.3084106445312 51 160 48.30840301513672 160 45 L 160 10 C 160 6.691596984863281 157.3084106445312 4 154 4 L 10 4 M 10 0 L 154 0 C 159.5228271484375 0 164 4.477142333984375 164 10 L 164 45 C 164 50.52285766601562 159.5228271484375 55 154 55 L 10 55 C 4.477142333984375 55 0 50.52285766601562 0 45 L 0 10 C 0 4.477142333984375 4.477142333984375 0 10 0 Z" stroke="none" fill="#12263f"/>
    </g>
    <g id="Trazado_777400" data-name="Trazado 777400" transform="translate(623 2023)" fill="url(#linear-gradient)">
      <path d="M 154 53 L 10 53 C 5.588782787322998 53 2 49.41121673583984 2 45 L 2 10 C 2 5.588782787322998 5.588782787322998 2 10 2 L 154 2 C 158.4112243652344 2 162 5.588782787322998 162 10 L 162 45 C 162 49.41121673583984 158.4112243652344 53 154 53 Z" stroke="none"/>
      <path d="M 10 4 C 6.69158935546875 4 4 6.691596984863281 4 10 L 4 45 C 4 48.30840301513672 6.69158935546875 51 10 51 L 154 51 C 157.3084106445312 51 160 48.30840301513672 160 45 L 160 10 C 160 6.691596984863281 157.3084106445312 4 154 4 L 10 4 M 10 0 L 154 0 C 159.5228271484375 0 164 4.477142333984375 164 10 L 164 45 C 164 50.52285766601562 159.5228271484375 55 154 55 L 10 55 C 4.477142333984375 55 0 50.52285766601562 0 45 L 0 10 C 0 4.477142333984375 4.477142333984375 0 10 0 Z" stroke="none" fill="#12263f"/>
    </g>
    <g id="Trazado_777401" data-name="Trazado 777401" transform="translate(995 2023)" fill="url(#linear-gradient)">
      <path d="M 153 53 L 10 53 C 5.588782787322998 53 2 49.41121673583984 2 45 L 2 10 C 2 5.588782787322998 5.588782787322998 2 10 2 L 153 2 C 157.4112243652344 2 161 5.588782787322998 161 10 L 161 45 C 161 49.41121673583984 157.4112243652344 53 153 53 Z" stroke="none"/>
      <path d="M 10 4 C 6.69158935546875 4 4 6.691596984863281 4 10 L 4 45 C 4 48.30840301513672 6.69158935546875 51 10 51 L 153 51 C 156.3084106445312 51 159 48.30840301513672 159 45 L 159 10 C 159 6.691596984863281 156.3084106445312 4 153 4 L 10 4 M 10 0 L 153 0 C 158.5228271484375 0 163 4.477142333984375 163 10 L 163 45 C 163 50.52285766601562 158.5228271484375 55 153 55 L 10 55 C 4.477142333984375 55 0 50.52285766601562 0 45 L 0 10 C 0 4.477142333984375 4.477142333984375 0 10 0 Z" stroke="none" fill="#12263f"/>
    </g>
    <g id="Trazado_777402" data-name="Trazado 777402" transform="translate(807 1889)" fill="url(#linear-gradient)">
      <path d="M 154 53 L 10 53 C 5.588782787322998 53 2 49.41121673583984 2 45 L 2 10 C 2 5.588782787322998 5.588782787322998 2 10 2 L 154 2 C 158.4112243652344 2 162 5.588782787322998 162 10 L 162 45 C 162 49.41121673583984 158.4112243652344 53 154 53 Z" stroke="none"/>
      <path d="M 10 4 C 6.69158935546875 4 4 6.691596984863281 4 10 L 4 45 C 4 48.30840301513672 6.69158935546875 51 10 51 L 154 51 C 157.3084106445312 51 160 48.30840301513672 160 45 L 160 10 C 160 6.691596984863281 157.3084106445312 4 154 4 L 10 4 M 10 0 L 154 0 C 159.5228271484375 0 164 4.477142333984375 164 10 L 164 45 C 164 50.52285766601562 159.5228271484375 55 154 55 L 10 55 C 4.477142333984375 55 0 50.52285766601562 0 45 L 0 10 C 0 4.477142333984375 4.477142333984375 0 10 0 Z" stroke="none" fill="#12263f"/>
    </g>
    <g id="Trazado_777403" data-name="Trazado 777403" transform="translate(992 1889)" fill="url(#linear-gradient)">
      <path d="M 153 53 L 10 53 C 5.588782787322998 53 2 49.41121673583984 2 45 L 2 10 C 2 5.588782787322998 5.588782787322998 2 10 2 L 153 2 C 157.4112243652344 2 161 5.588782787322998 161 10 L 161 45 C 161 49.41121673583984 157.4112243652344 53 153 53 Z" stroke="none"/>
      <path d="M 10 4 C 6.69158935546875 4 4 6.691596984863281 4 10 L 4 45 C 4 48.30840301513672 6.69158935546875 51 10 51 L 153 51 C 156.3084106445312 51 159 48.30840301513672 159 45 L 159 10 C 159 6.691596984863281 156.3084106445312 4 153 4 L 10 4 M 10 0 L 153 0 C 158.5228271484375 0 163 4.477142333984375 163 10 L 163 45 C 163 50.52285766601562 158.5228271484375 55 153 55 L 10 55 C 4.477142333984375 55 0 50.52285766601562 0 45 L 0 10 C 0 4.477142333984375 4.477142333984375 0 10 0 Z" stroke="none" fill="#12263f"/>
    </g>
    <g id="Trazado_777404" data-name="Trazado 777404" transform="translate(703 1642)" fill="url(#linear-gradient)">
      <path d="M 153 53 L 10 53 C 5.588782787322998 53 2 49.41121673583984 2 45 L 2 10 C 2 5.588782787322998 5.588782787322998 2 10 2 L 153 2 C 157.4112243652344 2 161 5.588782787322998 161 10 L 161 45 C 161 49.41121673583984 157.4112243652344 53 153 53 Z" stroke="none"/>
      <path d="M 10 4 C 6.69158935546875 4 4 6.691596984863281 4 10 L 4 45 C 4 48.30840301513672 6.69158935546875 51 10 51 L 153 51 C 156.3084106445312 51 159 48.30840301513672 159 45 L 159 10 C 159 6.691596984863281 156.3084106445312 4 153 4 L 10 4 M 10 0 L 153 0 C 158.5228271484375 0 163 4.477142333984375 163 10 L 163 45 C 163 50.52285766601562 158.5228271484375 55 153 55 L 10 55 C 4.477142333984375 55 0 50.52285766601562 0 45 L 0 10 C 0 4.477142333984375 4.477142333984375 0 10 0 Z" stroke="none" fill="#12263f"/>
    </g>
    <g id="Trazado_777405" data-name="Trazado 777405" transform="translate(909 1642)" fill="url(#linear-gradient)">
      <path d="M 153 53 L 10 53 C 5.588782787322998 53 2 49.41121673583984 2 45 L 2 10 C 2 5.588782787322998 5.588782787322998 2 10 2 L 153 2 C 157.4112243652344 2 161 5.588782787322998 161 10 L 161 45 C 161 49.41121673583984 157.4112243652344 53 153 53 Z" stroke="none"/>
      <path d="M 10 4 C 6.69158935546875 4 4 6.691596984863281 4 10 L 4 45 C 4 48.30840301513672 6.69158935546875 51 10 51 L 153 51 C 156.3084106445312 51 159 48.30840301513672 159 45 L 159 10 C 159 6.691596984863281 156.3084106445312 4 153 4 L 10 4 M 10 0 L 153 0 C 158.5228271484375 0 163 4.477142333984375 163 10 L 163 45 C 163 50.52285766601562 158.5228271484375 55 153 55 L 10 55 C 4.477142333984375 55 0 50.52285766601562 0 45 L 0 10 C 0 4.477142333984375 4.477142333984375 0 10 0 Z" stroke="none" fill="#12263f"/>
    </g>
    <path id="Trazado_777406" data-name="Trazado 777406" d="M-30.535-3.023a1.127,1.127,0,0,0-.426-.937,5.292,5.292,0,0,0-1.5-.7,14.353,14.353,0,0,1-1.75-.7,3.314,3.314,0,0,1-2.211-2.984A2.676,2.676,0,0,1-35.867-10a3.562,3.562,0,0,1,1.559-1.125,6.065,6.065,0,0,1,2.266-.4,5.305,5.305,0,0,1,2.2.438,3.482,3.482,0,0,1,1.512,1.246A3.254,3.254,0,0,1-27.793-8h-2.734a1.375,1.375,0,0,0-.426-1.078,1.66,1.66,0,0,0-1.152-.383,1.872,1.872,0,0,0-1.16.324,1,1,0,0,0-.426.824,1,1,0,0,0,.469.793,5.911,5.911,0,0,0,1.648.734,10.1,10.1,0,0,1,1.938.816,3.256,3.256,0,0,1,1.844,2.93A2.778,2.778,0,0,1-28.918-.7,5,5,0,0,1-32,.156a6.122,6.122,0,0,1-2.5-.5A3.775,3.775,0,0,1-36.2-1.7a3.542,3.542,0,0,1-.566-1.988h2.75a1.744,1.744,0,0,0,.473,1.348A2.234,2.234,0,0,0-32-1.906,1.765,1.765,0,0,0-30.93-2.2.967.967,0,0,0-30.535-3.023Zm3.7-1.281a4.989,4.989,0,0,1,.492-2.254,3.52,3.52,0,0,1,1.414-1.52,4.259,4.259,0,0,1,2.164-.531,3.887,3.887,0,0,1,2.992,1.176,4.512,4.512,0,0,1,1.094,3.2v.094A4.378,4.378,0,0,1-19.781-1,3.9,3.9,0,0,1-22.754.156a3.942,3.942,0,0,1-2.9-1.082,4.232,4.232,0,0,1-1.18-2.934Zm2.633.164a3.145,3.145,0,0,0,.367,1.719,1.223,1.223,0,0,0,1.086.547q1.406,0,1.438-2.164V-4.3q0-2.273-1.453-2.273-1.32,0-1.43,1.961Zm14.531-.023a5.1,5.1,0,0,1-.887,3.145A2.843,2.843,0,0,1-12.957.156,2.437,2.437,0,0,1-14.871-.7V3.25H-17.5v-11.7h2.461l.078.781a2.437,2.437,0,0,1,1.992-.937,2.866,2.866,0,0,1,2.43,1.152,5.16,5.16,0,0,1,.867,3.168Zm-2.633-.164q0-2.25-1.312-2.25a1.239,1.239,0,0,0-1.25.672v3.328a1.279,1.279,0,0,0,1.266.7q1.258,0,1.3-2.172Zm3.461.023a4.989,4.989,0,0,1,.492-2.254,3.52,3.52,0,0,1,1.414-1.52,4.259,4.259,0,0,1,2.164-.531A3.887,3.887,0,0,1-1.785-7.434a4.512,4.512,0,0,1,1.094,3.2v.094A4.378,4.378,0,0,1-1.789-1,3.9,3.9,0,0,1-4.762.156,3.942,3.942,0,0,1-7.66-.926,4.232,4.232,0,0,1-8.84-3.859Zm2.633.164a3.145,3.145,0,0,0,.367,1.719,1.223,1.223,0,0,0,1.086.547q1.406,0,1.438-2.164V-4.3q0-2.273-1.453-2.273-1.32,0-1.43,1.961Zm11.8-1.93-.867-.062a1.558,1.558,0,0,0-1.594.781V0H.488V-8.453H2.957l.086,1.086A2.039,2.039,0,0,1,4.895-8.609a2.567,2.567,0,0,1,.734.094Zm4.406-4.484v2.1h1.391v1.828H9.988v3.867a.987.987,0,0,0,.172.664.922.922,0,0,0,.68.188,3.862,3.862,0,0,0,.656-.047V-.07a4.859,4.859,0,0,1-1.484.227A2.758,2.758,0,0,1,8-.484,2.626,2.626,0,0,1,7.355-2.43v-4.2H6.277V-8.453H7.355v-2.1ZM16.5.156A4.345,4.345,0,0,1,13.355-1a4.006,4.006,0,0,1-1.2-3.02v-.219a5.191,5.191,0,0,1,.48-2.289,3.516,3.516,0,0,1,1.4-1.535,4.233,4.233,0,0,1,2.188-.543A3.659,3.659,0,0,1,19.035-7.5a4.344,4.344,0,0,1,1.031,3.082V-3.4H14.832a1.9,1.9,0,0,0,.617,1.117,1.836,1.836,0,0,0,1.234.406,2.366,2.366,0,0,0,1.953-.875l1.2,1.422A3.363,3.363,0,0,1,18.445-.246,4.713,4.713,0,0,1,16.5.156Zm-.3-6.734q-1.156,0-1.375,1.531h2.656v-.2a1.3,1.3,0,0,0-.32-.98A1.275,1.275,0,0,0,16.207-6.578ZM29.871,0a2.973,2.973,0,0,1-.25-.758A2.448,2.448,0,0,1,27.59.156a3,3,0,0,1-2.031-.723,2.3,2.3,0,0,1-.836-1.816,2.364,2.364,0,0,1,1.016-2.078,5.174,5.174,0,0,1,2.953-.7H29.5v-.448q0-1.17-1.008-1.17a.824.824,0,0,0-.937.926H24.926a2.36,2.36,0,0,1,1.043-1.99,4.383,4.383,0,0,1,2.66-.765,3.843,3.843,0,0,1,2.555.789,2.743,2.743,0,0,1,.961,2.164v3.742A3.832,3.832,0,0,0,32.5-.133V0ZM28.223-1.719a1.469,1.469,0,0,0,.816-.211,1.322,1.322,0,0,0,.465-.477V-3.758h-.766q-1.375,0-1.375,1.234a.754.754,0,0,0,.242.582A.876.876,0,0,0,28.223-1.719ZM36.379,0H33.738V-12h2.641ZM-23.57,14.625a.608.608,0,0,0-.352-.539,5.348,5.348,0,0,0-1.336-.422,6.092,6.092,0,0,1-1.625-.574,2.722,2.722,0,0,1-.977-.863,2.061,2.061,0,0,1-.336-1.164,2.336,2.336,0,0,1,.961-1.918,3.958,3.958,0,0,1,2.516-.754,4.386,4.386,0,0,1,2.688.758,2.37,2.37,0,0,1,1.016,1.992h-2.641q0-1.016-1.07-1.016a1.061,1.061,0,0,0-.7.23.714.714,0,0,0-.281.574.655.655,0,0,0,.344.57,3.248,3.248,0,0,0,1.1.359,9.486,9.486,0,0,1,1.324.336,2.406,2.406,0,0,1,1.906,2.352,2.214,2.214,0,0,1-1.027,1.883,4.505,4.505,0,0,1-2.66.727,4.6,4.6,0,0,1-1.937-.391A3.24,3.24,0,0,1-27.984,15.7a2.406,2.406,0,0,1-.477-1.414H-26a1.017,1.017,0,0,0,.391.855,1.607,1.607,0,0,0,.961.27,1.264,1.264,0,0,0,.809-.219A.7.7,0,0,0-23.57,14.625Zm7.859,2.531A4.345,4.345,0,0,1-18.859,16a4.006,4.006,0,0,1-1.2-3.02v-.219a5.191,5.191,0,0,1,.48-2.289,3.516,3.516,0,0,1,1.4-1.535,4.233,4.233,0,0,1,2.188-.543A3.659,3.659,0,0,1-13.18,9.5a4.344,4.344,0,0,1,1.031,3.082V13.6h-5.234a1.9,1.9,0,0,0,.617,1.117,1.836,1.836,0,0,0,1.234.406,2.366,2.366,0,0,0,1.953-.875l1.2,1.422a3.363,3.363,0,0,1-1.395,1.082A4.713,4.713,0,0,1-15.711,17.156Zm-.3-6.734q-1.156,0-1.375,1.531h2.656v-.2a1.3,1.3,0,0,0-.32-.98A1.275,1.275,0,0,0-16.008,10.422Zm10.031.508-.867-.062a1.558,1.558,0,0,0-1.594.781V17H-11.07V8.547H-8.6l.086,1.086A2.039,2.039,0,0,1-6.664,8.391a2.567,2.567,0,0,1,.734.094Zm4.461,2.938L-.18,8.547H2.594L-.164,17H-2.852L-5.609,8.547h2.781ZM6.156,17H3.516V8.547H6.156ZM3.359,6.367a1.175,1.175,0,0,1,.406-.922A1.533,1.533,0,0,1,4.82,5.086a1.533,1.533,0,0,1,1.055.359,1.175,1.175,0,0,1,.406.922,1.175,1.175,0,0,1-.406.922,1.533,1.533,0,0,1-1.055.359,1.533,1.533,0,0,1-1.055-.359A1.175,1.175,0,0,1,3.359,6.367Zm7.992,8.758a1.171,1.171,0,0,0,.859-.3,1.1,1.1,0,0,0,.3-.84h2.469a2.922,2.922,0,0,1-1,2.281,3.705,3.705,0,0,1-2.566.891A3.751,3.751,0,0,1,8.508,16a4.556,4.556,0,0,1-1.062-3.2v-.109a5.149,5.149,0,0,1,.473-2.262A3.441,3.441,0,0,1,9.281,8.918a4.065,4.065,0,0,1,2.109-.527,3.658,3.658,0,0,1,2.617.914,3.242,3.242,0,0,1,.969,2.477H12.508a1.445,1.445,0,0,0-.32-1.008,1.106,1.106,0,0,0-.859-.352q-1.023,0-1.2,1.3a9.206,9.206,0,0,0-.055,1.141,3.616,3.616,0,0,0,.3,1.766A1.055,1.055,0,0,0,11.352,15.125ZM18.867,17H16.227V8.547h2.641ZM16.07,6.367a1.175,1.175,0,0,1,.406-.922,1.727,1.727,0,0,1,2.109,0,1.175,1.175,0,0,1,.406.922,1.175,1.175,0,0,1-.406.922,1.727,1.727,0,0,1-2.109,0A1.175,1.175,0,0,1,16.07,6.367ZM20.156,12.7a4.989,4.989,0,0,1,.492-2.254,3.52,3.52,0,0,1,1.414-1.52,4.259,4.259,0,0,1,2.164-.531,3.887,3.887,0,0,1,2.992,1.176,4.512,4.512,0,0,1,1.094,3.2v.094A4.378,4.378,0,0,1,27.215,16a3.9,3.9,0,0,1-2.973,1.16,3.942,3.942,0,0,1-2.9-1.082,4.232,4.232,0,0,1-1.18-2.934Zm2.633.164a3.145,3.145,0,0,0,.367,1.719,1.223,1.223,0,0,0,1.086.547q1.406,0,1.438-2.164V12.7q0-2.273-1.453-2.273-1.32,0-1.43,1.961Z" transform="translate(575.565 1665.898)" fill="#12263f"/>
    <path id="Trazado_777407" data-name="Trazado 777407" d="M-15.555-3.852a4.154,4.154,0,0,1-.641,2.1A3.866,3.866,0,0,1-17.84-.344a5.6,5.6,0,0,1-2.418.5A4.467,4.467,0,0,1-23.789-1.3,6.032,6.032,0,0,1-25.078-5.43v-.562A6.885,6.885,0,0,1-24.5-8.918a4.41,4.41,0,0,1,1.676-1.937,4.676,4.676,0,0,1,2.531-.684,4.9,4.9,0,0,1,3.328,1.09,4.306,4.306,0,0,1,1.43,3h-2.734a2.037,2.037,0,0,0-.523-1.492,2.153,2.153,0,0,0-1.5-.453,1.638,1.638,0,0,0-1.5.766,4.921,4.921,0,0,0-.5,2.445v.8a5.445,5.445,0,0,0,.457,2.6,1.672,1.672,0,0,0,1.574.781,2.106,2.106,0,0,0,1.445-.445,1.89,1.89,0,0,0,.531-1.414ZM-11.6,0h-2.641V-12H-11.6Zm4.4,0H-9.844V-8.453H-7.2ZM-10-10.633a1.175,1.175,0,0,1,.406-.922,1.533,1.533,0,0,1,1.055-.359,1.533,1.533,0,0,1,1.055.359,1.175,1.175,0,0,1,.406.922,1.175,1.175,0,0,1-.406.922,1.533,1.533,0,0,1-1.055.359,1.533,1.533,0,0,1-1.055-.359A1.175,1.175,0,0,1-10-10.633ZM-1.492.156A4.345,4.345,0,0,1-4.641-1a4.006,4.006,0,0,1-1.2-3.02v-.219a5.191,5.191,0,0,1,.48-2.289,3.516,3.516,0,0,1,1.4-1.535,4.233,4.233,0,0,1,2.188-.543A3.659,3.659,0,0,1,1.039-7.5,4.344,4.344,0,0,1,2.07-4.422V-3.4H-3.164a1.9,1.9,0,0,0,.617,1.117,1.836,1.836,0,0,0,1.234.406A2.366,2.366,0,0,0,.641-2.75l1.2,1.422A3.363,3.363,0,0,1,.449-.246,4.713,4.713,0,0,1-1.492.156Zm-.3-6.734q-1.156,0-1.375,1.531H-.508v-.2a1.3,1.3,0,0,0-.32-.98A1.275,1.275,0,0,0-1.789-6.578ZM5.547-8.453l.086.992A2.867,2.867,0,0,1,8.047-8.609a2.412,2.412,0,0,1,1.973.789A3.757,3.757,0,0,1,10.7-5.445V0H8.055V-5.336A1.426,1.426,0,0,0,7.8-6.277a1.193,1.193,0,0,0-.937-.3,1.256,1.256,0,0,0-1.148.609V0H3.078V-8.453Zm9.672-2.1v2.1h1.391v1.828H15.219v3.867a.987.987,0,0,0,.172.664.922.922,0,0,0,.68.188,3.862,3.862,0,0,0,.656-.047V-.07a4.859,4.859,0,0,1-1.484.227,2.758,2.758,0,0,1-2.008-.641,2.626,2.626,0,0,1-.648-1.945v-4.2H11.508V-8.453h1.078v-2.1ZM21.734.156A4.345,4.345,0,0,1,18.586-1a4.006,4.006,0,0,1-1.2-3.02v-.219a5.191,5.191,0,0,1,.48-2.289,3.516,3.516,0,0,1,1.4-1.535,4.233,4.233,0,0,1,2.188-.543A3.659,3.659,0,0,1,24.266-7.5,4.344,4.344,0,0,1,25.3-4.422V-3.4H20.063a1.9,1.9,0,0,0,.617,1.117,1.836,1.836,0,0,0,1.234.406,2.366,2.366,0,0,0,1.953-.875l1.2,1.422A3.363,3.363,0,0,1,23.676-.246,4.713,4.713,0,0,1,21.734.156Zm-.3-6.734q-1.156,0-1.375,1.531h2.656v-.2a1.3,1.3,0,0,0-.32-.98A1.275,1.275,0,0,0,21.438-6.578Z" transform="translate(522.173 1922)" fill="#12263f"/>
    <path id="Trazado_777408" data-name="Trazado 777408" d="M-45.6-3.859V0h-2.742V-11.375H-43.8a5.287,5.287,0,0,1,2.309.48,3.621,3.621,0,0,1,1.555,1.367,3.734,3.734,0,0,1,.551,2.012,3.291,3.291,0,0,1-1.191,2.66,4.943,4.943,0,0,1-3.27,1Zm0-2.117h1.8a1.7,1.7,0,0,0,1.215-.4A1.48,1.48,0,0,0-42.172-7.5a1.83,1.83,0,0,0-.43-1.273,1.522,1.522,0,0,0-1.172-.484H-45.6ZM-35.273,0h-2.641V-12h2.641Zm6.383,0a2.973,2.973,0,0,1-.25-.758,2.448,2.448,0,0,1-2.031.914A3,3,0,0,1-33.2-.566a2.3,2.3,0,0,1-.836-1.816,2.364,2.364,0,0,1,1.016-2.078,5.174,5.174,0,0,1,2.953-.7h.813v-.448q0-1.17-1.008-1.17a.824.824,0,0,0-.937.926h-2.633a2.36,2.36,0,0,1,1.043-1.99,4.383,4.383,0,0,1,2.66-.765,3.843,3.843,0,0,1,2.555.789,2.743,2.743,0,0,1,.961,2.164v3.742a3.832,3.832,0,0,0,.359,1.781V0Zm-1.648-1.719a1.469,1.469,0,0,0,.816-.211,1.322,1.322,0,0,0,.465-.477V-3.758h-.766q-1.375,0-1.375,1.234a.754.754,0,0,0,.242.582A.876.876,0,0,0-30.539-1.719Zm7.8-6.734.086.992a2.867,2.867,0,0,1,2.414-1.148,2.412,2.412,0,0,1,1.973.789,3.757,3.757,0,0,1,.676,2.375V0h-2.641V-5.336a1.426,1.426,0,0,0-.258-.941,1.193,1.193,0,0,0-.937-.3,1.256,1.256,0,0,0-1.148.609V0h-2.633V-8.453ZM-13.359,0H-16V-8.453h2.641Zm-2.8-10.633a1.175,1.175,0,0,1,.406-.922,1.533,1.533,0,0,1,1.055-.359,1.533,1.533,0,0,1,1.055.359,1.175,1.175,0,0,1,.406.922,1.175,1.175,0,0,1-.406.922,1.533,1.533,0,0,1-1.055.359,1.533,1.533,0,0,1-1.055-.359A1.175,1.175,0,0,1-16.156-10.633ZM-11.125,0V-6.625h-1.227V-8.453h1.227v-.281a3.228,3.228,0,0,1,1.109-2.586,4.433,4.433,0,0,1,2.883-.844,10.23,10.23,0,0,1,2.75.453l-.359,2.078L-5.18-9.75a6.962,6.962,0,0,0-1.8-.227q-1.508,0-1.508,1.375v.148h1.656v1.828H-8.484V0Zm7.953,0H-5.82V-8.453h2.648Zm5.18-1.875a1.171,1.171,0,0,0,.859-.3,1.1,1.1,0,0,0,.3-.84H5.633a2.922,2.922,0,0,1-1,2.281A3.705,3.705,0,0,1,2.07.156,3.751,3.751,0,0,1-.836-1,4.556,4.556,0,0,1-1.9-4.2v-.109a5.149,5.149,0,0,1,.473-2.262A3.441,3.441,0,0,1-.062-8.082a4.065,4.065,0,0,1,2.109-.527A3.658,3.658,0,0,1,4.664-7.7a3.242,3.242,0,0,1,.969,2.477H3.164a1.445,1.445,0,0,0-.32-1.008,1.106,1.106,0,0,0-.859-.352q-1.023,0-1.2,1.3A9.206,9.206,0,0,0,.734-4.133a3.616,3.616,0,0,0,.3,1.766A1.055,1.055,0,0,0,2.008-1.875ZM11.508,0a2.973,2.973,0,0,1-.25-.758A2.448,2.448,0,0,1,9.227.156,3,3,0,0,1,7.2-.566a2.3,2.3,0,0,1-.836-1.816A2.364,2.364,0,0,1,7.375-4.461a5.174,5.174,0,0,1,2.953-.7h.813v-.448q0-1.17-1.008-1.17a.824.824,0,0,0-.937.926H6.563a2.36,2.36,0,0,1,1.043-1.99,4.383,4.383,0,0,1,2.66-.765,3.843,3.843,0,0,1,2.555.789,2.743,2.743,0,0,1,.961,2.164v3.742a3.832,3.832,0,0,0,.359,1.781V0ZM9.859-1.719a1.469,1.469,0,0,0,.816-.211,1.322,1.322,0,0,0,.465-.477V-3.758h-.766Q9-3.758,9-2.523a.754.754,0,0,0,.242.582A.876.876,0,0,0,9.859-1.719Zm8.953-.156a1.171,1.171,0,0,0,.859-.3,1.1,1.1,0,0,0,.3-.84h2.469a2.922,2.922,0,0,1-1,2.281,3.705,3.705,0,0,1-2.566.891A3.751,3.751,0,0,1,15.969-1a4.556,4.556,0,0,1-1.062-3.2v-.109a5.149,5.149,0,0,1,.473-2.262,3.441,3.441,0,0,1,1.363-1.508,4.065,4.065,0,0,1,2.109-.527,3.658,3.658,0,0,1,2.617.914,3.242,3.242,0,0,1,.969,2.477H19.969a1.445,1.445,0,0,0-.32-1.008,1.106,1.106,0,0,0-.859-.352q-1.023,0-1.2,1.3a9.206,9.206,0,0,0-.055,1.141,3.616,3.616,0,0,0,.3,1.766A1.055,1.055,0,0,0,18.813-1.875ZM26.328,0H23.688V-8.453h2.641Zm-2.8-10.633a1.175,1.175,0,0,1,.406-.922,1.533,1.533,0,0,1,1.055-.359,1.533,1.533,0,0,1,1.055.359,1.175,1.175,0,0,1,.406.922,1.175,1.175,0,0,1-.406.922,1.533,1.533,0,0,1-1.055.359,1.533,1.533,0,0,1-1.055-.359A1.175,1.175,0,0,1,23.531-10.633ZM27.617-4.3a4.989,4.989,0,0,1,.492-2.254,3.52,3.52,0,0,1,1.414-1.52,4.259,4.259,0,0,1,2.164-.531A3.887,3.887,0,0,1,34.68-7.434a4.512,4.512,0,0,1,1.094,3.2v.094A4.378,4.378,0,0,1,34.676-1,3.9,3.9,0,0,1,31.7.156,3.942,3.942,0,0,1,28.8-.926a4.232,4.232,0,0,1-1.18-2.934Zm2.633.164a3.145,3.145,0,0,0,.367,1.719,1.223,1.223,0,0,0,1.086.547q1.406,0,1.438-2.164V-4.3q0-2.273-1.453-2.273-1.32,0-1.43,1.961ZM32.047-12h2.781L32.656-9.547l-2.148,0Zm7.3,3.547.086.992a2.867,2.867,0,0,1,2.414-1.148,2.412,2.412,0,0,1,1.973.789A3.757,3.757,0,0,1,44.5-5.445V0H41.859V-5.336a1.426,1.426,0,0,0-.258-.941,1.193,1.193,0,0,0-.937-.3,1.256,1.256,0,0,0-1.148.609V0H36.883V-8.453Z" transform="translate(702.47 1922)" fill="#12263f"/>
    <path id="Trazado_777409" data-name="Trazado 777409" d="M-22.211-3.852a4.154,4.154,0,0,1-.641,2.1A3.866,3.866,0,0,1-24.5-.344a5.6,5.6,0,0,1-2.418.5A4.467,4.467,0,0,1-30.445-1.3,6.032,6.032,0,0,1-31.734-5.43v-.562a6.885,6.885,0,0,1,.582-2.926,4.41,4.41,0,0,1,1.676-1.937,4.676,4.676,0,0,1,2.531-.684,4.9,4.9,0,0,1,3.328,1.09,4.306,4.306,0,0,1,1.43,3h-2.734a2.037,2.037,0,0,0-.523-1.492,2.153,2.153,0,0,0-1.5-.453,1.638,1.638,0,0,0-1.5.766,4.921,4.921,0,0,0-.5,2.445v.8a5.445,5.445,0,0,0,.457,2.6,1.672,1.672,0,0,0,1.574.781,2.106,2.106,0,0,0,1.445-.445,1.89,1.89,0,0,0,.531-1.414ZM-16.273,0a2.973,2.973,0,0,1-.25-.758,2.448,2.448,0,0,1-2.031.914,3,3,0,0,1-2.031-.723,2.3,2.3,0,0,1-.836-1.816,2.364,2.364,0,0,1,1.016-2.078,5.174,5.174,0,0,1,2.953-.7h.813v-.448q0-1.17-1.008-1.17a.824.824,0,0,0-.937.926h-2.633a2.36,2.36,0,0,1,1.043-1.99,4.383,4.383,0,0,1,2.66-.765,3.843,3.843,0,0,1,2.555.789A2.743,2.743,0,0,1-14-5.656v3.742a3.832,3.832,0,0,0,.359,1.781V0Zm-1.648-1.719a1.469,1.469,0,0,0,.816-.211,1.322,1.322,0,0,0,.465-.477V-3.758h-.766q-1.375,0-1.375,1.234a.754.754,0,0,0,.242.582A.876.876,0,0,0-17.922-1.719Zm8.445-8.836v2.1h1.391v1.828H-9.477v3.867a.987.987,0,0,0,.172.664.922.922,0,0,0,.68.188,3.862,3.862,0,0,0,.656-.047V-.07A4.859,4.859,0,0,1-9.453.156a2.758,2.758,0,0,1-2.008-.641,2.626,2.626,0,0,1-.648-1.945v-4.2h-1.078V-8.453h1.078v-2.1ZM-2.289,0a2.973,2.973,0,0,1-.25-.758A2.448,2.448,0,0,1-4.57.156,3,3,0,0,1-6.6-.566a2.3,2.3,0,0,1-.836-1.816A2.364,2.364,0,0,1-6.422-4.461a5.174,5.174,0,0,1,2.953-.7h.813v-.448q0-1.17-1.008-1.17a.824.824,0,0,0-.937.926H-7.234a2.36,2.36,0,0,1,1.043-1.99,4.383,4.383,0,0,1,2.66-.765A3.843,3.843,0,0,1-.977-7.82,2.743,2.743,0,0,1-.016-5.656v3.742A3.832,3.832,0,0,0,.344-.133V0ZM-3.937-1.719a1.469,1.469,0,0,0,.816-.211,1.322,1.322,0,0,0,.465-.477V-3.758h-.766Q-4.8-3.758-4.8-2.523a.754.754,0,0,0,.242.582A.876.876,0,0,0-3.937-1.719ZM-3.281-12H-.5L-2.672-9.547l-2.148,0Zm7.5,12H1.578V-12H4.219ZM5.508-4.3A4.989,4.989,0,0,1,6-6.559a3.52,3.52,0,0,1,1.414-1.52,4.259,4.259,0,0,1,2.164-.531A3.887,3.887,0,0,1,12.57-7.434a4.512,4.512,0,0,1,1.094,3.2v.094A4.378,4.378,0,0,1,12.566-1,3.9,3.9,0,0,1,9.594.156,3.942,3.942,0,0,1,6.7-.926a4.232,4.232,0,0,1-1.18-2.934Zm2.633.164a3.145,3.145,0,0,0,.367,1.719,1.223,1.223,0,0,0,1.086.547q1.406,0,1.438-2.164V-4.3q0-2.273-1.453-2.273-1.32,0-1.43,1.961Zm6.375-.148a5.708,5.708,0,0,1,.422-2.266,3.4,3.4,0,0,1,1.211-1.52,3.192,3.192,0,0,1,1.836-.535,2.538,2.538,0,0,1,2.063.891l.094-.734h2.391V-.32a3.564,3.564,0,0,1-.52,1.941,3.334,3.334,0,0,1-1.5,1.266,5.528,5.528,0,0,1-2.281.441,4.769,4.769,0,0,1-1.8-.352,3.251,3.251,0,0,1-1.332-.914L16.2.516a2.414,2.414,0,0,0,1.938.867,1.568,1.568,0,0,0,1.75-1.8V-.68a2.472,2.472,0,0,1-1.914.836,3.055,3.055,0,0,1-2.5-1.184A4.9,4.9,0,0,1,14.516-4.2Zm2.641.164a3.007,3.007,0,0,0,.391,1.645,1.232,1.232,0,0,0,1.094.605,1.4,1.4,0,0,0,1.242-.57V-6a1.363,1.363,0,0,0-1.227-.578,1.241,1.241,0,0,0-1.1.629A3.429,3.429,0,0,0,17.156-4.125ZM23.7-4.3a4.989,4.989,0,0,1,.492-2.254A3.52,3.52,0,0,1,25.6-8.078a4.259,4.259,0,0,1,2.164-.531,3.887,3.887,0,0,1,2.992,1.176,4.512,4.512,0,0,1,1.094,3.2v.094A4.378,4.378,0,0,1,30.754-1,3.9,3.9,0,0,1,27.781.156a3.942,3.942,0,0,1-2.9-1.082A4.232,4.232,0,0,1,23.7-3.859Zm2.633.164A3.145,3.145,0,0,0,26.7-2.422a1.223,1.223,0,0,0,1.086.547q1.406,0,1.438-2.164V-4.3q0-2.273-1.453-2.273-1.32,0-1.43,1.961Zm-69.6,16.852a5.164,5.164,0,0,1,.867-3.164,2.854,2.854,0,0,1,2.422-1.156,2.428,2.428,0,0,1,1.906.891V5h2.641V17H-37.8l-.133-.906A2.493,2.493,0,0,1-40,17.156,2.849,2.849,0,0,1-42.391,16,5.327,5.327,0,0,1-43.273,12.711Zm2.633.164q0,2.25,1.313,2.25a1.3,1.3,0,0,0,1.25-.734V11.172a1.261,1.261,0,0,0-1.234-.75q-1.219,0-1.32,1.969Zm10.789,4.281A4.345,4.345,0,0,1-33,16a4.006,4.006,0,0,1-1.2-3.02v-.219a5.191,5.191,0,0,1,.48-2.289,3.516,3.516,0,0,1,1.4-1.535,4.233,4.233,0,0,1,2.188-.543A3.659,3.659,0,0,1-27.32,9.5a4.344,4.344,0,0,1,1.031,3.082V13.6h-5.234a1.9,1.9,0,0,0,.617,1.117,1.836,1.836,0,0,0,1.234.406,2.366,2.366,0,0,0,1.953-.875l1.2,1.422a3.363,3.363,0,0,1-1.395,1.082A4.713,4.713,0,0,1-29.852,17.156Zm-.3-6.734q-1.156,0-1.375,1.531h2.656v-.2a1.3,1.3,0,0,0-.32-.98A1.275,1.275,0,0,0-30.148,10.422Zm13.328,4.2a.608.608,0,0,0-.352-.539,5.348,5.348,0,0,0-1.336-.422,6.092,6.092,0,0,1-1.625-.574,2.722,2.722,0,0,1-.977-.863,2.061,2.061,0,0,1-.336-1.164,2.336,2.336,0,0,1,.961-1.918,3.958,3.958,0,0,1,2.516-.754,4.386,4.386,0,0,1,2.688.758,2.37,2.37,0,0,1,1.016,1.992h-2.641q0-1.016-1.07-1.016a1.061,1.061,0,0,0-.7.23.714.714,0,0,0-.281.574.655.655,0,0,0,.344.57,3.248,3.248,0,0,0,1.1.359,9.486,9.486,0,0,1,1.324.336,2.406,2.406,0,0,1,1.906,2.352,2.214,2.214,0,0,1-1.027,1.883,4.505,4.505,0,0,1-2.66.727,4.6,4.6,0,0,1-1.937-.391A3.24,3.24,0,0,1-21.234,15.7a2.406,2.406,0,0,1-.477-1.414h2.461a1.017,1.017,0,0,0,.391.855,1.607,1.607,0,0,0,.961.27,1.264,1.264,0,0,0,.809-.219A.7.7,0,0,0-16.82,14.625Zm7.859,2.531A4.345,4.345,0,0,1-12.109,16a4.006,4.006,0,0,1-1.2-3.02v-.219a5.191,5.191,0,0,1,.48-2.289,3.516,3.516,0,0,1,1.4-1.535,4.233,4.233,0,0,1,2.188-.543A3.659,3.659,0,0,1-6.43,9.5,4.344,4.344,0,0,1-5.4,12.578V13.6h-5.234a1.9,1.9,0,0,0,.617,1.117,1.836,1.836,0,0,0,1.234.406,2.366,2.366,0,0,0,1.953-.875l1.2,1.422A3.363,3.363,0,0,1-7.02,16.754,4.713,4.713,0,0,1-8.961,17.156Zm-.3-6.734q-1.156,0-1.375,1.531h2.656v-.2a1.3,1.3,0,0,0-.32-.98A1.275,1.275,0,0,0-9.258,10.422ZM.773,10.93l-.867-.062a1.558,1.558,0,0,0-1.594.781V17H-4.32V8.547h2.469l.086,1.086A2.039,2.039,0,0,1,.086,8.391a2.567,2.567,0,0,1,.734.094Zm4.461,2.938L6.57,8.547H9.344L6.586,17H3.9L1.141,8.547H3.922ZM12.906,17H10.266V8.547h2.641Zm-2.8-10.633a1.175,1.175,0,0,1,.406-.922,1.533,1.533,0,0,1,1.055-.359,1.533,1.533,0,0,1,1.055.359,1.175,1.175,0,0,1,.406.922,1.175,1.175,0,0,1-.406.922,1.533,1.533,0,0,1-1.055.359,1.533,1.533,0,0,1-1.055-.359A1.175,1.175,0,0,1,10.109,6.367ZM18.1,15.125a1.171,1.171,0,0,0,.859-.3,1.1,1.1,0,0,0,.3-.84h2.469a2.922,2.922,0,0,1-1,2.281,3.705,3.705,0,0,1-2.566.891A3.751,3.751,0,0,1,15.258,16,4.556,4.556,0,0,1,14.2,12.8v-.109a5.149,5.149,0,0,1,.473-2.262,3.441,3.441,0,0,1,1.363-1.508,4.065,4.065,0,0,1,2.109-.527,3.658,3.658,0,0,1,2.617.914,3.242,3.242,0,0,1,.969,2.477H19.258a1.445,1.445,0,0,0-.32-1.008,1.106,1.106,0,0,0-.859-.352q-1.023,0-1.2,1.3a9.206,9.206,0,0,0-.055,1.141,3.616,3.616,0,0,0,.3,1.766A1.055,1.055,0,0,0,18.1,15.125ZM25.617,17H22.977V8.547h2.641ZM22.82,6.367a1.175,1.175,0,0,1,.406-.922,1.727,1.727,0,0,1,2.109,0,1.175,1.175,0,0,1,.406.922,1.175,1.175,0,0,1-.406.922,1.727,1.727,0,0,1-2.109,0A1.175,1.175,0,0,1,22.82,6.367ZM26.906,12.7a4.989,4.989,0,0,1,.492-2.254,3.52,3.52,0,0,1,1.414-1.52,4.259,4.259,0,0,1,2.164-.531,3.887,3.887,0,0,1,2.992,1.176,4.512,4.512,0,0,1,1.094,3.2v.094A4.378,4.378,0,0,1,33.965,16a3.9,3.9,0,0,1-2.973,1.16,3.942,3.942,0,0,1-2.9-1.082,4.232,4.232,0,0,1-1.18-2.934Zm2.633.164a3.145,3.145,0,0,0,.367,1.719,1.223,1.223,0,0,0,1.086.547q1.406,0,1.438-2.164V12.7q0-2.273-1.453-2.273-1.32,0-1.43,1.961Zm11.109,1.766a.608.608,0,0,0-.352-.539,5.348,5.348,0,0,0-1.336-.422,6.092,6.092,0,0,1-1.625-.574,2.722,2.722,0,0,1-.977-.863,2.061,2.061,0,0,1-.336-1.164,2.336,2.336,0,0,1,.961-1.918A3.958,3.958,0,0,1,39.5,8.391a4.386,4.386,0,0,1,2.688.758A2.37,2.37,0,0,1,43.2,11.141H40.563q0-1.016-1.07-1.016a1.061,1.061,0,0,0-.7.23.714.714,0,0,0-.281.574.655.655,0,0,0,.344.57,3.248,3.248,0,0,0,1.1.359,9.485,9.485,0,0,1,1.324.336,2.406,2.406,0,0,1,1.906,2.352A2.214,2.214,0,0,1,42.16,16.43a4.505,4.505,0,0,1-2.66.727,4.6,4.6,0,0,1-1.937-.391A3.24,3.24,0,0,1,36.234,15.7a2.406,2.406,0,0,1-.477-1.414h2.461a1.017,1.017,0,0,0,.391.855,1.607,1.607,0,0,0,.961.27,1.264,1.264,0,0,0,.809-.219A.7.7,0,0,0,40.648,14.625Z" transform="translate(702.47 2047)" fill="#12263f"/>
    <path id="Trazado_777410" data-name="Trazado 777410" d="M-5.9-3.023a1.127,1.127,0,0,0-.426-.937,5.292,5.292,0,0,0-1.5-.7,14.353,14.353,0,0,1-1.75-.7,3.314,3.314,0,0,1-2.211-2.984A2.676,2.676,0,0,1-11.234-10a3.562,3.562,0,0,1,1.559-1.125,6.065,6.065,0,0,1,2.266-.4,5.305,5.305,0,0,1,2.2.438A3.482,3.482,0,0,1-3.7-9.848,3.254,3.254,0,0,1-3.16-8H-5.895A1.375,1.375,0,0,0-6.32-9.078a1.66,1.66,0,0,0-1.152-.383,1.872,1.872,0,0,0-1.16.324,1,1,0,0,0-.426.824,1,1,0,0,0,.469.793,5.911,5.911,0,0,0,1.648.734A10.1,10.1,0,0,1-5-5.969,3.256,3.256,0,0,1-3.16-3.039,2.778,2.778,0,0,1-4.285-.7,5,5,0,0,1-7.371.156a6.122,6.122,0,0,1-2.5-.5A3.775,3.775,0,0,1-11.562-1.7a3.542,3.542,0,0,1-.566-1.988h2.75A1.744,1.744,0,0,0-8.906-2.34a2.234,2.234,0,0,0,1.535.434A1.765,1.765,0,0,0-6.3-2.2.967.967,0,0,0-5.9-3.023ZM1.168,0H-1.566V-11.375H1.168ZM5.816-3.859V0H3.074V-11.375H7.613a5.287,5.287,0,0,1,2.309.48,3.621,3.621,0,0,1,1.555,1.367,3.734,3.734,0,0,1,.551,2.012,3.291,3.291,0,0,1-1.191,2.66,4.943,4.943,0,0,1-3.27,1Zm0-2.117h1.8a1.7,1.7,0,0,0,1.215-.4A1.48,1.48,0,0,0,9.246-7.5a1.83,1.83,0,0,0-.43-1.273,1.522,1.522,0,0,0-1.172-.484H5.816Z" transform="translate(1073.899 2056)" fill="#12263f"/>
    <path id="Trazado_777411" data-name="Trazado 777411" d="M-54.691,0h-2.734V-11.375h2.734Zm4.273-8.453.086.992a2.906,2.906,0,0,1,2.414-1.148,2.14,2.14,0,0,1,2.164,1.273A2.813,2.813,0,0,1-43.27-8.609q2.57,0,2.641,3.109V0H-43.27V-5.336a1.611,1.611,0,0,0-.219-.945.931.931,0,0,0-.8-.3,1.247,1.247,0,0,0-1.164.7l.008.109V0h-2.641V-5.32a1.694,1.694,0,0,0-.211-.961.929.929,0,0,0-.8-.3,1.263,1.263,0,0,0-1.156.7V0h-2.633V-8.453Zm19.141,4.289a5.1,5.1,0,0,1-.887,3.145A2.843,2.843,0,0,1-34.559.156,2.437,2.437,0,0,1-36.473-.7V3.25h-2.633v-11.7h2.461l.078.781a2.437,2.437,0,0,1,1.992-.937,2.866,2.866,0,0,1,2.43,1.152,5.16,5.16,0,0,1,.867,3.168Zm-2.633-.164q0-2.25-1.312-2.25a1.239,1.239,0,0,0-1.25.672v3.328a1.279,1.279,0,0,0,1.266.7q1.258,0,1.3-2.172ZM-27.34,0H-29.98V-12h2.641Zm5.711.156A4.345,4.345,0,0,1-24.777-1a4.006,4.006,0,0,1-1.2-3.02v-.219a5.191,5.191,0,0,1,.48-2.289,3.516,3.516,0,0,1,1.4-1.535,4.233,4.233,0,0,1,2.188-.543A3.659,3.659,0,0,1-19.1-7.5a4.344,4.344,0,0,1,1.031,3.082V-3.4H-23.3a1.9,1.9,0,0,0,.617,1.117,1.836,1.836,0,0,0,1.234.406A2.366,2.366,0,0,0-19.5-2.75l1.2,1.422A3.363,3.363,0,0,1-19.687-.246,4.713,4.713,0,0,1-21.629.156Zm-.3-6.734q-1.156,0-1.375,1.531h2.656v-.2a1.3,1.3,0,0,0-.32-.98A1.275,1.275,0,0,0-21.926-6.578Zm7.406-1.875.086.992A2.906,2.906,0,0,1-12.02-8.609,2.14,2.14,0,0,1-9.855-7.336,2.813,2.813,0,0,1-7.371-8.609q2.57,0,2.641,3.109V0H-7.371V-5.336a1.611,1.611,0,0,0-.219-.945.931.931,0,0,0-.8-.3,1.247,1.247,0,0,0-1.164.7l.008.109V0h-2.641V-5.32a1.694,1.694,0,0,0-.211-.961.929.929,0,0,0-.8-.3,1.263,1.263,0,0,0-1.156.7V0h-2.633V-8.453ZM.863.156A4.345,4.345,0,0,1-2.285-1a4.006,4.006,0,0,1-1.2-3.02v-.219a5.191,5.191,0,0,1,.48-2.289,3.516,3.516,0,0,1,1.4-1.535A4.233,4.233,0,0,1,.582-8.609,3.659,3.659,0,0,1,3.395-7.5,4.344,4.344,0,0,1,4.426-4.422V-3.4H-.809A1.9,1.9,0,0,0-.191-2.281a1.836,1.836,0,0,0,1.234.406A2.366,2.366,0,0,0,3-2.75L4.2-1.328A3.363,3.363,0,0,1,2.8-.246,4.713,4.713,0,0,1,.863.156Zm-.3-6.734q-1.156,0-1.375,1.531H1.848v-.2a1.3,1.3,0,0,0-.32-.98A1.275,1.275,0,0,0,.566-6.578ZM7.9-8.453l.086.992A2.867,2.867,0,0,1,10.4-8.609a2.412,2.412,0,0,1,1.973.789,3.757,3.757,0,0,1,.676,2.375V0H10.41V-5.336a1.426,1.426,0,0,0-.258-.941,1.193,1.193,0,0,0-.937-.3,1.256,1.256,0,0,0-1.148.609V0H5.434V-8.453Zm9.672-2.1v2.1h1.391v1.828H17.574v3.867a.987.987,0,0,0,.172.664.922.922,0,0,0,.68.188,3.862,3.862,0,0,0,.656-.047V-.07A4.859,4.859,0,0,1,17.6.156,2.758,2.758,0,0,1,15.59-.484a2.626,2.626,0,0,1-.648-1.945v-4.2H13.863V-8.453h1.078v-2.1ZM24.762,0a2.973,2.973,0,0,1-.25-.758A2.448,2.448,0,0,1,22.48.156a3,3,0,0,1-2.031-.723,2.3,2.3,0,0,1-.836-1.816,2.364,2.364,0,0,1,1.016-2.078,5.174,5.174,0,0,1,2.953-.7h.813v-.448q0-1.17-1.008-1.17a.824.824,0,0,0-.937.926H19.816a2.36,2.36,0,0,1,1.043-1.99,4.383,4.383,0,0,1,2.66-.765,3.843,3.843,0,0,1,2.555.789,2.743,2.743,0,0,1,.961,2.164v3.742a3.832,3.832,0,0,0,.359,1.781V0ZM23.113-1.719a1.469,1.469,0,0,0,.816-.211,1.322,1.322,0,0,0,.465-.477V-3.758h-.766q-1.375,0-1.375,1.234a.754.754,0,0,0,.242.582A.876.876,0,0,0,23.113-1.719Zm8.953-.156a1.171,1.171,0,0,0,.859-.3,1.1,1.1,0,0,0,.3-.84h2.469a2.922,2.922,0,0,1-1,2.281,3.705,3.705,0,0,1-2.566.891A3.751,3.751,0,0,1,29.223-1,4.556,4.556,0,0,1,28.16-4.2v-.109a5.149,5.149,0,0,1,.473-2.262A3.441,3.441,0,0,1,30-8.082a4.065,4.065,0,0,1,2.109-.527,3.658,3.658,0,0,1,2.617.914,3.242,3.242,0,0,1,.969,2.477H33.223a1.445,1.445,0,0,0-.32-1.008,1.106,1.106,0,0,0-.859-.352q-1.023,0-1.2,1.3a9.206,9.206,0,0,0-.055,1.141,3.616,3.616,0,0,0,.3,1.766A1.055,1.055,0,0,0,32.066-1.875ZM39.582,0H36.941V-8.453h2.641Zm-2.8-10.633a1.175,1.175,0,0,1,.406-.922,1.533,1.533,0,0,1,1.055-.359,1.533,1.533,0,0,1,1.055.359,1.175,1.175,0,0,1,.406.922,1.175,1.175,0,0,1-.406.922,1.533,1.533,0,0,1-1.055.359,1.533,1.533,0,0,1-1.055-.359A1.175,1.175,0,0,1,36.785-10.633ZM40.871-4.3a4.989,4.989,0,0,1,.492-2.254,3.52,3.52,0,0,1,1.414-1.52,4.259,4.259,0,0,1,2.164-.531,3.887,3.887,0,0,1,2.992,1.176,4.512,4.512,0,0,1,1.094,3.2v.094A4.378,4.378,0,0,1,47.93-1,3.9,3.9,0,0,1,44.957.156a3.942,3.942,0,0,1-2.9-1.082,4.232,4.232,0,0,1-1.18-2.934Zm2.633.164a3.145,3.145,0,0,0,.367,1.719,1.223,1.223,0,0,0,1.086.547q1.406,0,1.438-2.164V-4.3q0-2.273-1.453-2.273-1.32,0-1.43,1.961ZM45.3-12h2.781L45.91-9.547l-2.148,0Zm7.3,3.547.086.992a2.867,2.867,0,0,1,2.414-1.148,2.412,2.412,0,0,1,1.973.789,3.757,3.757,0,0,1,.676,2.375V0H55.113V-5.336a1.426,1.426,0,0,0-.258-.941,1.193,1.193,0,0,0-.937-.3,1.256,1.256,0,0,0-1.148.609V0H50.137V-8.453Z" transform="translate(886.637 1922)" fill="#12263f"/>
    <path id="Trazado_777412" data-name="Trazado 777412" d="M-28.062-4.023h-1.484V0h-2.742V-11.375h4.477a5,5,0,0,1,3.164.9,3.041,3.041,0,0,1,1.141,2.536,3.693,3.693,0,0,1-.48,1.967,3.41,3.41,0,0,1-1.5,1.264l2.375,4.593V0h-2.937Zm-1.484-2.109h1.734a1.557,1.557,0,0,0,1.176-.411,1.59,1.59,0,0,0,.395-1.147,1.608,1.608,0,0,0-.4-1.155,1.542,1.542,0,0,0-1.172-.419h-1.734ZM-17.883.156A4.345,4.345,0,0,1-21.031-1a4.006,4.006,0,0,1-1.2-3.02v-.219a5.191,5.191,0,0,1,.48-2.289,3.516,3.516,0,0,1,1.4-1.535,4.233,4.233,0,0,1,2.188-.543A3.659,3.659,0,0,1-15.352-7.5,4.344,4.344,0,0,1-14.32-4.422V-3.4h-5.234a1.9,1.9,0,0,0,.617,1.117,1.836,1.836,0,0,0,1.234.406A2.366,2.366,0,0,0-15.75-2.75l1.2,1.422A3.363,3.363,0,0,1-15.941-.246,4.713,4.713,0,0,1-17.883.156Zm-.3-6.734q-1.156,0-1.375,1.531H-16.9v-.2a1.3,1.3,0,0,0-.32-.98A1.275,1.275,0,0,0-18.18-6.578Zm8.188,3.445,1.336-5.32h2.773L-8.641,0h-2.687l-2.758-8.453H-11.3ZM-2.32,0H-4.961V-8.453H-2.32Zm-2.8-10.633a1.175,1.175,0,0,1,.406-.922,1.533,1.533,0,0,1,1.055-.359,1.533,1.533,0,0,1,1.055.359,1.175,1.175,0,0,1,.406.922,1.175,1.175,0,0,1-.406.922,1.533,1.533,0,0,1-1.055.359,1.533,1.533,0,0,1-1.055-.359A1.175,1.175,0,0,1-5.117-10.633ZM3.727-2.375a.608.608,0,0,0-.352-.539,5.348,5.348,0,0,0-1.336-.422A6.092,6.092,0,0,1,.414-3.91a2.722,2.722,0,0,1-.977-.863A2.061,2.061,0,0,1-.9-5.937,2.336,2.336,0,0,1,.063-7.855a3.958,3.958,0,0,1,2.516-.754,4.386,4.386,0,0,1,2.688.758A2.37,2.37,0,0,1,6.281-5.859H3.641q0-1.016-1.07-1.016a1.061,1.061,0,0,0-.7.23.714.714,0,0,0-.281.574.655.655,0,0,0,.344.57,3.248,3.248,0,0,0,1.1.359A9.485,9.485,0,0,1,4.359-4.8,2.406,2.406,0,0,1,6.266-2.453,2.214,2.214,0,0,1,5.238-.57a4.505,4.505,0,0,1-2.66.727A4.6,4.6,0,0,1,.641-.234,3.24,3.24,0,0,1-.687-1.3a2.406,2.406,0,0,1-.477-1.414H1.3a1.017,1.017,0,0,0,.391.855,1.607,1.607,0,0,0,.961.27A1.264,1.264,0,0,0,3.457-1.8.7.7,0,0,0,3.727-2.375ZM10.273,0H7.633V-8.453h2.641Zm-2.8-10.633a1.175,1.175,0,0,1,.406-.922,1.533,1.533,0,0,1,1.055-.359,1.533,1.533,0,0,1,1.055.359,1.175,1.175,0,0,1,.406.922,1.175,1.175,0,0,1-.406.922,1.533,1.533,0,0,1-1.055.359,1.533,1.533,0,0,1-1.055-.359A1.175,1.175,0,0,1,7.477-10.633ZM11.563-4.3a4.989,4.989,0,0,1,.492-2.254,3.52,3.52,0,0,1,1.414-1.52,4.259,4.259,0,0,1,2.164-.531,3.887,3.887,0,0,1,2.992,1.176,4.512,4.512,0,0,1,1.094,3.2v.094A4.378,4.378,0,0,1,18.621-1,3.9,3.9,0,0,1,15.648.156a3.942,3.942,0,0,1-2.9-1.082,4.232,4.232,0,0,1-1.18-2.934Zm2.633.164a3.145,3.145,0,0,0,.367,1.719,1.223,1.223,0,0,0,1.086.547q1.406,0,1.438-2.164V-4.3q0-2.273-1.453-2.273-1.32,0-1.43,1.961ZM15.992-12h2.781L16.6-9.547l-2.148,0Zm7.3,3.547.086.992A2.867,2.867,0,0,1,25.8-8.609a2.412,2.412,0,0,1,1.973.789,3.757,3.757,0,0,1,.676,2.375V0H25.8V-5.336a1.426,1.426,0,0,0-.258-.941,1.193,1.193,0,0,0-.937-.3,1.256,1.256,0,0,0-1.148.609V0H20.828V-8.453Z" transform="translate(1070.804 1922)" fill="#12263f"/>
    <path id="Trazado_777413" data-name="Trazado 777413" d="M-25.031-3.852a4.154,4.154,0,0,1-.641,2.1,3.866,3.866,0,0,1-1.645,1.41,5.6,5.6,0,0,1-2.418.5A4.467,4.467,0,0,1-33.266-1.3,6.032,6.032,0,0,1-34.555-5.43v-.562a6.885,6.885,0,0,1,.582-2.926A4.41,4.41,0,0,1-32.3-10.855a4.676,4.676,0,0,1,2.531-.684,4.9,4.9,0,0,1,3.328,1.09,4.306,4.306,0,0,1,1.43,3h-2.734a2.037,2.037,0,0,0-.523-1.492,2.153,2.153,0,0,0-1.5-.453,1.638,1.638,0,0,0-1.5.766,4.921,4.921,0,0,0-.5,2.445v.8a5.445,5.445,0,0,0,.457,2.6,1.672,1.672,0,0,0,1.574.781,2.106,2.106,0,0,0,1.445-.445,1.89,1.89,0,0,0,.531-1.414ZM-19.766.156A4.345,4.345,0,0,1-22.914-1a4.006,4.006,0,0,1-1.2-3.02v-.219a5.191,5.191,0,0,1,.48-2.289,3.516,3.516,0,0,1,1.4-1.535,4.233,4.233,0,0,1,2.188-.543A3.659,3.659,0,0,1-17.234-7.5,4.344,4.344,0,0,1-16.2-4.422V-3.4h-5.234a1.9,1.9,0,0,0,.617,1.117,1.836,1.836,0,0,0,1.234.406,2.366,2.366,0,0,0,1.953-.875l1.2,1.422A3.363,3.363,0,0,1-17.824-.246,4.713,4.713,0,0,1-19.766.156Zm-.3-6.734q-1.156,0-1.375,1.531h2.656v-.2a1.3,1.3,0,0,0-.32-.98A1.275,1.275,0,0,0-20.062-6.578Zm7.336-1.875.086.992a2.867,2.867,0,0,1,2.414-1.148,2.412,2.412,0,0,1,1.973.789,3.757,3.757,0,0,1,.676,2.375V0h-2.641V-5.336a1.426,1.426,0,0,0-.258-.941,1.193,1.193,0,0,0-.937-.3,1.256,1.256,0,0,0-1.148.609V0H-15.2V-8.453Zm9.672-2.1v2.1h1.391v1.828H-3.055v3.867a.987.987,0,0,0,.172.664.922.922,0,0,0,.68.188,3.862,3.862,0,0,0,.656-.047V-.07A4.859,4.859,0,0,1-3.031.156,2.758,2.758,0,0,1-5.039-.484,2.626,2.626,0,0,1-5.687-2.43v-4.2H-6.766V-8.453h1.078v-2.1ZM4.484-6.07l-.867-.062a1.558,1.558,0,0,0-1.594.781V0H-.609V-8.453H1.859l.086,1.086A2.039,2.039,0,0,1,3.8-8.609a2.567,2.567,0,0,1,.734.094ZM4.82-4.3a4.989,4.989,0,0,1,.492-2.254,3.52,3.52,0,0,1,1.414-1.52,4.259,4.259,0,0,1,2.164-.531,3.887,3.887,0,0,1,2.992,1.176,4.512,4.512,0,0,1,1.094,3.2v.094A4.378,4.378,0,0,1,11.879-1,3.9,3.9,0,0,1,8.906.156a3.942,3.942,0,0,1-2.9-1.082,4.232,4.232,0,0,1-1.18-2.934Zm2.633.164A3.145,3.145,0,0,0,7.82-2.422a1.223,1.223,0,0,0,1.086.547q1.406,0,1.438-2.164V-4.3q0-2.273-1.453-2.273-1.32,0-1.43,1.961Zm10.336-.148a5.164,5.164,0,0,1,.867-3.164,2.854,2.854,0,0,1,2.422-1.156,2.428,2.428,0,0,1,1.906.891V-12h2.641V0H23.258l-.133-.906A2.493,2.493,0,0,1,21.063.156,2.849,2.849,0,0,1,18.672-1,5.327,5.327,0,0,1,17.789-4.289Zm2.633.164q0,2.25,1.313,2.25a1.3,1.3,0,0,0,1.25-.734V-5.828a1.261,1.261,0,0,0-1.234-.75q-1.219,0-1.32,1.969ZM31.211.156A4.345,4.345,0,0,1,28.063-1a4.006,4.006,0,0,1-1.2-3.02v-.219a5.191,5.191,0,0,1,.48-2.289,3.516,3.516,0,0,1,1.4-1.535,4.233,4.233,0,0,1,2.188-.543A3.659,3.659,0,0,1,33.742-7.5a4.344,4.344,0,0,1,1.031,3.082V-3.4H29.539a1.9,1.9,0,0,0,.617,1.117,1.836,1.836,0,0,0,1.234.406,2.366,2.366,0,0,0,1.953-.875l1.2,1.422A3.363,3.363,0,0,1,33.152-.246,4.713,4.713,0,0,1,31.211.156Zm-.3-6.734q-1.156,0-1.375,1.531H32.2v-.2a1.3,1.3,0,0,0-.32-.98A1.275,1.275,0,0,0,30.914-6.578Zm-58.582,21.2a.608.608,0,0,0-.352-.539,5.348,5.348,0,0,0-1.336-.422,6.092,6.092,0,0,1-1.625-.574,2.722,2.722,0,0,1-.977-.863,2.061,2.061,0,0,1-.336-1.164,2.336,2.336,0,0,1,.961-1.918,3.958,3.958,0,0,1,2.516-.754,4.386,4.386,0,0,1,2.688.758,2.37,2.37,0,0,1,1.016,1.992h-2.641q0-1.016-1.07-1.016a1.061,1.061,0,0,0-.7.23.714.714,0,0,0-.281.574.655.655,0,0,0,.344.57,3.248,3.248,0,0,0,1.1.359,9.486,9.486,0,0,1,1.324.336,2.406,2.406,0,0,1,1.906,2.352,2.214,2.214,0,0,1-1.027,1.883,4.505,4.505,0,0,1-2.66.727,4.6,4.6,0,0,1-1.937-.391A3.24,3.24,0,0,1-32.082,15.7a2.406,2.406,0,0,1-.477-1.414H-30.1a1.017,1.017,0,0,0,.391.855,1.607,1.607,0,0,0,.961.27,1.264,1.264,0,0,0,.809-.219A.7.7,0,0,0-27.668,14.625Zm7.859,2.531A4.345,4.345,0,0,1-22.957,16a4.006,4.006,0,0,1-1.2-3.02v-.219a5.191,5.191,0,0,1,.48-2.289,3.516,3.516,0,0,1,1.4-1.535,4.233,4.233,0,0,1,2.188-.543A3.659,3.659,0,0,1-17.277,9.5a4.344,4.344,0,0,1,1.031,3.082V13.6H-21.48a1.9,1.9,0,0,0,.617,1.117,1.836,1.836,0,0,0,1.234.406,2.366,2.366,0,0,0,1.953-.875l1.2,1.422a3.363,3.363,0,0,1-1.395,1.082A4.713,4.713,0,0,1-19.809,17.156Zm-.3-6.734q-1.156,0-1.375,1.531h2.656v-.2a1.3,1.3,0,0,0-.32-.98A1.275,1.275,0,0,0-20.105,10.422Zm10.031.508-.867-.062a1.558,1.558,0,0,0-1.594.781V17h-2.633V8.547H-12.7l.086,1.086a2.039,2.039,0,0,1,1.852-1.242,2.567,2.567,0,0,1,.734.094Zm4.461,2.938,1.336-5.32H-1.5L-4.262,17H-6.949L-9.707,8.547h2.781ZM2.059,17H-.582V8.547H2.059ZM-.738,6.367a1.175,1.175,0,0,1,.406-.922A1.533,1.533,0,0,1,.723,5.086a1.533,1.533,0,0,1,1.055.359,1.175,1.175,0,0,1,.406.922,1.175,1.175,0,0,1-.406.922,1.533,1.533,0,0,1-1.055.359A1.533,1.533,0,0,1-.332,7.289,1.175,1.175,0,0,1-.738,6.367Zm7.992,8.758a1.171,1.171,0,0,0,.859-.3,1.1,1.1,0,0,0,.3-.84h2.469a2.922,2.922,0,0,1-1,2.281,3.705,3.705,0,0,1-2.566.891A3.751,3.751,0,0,1,4.41,16a4.556,4.556,0,0,1-1.062-3.2v-.109a5.149,5.149,0,0,1,.473-2.262A3.441,3.441,0,0,1,5.184,8.918a4.065,4.065,0,0,1,2.109-.527A3.658,3.658,0,0,1,9.91,9.3a3.242,3.242,0,0,1,.969,2.477H8.41a1.445,1.445,0,0,0-.32-1.008,1.106,1.106,0,0,0-.859-.352q-1.023,0-1.2,1.3a9.206,9.206,0,0,0-.055,1.141,3.616,3.616,0,0,0,.3,1.766A1.055,1.055,0,0,0,7.254,15.125ZM14.77,17H12.129V8.547H14.77Zm-2.8-10.633a1.175,1.175,0,0,1,.406-.922,1.727,1.727,0,0,1,2.109,0,1.175,1.175,0,0,1,.406.922,1.175,1.175,0,0,1-.406.922,1.727,1.727,0,0,1-2.109,0A1.175,1.175,0,0,1,11.973,6.367ZM16.059,12.7a4.989,4.989,0,0,1,.492-2.254,3.52,3.52,0,0,1,1.414-1.52,4.259,4.259,0,0,1,2.164-.531,3.887,3.887,0,0,1,2.992,1.176,4.512,4.512,0,0,1,1.094,3.2v.094A4.378,4.378,0,0,1,23.117,16a3.9,3.9,0,0,1-2.973,1.16,3.942,3.942,0,0,1-2.9-1.082,4.232,4.232,0,0,1-1.18-2.934Zm2.633.164a3.145,3.145,0,0,0,.367,1.719,1.223,1.223,0,0,0,1.086.547q1.406,0,1.438-2.164V12.7q0-2.273-1.453-2.273-1.32,0-1.43,1.961ZM29.8,14.625a.608.608,0,0,0-.352-.539,5.348,5.348,0,0,0-1.336-.422,6.092,6.092,0,0,1-1.625-.574,2.722,2.722,0,0,1-.977-.863,2.061,2.061,0,0,1-.336-1.164,2.336,2.336,0,0,1,.961-1.918,3.958,3.958,0,0,1,2.516-.754,4.386,4.386,0,0,1,2.688.758,2.37,2.37,0,0,1,1.016,1.992H29.715q0-1.016-1.07-1.016a1.061,1.061,0,0,0-.7.23.714.714,0,0,0-.281.574.655.655,0,0,0,.344.57,3.248,3.248,0,0,0,1.1.359,9.486,9.486,0,0,1,1.324.336,2.406,2.406,0,0,1,1.906,2.352,2.214,2.214,0,0,1-1.027,1.883,4.505,4.505,0,0,1-2.66.727,4.6,4.6,0,0,1-1.937-.391A3.24,3.24,0,0,1,25.387,15.7a2.406,2.406,0,0,1-.477-1.414h2.461a1.017,1.017,0,0,0,.391.855,1.607,1.607,0,0,0,.961.27,1.264,1.264,0,0,0,.809-.219A.7.7,0,0,0,29.8,14.625Z" transform="translate(783.268 1665.898)" fill="#12263f"/>
    <path id="Trazado_777414" data-name="Trazado 777414" d="M-41.41-3.859V0h-2.742V-11.375h4.539a5.287,5.287,0,0,1,2.309.48A3.621,3.621,0,0,1-35.75-9.527,3.734,3.734,0,0,1-35.2-7.516a3.291,3.291,0,0,1-1.191,2.66,4.943,4.943,0,0,1-3.27,1Zm0-2.117h1.8a1.7,1.7,0,0,0,1.215-.4A1.48,1.48,0,0,0-37.98-7.5a1.83,1.83,0,0,0-.43-1.273,1.522,1.522,0,0,0-1.172-.484H-41.41Zm12.664-.094-.867-.062a1.558,1.558,0,0,0-1.594.781V0H-33.84V-8.453h2.469l.086,1.086a2.039,2.039,0,0,1,1.852-1.242,2.567,2.567,0,0,1,.734.094ZM-28.41-4.3a4.989,4.989,0,0,1,.492-2.254A3.52,3.52,0,0,1-26.5-8.078a4.259,4.259,0,0,1,2.164-.531,3.887,3.887,0,0,1,2.992,1.176,4.512,4.512,0,0,1,1.094,3.2v.094A4.378,4.378,0,0,1-21.352-1,3.9,3.9,0,0,1-24.324.156a3.942,3.942,0,0,1-2.9-1.082A4.232,4.232,0,0,1-28.4-3.859Zm2.633.164a3.145,3.145,0,0,0,.367,1.719,1.223,1.223,0,0,0,1.086.547q1.406,0,1.438-2.164V-4.3q0-2.273-1.453-2.273-1.32,0-1.43,1.961Zm9.938,1.008,1.336-5.32h2.773L-14.488,0h-2.687l-2.758-8.453h2.781ZM-8.168,0h-2.641V-8.453h2.641Zm-2.8-10.633a1.175,1.175,0,0,1,.406-.922A1.533,1.533,0,0,1-9.5-11.914a1.533,1.533,0,0,1,1.055.359,1.175,1.175,0,0,1,.406.922,1.175,1.175,0,0,1-.406.922A1.533,1.533,0,0,1-9.5-9.352a1.533,1.533,0,0,1-1.055-.359A1.175,1.175,0,0,1-10.965-10.633Zm8.844,8.258a.608.608,0,0,0-.352-.539,5.348,5.348,0,0,0-1.336-.422A6.092,6.092,0,0,1-5.434-3.91a2.722,2.722,0,0,1-.977-.863,2.061,2.061,0,0,1-.336-1.164,2.336,2.336,0,0,1,.961-1.918A3.958,3.958,0,0,1-3.27-8.609a4.386,4.386,0,0,1,2.688.758A2.37,2.37,0,0,1,.434-5.859H-2.207q0-1.016-1.07-1.016a1.061,1.061,0,0,0-.7.23.714.714,0,0,0-.281.574.655.655,0,0,0,.344.57,3.248,3.248,0,0,0,1.1.359A9.485,9.485,0,0,1-1.488-4.8,2.406,2.406,0,0,1,.418-2.453,2.214,2.214,0,0,1-.609-.57,4.505,4.505,0,0,1-3.27.156,4.6,4.6,0,0,1-5.207-.234,3.24,3.24,0,0,1-6.535-1.3a2.406,2.406,0,0,1-.477-1.414h2.461a1.017,1.017,0,0,0,.391.855,1.607,1.607,0,0,0,.961.27A1.264,1.264,0,0,0-2.391-1.8.7.7,0,0,0-2.121-2.375ZM4.426,0H1.785V-8.453H4.426Zm-2.8-10.633a1.175,1.175,0,0,1,.406-.922,1.533,1.533,0,0,1,1.055-.359,1.533,1.533,0,0,1,1.055.359,1.175,1.175,0,0,1,.406.922,1.175,1.175,0,0,1-.406.922,1.533,1.533,0,0,1-1.055.359,1.533,1.533,0,0,1-1.055-.359A1.175,1.175,0,0,1,1.629-10.633ZM5.715-4.3a4.989,4.989,0,0,1,.492-2.254,3.52,3.52,0,0,1,1.414-1.52,4.259,4.259,0,0,1,2.164-.531,3.887,3.887,0,0,1,2.992,1.176,4.512,4.512,0,0,1,1.094,3.2v.094A4.378,4.378,0,0,1,12.773-1,3.9,3.9,0,0,1,9.8.156,3.942,3.942,0,0,1,6.9-.926a4.232,4.232,0,0,1-1.18-2.934Zm2.633.164a3.145,3.145,0,0,0,.367,1.719A1.223,1.223,0,0,0,9.8-1.875q1.406,0,1.438-2.164V-4.3q0-2.273-1.453-2.273-1.32,0-1.43,1.961ZM10.145-12h2.781L10.754-9.547l-2.148,0Zm7.3,3.547.086.992a2.867,2.867,0,0,1,2.414-1.148,2.412,2.412,0,0,1,1.973.789A3.757,3.757,0,0,1,22.6-5.445V0H19.957V-5.336a1.426,1.426,0,0,0-.258-.941,1.193,1.193,0,0,0-.937-.3,1.256,1.256,0,0,0-1.148.609V0H14.98V-8.453ZM27.707-4.289a5.164,5.164,0,0,1,.867-3.164A2.854,2.854,0,0,1,31-8.609a2.428,2.428,0,0,1,1.906.891V-12h2.641V0H33.176l-.133-.906A2.493,2.493,0,0,1,30.98.156,2.849,2.849,0,0,1,28.59-1,5.327,5.327,0,0,1,27.707-4.289Zm2.633.164q0,2.25,1.313,2.25a1.3,1.3,0,0,0,1.25-.734V-5.828a1.261,1.261,0,0,0-1.234-.75q-1.219,0-1.32,1.969ZM41.129.156A4.345,4.345,0,0,1,37.98-1a4.006,4.006,0,0,1-1.2-3.02v-.219a5.191,5.191,0,0,1,.48-2.289,3.516,3.516,0,0,1,1.4-1.535,4.233,4.233,0,0,1,2.188-.543A3.659,3.659,0,0,1,43.66-7.5a4.344,4.344,0,0,1,1.031,3.082V-3.4H39.457a1.9,1.9,0,0,0,.617,1.117,1.836,1.836,0,0,0,1.234.406,2.366,2.366,0,0,0,1.953-.875l1.2,1.422A3.363,3.363,0,0,1,43.07-.246,4.713,4.713,0,0,1,41.129.156Zm-.3-6.734q-1.156,0-1.375,1.531h2.656v-.2a1.3,1.3,0,0,0-.32-.98A1.275,1.275,0,0,0,40.832-6.578Zm-68.5,21.2a.608.608,0,0,0-.352-.539,5.348,5.348,0,0,0-1.336-.422,6.092,6.092,0,0,1-1.625-.574,2.722,2.722,0,0,1-.977-.863,2.061,2.061,0,0,1-.336-1.164,2.336,2.336,0,0,1,.961-1.918,3.958,3.958,0,0,1,2.516-.754,4.386,4.386,0,0,1,2.688.758,2.37,2.37,0,0,1,1.016,1.992h-2.641q0-1.016-1.07-1.016a1.061,1.061,0,0,0-.7.23.714.714,0,0,0-.281.574.655.655,0,0,0,.344.57,3.248,3.248,0,0,0,1.1.359,9.486,9.486,0,0,1,1.324.336,2.406,2.406,0,0,1,1.906,2.352,2.214,2.214,0,0,1-1.027,1.883,4.505,4.505,0,0,1-2.66.727,4.6,4.6,0,0,1-1.937-.391A3.24,3.24,0,0,1-32.082,15.7a2.406,2.406,0,0,1-.477-1.414H-30.1a1.017,1.017,0,0,0,.391.855,1.607,1.607,0,0,0,.961.27,1.264,1.264,0,0,0,.809-.219A.7.7,0,0,0-27.668,14.625Zm7.859,2.531A4.345,4.345,0,0,1-22.957,16a4.006,4.006,0,0,1-1.2-3.02v-.219a5.191,5.191,0,0,1,.48-2.289,3.516,3.516,0,0,1,1.4-1.535,4.233,4.233,0,0,1,2.188-.543A3.659,3.659,0,0,1-17.277,9.5a4.344,4.344,0,0,1,1.031,3.082V13.6H-21.48a1.9,1.9,0,0,0,.617,1.117,1.836,1.836,0,0,0,1.234.406,2.366,2.366,0,0,0,1.953-.875l1.2,1.422a3.363,3.363,0,0,1-1.395,1.082A4.713,4.713,0,0,1-19.809,17.156Zm-.3-6.734q-1.156,0-1.375,1.531h2.656v-.2a1.3,1.3,0,0,0-.32-.98A1.275,1.275,0,0,0-20.105,10.422Zm10.031.508-.867-.062a1.558,1.558,0,0,0-1.594.781V17h-2.633V8.547H-12.7l.086,1.086a2.039,2.039,0,0,1,1.852-1.242,2.567,2.567,0,0,1,.734.094Zm4.461,2.938,1.336-5.32H-1.5L-4.262,17H-6.949L-9.707,8.547h2.781ZM2.059,17H-.582V8.547H2.059ZM-.738,6.367a1.175,1.175,0,0,1,.406-.922A1.533,1.533,0,0,1,.723,5.086a1.533,1.533,0,0,1,1.055.359,1.175,1.175,0,0,1,.406.922,1.175,1.175,0,0,1-.406.922,1.533,1.533,0,0,1-1.055.359A1.533,1.533,0,0,1-.332,7.289,1.175,1.175,0,0,1-.738,6.367Zm7.992,8.758a1.171,1.171,0,0,0,.859-.3,1.1,1.1,0,0,0,.3-.84h2.469a2.922,2.922,0,0,1-1,2.281,3.705,3.705,0,0,1-2.566.891A3.751,3.751,0,0,1,4.41,16a4.556,4.556,0,0,1-1.062-3.2v-.109a5.149,5.149,0,0,1,.473-2.262A3.441,3.441,0,0,1,5.184,8.918a4.065,4.065,0,0,1,2.109-.527A3.658,3.658,0,0,1,9.91,9.3a3.242,3.242,0,0,1,.969,2.477H8.41a1.445,1.445,0,0,0-.32-1.008,1.106,1.106,0,0,0-.859-.352q-1.023,0-1.2,1.3a9.206,9.206,0,0,0-.055,1.141,3.616,3.616,0,0,0,.3,1.766A1.055,1.055,0,0,0,7.254,15.125ZM14.77,17H12.129V8.547H14.77Zm-2.8-10.633a1.175,1.175,0,0,1,.406-.922,1.727,1.727,0,0,1,2.109,0,1.175,1.175,0,0,1,.406.922,1.175,1.175,0,0,1-.406.922,1.727,1.727,0,0,1-2.109,0A1.175,1.175,0,0,1,11.973,6.367ZM16.059,12.7a4.989,4.989,0,0,1,.492-2.254,3.52,3.52,0,0,1,1.414-1.52,4.259,4.259,0,0,1,2.164-.531,3.887,3.887,0,0,1,2.992,1.176,4.512,4.512,0,0,1,1.094,3.2v.094A4.378,4.378,0,0,1,23.117,16a3.9,3.9,0,0,1-2.973,1.16,3.942,3.942,0,0,1-2.9-1.082,4.232,4.232,0,0,1-1.18-2.934Zm2.633.164a3.145,3.145,0,0,0,.367,1.719,1.223,1.223,0,0,0,1.086.547q1.406,0,1.438-2.164V12.7q0-2.273-1.453-2.273-1.32,0-1.43,1.961ZM29.8,14.625a.608.608,0,0,0-.352-.539,5.348,5.348,0,0,0-1.336-.422,6.092,6.092,0,0,1-1.625-.574,2.722,2.722,0,0,1-.977-.863,2.061,2.061,0,0,1-.336-1.164,2.336,2.336,0,0,1,.961-1.918,3.958,3.958,0,0,1,2.516-.754,4.386,4.386,0,0,1,2.688.758,2.37,2.37,0,0,1,1.016,1.992H29.715q0-1.016-1.07-1.016a1.061,1.061,0,0,0-.7.23.714.714,0,0,0-.281.574.655.655,0,0,0,.344.57,3.248,3.248,0,0,0,1.1.359,9.486,9.486,0,0,1,1.324.336,2.406,2.406,0,0,1,1.906,2.352,2.214,2.214,0,0,1-1.027,1.883,4.505,4.505,0,0,1-2.66.727,4.6,4.6,0,0,1-1.937-.391A3.24,3.24,0,0,1,25.387,15.7a2.406,2.406,0,0,1-.477-1.414h2.461a1.017,1.017,0,0,0,.391.855,1.607,1.607,0,0,0,.961.27,1.264,1.264,0,0,0,.809-.219A.7.7,0,0,0,29.8,14.625Z" transform="translate(988.268 1665.898)" fill="#12263f"/>
    <path id="Trazado_777415" data-name="Trazado 777415" d="M0,0H576V10H0Z" transform="translate(496 1702)" fill="url(#linear-gradient-10)"/>
    <path id="Trazado_199661" data-name="Trazado 199661" d="M0,32.445H6.508V0H17.365V32.445h6.783L11.535,45.059Z" transform="translate(798.952 1760.949) rotate(180)" fill="url(#linear-gradient-10)"/>
    <path id="Trazado_199827" data-name="Trazado 199827" d="M0,55H6.508V0H17.365V55h6.783L11.535,67.614Z" transform="translate(714.607 2016.983) rotate(180)" fill="url(#linear-gradient-10)"/>
    <path id="Trazado_199828" data-name="Trazado 199828" d="M0,192.4H6.508V0H17.365V192.4h6.783L11.535,205.011Z" transform="translate(993.908 2038.717) rotate(90)" fill="url(#linear-gradient-10)"/>
    <path id="Trazado_199826" data-name="Trazado 199826" d="M-7812.137-9478.066h6.508v-32.445h10.857v32.445h6.783l-12.613,12.613Z" transform="translate(8586.94 11337.967)" fill="url(#linear-gradient-10)"/>
    <g id="Grupo_146087" data-name="Grupo 146087" transform="translate(632.491 1770.046)">
      <rect id="Rectngulo_37274" data-name="Rectngulo 37274" width="305.369" height="50.833" rx="10" transform="translate(0.978 0)" fill="url(#linear-gradient-10)"/>
      <g id="Rectngulo_37275" data-name="Rectngulo 37275" transform="translate(0 0)" fill="#fff" stroke="#dee9f0" stroke-width="1">
        <rect width="47.9" height="50.833" rx="10" stroke="none"/>
        <rect x="0.5" y="0.5" width="46.9" height="49.833" rx="9.5" fill="none"/>
      </g>
      <path id="Trazado_777419" data-name="Trazado 777419" d="M-101.465-11.375l3.719,9.281,3.719-9.281h1.945V0h-1.5V-4.43l.141-4.781L-97.176,0h-1.148l-3.727-9.187.148,4.758V0h-1.5V-11.375ZM-90.043-4.3a4.993,4.993,0,0,1,.488-2.234A3.643,3.643,0,0,1-88.2-8.07a3.7,3.7,0,0,1,1.988-.539,3.565,3.565,0,0,1,2.793,1.2,4.6,4.6,0,0,1,1.066,3.18v.1a5.036,5.036,0,0,1-.473,2.215A3.589,3.589,0,0,1-84.172-.391a3.743,3.743,0,0,1-2.02.547,3.556,3.556,0,0,1-2.785-1.2A4.575,4.575,0,0,1-90.043-4.2Zm1.453.172a3.616,3.616,0,0,0,.652,2.258,2.088,2.088,0,0,0,1.746.852,2.075,2.075,0,0,0,1.75-.863A3.955,3.955,0,0,0-83.793-4.3a3.61,3.61,0,0,0-.66-2.254,2.1,2.1,0,0,0-1.754-.863,2.075,2.075,0,0,0-1.727.852A3.925,3.925,0,0,0-88.59-4.133Zm9.422-4.32.047,1.063A3.08,3.08,0,0,1-76.59-8.609q2.68,0,2.7,3.023V0h-1.445V-5.594a1.946,1.946,0,0,0-.418-1.352,1.675,1.675,0,0,0-1.277-.437,2.086,2.086,0,0,0-1.234.375,2.546,2.546,0,0,0-.828.984V0h-1.445V-8.453ZM-70.137,0h-1.445V-8.453h1.445ZM-71.7-10.7a.863.863,0,0,1,.215-.594.807.807,0,0,1,.637-.242.819.819,0,0,1,.641.242.854.854,0,0,1,.219.594.826.826,0,0,1-.219.586.834.834,0,0,1-.641.234.821.821,0,0,1-.637-.234A.834.834,0,0,1-71.7-10.7Zm5.836.2v2.047h1.578v1.117h-1.578v5.249a1.173,1.173,0,0,0,.211.763.888.888,0,0,0,.719.254,3.5,3.5,0,0,0,.688-.094V0a4.215,4.215,0,0,1-1.109.155A1.8,1.8,0,0,1-66.816-.43a2.517,2.517,0,0,1-.492-1.664V-7.336h-1.539V-8.453h1.539V-10.5Zm2.727,6.2a4.993,4.993,0,0,1,.488-2.234A3.643,3.643,0,0,1-61.289-8.07,3.7,3.7,0,0,1-59.3-8.609a3.565,3.565,0,0,1,2.793,1.2,4.6,4.6,0,0,1,1.066,3.18v.1a5.036,5.036,0,0,1-.473,2.215A3.589,3.589,0,0,1-57.266-.391a3.743,3.743,0,0,1-2.02.547,3.556,3.556,0,0,1-2.785-1.2A4.575,4.575,0,0,1-63.137-4.2Zm1.453.172a3.616,3.616,0,0,0,.652,2.258,2.088,2.088,0,0,0,1.746.852,2.075,2.075,0,0,0,1.75-.863A3.955,3.955,0,0,0-56.887-4.3a3.61,3.61,0,0,0-.66-2.254A2.1,2.1,0,0,0-59.3-7.422a2.075,2.075,0,0,0-1.727.852A3.925,3.925,0,0,0-61.684-4.133Zm12.141-3.023a4.331,4.331,0,0,0-.711-.055A1.9,1.9,0,0,0-52.184-6V0h-1.445V-8.453h1.406l.023.977a2.251,2.251,0,0,1,2.016-1.133,1.477,1.477,0,0,1,.641.109ZM-46.645,0H-48.09V-8.453h1.445Zm-1.562-10.7a.863.863,0,0,1,.215-.594.807.807,0,0,1,.637-.242.819.819,0,0,1,.641.242.854.854,0,0,1,.219.594.826.826,0,0,1-.219.586.834.834,0,0,1-.641.234.821.821,0,0,1-.637-.234A.834.834,0,0,1-48.207-10.7Zm5.234,9.516h4.945V0h-6.711V-1.062l4.664-6.2h-4.594v-1.2h6.406V-7.43ZM-31.184,0a3.036,3.036,0,0,1-.2-.891A3.225,3.225,0,0,1-33.793.156a2.984,2.984,0,0,1-2.051-.707,2.287,2.287,0,0,1-.8-1.793,2.39,2.39,0,0,1,1-2.051,4.733,4.733,0,0,1,2.824-.73h1.406v-.664A1.623,1.623,0,0,0-31.863-7,1.821,1.821,0,0,0-33.2-7.445a2.107,2.107,0,0,0-1.3.391,1.151,1.151,0,0,0-.523.945h-1.453a2,2,0,0,1,.449-1.223A3.066,3.066,0,0,1-34.8-8.266a4.1,4.1,0,0,1,1.691-.344,3.342,3.342,0,0,1,2.289.73,2.635,2.635,0,0,1,.859,2.012v3.891a4.757,4.757,0,0,0,.3,1.852V0Zm-2.4-1.1a2.54,2.54,0,0,0,1.289-.352,2.127,2.127,0,0,0,.883-.914V-4.1h-1.133Q-35.2-4.1-35.2-2.547a1.316,1.316,0,0,0,.453,1.063A1.742,1.742,0,0,0-33.582-1.1Zm9.273.078a2.082,2.082,0,0,0,1.352-.469,1.649,1.649,0,0,0,.641-1.172h1.367a2.621,2.621,0,0,1-.5,1.383A3.293,3.293,0,0,1-22.68-.234a3.55,3.55,0,0,1-1.629.391A3.482,3.482,0,0,1-27.055-1a4.59,4.59,0,0,1-1.02-3.152v-.242a5.089,5.089,0,0,1,.453-2.2,3.451,3.451,0,0,1,1.3-1.492,3.7,3.7,0,0,1,2-.531,3.39,3.39,0,0,1,2.363.852,3.043,3.043,0,0,1,1,2.211h-1.367a1.992,1.992,0,0,0-.621-1.348,1.932,1.932,0,0,0-1.379-.527,2.023,2.023,0,0,0-1.707.793,3.724,3.724,0,0,0-.605,2.293v.273a3.65,3.65,0,0,0,.6,2.25A2.033,2.033,0,0,0-24.309-1.023ZM-17.754,0H-19.2V-8.453h1.445Zm-1.562-10.7a.863.863,0,0,1,.215-.594.807.807,0,0,1,.637-.242.819.819,0,0,1,.641.242.854.854,0,0,1,.219.594.826.826,0,0,1-.219.586.834.834,0,0,1-.641.234.821.821,0,0,1-.637-.234A.834.834,0,0,1-19.316-10.7ZM-15.824-4.3a4.993,4.993,0,0,1,.488-2.234A3.643,3.643,0,0,1-13.977-8.07a3.7,3.7,0,0,1,1.988-.539A3.565,3.565,0,0,1-9.2-7.414a4.6,4.6,0,0,1,1.066,3.18v.1A5.036,5.036,0,0,1-8.6-1.918,3.589,3.589,0,0,1-9.953-.391a3.743,3.743,0,0,1-2.02.547,3.556,3.556,0,0,1-2.785-1.2A4.575,4.575,0,0,1-15.824-4.2Zm1.453.172a3.616,3.616,0,0,0,.652,2.258,2.088,2.088,0,0,0,1.746.852,2.075,2.075,0,0,0,1.75-.863A3.955,3.955,0,0,0-9.574-4.3a3.61,3.61,0,0,0-.66-2.254,2.1,2.1,0,0,0-1.754-.863,2.075,2.075,0,0,0-1.727.852A3.925,3.925,0,0,0-14.371-4.133ZM-11.332-12h1.75l-2.094,2.3-1.164,0Zm6.383,3.547L-4.9-7.391A3.08,3.08,0,0,1-2.371-8.609q2.68,0,2.7,3.023V0H-1.113V-5.594a1.946,1.946,0,0,0-.418-1.352,1.675,1.675,0,0,0-1.277-.437,2.086,2.086,0,0,0-1.234.375,2.546,2.546,0,0,0-.828.984V0H-6.316V-8.453ZM9.238-2.117l1.969-6.336h1.547L9.355,1.3Q8.566,3.414,6.848,3.414l-.273-.023-.539-.1V2.117l.391.031a1.923,1.923,0,0,0,1.145-.3A2.148,2.148,0,0,0,8.246.766l.32-.859L5.551-8.453H7.129Zm13.688-.125a1.064,1.064,0,0,0-.441-.91,4.249,4.249,0,0,0-1.539-.559A7.277,7.277,0,0,1,19.2-4.273a2.479,2.479,0,0,1-.953-.781,1.869,1.869,0,0,1-.309-1.078,2.193,2.193,0,0,1,.879-1.758,3.432,3.432,0,0,1,2.246-.719,3.532,3.532,0,0,1,2.332.742,2.357,2.357,0,0,1,.895,1.9H22.84a1.3,1.3,0,0,0-.5-1.023,1.888,1.888,0,0,0-1.27-.43,1.976,1.976,0,0,0-1.234.344,1.082,1.082,0,0,0-.445.9.877.877,0,0,0,.414.789,5.1,5.1,0,0,0,1.5.508,7.8,7.8,0,0,1,1.754.578,2.558,2.558,0,0,1,1,.809,1.988,1.988,0,0,1,.324,1.152,2.163,2.163,0,0,1-.906,1.816,3.8,3.8,0,0,1-2.352.684,4.257,4.257,0,0,1-1.8-.359,2.922,2.922,0,0,1-1.223-1A2.42,2.42,0,0,1,17.652-2.6H19.1a1.5,1.5,0,0,0,.582,1.152,2.258,2.258,0,0,0,1.434.426,2.331,2.331,0,0,0,1.316-.332A1.02,1.02,0,0,0,22.926-2.242Zm6.836,2.4a3.693,3.693,0,0,1-2.8-1.129,4.19,4.19,0,0,1-1.078-3.02v-.266a5.073,5.073,0,0,1,.48-2.246,3.748,3.748,0,0,1,1.344-1.547,3.378,3.378,0,0,1,1.871-.559,3.166,3.166,0,0,1,2.563,1.086,4.7,4.7,0,0,1,.914,3.109v.6H27.332a3,3,0,0,0,.73,2.02,2.3,2.3,0,0,0,1.777.77,2.517,2.517,0,0,0,1.3-.312,3.259,3.259,0,0,0,.93-.828l.883.688A3.55,3.55,0,0,1,29.762.156Zm-.18-7.578a1.928,1.928,0,0,0-1.469.637A3.1,3.1,0,0,0,27.379-5h4.234v-.109a2.753,2.753,0,0,0-.594-1.707A1.815,1.815,0,0,0,29.582-7.422Zm4.8,3.125A4.968,4.968,0,0,1,35.3-7.441a2.923,2.923,0,0,1,2.422-1.168,2.908,2.908,0,0,1,2.414,1.094l.07-.937h1.32V-.2a3.439,3.439,0,0,1-.973,2.586,3.589,3.589,0,0,1-2.613.945,4.348,4.348,0,0,1-1.789-.391,3.08,3.08,0,0,1-1.336-1.07L35.566,1A2.826,2.826,0,0,0,37.84,2.148a2.214,2.214,0,0,0,1.645-.594,2.269,2.269,0,0,0,.59-1.672V-.844a2.971,2.971,0,0,1-2.367,1,2.887,2.887,0,0,1-2.4-1.2A5.224,5.224,0,0,1,34.387-4.3Zm1.453.164a3.79,3.79,0,0,0,.586,2.246,1.9,1.9,0,0,0,1.641.816,2.117,2.117,0,0,0,2.008-1.242V-6.172a2.142,2.142,0,0,0-1.992-1.211,1.921,1.921,0,0,0-1.648.82A4.128,4.128,0,0,0,35.84-4.133Zm13.086,3.3a3.07,3.07,0,0,1-2.477.992,2.628,2.628,0,0,1-2.059-.785,3.4,3.4,0,0,1-.715-2.324v-5.5h1.445v5.461q0,1.922,1.563,1.922a2.163,2.163,0,0,0,2.2-1.234V-8.453h1.445V0H48.957ZM54.1,0H52.652V-8.453H54.1ZM52.535-10.7a.863.863,0,0,1,.215-.594.807.807,0,0,1,.637-.242.819.819,0,0,1,.641.242.854.854,0,0,1,.219.594.826.826,0,0,1-.219.586.834.834,0,0,1-.641.234.821.821,0,0,1-.637-.234A.834.834,0,0,1,52.535-10.7ZM57.77-8.453l.039.938a3.122,3.122,0,0,1,2.508-1.094A2.417,2.417,0,0,1,62.73-7.25a3.2,3.2,0,0,1,1.1-.984,3.242,3.242,0,0,1,1.6-.375q2.781,0,2.828,2.945V0H66.809V-5.578a1.941,1.941,0,0,0-.414-1.355A1.823,1.823,0,0,0,65-7.383a1.916,1.916,0,0,0-1.336.48,1.949,1.949,0,0,0-.617,1.293V0H61.6V-5.539a1.613,1.613,0,0,0-1.8-1.844,1.934,1.934,0,0,0-1.945,1.211V0H56.4V-8.453ZM72,0H70.559V-8.453H72ZM70.441-10.7a.863.863,0,0,1,.215-.594.807.807,0,0,1,.637-.242.819.819,0,0,1,.641.242.854.854,0,0,1,.219.594.826.826,0,0,1-.219.586.834.834,0,0,1-.641.234.821.821,0,0,1-.637-.234A.834.834,0,0,1,70.441-10.7ZM77.824.156a3.693,3.693,0,0,1-2.8-1.129,4.19,4.19,0,0,1-1.078-3.02v-.266A5.073,5.073,0,0,1,74.43-6.5a3.748,3.748,0,0,1,1.344-1.547,3.378,3.378,0,0,1,1.871-.559,3.166,3.166,0,0,1,2.563,1.086,4.7,4.7,0,0,1,.914,3.109v.6H75.395a3,3,0,0,0,.73,2.02,2.3,2.3,0,0,0,1.777.77,2.517,2.517,0,0,0,1.3-.312,3.259,3.259,0,0,0,.93-.828l.883.688A3.55,3.55,0,0,1,77.824.156Zm-.18-7.578a1.928,1.928,0,0,0-1.469.637A3.1,3.1,0,0,0,75.441-5h4.234v-.109a2.753,2.753,0,0,0-.594-1.707A1.815,1.815,0,0,0,77.645-7.422ZM84.16-8.453l.047,1.063a3.08,3.08,0,0,1,2.531-1.219q2.68,0,2.7,3.023V0H88V-5.594a1.946,1.946,0,0,0-.418-1.352A1.675,1.675,0,0,0,86.3-7.383a2.086,2.086,0,0,0-1.234.375,2.546,2.546,0,0,0-.828.984V0H82.793V-8.453ZM93.582-10.5v2.047H95.16v1.117H93.582v5.249a1.173,1.173,0,0,0,.211.763.888.888,0,0,0,.719.254,3.5,3.5,0,0,0,.688-.094V0A4.215,4.215,0,0,1,94.09.156,1.8,1.8,0,0,1,92.629-.43a2.517,2.517,0,0,1-.492-1.664V-7.336H90.6V-8.453h1.539V-10.5Zm2.727,6.2A4.993,4.993,0,0,1,96.8-6.539,3.643,3.643,0,0,1,98.156-8.07a3.7,3.7,0,0,1,1.988-.539,3.565,3.565,0,0,1,2.793,1.2A4.6,4.6,0,0,1,104-4.234v.1a5.036,5.036,0,0,1-.473,2.215A3.589,3.589,0,0,1,102.18-.391a3.743,3.743,0,0,1-2.02.547,3.556,3.556,0,0,1-2.785-1.2A4.575,4.575,0,0,1,96.309-4.2Zm1.453.172a3.616,3.616,0,0,0,.652,2.258,2.088,2.088,0,0,0,1.746.852,2.075,2.075,0,0,0,1.75-.863,3.955,3.955,0,0,0,.648-2.418,3.61,3.61,0,0,0-.66-2.254,2.1,2.1,0,0,0-1.754-.863,2.075,2.075,0,0,0-1.727.852A3.925,3.925,0,0,0,97.762-4.133Z" transform="translate(168.145 30.112)" fill="#fff"/>
      <g id="LOV5LS.tif" transform="translate(3.931 7.086)">
        <g id="Grupo_161582" data-name="Grupo 161582">
          <path id="Trazado_199665" data-name="Trazado 199665" d="M763.746,143.413v20.319a2.062,2.062,0,0,1-2.252,1.464c-2.772-.042-5.545-.014-8.318-.014h-.428c0,1.1-.007,2.158,0,3.212,0,.24-.044.364-.31.41-.38.066-.751.188-1.147.292l.732,1.245-3.278,3.293-1.259-.744c-.1.392-.2.733-.261,1.082-.053.313-.2.393-.511.385-.937-.023-1.876-.008-2.747-.008.076.94.178,1.845.215,2.754s.009,1.832.009,2.748H725.867c0-1.031-.012-2.062,0-3.093a8.9,8.9,0,0,1,3.856-7.417,23,23,0,0,1,2.47-1.379c-.006-.005-.058-.057-.115-.1a4.856,4.856,0,0,1-.313-7.529.679.679,0,0,0,.212-.569q0-7.942,0-15.885a1.811,1.811,0,0,1,1.914-1.912q13.972,0,27.944,0a2.307,2.307,0,0,1,.527.055A1.941,1.941,0,0,1,763.746,143.413Zm-28.08,2.235v13.458a4.988,4.988,0,0,1,3.522,2.269c.064.1.281.135.427.135q10.021.01,20.042.006h.4V145.648Zm4.3,18.3h21.653c.714,0,.9-.184.9-.907q0-9.471,0-18.943c0-.723-.181-.906-.9-.906H734.089c-.692,0-.879.189-.879.884q0,7.447,0,14.895v.407a4.516,4.516,0,0,1,.837-.216c.34-.021.369-.186.368-.467q-.011-6.913-.005-13.825v-.452h26.879v18.338H739.808Zm-1.277.016a3.657,3.657,0,1,0-3.682,3.653A3.687,3.687,0,0,0,738.688,163.966Zm-.866,4.044c3.109,1.386,3.645,1.868,5.555,4.949a.332.332,0,0,0,.228.147c.838.01,1.675.007,2.528.007.111-.427.2-.836.329-1.229a.837.837,0,0,1,.315-.369.723.723,0,0,1,.966.058c.144.121.333.188.485.3a.416.416,0,0,0,.668-.071c.242-.293.537-.541.8-.816s.656-.512.7-.812c.042-.275-.3-.611-.481-.916a.782.782,0,0,1,.541-1.257l1.024-.257v-2.522h-2.527a4.232,4.232,0,0,1-1.663,4.669,3.98,3.98,0,0,1-4.492.3,4.244,4.244,0,0,1-2.161-4.966c-.8-.077-.806-.079-1.082.6A5.105,5.105,0,0,1,737.822,168.01Zm-7.332,2.362a7.715,7.715,0,0,0-2.222,2.374,9.588,9.588,0,0,0-1.133,5.623c0,.078.17.208.267.215.367.026.738-.008,1.105.016.31.02.391-.1.387-.4-.014-1.31-.006-2.62-.006-3.93v-.543h1.288v.473c0,1.336.008,2.671-.006,4.007,0,.306.1.394.394.389,1.03-.016,2.06-.005,3.09-.007.1,0,.209-.02.356-.034Zm10.664,3.358c.007.159.019.3.019.431,0,1.348.008,2.7-.005,4.044,0,.3.08.415.389.394a8.918,8.918,0,0,1,1.029,0c.259.012.377-.069.358-.344s0-.559,0-.839a9.1,9.1,0,0,0-.694-3.789,7.877,7.877,0,0,0-2.673-3.259l-3.524,8.2c.164.012.262.026.36.026,1.03,0,2.06-.009,3.09.007.3,0,.4-.087.392-.391-.014-1.348-.006-2.7-.006-4.044v-.435Zm6.719-7.415c-.042-.211-.105-.5-.154-.782-.046-.27-.178-.361-.464-.358-1.641.015-3.283.013-4.924,0a.368.368,0,0,0-.43.305,2.931,2.931,0,0,0,.859,3.164,2.861,2.861,0,0,0,3.292.529A3.058,3.058,0,0,0,747.873,166.315Zm-9.819,3.157c-.594,1.635-1.6,2.441-3.041,2.438a3.137,3.137,0,0,1-3.006-2.443l-.418.2,3.442,8,3.442-8.007Zm-3.013-.646c-.5.063-1.005.129-1.509.186-.237.026-.295.141-.238.362a1.809,1.809,0,0,0,3.475-.009c.049-.2.013-.321-.211-.348C736.056,168.955,735.553,168.89,735.041,168.825Z" transform="translate(-725.863 -141.963)" fill="#12263f"/>
          <path id="Trazado_199666" data-name="Trazado 199666" d="M1100.758,478.936h-7.278v-1.174h7.278Z" transform="translate(-1065.349 -452.066)" fill="#12263f"/>
          <path id="Trazado_199667" data-name="Trazado 199667" d="M1093.411,510.755v-1.171h7.293v1.171Z" transform="translate(-1065.285 -481.453)" fill="#12263f"/>
          <path id="Trazado_199668" data-name="Trazado 199668" d="M1110.7,542.777h-1.158v-1.185h1.158Z" transform="translate(-1080.181 -511.011)" fill="#12263f"/>
          <path id="Trazado_199669" data-name="Trazado 199669" d="M1142.541,542.832h-1.171V541.66h1.171Z" transform="translate(-1109.574 -511.074)" fill="#12263f"/>
          <path id="Trazado_199670" data-name="Trazado 199670" d="M1173.253,542.78v-1.172h1.179v1.172Z" transform="translate(-1139.018 -511.026)" fill="#12263f"/>
          <path id="Trazado_199671" data-name="Trazado 199671" d="M887.579,212.192v1.215h4.241v6.109H882.1v-6.079h4.223v-1.215h-4.247v-2.442H879.64v2.4h-9.77v-6.061h9.751v2.4h2.437v-2.4h9.77v6.077Zm-4.253-4.85v3.607h7.264v-3.607Zm-.007,10.933h7.263v-3.585h-7.263Zm-4.945-10.929H871.1v3.606h7.271Z" transform="translate(-858.85 -201.206)" fill="#12263f"/>
          <path id="Trazado_199672" data-name="Trazado 199672" d="M878.533,333.946v1.177h-8.505v-1.177Z" transform="translate(-858.996 -319.255)" fill="#12263f"/>
          <path id="Trazado_199673" data-name="Trazado 199673" d="M915.325,365.813v1.175h-5.456v-1.175Z" transform="translate(-895.788 -348.683)" fill="#12263f"/>
          <path id="Trazado_199674" data-name="Trazado 199674" d="M903.135,303.21h-1.167v-1.187h1.167Z" transform="translate(-888.492 -289.775)" fill="#12263f"/>
          <path id="Trazado_199675" data-name="Trazado 199675" d="M935,301.938v1.173h-1.18v-1.173Z" transform="translate(-917.904 -289.696)" fill="#12263f"/>
          <path id="Trazado_199676" data-name="Trazado 199676" d="M965.815,301.847h1.17v1.189h-1.17Z" transform="translate(-947.453 -289.612)" fill="#12263f"/>
          <path id="Trazado_199677" data-name="Trazado 199677" d="M1066.295,237.965h-2.421v1.186h2.421Zm-3.675,1.2v-1.2h-1.194v1.2Z" transform="translate(-1035.748 -230.615)" fill="#12263f"/>
          <path id="Trazado_199678" data-name="Trazado 199678" d="M907.263,238h-5.478v1.188h5.478Z" transform="translate(-888.323 -230.648)" fill="#12263f"/>
          <path id="Trazado_199679" data-name="Trazado 199679" d="M1095.834,238.012V239.2h-2.421v-1.186Z" transform="translate(-1065.287 -230.662)" fill="#12263f"/>
          <path id="Trazado_199680" data-name="Trazado 199680" d="M1062.62,239.163h-1.194v-1.2h1.194Z" transform="translate(-1035.748 -230.615)" fill="#12263f"/>
          <path id="Trazado_199681" data-name="Trazado 199681" d="M1061.286,335.015v-1.188h4.867v1.188Z" transform="translate(-1035.619 -319.145)" fill="#12263f"/>
          <path id="Trazado_199682" data-name="Trazado 199682" d="M907.263,238v1.188h-5.478V238Z" transform="translate(-888.323 -230.648)" fill="#12263f"/>
        </g>
      </g>
    </g>
    <path id="Trazado_199662" data-name="Trazado 199662" d="M-8116.388-9498.09h10.323" transform="translate(8724.987 11413.382)" fill="#12263f" stroke="#12263f" stroke-width="4"/>
    <g id="Trazado_777416" data-name="Trazado 777416" transform="translate(623.298 1912.037) rotate(90)" fill="#12263f">
      <path d="M 5.64492654800415 5.953941345214844 L 0.8090164065361023 5.953941345214844 L 3.226971387863159 1.11803138256073 L 5.64492654800415 5.953941345214844 Z" stroke="none"/>
      <path d="M 3.226971387863159 2.236071586608887 L 1.618036270141602 5.453941345214844 L 4.835906505584717 5.453941345214844 L 3.226971387863159 2.236071586608887 M 3.226971387863159 1.430511474609375e-06 L 6.453941345214844 6.453941345214844 L 1.430511474609375e-06 6.453941345214844 L 3.226971387863159 1.430511474609375e-06 Z" stroke="none" fill="#12263f"/>
    </g>
    <path id="Trazado_199662-2" data-name="Trazado 199662" d="M-8116.388-9498.09h10.323" transform="translate(8905.285 11413.382)" fill="#12263f" stroke="#12263f" stroke-width="4"/>
    <g id="Trazado_777417" data-name="Trazado 777417" transform="translate(803.595 1912.037) rotate(90)" fill="#12263f">
      <path d="M 5.64492654800415 5.953941345214844 L 0.8090164065361023 5.953941345214844 L 3.226971387863159 1.11803138256073 L 5.64492654800415 5.953941345214844 Z" stroke="none"/>
      <path d="M 3.226971387863159 2.236071586608887 L 1.618036270141602 5.453941345214844 L 4.835906505584717 5.453941345214844 L 3.226971387863159 2.236071586608887 M 3.226971387863159 1.430511474609375e-06 L 6.453941345214844 6.453941345214844 L 1.430511474609375e-06 6.453941345214844 L 3.226971387863159 1.430511474609375e-06 Z" stroke="none" fill="#12263f"/>
    </g>
    <path id="Trazado_199662-3" data-name="Trazado 199662" d="M-8116.388-9498.09h10.323" transform="translate(9089.451 11413.382)" fill="#12263f" stroke="#12263f" stroke-width="4"/>
    <g id="Trazado_777418" data-name="Trazado 777418" transform="translate(987.762 1912.037) rotate(90)" fill="#12263f">
      <path d="M 5.64492654800415 5.953941345214844 L 0.8090164065361023 5.953941345214844 L 3.226971387863159 1.11803138256073 L 5.64492654800415 5.953941345214844 Z" stroke="none"/>
      <path d="M 3.226971387863159 2.236071586608887 L 1.618036270141602 5.453941345214844 L 4.835906505584717 5.453941345214844 L 3.226971387863159 2.236071586608887 M 3.226971387863159 1.430511474609375e-06 L 6.453941345214844 6.453941345214844 L 1.430511474609375e-06 6.453941345214844 L 3.226971387863159 1.430511474609375e-06 Z" stroke="none" fill="#12263f"/>
    </g>
  </g>
</svg>
