<svg xmlns="http://www.w3.org/2000/svg" width="76.831" height="81.431" viewBox="0 0 76.831 81.431">
  <g id="Grupo_161758" data-name="Grupo 161758" transform="translate(-284.67 -7968.698)">
    <ellipse id="Elipse_4691" data-name="Elipse 4691" cx="38.416" cy="40.715" rx="38.416" ry="40.715" transform="translate(284.67 7968.698)" fill="#fff"/>
    <g id="YhmUKV.tif" transform="translate(297.472 7979.162)">
      <g id="Grupo_143142" data-name="Grupo 143142" transform="translate(0)">
        <path id="Trazado_184367" data-name="Trazado 184367" d="M3284.775-2521.447h-1.83c0-1-.037-1.984.013-2.963.032-.63-.154-.83-.8-.823-3,.034-5.995.028-8.992,0-.566,0-.784.136-.756.736.046,1.006.013,2.015.013,3.051h-1.839v-3.8h-.884q-7.042,0-14.083,0a3.725,3.725,0,0,1-4.016-3.936q-.021-13.592,0-27.184a3.725,3.725,0,0,1,2.822-3.834,7.394,7.394,0,0,1,.917-.113c0,.561.027,1.042-.018,1.515-.012.129-.217.295-.367.348a1.99,1.99,0,0,0-1.521,2.13c-.006,7.65,0,15.3-.017,22.95,0,.622.314.6.739.6q8.034-.007,16.067,0h29.82c.925,0,.926,0,.926-.929q0-11.245,0-22.488c0-1.6-.684-2.28-2.3-2.281a5.915,5.915,0,0,0-.792.006c-.564.075-.7-.167-.7-.7,0-1.393-.062-1.136,1.166-1.149a7.313,7.313,0,0,1,1.579.088,3.635,3.635,0,0,1,2.9,3.56q.01,13.922-.021,27.844a3.645,3.645,0,0,1-3.747,3.577c-4.452.012-8.9,0-13.356,0-.914,0-.915,0-.915.944C3284.775-2523.375,3284.775-2522.451,3284.775-2521.447Zm-7.59-5.628c6.963,0,13.926-.038,20.889.023,2.095.018,3.057-.6,2.9-2.916-.074-1.09.1-.97-1.019-.97q-22.542,0-45.084,0c-1.451,0-1.451,0-1.446,1.456.006,1.706.707,2.409,2.409,2.409Z" transform="translate(-3251.588 2577.428)" fill="#12263f"/>
        <path id="Trazado_184368" data-name="Trazado 184368" d="M3296.417-2618.516h-1.83V-2642.8q0-4.233,0-8.466c0-1.652.675-2.317,2.336-2.317h28.5c1.7,0,2.346.652,2.346,2.363v21.314h-1.832v-.824c0-6.725-.009-13.45.014-20.175,0-.651-.14-.86-.833-.858q-13.953.035-27.905,0c-.637,0-.835.173-.813.814.046,1.365.014,2.733.014,4.1,0,.871,0,.874.855.874h22.9c0,.541.026,1.02-.018,1.493-.011.124-.222.279-.371.326a2.032,2.032,0,0,1-.591.016c-7.318,0-14.637.01-21.955-.016-.679,0-.842.187-.84.851q.034,11.94.015,23.879Z" transform="translate(-3288.888 2658.33)" fill="#12263f"/>
        <path id="Trazado_184369" data-name="Trazado 184369" d="M3325.579-2557.134c.926.383,1.765.713,2.586,1.081.357.16.551.062.858-.167a1.408,1.408,0,0,0,.412-2.115,15.688,15.688,0,0,1-.781-1.868l5.434-2.254c.35.844.713,1.637,1.007,2.456.178.5.428.734.969.613a1.324,1.324,0,0,1,.525.01c.434.083.632-.121.779-.506.322-.84.684-1.664,1.062-2.571l5.436,2.252c-.357.87-.667,1.692-1.031,2.49a.831.831,0,0,0,.188,1.021,1.346,1.346,0,0,0,2.009.363,16.613,16.613,0,0,1,1.9-.8c.752,1.813,1.49,3.591,2.257,5.439-.866.36-1.666.716-2.484,1.023-.425.16-.677.361-.59.859a6.069,6.069,0,0,0,.021.722,1.06,1.06,0,0,0,.411.617c.832.4,1.694.729,2.636,1.124-.751,1.818-1.486,3.6-2.245,5.435-.866-.354-1.685-.668-2.483-1.028a.756.756,0,0,0-1.029.192c-.8.873-.824.851-.379,1.933.258.63.52,1.258.817,1.975l-5.432,2.256c-.364-.865-.733-1.684-1.048-2.523-.156-.413-.363-.622-.821-.548a2.165,2.165,0,0,1-.66,0c-.434-.069-.627.14-.772.52-.321.84-.681,1.665-1.049,2.554l-5.437-2.255c.371-.9.691-1.742,1.063-2.559.176-.388.045-.592-.185-.917-.619-.87-1.29-.828-2.125-.366a18.033,18.033,0,0,1-1.825.769c-.755-1.819-1.493-3.6-2.254-5.435.886-.371,1.708-.735,2.545-1.056a.691.691,0,0,0,.531-.77c-.037-1.252-.017-1.252-1.164-1.726-.609-.25-1.216-.505-1.911-.8C3324.077-2553.5,3324.812-2555.278,3325.579-2557.134Zm.194,4.433c.8.333,1.507.645,2.226.915.384.144.434.347.412.747a28.07,28.07,0,0,0,0,3.087c.021.381-.052.556-.4.69-.734.283-1.455.6-2.237.934l.792,1.891a.935.935,0,0,0,.215,0c.491-.2.98-.4,1.469-.6,1.018-.423,1.006-.415,1.679.42a9.937,9.937,0,0,0,1.038,1.107c.384.352.814.653,1.22.974-.369.923-.717,1.791-1.081,2.7l1.971.808c.313-.756.62-1.435.874-2.134.152-.42.346-.534.82-.5a20.31,20.31,0,0,0,2.956.006c.454-.03.673.035.831.478.254.715.579,1.4.893,2.148l1.968-.826c-.319-.775-.595-1.49-.907-2.189a.609.609,0,0,1,.2-.835,25.668,25.668,0,0,0,2.18-2.187.6.6,0,0,1,.829-.2c.7.31,1.417.591,2.2.912l.82-1.974c-.759-.319-1.458-.639-2.175-.905-.412-.153-.477-.379-.454-.8a25.506,25.506,0,0,0,0-2.956c-.028-.455.057-.68.494-.836.715-.257,1.407-.576,2.14-.881l-.822-1.969c-.777.316-1.5.578-2.191.9-.407.19-.592.066-.871-.25a22.77,22.77,0,0,0-2.092-2.089c-.351-.305-.433-.525-.24-.938.314-.673.576-1.372.889-2.128l-1.975-.825c-.336.8-.614,1.542-.965,2.247a.845.845,0,0,1-.627.36c-1.05.037-2.1-.01-3.152.028-.366.014-.57-.043-.7-.4-.221-.6-.466-1.191-.74-1.768-.074-.154-.336-.369-.437-.335-.573.191-1.125.45-1.718.7.327.8.6,1.516.917,2.216a.56.56,0,0,1-.185.774c-.78.7-1.523,1.451-2.231,2.228-.255.28-.428.354-.773.2-.716-.322-1.453-.6-2.238-.917Z" transform="translate(-3313.82 2579.275)" fill="#12263f"/>
        <path id="Trazado_184370" data-name="Trazado 184370" d="M3363.753-2668.564h-1.83v-18.906h-29.477v1.808h-1.822a20.068,20.068,0,0,1,.018-2.23,1.758,1.758,0,0,1,1.593-1.456,5.407,5.407,0,0,1,.66-.017h28.563c1.647,0,2.294.638,2.294,2.262q0,8.862,0,17.724Z" transform="translate(-3320.129 2689.368)" fill="#12263f"/>
        <path id="Trazado_184371" data-name="Trazado 184371" d="M3384.689-2257.018l-1.372,1.265c-.381-.38-.771-.822-1.22-1.193a1.5,1.5,0,0,0-.854-.364q-8.124-.032-16.249,0a1.536,1.536,0,0,0-.907.392,14.138,14.138,0,0,0-1.145,1.251l-1.352-1.445c.609-.591,1.241-1.231,1.909-1.833a1.05,1.05,0,0,1,.653-.208q8.95-.017,17.9,0a1.047,1.047,0,0,1,.655.206C3383.374-2258.339,3384-2257.694,3384.689-2257.018Z" transform="translate(-3347.013 2316.17)" fill="#12263f"/>
        <path id="Trazado_184372" data-name="Trazado 184372" d="M3354.157-2624.514v1.752h-1.779v-1.752Z" transform="translate(-3339.021 2633.108)" fill="#12263f"/>
        <path id="Trazado_184373" data-name="Trazado 184373" d="M3569.061-2486.512h-1.748v-1.768h1.748Z" transform="translate(-3525.473 2514.927)" fill="#12263f"/>
        <path id="Trazado_184374" data-name="Trazado 184374" d="M3325.385-2622.724h-1.753v-1.752h1.753Z" transform="translate(-3314.085 2633.075)" fill="#12263f"/>
        <path id="Trazado_184375" data-name="Trazado 184375" d="M3380.775-2624.522h1.774v1.743h-1.774Z" transform="translate(-3363.655 2633.115)" fill="#12263f"/>
        <path id="Trazado_184376" data-name="Trazado 184376" d="M3567.272-2515.531v-1.8a3.043,3.043,0,0,1,.416-.057c1.634.022,1.335-.248,1.377,1.4.008.342-.12.478-.462.463C3568.188-2515.545,3567.771-2515.531,3567.272-2515.531Z" transform="translate(-3525.438 2540.181)" fill="#12263f"/>
        <path id="Trazado_184377" data-name="Trazado 184377" d="M3531.562-2459.833h1.719v1.771h-1.719Z" transform="translate(-3494.46 2490.251)" fill="#12263f"/>
        <path id="Trazado_184378" data-name="Trazado 184378" d="M3389.016-2491.923a4.852,4.852,0,0,1-4.853-4.894,4.865,4.865,0,0,1,4.89-4.865,4.89,4.89,0,0,1,4.863,4.9A4.867,4.867,0,0,1,3389.016-2491.923Zm3.022-4.858a3.006,3.006,0,0,0-2.955-3.025,3.023,3.023,0,0,0-3.063,2.992,3.051,3.051,0,0,0,3.03,3.034A3.022,3.022,0,0,0,3392.039-2496.781Z" transform="translate(-3366.594 2526.553)" fill="#12263f"/>
      </g>
    </g>
  </g>
</svg>
